<?xml version="1.0" encoding="UTF-8"?>
<!DOCTYPE svg PUBLIC "-//W3C//DTD SVG 1.1//EN" "http://www.w3.org/Graphics/SVG/1.1/DTD/svg11.dtd">
<!-- Creator: CorelDRAW -->
<svg xmlns="http://www.w3.org/2000/svg" xml:space="preserve" width="6.82666in" height="6.82666in" style="shape-rendering:geometricPrecision; text-rendering:geometricPrecision; image-rendering:optimizeQuality; fill-rule:evenodd; clip-rule:evenodd"
viewBox="0 0 6.82666 6.82666"
 xmlns:xlink="http://www.w3.org/1999/xlink"
 version="1.1">
 <defs>
  <style type="text/css">
   <![CDATA[
    .fil0 {fill:none}
    .fil3 {fill:#00DC7F}
    .fil1 {fill:#333333}
    .fil2 {fill:#CCCCCC}
   ]]>
  </style>
 </defs>
 <rect class="fil0" width="6.82666" height="6.82666"/>
 <g id="Layer_x0020_1">
  <metadata id="CorelCorpID_0Corel-Layer"/>
  <g id="_444097544">
   <g id="_260629944">
    <path id="_444100640" class="fil1" d="M3.52599 5.0232l-0.225315 0c-0.0633268,0 -0.119992,-0.0249961 -0.163984,-0.0723268 -0.0363307,-0.0393307 -0.0613307,-0.0913268 -0.0719961,-0.150657l-0.0316614 -0.174654c-0.0716614,-0.0223307 -0.141323,-0.0513268 -0.208319,-0.0863268l-0.145988 0.100992c-0.0496614,0.0343346 -0.103992,0.0536614 -0.157323,0.0556614 -0.0643307,0.00233465 -0.122323,-0.0199961 -0.166988,-0.0646614l-0.159323 -0.159319c-0.0446614,-0.0446654 -0.0673268,-0.102661 -0.0646575,-0.166988 0.00199606,-0.0533268 0.0213307,-0.107657 0.0556614,-0.157323l0.100988 -0.145988c-0.0349961,-0.0666614 -0.0639961,-0.136654 -0.0863228,-0.208319l-0.174657 -0.0316614c-0.0593268,-0.0106654 -0.111323,-0.0356654 -0.150654,-0.0719961 -0.0473307,-0.0436614 -0.0723307,-0.100327 -0.0723307,-0.163984l0 -0.225319c0,-0.0633268 0.025,-0.119992 0.0723307,-0.163984 0.0393307,-0.0363346 0.0913268,-0.0613307 0.150654,-0.0719961l0.174657 -0.0316614c0.0223307,-0.0716614 0.0513268,-0.141327 0.0863228,-0.208319l-0.100988 -0.145988c-0.0343346,-0.0496614 -0.0536654,-0.103992 -0.0556614,-0.157323 -0.00233465,-0.0643307 0.0199961,-0.122327 0.0646575,-0.166988l0.159323 -0.159323c0.0446654,-0.0446614 0.102661,-0.0669961 0.166988,-0.0646575 0.0533268,0.00199606 0.107657,0.0213307 0.157323,0.0556575l0.145988 0.100992c0.0666614,-0.0349961 0.136654,-0.0639961 0.208319,-0.0863268l0.0316614 -0.174654c0.0106654,-0.0593268 0.0356654,-0.111323 0.0719961,-0.150654 0.0436614,-0.0473307 0.100327,-0.0723307 0.163984,-0.0723307l0.225315 3.93701e-006c0.0633268,0 0.119992,0.025 0.163984,0.0723268 0.0363307,0.0393307 0.0613307,0.0913307 0.0719961,0.150657l0.0316614 0.174654c0.0716614,0.0223346 0.141323,0.0513307 0.208319,0.0863268l0.145988 -0.100992c0.0496614,-0.0343307 0.103992,-0.0536614 0.157323,-0.0556614 0.0643307,-0.00233071 0.122323,0.02 0.166988,0.0646614l0.159323 0.159323c0.0446614,0.0446614 0.0673268,0.102657 0.0646575,0.166984 -0.00199606,0.0533307 -0.0213307,0.107661 -0.0556614,0.157323l-0.100988 0.145988c0.0349961,0.0666614 0.0639961,0.136657 0.0863228,0.208319l0.174657 0.0316654c0.0593268,0.0106614 0.111323,0.0356614 0.150654,0.0719921 0.0473307,0.0436614 0.0723307,0.100327 0.0723307,0.163988l0 0.225315c0,0.0633307 -0.025,0.119992 -0.0723307,0.163988 -0.0393307,0.0363307 -0.0913268,0.0613307 -0.150654,0.0719961l-0.174657 0.0316614c-0.0223307,0.0716614 -0.0513268,0.141323 -0.0863228,0.208319l0.100988 0.145988c0.0343346,0.0496614 0.0536654,0.103992 0.0556614,0.157323 0.00233465,0.0643307 -0.0199961,0.122323 -0.0646575,0.166984l-0.159323 0.159323c-0.0446654,0.0446654 -0.102661,0.0673307 -0.166988,0.0646614 -0.0533268,-0.002 -0.107657,-0.0213307 -0.157323,-0.0556614l-0.145988 -0.100992c-0.0666614,0.0349961 -0.136654,0.0639961 -0.208319,0.0863268l-0.0316614 0.174654c-0.0106654,0.0593307 -0.0356654,0.111327 -0.0719961,0.150657 -0.0439921,0.0473268 -0.100657,0.0723228 -0.163984,0.0723228zm-0.705945 -0.657614c0.0136654,0 0.0276654,0.00366535 0.0399961,0.0106614 0.0829961,0.0476654 0.171657,0.0846614 0.26398,0.109327 0.03,0.008 0.0523307,0.0326654 0.0579961,0.0629961l0.0406654 0.223315c0.00266535,0.0153307 0.0196614,0.0913268 0.0783268,0.0913268l0.225315 0c0.0589921,0 0.0756614,-0.0759961 0.0783268,-0.0913268l0.0406614 -0.222984c0.00566535,-0.0303307 0.028,-0.0549961 0.0579961,-0.0629961 0.0923268,-0.0246654 0.180988,-0.0616614 0.26398,-0.109327 0.0266654,-0.0153307 0.0599961,-0.0139961 0.0853268,0.00366929l0.186654 0.129323c0.0126693,0.009 0.0783307,0.0506614 0.119992,0.00933465l0.159323 -0.159323c0.0416614,-0.0416654 -0.000334646,-0.107327 -0.00933465,-0.119992l-0.129323 -0.186654c-0.0176654,-0.0253307 -0.019,-0.0586614 -0.00366929,-0.0853268 0.0476654,-0.0829921 0.0846614,-0.171654 0.109327,-0.26398 0.008,-0.0299961 0.0326654,-0.0523307 0.0629961,-0.0579961l0.223315 -0.0406614c0.0153346,-0.00266929 0.0913268,-0.0196654 0.0913268,-0.0783307l0 -0.225315c0,-0.0589961 -0.0759921,-0.0756614 -0.0913268,-0.0783268l-0.222984 -0.0406654c-0.0303307,-0.00566535 -0.0549961,-0.0279961 -0.0629961,-0.0579961 -0.0249961,-0.0923228 -0.0616575,-0.180988 -0.109327,-0.26398 -0.0153307,-0.0266614 -0.0139961,-0.0599961 0.00366929,-0.0853268l0.129323 -0.186654c0.009,-0.0126654 0.0506614,-0.0783268 0.00933465,-0.119992l-0.159323 -0.159319c-0.0416614,-0.0416654 -0.107323,0.000330709 -0.119992,0.00933071l-0.186654 0.129323c-0.0253307,0.0176654 -0.0586575,0.019 -0.0853268,0.00366929 -0.0829921,-0.0476614 -0.171654,-0.0846614 -0.26398,-0.109327 -0.0299961,-0.008 -0.0523307,-0.0326654 -0.0579961,-0.0629961l-0.0406614 -0.223315c-0.00266535,-0.0153307 -0.0196654,-0.0913268 -0.0783268,-0.0913268l-0.225315 7.87402e-006c-0.0589961,0 -0.0756614,0.0759961 -0.0783268,0.0913268l-0.0406654 0.223315c-0.00566535,0.0303346 -0.0279961,0.055 -0.0579961,0.0629961 -0.0919921,0.0246654 -0.180984,0.0616614 -0.26398,0.109327 -0.0266614,0.0153346 -0.0599921,0.014 -0.0853268,-0.00366535l-0.186654 -0.129327c-0.0126654,-0.00899606 -0.0783268,-0.0506614 -0.119992,-0.00933071l-0.159319 0.159323c-0.0416654,0.0416614 0.000330709,0.107323 0.00933071,0.119988l0.129327 0.186654c0.0176614,0.0253346 0.0189961,0.0586614 0.00366535,0.0853307 -0.0476614,0.0829921 -0.0846614,0.171654 -0.109327,0.26398 -0.00799606,0.0299961 -0.0326654,0.0523307 -0.0629961,0.0579961l-0.223315 0.0406614c-0.0153307,0.00266535 -0.0913268,0.0196654 -0.0913268,0.0783268l0 0.225319c0,0.0589921 0.0759961,0.0756614 0.0913268,0.0783268l0.222984 0.0406614c0.0303307,0.00566535 0.055,0.028 0.0629961,0.0579961 0.025,0.0923268 0.0616614,0.180988 0.109327,0.26398 0.0153307,0.0266654 0.0139961,0.0599961 -0.00366535,0.0853307l-0.129327 0.18665c-0.009,0.0126693 -0.0506614,0.0783307 -0.00933071,0.119992l0.159319 0.159323c0.0416654,0.0416614 0.107327,-0.000334646 0.119992,-0.00933465l0.186654 -0.129323c0.0133346,-0.0100039 0.0293307,-0.0146693 0.0453307,-0.0146693z"/>
   </g>
   <g>
    <g id="_260630520">
     <path id="_444101024" class="fil1" d="M3.41333 1.96344c-0.0443307,0 -0.0799921,-0.0356654 -0.0799921,-0.0799921l0 -0.301976c0,-0.27965 0.227315,-0.506965 0.506961,-0.506965l0.431299 0c0.0443307,0 0.0799921,0.0356614 0.0799921,0.0799921 0,0.0443268 -0.0356614,0.0799921 -0.0799921,0.0799921l-0.431299 3.93701e-006c-0.191323,0 -0.346976,0.155654 -0.346976,0.346972l0 0.301976c0,0.0443307 -0.0356614,0.0799961 -0.0799921,0.0799961z"/>
    </g>
    <g id="_260632200">
     <path id="_444100136" class="fil1" d="M4.49891 1.46848c-0.16965,0 -0.307642,-0.137988 -0.307642,-0.307642 0,-0.169654 0.137988,-0.307311 0.307642,-0.307311 0.169657,0 0.307642,0.137988 0.307642,0.307642 0,0.169654 -0.137988,0.307311 -0.307642,0.307311zm0 -0.454965c-0.0813268,0 -0.147654,0.0663307 -0.147654,0.147657 0,0.0813268 0.0663268,0.147657 0.147654,0.147657 0.0813307,0 0.147657,-0.0663307 0.147657,-0.147657 0,-0.0813268 -0.0663268,-0.147657 -0.147657,-0.147657z"/>
    </g>
   </g>
   <g>
    <g id="_260632440">
     <path id="_444099920" class="fil1" d="M5.67216 4.35159c-0.0443307,0 -0.0799921,-0.0356654 -0.0799921,-0.0799921l0 -0.431299c0,-0.191319 -0.155657,-0.346976 -0.346972,-0.346976l-0.301976 0c-0.0443307,0 -0.0799961,-0.0356654 -0.0799961,-0.0799961 0,-0.0443268 0.0356654,-0.0799921 0.0799961,-0.0799921l0.301976 0c0.279646,0 0.506961,0.227315 0.506961,0.506965l0 0.431299c0,0.0439961 -0.0356654,0.0799921 -0.0799961,0.0799921z"/>
    </g>
    <g id="_260624760">
     <path id="_444100448" class="fil1" d="M5.66549 4.80656c-0.169654,0 -0.307642,-0.137988 -0.307642,-0.307642 0,-0.169654 0.137988,-0.307642 0.307642,-0.307642 0.169654,0 0.307642,0.137988 0.307642,0.307642 0,0.169654 -0.137988,0.307642 -0.307642,0.307642zm0 -0.455299c-0.0813268,0 -0.147654,0.0663307 -0.147654,0.147657 0,0.0813268 0.0663268,0.147657 0.147654,0.147657 0.0813268,0 0.147657,-0.0663307 0.147657,-0.147657 0,-0.0813268 -0.0663307,-0.147657 -0.147657,-0.147657z"/>
    </g>
   </g>
   <g>
    <g id="_260625192">
     <path id="_444099968" class="fil1" d="M2.98636 5.75215l-0.431299 0c-0.0443307,0 -0.0799921,-0.0356614 -0.0799921,-0.0799921 0,-0.0443268 0.0356614,-0.0799921 0.0799921,-0.0799921l0.431299 -3.93701e-006c0.191319,0 0.346972,-0.155654 0.346972,-0.346972l3.93701e-006 -0.301976c0,-0.0443268 0.0356614,-0.0799921 0.0799921,-0.0799921 0.0443307,0 0.0799921,0.0356654 0.0799921,0.0799921l0 0.301976c0,0.279646 -0.227315,0.506961 -0.506961,0.506961z"/>
    </g>
    <g id="_260629512">
     <path id="_444099200" class="fil1" d="M2.32775 5.97313c-0.169654,0 -0.307642,-0.137988 -0.307642,-0.307642 0,-0.169654 0.137988,-0.307642 0.307642,-0.307642 0.16965,0 0.307642,0.137988 0.307642,0.307642 0,0.169654 -0.137988,0.307642 -0.307642,0.307642zm0 -0.454965c-0.0813307,0 -0.147657,0.0663268 -0.147657,0.147657 0,0.0813268 0.0663268,0.147654 0.147657,0.147654 0.0813268,0 0.147654,-0.0663268 0.147654,-0.147654 0,-0.0813307 -0.0663268,-0.147657 -0.147654,-0.147657z"/>
    </g>
   </g>
   <g>
    <g id="_506763472">
     <path id="_444099584" class="fil1" d="M1.88344 3.49332l-0.301976 0c-0.279646,0 -0.506961,-0.227315 -0.506961,-0.506965l0 -0.431299c0,-0.0443268 0.0356654,-0.0799921 0.0799921,-0.0799921 0.0443307,0 0.0799961,0.0356654 0.0799961,0.0799921l0 0.431299c0,0.191319 0.155654,0.346976 0.346972,0.346976l0.301976 0c0.0443307,0 0.0799961,0.0356654 0.0799961,0.0799921 0,0.0443307 -0.0356614,0.0799961 -0.0799961,0.0799961z"/>
    </g>
    <g id="_506768104">
     <path id="_444099440" class="fil1" d="M1.16117 2.63539c-0.169654,0 -0.307642,-0.137988 -0.307642,-0.307646 0,-0.169654 0.137988,-0.307642 0.307642,-0.307642 0.169654,0 0.307642,0.137988 0.307642,0.307642 -0.000330709,0.169657 -0.138319,0.307646 -0.307642,0.307646zm0 -0.455303c-0.0813268,0 -0.147654,0.0663307 -0.147654,0.147657 0,0.0813268 0.0663268,0.147657 0.147657,0.147657 0.0813268,0 0.147654,-0.0663307 0.147654,-0.147657 -0.000334646,-0.0813268 -0.0663307,-0.147657 -0.147657,-0.147657z"/>
    </g>
   </g>
   <g>
    <g>
     <g id="_506761864">
      <path id="_444099536" class="fil1" d="M3.27401 3.8763c-0.0443307,0 -0.0799961,-0.0356654 -0.0799961,-0.0799921l0 -0.29798c0,-0.0443307 0.0356654,-0.0799921 0.0799961,-0.0799921 0.0443268,0 0.0799921,0.0356614 0.0799921,0.0799921l0 0.29798c3.93701e-006,0.0443268 -0.0356614,0.0799921 -0.0799921,0.0799921z"/>
     </g>
     <g id="_513326056">
      <path id="_444099032" class="fil1" d="M3.48199 3.57831l-0.207984 0c-0.0443307,0 -0.0799961,-0.0356614 -0.0799961,-0.0799921l0 -0.467965c0,-0.0443307 0.0356654,-0.0799921 0.0799961,-0.0799921l0.207984 -3.93701e-006c0.158654,0 0.287976,0.129323 0.287976,0.28798l0 0.0519961c0,0.158654 -0.128988,0.287976 -0.287976,0.287976zm-0.127988 -0.159988l0.127988 0c0.0706614,0 0.127988,-0.0573307 0.127988,-0.127988l0 -0.0519961c0,-0.0706614 -0.0573268,-0.127992 -0.127988,-0.127992l-0.127988 0 0 0.307976z"/>
     </g>
    </g>
    <g>
     <g id="_261964672">
      <path id="_444098264" class="fil1" d="M3.03303 3.8763c-0.0443307,0 -0.0799921,-0.0356654 -0.0799921,-0.0799921l0 -0.54763c0,-0.0763268 -0.0619961,-0.138323 -0.138323,-0.138323 -0.0763307,0 -0.138327,0.0619961 -0.138327,0.138323l0 0.547626c0,0.0443307 -0.0356614,0.0799921 -0.0799921,0.0799921 -0.0443268,0 -0.0799921,-0.0356614 -0.0799921,-0.0799921l-3.93701e-006 -0.547626c0,-0.164654 0.133988,-0.298307 0.298311,-0.298307 0.164319,0 0.298307,0.133988 0.298307,0.298307l0 0.547626c3.93701e-006,0.0443307 -0.0359921,0.0799961 -0.0799882,0.0799961z"/>
     </g>
     <g id="_261964792">
      <path id="_444098336" class="fil1" d="M3.03303 3.53298l-0.436634 0c-0.0443268,0 -0.0799921,-0.0356614 -0.0799921,-0.0799921 0,-0.0443268 0.0356654,-0.0799921 0.0799921,-0.0799921l0.436634 -3.93701e-006c0.0443268,0 0.0799921,0.0356654 0.0799921,0.0799921 0,0.0443307 -0.0359961,0.0799961 -0.0799921,0.0799961z"/>
     </g>
    </g>
    <g>
     <g id="_261965032">
      <path id="_444098984" class="fil1" d="M4.05528 3.8763c-0.0443307,0 -0.0799961,-0.0356654 -0.0799961,-0.0799921l0 -0.765945c0,-0.0443307 0.0356654,-0.0799921 0.0799961,-0.0799921 0.0443268,0 0.0799921,0.0356614 0.0799921,0.0799921l0 0.765941c0,0.0443307 -0.0356654,0.0799961 -0.0799921,0.0799961z"/>
     </g>
     <g id="_261965392">
      <path id="_444098552" class="fil1" d="M4.2306 3.11035l-0.349972 0c-0.0443307,0 -0.0799961,-0.0356614 -0.0799961,-0.0799921 0,-0.0443307 0.0356654,-0.0799921 0.0799961,-0.0799921l0.349972 -3.93701e-006c0.0443268,0 0.0799921,0.0356654 0.0799921,0.0799921 0,0.0443307 -0.0359961,0.0799961 -0.0799921,0.0799961z"/>
     </g>
     <g id="_261964912">
      <path id="_444098504" class="fil1" d="M4.2306 3.8763l-0.349972 0c-0.0443307,0 -0.0799961,-0.0356654 -0.0799961,-0.0799921 0,-0.0443307 0.0356654,-0.0799961 0.0799961,-0.0799961l0.349972 0c0.0443268,0 0.0799921,0.0356614 0.0799921,0.0799921 0,0.0443307 -0.0359961,0.0799961 -0.0799921,0.0799961z"/>
     </g>
    </g>
   </g>
  </g>
  <path class="fil2" d="M3.80063 3.03036c0,-0.0443307 0.0356654,-0.0799921 0.0799961,-0.0799921l0.174654 0 0.175319 -3.93701e-006c0.0443268,0 0.0799921,0.0356654 0.0799921,0.0799921 0,0.0443307 -0.0359961,0.0799961 -0.0799921,0.0799961l-0.0953268 0 0 0.605957 0.0953268 0c0.0443268,0 0.0799921,0.0356614 0.0799921,0.0799921 0,0.0443307 -0.0359961,0.0799961 -0.0799921,0.0799961l-0.175319 0 -0.174654 0c-0.0443307,0 -0.0799961,-0.0356654 -0.0799961,-0.0799921 0,-0.0443307 0.0356654,-0.0799961 0.0799961,-0.0799961l0.0946575 0 0 -0.605957 -0.0946575 0c-0.0443307,0 -0.0799961,-0.0356614 -0.0799961,-0.0799921zm-0.318642 -0.0799961c0.158654,0 0.287976,0.129323 0.287976,0.28798l0 0.0519961c0,0.158654 -0.128988,0.287976 -0.287976,0.287976l-0.127992 0 0 0.217988c3.93701e-006,0.0443268 -0.0356614,0.0799921 -0.0799921,0.0799921 -0.0443307,0 -0.0799961,-0.0356654 -0.0799961,-0.0799921l0 -0.29798 0 -0.467965c0,-0.0443307 0.0356654,-0.0799921 0.0799961,-0.0799921l0.207984 -3.93701e-006zm-0.0686614 1.91286l0.112992 -3.93701e-006c0.0589921,0 0.0756614,-0.0759961 0.0783268,-0.0913268l0.0406614 -0.222984c0.00566535,-0.0303307 0.028,-0.0549961 0.0579961,-0.0629961 0.0923268,-0.0246654 0.180988,-0.0616614 0.26398,-0.109327 0.0266654,-0.0153307 0.0599961,-0.0139961 0.0853268,0.00366929l0.186654 0.129323c0.0126693,0.009 0.0783307,0.0506614 0.119992,0.00933465l0.159323 -0.159323c0.0416614,-0.0416654 -0.000334646,-0.107327 -0.00933465,-0.119992l-0.129323 -0.186654c-0.0176654,-0.0253307 -0.019,-0.0586614 -0.00366929,-0.0853268 0.0476654,-0.0829921 0.0846614,-0.171654 0.109327,-0.26398 0.008,-0.0299961 0.0326654,-0.0523307 0.0629961,-0.0579961l0.223315 -0.0406614c0.0153346,-0.00266929 0.0913268,-0.0196654 0.0913268,-0.0783307l0 -0.113319 0 -0.111996c0,-0.0589961 -0.0759921,-0.0756614 -0.0913268,-0.0783268l-0.222984 -0.0406654c-0.0303307,-0.00566535 -0.0549961,-0.0279961 -0.0629961,-0.0579961 -0.0249961,-0.0923228 -0.0616575,-0.180988 -0.109327,-0.26398 -0.0153307,-0.0266614 -0.0139961,-0.0599961 0.00366929,-0.0853268l0.129323 -0.186654c0.009,-0.0126654 0.0506614,-0.0783268 0.00933465,-0.119992l-0.159323 -0.159319c-0.0416614,-0.0416654 -0.107323,0.000330709 -0.119992,0.00933071l-0.186654 0.129323c-0.0253307,0.0176654 -0.0586575,0.019 -0.0853268,0.00366929 -0.0829921,-0.0476614 -0.171654,-0.0846614 -0.26398,-0.109327 -0.0299961,-0.008 -0.0523307,-0.0326654 -0.0579961,-0.0629961l-0.0406614 -0.223315c-0.00266535,-0.0153307 -0.0196654,-0.0913268 -0.0783268,-0.0913268l-0.225315 7.87402e-006c-0.0589961,0 -0.0756614,0.0759961 -0.0783268,0.0913268l-0.0406654 0.223315c-0.00566535,0.0303346 -0.0279961,0.055 -0.0579961,0.0629961 -0.0919921,0.0246654 -0.180984,0.0616614 -0.26398,0.109327 -0.0266614,0.0153346 -0.0599921,0.014 -0.0853268,-0.00366535l-0.186654 -0.129327c-0.0126654,-0.00899606 -0.0783268,-0.0506614 -0.119992,-0.00933071l-0.159319 0.159323c-0.0416654,0.0416614 0.000330709,0.107323 0.00933071,0.119988l0.129327 0.186654c0.0176614,0.0253346 0.0189961,0.0586614 0.00366535,0.0853307 -0.0476614,0.0829921 -0.0846614,0.171654 -0.109327,0.26398 -0.00799606,0.0299961 -0.0326654,0.0523307 -0.0629961,0.0579961l-0.223315 0.0406614c-0.0153307,0.00266535 -0.0913268,0.0196654 -0.0913268,0.0783268l0 0.225319c0,0.0589921 0.0759961,0.0756614 0.0913268,0.0783268l0.222984 0.0406614c0.0303307,0.00566535 0.055,0.028 0.0629961,0.0579961 0.025,0.0923268 0.0616614,0.180988 0.109327,0.26398 0.0153307,0.0266654 0.0139961,0.0599961 -0.00366535,0.0853307l-0.129327 0.18665c-0.009,0.0126693 -0.0506614,0.0783307 -0.00933071,0.119992l0.159319 0.159323c0.0416654,0.0416614 0.107327,-0.000334646 0.119992,-0.00933465l0.186654 -0.129323c0.0133346,-0.0100039 0.0293307,-0.0146693 0.0453307,-0.0146693 0.0136654,0 0.0276654,0.00366535 0.0399961,0.0106614 0.0829961,0.0476654 0.171657,0.0846614 0.26398,0.109327 0.03,0.008 0.0523307,0.0326654 0.0579961,0.0629961l0.0406654 0.223315c0.00266535,0.0153307 0.0196614,0.0913268 0.0783268,0.0913268l0.112323 3.93701e-006zm-0.300315 -1.61455l0 0.203508c3.93701e-006,0.000267717 3.93701e-006,0.00053937 3.93701e-006,0.000807087 0,0.000267717 0,0.000535433 -3.93701e-006,0.00080315l0 0.342508c3.93701e-006,0.0443307 -0.0359921,0.0799961 -0.0799882,0.0799961 -0.0443307,0 -0.0799921,-0.0356654 -0.0799921,-0.0799921l0 -0.263319 -0.27665 0 0 0.263315c0,0.0443307 -0.0356614,0.0799921 -0.0799921,0.0799921 -0.0443268,0 -0.0799921,-0.0356614 -0.0799921,-0.0799921l0 -0.343307 -3.93701e-006 -0.204319c0,-0.164654 0.133988,-0.298307 0.298311,-0.298307 0.164319,0 0.298307,0.133988 0.298307,0.298307z"/>
  <path class="fil2" d="M3.60998 3.23834c0,-0.0706614 -0.0573268,-0.127992 -0.127988,-0.127992l-0.127988 0 0 0.307976 0.127988 0c0.0706614,0 0.127988,-0.0573307 0.127988,-0.127988l0 -0.0519961z"/>
  <path class="fil2" d="M2.95304 3.373l0 -0.124323c0,-0.0763268 -0.0619961,-0.138323 -0.138323,-0.138323 -0.0763307,0 -0.138327,0.0619961 -0.138327,0.138323l0 0.124327 0.27665 -3.93701e-006z"/>
  <path class="fil3" d="M4.35126 1.16184c0.000366142,0.0810197 0.0665512,0.146984 0.147654,0.146984 0.0813307,0 0.147657,-0.0663307 0.147657,-0.147657 0,-0.0813268 -0.0663268,-0.147657 -0.147657,-0.147657 -0.0782087,0 -0.142547,0.0613425 -0.147362,0.138378 2.3622e-005,0.000866142 3.93701e-005,0.00173622 3.93701e-005,0.00261024 0,0.00247638 -0.000110236,0.0049252 -0.000330709,0.00734252z"/>
  <path class="fil3" d="M5.66477 4.35126c-0.0809961,0.000389764 -0.146933,0.0665709 -0.146933,0.147657 0,0.0813268 0.0663268,0.147657 0.147654,0.147657 0.0813268,0 0.147657,-0.0663307 0.147657,-0.147657 0,-0.0781969 -0.0613268,-0.142531 -0.138343,-0.147366 -0.000877953,2.75591e-005 -0.00176378,4.33071e-005 -0.00264961,4.33071e-005 -0.00249213,0 -0.00495276,-0.000114173 -0.00738583,-0.000334646z"/>
  <path class="fil3" d="M2.4754 5.66483c-0.000535433,-0.080878 -0.0666535,-0.146665 -0.14765,-0.146665 -0.0813307,0 -0.147657,0.0663268 -0.147657,0.147657 0,0.0813268 0.0663268,0.147654 0.147657,0.147654 0.078248,0 0.142614,-0.0614016 0.14737,-0.138492 -3.14961e-005,-0.000940945 -4.72441e-005,-0.00188189 -4.72441e-005,-0.00283071 0,-0.0024685 0.000110236,-0.00491339 0.000326772,-0.00732283z"/>
  <path class="fil3" d="M1.16189 2.4754c0.081,-0.000385827 0.146941,-0.0665669 0.146941,-0.147657 -0.000334646,-0.0813268 -0.0663307,-0.147657 -0.147657,-0.147657 -0.0813268,0 -0.147654,0.0663307 -0.147654,0.147657 0,0.0781969 0.0613189,0.142528 0.138335,0.147366 0.000877953,-2.75591e-005 0.00176378,-4.33071e-005 0.00264961,-4.33071e-005 0.00249213,0 0.00495276,0.000114173 0.00738583,0.000334646z"/>
 </g>
</svg>
