<?xml version="1.0" encoding="UTF-8"?>
<!DOCTYPE svg PUBLIC "-//W3C//DTD SVG 1.1//EN" "http://www.w3.org/Graphics/SVG/1.1/DTD/svg11.dtd">
<!-- Creator: CorelDRAW -->
<svg xmlns="http://www.w3.org/2000/svg" xml:space="preserve" width="6.82666in" height="6.82666in" style="shape-rendering:geometricPrecision; text-rendering:geometricPrecision; image-rendering:optimizeQuality; fill-rule:evenodd; clip-rule:evenodd"
viewBox="0 0 6.82666 6.82666"
 xmlns:xlink="http://www.w3.org/1999/xlink">
 <defs>
  <style type="text/css">
   <![CDATA[
    .fil0 {fill:none}
    .fil1 {fill:#0065A3}
    .fil2 {fill:#333333}
    .fil3 {fill:#C8F5FE}
    .fil4 {fill:#E40048}
   ]]>
  </style>
 </defs>
 <rect class="fil0" width="6.82666" height="6.82666"/>
 <g id="Layer_x0020_1">
  <metadata id="CorelCorpID_0Corel-Layer"/>
  <path class="fil1" d="M0.98685 2.31042l0 -0.327311c0,-0.141374 0.115272,-0.256646 0.256646,-0.256646l1.37085 0 0.478531 0.583957 -2.10603 0zm1.2859 -0.23865c0.0296142,0 0.0533268,-0.0237205 0.0533268,-0.0533307 0,-0.0296102 -0.0237165,-0.0533268 -0.0533268,-0.0533268l-0.0879921 3.93701e-006c-0.0296102,0 -0.0533307,0.0237126 -0.0533307,0.0533268 0,0.0296142 0.0237205,0.0533268 0.0533307,0.0533268l0.0879921 0zm-0.334307 0c0.0294803,0 0.0529921,-0.0239291 0.0529921,-0.0533307 0,-0.0296102 -0.0237165,-0.0533268 -0.0533268,-0.0533268l-0.0879921 3.93701e-006c-0.0296102,0 -0.0533268,0.0237126 -0.0533268,0.0533268 0,0.0296102 0.0237165,0.0533268 0.0533268,0.0533268l0.0883268 0zm-0.334642 0c0.029437,0 0.0533268,-0.0238819 0.0533268,-0.0533307 0,-0.0296102 -0.0237165,-0.0533268 -0.0533268,-0.0533268l-0.0879921 3.93701e-006c-0.0296102,0 -0.0533307,0.0237126 -0.0533307,0.0533268 0,0.0296142 0.0237205,0.0533268 0.0533307,0.0533268l0.0879921 0zm1.14861 -0.344972l2.84509 0c0.133709,0 0.242315,0.108606 0.242315,0.242315l3.93701e-006 0.341307 -2.60909 0 -0.478315 -0.583622zm1.01556 0.344972l1.47888 0c0.0296142,0 0.0533307,-0.0237165 0.0533307,-0.0533307 0,-0.0296102 -0.0237205,-0.0533268 -0.0533307,-0.0533268l-1.47888 3.93701e-006c-0.0296102,0 -0.0533307,0.0237126 -0.0533307,0.0533268 0,0.0296142 0.0237205,0.0533268 0.0533307,0.0533268z"/>
  <g id="_444101552">
   <g id="_261965800">
    <path id="_444103088" class="fil2" d="M5.58317 5.23353l-4.33967 0c-0.21498,0 -0.389969,-0.174988 -0.389969,-0.389969l0 -2.86045c0,-0.21465 0.174319,-0.389303 0.388969,-0.389969 0.000334646,0 0.000669291,0 0.001,0l1.39589 0c0.0239961,0 0.0466614,0.0106654 0.0619921,0.0293307l0.541965 0.661283 2.6498 0c0.0443307,0 0.0799921,0.0356654 0.0799921,0.0799921l0 2.47981c0,0.21498 -0.174988,0.389969 -0.389969,0.389969zm-4.33867 -3.4804c-0.000330709,0 -0.000665354,0 -0.001,0 -0.126657,0 -0.22998,0.103327 -0.22998,0.22998l0 2.86012c0,0.126657 0.103327,0.22998 0.22998,0.22998l4.33967 0c0.126657,0 0.22998,-0.103327 0.22998,-0.22998l0 -2.39981 -2.6078 0c-0.024,0 -0.0466614,-0.0106654 -0.0619961,-0.0293307l-0.541622 -0.660953 -1.35723 0z"/>
   </g>
   <g id="_261966016">
    <path id="_444103160" class="fil2" d="M3.20535 2.44374l-2.27183 0c-0.0443307,0 -0.0799921,-0.0356654 -0.0799921,-0.0799961 0,-0.0443268 0.0356614,-0.0799921 0.0799921,-0.0799921l2.27183 0c0.0443268,0 0.0799921,0.0356654 0.0799921,0.0799921 0,0.0443307 -0.0356614,0.0799961 -0.0799921,0.0799961z"/>
   </g>
   <g id="_261966064">
    <path id="_444103568" class="fil2" d="M5.89314 2.44374c-0.0443307,0 -0.0799921,-0.0356654 -0.0799921,-0.0799961l-3.93701e-006 -0.394634c0,-0.118992 -0.0966614,-0.21565 -0.21565,-0.21565l-2.95811 0c-0.0443307,0 -0.0799921,-0.0356654 -0.0799921,-0.0799921 0,-0.0443307 0.0356614,-0.0799961 0.0799921,-0.0799961l2.95777 0c0.207319,0 0.375642,0.168654 0.375642,0.375638l0 0.394634c0.000330709,0.0439961 -0.0353307,0.0799961 -0.0796614,0.0799961z"/>
   </g>
   <g id="_261965464">
    <path id="_444103232" class="fil2" d="M5.24685 2.09843l-1.47888 0c-0.0443307,0 -0.0799961,-0.0356614 -0.0799961,-0.0799921 0,-0.0443307 0.0356654,-0.0799921 0.0799961,-0.0799921l1.47888 -3.93701e-006c0.0443307,0 0.0799961,0.0356654 0.0799961,0.0799921 0,0.0443307 -0.0356614,0.0799961 -0.0799961,0.0799961z"/>
   </g>
   <g id="_261965656">
    <path id="_444103280" class="fil2" d="M2.30341 3.63731l-0.486291 0c-0.0746614,0 -0.135657,-0.0606614 -0.135657,-0.135657l0 -0.485961c0,-0.0746614 0.0606614,-0.135657 0.135657,-0.135657l0.486291 0c0.0746614,0 0.135657,0.0606654 0.135657,0.135657l0 0.485965c-0.000330709,0.0746614 -0.0609961,0.135654 -0.135657,0.135654zm-0.46163 -0.159984l0.437299 0 0 -0.437303 -0.437299 0 0 0.437303zm0.46163 -0.437303l0 0 0 0z"/>
   </g>
   <g id="_261965680">
    <path id="_444102368" class="fil2" d="M2.30341 4.63691l-0.486291 0c-0.0746614,0 -0.135657,-0.0606614 -0.135657,-0.135657l0 -0.485961c0,-0.0746614 0.0606614,-0.135657 0.135657,-0.135657l0.486291 0c0.0746614,0 0.135657,0.0606614 0.135657,0.135657l0 0.485961c-0.000330709,0.0749961 -0.0609961,0.135657 -0.135657,0.135657zm-0.46163 -0.159988l0.437299 0 0 -0.436965 -0.437299 0 0 0.436965zm0.46163 -0.436965l0 0 0 0z"/>
   </g>
   <g>
    <g id="_261965872">
     <path id="_444102344" class="fil2" d="M4.7109 3.16502l-1.96218 0c-0.0443307,0 -0.0799921,-0.0356654 -0.0799921,-0.0799921 0,-0.0443307 0.0356614,-0.0799961 0.0799921,-0.0799961l1.96218 0c0.0443307,0 0.0799921,0.0356614 0.0799921,0.0799921 0,0.0443268 -0.0356614,0.0799961 -0.0799921,0.0799961z"/>
    </g>
    <g id="_261966592">
     <path id="_444102176" class="fil2" d="M4.7109 4.16494l-1.96218 0c-0.0443307,0 -0.0799921,-0.0356614 -0.0799921,-0.0799921 0,-0.0443307 0.0356614,-0.0799921 0.0799921,-0.0799921l1.96218 0c0.0443307,0 0.0799921,0.0356614 0.0799921,0.0799921 0,0.0443307 -0.0356614,0.0799921 -0.0799921,0.0799921z"/>
    </g>
   </g>
   <g>
    <g id="_261966616">
     <path id="_444102392" class="fil2" d="M5.06487 3.51233l-2.32416 0c-0.0443268,0 -0.0799921,-0.0356654 -0.0799921,-0.0799961 0,-0.0443268 0.0356654,-0.0799921 0.0799921,-0.0799921l2.32416 -3.93701e-006c0.0443307,0 0.0799921,0.0356654 0.0799921,0.0799961 0,0.0443268 -0.0356614,0.0799961 -0.0799921,0.0799961z"/>
    </g>
    <g id="_261966448">
     <path id="_444102440" class="fil2" d="M5.06487 4.51225l-2.32416 0c-0.0443268,0 -0.0799921,-0.0356654 -0.0799921,-0.0799921 0,-0.0443307 0.0356654,-0.0799921 0.0799921,-0.0799921l2.32416 0c0.0443307,0 0.0799921,0.0356614 0.0799921,0.0799921 0,0.0443268 -0.0356614,0.0799921 -0.0799921,0.0799921z"/>
    </g>
   </g>
   <g>
    <g id="_261966880">
     <path id="_444101672" class="fil2" d="M1.6038 2.09843l-0.0879921 0c-0.0443307,0 -0.0799961,-0.0356614 -0.0799961,-0.0799921 0,-0.0443307 0.0356654,-0.0799921 0.0799961,-0.0799921l0.0879921 -3.93701e-006c0.0443307,0 0.0799921,0.0356654 0.0799921,0.0799921 0,0.0443307 -0.0359961,0.0799961 -0.0799921,0.0799961z"/>
    </g>
    <g id="_261966640">
     <path id="_444101864" class="fil2" d="M1.93844 2.09843l-0.0883268 0c-0.0443307,0 -0.0799921,-0.0356614 -0.0799921,-0.0799921 0,-0.0443307 0.0356614,-0.0799921 0.0799921,-0.0799921l0.0879921 -3.93701e-006c0.0443307,0 0.0799921,0.0356654 0.0799921,0.0799921 0,0.0443307 -0.0356614,0.0799961 -0.0796575,0.0799961z"/>
    </g>
    <g id="_261966496">
     <path id="_444101840" class="fil2" d="M2.27275 2.09843l-0.0879921 0c-0.0443307,0 -0.0799961,-0.0356614 -0.0799961,-0.0799921 0,-0.0443307 0.0356654,-0.0799921 0.0799961,-0.0799921l0.0879921 -3.93701e-006c0.0443307,0 0.0799921,0.0356654 0.0799921,0.0799921 0,0.0443307 -0.0356614,0.0799961 -0.0799921,0.0799961z"/>
    </g>
   </g>
  </g>
  <path class="fil3" d="M3.20535 2.44374l-2.19183 0 0 2.39948c0,0.126657 0.103327,0.22998 0.22998,0.22998l4.33967 0c0.126657,0 0.22998,-0.103327 0.22998,-0.22998l0 -2.39981 -2.60044 0c-0.0024252,0.000220472 -0.00487795,0.000330709 -0.0073622,0.000330709zm-0.45663 0.561291l1.96218 0c0.0443307,0 0.0799921,0.0356614 0.0799921,0.0799921 0,0.0443268 -0.0356614,0.0799961 -0.0799921,0.0799961l-1.96218 0c-0.0443307,0 -0.0799921,-0.0356654 -0.0799921,-0.0799921 0,-0.0443307 0.0356614,-0.0799961 0.0799921,-0.0799961zm-0.00800394 0.347307l2.32416 -3.93701e-006c0.0443307,0 0.0799921,0.0356654 0.0799921,0.0799961 0,0.0443268 -0.0356614,0.0799961 -0.0799921,0.0799961l-2.32416 0c-0.0443268,0 -0.0799921,-0.0356654 -0.0799921,-0.0799961 0,-0.0443268 0.0356654,-0.0799921 0.0799921,-0.0799921zm0.00800394 0.652618l1.96218 0c0.0443307,0 0.0799921,0.0356614 0.0799921,0.0799921 0,0.0443307 -0.0356614,0.0799921 -0.0799921,0.0799921l-1.96218 0c-0.0443307,0 -0.0799921,-0.0356614 -0.0799921,-0.0799921 0,-0.0443307 0.0356614,-0.0799921 0.0799921,-0.0799921zm-0.00800394 0.347307l2.32416 0c0.0443307,0 0.0799921,0.0356614 0.0799921,0.0799921 0,0.0443268 -0.0356614,0.0799921 -0.0799921,0.0799921l-2.32416 0c-0.0443268,0 -0.0799921,-0.0356654 -0.0799921,-0.0799921 0,-0.0443307 0.0356654,-0.0799921 0.0799921,-0.0799921zm-0.301642 -0.336976l0 0.485961c-0.000330709,0.0749961 -0.0609961,0.135657 -0.135657,0.135657l-0.486291 0c-0.0746614,0 -0.135657,-0.0606614 -0.135657,-0.135657l0 -0.485961c0,-0.0746614 0.0606614,-0.135657 0.135657,-0.135657l0.486291 0c0.0746614,0 0.135657,0.0606614 0.135657,0.135657zm0 -0.999591l0 0.485965c-0.000330709,0.0746614 -0.0609961,0.135654 -0.135657,0.135654l-0.486291 0c-0.0746614,0 -0.135657,-0.0606614 -0.135657,-0.135657l0 -0.485961c0,-0.0746614 0.0606614,-0.135657 0.135657,-0.135657l0.486291 0c0.0746614,0 0.135657,0.0606654 0.135657,0.135657z"/>
  <polygon class="fil4" points="2.27908,3.04003 1.84178,3.04003 1.84178,3.47733 2.27908,3.47733 "/>
  <polygon class="fil4" points="2.27908,4.03995 1.84178,4.03995 1.84178,4.47692 2.27908,4.47692 "/>
 </g>
</svg>
