<?xml version="1.0" encoding="UTF-8"?>
<!DOCTYPE svg PUBLIC "-//W3C//DTD SVG 1.1//EN" "http://www.w3.org/Graphics/SVG/1.1/DTD/svg11.dtd">
<!-- Creator: CorelDRAW -->
<svg xmlns="http://www.w3.org/2000/svg" xml:space="preserve" width="6.82666in" height="6.82666in" style="shape-rendering:geometricPrecision; text-rendering:geometricPrecision; image-rendering:optimizeQuality; fill-rule:evenodd; clip-rule:evenodd"
viewBox="0 0 6.82666 6.82666"
 xmlns:xlink="http://www.w3.org/1999/xlink">
 <defs>
  <style type="text/css">
   <![CDATA[
    .fil0 {fill:none}
    .fil1 {fill:#0065A3}
    .fil2 {fill:#333333}
    .fil4 {fill:#C8F5FE}
    .fil3 {fill:#CCCCCC}
   ]]>
  </style>
 </defs>
 <rect class="fil0" width="6.82666" height="6.82666"/>
 <g id="Layer_x0020_1">
  <metadata id="CorelCorpID_0Corel-Layer"/>
  <path class="fil1" d="M3.23073 1.76612l-0.478563 -0.583626 2.84533 0c0.133705,0 0.242315,0.10861 0.242315,0.242315l3.93701e-006 0.341311 -2.60909 0zm2.01613 -0.23865c0.0296142,0 0.0533307,-0.0237165 0.0533307,-0.0533307 0,-0.0296102 -0.0237205,-0.0533268 -0.0533307,-0.0533268l-1.47888 0c-0.0296102,0 -0.0533307,0.0237165 -0.0533307,0.0533268 0,0.0296102 0.0237205,0.0533307 0.0533307,0.0533307l1.47888 0zm-2.15424 0.23865l-2.10576 0 0 -0.326976c0,-0.141374 0.115272,-0.25665 0.256646,-0.25665l1.37085 0 0.47826 0.583626zm-0.819858 -0.23865c0.0296142,0 0.0533268,-0.0237205 0.0533268,-0.0533307 0,-0.0296102 -0.0237165,-0.0533268 -0.0533268,-0.0533268l-0.0879921 0c-0.0296102,0 -0.0533307,0.0237165 -0.0533307,0.0533268 0,0.0296102 0.0237205,0.0533307 0.0533307,0.0533307l0.0879921 0zm-0.334307 0c0.0294803,0 0.0529921,-0.0239291 0.0529921,-0.0533307 0,-0.0296102 -0.0237165,-0.0533268 -0.0533268,-0.0533268l-0.0879921 0c-0.0296102,0 -0.0533268,0.0237165 -0.0533268,0.0533268 0,0.0296102 0.0237126,0.0533307 0.0533268,0.0533307l0.0883268 0zm-0.334642 0c0.029437,0 0.0533268,-0.0238819 0.0533268,-0.0533307 0,-0.0296102 -0.0237165,-0.0533268 -0.0533268,-0.0533268l-0.0879921 0c-0.0296102,0 -0.0533307,0.0237165 -0.0533307,0.0533268 0,0.0296102 0.0237205,0.0533307 0.0533307,0.0533307l0.0879921 0z"/>
  <g id="_444104216">
   <g id="_261966424">
    <path id="_444072968" class="fil2" d="M5.58317 4.68923l-1.03059 0c-0.0443307,0 -0.0799961,-0.0356654 -0.0799961,-0.0799961 0,-0.0443268 0.0356654,-0.0799921 0.0799961,-0.0799921l1.03059 0c0.126657,0 0.22998,-0.103327 0.22998,-0.22998l0 -2.39982 -2.6078 0c-0.024,0 -0.0466614,-0.0106654 -0.0619961,-0.0293307l-0.541622 -0.660953 -1.35823 0c-0.126657,0 -0.22998,0.103327 -0.22998,0.229984l0 2.86011c0,0.126657 0.103327,0.22998 0.22998,0.22998l1.03059 3.93701e-006c0.0443307,0 0.0799961,0.0356654 0.0799961,0.0799921 0,0.0443307 -0.0356654,0.0799961 -0.0799961,0.0799961l-1.03059 0c-0.21498,0 -0.389969,-0.174988 -0.389969,-0.389972l0 -2.86011c0,-0.21498 0.174988,-0.389969 0.389969,-0.389969l1.39589 0c0.0239961,0 0.0466614,0.0106654 0.0619921,0.0293307l0.541965 0.660949 2.6498 0c0.0443307,0 0.0799921,0.0356614 0.0799921,0.0799921l0 2.47981c0,0.214984 -0.174988,0.389972 -0.389969,0.389972z"/>
   </g>
   <g id="_261966472">
    <path id="_444073496" class="fil2" d="M3.20535 1.89944l-2.27183 0c-0.0443307,0 -0.0799921,-0.0356654 -0.0799921,-0.0799921 0,-0.0443307 0.0356614,-0.0799961 0.0799921,-0.0799961l2.27183 0c0.0443268,0 0.0799921,0.0356614 0.0799921,0.0799921 0,0.0443268 -0.0356614,0.0799961 -0.0799921,0.0799961z"/>
   </g>
   <g id="_261966232">
    <path id="_444072440" class="fil2" d="M5.89314 1.89944c-0.0443307,0 -0.0799921,-0.0356654 -0.0799921,-0.0799921l-3.93701e-006 -0.394642c0,-0.118988 -0.0966614,-0.21565 -0.21565,-0.21565l-2.95811 0c-0.0443307,0 -0.0799921,-0.0356614 -0.0799921,-0.0799921 0,-0.0443307 0.0356614,-0.0799921 0.0799921,-0.0799921l2.95777 0c0.207319,0 0.375642,0.168654 0.375642,0.375638l0 0.394638c0.000330709,0.0443268 -0.0353307,0.0799921 -0.0796614,0.0799921z"/>
   </g>
   <g id="_261967720">
    <path id="_444072296" class="fil2" d="M5.24685 1.55414l-1.47888 0c-0.0443307,0 -0.0799961,-0.0356654 -0.0799961,-0.0799961 0,-0.0443268 0.0356654,-0.0799921 0.0799961,-0.0799921l1.47888 0c0.0443307,0 0.0799961,0.0356654 0.0799961,0.0799921 0,0.0443307 -0.0356614,0.0799961 -0.0799961,0.0799961z"/>
   </g>
   <g>
    <g id="_261967432">
     <path id="_444072320" class="fil2" d="M3.53199 5.77748l-0.236984 0c-0.0653268,0 -0.123992,-0.0259961 -0.169319,-0.0746614 -0.0376654,-0.0406614 -0.0636654,-0.0946575 -0.0746614,-0.156319l-0.0336654 -0.186323c-0.0769921,-0.0239961 -0.151654,-0.0549961 -0.222984,-0.0926575l-0.155654 0.107657c-0.0513307,0.0356654 -0.107992,0.0556614 -0.163323,0.0576654 -0.0666614,0.00233071 -0.126327,-0.0206654 -0.172654,-0.0669961l-0.167654 -0.167654c-0.0463307,-0.0463346 -0.0693268,-0.105996 -0.0669961,-0.172654 0.002,-0.0553307 0.022,-0.111992 0.0576654,-0.163323l0.107657 -0.155654c-0.0376654,-0.0713268 -0.0686614,-0.146323 -0.0926614,-0.222984l-0.185984 -0.0336654c-0.0616614,-0.0113307 -0.115657,-0.037 -0.156323,-0.0746614 -0.0489961,-0.0453307 -0.0746614,-0.103992 -0.0746614,-0.169323l0 -0.23698c0,-0.0653268 0.026,-0.123992 0.0746614,-0.169323 0.0406614,-0.0376614 0.0946575,-0.0636614 0.156323,-0.0746614l0.185984 -0.0336654c0.024,-0.0769921 0.0549961,-0.151654 0.0926614,-0.222984l-0.107657 -0.155654c-0.0356654,-0.0513307 -0.0556614,-0.107992 -0.0576654,-0.163323 -0.00266535,-0.0666614 0.0206654,-0.126323 0.0669961,-0.17265l0.167654 -0.167654c0.0463307,-0.0463346 0.105992,-0.0693307 0.172654,-0.0669961 0.0553307,0.00199606 0.111992,0.0219961 0.163323,0.0576614l0.155654 0.107657c0.0713268,-0.0376614 0.146323,-0.0686614 0.222984,-0.0926575l0.0336654 -0.186319c0.0113307,-0.0616614 0.0369961,-0.115657 0.0746614,-0.156323 0.0453268,-0.049 0.103988,-0.0746614 0.169319,-0.0746614l0.236984 7.87402e-006c0.0653268,0 0.123992,0.0259961 0.169319,0.0746614 0.0376654,0.0406614 0.0636654,0.0946575 0.0746614,0.156323l0.0336654 0.186319c0.0769921,0.0239961 0.151654,0.0549961 0.222984,0.0926575l0.155654 -0.107657c0.0513307,-0.0356614 0.107992,-0.0556614 0.163323,-0.0576614 0.0666614,-0.00266535 0.126327,0.0206654 0.172654,0.0669961l0.167654 0.167654c0.0463307,0.0463307 0.0693268,0.105992 0.0669961,0.172654 -0.002,0.0553268 -0.022,0.111992 -0.0576654,0.163319l-0.107657 0.155657c0.0376654,0.0713268 0.0686614,0.146319 0.0926614,0.222984l0.185984 0.0336654c0.0616614,0.0113307 0.115657,0.0369961 0.156323,0.0746575 0.0489961,0.0453307 0.0746614,0.103992 0.0746614,0.169323l0 0.236984c0,0.0653268 -0.026,0.123988 -0.0746614,0.169319 -0.0406614,0.0376654 -0.0946575,0.0636654 -0.156323,0.0746614l-0.186319 0.0336654c-0.024,0.0769921 -0.0549961,0.151654 -0.0926575,0.222984l0.107657 0.155654c0.0356614,0.0513307 0.0556614,0.107992 0.0576614,0.163323 0.00266535,0.0666614 -0.0206654,0.126323 -0.0669961,0.172654l-0.167654 0.167654c-0.0463307,0.0463307 -0.105992,0.0693268 -0.172654,0.0669961 -0.0553268,-0.002 -0.111992,-0.022 -0.163319,-0.0576654l-0.155657 -0.107657c-0.0713268,0.0376654 -0.146319,0.0686614 -0.222984,0.0926614l-0.0336614 0.185984c-0.0113346,0.0616614 -0.037,0.115657 -0.0746614,0.156323 -0.0449961,0.0493228 -0.103657,0.0749843 -0.168988,0.0749843zm-0.742945 -0.683614c0.0136654,0 0.0276654,0.00366929 0.04,0.0106654 0.0876614,0.0506614 0.181319,0.0893268 0.278646,0.115657 0.0299961,0.00799606 0.0523307,0.0326614 0.0579961,0.0629921l0.0426614 0.234984c0.003,0.0166654 0.0213346,0.0996614 0.0866614,0.0996614l0.23698 3.93701e-006c0.0653268,0 0.0836575,-0.0829961 0.0866575,-0.0996614l0.0426654 -0.23465c0.00566535,-0.0303307 0.028,-0.0549961 0.0579961,-0.0629961 0.0973268,-0.0263307 0.190984,-0.0649921 0.278646,-0.115657 0.0266654,-0.0153307 0.0599961,-0.0139961 0.0853268,0.00366929l0.196323 0.135988c0.0139961,0.00966929 0.0856575,0.0553307 0.131654,0.00933465l0.167654 -0.167654c0.046,-0.0459961 0.000334646,-0.117657 -0.00933071,-0.131657l-0.135992 -0.196319c-0.0176654,-0.0253346 -0.019,-0.0586614 -0.00366535,-0.0853268 0.0506614,-0.0876614 0.0893228,-0.181323 0.115654,-0.278646 0.008,-0.03 0.0326654,-0.0523307 0.0629961,-0.0579961l0.234984 -0.0426654c0.0166654,-0.003 0.0996614,-0.0213307 0.0996614,-0.0866614l0 -0.23698c0,-0.0653268 -0.0829961,-0.0836614 -0.0996614,-0.0866614l-0.23465 -0.0426614c-0.0303307,-0.00566929 -0.0549961,-0.028 -0.0629961,-0.058 -0.0263307,-0.0973268 -0.0649921,-0.190984 -0.115657,-0.278642 -0.0153307,-0.0266654 -0.0139961,-0.0599961 0.00366929,-0.0853307l0.135988 -0.196319c0.00966929,-0.014 0.0553307,-0.0856575 0.00933465,-0.131657l-0.167654 -0.167654c-0.0459961,-0.0459961 -0.117657,-0.000334646 -0.131657,0.00933465l-0.196654 0.135327c-0.0253346,0.0176654 -0.0586614,0.0189961 -0.0853307,0.00366535 -0.0876614,-0.0506614 -0.181319,-0.0893268 -0.278646,-0.115657 -0.0299961,-0.00799606 -0.0523307,-0.0326614 -0.0579961,-0.0629961l-0.0426614 -0.23498c-0.003,-0.0166654 -0.0213346,-0.0996614 -0.0866614,-0.0996614l-0.23698 0c-0.0653268,0 -0.0836575,0.0829921 -0.0866575,0.0996614l-0.0426654 0.23498c-0.00566535,0.0303346 -0.028,0.055 -0.0579961,0.0629961 -0.0973268,0.0263307 -0.190984,0.0649961 -0.278646,0.115657 -0.0266654,0.0153307 -0.0599961,0.014 -0.0853268,-0.00366535l-0.196323 -0.135992c-0.0139961,-0.00966535 -0.0856575,-0.0553307 -0.131654,-0.00933465l-0.167984 0.167657c-0.0459961,0.046 -0.000330709,0.117657 0.00933465,0.131657l0.135992 0.196319c0.0176654,0.0253346 0.019,0.0586614 0.00366535,0.0853307 -0.0503268,0.0876575 -0.0893268,0.181319 -0.115657,0.278642 -0.00799606,0.03 -0.0326614,0.0523307 -0.0629961,0.058l-0.23498 0.0426614c-0.0166654,0.003 -0.0996614,0.0213346 -0.0996614,0.0866614l0 0.23698c0,0.0653307 0.0829921,0.0836614 0.0996614,0.0866614l0.23465 0.0426654c0.0303307,0.00566535 0.0549961,0.0279961 0.0629961,0.0579961 0.0263307,0.0973268 0.0649921,0.190984 0.115654,0.278646 0.0153346,0.0266614 0.014,0.0599961 -0.00366535,0.0853268l-0.135992 0.196319c-0.00966535,0.014 -0.0553307,0.0856614 -0.00933071,0.131657l0.167654 0.167654c0.0459961,0.0459961 0.117657,0.000334646 0.131654,-0.00933465l0.196323 -0.135988c0.0139961,-0.00900787 0.0299961,-0.0140079 0.0459921,-0.0140079z"/>
    </g>
    <g id="_261967000">
     <path id="_444072848" class="fil2" d="M3.41333 4.78656c-0.385303,0 -0.698614,-0.313311 -0.698614,-0.698614 0,-0.385303 0.313307,-0.698614 0.698614,-0.698614 0.385307,0 0.698614,0.313307 0.698614,0.698614 0,0.385303 -0.313311,0.698614 -0.698614,0.698614zm0 -1.23757c-0.296976,0 -0.538626,0.24165 -0.538626,0.538626 0,0.296976 0.24165,0.538626 0.538626,0.538626 0.296976,0 0.538626,-0.24165 0.538626,-0.538626 0,-0.296642 -0.24165,-0.538626 -0.538626,-0.538626z"/>
    </g>
   </g>
   <g>
    <g id="_261967552">
     <path id="_444072152" class="fil2" d="M1.6038 1.55414l-0.0879921 0c-0.0443307,0 -0.0799961,-0.0356654 -0.0799961,-0.0799961 0,-0.0443268 0.0356654,-0.0799921 0.0799961,-0.0799921l0.0879921 0c0.0443307,0 0.0799921,0.0356654 0.0799921,0.0799921 0,0.0443307 -0.0359961,0.0799961 -0.0799921,0.0799961z"/>
    </g>
    <g id="_261967360">
     <path id="_444104528" class="fil2" d="M1.93844 1.55414l-0.0883268 0c-0.0443307,0 -0.0799921,-0.0356654 -0.0799921,-0.0799961 0,-0.0443268 0.0356614,-0.0799921 0.0799921,-0.0799921l0.0879921 0c0.0443307,0 0.0799921,0.0356654 0.0799921,0.0799921 0,0.0443307 -0.0356614,0.0799961 -0.0796575,0.0799961z"/>
    </g>
    <g id="_261967600">
     <path id="_444104600" class="fil2" d="M2.27275 1.55414l-0.0879921 0c-0.0443307,0 -0.0799961,-0.0356654 -0.0799961,-0.0799961 0,-0.0443268 0.0356654,-0.0799921 0.0799961,-0.0799921l0.0879921 0c0.0443307,0 0.0799921,0.0356654 0.0799921,0.0799921 0,0.0443307 -0.0356614,0.0799961 -0.0799921,0.0799961z"/>
    </g>
   </g>
  </g>
  <path class="fil3" d="M3.16568 2.8927c-0.00566535,0.0303346 -0.028,0.055 -0.0579961,0.0629961 -0.0973268,0.0263307 -0.190984,0.0649961 -0.278646,0.115657 -0.0266654,0.0153307 -0.0599961,0.014 -0.0853268,-0.00366535l-0.196323 -0.135992c-0.0139961,-0.00966535 -0.0856575,-0.0553307 -0.131654,-0.00933465l-0.167984 0.167657c-0.0459961,0.046 -0.000330709,0.117657 0.00933465,0.131657l0.135992 0.196319c0.0176654,0.0253346 0.019,0.0586614 0.00366535,0.0853307 -0.0503268,0.0876575 -0.0893268,0.181319 -0.115657,0.278642 -0.00799606,0.03 -0.0326614,0.0523307 -0.0629961,0.058l-0.23498 0.0426614c-0.0166654,0.003 -0.0996614,0.0213346 -0.0996614,0.0866614l0 0.23698c0,0.0653307 0.0829921,0.0836614 0.0996614,0.0866614l0.23465 0.0426654c0.0303307,0.00566535 0.0549961,0.0279961 0.0629961,0.0579961 0.0164016,0.0606299 0.0375906,0.119831 0.0634803,0.177051 0.00183465,0.00333858 0.00343701,0.00682677 0.0047874,0.0104409 0.0144094,0.0310118 0.0302087,0.0614291 0.0473858,0.0911535 0.0153346,0.0266614 0.014,0.0599961 -0.00366535,0.0853268l-0.135992 0.196319c-0.00966535,0.014 -0.0553307,0.0856614 -0.00933071,0.131657l0.167654 0.167654c0.0459961,0.0459961 0.117657,0.000334646 0.131654,-0.00933465l0.196323 -0.135988c0.0139961,-0.00900787 0.0299961,-0.0140079 0.0459921,-0.0140079 0.0136654,0 0.0276654,0.00366929 0.04,0.0106654 0.0876614,0.0506614 0.181319,0.0893268 0.278646,0.115657 0.0299961,0.00799606 0.0523307,0.0326614 0.0579961,0.0629921l0.0426614 0.234984c0.003,0.0166654 0.0213346,0.0996614 0.0866614,0.0996614l0.23698 3.93701e-006c0.0653268,0 0.0836575,-0.0829961 0.0866575,-0.0996614l0.0426654 -0.23465c0.00566535,-0.0303307 0.028,-0.0549961 0.0579961,-0.0629961 0.0973268,-0.0263307 0.190984,-0.0649921 0.278646,-0.115657 0.0266654,-0.0153307 0.0599961,-0.0139961 0.0853268,0.00366929l0.196323 0.135988c0.0139961,0.00966929 0.0856575,0.0553307 0.131654,0.00933465l0.167654 -0.167654c0.046,-0.0459961 0.000334646,-0.117657 -0.00933071,-0.131657l-0.135992 -0.196319c-0.0176654,-0.0253346 -0.019,-0.0586614 -0.00366535,-0.0853268 0.0173504,-0.0300236 0.0332953,-0.060752 0.0478189,-0.0920906 0.00128346,-0.0033937 0.0027874,-0.00667323 0.00449606,-0.00982677 0.0258268,-0.0571181 0.0469685,-0.116217 0.0633386,-0.176728 0.008,-0.03 0.0326654,-0.0523307 0.0629961,-0.0579961l0.234984 -0.0426654c0.0166654,-0.003 0.0996614,-0.0213307 0.0996614,-0.0866614l0 -0.23698c0,-0.0653268 -0.0829961,-0.0836614 -0.0996614,-0.0866614l-0.23465 -0.0426614c-0.0303307,-0.00566929 -0.0549961,-0.028 -0.0629961,-0.058 -0.0263307,-0.0973268 -0.0649921,-0.190984 -0.115657,-0.278642 -0.0153307,-0.0266654 -0.0139961,-0.0599961 0.00366929,-0.0853307l0.135988 -0.196319c0.00966929,-0.014 0.0553307,-0.0856575 0.00933465,-0.131657l-0.167654 -0.167654c-0.0459961,-0.0459961 -0.117657,-0.000334646 -0.131657,0.00933465l-0.196654 0.135327c-0.0253346,0.0176654 -0.0586614,0.0189961 -0.0853307,0.00366535 -0.0876614,-0.0506614 -0.181319,-0.0893268 -0.278646,-0.115657 -0.0299961,-0.00799606 -0.0523307,-0.0326614 -0.0579961,-0.0629961l-0.0426614 -0.23498c-0.003,-0.0166654 -0.0213346,-0.0996614 -0.0866614,-0.0996614l-0.23698 0c-0.0653268,0 -0.0836575,0.0829921 -0.0866575,0.0996614l-0.0426654 0.23498zm-0.450965 1.19524c0,-0.385303 0.313307,-0.698614 0.698614,-0.698614 0.385307,0 0.698614,0.313307 0.698614,0.698614 0,0.385303 -0.313311,0.698614 -0.698614,0.698614 -0.385303,0 -0.698614,-0.313311 -0.698614,-0.698614z"/>
  <path class="fil4" d="M3.41333 3.54898c-0.296976,0 -0.538626,0.24165 -0.538626,0.538626 0,0.296976 0.24165,0.538626 0.538626,0.538626 0.296976,0 0.538626,-0.24165 0.538626,-0.538626 0,-0.296642 -0.24165,-0.538626 -0.538626,-0.538626z"/>
  <path class="fil4" d="M4.52425 2.80904l0.167654 0.167654c0.0463307,0.0463307 0.0693268,0.105992 0.0669961,0.172654 -0.002,0.0553268 -0.022,0.111992 -0.0576654,0.163319l-0.107657 0.155657c0.0376654,0.0713268 0.0686614,0.146319 0.0926614,0.222984l0.185984 0.0336654c0.0616614,0.0113307 0.115657,0.0369961 0.156323,0.0746575 0.0489961,0.0453307 0.0746614,0.103992 0.0746614,0.169323l0 0.236984c0,0.0653268 -0.026,0.123988 -0.0746614,0.169319 -0.0406614,0.0376654 -0.0946575,0.0636654 -0.156323,0.0746614l-0.186319 0.0336654c-0.00477559,0.015315 -0.00982283,0.0305354 -0.0151496,0.0456575l0.912413 0c0.126657,0 0.22998,-0.103327 0.22998,-0.22998l0 -2.39982 -2.6078 0 -2.19183 0 0 2.39981c0,0.126657 0.103327,0.22998 0.22998,0.22998l0.912457 3.93701e-006c-0.00534252,-0.0151457 -0.0104094,-0.0303701 -0.0151969,-0.0456654l-0.185984 -0.0336654c-0.0616614,-0.0113307 -0.115657,-0.037 -0.156323,-0.0746614 -0.0489961,-0.0453307 -0.0746614,-0.103992 -0.0746614,-0.169323l0 -0.23698c0,-0.0653268 0.026,-0.123992 0.0746614,-0.169323 0.0406614,-0.0376614 0.0946575,-0.0636614 0.156323,-0.0746614l0.185984 -0.0336654c0.024,-0.0769921 0.0549961,-0.151654 0.0926614,-0.222984l-0.107657 -0.155654c-0.0356654,-0.0513307 -0.0556614,-0.107992 -0.0576654,-0.163323 -0.00266535,-0.0666614 0.0206654,-0.126323 0.0669961,-0.17265l0.167654 -0.167654c0.0463307,-0.0463346 0.105992,-0.0693307 0.172654,-0.0669961 0.0553307,0.00199606 0.111992,0.0219961 0.163323,0.0576614l0.155654 0.107657c0.0713268,-0.0376614 0.146323,-0.0686614 0.222984,-0.0926575l0.0336654 -0.186319c0.0113307,-0.0616614 0.0369961,-0.115657 0.0746614,-0.156323 0.0453268,-0.049 0.103988,-0.0746614 0.169319,-0.0746614l0.236984 7.87402e-006c0.0653268,0 0.123992,0.0259961 0.169319,0.0746614 0.0376654,0.0406614 0.0636654,0.0946575 0.0746614,0.156323l0.0336654 0.186319c0.0769921,0.0239961 0.151654,0.0549961 0.222984,0.0926575l0.155654 -0.107657c0.0513307,-0.0356614 0.107992,-0.0556614 0.163323,-0.0576614 0.0666614,-0.00266535 0.126327,0.0206654 0.172654,0.0669961z"/>
 </g>
</svg>
