<?xml version="1.0" encoding="UTF-8"?>
<!DOCTYPE svg PUBLIC "-//W3C//DTD SVG 1.1//EN" "http://www.w3.org/Graphics/SVG/1.1/DTD/svg11.dtd">
<!-- Creator: CorelDRAW -->
<svg xmlns="http://www.w3.org/2000/svg" xml:space="preserve" width="6.82666in" height="6.82666in" style="shape-rendering:geometricPrecision; text-rendering:geometricPrecision; image-rendering:optimizeQuality; fill-rule:evenodd; clip-rule:evenodd"
viewBox="0 0 6.82666 6.82666"
 xmlns:xlink="http://www.w3.org/1999/xlink">
 <defs>
  <style type="text/css">
   <![CDATA[
    .fil0 {fill:none}
    .fil1 {fill:#0065A3}
    .fil2 {fill:#333333}
    .fil3 {fill:#98EDFE}
    .fil4 {fill:#E40048}
   ]]>
  </style>
 </defs>
 <rect class="fil0" width="6.82666" height="6.82666"/>
 <g id="Layer_x0020_1">
  <metadata id="CorelCorpID_0Corel-Layer"/>
  <path class="fil1" d="M2.85237 1.36948c-0.105378,0 -0.191319,-0.0859409 -0.191319,-0.191319l0 -0.191319 1.50456 0 0 0.191319c0,0.105378 -0.0859409,0.191319 -0.191319,0.191319l-1.12192 0zm0.474969 -0.137992l0.171984 0c0.0296102,0 0.0533268,-0.0237165 0.0533268,-0.0533268 0,-0.0296102 -0.0237126,-0.0533307 -0.0533268,-0.0533307l-0.171984 3.93701e-006c-0.0296102,0 -0.0533268,0.0237165 -0.0533268,0.0533268 0,0.0296102 0.0237165,0.0533268 0.0533268,0.0533268zm1.51655 3.99037l0 0.217984c0,0.22052 -0.179429,0.399969 -0.399969,0.399969l-2.06151 0c-0.22052,0 -0.399969,-0.179429 -0.399969,-0.399969l0 -0.217984 2.86145 0zm-0.732945 0.308972c0,-0.0296102 -0.0237165,-0.0533268 -0.0533268,-0.0533268l-0.171988 3.93701e-006c-0.0296063,0 -0.0533268,0.0237165 -0.0533268,0.0533268 0,0.0296102 0.0237165,0.0533268 0.0533268,0.0533268l0.171988 0c0.0296142,0 0.0533268,-0.0237205 0.0533268,-0.0533307zm-0.558291 0c0,-0.0296102 -0.0237165,-0.0533268 -0.0533268,-0.0533268l-0.171984 3.93701e-006c-0.0296102,0 -0.0533268,0.0237165 -0.0533268,0.0533268 0,0.0296102 0.0237165,0.0533268 0.0533268,0.0533268l0.171984 0c0.0296142,0 0.0533268,-0.0237205 0.0533268,-0.0533307zm-0.558287 0c0,-0.0296063 -0.0237165,-0.0533268 -0.0533268,-0.0533268l-0.171988 3.93701e-006c-0.0296102,0 -0.0533268,0.0237165 -0.0533268,0.0533268 0,0.0296102 0.0237165,0.0533268 0.0533268,0.0533268l0.171988 0c0.0296102,0 0.0533268,-0.0237205 0.0533268,-0.0533307z"/>
  <g id="_444074240">
   <g>
    <g id="_261968176">
     <path id="_444077312" class="fil2" d="M4.44425 5.97313l-2.06184 0c-0.293976,0 -0.533291,-0.239315 -0.533291,-0.533291l0 -4.05303c0,-0.293976 0.239315,-0.533291 0.533291,-0.533291l2.06151 0c0.29398,0 0.533291,0.239315 0.533291,0.533291l0 4.05303c0.000334646,0.293976 -0.23898,0.533291 -0.532957,0.533291zm-2.06184 -4.95962c-0.205984,0 -0.373303,0.167654 -0.373303,0.373303l-3.93701e-006 4.05303c0,0.205984 0.167654,0.373303 0.373303,0.373303l2.06151 0c0.205984,0 0.373303,-0.167654 0.373303,-0.373303l3.93701e-006 -4.05303c0,-0.205984 -0.167654,-0.373303 -0.373303,-0.373303l-2.06151 0z"/>
    </g>
    <g id="_261967864">
     <path id="_444076088" class="fil2" d="M4.89755 5.24852l-2.96844 0c-0.0443307,0 -0.0799921,-0.0356654 -0.0799921,-0.0799921 0,-0.0443307 0.0356614,-0.0799961 0.0799921,-0.0799961l2.96844 0c0.0443307,0 0.0799921,0.0356614 0.0799921,0.0799921 0,0.0443307 -0.0356614,0.0799961 -0.0799921,0.0799961z"/>
    </g>
    <g id="_261968200">
     <path id="_444076016" class="fil2" d="M2.94104 5.61083l-0.171988 0c-0.0443307,0 -0.0799921,-0.0356614 -0.0799921,-0.0799921 0,-0.0443268 0.0356614,-0.0799921 0.0799921,-0.0799921l0.171988 -3.93701e-006c0.0443268,0 0.0799921,0.0356654 0.0799921,0.0799921 0,0.0443307 -0.0356654,0.0799961 -0.0799921,0.0799961z"/>
    </g>
    <g id="_261968128">
     <path id="_444076448" class="fil2" d="M3.49932 5.61083l-0.171984 0c-0.0443307,0 -0.0799921,-0.0356614 -0.0799921,-0.0799921 0,-0.0443268 0.0356614,-0.0799921 0.0799921,-0.0799921l0.171984 -3.93701e-006c0.0443307,0 0.0799921,0.0356654 0.0799921,0.0799921 0,0.0443307 -0.0356614,0.0799961 -0.0799921,0.0799961z"/>
    </g>
    <g id="_261968344">
     <path id="_444076424" class="fil2" d="M4.05761 5.61083l-0.171988 0c-0.0443268,0 -0.0799921,-0.0356614 -0.0799921,-0.0799921 0,-0.0443268 0.0356654,-0.0799921 0.0799921,-0.0799921l0.171988 -3.93701e-006c0.0443307,0 0.0799921,0.0356654 0.0799921,0.0799921 0,0.0443307 -0.0356614,0.0799961 -0.0799921,0.0799961z"/>
    </g>
    <g id="_261968320">
     <path id="_444076544" class="fil2" d="M3.97429 1.50281l-1.12191 0c-0.178988,0 -0.324642,-0.145654 -0.324642,-0.324642l0 -0.24465c0,-0.0443268 0.0356614,-0.0799921 0.0799921,-0.0799921 0.0443268,0 0.0799921,0.0356654 0.0799921,0.0799921l0 0.24465c0,0.0906575 0.0739921,0.164654 0.164654,0.164654l1.12192 0c0.0906614,0 0.164654,-0.0739921 0.164654,-0.164654l0 -0.24465c0,-0.0443268 0.0356654,-0.0799921 0.0799961,-0.0799921 0.0443268,0 0.0799921,0.0356654 0.0799921,0.0799921l0 0.24465c0,0.178988 -0.145654,0.324642 -0.324642,0.324642z"/>
    </g>
    <g id="_261967936">
     <path id="_444075440" class="fil2" d="M3.49932 1.25816l-0.171984 0c-0.0443307,0 -0.0799921,-0.0356614 -0.0799921,-0.0799921 0,-0.0443268 0.0356614,-0.0799921 0.0799921,-0.0799921l0.171984 -3.93701e-006c0.0443307,0 0.0799921,0.0356654 0.0799921,0.0799961 0,0.0443268 -0.0356614,0.0799921 -0.0799921,0.0799921z"/>
    </g>
   </g>
   <g>
    <g id="_261968920">
     <path id="_444075272" class="fil2" d="M3.41333 4.51858c-0.197984,0 -0.383303,-0.0893268 -0.521961,-0.251315 -0.135657,-0.158654 -0.210319,-0.368307 -0.210319,-0.591291 0,-0.222984 0.0746614,-0.432634 0.210319,-0.591287 0.138657,-0.161988 0.323976,-0.251315 0.521961,-0.251315 0.197984,0 0.383303,0.0893268 0.521961,0.251315 0.135657,0.158654 0.210319,0.368303 0.210319,0.591287 0,0.222984 -0.0746614,0.432638 -0.210319,0.591291 -0.138657,0.161988 -0.323976,0.251315 -0.521961,0.251315zm0 -1.52489c-0.315311,0 -0.571957,0.306311 -0.571957,0.682614 0,0.376303 0.256646,0.682614 0.571957,0.682614 0.315311,0 0.571957,-0.306311 0.571957,-0.682614 0,-0.376638 -0.256646,-0.682614 -0.571957,-0.682614z"/>
    </g>
    <g id="_261968656">
     <path id="_444075656" class="fil2" d="M3.72031 3.08302c-0.0233307,0 -0.0466614,-0.0103346 -0.0626614,-0.0299961 -0.0276654,-0.0343346 -0.022,-0.0849961 0.0123346,-0.112327 0.0749921,-0.0599961 0.116323,-0.140657 0.116323,-0.227315 0,-0.172988 -0.167319,-0.313976 -0.372972,-0.313976 -0.205654,0 -0.372972,0.140988 -0.372972,0.313976 0,0.0866614 0.0413307,0.167323 0.116323,0.227319 0.0343346,0.0276654 0.04,0.0779921 0.0123346,0.112323 -0.0276654,0.0343346 -0.0779961,0.04 -0.112327,0.0123346 -0.111992,-0.0896614 -0.176319,-0.217984 -0.176319,-0.352307 0,-0.128654 0.0569961,-0.24898 0.160323,-0.338972 0.0999921,-0.0869921 0.232646,-0.134992 0.372972,-0.134992 0.140323,0 0.272646,0.048 0.372972,0.134992 0.103327,0.0896575 0.160323,0.210319 0.160323,0.338972 0,0.134323 -0.0643307,0.262646 -0.176319,0.352307 -0.0153386,0.0119961 -0.033,0.0176614 -0.0503346,0.0176614z"/>
    </g>
    <g>
     <g>
      <g id="_261968464">
       <path id="_444075704" class="fil2" d="M2.88937 3.30234c-0.0126654,0 -0.0256614,-0.003 -0.0376614,-0.00966929 -0.111992,-0.0599961 -0.204319,-0.142654 -0.267315,-0.23898 -0.0903268,-0.138323 -0.122654,-0.303646 -0.0963228,-0.49163 0.00599606,-0.0436614 0.0466614,-0.0743268 0.0903268,-0.0679921 0.0436614,0.006 0.0743268,0.0466614 0.0679921,0.0903268 -0.0449961,0.320642 0.127657,0.48563 0.280646,0.567622 0.0389961,0.021 0.0536614,0.0693307 0.0326614,0.108327 -0.0143307,0.0266614 -0.0419961,0.0419961 -0.0703268,0.0419961z"/>
      </g>
      <g id="_261969232">
       <path id="_444075752" class="fil2" d="M2.37474 4.24326c-0.0393307,0 -0.0736575,-0.0289961 -0.0789921,-0.0689921 -0.017,-0.119992 -0.00966929,-0.23165 0.0216654,-0.332642 0.0266654,-0.0859921 0.0706575,-0.164654 0.130988,-0.233315 0.106327,-0.120992 0.238646,-0.182988 0.307976,-0.209319 0.0413307,-0.0156654 0.0873268,0.00533465 0.102992,0.0466614 0.0156654,0.0413307 -0.00533071,0.0873268 -0.0466614,0.102996 -0.126657,0.0476614 -0.414969,0.202319 -0.358638,0.603287 0.006,0.0436614 -0.0243307,0.0843268 -0.0679921,0.0903268 -0.00400394,0.000665354 -0.00766929,0.000996063 -0.0113386,0.000996063z"/>
      </g>
      <g id="_261968512">
       <path id="_444074984" class="fil2" d="M2.59006 4.72856c-0.0393307,0 -0.0736614,-0.029 -0.0789961,-0.0689961 -0.0229961,-0.162988 -0.00133465,-0.309646 0.0636614,-0.435969 0.0499961,-0.0969921 0.124327,-0.179988 0.221315,-0.246984 0.0363307,-0.0249961 0.0863268,-0.0159961 0.111327,0.0203346 0.025,0.0363307 0.016,0.0863228 -0.0203307,0.111323 -0.176654,0.121992 -0.249984,0.299976 -0.21765,0.528961 0.006,0.0436614 -0.0243307,0.0843268 -0.0679921,0.0903268 -0.00400394,0.00100394 -0.00767323,0.00100394 -0.0113346,0.00100394z"/>
      </g>
     </g>
     <g>
      <g id="_261968848">
       <path id="_444074528" class="fil2" d="M3.93729 3.30234c-0.0286654,0 -0.0559961,-0.0153346 -0.0706614,-0.0423307 -0.021,-0.039 -0.00633465,-0.0873268 0.0326654,-0.108327 0.152988,-0.0819961 0.325638,-0.246984 0.280642,-0.567626 -0.006,-0.0436614 0.0243346,-0.0843268 0.0679961,-0.0903268 0.0436614,-0.006 0.0843268,0.0243346 0.0903268,0.0679961 0.0263307,0.187984 -0.006,0.353638 -0.0963268,0.49163 -0.0629961,0.0963268 -0.155323,0.178984 -0.267315,0.23898 -0.0113268,0.00700394 -0.0243268,0.0100039 -0.0373268,0.0100039z"/>
      </g>
      <g id="_261969064">
       <path id="_444075080" class="fil2" d="M4.45192 4.24326c-0.00366929,0 -0.00733465,-0.000330709 -0.0113346,-0.000665354 -0.0436614,-0.006 -0.0743268,-0.0466614 -0.0679921,-0.0903268 0.0563268,-0.400969 -0.231984,-0.555291 -0.358638,-0.603287 -0.0413307,-0.0156693 -0.0623307,-0.0616614 -0.0466614,-0.102996 0.0156654,-0.0413268 0.0616575,-0.0623268 0.102992,-0.0466614 0.0693268,0.0263307 0.20165,0.0883307 0.307976,0.209319 0.0603268,0.0686614 0.104323,0.146988 0.130988,0.233315 0.0313307,0.100992 0.0383307,0.21265 0.0216654,0.332642 -0.00533858,0.0396654 -0.0396693,0.0686614 -0.0789961,0.0686614z"/>
      </g>
      <g id="_261968608">
       <path id="_444075032" class="fil2" d="M4.2366 4.72856c-0.00366535,0 -0.00733071,-0.000334646 -0.0113307,-0.000669291 -0.0436614,-0.006 -0.0743268,-0.0466614 -0.0679921,-0.0903268 0.0323307,-0.228984 -0.0409961,-0.406969 -0.21765,-0.528961 -0.0363307,-0.025 -0.0453307,-0.0749961 -0.0203307,-0.111327 0.025,-0.0363307 0.0749921,-0.0453307 0.111323,-0.0203307 0.0969961,0.0669961 0.171323,0.149988 0.221319,0.246984 0.0653268,0.126323 0.0866575,0.273311 0.0636614,0.435969 -0.00533465,0.0399961 -0.0396693,0.0686614 -0.079,0.0686614z"/>
      </g>
     </g>
    </g>
    <g>
     <g id="_261969136">
      <path id="_444075152" class="fil2" d="M3.06869 2.53773c-0.0169961,0 -0.0339961,-0.00533071 -0.0483268,-0.0163346 -0.0526614,-0.0399961 -0.0953268,-0.0923228 -0.126327,-0.155319 -0.0409961,-0.0826614 -0.0609961,-0.181654 -0.0589921,-0.29398 0.000665354,-0.0436614 0.0363307,-0.0786614 0.0799921,-0.0786614 0.000334646,0 0.001,0 0.00133465,0 0.0443268,0.000669291 0.0793268,0.0373346 0.0786614,0.0813307 -0.00333465,0.184319 0.0646614,0.275311 0.122323,0.319307 0.0349961,0.0266614 0.0419961,0.0769921 0.015,0.111992 -0.0156693,0.0206654 -0.0396654,0.0316654 -0.0636654,0.0316654z"/>
     </g>
     <g id="_261969184">
      <path id="_444073784" class="fil2" d="M3.75797 2.53773c-0.024,0 -0.0479961,-0.011 -0.0636654,-0.0316614 -0.0266614,-0.0349961 -0.0199961,-0.0853307 0.015,-0.111992 0.0576614,-0.0439961 0.125657,-0.134992 0.122323,-0.319311 -0.000665354,-0.0443268 0.0343346,-0.0806575 0.0786614,-0.0813268 0.000334646,0 0.001,0 0.00133465,0 0.0436614,0 0.0793307,0.0349961 0.0799921,0.0786614 0.002,0.112327 -0.0179961,0.210984 -0.0589921,0.29398 -0.0313346,0.0629921 -0.0736614,0.115323 -0.126327,0.155319 -0.0143307,0.011 -0.0313307,0.0163307 -0.0483268,0.0163307z"/>
     </g>
    </g>
   </g>
   <g id="_261969784">
    <path id="_444073688" class="fil2" d="M3.41333 4.51858c-0.0443307,0 -0.0799921,-0.0356654 -0.0799921,-0.0799961l0 -0.615287c0,-0.0443268 0.0356614,-0.0799921 0.0799921,-0.0799921 0.0443307,0 0.0799921,0.0356654 0.0799921,0.0799921l0 0.615622c0,0.0439961 -0.0356614,0.0796614 -0.0799921,0.0796614z"/>
   </g>
  </g>
  <path class="fil3" d="M2.98348 2.99332c-0.0663425,-0.0805827 -0.103114,-0.178709 -0.103114,-0.280268 0,-0.0893504 0.0274921,-0.174685 0.0789016,-0.24863 -0.0254409,-0.0289921 -0.0472913,-0.0618819 -0.0652362,-0.0983465 -0.0409961,-0.0826614 -0.0609961,-0.181654 -0.0589921,-0.29398 0.000665354,-0.0436614 0.0363307,-0.0786614 0.0799921,-0.0786614l0.00133465 0c0.0443268,0.000669291 0.0793268,0.0373346 0.0786614,0.0813307 -0.00246457,0.136232 0.0340394,0.221484 0.0765354,0.274457 0.0956575,-0.0712323 0.215768,-0.110134 0.342098,-0.110134 0.126165,0 0.245862,0.0388031 0.34165,0.109858 0.0424016,-0.0529921 0.0787756,-0.138185 0.076315,-0.274181 -0.000665354,-0.0443268 0.0343346,-0.0806575 0.0786614,-0.0813268l0.00133465 0c0.0436614,0 0.0793307,0.0349961 0.0799921,0.0786614 0.002,0.112327 -0.0179961,0.210984 -0.0589921,0.29398 -0.0180236,0.0362283 -0.0396811,0.0689331 -0.0648504,0.0977874 0.0515945,0.0740236 0.079185,0.159669 0.079185,0.249185 0,0.101697 -0.036874,0.199953 -0.10339,0.280598 0.0323701,0.0271378 0.0630433,0.0575315 0.0917205,0.0910354 0.00846457,0.00990157 0.0166929,0.02 0.0246811,0.0302874 0.133854,-0.0912441 0.259059,-0.252331 0.219965,-0.530917 -0.006,-0.0436614 0.0243346,-0.0843268 0.0679961,-0.0903268 0.0436614,-0.006 0.0843268,0.0243346 0.0903268,0.0679961 0.0263307,0.187984 -0.006,0.353638 -0.0963268,0.49163 -0.0491654,0.0751811 -0.116201,0.142035 -0.196504,0.196287 0.0268583,0.0525748 0.0485669,0.108232 0.0648189,0.166134 0.0731969,0.032437 0.179594,0.0922559 0.268016,0.19287 0.0603268,0.0686614 0.104323,0.146988 0.130988,0.233315 0.0313307,0.100992 0.0383307,0.21265 0.0216654,0.332642 -0.00533858,0.0396654 -0.0396693,0.0686614 -0.0789961,0.0686614 -0.00366929,0 -0.00733465,-0.000330709 -0.0113346,-0.000665354 -0.0436614,-0.006 -0.0743268,-0.0466614 -0.0679921,-0.0903268 0.0409291,-0.291346 -0.100098,-0.452472 -0.228854,-0.537213 0.00124409,0.0201732 0.00187008,0.0404882 0.00187008,0.0609134 0,0.119394 -0.0214055,0.234961 -0.0621142,0.340929 0.0715118,0.059122 0.127957,0.128484 0.168441,0.207031 0.0653268,0.126323 0.0866575,0.273311 0.0636614,0.435969 -0.00533465,0.0399961 -0.0396693,0.0686614 -0.079,0.0686614 -0.00366535,0 -0.00733071,-0.000334646 -0.0113307,-0.000669291 -0.0436614,-0.006 -0.0743268,-0.0466614 -0.0679921,-0.0903268 0.0276457,-0.195791 -0.0219567,-0.354295 -0.147346,-0.472394 -0.022315,0.0359055 -0.0472323,0.0700394 -0.0746378,0.102091 -0.138657,0.161988 -0.323976,0.251315 -0.521961,0.251315 -0.197984,0 -0.383303,-0.0893268 -0.521961,-0.251315 -0.0274606,-0.0321142 -0.0524213,-0.0663189 -0.0747677,-0.102299 -0.125291,0.118087 -0.17485,0.276547 -0.147213,0.472268 0.006,0.0436614 -0.0243307,0.0843268 -0.0679921,0.0903268 -0.00400394,0.00100394 -0.00767323,0.00100394 -0.0113346,0.00100394 -0.0393307,0 -0.0736614,-0.029 -0.0789961,-0.0689961 -0.0229961,-0.162988 -0.00133465,-0.309646 0.0636614,-0.435969 0.0404685,-0.0785079 0.096878,-0.147843 0.168343,-0.206949 -0.0406496,-0.105898 -0.0620197,-0.221378 -0.0620197,-0.340677 0,-0.0205906 0.000637795,-0.0410709 0.00189764,-0.0614055 -0.128764,0.0847008 -0.269811,0.246008 -0.228878,0.537374 0.006,0.0436614 -0.0243307,0.0843268 -0.0679921,0.0903268 -0.00400394,0.000665354 -0.00766929,0.000996063 -0.0113386,0.000996063 -0.0393307,0 -0.0736575,-0.0289961 -0.0789921,-0.0689921 -0.017,-0.119992 -0.00966929,-0.23165 0.0216654,-0.332642 0.0266654,-0.0859921 0.0706575,-0.164654 0.130988,-0.233315 0.0884606,-0.100665 0.194917,-0.160492 0.268118,-0.192917 0.0161969,-0.0576142 0.0377953,-0.113 0.0645,-0.165339 -0.0803583,-0.0542677 -0.147433,-0.12115 -0.196626,-0.19637 -0.0903268,-0.138323 -0.122654,-0.303646 -0.0963228,-0.49163 0.00599606,-0.0436614 0.0466614,-0.0743268 0.0903268,-0.0679921 0.0436614,0.006 0.0743268,0.0466614 0.0679921,0.0903268 -0.0390984,0.278618 0.0861417,0.439709 0.220016,0.530945 0.0080748,-0.0104134 0.0163976,-0.0206339 0.0249646,-0.0306535 0.0287953,-0.0336378 0.0595984,-0.0641457 0.0921142,-0.0913661zm-0.974382 2.09522l2.80812 0 3.93701e-006 -3.70172c0,-0.205984 -0.167654,-0.373303 -0.373303,-0.373303l-0.144992 0 0 0.164654c0,0.178988 -0.145654,0.324642 -0.324642,0.324642l-1.12191 0c-0.178988,0 -0.324642,-0.145654 -0.324642,-0.324642l0 -0.164654 -0.145323 0c-0.205984,0 -0.373303,0.167654 -0.373303,0.373303l-3.93701e-006 3.70172z"/>
  <path class="fil4" d="M3.70052 2.51332c-0.0684685,-0.0695236 -0.171791,-0.113913 -0.287185,-0.113913 -0.11548,0 -0.218874,0.0444567 -0.287343,0.114071 -0.00019685,0.000200787 -0.000393701,0.000401575 -0.000590551,0.000602362 -0.0531102,0.0542717 -0.0850394,0.123732 -0.0850394,0.199303 0,0.0702205 0.0271339,0.1365 0.0773268,0.191039 0.0918268,-0.0465709 0.192,-0.0710512 0.295646,-0.0710512 0.103646,0 0.203819,0.0244803 0.295642,0.0710512 0.0501929,-0.0545394 0.0773307,-0.120823 0.0773307,-0.191039 0,-0.0755 -0.0318701,-0.144902 -0.0848898,-0.19915 -0.000299213,-0.00030315 -0.000598425,-0.000606299 -0.000897638,-0.000913386z"/>
  <path class="fil4" d="M3.86914 3.26432c-0.104551,-0.164362 -0.269996,-0.270626 -0.455811,-0.270626 -0.315311,0 -0.571957,0.306311 -0.571957,0.682614 0,0.118736 0.0255512,0.2305 0.0704331,0.327874 0.00152756,0.00281102 0.00287008,0.0056811 0.0040315,0.00859843 0.0859173,0.180189 0.238575,0.309453 0.4175,0.339484l0 -0.528969c0,-0.0443268 0.0356614,-0.0799921 0.0799921,-0.0799921 0.0443307,0 0.0799921,0.0356654 0.0799921,0.0799921l0 0.528969c0.179862,-0.030189 0.333181,-0.16065 0.418843,-0.342319 0.000366142,-0.000811024 0.000744094,-0.00162205 0.0011378,-0.0024252 0.0458465,-0.0981535 0.0719843,-0.211118 0.0719843,-0.331213 0,-0.154142 -0.0429843,-0.296449 -0.115386,-0.410787 -0.000255906,-0.000397638 -0.000511811,-0.000795276 -0.000759843,-0.00120079z"/>
 </g>
</svg>
