<?xml version="1.0" encoding="UTF-8"?>
<!DOCTYPE svg PUBLIC "-//W3C//DTD SVG 1.1//EN" "http://www.w3.org/Graphics/SVG/1.1/DTD/svg11.dtd">
<!-- Creator: CorelDRAW -->
<svg xmlns="http://www.w3.org/2000/svg" xml:space="preserve" width="6.82666in" height="6.82666in" style="shape-rendering:geometricPrecision; text-rendering:geometricPrecision; image-rendering:optimizeQuality; fill-rule:evenodd; clip-rule:evenodd"
viewBox="0 0 6.82666 6.82666"
 xmlns:xlink="http://www.w3.org/1999/xlink">
 <defs>
  <style type="text/css">
   <![CDATA[
    .fil0 {fill:none}
    .fil1 {fill:#0065A3}
    .fil2 {fill:#333333}
    .fil5 {fill:#98EDFE}
    .fil3 {fill:#C8F5FE}
    .fil4 {fill:#FD3277}
   ]]>
  </style>
 </defs>
 <rect class="fil0" width="6.82666" height="6.82666"/>
 <g id="Layer_x0020_1">
  <metadata id="CorelCorpID_0Corel-Layer"/>
  <path class="fil1" d="M3.71381 2.80321l-0.760071 0 -0.409291 -0.49963 1.18706 0 -0.00762992 0.0327205c-0.0107283,0.046 -0.0184921,0.0926654 -0.0232992,0.13965l-0.00245276 0.0239528 -0.275457 0c-0.0296102,0 -0.0533307,0.0237165 -0.0533307,0.0533268 0,0.0296142 0.0237205,0.0533268 0.0533307,0.0533268l0.271768 0 0.00088189 0.025752c0.00161024,0.0468976 0.0061063,0.0936772 0.0135394,0.140012l0.00495669 0.0308898zm-0.89787 0l-1.82909 3.93701e-006 0 -0.28065c0,-0.120709 0.0982717,-0.218984 0.21898,-0.218984l1.20053 0 0.409579 0.49963zm-0.60685 -0.24998c0,-0.0296102 -0.0237205,-0.0533268 -0.0533307,-0.0533268l-0.0879921 0c-0.0296102,0 -0.0533268,0.0237165 -0.0533268,0.0533268 0,0.0296102 0.0237165,0.0533268 0.0533268,0.0533268l0.0879921 0c0.0296102,0 0.0533307,-0.0237126 0.0533307,-0.0533268zm-0.334646 0c0,-0.0296102 -0.0237165,-0.0533268 -0.0533268,-0.0533268l-0.0879921 0c-0.0296063,0 -0.0533268,0.0237205 -0.0533268,0.0533268 0,0.0296102 0.0237165,0.0533268 0.0533268,0.0533268l0.0879921 0c0.0296102,0 0.0533268,-0.0237165 0.0533268,-0.0533268zm-0.334303 0c0,-0.0296102 -0.0237205,-0.0533268 -0.0533307,-0.0533268l-0.0879921 0c-0.0296102,0 -0.0533268,0.0237165 -0.0533268,0.0533268 0,0.0296102 0.0237165,0.0533268 0.0533268,0.0533268l0.0879921 0c0.029437,0 0.0533307,-0.023878 0.0533307,-0.0533268z"/>
  <g id="_444078056">
   <g id="_261969880">
    <path id="_444080720" class="fil2" d="M5.01654 5.38635l-3.81071 0c-0.194319,0 -0.352303,-0.157988 -0.352303,-0.352307l0 -2.51148c0,-0.194315 0.157984,-0.352303 0.352303,-0.352303l1.22591 0c0.024,0 0.0466614,0.0106654 0.0619961,0.0293307l0.472634 0.576953 0.813937 0c0.0443307,0 0.0799921,0.0356654 0.0799921,0.0799921 0,0.0443307 -0.0356614,0.0799961 -0.0799921,0.0799961l-0.851602 0c-0.0239961,0 -0.0466614,-0.0106614 -0.0619921,-0.0293307l-0.472969 -0.576957 -1.18791 0c-0.105988,0 -0.192315,0.0863268 -0.192315,0.192319l0 2.51181c0,0.105992 0.0863268,0.192319 0.192319,0.192319l3.8107 0c0.105996,0 0.192319,-0.0863268 0.192319,-0.192319l0 -1.47656c0,-0.0443268 0.0356654,-0.0799921 0.0799961,-0.0799921 0.0443268,0 0.0799921,0.0356654 0.0799921,0.0799921l0 1.47622c3.93701e-006,0.194315 -0.157988,0.352303 -0.352307,0.352303z"/>
   </g>
   <g id="_261969904">
    <path id="_444081080" class="fil2" d="M3.17468 2.93653l-2.24117 0c-0.0443307,0 -0.0799921,-0.0356614 -0.0799921,-0.0799921 0,-0.0443307 0.0356614,-0.0799921 0.0799921,-0.0799921l2.24083 -3.93701e-006c0.0443268,0 0.0799921,0.0356654 0.0799921,0.0799921 0,0.0443307 -0.0356654,0.0799961 -0.0796575,0.0799961z"/>
   </g>
   <g id="_261969712">
    <path id="_444081320" class="fil2" d="M3.80363 2.33024l-1.3719 0c-0.0443268,0 -0.0799921,-0.0356614 -0.0799921,-0.0799921 0,-0.0443307 0.0356654,-0.0799921 0.0799921,-0.0799921l1.3719 0c0.0443307,0 0.0799921,0.0356614 0.0799921,0.0799921 0,0.0443307 -0.0359961,0.0799921 -0.0799921,0.0799921z"/>
   </g>
   <g id="_261969928">
    <path id="_444081248" class="fil2" d="M3.74863 2.63322l-0.325972 0c-0.0443307,0 -0.0799961,-0.0356614 -0.0799961,-0.0799921 0,-0.0443268 0.0356654,-0.0799921 0.0799961,-0.0799921l0.325972 0c0.0443307,0 0.0799921,0.0356654 0.0799921,0.0799921 0,0.0443307 -0.0359961,0.0799921 -0.0799921,0.0799921z"/>
   </g>
   <g>
    <g id="_261969376">
     <path id="_444080552" class="fil2" d="M2.92303 4.86372c-0.007,0 -0.0136654,-0.001 -0.0206654,-0.00266535 -0.0426614,-0.0113346 -0.0679921,-0.0553307 -0.0566614,-0.0979921l0.376303 -1.40489c0.0113307,-0.0426654 0.0553307,-0.0679921 0.0979921,-0.0566614 0.0426614,0.0113307 0.0679921,0.0553307 0.0566614,0.0979921l-0.376303 1.40489c-0.00966535,0.036 -0.0419961,0.0593307 -0.0773268,0.0593307z"/>
    </g>
    <g>
     <g id="_261969328">
      <path id="_444080264" class="fil2" d="M2.62872 4.58374c-0.0203307,0 -0.0409961,-0.00766535 -0.0566614,-0.0233307l-0.444299 -0.44463c-0.015,-0.015 -0.0233307,-0.0353307 -0.0233307,-0.0566654 0,-0.0213307 0.00833071,-0.0416614 0.0233307,-0.0566614l0.444299 -0.444299c0.0313307,-0.0313307 0.0819961,-0.0313307 0.112992,0 0.0313307,0.0313307 0.0313307,0.0819961 0,0.112992l-0.387642 0.387969 0.387972 0.387969c0.0313346,0.0313346 0.0313346,0.0819961 0,0.112992 -0.0156654,0.0156654 -0.0359961,0.0236654 -0.0566614,0.0236654z"/>
     </g>
     <g id="_261969616">
      <path id="_444080096" class="fil2" d="M3.59365 4.58374c-0.0203307,0 -0.0409961,-0.00766535 -0.0566614,-0.0233307 -0.0313307,-0.0313346 -0.0313307,-0.0819961 0,-0.112992l0.387972 -0.387972 -0.387972 -0.387969c-0.0313307,-0.0313307 -0.0313307,-0.0819921 0,-0.112988 0.0313346,-0.0313346 0.0819961,-0.0313346 0.112992,0l0.444299 0.444299c0.0313307,0.0313307 0.0313307,0.0819961 0,0.112992l-0.444299 0.444299c-0.0153346,0.0156614 -0.036,0.0236614 -0.0563307,0.0236614z"/>
     </g>
    </g>
   </g>
   <g id="_261970048">
    <path id="_444079976" class="fil2" d="M4.82056 3.74547c-0.155657,0 -0.306646,-0.0303346 -0.448634,-0.0906614 -0.137323,-0.0579961 -0.260646,-0.141323 -0.366303,-0.246984 -0.105996,-0.105992 -0.188988,-0.228984 -0.246984,-0.366303 -0.0599961,-0.142327 -0.0906614,-0.29298 -0.0906614,-0.448634 0,-0.155654 0.0303346,-0.306642 0.0906614,-0.44863 0.0579961,-0.137323 0.141323,-0.260646 0.246984,-0.366307 0.105992,-0.105992 0.22898,-0.188984 0.366303,-0.24698 0.142327,-0.0599961 0.292976,-0.0906614 0.448634,-0.0906614 0.155654,0 0.306642,0.0303307 0.44863,0.0906614 0.137323,0.0579961 0.260646,0.141323 0.366307,0.24698 0.105657,0.105661 0.188984,0.228984 0.24698,0.366307 0.0599961,0.142323 0.0906614,0.292976 0.0906614,0.44863 0,0.155654 -0.0303307,0.306646 -0.0906614,0.448634 -0.0579961,0.137319 -0.141323,0.260646 -0.24698,0.366303 -0.105992,0.105996 -0.228984,0.188988 -0.366307,0.246984 -0.142323,0.0599961 -0.293311,0.0906614 -0.44863,0.0906614zm0 -2.1455c-0.547291,0 -0.992591,0.445299 -0.992591,0.992591 0,0.547291 0.445295,0.992591 0.992591,0.992591 0.547287,0 0.992591,-0.445295 0.992591,-0.992591 -3.93701e-006,-0.547291 -0.445303,-0.992591 -0.992591,-0.992591z"/>
   </g>
   <g>
    <g id="_261970336">
     <path id="_444079568" class="fil2" d="M4.82056 3.2925c-0.123992,0 -0.23965,-0.0556614 -0.325976,-0.156319 -0.0833268,-0.0973307 -0.128988,-0.225984 -0.128988,-0.361972 0,-0.136327 0.0459961,-0.26465 0.128988,-0.361972 0.0863268,-0.100992 0.201988,-0.156323 0.325976,-0.156323 0.123988,0 0.239646,0.0556614 0.325972,0.156323 0.0833268,0.0973268 0.128992,0.225984 0.128992,0.361972 0,0.136323 -0.046,0.264646 -0.128992,0.361972 -0.0863268,0.100657 -0.202319,0.156319 -0.325972,0.156319zm0 -0.877264c-0.162657,0 -0.29498,0.160988 -0.29498,0.358638 0,0.19765 0.132323,0.358638 0.29498,0.358638 0.162654,0 0.294976,-0.160988 0.294976,-0.358638 0,-0.19765 -0.132327,-0.358638 -0.294976,-0.358638z"/>
    </g>
    <g id="_261970408">
     <path id="_444079496" class="fil2" d="M4.99687 2.4669c-0.0233307,0 -0.0466614,-0.0103307 -0.0623307,-0.0299961 -0.0276614,-0.0343307 -0.0219961,-0.0849961 0.0123346,-0.112327 0.0349961,-0.028 0.0539961,-0.0649921 0.0539961,-0.104323 0,-0.0806614 -0.0809921,-0.146657 -0.180654,-0.146657 -0.0996614,0 -0.180654,0.0656614 -0.180654,0.146657 0,0.0393307 0.0193346,0.0763268 0.0539961,0.104323 0.0343307,0.0276654 0.0399961,0.0779961 0.0123307,0.112327 -0.0276654,0.0343307 -0.0779921,0.0399961 -0.112323,0.0123307 -0.0726654,-0.0579961 -0.113992,-0.141654 -0.113992,-0.22898 0,-0.168988 0.152654,-0.306646 0.340638,-0.306646 0.187984,0 0.340642,0.137657 0.340642,0.306646 0,0.0876575 -0.0416654,0.170984 -0.113992,0.22898 -0.0146614,0.012 -0.0323268,0.0176654 -0.0499921,0.0176654z"/>
    </g>
    <g>
     <g>
      <g id="_261970120">
       <path id="_444079616" class="fil2" d="M4.51891 2.59289c-0.0126693,0 -0.0256654,-0.003 -0.0376654,-0.00966535 -0.0693268,-0.0373346 -0.126988,-0.0886614 -0.165988,-0.148988 -0.0566614,-0.0866614 -0.0769921,-0.189654 -0.0606614,-0.306311 0.006,-0.0436614 0.0466614,-0.0743268 0.0903268,-0.0679961 0.0436614,0.006 0.0743268,0.0466654 0.0679961,0.0903268 -0.0186693,0.132327 0.0296614,0.23065 0.143988,0.291646 0.0389961,0.021 0.0536614,0.0693307 0.0326614,0.108327 -0.0143307,0.0273268 -0.0419921,0.0426614 -0.0706575,0.0426614z"/>
      </g>
      <g id="_261962464">
       <path id="_444079712" class="fil2" d="M4.22293 3.13419c-0.0393307,0 -0.0736614,-0.0289961 -0.0789961,-0.0689961 -0.0193346,-0.137323 0.0139961,-0.259311 0.0959921,-0.352638 0.0659961,-0.0753268 0.147988,-0.113657 0.19065,-0.129657 0.0413307,-0.0156654 0.0873268,0.00533071 0.102996,0.0466614 0.0156654,0.0413307 -0.00533465,0.0873268 -0.0466614,0.102992 -0.0809961,0.0306654 -0.212654,0.111661 -0.184654,0.310311 0.006,0.0436614 -0.0243307,0.0843268 -0.0679921,0.0903268 -0.00400394,0.000665354 -0.00766929,0.001 -0.0113346,0.001z"/>
      </g>
      <g id="_261963112">
       <path id="_444079208" class="fil2" d="M4.34693 3.41316c-0.0393307,0 -0.0736614,-0.0289961 -0.0789961,-0.0689921 -0.025,-0.177654 0.0383307,-0.328642 0.178319,-0.425634 0.0363307,-0.025 0.0863268,-0.016 0.111327,0.0203307 0.025,0.0363307 0.016,0.0863268 -0.0203307,0.111323 -0.0899921,0.0623307 -0.127327,0.153657 -0.110992,0.271646 0.006,0.0436614 -0.0243307,0.0843268 -0.0679921,0.0903268 -0.00400394,0.001 -0.00767323,0.001 -0.0113346,0.001z"/>
      </g>
     </g>
     <g>
      <g id="_261962920">
       <path id="_444078512" class="fil2" d="M5.12186 2.59289c-0.0286614,0 -0.0559961,-0.0153346 -0.0706614,-0.0423307 -0.0209961,-0.0389961 -0.00633071,-0.0873268 0.0326654,-0.108327 0.113992,-0.0609961 0.162323,-0.159319 0.143988,-0.291646 -0.006,-0.0436614 0.0243346,-0.0843268 0.0679961,-0.0903268 0.0436614,-0.00599606 0.0843268,0.0243346 0.0903268,0.0679961 0.0163307,0.116657 -0.004,0.21965 -0.0606654,0.306311 -0.0393307,0.0603268 -0.0966575,0.111657 -0.165988,0.148988 -0.0119961,0.00633465 -0.0249961,0.00933465 -0.0376614,0.00933465z"/>
      </g>
      <g id="_261962392">
       <path id="_444079040" class="fil2" d="M5.41784 3.13419c-0.00366535,0 -0.00733465,-0.000334646 -0.0113307,-0.000669291 -0.0436614,-0.006 -0.0743268,-0.0466614 -0.0679961,-0.0903268 0.028,-0.198984 -0.103657,-0.27998 -0.18465,-0.310307 -0.0413307,-0.0156654 -0.0623268,-0.0616614 -0.0466614,-0.102992 0.0156654,-0.0413307 0.0616614,-0.0623307 0.102992,-0.0466614 0.043,0.0163307 0.124657,0.0546614 0.190654,0.129657 0.0819921,0.0933268 0.115323,0.215315 0.0959921,0.352638 -0.00533465,0.0396654 -0.0396693,0.0686614 -0.079,0.0686614z"/>
      </g>
      <g id="_261962752">
       <path id="_444078896" class="fil2" d="M5.29419 3.41316c-0.00366929,0 -0.00733465,-0.000330709 -0.0113307,-0.000665354 -0.0436654,-0.006 -0.0743307,-0.0466614 -0.0679961,-0.0903268 0.0166654,-0.117992 -0.0206654,-0.209319 -0.110992,-0.271646 -0.0363307,-0.025 -0.0453307,-0.0749921 -0.0203307,-0.111323 0.025,-0.0363307 0.0749961,-0.0453307 0.111327,-0.0203346 0.139988,0.0966614 0.203315,0.24798 0.178319,0.425638 -0.00566929,0.0399961 -0.04,0.0686575 -0.0789961,0.0686575z"/>
      </g>
     </g>
    </g>
    <g>
     <g id="_261962776">
      <path id="_444078632" class="fil2" d="M4.62224 2.15326c-0.017,0 -0.034,-0.00533465 -0.0483307,-0.0163346 -0.0459961,-0.0349961 -0.122992,-0.118992 -0.119992,-0.28598 0.000669291,-0.0436614 0.0363307,-0.0786614 0.0799921,-0.0786614 0.000334646,0 0.00100394,0 0.00133465,0 0.0443307,0.000669291 0.0793307,0.0373307 0.0786614,0.0813268 -0.00166535,0.0916614 0.03,0.135327 0.0569961,0.155988 0.0349961,0.0266654 0.0419961,0.0769961 0.015,0.111992 -0.016,0.0206693 -0.0396654,0.0316693 -0.0636614,0.0316693z"/>
     </g>
     <g id="_261962800">
      <path id="_444078320" class="fil2" d="M5.01887 2.15326c-0.024,0 -0.0479961,-0.011 -0.0636614,-0.0316654 -0.0266654,-0.0349961 -0.02,-0.0853268 0.0149961,-0.111992 0.027,-0.0203307 0.0586614,-0.0643307 0.0569961,-0.155988 -0.000665354,-0.0443307 0.0343346,-0.0806614 0.0786614,-0.0813268 0.0443307,-0.001 0.0806614,0.0343307 0.0813268,0.0786614 0.003,0.166984 -0.0739921,0.25098 -0.119988,0.28598 -0.0146654,0.0109961 -0.0316654,0.0163307 -0.0483307,0.0163307z"/>
     </g>
    </g>
   </g>
   <g>
    <g id="_261962824">
     <path id="_444078008" class="fil2" d="M1.48681 2.63322l-0.0879921 0c-0.0443307,0 -0.0799921,-0.0356614 -0.0799921,-0.0799921 0,-0.0443268 0.0356614,-0.0799921 0.0799921,-0.0799921l0.0879921 0c0.0443307,0 0.0799961,0.0356654 0.0799961,0.0799921 0,0.0443307 -0.036,0.0799921 -0.0799961,0.0799921z"/>
    </g>
    <g id="_261962848">
     <path id="_444077528" class="fil2" d="M1.82111 2.63322l-0.0879921 0c-0.0443268,0 -0.0799921,-0.0356614 -0.0799921,-0.0799921 0,-0.0443268 0.0356654,-0.0799921 0.0799921,-0.0799921l0.0879921 0c0.0443307,0 0.0799921,0.0356654 0.0799921,0.0799921 0,0.0443307 -0.0356614,0.0799921 -0.0799921,0.0799921z"/>
    </g>
    <g id="_261963592">
     <path id="_444078152" class="fil2" d="M2.15576 2.63322l-0.0879921 0c-0.0443307,0 -0.0799921,-0.0356614 -0.0799921,-0.0799921 0,-0.0443268 0.0356614,-0.0799921 0.0799921,-0.0799921l0.0879921 0c0.0443307,0 0.0799961,0.0356654 0.0799961,0.0799921 0,0.0443307 -0.0356654,0.0799921 -0.0799961,0.0799921z"/>
    </g>
   </g>
  </g>
  <path class="fil3" d="M4.09428 4.11578l-0.444299 0.444299c-0.0153346,0.0156614 -0.036,0.0236614 -0.0563307,0.0236614 -0.0203307,0 -0.0409961,-0.00766535 -0.0566614,-0.0233307 -0.0313307,-0.0313346 -0.0313307,-0.0819961 0,-0.112992l0.387972 -0.387972 -0.387972 -0.387969c-0.0313307,-0.0313307 -0.0313307,-0.0819921 0,-0.112988 0.0313346,-0.0313346 0.0819961,-0.0313346 0.112992,0l0.444299 0.444299c0.0313307,0.0313307 0.0313307,0.0819961 0,0.112992zm-0.717614 -0.71628l-0.376303 1.40489c-0.00966535,0.036 -0.0419961,0.0593307 -0.0773268,0.0593307 -0.007,0 -0.0136654,-0.001 -0.0206654,-0.00266535 -0.0426614,-0.0113346 -0.0679921,-0.0553307 -0.0566614,-0.0979921l0.376303 -1.40489c0.0113307,-0.0426654 0.0553307,-0.0679921 0.0979921,-0.0566614 0.0426614,0.0113307 0.0679921,0.0553307 0.0566614,0.0979921zm-0.447965 -0.462969l-1.91519 0 0 2.09784c0,0.105992 0.0863268,0.192319 0.192319,0.192319l3.8107 0c0.105996,0 0.192319,-0.0863268 0.192319,-0.192319l0 -1.35607c-0.124394,0.0444961 -0.254744,0.0671693 -0.388299,0.0671693 -0.155657,0 -0.306646,-0.0303346 -0.448634,-0.0906614 -0.137323,-0.0579961 -0.260646,-0.141323 -0.366303,-0.246984 -0.105996,-0.105992 -0.188988,-0.228984 -0.246984,-0.366303 -0.0145512,-0.0345236 -0.0273819,-0.0695354 -0.0384606,-0.104992l-0.545492 0 -0.245984 0zm-0.243315 1.62354c-0.0156654,0.0156654 -0.0359961,0.0236654 -0.0566614,0.0236654 -0.0203307,0 -0.0409961,-0.00766535 -0.0566614,-0.0233307l-0.444299 -0.44463c-0.015,-0.015 -0.0233307,-0.0353307 -0.0233307,-0.0566654 0,-0.0213307 0.00833071,-0.0416614 0.0233307,-0.0566614l0.444299 -0.444299c0.0313307,-0.0313307 0.0819961,-0.0313307 0.112992,0 0.0313307,0.0313307 0.0313307,0.0819961 0,0.112992l-0.387642 0.387969 0.387972 0.387969c0.0313346,0.0313346 0.0313346,0.0819961 0,0.112992z"/>
  <path class="fil4" d="M4.82056 2.41524c-0.162657,0 -0.29498,0.160988 -0.29498,0.358638 0,0.0618622 0.0129606,0.120134 0.0357598,0.171 0.00207087,0.00365748 0.00382677,0.0074252 0.00526772,0.0112638 0.0514173,0.105469 0.146004,0.176374 0.253953,0.176374 0.108421,0 0.203366,-0.0715315 0.254626,-0.177772 0.00109055,-0.00270866 0.00233858,-0.00537402 0.00374409,-0.00798819 0.0233228,-0.051311 0.0366063,-0.110252 0.0366063,-0.172878 0,-0.0317047 -0.00340551,-0.0624646 -0.00979134,-0.0917677 -0.00125197,-0.00393701 -0.00219685,-0.00797638 -0.00282283,-0.0120827 -0.00999606,-0.0400748 -0.025622,-0.0772126 -0.0457559,-0.110043 -0.00213386,-0.00291732 -0.00410236,-0.00601181 -0.00588189,-0.00927953 -3.14961e-005,-4.33071e-005 -5.90551e-005,-9.05512e-005 -7.87402e-005,-0.000141732 -0.0249567,-0.0379961 -0.0561102,-0.0697283 -0.0915866,-0.0928898 -0.00338189,-0.00178346 -0.00665748,-0.00382283 -0.00979134,-0.00611024 -0.0390591,-0.0232559 -0.0829331,-0.0363228 -0.129268,-0.0363228z"/>
  <path class="fil4" d="M4.66049 2.2885c0.0504094,-0.0214291 0.104398,-0.0325827 0.160063,-0.0325827 0.0554961,0 0.109319,0.0111496 0.159594,0.0324961 0.0135866,-0.0208189 0.0207244,-0.0440472 0.0207244,-0.0681575 0,-0.0806614 -0.0809921,-0.146657 -0.180654,-0.146657 -0.0543268,0 -0.103106,0.0195118 -0.13624,0.0503819 -0.00300394,0.00360236 -0.00624803,0.00688976 -0.00969291,0.00984646 -0.0218268,0.0242362 -0.0347205,0.0541142 -0.0347205,0.0864291 0,0.0241417 0.00728346,0.0474016 0.0209252,0.0682441z"/>
  <path class="fil5" d="M4.63411 1.96351c0.0535118,-0.0315394 0.117449,-0.0498976 0.186102,-0.0498976 0.0688976,0 0.133047,0.0184921 0.186677,0.0502362 0.0124646,-0.0254567 0.0212008,-0.0609567 0.0203071,-0.110232 -0.000665354,-0.0443307 0.0343346,-0.0806614 0.0786614,-0.0813268 0.0443307,-0.001 0.0806614,0.0343307 0.0813268,0.0786614 0.00193701,0.107744 -0.0294331,0.180937 -0.0642874,0.228713 0.024252,0.0421457 0.0379567,0.0899646 0.0379567,0.140594 0,0.0557677 -0.0168622,0.10978 -0.0477559,0.156634 0.00925591,0.00886614 0.018248,0.018185 0.0269567,0.0279528 0.073311,-0.0608937 0.10276,-0.146244 0.0877953,-0.254252 -0.006,-0.0436614 0.0243346,-0.0843268 0.0679961,-0.0903268 0.0436614,-0.00599606 0.0843268,0.0243346 0.0903268,0.0679961 0.0163307,0.116657 -0.004,0.21965 -0.0606654,0.306311 -0.0257402,0.0394843 -0.0591929,0.0751142 -0.0986732,0.105488 0.00863386,0.0194567 0.0161654,0.0395039 0.0225551,0.0600354 0.0441339,0.0212165 0.102161,0.0567795 0.151453,0.112791 0.0819921,0.0933268 0.115323,0.215315 0.0959921,0.352638 -0.00533465,0.0396654 -0.0396693,0.0686614 -0.079,0.0686614 -0.00366535,0 -0.00733465,-0.000334646 -0.0113307,-0.000669291 -0.0436614,-0.006 -0.0743268,-0.0466614 -0.0679961,-0.0903268 0.0154409,-0.10974 -0.0176772,-0.183594 -0.0640748,-0.23285 -0.00310236,0.0516063 -0.0128386,0.10174 -0.0287047,0.14911 0.104146,0.0960276 0.149181,0.230587 0.127449,0.385055 -0.00566929,0.0399961 -0.04,0.0686575 -0.0789961,0.0686575 -0.00366929,0 -0.00733465,-0.000330709 -0.0113307,-0.000665354 -0.0436654,-0.006 -0.0743307,-0.0466614 -0.0679961,-0.0903268 0.0119803,-0.084815 -0.00394094,-0.15585 -0.0473898,-0.212244 -0.00669291,0.00898031 -0.0136732,0.0177402 -0.0209409,0.0262598 -0.0863268,0.100657 -0.202319,0.156319 -0.325972,0.156319 -0.123992,0 -0.23965,-0.0556614 -0.325976,-0.156319 -0.00729134,-0.00851575 -0.0142913,-0.0172677 -0.021,-0.026248 -0.0431457,0.0563386 -0.0590433,0.12726 -0.0473268,0.211898 0.006,0.0436614 -0.0243307,0.0843268 -0.0679921,0.0903268 -0.00400394,0.001 -0.00767323,0.001 -0.0113346,0.001 -0.0393307,0 -0.0736614,-0.0289961 -0.0789961,-0.0689921 -0.0217283,-0.154409 0.0232677,-0.288673 0.127331,-0.384846 -0.0158622,-0.0475039 -0.0255512,-0.0977559 -0.0286142,-0.149398 -0.046563,0.0492795 -0.0798622,0.123134 -0.0643858,0.232933 0.006,0.0436614 -0.0243307,0.0843268 -0.0679921,0.0903268 -0.00400394,0.000665354 -0.00766929,0.001 -0.0113346,0.001 -0.0393307,0 -0.0736614,-0.0289961 -0.0789961,-0.0689961 -0.0193346,-0.137323 0.0139961,-0.259311 0.0959921,-0.352638 0.0494764,-0.0564724 0.107941,-0.0921496 0.152087,-0.113213 0.00635039,-0.0202559 0.0138071,-0.0400354 0.0223346,-0.0592323 -0.0397677,-0.0304567 -0.0734606,-0.0662165 -0.0990945,-0.105866 -0.0566614,-0.0866614 -0.0769921,-0.189654 -0.0606614,-0.306311 0.006,-0.0436614 0.0466614,-0.0743268 0.0903268,-0.0679961 0.0436614,0.006 0.0743268,0.0466654 0.0679961,0.0903268 -0.0152677,0.10822 0.0142756,0.193697 0.0880827,0.254614 0.00856299,-0.0096378 0.0174055,-0.0188386 0.0265,-0.0275906 -0.0310827,-0.0470354 -0.0479213,-0.101283 -0.0479213,-0.157028 0,-0.0508386 0.013815,-0.0988386 0.038252,-0.14111 -0.0347087,-0.0477835 -0.0658465,-0.120839 -0.0639173,-0.228201 0.000669291,-0.0436614 0.0363307,-0.0786614 0.0799921,-0.0786614l0.00133465 0c0.0443307,0.000669291 0.0793307,0.0373307 0.0786614,0.0813268 -0.000893701,0.0491457 0.00779528,0.0844961 0.0202126,0.109898zm-0.80615 0.629051c0,0.547291 0.445295,0.992591 0.992591,0.992591 0.547287,0 0.992591,-0.445295 0.992591,-0.992591 -3.93701e-006,-0.547291 -0.445303,-0.992591 -0.992591,-0.992591 -0.547291,0 -0.992591,0.445299 -0.992591,0.992591z"/>
 </g>
</svg>
