<?xml version="1.0" encoding="UTF-8"?>
<!DOCTYPE svg PUBLIC "-//W3C//DTD SVG 1.1//EN" "http://www.w3.org/Graphics/SVG/1.1/DTD/svg11.dtd">
<!-- Creator: CorelDRAW -->
<svg xmlns="http://www.w3.org/2000/svg" xml:space="preserve" width="6.82666in" height="6.82666in" style="shape-rendering:geometricPrecision; text-rendering:geometricPrecision; image-rendering:optimizeQuality; fill-rule:evenodd; clip-rule:evenodd"
viewBox="0 0 6.82666 6.82666"
 xmlns:xlink="http://www.w3.org/1999/xlink">
 <defs>
  <style type="text/css">
   <![CDATA[
    .fil0 {fill:none}
    .fil3 {fill:#333333}
    .fil2 {fill:#5B5D6E}
    .fil1 {fill:#694B4B}
    .fil4 {fill:#98EDFE}
    .fil5 {fill:#CCCCCC}
    .fil7 {fill:#DFE5EF}
    .fil8 {fill:#EFF2FA}
    .fil6 {fill:#FFDDCE}
   ]]>
  </style>
 </defs>
 <rect class="fil0" width="6.82666" height="6.82666"/>
 <g id="Layer_x0020_1">
  <metadata id="CorelCorpID_0Corel-Layer"/>
  <path class="fil1" d="M3.34783 2.60327l0 0.0432874 -0.0264291 0.00023622c-0.136217,0.00120472 -0.261256,-0.0639528 -0.363362,-0.149571 -0.0375669,-0.0315 -0.0728465,-0.0663465 -0.105039,-0.103327 -0.0134016,-0.0153937 -0.0280079,-0.0325748 -0.0396929,-0.049378 -0.0109173,-0.0157008 -0.0292087,-0.0244488 -0.0482953,-0.0226732 -0.0191142,0.00177953 -0.0358701,0.0135276 -0.0439252,0.0309646 -0.0911969,0.197394 -0.345622,0.265524 -0.543496,0.287957 -0.118213,0.0134016 -0.240866,0.0142087 -0.359559,0.00566535l-0.024752 -0.00178346 0 -0.041374c0,-0.428685 0.348591,-0.777276 0.777276,-0.777276 0.428685,0 0.777276,0.348587 0.777276,0.777272z"/>
  <path class="fil2" d="M2.57058 5.03383l0.146976 0.607213 -0.294224 0 0.147248 -0.607213zm-2.3622e-005 -0.301343l-0.136028 -0.136024 0.0234567 -0.0185906c0.0316457,-0.0250787 0.0636535,-0.0497165 0.0959685,-0.0739252l0.0159843 -0.0119764 0.0159843 0.0119685c0.0325591,0.024378 0.0648031,0.0491929 0.0966811,0.0744488l0.0234606 0.0185906 -0.135508 0.135508z"/>
  <g id="_444083600">
   <g>
    <g id="_261963688">
     <path id="_444085568" class="fil3" d="M4.1611 5.77436l-3.22775 0c-0.0443307,0 -0.0799921,-0.0356614 -0.0799921,-0.0799921l0 -0.908264c0,-0.132992 0.0263307,-0.26198 0.0779921,-0.383972 0.0499961,-0.117657 0.121327,-0.223315 0.212319,-0.313972 0.0909921,-0.0909961 0.19665,-0.162323 0.313972,-0.212319 0.121992,-0.0516614 0.25098,-0.0779921 0.383972,-0.0779921l0.348307 0c0.0263307,0 0.0506614,0.013 0.0656614,0.0343307l0.314642 0.453634 0.314642 -0.453634c0.015,-0.0216654 0.0396654,-0.0343307 0.0656614,-0.0343307l0.30198 0c0.132992,0 0.26198,0.0263307 0.383972,0.0779921 0.117657,0.0499961 0.223315,0.121327 0.313972,0.212319 0.0909961,0.0909921 0.162323,0.19665 0.212319,0.313972 0.0516614,0.121992 0.0779921,0.25098 0.0779921,0.383972l0 0.908264c0.000334646,0.0443307 -0.0353268,0.0799921 -0.0796614,0.0799921zm-3.14776 -0.159984l3.06776 0 0 -0.828272c0,-0.456634 -0.371638,-0.828272 -0.828272,-0.828272l-0.25998 0 -0.356638 0.513961c-0.015,0.0216693 -0.0396654,0.0343346 -0.0656614,0.0343346 -0.0259961,0 -0.0506614,-0.013 -0.0656614,-0.0343346l-0.356638 -0.513961 -0.306311 0c-0.456634,0 -0.828272,0.371638 -0.828272,0.828272l3.93701e-006 0.828272 -0.000334646 0z"/>
    </g>
    <g id="_261963712">
     <path id="_444085448" class="fil3" d="M2.57056 3.69285c-0.242315,0 -0.470965,-0.0949921 -0.643283,-0.267315 -0.172323,-0.172323 -0.267315,-0.400969 -0.267315,-0.643283l0 -0.178988c0,-0.242315 0.0949921,-0.470965 0.267315,-0.643283 0.172323,-0.172319 0.400969,-0.267315 0.643283,-0.267315l0 0c0.242315,0 0.470965,0.0949921 0.643283,0.267315 0.172323,0.172323 0.267311,0.400969 0.267311,0.643283l0 0.178654c0,0.242311 -0.0949882,0.470965 -0.267311,0.643283 -0.172323,0.172315 -0.400969,0.26765 -0.643283,0.26765zm0 -1.84019c-0.413969,0 -0.75061,0.336642 -0.75061,0.75061l0 0.17865c0,0.413969 0.336642,0.75061 0.75061,0.75061 0.413969,0 0.75061,-0.336642 0.75061,-0.75061l0 -0.178654c0,-0.413969 -0.336642,-0.750606 -0.75061,-0.750606l0 0z"/>
    </g>
    <g>
     <g id="_261963160">
      <path id="_444085184" class="fil3" d="M2.24092 3.9395l-0.101323 -0.123657c0,0 -0.00100394,0.000665354 -0.00233465,0.00199606 0.000669291,-0.000665354 0.0609961,-0.0609961 0.0923268,-0.260311 0.007,-0.0436614 0.0476614,-0.0733307 0.0913268,-0.0666614 0.0436614,0.007 0.0733307,0.0476614 0.0666614,0.0913268 -0.0409961,0.259315 -0.129661,0.343307 -0.146657,0.357307z"/>
     </g>
     <g id="_261963472">
      <path id="_444085136" class="fil3" d="M2.9002 3.9395c-0.0173307,-0.0143346 -0.105661,-0.0979921 -0.146323,-0.356972 -0.007,-0.0436654 0.0229961,-0.0846614 0.0666614,-0.0913307 0.0436654,-0.007 0.0846614,0.023 0.0913307,0.0666614 0.0313307,0.199323 0.0916575,0.25965 0.0923228,0.260315 -0.00166535,-0.00166535 -0.00233071,-0.002 -0.00233071,-0.002l-0.101661 0.123327z"/>
     </g>
    </g>
    <g>
     <g id="_261963520">
      <path id="_444084992" class="fil3" d="M1.56963 5.77436c-0.0443268,0 -0.0799921,-0.0356614 -0.0799921,-0.0799921l0 -0.585957c0,-0.0443307 0.0356654,-0.0799921 0.0799921,-0.0799921 0.0443307,0 0.0799961,0.0356614 0.0799961,0.0799921l0 0.585957c0,0.0443307 -0.036,0.0799921 -0.0799961,0.0799921z"/>
     </g>
     <g id="_261963640">
      <path id="_444085064" class="fil3" d="M3.52515 5.77436c-0.0443307,0 -0.0799921,-0.0356614 -0.0799921,-0.0799921l0 -0.585957c0,-0.0443307 0.0356614,-0.0799921 0.0799921,-0.0799921 0.0443307,0 0.0799921,0.0356614 0.0799921,0.0799921l0 0.585957c0,0.0443307 -0.0359961,0.0799921 -0.0799921,0.0799921z"/>
     </g>
    </g>
    <g id="_261963616">
     <path id="_444084656" class="fil3" d="M1.96927 2.78559c-0.132323,0 -0.228315,-0.012 -0.23998,-0.0136654 -0.0436614,-0.00566535 -0.0746614,-0.0459961 -0.0689961,-0.0896575 0.00566535,-0.0436614 0.046,-0.0746614 0.0896614,-0.0689961l0 0c0.00199606,0.000334646 0.20365,0.0259961 0.424634,0.001 0.19065,-0.0216654 0.436295,-0.0866575 0.522291,-0.272646 0.012,-0.0259961 0.037,-0.0436614 0.0656614,-0.0463307 0.0286654,-0.00266535 0.0563307,0.0103346 0.0726614,0.034 0.00233465,0.00333071 0.24265,0.340303 0.551961,0.284646 0.0433307,-0.00766535 0.0849921,0.0209961 0.0929921,0.0646575 0.00766535,0.0433307 -0.021,0.0849961 -0.0646614,0.0929961 -0.172319,0.0309961 -0.350972,-0.0206654 -0.516295,-0.149992 -0.0483268,-0.0376614 -0.0889921,-0.0769921 -0.120657,-0.110657 -0.186654,0.23265 -0.561622,0.274646 -0.809272,0.274646z"/>
    </g>
    <g>
     <g id="_261964240">
      <path id="_444084320" class="fil3" d="M2.91453 4.79944c-0.0273307,0 -0.0533268,-0.014 -0.0679921,-0.0376654 -0.0253346,-0.0406614 -0.187654,-0.172319 -0.323311,-0.27098 -0.0356614,-0.0259961 -0.0436614,-0.0759921 -0.0176654,-0.111657 0.026,-0.0356654 0.0759961,-0.0436614 0.111661,-0.0176654 0.003,0.00233465 0.0759961,0.0553307 0.156323,0.118992 0.0366614,0.0289961 0.0666614,0.0539961 0.0916575,0.0756614 0.0103346,-0.0573307 0.0213307,-0.126992 0.0303307,-0.199654 0.0396654,-0.321307 0,-0.415299 -0.013,-0.436295 -0.0233307,-0.0376654 -0.0116654,-0.0869961 0.0259961,-0.109992 0.0376614,-0.0233307 0.0869961,-0.0116654 0.109992,0.0259961 0.0573268,0.0929921 0.0689961,0.26998 0.0356614,0.541291 -0.0233307,0.189319 -0.0603268,0.353307 -0.0616575,0.360307 -0.00700394,0.0316614 -0.0326654,0.0559961 -0.0646614,0.0613307 -0.00433465,-3.93701e-006 -0.009,0.000330709 -0.0133346,0.000330709z"/>
     </g>
     <g id="_261964600">
      <path id="_444084152" class="fil3" d="M2.22625 4.79944c-0.00433465,0 -0.009,-0.000334646 -0.0133346,-0.00100394 -0.0319961,-0.00533071 -0.0576614,-0.0296614 -0.0646575,-0.0613268 -0.00166535,-0.007 -0.0383307,-0.170988 -0.0616614,-0.360307 -0.0333307,-0.271311 -0.022,-0.448299 0.0356614,-0.541291 0.0233307,-0.0376614 0.0726614,-0.0493307 0.109992,-0.0259961 0.0376614,0.0233307 0.0493307,0.0726614 0.0259961,0.109988 -0.013,0.021 -0.0526614,0.115327 -0.013,0.437299 0.009,0.0723307 0.02,0.141323 0.0303307,0.198654 0.025,-0.0213307 0.055,-0.0463307 0.0916614,-0.0756614 0.0803268,-0.0636614 0.153319,-0.116992 0.156319,-0.118988 0.0356654,-0.026 0.0856614,-0.018 0.111661,0.0176654 0.0259961,0.0356614 0.0179961,0.0856575 -0.0176654,0.111657 -0.135657,0.0986575 -0.29798,0.230315 -0.323307,0.27098 -0.0146654,0.0243268 -0.0406654,0.0383307 -0.0679961,0.0383307z"/>
     </g>
    </g>
    <g id="_261964168">
     <path id="_444083816" class="fil3" d="M2.57056 4.88743c-0.0213307,0 -0.0416614,-0.00833465 -0.0566614,-0.0233346l-0.21465 -0.214646c-0.0313307,-0.0313346 -0.0313307,-0.0819961 0,-0.112992 0.0313307,-0.0313307 0.0819961,-0.0313307 0.112992,0l0.158319 0.158319 0.158319 -0.158319c0.0313346,-0.0313307 0.0819961,-0.0313307 0.112992,0 0.0313307,0.0313307 0.0313307,0.0819961 0,0.112992l-0.21465 0.214646c-0.0153307,0.015 -0.0356614,0.0233346 -0.0566614,0.0233346z"/>
    </g>
    <g id="_261964384">
     <path id="_444084368" class="fil3" d="M2.78521 5.77436c-0.0359961,0 -0.0686614,-0.0246654 -0.0776614,-0.0613307l-0.136988 -0.565953 -0.137323 0.566291c-0.0103346,0.0429961 -0.0536614,0.0693268 -0.0966614,0.0589961 -0.0429961,-0.0103346 -0.0693268,-0.0536654 -0.0589921,-0.0966614l0.21465 -0.886933c0.00866535,-0.0359961 0.0406614,-0.0613307 0.0776575,-0.0613307 0.037,0 0.0689961,0.0253346 0.0776614,0.0613307l0.21465 0.886933c0.0103346,0.0429961 -0.016,0.0863268 -0.0589961,0.0966614 -0.00533071,0.00133071 -0.0116654,0.00199606 -0.0179961,0.00199606z"/>
    </g>
    <g id="_261964480">
     <path id="_444084176" class="fil3" d="M1.56963 5.44039l-0.636283 0c-0.0443307,0 -0.0799921,-0.0356614 -0.0799921,-0.0799921 0,-0.0443307 0.0356614,-0.0799921 0.0799921,-0.0799921l0.636283 -3.93701e-006c0.0443307,0 0.0799961,0.0356654 0.0799961,0.0799921 0,0.0443307 -0.036,0.0799961 -0.0799961,0.0799961z"/>
    </g>
    <g id="_261964144">
     <path id="_444083360" class="fil3" d="M4.1611 5.44039l-0.635949 0c-0.0443307,0 -0.0799921,-0.0356614 -0.0799921,-0.0799921 0,-0.0443307 0.0356614,-0.0799921 0.0799921,-0.0799921l0.636283 -3.93701e-006c0.0443307,0 0.0799921,0.0356654 0.0799921,0.0799921 0,0.0443307 -0.0359921,0.0799961 -0.0803268,0.0799961z"/>
    </g>
   </g>
   <g id="_261963904">
    <path id="_444083048" class="fil3" d="M4.02611 3.71419c-0.00966535,0 -0.0193307,-0.00166535 -0.0283307,-0.00533071 -0.031,-0.0116654 -0.0513307,-0.0416654 -0.0513307,-0.0746614l0 -0.561626c-0.232315,-0.0516614 -0.405303,-0.260315 -0.405303,-0.50463l0 -0.998925c0,-0.284976 0.231984,-0.516961 0.516965,-0.516961l1.39822 3.93701e-006c0.284976,0 0.516961,0.23198 0.516961,0.516961l0 0.998925c0,0.284976 -0.231984,0.516961 -0.516961,0.516961l-0.831937 0 -0.538622 0.602614c-0.0153346,0.0173346 -0.0373346,0.0266693 -0.0596654,0.0266693zm0.0316654 -2.50215c-0.196984,0 -0.356972,0.159988 -0.356972,0.356972l0 0.998925c0,0.186319 0.145323,0.342642 0.330976,0.355972 0.0416614,0.003 0.0743268,0.0379961 0.0743268,0.0796614l0 0.420969 0.422299 -0.472965c0.0153307,-0.0169961 0.037,-0.0266654 0.0596614,-0.0266654l0.867602 0c0.196984,0 0.356972,-0.159988 0.356972,-0.356972l-3.93701e-006 -0.998925c0,-0.196984 -0.159988,-0.356972 -0.356972,-0.356972l-1.39789 0z"/>
   </g>
   <g>
    <g id="_261963976">
     <path id="_444083624" class="fil3" d="M4.80839 2.84025l-0.102992 0c-0.0749961,0 -0.135657,-0.0553268 -0.150657,-0.137319l-0.01 -0.0546654c-0.018,-0.00666535 -0.0359961,-0.0139961 -0.0533268,-0.022l-0.0456654 0.0316654c-0.0686614,0.0476614 -0.150657,0.0439961 -0.20365,-0.00933465l-0.0723268 -0.0729921c-0.0529961,-0.0529961 -0.0566614,-0.134988 -0.00933465,-0.20365l0.0316654 -0.0456654c-0.00833465,-0.0173307 -0.0156654,-0.0353307 -0.022,-0.0533268l-0.0546654 -0.01c-0.0823268,-0.015 -0.137319,-0.0753307 -0.137319,-0.150657l0 -0.102323c0,-0.0749961 0.0553307,-0.135657 0.137323,-0.150657l0.0546654 -0.01c0.00666535,-0.0179961 0.0139961,-0.0359961 0.022,-0.0533268l-0.0316654 -0.0456654c-0.0476614,-0.0686614 -0.0439961,-0.150657 0.00933465,-0.20365l0.0726614 -0.0726614c0.0529961,-0.0529961 0.134988,-0.0566654 0.20365,-0.00933465l0.0456654 0.0316614c0.0173307,-0.00833071 0.0353307,-0.0156654 0.0533268,-0.0219961l0.01 -0.0546654c0.015,-0.0823268 0.0753307,-0.137323 0.150323,-0.137323l0.102988 7.87402e-006c0.0749921,0 0.135657,0.0553307 0.150657,0.137654l0.01 0.0546654c0.0179961,0.00666535 0.0359961,0.0139961 0.0533268,0.022l0.0456654 -0.0316654c0.0686614,-0.0476614 0.150654,-0.0439961 0.20365,0.00933465l0.0726614 0.0726614c0.0529961,0.0529961 0.0566614,0.134988 0.00933465,0.20365l-0.0316654 0.0456654c0.00833465,0.0173307 0.0156654,0.0353307 0.022,0.0533268l0.0546654 0.01c0.0823268,0.015 0.137654,0.0753307 0.137654,0.150657l0 0.102992c0,0.0749961 -0.0553307,0.135657 -0.137654,0.150657l-0.0546654 0.01c-0.00666535,0.018 -0.0139961,0.0359961 -0.022,0.0533307l0.0316654 0.0456614c0.0476614,0.0686614 0.0439961,0.150657 -0.00933465,0.203654l-0.0726614 0.0726614c-0.0529961,0.0529921 -0.134988,0.0566614 -0.20365,0.00933071l-0.0456654 -0.0316614c-0.0173307,0.00833071 -0.0353307,0.0156654 -0.0533268,0.022l-0.01 0.0546614c-0.0150039,0.081315 -0.0756654,0.136642 -0.150657,0.136642zm-0.0943268 -0.159984l0.0859921 0c0.000665354,-0.00166535 0.00133465,-0.00366535 0.00166535,-0.006l0.0186654 -0.101992c0.00566535,-0.0303307 0.028,-0.0549961 0.0579961,-0.0629961 0.0383307,-0.0103346 0.0756614,-0.0256614 0.110323,-0.0456614 0.0266654,-0.0153346 0.0599961,-0.014 0.0853307,0.00366535l0.0853268 0.0589961c0.002,0.00133465 0.004,0.00233071 0.00533465,0.003l0.0606614 -0.0606654c-0.000669291,-0.00166535 -0.00166535,-0.00333071 -0.003,-0.00533071l-0.0589961 -0.0853268c-0.0176654,-0.0253346 -0.019,-0.0586614 -0.00366535,-0.0853307 0.0199961,-0.0346614 0.0353307,-0.0716614 0.0456654,-0.109988 0.00799606,-0.03 0.0326614,-0.0523307 0.0629921,-0.058l0.101992 -0.0186654c0.00233465,-0.000330709 0.00433465,-0.001 0.006,-0.00166535l0 -0.0859921c-0.00166535,-0.000665354 -0.00366535,-0.00133465 -0.006,-0.00166535l-0.101992 -0.0186654c-0.0303307,-0.00566535 -0.0549961,-0.028 -0.0629921,-0.0579961 -0.0103346,-0.0383307 -0.0256654,-0.0756614 -0.0456654,-0.110323 -0.0153346,-0.0266654 -0.014,-0.0599961 0.00366535,-0.0853307l0.0589961 -0.0853268c0.00133465,-0.002 0.00233071,-0.004 0.003,-0.00533465l-0.0606614 -0.0606614c-0.00166535,0.000669291 -0.00333465,0.00166535 -0.00533465,0.003l-0.0853268 0.0589961c-0.0253346,0.0176654 -0.0586614,0.019 -0.0853307,0.00366535 -0.0346614,-0.0199961 -0.0716575,-0.0353307 -0.109988,-0.0456654 -0.03,-0.00799606 -0.0523307,-0.0326614 -0.0579961,-0.0629921l-0.0186654 -0.101992c-0.000334646,-0.00233465 -0.00100394,-0.00433465 -0.00166535,-0.006l-0.0859961 3.93701e-006c-0.000665354,0.00166535 -0.00133465,0.00366929 -0.00166535,0.006l-0.0186654 0.101992c-0.00566535,0.0303307 -0.0279961,0.0549961 -0.0579961,0.0629961 -0.0383307,0.0103346 -0.0756614,0.0256614 -0.110323,0.0456654 -0.0266654,0.0153307 -0.0599961,0.0139961 -0.0853307,-0.00366929l-0.0853268 -0.0589921c-0.002,-0.00133465 -0.004,-0.00233465 -0.00533071,-0.003l-0.0606654 0.0606614c0.000669291,0.00166535 0.00166535,0.00333465 0.003,0.00533071l0.0589961 0.0853307c0.0176654,0.0253307 0.019,0.0586614 0.00366535,0.0853268 -0.0199961,0.0346614 -0.0353268,0.0716614 -0.0456614,0.110323 -0.008,0.03 -0.0326654,0.0523307 -0.0629961,0.058l-0.101992 0.0186654c-0.00233465,0.000330709 -0.00433465,0.001 -0.006,0.00166535l0 0.0859921c0.00166535,0.000665354 0.00366535,0.00133465 0.006,0.00166535l0.101992 0.0186654c0.0303307,0.00566535 0.0549961,0.028 0.0629961,0.0579961 0.0103346,0.0383307 0.0256614,0.0756614 0.0456614,0.110323 0.0153346,0.0266654 0.014,0.0599961 -0.00366535,0.0853307l-0.0589961 0.0853268c-0.00133465,0.002 -0.00233071,0.004 -0.003,0.00533465l0.0606654 0.0606614c0.00166535,-0.000669291 0.00333071,-0.00166535 0.00533071,-0.003l0.0853268 -0.0589961c0.0253346,-0.0176654 0.0586614,-0.019 0.0853307,-0.00366535 0.0346614,0.0199961 0.0716614,0.0353307 0.109988,0.0456654 0.03,0.00799606 0.0523307,0.0326614 0.058,0.0629921l0.0186654 0.101992c0.000330709,0.00199606 0.000996063,0.00399213 0.00166535,0.00566142z"/>
    </g>
    <g id="_261964984">
     <path id="_444083528" class="fil3" d="M4.75706 2.40995c-0.192319,0 -0.348642,-0.156319 -0.348642,-0.348638 0,-0.192319 0.156323,-0.348642 0.348642,-0.348642 0.192319,0 0.348642,0.156323 0.348642,0.348642 -3.93701e-006,0.192319 -0.156657,0.348638 -0.348642,0.348638zm0 -0.537291c-0.103992,0 -0.18865,0.0846614 -0.18865,0.188654 0,0.103988 0.0846575,0.18865 0.18865,0.18865 0.103992,0 0.188654,-0.0846614 0.188654,-0.18865 0,-0.103992 -0.0846614,-0.188654 -0.188654,-0.188654z"/>
    </g>
   </g>
  </g>
  <path class="fil4" d="M4.44575 2.65793c-0.0686614,0.0476614 -0.150657,0.0439961 -0.20365,-0.00933465l-0.0723268 -0.0729921c-0.0529961,-0.0529961 -0.0566614,-0.134988 -0.00933465,-0.20365l0.0316654 -0.0456654c-0.00833465,-0.0173307 -0.0156654,-0.0353307 -0.022,-0.0533268l-0.0546654 -0.01c-0.0823268,-0.015 -0.137319,-0.0753307 -0.137319,-0.150657l0 -0.102323c0,-0.0749961 0.0553307,-0.135657 0.137323,-0.150657l0.0546654 -0.01c0.00666535,-0.0179961 0.0139961,-0.0359961 0.022,-0.0533268l-0.0316654 -0.0456654c-0.0476614,-0.0686614 -0.0439961,-0.150657 0.00933465,-0.20365l0.0726614 -0.0726614c0.0529961,-0.0529961 0.134988,-0.0566654 0.20365,-0.00933465l0.0456654 0.0316614c0.0173307,-0.00833071 0.0353307,-0.0156654 0.0533268,-0.0219961l0.01 -0.0546654c0.015,-0.0823268 0.0753307,-0.137323 0.150323,-0.137323l0.102988 7.87402e-006c0.0749921,0 0.135657,0.0553307 0.150657,0.137654l0.01 0.0546654c0.0179961,0.00666535 0.0359961,0.0139961 0.0533268,0.022l0.0456654 -0.0316654c0.0686614,-0.0476614 0.150654,-0.0439961 0.20365,0.00933465l0.0726614 0.0726614c0.0529961,0.0529961 0.0566614,0.134988 0.00933465,0.20365l-0.0316654 0.0456654c0.00833465,0.0173307 0.0156654,0.0353307 0.022,0.0533268l0.0546654 0.01c0.0823268,0.015 0.137654,0.0753307 0.137654,0.150657l0 0.102992c0,0.0749961 -0.0553307,0.135657 -0.137654,0.150657l-0.0546654 0.01c-0.00666535,0.018 -0.0139961,0.0359961 -0.022,0.0533307l0.0316654 0.0456614c0.0476614,0.0686614 0.0439961,0.150657 -0.00933465,0.203654l-0.0726614 0.0726614c-0.0529961,0.0529921 -0.134988,0.0566614 -0.20365,0.00933071l-0.0456654 -0.0316614c-0.0173307,0.00833071 -0.0353307,0.0156654 -0.0533268,0.022l-0.01 0.0546614c-0.0150039,0.081315 -0.0756654,0.136642 -0.150657,0.136642l-0.102992 0c-0.0749961,0 -0.135657,-0.0553268 -0.150657,-0.137319l-0.01 -0.0546654c-0.018,-0.00666535 -0.0359961,-0.0139961 -0.0533268,-0.022l-0.0456654 0.0316654zm-0.339638 0.345642l0 0.420969 0.422299 -0.472965c0.0153307,-0.0169961 0.037,-0.0266654 0.0596614,-0.0266654l0.867602 0c0.196984,0 0.356972,-0.159988 0.356972,-0.356972l-3.93701e-006 -0.998925c0,-0.196984 -0.159988,-0.356972 -0.356972,-0.356972l-1.39789 0c-0.196984,0 -0.356972,0.159988 -0.356972,0.356972l0 0.998925c0,0.186319 0.145323,0.342642 0.330976,0.355972 0.0416614,0.003 0.0743268,0.0379961 0.0743268,0.0796614z"/>
  <path class="fil5" d="M4.35509 2.52661l0.0853268 -0.0589961c0.0253346,-0.0176654 0.0586614,-0.019 0.0853307,-0.00366535 0.0346614,0.0199961 0.0716614,0.0353307 0.109988,0.0456654 0.03,0.00799606 0.0523307,0.0326614 0.058,0.0629921l0.0186654 0.101992c0.000330709,0.00199606 0.000996063,0.00399213 0.00166535,0.00566142l0.0859921 0c0.000665354,-0.00166535 0.00133465,-0.00366535 0.00166535,-0.006l0.0186654 -0.101992c0.00566535,-0.0303307 0.028,-0.0549961 0.0579961,-0.0629961 0.0383307,-0.0103346 0.0756614,-0.0256614 0.110323,-0.0456614 0.0266654,-0.0153346 0.0599961,-0.014 0.0853307,0.00366535l0.0853268 0.0589961c0.002,0.00133465 0.004,0.00233071 0.00533465,0.003l0.0606614 -0.0606654c-0.000669291,-0.00166535 -0.00166535,-0.00333071 -0.003,-0.00533071l-0.0589961 -0.0853268c-0.0176654,-0.0253346 -0.019,-0.0586614 -0.00366535,-0.0853307 0.0199961,-0.0346614 0.0353307,-0.0716614 0.0456654,-0.109988 0.00799606,-0.03 0.0326614,-0.0523307 0.0629921,-0.058l0.101992 -0.0186654c0.00233465,-0.000330709 0.00433465,-0.001 0.006,-0.00166535l0 -0.0859921c-0.00166535,-0.000665354 -0.00366535,-0.00133465 -0.006,-0.00166535l-0.101992 -0.0186654c-0.0303307,-0.00566535 -0.0549961,-0.028 -0.0629921,-0.0579961 -0.0103346,-0.0383307 -0.0256654,-0.0756614 -0.0456654,-0.110323 -0.0153346,-0.0266654 -0.014,-0.0599961 0.00366535,-0.0853307l0.0589961 -0.0853268c0.00133465,-0.002 0.00233071,-0.004 0.003,-0.00533465l-0.0606614 -0.0606614c-0.00166535,0.000669291 -0.00333465,0.00166535 -0.00533465,0.003l-0.0853268 0.0589961c-0.0253346,0.0176654 -0.0586614,0.019 -0.0853307,0.00366535 -0.0346614,-0.0199961 -0.0716575,-0.0353307 -0.109988,-0.0456654 -0.03,-0.00799606 -0.0523307,-0.0326614 -0.0579961,-0.0629921l-0.0186654 -0.101992c-0.000334646,-0.00233465 -0.00100394,-0.00433465 -0.00166535,-0.006l-0.0859961 3.93701e-006c-0.000665354,0.00166535 -0.00133465,0.00366929 -0.00166535,0.006l-0.0186654 0.101992c-0.00566535,0.0303307 -0.0279961,0.0549961 -0.0579961,0.0629961 -0.0383307,0.0103346 -0.0756614,0.0256614 -0.110323,0.0456654 -0.0266654,0.0153307 -0.0599961,0.0139961 -0.0853307,-0.00366929l-0.0853268 -0.0589921c-0.002,-0.00133465 -0.004,-0.00233465 -0.00533071,-0.003l-0.0606654 0.0606614c0.000669291,0.00166535 0.00166535,0.00333465 0.003,0.00533071l0.0589961 0.0853307c0.0176654,0.0253307 0.019,0.0586614 0.00366535,0.0853268 -0.0199961,0.0346614 -0.0353268,0.0716614 -0.0456614,0.110323 -0.008,0.03 -0.0326654,0.0523307 -0.0629961,0.058l-0.101992 0.0186654c-0.00233465,0.000330709 -0.00433465,0.001 -0.006,0.00166535l0 0.0859921c0.00166535,0.000665354 0.00366535,0.00133465 0.006,0.00166535l0.101992 0.0186654c0.0303307,0.00566535 0.0549961,0.028 0.0629961,0.0579961 0.0103346,0.0383307 0.0256614,0.0756614 0.0456614,0.110323 0.0153346,0.0266654 0.014,0.0599961 -0.00366535,0.0853307l-0.0589961 0.0853268c-0.00133465,0.002 -0.00233071,0.004 -0.003,0.00533465l0.0606654 0.0606614c0.00166535,-0.000669291 0.00333071,-0.00166535 0.00533071,-0.003zm0.401972 -0.116665c-0.192319,0 -0.348642,-0.156319 -0.348642,-0.348638 0,-0.192319 0.156323,-0.348642 0.348642,-0.348642 0.192319,0 0.348642,0.156323 0.348642,0.348642 -3.93701e-006,0.192319 -0.156657,0.348638 -0.348642,0.348638z"/>
  <path class="fil6" d="M3.32117 2.78033c-0.142398,0.000944882 -0.28665,-0.052878 -0.421969,-0.158732 -0.0483268,-0.0376614 -0.0889921,-0.0769921 -0.120657,-0.110657 -0.186654,0.23265 -0.561622,0.274646 -0.809272,0.274646 -0.0581457,0 -0.10928,-0.0023189 -0.149323,-0.00505512l0 0.00138976c0,0.329059 0.212709,0.609264 0.507886,0.710362 0.00404724,0.00101181 0.00795669,0.00232283 0.0117047,0.00390157 0.0728031,0.0235945 0.150449,0.0363465 0.23102,0.0363465 0.413969,0 0.75061,-0.336642 0.75061,-0.75061l0 -0.00159055z"/>
  <path class="fil6" d="M2.77089 3.67062c-0.065063,0.014685 -0.132157,0.0222323 -0.200335,0.0222323 -0.068126,0 -0.135173,-0.00750787 -0.200193,-0.0221339 -0.0239331,0.102091 -0.0551102,0.168425 -0.081185,0.209898l0.281043 0.405193 0.28137 -0.405665c-0.0260118,-0.0414882 -0.0569803,-0.107697 -0.0807008,-0.209524z"/>
  <path class="fil7" d="M2.912 4.07435l-0.23178 0.334028c0.026626,0.0200906 0.059315,0.0451299 0.0933228,0.0720827 0.0220748,0.0174567 0.0417323,0.0334685 0.0593386,0.0481732 0.0023622,0.00176378 0.00464961,0.00367717 0.00684646,0.00574016 0.00903543,0.00760236 0.0175079,0.0148425 0.0254724,0.021748 0.0103346,-0.0573307 0.0213307,-0.126992 0.0303307,-0.199654 0.0155276,-0.125795 0.0188976,-0.216748 0.0164685,-0.282118z"/>
  <path class="fil7" d="M2.46043 4.4077l-0.231642 -0.333823c-0.00244094,0.0655433 0.000917323,0.156752 0.0164606,0.282917 0.009,0.0723307 0.02,0.141323 0.0303307,0.198654 0.025,-0.0213307 0.055,-0.0463307 0.0916614,-0.0756614 0.0339488,-0.0269055 0.0665906,-0.0519685 0.093189,-0.0720866z"/>
  <g id="_444082688">
   <polygon id="_444082760" class="fil2" points="2.57056,5.14707 2.45724,5.61437 2.68367,5.61437 "/>
   <path id="_444082808" class="fil2" d="M2.57056 4.69478l0.0954882 -0.0954882c-0.031126,-0.0246614 -0.0638307,-0.0498425 -0.0961024,-0.0740039 -0.0320433,0.0240079 -0.0645,0.049 -0.0953937,0.0734843l0.0960079 0.0960079z"/>
  </g>
  <polygon class="fil6" points="4.08111,5.44039 3.60515,5.44039 3.60515,5.61437 4.08111,5.61437 "/>
  <polygon class="fil6" points="1.48964,5.61437 1.48964,5.44039 1.01368,5.44039 1.01368,5.61437 "/>
  <path class="fil8" d="M1.64963 5.36039l0 0.253984 0.642795 0 0.18935 -0.782402 -0.130339 -0.130335c-0.0287913,0.0259921 -0.0494252,0.0470039 -0.057189,0.0594685 -0.0146654,0.0243268 -0.0406654,0.0383307 -0.0679961,0.0383307 -0.00433465,0 -0.009,-0.000334646 -0.0133346,-0.00100394 -0.0319961,-0.00533071 -0.0576614,-0.0296614 -0.0646575,-0.0613268 -0.00166535,-0.007 -0.0383307,-0.170988 -0.0616614,-0.360307 -0.0221496,-0.180303 -0.0245748,-0.318949 -0.0067874,-0.418969l-0.237862 0c-0.456634,0 -0.828272,0.371638 -0.828272,0.828272l3.93701e-006 0.494299 0.475961 -3.93701e-006 0 -0.171988c0,-0.0443307 0.0356654,-0.0799921 0.0799921,-0.0799921 0.0443307,0 0.0799961,0.0356614 0.0799961,0.0799921l0 0.25198z"/>
  <path class="fil8" d="M2.65827 4.83305l0.189091 0.781327 0.597803 0 0 -0.25398 0 -0.251984c0,-0.0443307 0.0356614,-0.0799921 0.0799921,-0.0799921 0.0443307,0 0.0799921,0.0356614 0.0799921,0.0799921l0 0.171992 0.475965 -3.93701e-006 0 -0.494295c0,-0.456634 -0.371638,-0.828272 -0.828272,-0.828272l-0.192134 0c0.0179213,0.100071 0.0156811,0.238933 -0.00651969,0.419638 -0.0233307,0.189319 -0.0603268,0.353307 -0.0616575,0.360307 -0.00700394,0.0316614 -0.0326654,0.0559961 -0.0646614,0.0613307 -0.00433465,-3.93701e-006 -0.009,0.000330709 -0.0133346,0.000330709 -0.0273307,0 -0.0533268,-0.014 -0.0679921,-0.0376654 -0.00777953,-0.0124882 -0.0284843,-0.0335591 -0.0573701,-0.059626l-0.130902 0.130902z"/>
  <path class="fil4" d="M4.56841 2.06131c0,0.103988 0.0846575,0.18865 0.18865,0.18865 0.103992,0 0.188654,-0.0846614 0.188654,-0.18865 0,-0.103992 -0.0846614,-0.188654 -0.188654,-0.188654 -0.103992,0 -0.18865,0.0846614 -0.18865,0.188654z"/>
 </g>
</svg>
