<?xml version="1.0" encoding="UTF-8"?>
<!DOCTYPE svg PUBLIC "-//W3C//DTD SVG 1.1//EN" "http://www.w3.org/Graphics/SVG/1.1/DTD/svg11.dtd">
<!-- Creator: CorelDRAW -->
<svg xmlns="http://www.w3.org/2000/svg" xml:space="preserve" width="6.82666in" height="6.82666in" style="shape-rendering:geometricPrecision; text-rendering:geometricPrecision; image-rendering:optimizeQuality; fill-rule:evenodd; clip-rule:evenodd"
viewBox="0 0 6.82666 6.82666"
 xmlns:xlink="http://www.w3.org/1999/xlink">
 <defs>
  <style type="text/css">
   <![CDATA[
    .fil0 {fill:none}
    .fil1 {fill:#0065A3}
    .fil4 {fill:#00DC7F}
    .fil2 {fill:#333333}
    .fil3 {fill:#33DDFE}
    .fil5 {fill:#98EDFE}
   ]]>
  </style>
 </defs>
 <rect class="fil0" width="6.82666" height="6.82666"/>
 <g id="Layer_x0020_1">
  <metadata id="CorelCorpID_0Corel-Layer"/>
  <path class="fil1" d="M4.86056 5.43551l0 0.148657 -1.12592 0 0 -0.148657 1.12592 0zm-1.23257 0.148657l-0.517634 0c-0.195705,0 -0.354972,-0.159268 -0.354972,-0.354972 0,-0.0267165 0.0219488,-0.0486654 0.0486654,-0.0486654l0.209654 -3.93701e-006 2.77745 3.93701e-006c0.0267165,0 0.0486654,0.0219488 0.0486654,0.0486654 0,0.195705 -0.159268,0.354972 -0.354972,0.354972l-0.517965 0 0 -0.201988c0,-0.0296102 -0.0237165,-0.0533268 -0.0533268,-0.0533268l-1.23224 0c-0.0296102,0 -0.0533268,0.0237165 -0.0533268,0.0533268l0 0.201988z"/>
  <g id="_444087392">
   <g id="_261965608">
    <path id="_444088880" class="fil2" d="M3.05503 2.75571l-1.80453 0c-0.21898,0 -0.396969,-0.177988 -0.396969,-0.396969 0,-0.178988 0.120323,-0.333976 0.287976,-0.381642 0.0236654,-0.0956575 0.0723307,-0.182319 0.142988,-0.253311 0.0689961,-0.0693268 0.152657,-0.117992 0.245315,-0.142988 0.0166654,-0.119323 0.0716614,-0.229315 0.158988,-0.314976 0.102992,-0.100992 0.239315,-0.156654 0.383638,-0.156654 0.124654,0 0.24665,0.0429961 0.343638,0.121323 0.0786614,0.0636654 0.138657,0.147992 0.172323,0.24265 0.0986575,0.007 0.192319,0.0403307 0.273646,0.0973268 0.0729961,0.0509961 0.131657,0.117992 0.172323,0.195988 0.00666535,-0.000334646 0.0136654,-0.000334646 0.0203307,-0.000334646 0.27298,0 0.494961,0.221984 0.494961,0.494961 0.000330709,0.272642 -0.22165,0.494626 -0.494626,0.494626zm-0.982594 -1.48656c-0.209319,0 -0.383303,0.170319 -0.387972,0.379638 -0.000665354,0.0389961 -0.0296654,0.0716614 -0.0683268,0.0773268 -0.168988,0.0246654 -0.303646,0.160323 -0.327311,0.329642 -0.00499606,0.0356614 -0.0333307,0.0636614 -0.0689921,0.0683268 -0.117657,0.015 -0.206315,0.115992 -0.206315,0.234654 0,0.130654 0.106327,0.23698 0.23698,0.23698l1.80453 0c0.18465,0 0.334972,-0.150323 0.334972,-0.334972 0,-0.184654 -0.150323,-0.334976 -0.334972,-0.334976 -0.0186654,0 -0.0376654,0.00166535 -0.0559961,0.00466535 -0.0376614,0.00633465 -0.0743268,-0.0146654 -0.0879961,-0.0503268 -0.0573268,-0.148988 -0.20265,-0.24898 -0.362303,-0.24898 -0.005,0 -0.0106654,0 -0.0166654,0.000330709 -0.0383307,0.00166535 -0.0726614,-0.0243307 -0.0813268,-0.0619921 -0.0406654,-0.176657 -0.196319,-0.300315 -0.378307,-0.300315zm-0.46763 0.377638l0 0 0 0z"/>
   </g>
   <g id="_261965728">
    <path id="_444088808" class="fil2" d="M3.05503 2.5224c-0.0443307,0 -0.0799961,-0.0356654 -0.0799961,-0.0799961 0,-0.0443268 0.0356654,-0.0799921 0.0799961,-0.0799921 0.0559921,0 0.101657,-0.0456654 0.101657,-0.101657 0,-0.0559961 -0.0456654,-0.101657 -0.101657,-0.101657 -0.0443307,0 -0.0799961,-0.0356654 -0.0799961,-0.0799961 0,-0.0443268 0.0356654,-0.0799921 0.0799961,-0.0799921 0.144323,0 0.261646,0.117327 0.261646,0.26165 -3.93701e-006,0.144315 -0.117327,0.261642 -0.261646,0.261642zm-1.61421 -0.365642c-0.00366535,0 -0.00733465,-0.000330709 -0.0113307,-0.000665354 -0.0436614,-0.006 -0.0743268,-0.0466614 -0.0679961,-0.0903268 0.019,-0.137323 0.128323,-0.246984 0.265311,-0.26698 0.0436654,-0.00633465 0.0843268,0.0239961 0.0906614,0.0676614 0.00633465,0.0436614 -0.0239961,0.0843268 -0.0676614,0.0906575 -0.0673268,0.01 -0.120657,0.0636654 -0.129988,0.130992 -0.00533465,0.0396654 -0.0396654,0.0686614 -0.0789961,0.0686614z"/>
   </g>
   <g>
    <g id="_261966736">
     <path id="_444087536" class="fil2" d="M5.5815 5.20719c-0.0443307,0 -0.0799921,-0.0356614 -0.0799921,-0.0799921l0 -1.27324c0,-0.103992 -0.0846614,-0.188654 -0.188654,-0.188654l-2.03051 0c-0.103992,0 -0.188654,0.0846614 -0.188654,0.18865l0 1.27324c0,0.0443307 -0.0356614,0.0799921 -0.0799921,0.0799921 -0.0443307,0 -0.0799921,-0.0356614 -0.0799921,-0.0799921l0 -1.27324c0,-0.192319 0.156319,-0.348642 0.348642,-0.348642l2.03084 0c0.192319,0 0.348642,0.156323 0.348642,0.348642l0 1.27324c-0.000334646,0.0443307 -0.036,0.0799961 -0.0803268,0.0799961z"/>
    </g>
    <g id="_261965704">
     <path id="_444088040" class="fil2" d="M5.48484 5.71748l-2.37448 0c-0.269311,0 -0.488295,-0.21898 -0.488295,-0.488295 0,-0.100327 0.0816614,-0.181984 0.181984,-0.181984l2.98711 0c0.100327,0 0.181984,0.0816614 0.181984,0.181984 0,0.269315 -0.218984,0.488295 -0.488295,0.488295zm-2.6808 -0.510291c-0.012,0 -0.022,0.01 -0.022,0.022 0,0.180988 0.147323,0.328307 0.328307,0.328307l2.37449 0c0.180988,0 0.328307,-0.147323 0.328307,-0.328307 0,-0.012 -0.01,-0.022 -0.022,-0.022l-2.9871 0z"/>
    </g>
    <g id="_261968272">
     <path id="_444087920" class="fil2" d="M4.91388 5.71748c-0.0443307,0 -0.0799921,-0.0356614 -0.0799921,-0.0799921l0 -0.175319 -1.07259 0 0 0.175319c0,0.0443307 -0.0356614,0.0799921 -0.0799921,0.0799921 -0.0443307,0 -0.0799921,-0.0356614 -0.0799921,-0.0799921l0 -0.255315c0,-0.0443268 0.0356614,-0.0799921 0.0799921,-0.0799921l1.23224 0c0.0443307,0 0.0799921,0.0356654 0.0799921,0.0799921l0 0.255315c0.000338583,0.0443307 -0.0356575,0.0799921 -0.0796575,0.0799921z"/>
    </g>
   </g>
   <g id="_261967816">
    <path id="_444088208" class="fil2" d="M3.01369 4.45225l-0.382969 0c-0.0443307,0 -0.0799921,-0.0356614 -0.0799921,-0.0799921 0,-0.0443307 0.0356614,-0.0799921 0.0799921,-0.0799921l0.382969 0c0.0443307,0 0.0799921,0.0356614 0.0799921,0.0799921 0,0.0443307 -0.0359921,0.0799921 -0.0799921,0.0799921zm-0.853268 0l-0.373634 0c-0.0443307,0 -0.0799961,-0.0356614 -0.0799961,-0.0799921l0 -0.612953c0,-0.0443307 0.0356614,-0.0799921 0.0799921,-0.0799921 0.0443268,0 0.0799921,0.0356614 0.0799921,0.0799921l0 0.532961 0.293646 0c0.0443307,0 0.0799961,0.0356614 0.0799961,0.0799921 0,0.0443307 -0.0356654,0.0799921 -0.0799961,0.0799921zm-0.373634 -1.08325c-0.0443307,0 -0.0799961,-0.0356654 -0.0799961,-0.0799921l0 -0.613291c0,-0.0443268 0.0356614,-0.0799921 0.0799921,-0.0799921 0.0443268,0 0.0799921,0.0356654 0.0799921,0.0799921l0 0.612957c3.93701e-006,0.0443307 -0.0359961,0.0803268 -0.0799882,0.0803268z"/>
   </g>
   <g id="_261970288">
    <path id="_444087848" class="fil2" d="M4.67557 3.66531c-0.0443268,0 -0.0799921,-0.0356654 -0.0799921,-0.0799961l0 -0.568957c0,-0.0443307 0.0356654,-0.0799921 0.0799921,-0.0799921 0.0443307,0 0.0799921,0.0356614 0.0799921,0.0799921l0 0.568957c0,0.0443307 -0.0359961,0.0799961 -0.0799921,0.0799961zm0 -1.08959c-0.0443268,0 -0.0799921,-0.0356654 -0.0799921,-0.0799921l0 -0.488965 -0.251646 0c-0.0443307,0 -0.0799961,-0.0356614 -0.0799961,-0.0799921 0,-0.0443307 0.0356654,-0.0799921 0.0799961,-0.0799921l0.331638 0c0.0443307,0 0.0799921,0.0356614 0.0799921,0.0799921l0 0.568957c0,0.0443268 -0.0359961,0.0799921 -0.0799921,0.0799921zm-0.852602 -0.568957l-0.521291 0c-0.0443307,0 -0.0799961,-0.0356614 -0.0799961,-0.0799921 0,-0.0443307 0.0356654,-0.0799921 0.0799961,-0.0799921l0.521626 0c0.0443307,0 0.0799921,0.0356614 0.0799921,0.0799921 0,0.0443307 -0.0359921,0.0799921 -0.0803268,0.0799921z"/>
   </g>
   <g id="_261964192">
    <path id="_444086792" class="fil2" d="M2.39541 4.68723c-0.173654,0 -0.314976,-0.141323 -0.314976,-0.314976 0,-0.173654 0.141323,-0.314976 0.314976,-0.314976 0.173654,0 0.314976,0.141323 0.314976,0.314976 0.000330709,0.173654 -0.140988,0.314976 -0.314976,0.314976zm0 -0.470299c-0.0856575,0 -0.154988,0.0696654 -0.154988,0.154988 0,0.0856614 0.0696614,0.154988 0.154988,0.154988 0.0853268,0 0.154988,-0.0696614 0.154988,-0.154988 0.000334646,-0.0853228 -0.0693307,-0.154988 -0.154988,-0.154988z"/>
   </g>
   <g id="_261964744">
    <path id="_444087248" class="fil2" d="M1.78679 3.8393c-0.173654,0 -0.314976,-0.141323 -0.314976,-0.314976 0,-0.173654 0.141323,-0.314976 0.314976,-0.314976 0.17365,0 0.314972,0.141323 0.314972,0.314976 0,0.173323 -0.141323,0.314976 -0.314972,0.314976zm0 -0.470295c-0.0856614,0 -0.154988,0.0696614 -0.154988,0.154988 0,0.0856575 0.0696614,0.154984 0.154988,0.154984 0.0856575,0 0.154984,-0.0696614 0.154984,-0.154984 0,-0.0856614 -0.0696614,-0.154988 -0.154984,-0.154988z"/>
   </g>
   <g id="_261964936">
    <path id="_444086888" class="fil2" d="M4.08328 2.26708c-0.187654,0 -0.340307,-0.152657 -0.340307,-0.340307 0,-0.18765 0.152654,-0.340307 0.340307,-0.340307 0.18765,0 0.340303,0.152657 0.340303,0.340307 0.000338583,0.18765 -0.15265,0.340307 -0.340303,0.340307zm0 -0.520626c-0.0993268,0 -0.180323,0.0809921 -0.180323,0.180319 0,0.0993268 0.0809961,0.180319 0.180323,0.180319 0.0993228,0 0.180319,-0.0809921 0.180319,-0.180319 0,-0.0993268 -0.0806614,-0.180319 -0.180319,-0.180319z"/>
   </g>
   <g id="_261965152">
    <path id="_444087296" class="fil2" d="M4.67557 3.09635c-0.18765,0 -0.340303,-0.152657 -0.340303,-0.340307 0,-0.18765 0.152654,-0.340307 0.340303,-0.340307 0.187654,0 0.340307,0.152657 0.340307,0.340307 0,0.18765 -0.152654,0.340307 -0.340307,0.340307zm0 -0.52063c-0.0993268,0 -0.180319,0.0809921 -0.180319,0.180319 0,0.0993268 0.0809921,0.180323 0.180319,0.180323 0.0993268,0 0.180319,-0.0809961 0.180319,-0.180323 0,-0.0993268 -0.0809921,-0.180319 -0.180319,-0.180319z"/>
   </g>
  </g>
  <path class="fil3" d="M2.97503 2.4424c0,-0.0443268 0.0356654,-0.0799921 0.0799961,-0.0799921 0.0559921,0 0.101657,-0.0456654 0.101657,-0.101657 0,-0.0559961 -0.0456654,-0.101657 -0.101657,-0.101657 -0.0443307,0 -0.0799961,-0.0356654 -0.0799961,-0.0799961 0,-0.0443268 0.0356654,-0.0799921 0.0799961,-0.0799921 0.144323,0 0.261646,0.117327 0.261646,0.26165 -3.93701e-006,0.144315 -0.117327,0.261642 -0.261646,0.261642 -0.0443307,0 -0.0799961,-0.0356654 -0.0799961,-0.0799961zm0.0799961 0.153323c0.18465,0 0.334972,-0.150323 0.334972,-0.334972 0,-0.184654 -0.150323,-0.334976 -0.334972,-0.334976 -0.0186654,0 -0.0376654,0.00166535 -0.0559961,0.00466535 -0.0376614,0.00633465 -0.0743268,-0.0146654 -0.0879961,-0.0503268 -0.0573268,-0.148988 -0.20265,-0.24898 -0.362303,-0.24898 -0.005,0 -0.0106654,0 -0.0166654,0.000330709 -0.0383307,0.00166535 -0.0726614,-0.0243307 -0.0813268,-0.0619921 -0.0406654,-0.176657 -0.196319,-0.300315 -0.378307,-0.300315 -0.209319,0 -0.383303,0.170319 -0.387972,0.379638 -0.000665354,0.0389961 -0.0296654,0.0716614 -0.0683268,0.0773268 -0.168988,0.0246654 -0.303646,0.160323 -0.327311,0.329642 -0.00499606,0.0356614 -0.0333307,0.0636614 -0.0689921,0.0683268 -0.117657,0.015 -0.206315,0.115992 -0.206315,0.234654 0,0.130654 0.106327,0.23698 0.23698,0.23698l0.536291 0 1.26824 0zm-1.53522 -0.50763c-0.00533465,0.0396654 -0.0396654,0.0686614 -0.0789961,0.0686614 -0.00366535,0 -0.00733465,-0.000330709 -0.0113307,-0.000665354 -0.0436614,-0.006 -0.0743268,-0.0466614 -0.0679961,-0.0903268 0.019,-0.137323 0.128323,-0.246984 0.265311,-0.26698 0.0436654,-0.00633465 0.0843268,0.0239961 0.0906614,0.0676614 0.00633465,0.0436614 -0.0239961,0.0843268 -0.0676614,0.0906575 -0.0673268,0.01 -0.120657,0.0636654 -0.129988,0.130992z"/>
  <path class="fil4" d="M3.90306 1.93291c0.00325197,0.0965079 0.0829449,0.174185 0.18022,0.174185 0.0993228,0 0.180319,-0.0809921 0.180319,-0.180319 0,-0.0993268 -0.0806614,-0.180319 -0.180319,-0.180319 -0.0972677,0 -0.176957,0.0776693 -0.18022,0.174165 0.000153543,0.0020315 0.000232283,0.00408268 0.000232283,0.00615354 0,0.00206299 -7.87402e-005,0.00411024 -0.000232283,0.00613386z"/>
  <path class="fil4" d="M4.67557 2.57572c-0.0993268,0 -0.180319,0.0809921 -0.180319,0.180319 0,0.0993268 0.0809921,0.180323 0.180319,0.180323 0.0993268,0 0.180319,-0.0809961 0.180319,-0.180323 0,-0.0993268 -0.0809921,-0.180319 -0.180319,-0.180319z"/>
  <path class="fil4" d="M2.5504 4.37192c0.000334646,-0.0853228 -0.0693307,-0.154988 -0.154988,-0.154988 -0.0856575,0 -0.154988,0.0696654 -0.154988,0.154988 0,0.000110236 0,0.000224409 0,0.000334646 0.000181102,0.0855079 0.0697717,0.154654 0.154988,0.154654 0.0853268,0 0.154988,-0.0696614 0.154988,-0.154988z"/>
  <path class="fil4" d="M1.78679 3.67897c0.0856575,0 0.154984,-0.0696614 0.154984,-0.154984 0,-0.0856614 -0.0696614,-0.154988 -0.154984,-0.154988 -0.0856614,0 -0.154988,0.0696614 -0.154988,0.154988 0,0.0856575 0.0696614,0.154984 0.154988,0.154984z"/>
  <path class="fil5" d="M3.09369 3.85396l-3.93701e-006 0.518295 3.93701e-006 0.674949 2.40782 0 0 -1.19324c0,-0.103992 -0.0846614,-0.188654 -0.188654,-0.188654l-0.637287 0 -1.39322 0c-0.103992,0 -0.188654,0.0846614 -0.188654,0.18865z"/>
 </g>
</svg>
