<?xml version="1.0" encoding="UTF-8"?>
<!DOCTYPE svg PUBLIC "-//W3C//DTD SVG 1.1//EN" "http://www.w3.org/Graphics/SVG/1.1/DTD/svg11.dtd">
<!-- Creator: CorelDRAW -->
<svg xmlns="http://www.w3.org/2000/svg" xml:space="preserve" width="6.82666in" height="6.82666in" style="shape-rendering:geometricPrecision; text-rendering:geometricPrecision; image-rendering:optimizeQuality; fill-rule:evenodd; clip-rule:evenodd"
viewBox="0 0 6.82666 6.82666"
 xmlns:xlink="http://www.w3.org/1999/xlink">
 <defs>
  <style type="text/css">
   <![CDATA[
    .fil0 {fill:none}
    .fil1 {fill:#194D80}
    .fil2 {fill:#333333}
    .fil3 {fill:#98EDFE}
   ]]>
  </style>
 </defs>
 <rect class="fil0" width="6.82666" height="6.82666"/>
 <g id="Layer_x0020_1">
  <metadata id="CorelCorpID_0Corel-Layer"/>
  <path class="fil1" d="M2.85237 1.36949c-0.105378,0 -0.191319,-0.0859409 -0.191319,-0.191319l0 -0.191319 1.50456 0 0 0.191319c0,0.105378 -0.0859409,0.191319 -0.191319,0.191319l-1.12192 0zm0.70028 -0.191319c0,-0.0296102 -0.0237126,-0.0533307 -0.0533268,-0.0533307l-0.171984 3.93701e-006c-0.0296102,0 -0.0533268,0.0237165 -0.0533268,0.0533268 0,0.0296102 0.0237165,0.0533268 0.0533268,0.0533268l0.171984 0c0.0296102,0 0.0533268,-0.0237165 0.0533268,-0.0533268zm1.29124 4.04369l0 0.217984c0,0.22052 -0.179429,0.399969 -0.399969,0.399969l-2.06151 0c-0.22052,0 -0.399969,-0.179429 -0.399969,-0.399969l0 -0.217984 2.86145 0zm-0.732945 0.308972c0,-0.0296102 -0.0237165,-0.0533268 -0.0533268,-0.0533268l-0.171988 3.93701e-006c-0.0296063,0 -0.0533268,0.0237165 -0.0533268,0.0533268 0,0.0296102 0.0237165,0.0533268 0.0533268,0.0533268l0.171988 0c0.0296142,0 0.0533268,-0.0237205 0.0533268,-0.0533307zm-0.558291 0c0,-0.0296102 -0.0237165,-0.0533268 -0.0533268,-0.0533268l-0.171984 3.93701e-006c-0.0296102,0 -0.0533268,0.0237165 -0.0533268,0.0533268 0,0.0296102 0.0237165,0.0533268 0.0533268,0.0533268l0.171984 0c0.0296142,0 0.0533268,-0.0237205 0.0533268,-0.0533307zm-0.558287 0c0,-0.0296063 -0.0237165,-0.0533268 -0.0533268,-0.0533268l-0.171988 3.93701e-006c-0.0296102,0 -0.0533268,0.0237165 -0.0533268,0.0533268 0,0.0296102 0.0237165,0.0533268 0.0533268,0.0533268l0.171988 0c0.0296102,0 0.0533268,-0.0237205 0.0533268,-0.0533307z"/>
  <g id="_444089672">
   <g id="_261970024">
    <path id="_444090920" class="fil2" d="M4.44425 5.97314l-2.06184 0c-0.293976,0 -0.533291,-0.239315 -0.533291,-0.533291l0 -4.05303c0,-0.293976 0.239315,-0.533291 0.533291,-0.533291l2.06151 0c0.29398,0 0.533291,0.239315 0.533291,0.533291l0 4.05303c0.000334646,0.293976 -0.23898,0.533291 -0.532957,0.533291zm-2.06184 -4.95962c-0.205984,0 -0.373303,0.167654 -0.373303,0.373303l-3.93701e-006 4.05303c0,0.205984 0.167654,0.373303 0.373303,0.373303l2.06151 0c0.205984,0 0.373303,-0.167654 0.373303,-0.373303l3.93701e-006 -4.05303c0,-0.205984 -0.167654,-0.373303 -0.373303,-0.373303l-2.06151 0z"/>
   </g>
   <g id="_261963880">
    <path id="_444089984" class="fil2" d="M4.89755 5.24853l-2.96844 0c-0.0443307,0 -0.0799921,-0.0356654 -0.0799921,-0.0799921 0,-0.0443307 0.0356614,-0.0799961 0.0799921,-0.0799961l2.96844 0c0.0443307,0 0.0799921,0.0356614 0.0799921,0.0799921 0,0.0443307 -0.0356614,0.0799961 -0.0799921,0.0799961z"/>
   </g>
   <g id="_260629920">
    <path id="_444090440" class="fil2" d="M2.94104 5.61083l-0.171988 0c-0.0443307,0 -0.0799921,-0.0356614 -0.0799921,-0.0799921 0,-0.0443268 0.0356614,-0.0799921 0.0799921,-0.0799921l0.171988 -3.93701e-006c0.0443268,0 0.0799921,0.0356654 0.0799921,0.0799921 0,0.0443307 -0.0356654,0.0799961 -0.0799921,0.0799961z"/>
   </g>
   <g id="_517687304">
    <path id="_444090272" class="fil2" d="M3.49932 5.61083l-0.171984 0c-0.0443307,0 -0.0799921,-0.0356614 -0.0799921,-0.0799921 0,-0.0443268 0.0356614,-0.0799921 0.0799921,-0.0799921l0.171984 -3.93701e-006c0.0443307,0 0.0799921,0.0356654 0.0799921,0.0799921 0,0.0443307 -0.0356614,0.0799961 -0.0799921,0.0799961z"/>
   </g>
   <g id="_517686968">
    <path id="_444090200" class="fil2" d="M4.05761 5.61083l-0.171988 0c-0.0443268,0 -0.0799921,-0.0356614 -0.0799921,-0.0799921 0,-0.0443268 0.0356654,-0.0799921 0.0799921,-0.0799921l0.171988 -3.93701e-006c0.0443307,0 0.0799921,0.0356654 0.0799921,0.0799921 0,0.0443307 -0.0356614,0.0799961 -0.0799921,0.0799961z"/>
   </g>
   <g id="_517687640">
    <path id="_444090392" class="fil2" d="M3.97429 1.50281l-1.12191 0c-0.178988,0 -0.324642,-0.145654 -0.324642,-0.324642l0 -0.24465c0,-0.0443268 0.0356614,-0.0799921 0.0799921,-0.0799921 0.0443268,0 0.0799921,0.0356654 0.0799921,0.0799921l0 0.24465c0,0.0906575 0.0739921,0.164654 0.164654,0.164654l1.12192 0c0.0906614,0 0.164654,-0.0739921 0.164654,-0.164654l0 -0.24465c0,-0.0443268 0.0356654,-0.0799921 0.0799961,-0.0799921 0.0443268,0 0.0799921,0.0356654 0.0799921,0.0799921l0 0.24465c0,0.178988 -0.145654,0.324642 -0.324642,0.324642z"/>
   </g>
   <g id="_517687376">
    <path id="_444089504" class="fil2" d="M3.49932 1.25816l-0.171984 0c-0.0443307,0 -0.0799921,-0.0356614 -0.0799921,-0.0799921 0,-0.0443268 0.0356614,-0.0799921 0.0799921,-0.0799921l0.171984 -3.93701e-006c0.0443307,0 0.0799921,0.0356654 0.0799921,0.0799961 0,0.0443268 -0.0356614,0.0799921 -0.0799921,0.0799921z"/>
   </g>
   <g>
    <g id="_517687592">
     <path id="_444089480" class="fil2" d="M3.22501 4.07795c-0.007,0 -0.0136654,-0.001 -0.0206654,-0.00266535 -0.0426614,-0.0113346 -0.0679921,-0.0553307 -0.0566614,-0.0979921l0.376303 -1.40489c0.0113307,-0.0426654 0.0553307,-0.0679921 0.0979921,-0.0566614 0.0426654,0.0113307 0.0679921,0.0553307 0.0566614,0.0979921l-0.376303 1.40489c-0.00966535,0.036 -0.0419961,0.0593307 -0.0773268,0.0593307z"/>
    </g>
    <g>
     <g id="_517687352">
      <path id="_444089720" class="fil2" d="M2.93104 3.79797c-0.0203307,0 -0.0409961,-0.00766535 -0.0566614,-0.0233307l-0.444303 -0.444634c-0.0149961,-0.015 -0.0233307,-0.0353307 -0.0233307,-0.0566654 0,-0.0213307 0.00833465,-0.0416614 0.0233307,-0.0566614l0.444303 -0.444299c0.0313307,-0.0313307 0.0819921,-0.0313307 0.112988,0 0.0313346,0.0313307 0.0313346,0.0819961 0,0.112992l-0.387638 0.387969 0.387972 0.387972c0.0313307,0.0313346 0.0313307,0.0819961 0,0.112992 -0.016,0.0156614 -0.0363307,0.0236654 -0.0566614,0.0236654z"/>
     </g>
     <g id="_517687448">
      <path id="_444089312" class="fil2" d="M3.89563 3.79797c-0.0203307,0 -0.0409961,-0.00766535 -0.0566614,-0.0233307 -0.0313307,-0.0313346 -0.0313307,-0.0819961 0,-0.112992l0.387972 -0.388307 -0.387638 -0.387638c-0.0313346,-0.0313307 -0.0313346,-0.0819921 0,-0.112988 0.0313307,-0.0313346 0.0819921,-0.0313346 0.112988,0l0.444303 0.444295c0.0149961,0.015 0.0233307,0.0353307 0.0233307,0.0566614 0,0.0213346 -0.00833465,0.0416654 -0.0233307,0.0566654l-0.444303 0.443969c-0.0156654,0.0156614 -0.0359961,0.0236654 -0.0566614,0.0236654z"/>
     </g>
    </g>
   </g>
  </g>
  <path class="fil3" d="M3.89563 3.79797c-0.0203307,0 -0.0409961,-0.00766535 -0.0566614,-0.0233307 -0.0313307,-0.0313346 -0.0313307,-0.0819961 0,-0.112992l0.387972 -0.388307 -0.387638 -0.387638c-0.0313346,-0.0313307 -0.0313346,-0.0819921 0,-0.112988 0.0313307,-0.0313346 0.0819921,-0.0313346 0.112988,0l0.444303 0.444295c0.0149961,0.015 0.0233307,0.0353307 0.0233307,0.0566614 0,0.0213346 -0.00833465,0.0416654 -0.0233307,0.0566654l-0.444303 0.443969c-0.0156654,0.0156614 -0.0359961,0.0236654 -0.0566614,0.0236654zm-1.88652 1.29057l2.80812 0 3.93701e-006 -3.70172c0,-0.205984 -0.167654,-0.373303 -0.373303,-0.373303l-0.144992 0 0 0.164654c0,0.178988 -0.145654,0.324642 -0.324642,0.324642l-1.12191 0c-0.178988,0 -0.324642,-0.145654 -0.324642,-0.324642l0 -0.164654 -0.145323 0c-0.205984,0 -0.373303,0.167654 -0.373303,0.373303l-3.93701e-006 3.70172zm1.29324 -1.06992c-0.00966535,0.036 -0.0419961,0.0593307 -0.0773268,0.0593307 -0.007,0 -0.0136654,-0.001 -0.0206654,-0.00266535 -0.0426614,-0.0113346 -0.0679921,-0.0553307 -0.0566614,-0.0979921l0.376303 -1.40489c0.0113307,-0.0426654 0.0553307,-0.0679921 0.0979921,-0.0566614 0.0426654,0.0113307 0.0679921,0.0553307 0.0566614,0.0979921l-0.376303 1.40489zm-0.371303 -0.220646c-0.0203307,0 -0.0409961,-0.00766535 -0.0566614,-0.0233307l-0.444303 -0.444634c-0.0149961,-0.015 -0.0233307,-0.0353307 -0.0233307,-0.0566654 0,-0.0213307 0.00833465,-0.0416614 0.0233307,-0.0566614l0.444303 -0.444299c0.0313307,-0.0313307 0.0819921,-0.0313307 0.112988,0 0.0313346,0.0313307 0.0313346,0.0819961 0,0.112992l-0.387638 0.387969 0.387972 0.387972c0.0313307,0.0313346 0.0313307,0.0819961 0,0.112992 -0.016,0.0156614 -0.0363307,0.0236654 -0.0566614,0.0236654z"/>
 </g>
</svg>
