<?xml version="1.0" encoding="UTF-8"?>
<!DOCTYPE svg PUBLIC "-//W3C//DTD SVG 1.1//EN" "http://www.w3.org/Graphics/SVG/1.1/DTD/svg11.dtd">
<!-- Creator: CorelDRAW -->
<svg xmlns="http://www.w3.org/2000/svg" xml:space="preserve" width="6.82666in" height="6.82666in" style="shape-rendering:geometricPrecision; text-rendering:geometricPrecision; image-rendering:optimizeQuality; fill-rule:evenodd; clip-rule:evenodd"
viewBox="0 0 6.82666 6.82666"
 xmlns:xlink="http://www.w3.org/1999/xlink">
 <defs>
  <style type="text/css">
   <![CDATA[
    .fil0 {fill:none}
    .fil2 {fill:#194D80}
    .fil4 {fill:#333333}
    .fil3 {fill:#456F98}
    .fil6 {fill:#5AB4FF}
    .fil7 {fill:#BE5AB9}
    .fil5 {fill:#E6E6E6}
    .fil1 {fill:#F73C9A}
    .fil8 {fill:#FFC305}
   ]]>
  </style>
 </defs>
 <rect class="fil0" width="6.82666" height="6.82666"/>
 <g id="Layer_x0020_1">
  <metadata id="CorelCorpID_0Corel-Layer"/>
  <path class="fil1" d="M4.7293 2.01927c-0.0287244,0 -0.0574488,0.00120079 -0.0860748,0.00362992l-0.0289173 0.00245276 0 -0.112075c0,-0.0413819 0.0346142,-0.0759961 0.0759961,-0.0759961l0.47063 0c0.0413858,0 0.0759961,0.0346102 0.0759961,0.0759961l0 0.243039 -0.0391969 -0.020874c-0.144484,-0.0769331 -0.304823,-0.116173 -0.468433,-0.116173zm-3.13976 0.137071l0 -0.243063c0,-0.0413819 0.0346142,-0.0759961 0.0759961,-0.0759961l0.470965 -3.93701e-006c0.0413819,0 0.0759961,0.0346142 0.0759961,0.0759961l0 0.111717 -0.0289134 -0.00244488c-0.0285157,-0.00240945 -0.0571299,-0.00361024 -0.085748,-0.00361024 -0.16389,0 -0.324406,0.0392835 -0.469075,0.11648l-0.0392205 0.0209252z"/>
  <path class="fil2" d="M3.73072 3.01786c0,0.153878 0.0354606,0.305972 0.103878,0.443772l0.0108858 0.0219291 -0.0209213 0.0127165c-0.15589,0.0947638 -0.260429,0.255217 -0.283618,0.436236l-0.00298031 0.0232756 -0.248748 3.93701e-006 -0.00297638 -0.0232835c-0.0231378,-0.181016 -0.127752,-0.341795 -0.28365,-0.436563l-0.0209173 -0.0127165 0.0108819 -0.0219291c0.0684764,-0.137933 0.103878,-0.289736 0.103878,-0.443776 0,-0.266831 -0.103831,-0.517421 -0.2925,-0.706091 -0.0452953,-0.0452913 -0.0947835,-0.0862835 -0.147827,-0.122197l-0.0378898 -0.0256496 0.0409961 -0.0203228c0.222173,-0.11011 0.509449,-0.121331 0.753862,-0.121331 0.244681,0 0.532425,0.0112441 0.754732,0.12176l0.0409016 0.0203346 -0.037815 0.0256181c-0.0529843,0.0359016 -0.102417,0.0768701 -0.147673,0.122122 -0.188559,0.188559 -0.2925,0.439433 -0.2925,0.706091zm-0.135988 -0.617957c0.0294803,0 0.0529921,-0.0239252 0.0529921,-0.0533268 0,-0.0296063 -0.0237205,-0.0533268 -0.0533268,-0.0533268l-0.362311 0c-0.0296063,0 -0.0533268,0.0237205 -0.0533268,0.0533268 0,0.0296102 0.0237165,0.0533268 0.0533268,0.0533268l0.362646 0zm2.23617 2.18738c0.0232913,0.217701 0.00466535,0.453276 -0.0966024,0.650906 -0.0757992,0.147921 -0.204909,0.279457 -0.372669,0.313933 -0.119925,0.0246496 -0.235012,-0.00462992 -0.331909,-0.0789567 -0.129709,-0.0994921 -0.203646,-0.261339 -0.241969,-0.416394l-0.00858661 -0.0347323 1.04782 -0.471323 0.00391339 0.0365669zm-3.78343 0.435492l-0.00840551 0.034c-0.038311,0.154957 -0.11222,0.317094 -0.241996,0.416409 -0.096748,0.0740394 -0.212217,0.103567 -0.331886,0.078937 -0.167965,-0.0345709 -0.296846,-0.165768 -0.372669,-0.313949 -0.101079,-0.197528 -0.119807,-0.432516 -0.0966693,-0.650087l0.00388976 -0.0365984 1.04774 0.471287z"/>
  <path class="fil3" d="M2.20952 4.36723l-0.136087 0.550512 -1.05644 -0.475205 0.168661 -1.01012 0.0370315 0.067c0.0455039,0.0823307 0.102563,0.157693 0.169067,0.224201 0.180591,0.180591 0.418709,0.283717 0.673941,0.291843l0.0244961 0.000783465 0.00128346 0.0244724c0.00598819,0.114189 0.044378,0.223543 0.110898,0.316524l0.00714961 0.00998819zm2.55197 -0.351433c0.255307,-0.00781102 0.493291,-0.111228 0.673906,-0.291843 0.0664134,-0.0664134 0.123386,-0.141681 0.168846,-0.223886l0.0370354 -0.0669646 0.168413 1.00868 -1.0565 0.475224 -0.135843 -0.549543 0.00715748 -0.00999213c0.0665709,-0.092937 0.105055,-0.202268 0.111169,-0.316445l0.00131102 -0.0244764 0.0245 -0.000751969z"/>
  <path class="fil2" d="M3.83737 3.01753c0,-0.427492 0.30539,-0.808394 0.730677,-0.877043 0.00173228,-0.000279528 0.00345669,-0.000594488 0.0051811,-0.000933071 0.0512165,-0.0101339 0.103598,-0.013622 0.15574,-0.013622 0.491866,0 0.891768,0.40011 0.891594,0.891945 -0.000173228,0.491638 -0.399886,0.891591 -0.891598,0.891591 -0.0152362,0 -0.0304882,-0.000248031 -0.0457087,-0.00103543 -0.0152283,-0.000787402 -0.0304764,0.00515748 -0.0410472,0.0161693 -0.0107283,0.0111732 -0.0158819,0.0263386 -0.0146535,0.0417362 0.0011378,0.0142283 0.00175197,0.0285157 0.00175197,0.0427874 0,0.272028 -0.221268,0.493295 -0.493295,0.493295 -0.272031,0 -0.493295,-0.221264 -0.493295,-0.493295 0,-0.19726 0.116748,-0.37615 0.298535,-0.453504 0.0140945,-0.006 0.0250551,-0.0178622 0.0296732,-0.0324921 0.00465354,-0.0147323 0.00304331,-0.0308543 -0.00501575,-0.0441063 -0.0846024,-0.139071 -0.128539,-0.298756 -0.128539,-0.461492zm0.298642 0.660283c-0.182598,0 -0.331307,0.148709 -0.331307,0.331307 0,0.182602 0.148709,0.331307 0.331307,0.331307 0.182598,0 0.331311,-0.148701 0.331311,-0.331303 0,-0.182602 -0.148709,-0.331311 -0.331311,-0.331311zm0.317311 -0.226984c0,0.139268 0.113378,0.252646 0.252646,0.252646 0.139268,0 0.25265,-0.113374 0.25265,-0.252646 0,-0.139272 -0.113378,-0.252646 -0.25265,-0.252646 -0.139268,0 -0.252646,0.113378 -0.252646,0.252646zm0.0256654 -0.442299c0,-0.139272 -0.113378,-0.252646 -0.25265,-0.252646 -0.139268,0 -0.252646,0.113378 -0.252646,0.252646 0,0.139272 0.113374,0.25265 0.252646,0.25265 0.139272,0 0.25265,-0.113378 0.25265,-0.25265zm0.22698 -0.189984c0.139268,0 0.25265,-0.113378 0.25265,-0.252646 0,-0.139272 -0.113378,-0.25265 -0.25265,-0.25265 -0.139272,0 -0.252646,0.113378 -0.252646,0.25265 0,0.139268 0.113378,0.252646 0.252646,0.252646zm0.47963 0.442634c0.139094,0 0.25265,-0.113535 0.25265,-0.25265 0,-0.139272 -0.113378,-0.252646 -0.25265,-0.252646 -0.139268,0 -0.252646,0.113378 -0.252646,0.252646 0,0.139272 0.113374,0.25265 0.252646,0.25265zm-3.04484 0.647031c-0.0142953,0.000614173 -0.0286142,0.000913386 -0.0429213,0.000913386 -0.491681,0 -0.891598,-0.399917 -0.891598,-0.891598 0,-0.491681 0.399917,-0.891598 0.891598,-0.891598 0.0521457,0 0.104551,0.00344488 0.155768,0.013626 0.0017126,0.00034252 0.00343307,0.000649606 0.00515748,0.000929134 0.425287,0.0686496 0.730673,0.449551 0.730673,0.877043 0,0.162756 -0.0444488,0.322087 -0.128484,0.461406 -0.00801181,0.0132835 -0.00978346,0.0293858 -0.00509055,0.0441378 0.00466142,0.0146457 0.0156024,0.0265315 0.0297205,0.0325591 0.181567,0.0775118 0.298508,0.256283 0.298508,0.453492 0,0.272031 -0.221264,0.493295 -0.493295,0.493295 -0.272031,0 -0.493295,-0.221264 -0.493295,-0.493295 0,-0.0143898 0.000456693,-0.0287835 0.00177953,-0.0431142 0.00140551,-0.0152441 -0.00394094,-0.0303268 -0.0145906,-0.041315 -0.0101575,-0.0104764 -0.0239528,-0.0162283 -0.0385197,-0.0162283 -0.00185433,0 -0.00363386,-6.69291e-005 -0.00540945,-0.000251969zm0.0494055 -1.41564l-0.254646 0c-0.0727677,0 -0.131992,0.0592087 -0.131992,0.131992l0 0.168988 -0.168988 0c-0.0727677,0 -0.131988,0.0592047 -0.131988,0.131988l0 0.254646c0,0.0727677 0.0592008,0.131996 0.131988,0.131992l0.168988 -3.93701e-006 0 0.168988c0,0.0727677 0.0592087,0.131988 0.131992,0.131988l0.254646 0c0.0727835,0 0.131988,-0.0592205 0.131988,-0.131984l0 -0.168988 0.168988 0c0.0727677,0 0.131992,-0.0592047 0.131992,-0.131992l0 -0.254646c0,-0.0727677 -0.0592087,-0.131988 -0.131992,-0.131988l-0.168988 0 0 -0.168988c0,-0.0727677 -0.0592047,-0.131992 -0.131988,-0.131992zm0.169319 1.51655c0,0.182602 0.148709,0.331307 0.331311,0.331307 0.182598,0 0.331307,-0.148705 0.331307,-0.331303 0,-0.182598 -0.148705,-0.331311 -0.331307,-0.331311 -0.182598,0 -0.331311,0.148705 -0.331311,0.331307z"/>
  <g id="_444091904">
   <g>
    <g id="_517688408">
     <path id="_438219368" class="fil4" d="M5.1856 3.28784c-0.153988,0 -0.279311,-0.125323 -0.279311,-0.279315 0,-0.153988 0.125323,-0.279311 0.279311,-0.279311 0.153992,0 0.279315,0.125323 0.279315,0.279311 0,0.153992 -0.125661,0.279315 -0.279315,0.279315zm0 -0.398638c-0.0656614,0 -0.119323,0.0533307 -0.119323,0.119323 0,0.0659961 0.0533307,0.119323 0.119323,0.119323 0.0659961,0 0.119327,-0.0533268 0.119327,-0.119323 0,-0.0659921 -0.0536654,-0.119323 -0.119327,-0.119323z"/>
    </g>
    <g id="_517688432">
     <path id="_438219656" class="fil4" d="M4.22634 3.28784c-0.153988,0 -0.279311,-0.125323 -0.279311,-0.279315 0,-0.153988 0.125323,-0.279311 0.279311,-0.279311 0.153992,0 0.279315,0.125323 0.279315,0.279311 0,0.153992 -0.125327,0.279315 -0.279315,0.279315zm0 -0.398638c-0.0656614,0 -0.119323,0.0533307 -0.119323,0.119323 0,0.0659961 0.0533307,0.119323 0.119323,0.119323 0.0659961,0 0.119327,-0.0533268 0.119327,-0.119323 0,-0.0659921 -0.0533307,-0.119323 -0.119327,-0.119323z"/>
    </g>
    <g id="_517687976">
     <path id="_438219824" class="fil4" d="M4.70597 2.84521c-0.153988,0 -0.279311,-0.125323 -0.279311,-0.279311 0,-0.153992 0.125323,-0.279315 0.279311,-0.279315 0.153992,0 0.279315,0.125323 0.279315,0.279315 0,0.153984 -0.125327,0.279311 -0.279315,0.279311zm0 -0.398307c-0.0656614,0 -0.119323,0.0533307 -0.119323,0.119327 0,0.0656614 0.0533307,0.119323 0.119323,0.119323 0.0659961,0 0.119327,-0.0533307 0.119327,-0.119323 0,-0.0659921 -0.0536654,-0.119327 -0.119327,-0.119327z"/>
    </g>
    <g id="_517688336">
     <path id="_438219896" class="fil4" d="M4.70597 3.73014c-0.153988,0 -0.279311,-0.125323 -0.279311,-0.279311 0,-0.153988 0.125323,-0.279311 0.279311,-0.279311 0.153992,0 0.279315,0.125323 0.279315,0.279311 0,0.153988 -0.125327,0.279311 -0.279315,0.279311zm0 -0.398299c-0.0656614,0 -0.119323,0.0533268 -0.119323,0.119323 0,0.0656614 0.0533307,0.119323 0.119323,0.119323 0.0659961,0 0.119327,-0.0533268 0.119327,-0.119323 0,-0.0659961 -0.0536654,-0.119323 -0.119327,-0.119323z"/>
    </g>
    <g id="_517687832">
     <path id="_438219488" class="fil4" d="M4.13602 4.63574c-0.345642,0 -0.626618,-0.280976 -0.626618,-0.626618 0,-0.221315 0.115992,-0.422969 0.301311,-0.535626 -0.0699961,-0.140988 -0.106657,-0.296976 -0.106657,-0.45563 0,-0.273646 0.106657,-0.531295 0.300311,-0.724945 0.19365,-0.19365 0.450965,-0.300311 0.724941,-0.300311 0.27365,0 0.531295,0.106657 0.724945,0.300311 0.193654,0.19365 0.300311,0.450969 0.300311,0.724945 0,0.273646 -0.106657,0.531291 -0.300311,0.724945 -0.185984,0.185984 -0.43063,0.291646 -0.691945,0.299642 -0.0176654,0.329976 -0.291646,0.593287 -0.626287,0.593287zm0.592957 -2.48314c-0.476965,0 -0.864933,0.387972 -0.864933,0.864933 0,0.158323 0.0429961,0.312976 0.124654,0.447634 0.012,0.0196654 0.0146654,0.0436614 0.00766535,0.0659961 -0.007,0.022 -0.0233307,0.0399961 -0.0446614,0.0489961 -0.171654,0.0736614 -0.282311,0.242315 -0.282311,0.428969 0,0.257311 0.209315,0.46663 0.46663,0.46663 0.257311,0 0.46663,-0.209319 0.46663,-0.46663 0,-0.0133346 -0.000669291,-0.027 -0.00166535,-0.0406614 -0.002,-0.023 0.006,-0.0456654 0.0219961,-0.0623307 0.016,-0.0166614 0.0386654,-0.0256614 0.0616614,-0.0243307 0.0146654,0.000669291 0.0296654,0.001 0.0443307,0.001 0.476965,0 0.864933,-0.387972 0.864933,-0.864933 0.000334646,-0.476969 -0.387634,-0.865272 -0.864929,-0.865272z"/>
    </g>
    <g id="_517688288">
     <path id="_438218720" class="fil4" d="M4.13602 4.36709c-0.197315,0 -0.357972,-0.16065 -0.357972,-0.357972 0,-0.197319 0.160654,-0.357972 0.357972,-0.357972l0 0c0.197319,0 0.357976,0.160654 0.357976,0.357976 0,0.197319 -0.160657,0.357969 -0.357976,0.357969zm0 -0.555957c-0.109327,0 -0.197984,0.0886575 -0.197984,0.197984 0,0.109327 0.0886575,0.197984 0.197984,0.197984 0.109327,0 0.197988,-0.0886575 0.197988,-0.197984 0,-0.108988 -0.0886654,-0.197984 -0.197988,-0.197984z"/>
    </g>
    <g id="_517687952">
     <path id="_438218624" class="fil4" d="M2.6908 4.63574c-0.334307,0 -0.608622,-0.263311 -0.625953,-0.593622 -0.26165,-0.00833071 -0.506295,-0.113988 -0.691945,-0.299642 -0.193654,-0.19365 -0.300311,-0.450969 -0.300311,-0.724945 0,-0.273646 0.106654,-0.531295 0.300311,-0.724945 0.19365,-0.19365 0.450965,-0.300311 0.724941,-0.300311 0.27365,0 0.531295,0.106657 0.724945,0.300311 0.19365,0.19365 0.300311,0.450969 0.300311,0.724945 0,0.158988 -0.0366654,0.314642 -0.106657,0.455634 0.185319,0.112654 0.301311,0.314642 0.301311,0.535622 -0.000334646,0.345976 -0.281646,0.626953 -0.626953,0.626953zm-0.544626 -0.753941c0.0216654,0 0.0423307,0.00866535 0.0576654,0.0243346 0.0159961,0.0166614 0.0239961,0.0393307 0.0219961,0.0623268 -0.00133465,0.0136654 -0.00166535,0.0273307 -0.00166535,0.0406614 0,0.257315 0.209319,0.46663 0.46663,0.46663 0.257315,0 0.46663,-0.209315 0.46663,-0.46663 0,-0.186654 -0.110988,-0.354972 -0.282311,-0.428969 -0.0213307,-0.009 -0.0376614,-0.0269961 -0.0446614,-0.0489961 -0.007,-0.022 -0.00433465,-0.0459961 0.00766535,-0.0659961 0.0816575,-0.134654 0.124654,-0.289307 0.124654,-0.447634 0,-0.476965 -0.387972,-0.864933 -0.864933,-0.864933 -0.476965,0 -0.864933,0.387972 -0.864933,0.864933 0,0.476965 0.387972,0.864933 0.864933,0.864933 0.0146654,0 0.0296654,-0.000330709 0.0443307,-0.001 0.00133465,0.000338583 0.00266535,0.000338583 0.004,0.000338583z"/>
    </g>
    <g id="_517688504">
     <path id="_438218504" class="fil4" d="M2.6908 4.36709c-0.197319,0 -0.357976,-0.16065 -0.357976,-0.357972 0,-0.197319 0.160657,-0.357972 0.357976,-0.357972 0.197315,0 0.357972,0.160654 0.357972,0.357976 0,0.197319 -0.160657,0.357969 -0.357972,0.357969zm0 -0.555957c-0.109327,0 -0.197988,0.0886575 -0.197988,0.197984 0,0.109327 0.0886614,0.197984 0.197988,0.197984 0.109327,0 0.197984,-0.0886575 0.197984,-0.197984 0,-0.108988 -0.0889921,-0.197984 -0.197984,-0.197984z"/>
    </g>
    <g id="_517688240">
     <path id="_438218960" class="fil4" d="M2.19017 3.63981l-0.254646 0c-0.0876614,0 -0.158657,-0.0713268 -0.158657,-0.158654l0 -0.142323 -0.142323 3.93701e-006c-0.0876614,0 -0.158654,-0.0713268 -0.158654,-0.158657l0 -0.254646c0,-0.0876614 0.0713268,-0.158654 0.158654,-0.158654l0.142323 0 0 -0.142323c0,-0.0876614 0.0713307,-0.158657 0.158657,-0.158657l0.254646 0c0.0876614,0 0.158654,0.0713307 0.158654,0.158657l0 0.142323 0.142323 0c0.0876614,0 0.158657,0.0713268 0.158657,0.158654l0 0.254646c0,0.0876614 -0.0713268,0.158657 -0.158657,0.158657l-0.142323 0 0 0.142323c0.000334646,0.0873228 -0.0709921,0.15865 -0.158654,0.15865zm-0.253311 -0.159984l0.252311 0 0 -0.220984c0,-0.0443268 0.0356614,-0.0799921 0.0799921,-0.0799921l0.220984 -3.93701e-006 0 -0.252311 -0.22098 0c-0.0443307,0 -0.0799921,-0.0356654 -0.0799921,-0.0799961l0 -0.22098 -0.252315 0 0 0.22098c0,0.0443307 -0.0356654,0.0799961 -0.0799961,0.0799961l-0.220984 0 0 0.252311 0.220984 0c0.0443268,0 0.0799921,0.0356654 0.0799921,0.0799961l3.93701e-006 0.220984zm0.253311 -0.854602l0 0 0 0z"/>
    </g>
    <g id="_517688912">
     <path id="_438218552" class="fil4" d="M2.51481 2.24959c-0.0243307,0 -0.0479961,-0.011 -0.0639961,-0.0316654 -0.0266614,-0.0353268 -0.0196614,-0.0853268 0.0156654,-0.111992 0.252984,-0.190984 0.604287,-0.217315 0.946594,-0.217315 0.342307,0 0.693945,0.0263307 0.946594,0.217315 0.0353307,0.0266654 0.0423307,0.0766614 0.0156654,0.111992 -0.0266614,0.0353307 -0.0766575,0.0423307 -0.111992,0.0156693 -0.215315,-0.162657 -0.535957,-0.184988 -0.850268,-0.184988 -0.314307,0 -0.634949,0.0223346 -0.850268,0.184988 -0.014,0.0106614 -0.0309961,0.0159961 -0.0479961,0.0159961z"/>
    </g>
    <g id="_517688528">
     <path id="_438218000" class="fil4" d="M3.58939 4.08911l-0.351969 0c-0.0443307,0 -0.0799961,-0.0356614 -0.0799961,-0.0799921 0,-0.0443307 0.0356654,-0.0799921 0.0799961,-0.0799921l0.351969 -3.93701e-006c0.0443307,0 0.0799961,0.0356614 0.0799961,0.0799921 0,0.0443307 -0.0356654,0.0799961 -0.0799961,0.0799961z"/>
    </g>
    <g id="_517688768">
     <path id="_438218216" class="fil4" d="M1.54722 5.69432c-0.0363307,0 -0.0726614,-0.00366535 -0.108992,-0.0113307 -0.190323,-0.0393307 -0.359642,-0.179319 -0.464299,-0.383972 -0.115988,-0.226646 -0.148988,-0.516291 -0.0949921,-0.838268l0.21265 -1.27357c0.00733465,-0.0436654 0.0483307,-0.0729961 0.0919921,-0.0656614 0.0436654,0.00733071 0.0729961,0.0486614 0.0656614,0.0919921l-0.21265 1.27357c-0.0606614,0.363642 0.01,0.602622 0.0796614,0.738945 0.0826575,0.161319 0.21165,0.270646 0.354307,0.299976 0.109988,0.0226614 0.217315,-0.003 0.310307,-0.0739961 0.107323,-0.0823268 0.187984,-0.221315 0.232315,-0.401634l0.176654 -0.714614c0.0106614,-0.0429961 0.0539961,-0.0689961 0.0969921,-0.0583307 0.0429961,0.0106654 0.0689961,0.0539961 0.0583307,0.0969961l-0.176654 0.71461c-0.0533307,0.215984 -0.153657,0.385303 -0.290311,0.490295 -0.0986575,0.0756614 -0.213319,0.114992 -0.330972,0.114992z"/>
    </g>
    <g id="_517688960">
     <path id="_438218432" class="fil4" d="M5.27959 5.69432c-0.117657,0 -0.232315,-0.0393307 -0.330976,-0.114992 -0.136654,-0.104657 -0.23698,-0.274311 -0.290311,-0.490295l-0.176654 -0.71461c-0.0106614,-0.043 0.0156693,-0.0863268 0.0583307,-0.0969961 0.043,-0.0106654 0.0863268,0.0156654 0.0969961,0.0583307l0.176654 0.714614c0.0446614,0.180319 0.124988,0.319307 0.232311,0.401634 0.0929961,0.0713307 0.199984,0.0966614 0.310311,0.0739961 0.142654,-0.0293307 0.271976,-0.138992 0.354307,-0.299976 0.0699921,-0.136327 0.140319,-0.375642 0.0796575,-0.738945l-0.212646 -1.27357c-0.00733465,-0.0436654 0.0219961,-0.0846614 0.0656614,-0.0919921 0.0436614,-0.00733465 0.0846575,0.0219961 0.0919921,0.0656614l0.21265 1.27357c0.0536614,0.321976 0.0209961,0.611953 -0.0949921,0.838268 -0.104657,0.204654 -0.27398,0.344307 -0.464299,0.383972 -0.0363307,0.00766535 -0.0729961,0.0113307 -0.108992,0.0113307z"/>
    </g>
    <g id="_517689032">
     <path id="_438218168" class="fil4" d="M3.59473 2.42657l-0.362646 0c-0.0443268,0 -0.0799921,-0.0356614 -0.0799921,-0.0799921 0,-0.0443268 0.0356654,-0.0799921 0.0799921,-0.0799921l0.362311 0c0.0443268,0 0.0799921,0.0356654 0.0799921,0.0799921 0,0.0443307 -0.0356654,0.0799921 -0.0796575,0.0799921z"/>
    </g>
    <g>
     <g id="_517688480">
      <path id="_438217808" class="fil4" d="M5.29026 2.33725c-0.0443307,0 -0.0799961,-0.0356654 -0.0799961,-0.0799961l0 -0.343972c0,-0.0266654 -0.0226614,-0.0493307 -0.0493307,-0.0493307l-0.47063 0c-0.0266654,0 -0.0493307,0.0226654 -0.0493307,0.0493307l0 0.174323c0,0.0443268 -0.0356614,0.0799921 -0.0799921,0.0799921 -0.0443307,0 -0.0799921,-0.0356654 -0.0799921,-0.0799921l0 -0.174323c0,-0.115327 0.0939921,-0.209315 0.209315,-0.209315l0.47063 -3.93701e-006c0.115327,0 0.209319,0.0936614 0.209319,0.209315l0 0.343976c0,0.0443307 -0.0356654,0.0799961 -0.0799921,0.0799961z"/>
     </g>
     <g id="_517688792">
      <path id="_438218144" class="fil4" d="M1.53655 2.33725c-0.0443268,0 -0.0799921,-0.0356654 -0.0799921,-0.0799961l0 -0.343972c0,-0.115327 0.0936614,-0.209315 0.209319,-0.209315l0.47063 -3.93701e-006c0.115327,0 0.209315,0.0936614 0.209315,0.209315l0 0.174323c0,0.0443307 -0.0356614,0.0799921 -0.0799921,0.0799921 -0.0443307,0 -0.0799921,-0.0356614 -0.0799921,-0.0799921l0 -0.174323c0,-0.0266614 -0.0226654,-0.0493307 -0.0493307,-0.0493307l-0.470965 3.93701e-006c-0.0266654,0 -0.0493307,0.0226654 -0.0493307,0.0493307l0 0.343972c0.000334646,0.0443307 -0.0356654,0.0799961 -0.0796614,0.0799961z"/>
     </g>
    </g>
    <g id="_517688840">
     <path id="_444086936" class="fil4" d="M2.10984 5.07237c-0.0109961,0 -0.022,-0.00233465 -0.0326654,-0.007l-1.15224 -0.518295c-0.0403307,-0.018 -0.0583307,-0.0653268 -0.04,-0.105657 0.018,-0.0403346 0.0653307,-0.0583307 0.105661,-0.04l1.15224 0.518295c0.0403346,0.0179961 0.0583307,0.0653268 0.04,0.105657 -0.0133346,0.0296654 -0.0423307,0.047 -0.0729961,0.047z"/>
    </g>
    <g id="_517688888">
     <path id="_444102224" class="fil4" d="M4.71664 5.07204c-0.0306654,0 -0.0596614,-0.0176654 -0.0729961,-0.0473307 -0.0179961,-0.0403307 0,-0.0876575 0.04,-0.105657l1.15224 -0.518295c0.0403346,-0.0179961 0.0876614,0 0.105661,0.04 0.018,0.0403307 0,0.0876614 -0.04,0.105657l-1.15224 0.518295c-0.0103307,0.00533071 -0.0216654,0.00733071 -0.0326654,0.00733071z"/>
    </g>
    <g id="_517688600">
     <path id="_444094880" class="fil4" d="M3.41341 2.04827c-0.0443307,0 -0.0799921,-0.0356654 -0.0799921,-0.0799921l0 -0.144657c0,-0.183988 0.0719921,-0.357307 0.202984,-0.488295 0.130988,-0.130988 0.304307,-0.202984 0.488295,-0.202984l0.860933 0c0.0443307,0 0.0799921,0.0356614 0.0799921,0.0799921 0,0.0443307 -0.0356614,0.0799921 -0.0799921,0.0799921l-0.860933 3.93701e-006c-0.292976,0 -0.531295,0.238315 -0.531295,0.531295l0 0.144654c0,0.0443268 -0.0356614,0.0799921 -0.0799921,0.0799921z"/>
    </g>
   </g>
  </g>
  <path class="fil5" d="M4.13602 3.81113c-0.109327,0 -0.197984,0.0886575 -0.197984,0.197984 0,0.109327 0.0886575,0.197984 0.197984,0.197984 0.109327,0 0.197988,-0.0886575 0.197988,-0.197984 0,-0.108988 -0.0886654,-0.197984 -0.197988,-0.197984z"/>
  <path class="fil6" d="M4.22634 3.12785c0.0659961,0 0.119327,-0.0533268 0.119327,-0.119323 0,-0.0659921 -0.0533307,-0.119323 -0.119327,-0.119323 -0.0656614,0 -0.119323,0.0533307 -0.119323,0.119323 0,0.0659961 0.0533307,0.119323 0.119323,0.119323z"/>
  <path class="fil7" d="M4.70597 3.33184c-0.0656614,0 -0.119323,0.0533268 -0.119323,0.119323 0,0.0656614 0.0533307,0.119323 0.119323,0.119323 0.0659961,0 0.119327,-0.0533268 0.119327,-0.119323 0,-0.0659961 -0.0536654,-0.119323 -0.119327,-0.119323z"/>
  <path class="fil1" d="M5.06628 3.00853c0,0.0659961 0.0533307,0.119323 0.119323,0.119323 0.0659961,0 0.119327,-0.0533268 0.119327,-0.119323 0,-0.0659921 -0.0536654,-0.119323 -0.119327,-0.119323 -0.0656614,0 -0.119323,0.0533307 -0.119323,0.119323z"/>
  <path class="fil8" d="M4.70597 2.68555c0.0659961,0 0.119327,-0.0533307 0.119327,-0.119323 0,-0.0659921 -0.0536654,-0.119327 -0.119327,-0.119327 -0.0656614,0 -0.119323,0.0533307 -0.119323,0.119327 0,0.0656614 0.0533307,0.119323 0.119323,0.119323z"/>
  <path class="fil5" d="M1.93685 2.62556l0 0.22098c0,0.0443307 -0.0356654,0.0799961 -0.0799961,0.0799961l-0.220984 0 0 0.252311 0.220984 0c0.0443268,0 0.0799921,0.0356654 0.0799921,0.0799961l3.93701e-006 0.220984 0.252311 0 0 -0.220984c0,-0.0443268 0.0356614,-0.0799921 0.0799921,-0.0799921l0.220984 -3.93701e-006 0 -0.252311 -0.22098 0c-0.0443307,0 -0.0799921,-0.0356654 -0.0799921,-0.0799961l0 -0.22098 -0.252315 0z"/>
  <path class="fil5" d="M2.6908 3.81113c-0.109327,0 -0.197988,0.0886575 -0.197988,0.197984 0,0.109327 0.0886614,0.197984 0.197988,0.197984 0.109327,0 0.197984,-0.0886575 0.197984,-0.197984 0,-0.108988 -0.0889921,-0.197984 -0.197984,-0.197984z"/>
 </g>
</svg>
