<?xml version="1.0" encoding="UTF-8"?>
<!DOCTYPE svg PUBLIC "-//W3C//DTD SVG 1.1//EN" "http://www.w3.org/Graphics/SVG/1.1/DTD/svg11.dtd">
<!-- Creator: CorelDRAW -->
<svg xmlns="http://www.w3.org/2000/svg" xml:space="preserve" width="6.82666in" height="6.82666in" style="shape-rendering:geometricPrecision; text-rendering:geometricPrecision; image-rendering:optimizeQuality; fill-rule:evenodd; clip-rule:evenodd"
viewBox="0 0 6.82666 6.82666"
 xmlns:xlink="http://www.w3.org/1999/xlink">
 <defs>
  <style type="text/css">
   <![CDATA[
    .fil0 {fill:none}
    .fil1 {fill:#333333}
    .fil3 {fill:#CCCCCC}
    .fil4 {fill:#CDE2FF}
    .fil2 {fill:#EDF6FF}
    .fil8 {fill:#FD3277}
    .fil6 {fill:#FEB045}
    .fil5 {fill:#FEC34D}
    .fil7 {fill:#FFCC99}
   ]]>
  </style>
 </defs>
 <rect class="fil0" width="6.82666" height="6.82666"/>
 <g id="Layer_x0020_1">
  <metadata id="CorelCorpID_0Corel-Layer"/>
  <g id="_438189344">
   <g>
    <g id="_517689272">
     <path id="_438191024" class="fil1" d="M1.28144 5.83186c-0.0316614,0 -0.0606614,-0.019 -0.0733268,-0.0479961l-0.347972 -0.798276c-0.00433465,-0.01 -0.00666535,-0.0209961 -0.00666535,-0.0319961l0 -3.28242c0,-0.0443268 0.0356614,-0.0799921 0.0799921,-0.0799921l0.695949 0c0.0443268,0 0.0799921,0.0356654 0.0799921,0.0799921l0 3.28275c0,0.011 -0.00233465,0.022 -0.00666929,0.0319961l-0.347972 0.798276c-0.0126614,0.0289961 -0.0416614,0.0476614 -0.0733268,0.0476614zm-0.267976 -0.894929l0.26798 0.614618 0.26798 -0.614618 -3.93701e-006 -3.18576 -0.535957 0 0 3.18576z"/>
    </g>
    <g id="_517689656">
     <path id="_438191456" class="fil1" d="M1.62942 5.03358l-0.695949 0c-0.0443307,0 -0.0799921,-0.0356614 -0.0799921,-0.0799921 0,-0.0443268 0.0356614,-0.0799921 0.0799921,-0.0799921l0.695949 0c0.0443268,0 0.0799921,0.0356654 0.0799921,0.0799921 0,0.0443307 -0.036,0.0799921 -0.0799921,0.0799921z"/>
    </g>
    <g id="_517689296">
     <path id="_438191576" class="fil1" d="M1.62942 1.75117c-0.0443307,0 -0.0799961,-0.0356614 -0.0799961,-0.0799921l0 -0.298307c0,-0.120327 -0.0979921,-0.218319 -0.218315,-0.218319l-0.0993268 -3.93701e-006c-0.120323,0 -0.218315,0.0979921 -0.218315,0.218319l0 0.298307c0,0.0443307 -0.0356654,0.0799961 -0.0799921,0.0799961 -0.0443307,0 -0.0799961,-0.0356654 -0.0799961,-0.0799961l0 -0.298307c0,-0.208654 0.16965,-0.377972 0.378303,-0.377972l0.0993268 0c0.20865,0 0.378307,0.169654 0.378307,0.378307l0 0.298307c-3.93701e-006,0.0436654 -0.0360039,0.0796614 -0.0799961,0.0796614z"/>
    </g>
    <g id="_517689608">
     <path id="_438190592" class="fil1" d="M1.28144 5.03358c-0.0443268,0 -0.0799921,-0.0356614 -0.0799921,-0.0799921l0 -3.28242c0,-0.0443268 0.0356654,-0.0799921 0.0799921,-0.0799921 0.0443307,0 0.0799921,0.0356654 0.0799921,0.0799921l0 3.28275c3.93701e-006,0.0439961 -0.0359921,0.0796575 -0.0799921,0.0796575z"/>
    </g>
    <g id="_517689896">
     <path id="_438190496" class="fil1" d="M5.7631 5.83186l-3.55639 0c-0.115988,0 -0.20998,-0.0943268 -0.20998,-0.209984l0 -4.417c0,-0.115992 0.0943268,-0.209984 0.20998,-0.209984l2.49714 0c0.0443307,0 0.0799921,0.0356654 0.0799921,0.0799921 0,0.0443307 -0.0356614,0.0799921 -0.0799921,0.0799921l-2.49747 0c-0.027,0 -0.0499961,0.023 -0.0499961,0.0499961l0 4.417c0,0.027 0.0229961,0.0499961 0.0499961,0.0499961l3.55639 7.87402e-006c0.0269961,0 0.0499921,-0.023 0.0499921,-0.0499961l0 -3.35775c0,-0.0443307 0.0356654,-0.0799921 0.0799961,-0.0799921 0.0443268,0 0.0799921,0.0356614 0.0799921,0.0799921l0 3.35808c0.000334646,0.115657 -0.0939921,0.20965 -0.20965,0.20965z"/>
    </g>
    <g id="_517689872">
     <path id="_438190736" class="fil1" d="M5.89309 2.34413l-1.05925 0c-0.115992,0 -0.209984,-0.0943268 -0.209984,-0.209984l0 -1.05926c0,-0.0323307 0.0193307,-0.0616614 0.0493307,-0.0739921 0.0299961,-0.0123346 0.0643307,-0.00566535 0.0873268,0.0173307l1.18924 1.18924c0.023,0.0229961 0.0296654,0.0573268 0.0173307,0.0873268 -0.0123307,0.0299961 -0.0416614,0.0493307 -0.0739921,0.0493307zm-1.10925 -1.07625l0 0.865933c0,0.0269961 0.0229961,0.0499961 0.0499961,0.0499961l0.865933 0 -0.915929 -0.915929z"/>
    </g>
    <g>
     <g id="_517689368">
      <path id="_438190712" class="fil1" d="M5.34946 2.74709l-2.72946 0c-0.0443307,0 -0.0799921,-0.0356614 -0.0799921,-0.0799921 0,-0.0443268 0.0356614,-0.0799921 0.0799921,-0.0799921l2.72946 0c0.0443307,0 0.0799921,0.0356654 0.0799921,0.0799921 0,0.0443307 -0.0356614,0.0799921 -0.0799921,0.0799921z"/>
     </g>
     <g id="_517690304">
      <path id="_438190088" class="fil1" d="M5.34946 3.37304l-2.72946 0c-0.0443307,0 -0.0799921,-0.0356614 -0.0799921,-0.0799921 0,-0.0443307 0.0356614,-0.0799921 0.0799921,-0.0799921l2.72946 0c0.0443307,0 0.0799921,0.0356614 0.0799921,0.0799921 0,0.0443307 -0.0356614,0.0799921 -0.0799921,0.0799921z"/>
     </g>
     <g id="_517690640">
      <path id="_438189512" class="fil1" d="M5.34946 3.999l-2.72946 0c-0.0443307,0 -0.0799921,-0.0356654 -0.0799921,-0.0799921 0,-0.0443307 0.0356614,-0.0799961 0.0799921,-0.0799961l2.72946 0c0.0443307,0 0.0799921,0.0356614 0.0799921,0.0799921 0,0.0443268 -0.0356614,0.0799961 -0.0799921,0.0799961z"/>
     </g>
    </g>
    <g>
     <g id="_517689320">
      <path id="_438189728" class="fil1" d="M4.57386 5.83186c-0.0443307,0 -0.0799921,-0.0356654 -0.0799921,-0.0799921 0,-0.280646 -0.228319,-0.508961 -0.508961,-0.508961 -0.280646,0 -0.508961,0.228315 -0.508961,0.508961 0,0.0443268 -0.0356654,0.0799921 -0.0799921,0.0799921 -0.0443307,0 -0.0799961,-0.0356654 -0.0799961,-0.0799921 0,-0.368972 0.300311,-0.668949 0.668953,-0.668949 0.368969,0 0.668949,0.300311 0.668949,0.668949 -7.87402e-006,0.0443268 -0.0356693,0.0799921 -0.08,0.0799921z"/>
     </g>
     <g id="_517690376">
      <path id="_438189608" class="fil1" d="M2.55501 5.83186c-0.0443307,0 -0.0799921,-0.0356654 -0.0799921,-0.0799921l0 -0.105327c0,-0.111992 0.0853268,-0.202319 0.21265,-0.22565l0.159988 -0.0289961c0.0206654,-0.0653307 0.0469961,-0.128657 0.0786614,-0.189654l-0.0926614 -0.133657c-0.0736575,-0.106327 -0.0699961,-0.23065 0.00933465,-0.309642l0.148988 -0.148988c0.0789961,-0.0789961 0.20365,-0.0826614 0.309642,-0.00933465l0.133657 0.0926614c0.0609961,-0.0316654 0.124323,-0.0579961 0.189654,-0.0786614l0.0289961 -0.159988c0.0229961,-0.126992 0.113657,-0.212654 0.22565,-0.212654l0.210315 3.93701e-006c0.111657,0 0.202319,0.0853307 0.22565,0.21265l0.0289961 0.159992c0.0653307,0.0206614 0.128657,0.0469921 0.189654,0.0786614l0.133657 -0.0926614c0.106327,-0.0736614 0.230646,-0.0699961 0.309642,0.00933465l0.148988 0.148984c0.0789961,0.0789961 0.0826575,0.203654 0.00933465,0.309646l-0.0926614 0.133657c0.0316654,0.0609961 0.0579961,0.124323 0.0786614,0.18965l0.159988 0.029c0.126992,0.0229961 0.21265,0.113657 0.21265,0.22565l0 0.105323c0,0.0443307 -0.0356614,0.0799961 -0.0799921,0.0799961 -0.0443268,0 -0.0799921,-0.0356654 -0.0799921,-0.0799961l0 -0.105323c0,-0.0506654 -0.0676614,-0.0656614 -0.0809921,-0.0679961l-0.20865 -0.0379961c-0.0303346,-0.00566535 -0.055,-0.0279961 -0.0629961,-0.0579961 -0.0229961,-0.0856575 -0.0573307,-0.168319 -0.101657,-0.245315 -0.0153346,-0.0266614 -0.014,-0.0599961 0.00366535,-0.0853268l0.120657 -0.174319c0.008,-0.0113346 0.0449961,-0.0696654 0.00933465,-0.105661l-0.148988 -0.148988c-0.0359961,-0.0359961 -0.0943268,0.00133465 -0.105661,0.00933465l-0.174319 0.120657c-0.0253346,0.0176654 -0.0586614,0.019 -0.0853268,0.00366535 -0.0773268,-0.0443268 -0.159657,-0.0786614 -0.245315,-0.101657 -0.03,-0.008 -0.0523307,-0.0326654 -0.0579961,-0.0629961l-0.0379961 -0.20865c-0.00233465,-0.0136614 -0.0173307,-0.0809921 -0.0679961,-0.0809921l-0.210657 -7.87402e-006c-0.0509961,0 -0.0656614,0.0676614 -0.0679921,0.0809961l-0.0379961 0.20865c-0.00566535,0.0303307 -0.028,0.0549961 -0.0579961,0.0629961 -0.0856614,0.0229961 -0.168323,0.0573268 -0.245315,0.101657 -0.0266654,0.0153307 -0.0599961,0.0139961 -0.0853268,-0.00366929l-0.174323 -0.120657c-0.0113307,-0.00799606 -0.0696614,-0.0449961 -0.105657,-0.00933071l-0.148988 0.148988c-0.036,0.0359961 0.00133465,0.0943268 0.00933071,0.105657l0.120661 0.174319c0.0176614,0.0253346 0.0189961,0.0586614 0.00366535,0.0853307 -0.0443307,0.0769921 -0.0786614,0.159654 -0.101657,0.245315 -0.008,0.0299961 -0.0326654,0.0523307 -0.0629961,0.0579961l-0.20865 0.0379961c-0.0136654,0.00233071 -0.0809961,0.0173307 -0.0809961,0.0679921l0 0.105327c-0.000330709,0.0443307 -0.0359961,0.0799961 -0.0803268,0.0799961z"/>
     </g>
    </g>
   </g>
  </g>
  <path class="fil2" d="M2.84299 4.75894l0.148988 -0.148988c0.0789961,-0.0789961 0.20365,-0.0826614 0.309642,-0.00933465l0.133657 0.0926614c0.0609961,-0.0316654 0.124323,-0.0579961 0.189654,-0.0786614l0.0289961 -0.159988c0.0229961,-0.126992 0.113657,-0.212654 0.22565,-0.212654l0.210315 3.93701e-006c0.111657,0 0.202319,0.0853307 0.22565,0.21265l0.0289961 0.159992c0.0653307,0.0206614 0.128657,0.0469921 0.189654,0.0786614l0.133657 -0.0926614c0.106327,-0.0736614 0.230646,-0.0699961 0.309642,0.00933465l0.148988 0.148984c0.0789961,0.0789961 0.0826575,0.203654 0.00933465,0.309646l-0.0926614 0.133657c0.0316654,0.0609961 0.0579961,0.124323 0.0786614,0.18965l0.159988 0.029c0.126992,0.0229961 0.21265,0.113657 0.21265,0.22565l0 0.0253307 0.268315 0c0.0269961,0 0.0499921,-0.023 0.0499921,-0.0499961l0 -3.27775 -0.978921 0c-0.115992,0 -0.209984,-0.0943268 -0.209984,-0.209984l0 -0.979264 -2.41748 0c-0.027,0 -0.0499961,0.023 -0.0499961,0.0499961l0 4.417c0,0.027 0.0229961,0.0499961 0.0499961,0.0499961l0.268646 0 0 -0.0253268c0,-0.111992 0.0853268,-0.202319 0.21265,-0.22565l0.159988 -0.0289961c0.0206654,-0.0653307 0.0469961,-0.128657 0.0786614,-0.189654l-0.0926614 -0.133657c-0.0736575,-0.106327 -0.0699961,-0.23065 0.00933465,-0.309642zm2.50647 -0.759941l-2.72946 0c-0.0443307,0 -0.0799921,-0.0356654 -0.0799921,-0.0799921 0,-0.0443307 0.0356614,-0.0799961 0.0799921,-0.0799961l2.72946 0c0.0443307,0 0.0799921,0.0356614 0.0799921,0.0799921 0,0.0443268 -0.0356614,0.0799961 -0.0799921,0.0799961zm0 -0.625957l-2.72946 0c-0.0443307,0 -0.0799921,-0.0356614 -0.0799921,-0.0799921 0,-0.0443307 0.0356614,-0.0799921 0.0799921,-0.0799921l2.72946 0c0.0443307,0 0.0799921,0.0356614 0.0799921,0.0799921 0,0.0443307 -0.0356614,0.0799921 -0.0799921,0.0799921zm0 -0.625953l-2.72946 0c-0.0443307,0 -0.0799921,-0.0356614 -0.0799921,-0.0799921 0,-0.0443268 0.0356614,-0.0799921 0.0799921,-0.0799921l2.72946 0c0.0443307,0 0.0799921,0.0356654 0.0799921,0.0799921 0,0.0443307 -0.0356614,0.0799921 -0.0799921,0.0799921z"/>
  <path class="fil3" d="M3.10497 4.72294l-0.148988 0.148988c-0.036,0.0359961 0.00133465,0.0943268 0.00933071,0.105657l0.120661 0.174319c0.0176614,0.0253346 0.0189961,0.0586614 0.00366535,0.0853307 -0.0443307,0.0769921 -0.0786614,0.159654 -0.101657,0.245315 -0.008,0.0299961 -0.0326654,0.0523307 -0.0629961,0.0579961l-0.20865 0.0379961c-0.0136654,0.00233071 -0.0809961,0.0173307 -0.0809961,0.0679921l0 0.0253307 0.685374 3.93701e-006c0.0396732,-0.331374 0.322598,-0.588953 0.664197,-0.588953 0.341882,0 0.624531,0.257835 0.664189,0.588953l0.68537 3.93701e-006 0 -0.0253307c0,-0.0506654 -0.0676614,-0.0656614 -0.0809921,-0.0679961l-0.20865 -0.0379961c-0.0303346,-0.00566535 -0.055,-0.0279961 -0.0629961,-0.0579961 -0.0229961,-0.0856575 -0.0573307,-0.168319 -0.101657,-0.245315 -0.0153346,-0.0266614 -0.014,-0.0599961 0.00366535,-0.0853268l0.120657 -0.174319c0.008,-0.0113346 0.0449961,-0.0696654 0.00933465,-0.105661l-0.148988 -0.148988c-0.0359961,-0.0359961 -0.0943268,0.00133465 -0.105661,0.00933465l-0.174319 0.120657c-0.0253346,0.0176654 -0.0586614,0.019 -0.0853268,0.00366535 -0.0773268,-0.0443268 -0.159657,-0.0786614 -0.245315,-0.101657 -0.03,-0.008 -0.0523307,-0.0326654 -0.0579961,-0.0629961l-0.0379961 -0.20865c-0.00233465,-0.0136614 -0.0173307,-0.0809921 -0.0679961,-0.0809921l-0.210657 -7.87402e-006c-0.0509961,0 -0.0656614,0.0676614 -0.0679921,0.0809961l-0.0379961 0.20865c-0.00566535,0.0303307 -0.028,0.0549961 -0.0579961,0.0629961 -0.0856614,0.0229961 -0.168323,0.0573268 -0.245315,0.101657 -0.0266654,0.0153307 -0.0599961,0.0139961 -0.0853268,-0.00366929l-0.174323 -0.120657c-0.0113307,-0.00799606 -0.0696614,-0.0449961 -0.105657,-0.00933071z"/>
  <path class="fil2" d="M3.98491 5.24291c-0.253433,0 -0.464193,0.186185 -0.502681,0.428965l1.00536 0c-0.0384882,-0.242776 -0.249248,-0.428965 -0.502681,-0.428965z"/>
  <path class="fil4" d="M4.83384 2.1838l0.865933 0 -0.915929 -0.915929 0 0.865933c0,0.0269961 0.0229961,0.0499961 0.0499961,0.0499961z"/>
  <polygon class="fil5" points="1.54943,4.8736 1.54942,1.75117 1.36143,1.75117 1.36143,4.8736 "/>
  <polygon class="fil6" points="1.20145,4.8736 1.20145,1.75117 1.01346,1.75117 1.01346,4.8736 "/>
  <polygon class="fil7" points="1.50728,5.03358 1.28144,5.03358 1.05561,5.03358 1.28144,5.55155 "/>
  <path class="fil8" d="M1.01346 1.59118l0.267976 0 0.26798 0 0 -0.218311c0,-0.120327 -0.0979921,-0.218319 -0.218315,-0.218319l-0.0993268 -3.93701e-006c-0.120323,0 -0.218315,0.0979921 -0.218315,0.218319l0 0.218315z"/>
 </g>
</svg>
