<?xml version="1.0" encoding="UTF-8"?>
<!DOCTYPE svg PUBLIC "-//W3C//DTD SVG 1.1//EN" "http://www.w3.org/Graphics/SVG/1.1/DTD/svg11.dtd">
<!-- Creator: CorelDRAW -->
<svg xmlns="http://www.w3.org/2000/svg" xml:space="preserve" width="6.82666in" height="6.82666in" style="shape-rendering:geometricPrecision; text-rendering:geometricPrecision; image-rendering:optimizeQuality; fill-rule:evenodd; clip-rule:evenodd"
viewBox="0 0 6.82666 6.82666"
 xmlns:xlink="http://www.w3.org/1999/xlink">
 <defs>
  <style type="text/css">
   <![CDATA[
    .fil0 {fill:none}
    .fil1 {fill:#0065A3}
    .fil2 {fill:#333333}
    .fil4 {fill:#98EDFE}
    .fil3 {fill:#C8F5FE}
   ]]>
  </style>
 </defs>
 <rect class="fil0" width="6.82666" height="6.82666"/>
 <g id="Layer_x0020_1">
  <metadata id="CorelCorpID_0Corel-Layer"/>
  <path class="fil1" d="M1.75945 1.72379l0 -0.20865c0,-0.0882008 0.0717756,-0.159988 0.159992,-0.159988l0.935878 0 0.302244 0.368638 -1.39811 0zm0.317646 -0.130992c0.0294331,0 0.0533307,-0.023878 0.0533307,-0.0533268 0,-0.0296102 -0.0237205,-0.0533307 -0.0533307,-0.0533307l-0.0879921 0c-0.0296142,0 -0.0533268,0.0237205 -0.0533268,0.0533307 0,0.0296102 0.0237165,0.0533268 0.0533268,0.0533268l0.0879921 0zm0.668953 0c0.0296063,0 0.0533268,-0.0237205 0.0533268,-0.0533268 0,-0.0296102 -0.0237165,-0.0533307 -0.0533268,-0.0533307l-0.0879961 0c-0.0296142,0 -0.0533268,0.0237205 -0.0533268,0.0533307 0,0.0296102 0.0237165,0.0533268 0.0533268,0.0533268l0.0879961 0zm-0.334646 0c0.0296102,0 0.0533268,-0.0237165 0.0533268,-0.0533268 0,-0.0296102 -0.0237126,-0.0533307 -0.0533268,-0.0533307l-0.0879921 0c-0.0296102,0 -0.0533268,0.0237205 -0.0533268,0.0533307 0,0.0296063 0.0237205,0.0533268 0.0533268,0.0533268l0.0879921 0zm0.581744 -0.237646l1.92373 0c0.0828819,0 0.150323,0.0674567 0.150323,0.150323l0 0.218315 -1.77182 0 -0.302236 -0.368638zm0.664165 0.237646l1.01825 0c0.0296102,0 0.0533268,-0.0237165 0.0533268,-0.0533268 0,-0.0296102 -0.0237126,-0.0533307 -0.0533268,-0.0533307l-1.01825 0c-0.0296102,0 -0.0533307,0.0237205 -0.0533307,0.0533307 0,0.0296102 0.0237205,0.0533268 0.0533307,0.0533268zm-2.56514 3.19209l4.64231 0c0.0580472,0 0.105327,0.0472795 0.105327,0.105327 0,0.320531 -0.260776,0.581287 -0.581287,0.581287l-0.834272 0 0 -0.343307c0,-0.0296102 -0.0237165,-0.0533268 -0.0533268,-0.0533268l-1.91519 -3.93701e-006c-0.0296142,0 -0.0533307,0.0237205 -0.0533307,0.0533307l0 0.343311 -0.834272 0c-0.320531,0 -0.581291,-0.260776 -0.581291,-0.581291 0,-0.0580472 0.0472795,-0.105327 0.105327,-0.105327zm3.22543 0.396638l0 0.289976 -1.80853 3.93701e-006 0 -0.28998 1.80853 0z"/>
  <g id="_438191888">
   <g id="_517691264">
    <path id="_438193448" class="fil2" d="M4.90722 4.40525l-2.98777 0c-0.161654,0 -0.293311,-0.131654 -0.293311,-0.293311l0 -2.5968c0,-0.161654 0.131657,-0.293311 0.293311,-0.293311l0 0 0.960929 0c0.0239961,0 0.0466614,0.0106654 0.0619921,0.0293307l0.365638 0.445969 1.81253 0c0.0443307,0 0.0799921,0.0356654 0.0799921,0.0799961l0 2.33482c3.93701e-006,0.161657 -0.131654,0.293311 -0.293307,0.293311zm-2.98777 -3.02343c-0.0736614,0 -0.133327,0.0599921 -0.133327,0.133323l0 2.5968c0,0.0736614 0.0599961,0.133327 0.133327,0.133327l2.98744 -7.87402e-006c0.0736575,0 0.133323,-0.0599961 0.133323,-0.133323l-3.93701e-006 -2.25483 -1.76986 0c-0.024,0 -0.0466614,-0.0106654 -0.0619961,-0.0293307l-0.365642 -0.445965 -0.92326 0 0 0z"/>
   </g>
   <g id="_517691288">
    <path id="_438193640" class="fil2" d="M3.27034 1.85711l-1.56421 0c-0.0443307,0 -0.0799921,-0.0356654 -0.0799921,-0.0799921 0,-0.0443307 0.0356614,-0.0799961 0.0799921,-0.0799961l1.56421 0c0.0443307,0 0.0799921,0.0356654 0.0799921,0.0799961 0,0.0443268 -0.0359961,0.0799921 -0.0799921,0.0799921z"/>
   </g>
   <g id="_517691480">
    <path id="_438193664" class="fil2" d="M5.12053 1.85711c-0.0443268,0 -0.0799921,-0.0356654 -0.0799921,-0.0799921l0 -0.271646c0,-0.0679961 -0.0553307,-0.123657 -0.123657,-0.123657l-2.03618 0c-0.0443268,0 -0.0799921,-0.0356654 -0.0799921,-0.0799961 0,-0.0443268 0.0356654,-0.0799921 0.0799921,-0.0799921l2.03618 -3.93701e-006c0.156323,0 0.283642,0.127327 0.283642,0.283646l0 0.271646c3.93701e-006,0.0443307 -0.0356575,0.0799961 -0.0799921,0.0799961z"/>
   </g>
   <g id="_517691312">
    <path id="_438193376" class="fil2" d="M4.67557 1.61946l-1.01825 0c-0.0443307,0 -0.0799961,-0.0356654 -0.0799961,-0.0799921 0,-0.0443307 0.0356654,-0.0799961 0.0799961,-0.0799961l1.01825 0c0.0443307,0 0.0799921,0.0356654 0.0799921,0.0799961 0,0.0443268 -0.0356614,0.0799921 -0.0799921,0.0799921z"/>
   </g>
   <g id="_517690856">
    <path id="_438193760" class="fil2" d="M5.55017 4.81156c-0.0443268,0 -0.0799921,-0.0356614 -0.0799921,-0.0799921l0 -2.11884c0,-0.194654 -0.158319,-0.359307 -0.352638,-0.366642 -0.0439961,-0.00166535 -0.0786614,-0.0389961 -0.0769921,-0.0829921 0.00166535,-0.0439961 0.0389961,-0.0786614 0.0829921,-0.0769921 0.135988,0.00533071 0.263311,0.0626614 0.358638,0.160984 0.0953268,0.0989921 0.147988,0.22865 0.147988,0.365307l0 2.11884c0,0.0446614 -0.0356654,0.0803268 -0.0799961,0.0803268zm-4.27367 0c-0.0443307,0 -0.0799961,-0.0356614 -0.0799961,-0.0799921l0 -2.11884c0,-0.136657 0.0526614,-0.26665 0.147992,-0.365307 0.0953228,-0.0986575 0.22265,-0.155988 0.358638,-0.161319 0.0439961,-0.00166535 0.0813268,0.0326614 0.0829921,0.0769921 0.00166535,0.0439961 -0.0326654,0.0813268 -0.0769921,0.0829921 -0.194654,0.00766535 -0.352638,0.171988 -0.352638,0.366642l0 2.11884c-3.93701e-006,0.0443268 -0.036,0.0799921 -0.0799961,0.0799921z"/>
   </g>
   <g id="_517690952">
    <path id="_438192488" class="fil2" d="M5.25852 5.60483l-3.69039 0c-0.190319,0 -0.369303,-0.0746614 -0.504626,-0.209984 -0.135323,-0.135327 -0.209984,-0.314646 -0.209984,-0.50463 0,-0.131657 0.106988,-0.23865 0.238646,-0.23865l4.64231 0c0.131657,0 0.238646,0.106992 0.238646,0.23865 0,0.190319 -0.0746614,0.369303 -0.209984,0.50463 -0.135323,0.135323 -0.314307,0.209984 -0.504626,0.209984zm-4.16635 -0.793276c-0.0433307,0 -0.0786614,0.0353307 -0.0786614,0.0786614 0,0.305646 0.24865,0.554626 0.554626,0.554626l3.69039 -3.93701e-006c0.305642,0 0.554622,-0.248646 0.554622,-0.554622 0,-0.0433307 -0.0353307,-0.0786614 -0.0786614,-0.0786614l-4.64231 0z"/>
   </g>
   <g id="_517691144">
    <path id="_438192848" class="fil2" d="M4.37093 5.60483c-0.0443307,0 -0.0799921,-0.0356654 -0.0799921,-0.0799961l0 -0.316642 -1.7552 0 0 0.316642c0,0.0443268 -0.0356654,0.0799921 -0.0799921,0.0799921 -0.0443307,0 -0.0799961,-0.0356654 -0.0799961,-0.0799921l0 -0.396638c0,-0.0443307 0.0356654,-0.0799961 0.0799961,-0.0799961l1.91519 3.93701e-006c0.0443307,0 0.0799921,0.0356654 0.0799921,0.0799921l0 0.396638c0,0.0439961 -0.0356614,0.0799961 -0.0799921,0.0799961z"/>
   </g>
   <g id="_517691240">
    <path id="_438192968" class="fil2" d="M3.22568 3.83196c-0.00700394,0 -0.0136654,-0.001 -0.0206654,-0.00266535 -0.0426654,-0.0113307 -0.0679961,-0.0553307 -0.0566614,-0.0979921l0.375299 -1.40123c0.0113346,-0.0426614 0.0553307,-0.0679921 0.0979921,-0.0566614 0.0426654,0.0113346 0.0679961,0.0553307 0.0566614,0.0979921l-0.375299 1.40123c-0.00966929,0.0356654 -0.042,0.0593268 -0.0773268,0.0593268z"/>
   </g>
   <g>
    <g id="_517691168">
     <path id="_438192728" class="fil2" d="M2.93237 3.55232c-0.0203307,0 -0.0409961,-0.00766535 -0.0566614,-0.0233307l-0.443299 -0.443299c-0.0313346,-0.0313307 -0.0313346,-0.0819961 0,-0.112992l0.443299 -0.443299c0.0313307,-0.0313307 0.0819961,-0.0313307 0.112988,0 0.0313346,0.0313346 0.0313346,0.0819961 0,0.112992l-0.386634 0.386638 0.386634 0.386638c0.0313346,0.0313307 0.0313346,0.0819921 0,0.112988 -0.0156614,0.0159961 -0.0359921,0.0236654 -0.0563268,0.0236654z"/>
    </g>
    <g id="_517691648">
     <path id="_438192992" class="fil2" d="M3.8943 3.55232c-0.0203307,0 -0.0409961,-0.00766535 -0.0566614,-0.0233307 -0.0313346,-0.0313307 -0.0313346,-0.0819961 0,-0.112992l0.386638 -0.386634 -0.386638 -0.386638c-0.0313346,-0.0313346 -0.0313346,-0.0819961 0,-0.112992 0.0313307,-0.0313307 0.0819961,-0.0313307 0.112988,0l0.443299 0.443299c0.0313346,0.0313346 0.0313346,0.0819961 0,0.112992l-0.443299 0.443299c-0.0153307,0.0153268 -0.0356614,0.0229961 -0.0563268,0.0229961z"/>
    </g>
   </g>
   <g>
    <g id="_517691528">
     <path id="_438192032" class="fil2" d="M2.0771 1.61946l-0.0879921 0c-0.0443307,0 -0.0799921,-0.0356654 -0.0799921,-0.0799921 0,-0.0443307 0.0356614,-0.0799961 0.0799921,-0.0799961l0.0879921 0c0.0443307,0 0.0799961,0.0356654 0.0799961,0.0799961 0,0.0443268 -0.036,0.0799921 -0.0799961,0.0799921z"/>
    </g>
    <g id="_517691840">
     <path id="_438191960" class="fil2" d="M2.41141 1.61946l-0.0879921 0c-0.0443268,0 -0.0799921,-0.0356654 -0.0799921,-0.0799921 0,-0.0443307 0.0356654,-0.0799961 0.0799921,-0.0799961l0.0879921 0c0.0443307,0 0.0799921,0.0356654 0.0799921,0.0799961 0,0.0443268 -0.0356614,0.0799921 -0.0799921,0.0799921z"/>
    </g>
    <g id="_517692176">
     <path id="_438192296" class="fil2" d="M2.74605 1.61946l-0.0879961 0c-0.0443307,0 -0.0799921,-0.0356654 -0.0799921,-0.0799921 0,-0.0443307 0.0356614,-0.0799961 0.0799921,-0.0799961l0.0879961 0c0.0443268,0 0.0799921,0.0356654 0.0799921,0.0799961 0,0.0443268 -0.0356654,0.0799921 -0.0799921,0.0799921z"/>
    </g>
   </g>
  </g>
  <path class="fil3" d="M2.93237 3.55232c-0.0203307,0 -0.0409961,-0.00766535 -0.0566614,-0.0233307l-0.443299 -0.443299c-0.0313346,-0.0313307 -0.0313346,-0.0819961 0,-0.112992l0.443299 -0.443299c0.0313307,-0.0313307 0.0819961,-0.0313307 0.112988,0 0.0313346,0.0313346 0.0313346,0.0819961 0,0.112992l-0.386634 0.386638 0.386634 0.386638c0.0313346,0.0313307 0.0313346,0.0819921 0,0.112988 -0.0156614,0.0159961 -0.0359921,0.0236654 -0.0563268,0.0236654zm0.337976 -1.6952l-1.48422 0 0 0.305874c0,3.54331e-005 3.93701e-006,6.69291e-005 3.93701e-006,0.000102362 7.87402e-005,0.00209449 7.87402e-005,0.00417323 -3.93701e-006,0.00623228l0 1.94262c0,0.0736614 0.0599961,0.133327 0.133327,0.133327l2.98744 -7.87402e-006c0.0736575,0 0.133323,-0.0599961 0.133323,-0.133323l-3.93701e-006 -2.25483 -1.76986 0zm-0.0653268 1.97218c-0.0426654,-0.0113307 -0.0679961,-0.0553307 -0.0566614,-0.0979921l0.375299 -1.40123c0.0113346,-0.0426614 0.0553307,-0.0679921 0.0979921,-0.0566614 0.0426654,0.0113346 0.0679961,0.0553307 0.0566614,0.0979921l-0.375299 1.40123c-0.00966929,0.0356654 -0.042,0.0593268 -0.0773268,0.0593268 -0.00700394,0 -0.0136654,-0.001 -0.0206654,-0.00266535zm0.632618 -0.300307c-0.0313346,-0.0313307 -0.0313346,-0.0819961 0,-0.112992l0.386638 -0.386634 -0.386638 -0.386638c-0.0313346,-0.0313346 -0.0313346,-0.0819961 0,-0.112992 0.0313307,-0.0313307 0.0819961,-0.0313307 0.112988,0l0.443299 0.443299c0.0313346,0.0313346 0.0313346,0.0819961 0,0.112992l-0.443299 0.443299c-0.0153307,0.0153268 -0.0356614,0.0229961 -0.0563268,0.0229961 -0.0203307,0 -0.0409961,-0.00766535 -0.0566614,-0.0233307z"/>
  <path class="fil4" d="M5.20052 2.25911l0 1.85283c3.93701e-006,0.161657 -0.131654,0.293311 -0.293307,0.293311l-2.98777 0c-0.161654,0 -0.293311,-0.131654 -0.293311,-0.293311l0 -1.85275c-0.15465,0.0434685 -0.269642,0.187461 -0.269642,0.353531l0 2.03884 4.11368 0 0 -2.03884c0,-0.166035 -0.115185,-0.31024 -0.26965,-0.35361z"/>
 </g>
</svg>
