<?xml version="1.0" encoding="UTF-8"?>
<!DOCTYPE svg PUBLIC "-//W3C//DTD SVG 1.1//EN" "http://www.w3.org/Graphics/SVG/1.1/DTD/svg11.dtd">
<!-- Creator: CorelDRAW -->
<svg xmlns="http://www.w3.org/2000/svg" xml:space="preserve" width="6.82666in" height="6.82666in" style="shape-rendering:geometricPrecision; text-rendering:geometricPrecision; image-rendering:optimizeQuality; fill-rule:evenodd; clip-rule:evenodd"
viewBox="0 0 6.82666 6.82666"
 xmlns:xlink="http://www.w3.org/1999/xlink">
 <defs>
  <style type="text/css">
   <![CDATA[
    .fil0 {fill:none}
    .fil1 {fill:#0065A3}
    .fil3 {fill:#00DC7F}
    .fil2 {fill:#333333}
    .fil7 {fill:#98EDFE}
    .fil6 {fill:#C8F5FE}
    .fil5 {fill:#E40048}
    .fil4 {fill:#FF9933}
   ]]>
  </style>
 </defs>
 <rect class="fil0" width="6.82666" height="6.82666"/>
 <g id="Layer_x0020_1">
  <metadata id="CorelCorpID_0Corel-Layer"/>
  <path class="fil1" d="M0.98685 2.31041l0 -0.327311c0,-0.141374 0.115272,-0.256646 0.256646,-0.256646l1.37085 0 0.478531 0.583957 -0.883457 3.93701e-006 -1.22257 -3.93701e-006zm1.37723 -0.23865c0.0296102,0 0.0533268,-0.0237205 0.0533268,-0.0533307 0,-0.0296063 -0.0237165,-0.0533268 -0.0533268,-0.0533268l-0.108327 3.93701e-006c-0.0296102,0 -0.0533268,0.0237126 -0.0533268,0.0533268 0,0.0296102 0.0237165,0.0533268 0.0533268,0.0533268l0.108327 0zm-0.410969 0c0.029437,0 0.0533268,-0.0238819 0.0533268,-0.0533307 0,-0.0296063 -0.0237165,-0.0533268 -0.0533268,-0.0533268l-0.108327 3.93701e-006c-0.0296102,0 -0.0533268,0.0237126 -0.0533268,0.0533268 0,0.0296102 0.0237165,0.0533268 0.0533268,0.0533268l0.108327 0zm-0.411303 0c0.0296142,0 0.0533268,-0.0237205 0.0533268,-0.0533307 0,-0.0296063 -0.0237165,-0.0533268 -0.0533268,-0.0533268l-0.108323 3.93701e-006c-0.0296102,0 -0.0533268,0.0237126 -0.0533268,0.0533268 0,0.0296102 0.0237165,0.0533268 0.0533268,0.0533268l0.108323 0zm1.2106 -0.344972l2.84509 0c0.133709,0 0.242315,0.108606 0.242315,0.242315l3.93701e-006 0.341307 -2.60909 0 -0.478315 -0.583622zm1.01556 0.344972l1.47888 0c0.0296142,0 0.0533307,-0.0237165 0.0533307,-0.0533307 0,-0.0296102 -0.0237205,-0.0533268 -0.0533307,-0.0533268l-1.47888 3.93701e-006c-0.0296102,0 -0.0533307,0.0237126 -0.0533307,0.0533268 0,0.0296142 0.0237205,0.0533268 0.0533307,0.0533268z"/>
  <g id="_438194696">
   <g id="_511983360">
    <path id="_438196904" class="fil2" d="M5.58317 5.23352l-4.33967 0c-0.21498,0 -0.389969,-0.174988 -0.389969,-0.389969l0 -2.86045c0,-0.21465 0.174319,-0.389303 0.388969,-0.389969 0.000334646,0 0.000669291,0 0.001,0l1.39589 0c0.0239961,0 0.0466614,0.0106654 0.0619921,0.0293307l0.541965 0.661283 2.6498 0c0.0443307,0 0.0799921,0.0356654 0.0799921,0.0799921l0 2.47981c0,0.21498 -0.174988,0.389969 -0.389969,0.389969zm-4.33867 -3.4804c-0.000330709,0 -0.000665354,0 -0.001,0 -0.126657,0 -0.22998,0.103327 -0.22998,0.22998l0 2.86012c0,0.126657 0.103327,0.22998 0.22998,0.22998l4.33967 0c0.126657,0 0.22998,-0.103327 0.22998,-0.22998l0 -2.39981 -2.6078 0c-0.024,0 -0.0466614,-0.0106654 -0.0619961,-0.0293307l-0.541622 -0.660953 -1.35723 0z"/>
   </g>
   <g id="_511982688">
    <path id="_438196880" class="fil2" d="M3.20535 2.44374l-2.27183 0c-0.0443307,0 -0.0799921,-0.0356654 -0.0799921,-0.0799961 0,-0.0443268 0.0356614,-0.0799921 0.0799921,-0.0799921l2.27183 0c0.0443268,0 0.0799921,0.0356654 0.0799921,0.0799921 0,0.0443307 -0.0356614,0.0799961 -0.0799921,0.0799961z"/>
   </g>
   <g id="_511983312">
    <path id="_438196520" class="fil2" d="M5.89314 2.44374c-0.0443307,0 -0.0799921,-0.0356654 -0.0799921,-0.0799961l-3.93701e-006 -0.394634c0,-0.118992 -0.0966614,-0.21565 -0.21565,-0.21565l-2.95811 0c-0.0443307,0 -0.0799921,-0.0356654 -0.0799921,-0.0799921 0,-0.0443307 0.0356614,-0.0799961 0.0799921,-0.0799961l2.95777 0c0.207319,0 0.375642,0.168654 0.375642,0.375638l0 0.394634c0.000330709,0.0439961 -0.0353307,0.0799961 -0.0796614,0.0799961z"/>
   </g>
   <g id="_511982976">
    <path id="_438196952" class="fil2" d="M5.24685 2.09843l-1.47888 0c-0.0443307,0 -0.0799961,-0.0356614 -0.0799961,-0.0799921 0,-0.0443307 0.0356654,-0.0799921 0.0799961,-0.0799921l1.47888 -3.93701e-006c0.0443307,0 0.0799961,0.0356654 0.0799961,0.0799921 0,0.0443307 -0.0356614,0.0799961 -0.0799961,0.0799961z"/>
   </g>
   <g id="_511982880">
    <path id="_438196400" class="fil2" d="M2.20943 5.23352c-0.0443307,0 -0.0799961,-0.0356614 -0.0799961,-0.0799921l0 -2.78979c0,-0.0443307 0.0356654,-0.0799921 0.0799961,-0.0799921 0.0443268,0 0.0799921,0.0356614 0.0799921,0.0799921l0 2.78979c0,0.0439961 -0.0356654,0.0799921 -0.0799921,0.0799921z"/>
   </g>
   <g id="_511983024">
    <path id="_438196184" class="fil2" d="M3.40567 5.23352c-0.0443268,0 -0.0799921,-0.0356614 -0.0799921,-0.0799921l-3.93701e-006 -1.13225 -0.45663 0 0 1.13224c0,0.0443307 -0.0356614,0.0799921 -0.0799921,0.0799921 -0.0443307,0 -0.0799921,-0.0356614 -0.0799921,-0.0799921l-3.93701e-006 -1.21224c0,-0.0443268 0.0356654,-0.0799921 0.0799921,-0.0799921l0.616622 0c0.0443307,0 0.0799921,0.0356654 0.0799921,0.0799921l0 1.21224c0,0.0439961 -0.0359961,0.0799921 -0.0799921,0.0799921z"/>
   </g>
   <g id="_511983888">
    <path id="_438195656" class="fil2" d="M4.35959 5.23352c-0.0443307,0 -0.0799921,-0.0356614 -0.0799921,-0.0799921l0 -1.61354 -0.456634 0 0 1.61354c0,0.0443307 -0.0356614,0.0799921 -0.0799921,0.0799921 -0.0443307,0 -0.0799921,-0.0356614 -0.0799921,-0.0799921l0 -1.69354c0,-0.0443307 0.0356614,-0.0799961 0.0799921,-0.0799961l0.616618 0c0.0443307,0 0.0799921,0.0356654 0.0799921,0.0799961l0 1.69354c3.93701e-006,0.044 -0.0356614,0.0799961 -0.0799921,0.0799961z"/>
   </g>
   <g id="_511983480">
    <path id="_438195464" class="fil2" d="M5.31385 5.23352c-0.0443268,0 -0.0799921,-0.0356614 -0.0799921,-0.0799921l0 -2.09484 -0.45663 0 0 2.09484c0,0.0443307 -0.0356654,0.0799921 -0.0799961,0.0799921 -0.0443268,0 -0.0799921,-0.0356614 -0.0799921,-0.0799921l-3.93701e-006 -2.17483c0,-0.0443307 0.0356654,-0.0799961 0.0799961,-0.0799961l0.616618 0c0.0443307,0 0.0799961,0.0356654 0.0799961,0.0799961l0 2.17483c0,0.044 -0.036,0.0799961 -0.0799961,0.0799961z"/>
   </g>
   <g id="_511983624">
    <path id="_438195968" class="fil2" d="M1.84245 2.99203l-0.541622 0c-0.0443307,0 -0.0799921,-0.0356614 -0.0799921,-0.0799921 0,-0.0443307 0.0356614,-0.0799921 0.0799921,-0.0799921l0.541622 -3.93701e-006c0.0443307,0 0.0799961,0.0356654 0.0799961,0.0799921 0,0.0443307 -0.036,0.0799961 -0.0799961,0.0799961z"/>
   </g>
   <g id="_511983936">
    <path id="_438196040" class="fil2" d="M1.84245 3.35867l-0.541622 0c-0.0443307,0 -0.0799921,-0.0356654 -0.0799921,-0.0799921 0,-0.0443307 0.0356614,-0.0799921 0.0799921,-0.0799921l0.541622 0c0.0443307,0 0.0799961,0.0356614 0.0799961,0.0799921 0,0.0443268 -0.036,0.0799921 -0.0799961,0.0799921z"/>
   </g>
   <g id="_511983672">
    <path id="_438195776" class="fil2" d="M1.84245 3.72531l-0.541622 0c-0.0443307,0 -0.0799921,-0.0356654 -0.0799921,-0.0799961 0,-0.0443268 0.0356614,-0.0799921 0.0799921,-0.0799921l0.541622 -3.93701e-006c0.0443307,0 0.0799961,0.0356654 0.0799961,0.0799961 0,0.0443268 -0.036,0.0799961 -0.0799961,0.0799961z"/>
   </g>
   <g>
    <g id="_511983504">
     <path id="_438195416" class="fil2" d="M1.54181 2.09843l-0.108323 0c-0.0443307,0 -0.0799921,-0.0356614 -0.0799921,-0.0799921 0,-0.0443307 0.0356614,-0.0799921 0.0799921,-0.0799921l0.108323 -3.93701e-006c0.0443268,0 0.0799921,0.0356654 0.0799921,0.0799921 0,0.0443307 -0.0356614,0.0799961 -0.0799921,0.0799961z"/>
    </g>
    <g id="_511983720">
     <path id="_438195344" class="fil2" d="M1.95311 2.09843l-0.108327 0c-0.0443307,0 -0.0799921,-0.0356614 -0.0799921,-0.0799921 0,-0.0443307 0.0356614,-0.0799921 0.0799921,-0.0799921l0.108327 -3.93701e-006c0.0443268,0 0.0799921,0.0356654 0.0799921,0.0799921 0,0.0443307 -0.036,0.0799961 -0.0799921,0.0799961z"/>
    </g>
    <g id="_511983960">
     <path id="_438195152" class="fil2" d="M2.36408 2.09843l-0.108327 0c-0.0443307,0 -0.0799921,-0.0356614 -0.0799921,-0.0799921 0,-0.0443307 0.0356614,-0.0799921 0.0799921,-0.0799921l0.108327 -3.93701e-006c0.0443268,0 0.0799921,0.0356654 0.0799921,0.0799921 0,0.0443307 -0.0356654,0.0799961 -0.0799921,0.0799961z"/>
    </g>
   </g>
  </g>
  <polygon class="fil3" points="3.32567,4.02128 2.86904,4.02128 2.86904,5.0732 3.32567,5.0732 "/>
  <polygon class="fil4" points="3.82296,3.53999 3.82296,5.0732 4.2796,5.0732 4.2796,3.53999 "/>
  <polygon class="fil5" points="4.77723,3.05869 4.77723,5.0732 5.23386,5.0732 5.23386,3.05869 "/>
  <path class="fil6" d="M3.74297 3.38l0.616618 0c0.0443307,0 0.0799921,0.0356654 0.0799921,0.0799961l0 1.61321 0.177657 0 -3.93701e-006 -2.0945c0,-0.0443307 0.0356654,-0.0799961 0.0799961,-0.0799961l0.616618 0c0.0443307,0 0.0799961,0.0356654 0.0799961,0.0799961l0 2.0945 0.189319 0c0.126657,0 0.22998,-0.103327 0.22998,-0.22998l0 -2.39981 -2.60044 0c-0.0024252,0.000220472 -0.00487795,0.000330709 -0.0073622,0.000330709l-0.915929 0 0 2.62946 0.419638 0 -3.93701e-006 -1.13191c0,-0.0443268 0.0356654,-0.0799921 0.0799921,-0.0799921l0.616622 0c0.0443307,0 0.0799921,0.0356654 0.0799921,0.0799921l0 1.13191 0.177323 0 0 -1.61321c0,-0.0443307 0.0356614,-0.0799961 0.0799921,-0.0799961z"/>
  <path class="fil7" d="M2.12943 5.0732l0 -2.62946 -1.11591 0 0 2.39948c0,0.126657 0.103327,0.22998 0.22998,0.22998l0.885933 0zm-0.828602 -1.50788l0.541622 -3.93701e-006c0.0443307,0 0.0799961,0.0356654 0.0799961,0.0799961 0,0.0443268 -0.036,0.0799961 -0.0799961,0.0799961l-0.541622 0c-0.0443307,0 -0.0799921,-0.0356654 -0.0799921,-0.0799961 0,-0.0443268 0.0356614,-0.0799921 0.0799921,-0.0799921zm0.621618 -0.286646c0,0.0443268 -0.036,0.0799921 -0.0799961,0.0799921l-0.541622 0c-0.0443307,0 -0.0799921,-0.0356654 -0.0799921,-0.0799921 0,-0.0443307 0.0356614,-0.0799921 0.0799921,-0.0799921l0.541622 0c0.0443307,0 0.0799961,0.0356614 0.0799961,0.0799921zm-0.0799961 -0.286646l-0.541622 0c-0.0443307,0 -0.0799921,-0.0356614 -0.0799921,-0.0799921 0,-0.0443307 0.0356614,-0.0799921 0.0799921,-0.0799921l0.541622 -3.93701e-006c0.0443307,0 0.0799961,0.0356654 0.0799961,0.0799921 0,0.0443307 -0.036,0.0799961 -0.0799961,0.0799961z"/>
 </g>
</svg>
