<?xml version="1.0" encoding="UTF-8"?>
<!DOCTYPE svg PUBLIC "-//W3C//DTD SVG 1.1//EN" "http://www.w3.org/Graphics/SVG/1.1/DTD/svg11.dtd">
<!-- Creator: CorelDRAW -->
<svg xmlns="http://www.w3.org/2000/svg" xml:space="preserve" width="6.82666in" height="6.82666in" style="shape-rendering:geometricPrecision; text-rendering:geometricPrecision; image-rendering:optimizeQuality; fill-rule:evenodd; clip-rule:evenodd"
viewBox="0 0 6.82666 6.82666"
 xmlns:xlink="http://www.w3.org/1999/xlink">
 <defs>
  <style type="text/css">
   <![CDATA[
    .fil0 {fill:none}
    .fil1 {fill:#194D80}
    .fil2 {fill:#333333}
    .fil6 {fill:#98EDFE}
    .fil7 {fill:#CCCCCC}
    .fil4 {fill:#E40048}
    .fil5 {fill:#FEDD46}
    .fil3 {fill:white}
   ]]>
  </style>
 </defs>
 <rect class="fil0" width="6.82666" height="6.82666"/>
 <g id="Layer_x0020_1">
  <metadata id="CorelCorpID_0Corel-Layer"/>
  <path class="fil1" d="M2.79305 3.41333c0,0.121602 0.0990394,0.22065 0.220646,0.22065l0.624949 0 -0.0125394 0.0355394c-0.030189,0.0855472 -0.0503661,0.174173 -0.0602638,0.26435l-0.00261024 0.0237559 -2.36139 0c-0.118524,0 -0.214984,-0.0964409 -0.214984,-0.214984l0 -0.658618c0,-0.118547 0.0964567,-0.214984 0.214984,-0.214984l3.38594 0 -0.175441 0.0522244c-0.0422362,0.0125709 -0.0837677,0.0274685 -0.124346,0.0446535 -0.125937,0.0533268 -0.240953,0.127315 -0.341728,0.219752l-0.00764567 0.00701575 -0.924925 0c-0.121602,0 -0.220646,0.0990433 -0.220646,0.220646zm-0.465969 0c0,-0.121602 -0.0990472,-0.220646 -0.22065,-0.220646 -0.121602,0 -0.220646,0.0990433 -0.220646,0.220646 0,0.121602 0.0990394,0.22065 0.220646,0.22065 0.121606,0 0.22065,-0.0990433 0.22065,-0.22065zm-0.668618 -3.14961e-005c0.000145669,-0.121626 -0.0990945,-0.220614 -0.220646,-0.220614 -0.121602,0 -0.220646,0.0990433 -0.220646,0.220646 0,0.121602 0.0990394,0.22065 0.220646,0.22065 0.121657,0 0.2205,-0.0990984 0.220646,-0.220681zm1.90043 0.677114c0.00177953,0.0891811 0.013378,0.177843 0.0349488,0.264398l0.00825197 0.0331142 -0.588402 3.93701e-006c-0.121602,0 -0.220646,0.0990472 -0.220646,0.22065 0,0.121602 0.0990433,0.220646 0.220646,0.220646l0.82089 0 0.00798425 0.00938583c0.0210039,0.024685 0.0430276,0.0484961 0.0659291,0.0714291 0.0751535,0.0752677 0.159717,0.14028 0.252091,0.193008l0.0872835 0.0498228 -3.04604 -3.93701e-006c-0.118528,0 -0.214984,-0.096437 -0.214984,-0.214984l0 -0.658614c0,-0.118528 0.096437,-0.214984 0.214984,-0.214984l2.35654 -3.93701e-006 0.000523622 0.0261339zm-1.23181 0.518165c0,-0.121602 -0.0990472,-0.22065 -0.22065,-0.22065 -0.121606,0 -0.220646,0.0990472 -0.220646,0.22065 0,0.121602 0.0990433,0.220646 0.220646,0.220646 0.12176,0 0.22065,-0.0988661 0.22065,-0.220646zm-0.668618 -3.14961e-005c0.000145669,-0.12163 -0.0990906,-0.220618 -0.220646,-0.220618 -0.121606,0 -0.220646,0.0990433 -0.220646,0.22065 0,0.121602 0.0990433,0.220646 0.220646,0.220646 0.121811,0 0.2205,-0.0989291 0.220646,-0.220677zm-0.456622 -1.84617c-0.118528,0 -0.214984,-0.096437 -0.214984,-0.214984l0 -0.658614c0,-0.118551 0.0964528,-0.214988 0.214984,-0.214988l3.26408 3.93701e-006c0.118528,0 0.214984,0.096437 0.214984,0.214984l0 0.658618c0,0.117937 -0.095563,0.214602 -0.213669,0.21498l-0.00129528 3.93701e-006 -3.2641 -3.93701e-006zm3.02843 -0.323976c0.121602,0 0.220646,-0.0990433 0.220646,-0.22065 0,-0.121602 -0.0990394,-0.22065 -0.220646,-0.22065l-1.21657 3.93701e-006c-0.121602,0 -0.220646,0.0990433 -0.220646,0.220646 0,0.121602 0.0990394,0.22065 0.220646,0.22065l1.21657 0zm-2.12384 0c0.121606,0 0.22065,-0.0990433 0.22065,-0.22065 0,-0.121602 -0.0990472,-0.220646 -0.22065,-0.220646 -0.121598,0 -0.220646,0.0990472 -0.220646,0.220646 0,0.121602 0.0990394,0.22065 0.220646,0.22065zm-0.447969 -0.22065c0,-0.121602 -0.0990433,-0.220646 -0.220646,-0.220646 -0.121602,0 -0.220646,0.0990433 -0.220646,0.220646 0,0.121602 0.0990394,0.22065 0.220646,0.22065 0.121606,0 0.220646,-0.0990472 0.220646,-0.22065z"/>
  <g id="_511968696">
   <path id="_438201272" class="fil2" d="M4.46592 2.8957c-0.0443307,0 -0.0799921,-0.0356614 -0.0799921,-0.0799921 0,-0.0443268 0.0356614,-0.0799921 0.0799921,-0.0799921 0.103992,0 0.188319,-0.0846614 0.188319,-0.188319l0 -0.658618c0,-0.103992 -0.0846614,-0.188319 -0.188319,-0.188319l-3.26408 -3.93701e-006c-0.103661,-0.000330709 -0.188319,0.0843268 -0.188319,0.188323l0 0.658614c0,0.103992 0.0846614,0.188319 0.188319,0.188319 0.0443268,0 0.0799921,0.0356654 0.0799921,0.0799921 0,0.0443307 -0.0356654,0.0799961 -0.0799921,0.0799961 -0.191988,0 -0.348307,-0.156319 -0.348307,-0.348638l0 -0.658283c0,-0.192319 0.156319,-0.348642 0.348307,-0.348642l3.26408 0c0.191984,0 0.348307,0.156323 0.348307,0.348307l0 0.658618c0.000334646,0.192319 -0.155988,0.348638 -0.348307,0.348638z"/>
  </g>
  <g id="_438200552">
   <g id="_511968600">
    <path id="_438200456" class="fil2" d="M1.43781 2.46507c-0.136323,0 -0.247311,-0.110992 -0.247311,-0.247315 0,-0.136319 0.110988,-0.247311 0.247311,-0.247311 0.136323,0 0.247311,0.110992 0.247311,0.247311 0,0.136323 -0.110988,0.247315 -0.247311,0.247315zm0 -0.334307c-0.0479961,0 -0.0873268,0.0389961 -0.0873268,0.0873268 0,0.0483307 0.0389961,0.0873268 0.0873268,0.0873268 0.0483307,0 0.0873268,-0.0389961 0.0873268,-0.0873268 0,-0.0483307 -0.0393307,-0.0873268 -0.0873268,-0.0873268z"/>
   </g>
   <g id="_511968720">
    <path id="_438200600" class="fil2" d="M2.10643 2.46507c-0.136323,0 -0.247311,-0.110992 -0.247311,-0.247315 0,-0.136319 0.110992,-0.247311 0.247311,-0.247311 0.136323,0 0.247315,0.110992 0.247315,0.247311 0,0.136323 -0.110988,0.247315 -0.247315,0.247315zm0 -0.334307c-0.0479961,0 -0.0873268,0.0389961 -0.0873268,0.0873268 0,0.0483307 0.039,0.0873268 0.0873268,0.0873268 0.0483307,0 0.0873268,-0.0389961 0.0873268,-0.0873268 0,-0.0483307 -0.0389961,-0.0873268 -0.0873268,-0.0873268z"/>
   </g>
  </g>
  <g id="_511968552">
   <path id="_438200168" class="fil2" d="M4.23027 2.46507l-1.21657 0c-0.136323,0 -0.247311,-0.110992 -0.247311,-0.247315 0,-0.136323 0.110992,-0.247311 0.247311,-0.247311l1.21657 -3.93701e-006c0.136323,0 0.247311,0.110992 0.247311,0.247315 3.93701e-006,0.136323 -0.110988,0.247315 -0.247311,0.247315zm-1.21657 -0.334307c-0.0479961,0 -0.0873268,0.0389961 -0.0873268,0.0873268 0,0.0479961 0.0389961,0.0873268 0.0873268,0.0873268l1.21657 0c0.0479961,0 0.0873268,-0.0389961 0.0873268,-0.0873268 0,-0.0479961 -0.0389961,-0.0873268 -0.0873268,-0.0873268l-1.21657 0z"/>
  </g>
  <g id="_511968120">
   <path id="_438200384" class="fil2" d="M1.20183 4.09094c-0.191988,0 -0.348307,-0.156323 -0.348307,-0.348307l0 -0.658618c0,-0.191984 0.156319,-0.348307 0.348307,-0.348307l3.26408 0c0.111327,0 0.217315,0.0543307 0.282646,0.145323 0.0256654,0.036 0.0176654,0.0859961 -0.018,0.111661 -0.0359961,0.0256614 -0.0859921,0.0176654 -0.111657,-0.018 -0.0356654,-0.0493307 -0.0926575,-0.0789961 -0.152988,-0.0789961l-3.26408 0c-0.103661,0 -0.188319,0.0843307 -0.188319,0.188319l0 0.658618c0,0.103988 0.0846614,0.188319 0.188319,0.188319 0.0443268,0 0.0799921,0.0356614 0.0799921,0.0799921 0,0.0443268 -0.0356654,0.0799961 -0.0799921,0.0799961z"/>
  </g>
  <g id="_438199832">
   <g id="_511968216">
    <path id="_438200240" class="fil2" d="M1.43781 3.66064c-0.136323,0 -0.247311,-0.110992 -0.247311,-0.247315 0,-0.136323 0.110988,-0.247311 0.247311,-0.247311 0.136323,0 0.247311,0.110992 0.247311,0.247311 -0.000326772,0.136327 -0.110988,0.247315 -0.247311,0.247315zm0 -0.334642c-0.0479961,0 -0.0873268,0.039 -0.0873268,0.0873268 0,0.0483307 0.0389961,0.0873307 0.0873268,0.0873307 0.0483307,0 0.0873268,-0.039 0.0873268,-0.0873307 0,-0.0483268 -0.0393307,-0.0873268 -0.0873268,-0.0873268z"/>
   </g>
   <g id="_511969392">
    <path id="_438199568" class="fil2" d="M2.10643 3.66064c-0.136323,0 -0.247311,-0.110992 -0.247311,-0.247315 0,-0.136323 0.110992,-0.247311 0.247311,-0.247311 0.136323,0 0.247315,0.110992 0.247315,0.247311 0,0.136327 -0.110988,0.247315 -0.247315,0.247315zm0 -0.334642c-0.0479961,0 -0.0873268,0.039 -0.0873268,0.0873268 0,0.0483307 0.039,0.0873307 0.0873268,0.0873307 0.0483307,0 0.0873268,-0.039 0.0873268,-0.0873307 0,-0.0483268 -0.0389961,-0.0873268 -0.0873268,-0.0873268z"/>
   </g>
  </g>
  <g id="_511969296">
   <path id="_438200000" class="fil2" d="M3.72064 3.66064l-0.706945 0c-0.136323,0 -0.247311,-0.110992 -0.247311,-0.247315 0,-0.136323 0.110992,-0.247311 0.247311,-0.247311l0.946264 0c0.0443307,0 0.0799921,0.0356654 0.0799921,0.0799921 0,0.0443307 -0.0356614,0.0799921 -0.0799921,0.0799921l-0.946264 0c-0.0479961,0 -0.0873268,0.039 -0.0873268,0.0873268 0,0.0483307 0.0389961,0.0873307 0.0873268,0.0873307l0.706945 0c0.0443307,0 0.0799961,0.0356614 0.0799961,0.0799921 0,0.0443268 -0.0359961,0.0799921 -0.0799961,0.0799921z"/>
  </g>
  <g id="_511969416">
   <path id="_438200048" class="fil2" d="M4.75256 5.28652l-3.55072 0c-0.191988,0 -0.348307,-0.156323 -0.348307,-0.348642l0 -0.658614c0,-0.191988 0.156319,-0.348307 0.348307,-0.348307l2.41148 0c0.0443307,0 0.0799921,0.0356614 0.0799921,0.0799921 0,0.0443268 -0.0356614,0.0799921 -0.0799921,0.0799921l-2.41148 3.93701e-006c-0.103992,0 -0.188319,0.0846614 -0.188319,0.188319l0 0.658614c0,0.103992 0.0846614,0.188319 0.188319,0.188319l3.55072 3.93701e-006c0.0443307,0 0.0799961,0.0356614 0.0799961,0.0799921 0,0.0443307 -0.0356654,0.0803268 -0.0799961,0.0803268z"/>
  </g>
  <g id="_511969032">
   <path id="_438199544" class="fil2" d="M1.43781 4.85589c-0.136323,0 -0.247311,-0.110992 -0.247311,-0.247311 0,-0.136327 0.110988,-0.247315 0.247311,-0.247315 0.136323,0 0.247311,0.110992 0.247311,0.247315 -0.000326772,0.136654 -0.110988,0.247311 -0.247311,0.247311zm0 -0.334307c-0.0479961,0 -0.0873268,0.0389961 -0.0873268,0.0873268 0,0.0483268 0.0389961,0.0873268 0.0873268,0.0873268 0.0483307,0 0.0873268,-0.039 0.0873268,-0.0873268 0,-0.0483307 -0.0393307,-0.0873268 -0.0873268,-0.0873268z"/>
  </g>
  <g id="_511969440">
   <path id="_438199880" class="fil2" d="M2.10643 4.85589c-0.136323,0 -0.247311,-0.110992 -0.247311,-0.247311 0,-0.136327 0.110992,-0.247315 0.247311,-0.247315 0.136323,0 0.247315,0.110992 0.247315,0.247315 0,0.136654 -0.110988,0.247311 -0.247315,0.247311zm0 -0.334307c-0.0479961,0 -0.0873268,0.0389961 -0.0873268,0.0873268 0,0.0483268 0.039,0.0873268 0.0873268,0.0873268 0.0483307,0 0.0873268,-0.039 0.0873268,-0.0873268 0,-0.0483307 -0.0389961,-0.0873268 -0.0873268,-0.0873268z"/>
  </g>
  <g id="_511969584">
   <path id="_438199184" class="fil2" d="M3.8603 4.85589l-0.846602 0c-0.136323,0 -0.247311,-0.110992 -0.247311,-0.247311 0,-0.136323 0.110992,-0.247315 0.247311,-0.247315l0.661949 -3.93701e-006c0.0443307,0 0.0799921,0.0356654 0.0799921,0.0799961 0,0.0443268 -0.0356614,0.0799921 -0.0799921,0.0799921l-0.661949 0c-0.0479961,0 -0.0873268,0.0389961 -0.0873268,0.0873268 0,0.0483307 0.0389961,0.0873268 0.0873268,0.0873268l0.846602 0c0.0443307,0 0.0799961,0.0356654 0.0799961,0.0799921 0,0.0443307 -0.036,0.0799961 -0.0799961,0.0799961z"/>
  </g>
  <g id="_438198608">
   <g id="_511969152">
    <path id="_438199016" class="fil2" d="M4.75256 5.28652c-0.164654,0 -0.324642,-0.0323307 -0.474965,-0.0959921 -0.145323,-0.0613307 -0.275976,-0.149323 -0.387969,-0.26165 -0.111996,-0.111992 -0.199984,-0.242646 -0.26165,-0.387972 -0.0636614,-0.150654 -0.0959921,-0.310307 -0.0959921,-0.474965 0,-0.164657 0.0323307,-0.324642 0.0959921,-0.474965 0.0613307,-0.145323 0.149323,-0.27598 0.26165,-0.387972 0.111992,-0.111992 0.242646,-0.199984 0.387969,-0.261646 0.150657,-0.0636654 0.310311,-0.0959921 0.474965,-0.0959921 0.164657,0 0.324646,0.0323268 0.474969,0.0959921 0.145323,0.0613307 0.275976,0.149319 0.387969,0.261646 0.111992,0.111992 0.199984,0.24265 0.26165,0.387972 0.0636614,0.150657 0.0959921,0.310307 0.0959921,0.474965 0,0.164657 -0.0323307,0.324646 -0.0959921,0.474965 -0.0613307,0.145327 -0.149323,0.27598 -0.26165,0.387972 -0.111992,0.111992 -0.242646,0.199984 -0.387969,0.26165 -0.150323,0.0636614 -0.30998,0.0959921 -0.474969,0.0959921zm0 -2.28083c-0.584622,0 -1.06058,0.47563 -1.06058,1.06059 0,0.584957 0.475961,1.06025 1.06058,1.06025 0.584622,0 1.06059,-0.47563 1.06059,-1.06059 0,-0.584957 -0.47563,-1.06025 -1.06059,-1.06025z"/>
   </g>
   <g id="_511968144">
    <path id="_438199280" class="fil2" d="M4.81189 4.94788l-0.117988 0c-0.0803268,0 -0.144992,-0.0596614 -0.160988,-0.147988l-0.0126654 -0.0693307c-0.0246654,-0.00866535 -0.049,-0.0186654 -0.0726614,-0.0299961l-0.058 0.0399961c-0.0739921,0.0513307 -0.161984,0.0476654 -0.21865,-0.00933071l-0.0836575 -0.0836614c-0.0566614,-0.0566614 -0.0603307,-0.144657 -0.00933465,-0.21865l0.04 -0.0579961c-0.0113346,-0.0236654 -0.0213346,-0.0479961 -0.03,-0.0726614l-0.0693268 -0.0126654c-0.0886575,-0.016 -0.147992,-0.0806614 -0.147992,-0.160988l0 -0.117992c0,-0.0803268 0.0596654,-0.144992 0.147992,-0.160988l0.0693268 -0.0126654c0.00866535,-0.0246654 0.0186654,-0.0489961 0.03,-0.0726614l-0.04 -0.0579961c-0.0513307,-0.0739961 -0.0476614,-0.161988 0.00933465,-0.21865l0.0836575 -0.0836614c0.0566654,-0.0566614 0.144657,-0.0603307 0.21865,-0.00933465l0.058 0.04c0.0236614,-0.0113307 0.0479961,-0.0213307 0.0726614,-0.03l0.0126654 -0.0693268c0.016,-0.0886575 0.0806614,-0.147988 0.160988,-0.147988l0.117988 3.93701e-006c0.0803268,0 0.144988,0.0596614 0.160984,0.147992l0.0126693 0.0693268c0.0246654,0.00866535 0.0489961,0.0186654 0.0726614,0.0299961l0.0579961 -0.0399961c0.0739921,-0.0513307 0.161988,-0.0476614 0.21865,0.00933465l0.0836614 0.0836575c0.0566614,0.0566614 0.0603268,0.144657 0.00933071,0.21865l-0.0399961 0.0579961c0.0113307,0.0236654 0.0213307,0.0479961 0.0299961,0.0726614l0.0693307 0.0126693c0.0886575,0.016 0.147988,0.0806575 0.147988,0.160984l0 0.117992c0,0.0803268 -0.0596614,0.144992 -0.147988,0.160988l-0.0693307 0.0126654c-0.00866535,0.0246654 -0.0186654,0.049 -0.0299961,0.0726614l0.0399961 0.058c0.0513307,0.0739921 0.0476654,0.161984 -0.00933071,0.21865l-0.0836614 0.0836575c-0.0566614,0.0566614 -0.144657,0.0603307 -0.21865,0.00933465l-0.0579961 -0.04c-0.0236654,0.0113346 -0.0479961,0.0213346 -0.0726614,0.03l-0.0126693 0.0693268c-0.0159961,0.0886575 -0.0809882,0.147984 -0.160984,0.147984zm-0.115657 -0.159988l0.112992 0c0.00166535,-0.00233465 0.00466535,-0.008 0.00633071,-0.0166654l0.0213346 -0.116988c0.00566535,-0.0303346 0.0279961,-0.055 0.0579961,-0.0629961 0.0449961,-0.012 0.0886575,-0.0303307 0.129323,-0.0536654 0.0266654,-0.0153307 0.0599961,-0.0139961 0.0853268,0.00366929l0.0976575 0.0676614c0.00733465,0.00499606 0.0133346,0.007 0.0163346,0.00733071l0.0796614 -0.0796575c-0.000334646,-0.003 -0.00233465,-0.009 -0.00733465,-0.0163346l-0.0676614 -0.0979921c-0.0176654,-0.0253307 -0.019,-0.0586575 -0.00366535,-0.0853268 0.0233307,-0.0406614 0.0413268,-0.0839921 0.0536614,-0.129323 0.00799606,-0.03 0.0326614,-0.0523307 0.0629961,-0.0579961l0.116988 -0.0213346c0.00866535,-0.00166535 0.0143346,-0.00466535 0.0166654,-0.00633071l0 -0.112992c-0.00233071,-0.00166535 -0.008,-0.00466535 -0.0166654,-0.00633465l-0.116988 -0.0213307c-0.0303346,-0.00566535 -0.055,-0.028 -0.0629961,-0.0579961 -0.012,-0.0449961 -0.0303307,-0.0886575 -0.0536614,-0.129323 -0.0153346,-0.0266654 -0.014,-0.0599961 0.00366535,-0.0853307l0.0676614 -0.0976575c0.00499606,-0.00733465 0.007,-0.0133346 0.00733465,-0.0163307l-0.0796614 -0.0796614c-0.003,0.000334646 -0.009,0.00233465 -0.0163346,0.00733465l-0.0979882 0.0676614c-0.0253346,0.0176654 -0.0586614,0.019 -0.0853307,0.00366535 -0.0406614,-0.0233307 -0.0839921,-0.0413307 -0.129323,-0.0536614 -0.0299961,-0.008 -0.0523307,-0.0326654 -0.0579961,-0.0629961l-0.0213307 -0.116992c-0.00166535,-0.00866535 -0.00466535,-0.0143307 -0.00633465,-0.0166614l-0.112992 0c-0.00166535,0.00233071 -0.00466535,0.00799606 -0.00633071,0.0166614l-0.0213346 0.116992c-0.00566535,0.0303307 -0.0279961,0.0549961 -0.0579961,0.0629961 -0.0449961,0.012 -0.0886575,0.0303307 -0.129323,0.0536614 -0.0266654,0.0153346 -0.0599961,0.014 -0.0853268,-0.00366535l-0.0976614 -0.0676614c-0.00733071,-0.005 -0.0133307,-0.007 -0.0163307,-0.00733465l-0.0796614 0.0796614c0.000334646,0.00299606 0.00233465,0.00899606 0.00733465,0.0163307l0.0676614 0.0976575c0.0176654,0.0253346 0.019,0.0586614 0.00366535,0.0853307 -0.0233307,0.0406614 -0.0413268,0.0839921 -0.0536614,0.129323 -0.00799606,0.0299961 -0.0326654,0.0523307 -0.0629961,0.0579961l-0.116988 0.0213307c-0.00866929,0.00166535 -0.0143346,0.00466535 -0.0166654,0.00633465l0 0.112992c0.00233071,0.00166535 0.00799606,0.00466535 0.0166654,0.00633071l0.116988 0.0213346c0.0303307,0.00566535 0.055,0.0279961 0.0629961,0.0579961 0.012,0.0449961 0.0303307,0.0886575 0.0536614,0.129323 0.0153346,0.0266654 0.014,0.0599961 -0.00366535,0.0853268l-0.0676614 0.0976614c-0.00499606,0.00733071 -0.007,0.0133307 -0.00733465,0.0163307l0.0796614 0.0796614c0.003,-0.000334646 0.009,-0.00233465 0.0163307,-0.00733465l0.0979921 -0.0676614c0.0253346,-0.0176654 0.0586614,-0.019 0.0853307,-0.00366535 0.0406614,0.0233307 0.0839921,0.0413268 0.129323,0.0536614 0.0299961,0.008 0.0523307,0.0326654 0.0579961,0.0629961l0.0213307 0.116992c0.00166929,0.00933071 0.00466929,0.0146614 0.00633465,0.0169961z"/>
   </g>
   <g id="_511968936">
    <path id="_438199136" class="fil2" d="M4.75256 4.45425c-0.213984,0 -0.388299,-0.174323 -0.388299,-0.388303 0,-0.213984 0.174319,-0.388303 0.388299,-0.388303 0.213988,0 0.388303,0.174319 0.388303,0.388303 0,0.21398 -0.173984,0.388303 -0.388303,0.388303zm0 -0.616622c-0.125988,0 -0.228315,0.102323 -0.228315,0.228315 0,0.125992 0.102327,0.228315 0.228315,0.228315 0.125992,0 0.228319,-0.102323 0.228319,-0.228315 0,-0.125657 -0.102327,-0.228315 -0.228319,-0.228315z"/>
   </g>
  </g>
  <path class="fil3" d="M3.01369 4.52124c-0.0479961,0 -0.0873268,0.0389961 -0.0873268,0.0873268 0,0.0483307 0.0389961,0.0873268 0.0873268,0.0873268l0.69337 0c-0.0298819,-0.0495236 -0.0562835,-0.101256 -0.0790866,-0.154992 -0.00276378,-0.00653543 -0.00546457,-0.0130906 -0.00811024,-0.0196614l-0.606173 0z"/>
  <path class="fil4" d="M2.19376 4.60891c0,-0.0483307 -0.0389961,-0.0873268 -0.0873268,-0.0873268 -0.0479961,0 -0.0873268,0.0389961 -0.0873268,0.0873268 0,0.0483268 0.039,0.0873268 0.0873268,0.0873268 0.0483307,0 0.0873268,-0.039 0.0873268,-0.0873268z"/>
  <path class="fil5" d="M1.52514 4.60891c0,-0.0483307 -0.0393307,-0.0873268 -0.0873268,-0.0873268 -0.0479961,0 -0.0873268,0.0389961 -0.0873268,0.0873268 0,0.0483268 0.0389961,0.0873268 0.0873268,0.0873268 0.0483307,0 0.0873268,-0.039 0.0873268,-0.0873268z"/>
  <path class="fil5" d="M1.43781 3.50066c0.0483307,0 0.0873268,-0.039 0.0873268,-0.0873307 0,-0.0483268 -0.0393307,-0.0873268 -0.0873268,-0.0873268 -0.0479961,0 -0.0873268,0.039 -0.0873268,0.0873268 0,0.0483307 0.0389961,0.0873307 0.0873268,0.0873307z"/>
  <path class="fil4" d="M2.0191 3.41333c0,0.0483307 0.039,0.0873307 0.0873268,0.0873307 0.0483307,0 0.0873268,-0.039 0.0873268,-0.0873307 0,-0.0483268 -0.0389961,-0.0873268 -0.0873268,-0.0873268 -0.0479961,0 -0.0873268,0.039 -0.0873268,0.0873268z"/>
  <path class="fil3" d="M3.01369 3.326c-0.0479961,0 -0.0873268,0.039 -0.0873268,0.0873268 0,0.0483307 0.0389961,0.0873307 0.0873268,0.0873307l0.656815 0c0.0320276,-0.0613583 0.0691614,-0.119693 0.111197,-0.174657l-0.768012 0z"/>
  <path class="fil3" d="M3.01369 2.30541l1.21657 0c0.0479961,0 0.0873268,-0.0389961 0.0873268,-0.0873268 0,-0.0479961 -0.0389961,-0.0873268 -0.0873268,-0.0873268l-1.21657 0c-0.0479961,0 -0.0873268,0.0389961 -0.0873268,0.0873268 0,0.0479961 0.0389961,0.0873268 0.0873268,0.0873268z"/>
  <path class="fil4" d="M2.10643 2.30541c0.0483307,0 0.0873268,-0.0389961 0.0873268,-0.0873268 0,-0.0483307 -0.0389961,-0.0873268 -0.0873268,-0.0873268 -0.0479961,0 -0.0873268,0.0389961 -0.0873268,0.0873268 0,0.0483307 0.039,0.0873268 0.0873268,0.0873268z"/>
  <path class="fil5" d="M1.52514 2.21809c0,-0.0483307 -0.0393307,-0.0873268 -0.0873268,-0.0873268 -0.0479961,0 -0.0873268,0.0389961 -0.0873268,0.0873268 0,0.0483307 0.0389961,0.0873268 0.0873268,0.0873268 0.0483307,0 0.0873268,-0.0389961 0.0873268,-0.0873268z"/>
  <path class="fil6" d="M4.75256 3.83763c-0.125988,0 -0.228315,0.102323 -0.228315,0.228315 0,0.125992 0.102327,0.228315 0.228315,0.228315 0.125992,0 0.228319,-0.102323 0.228319,-0.228315 0,-0.125657 -0.102327,-0.228315 -0.228319,-0.228315z"/>
  <path class="fil7" d="M4.36426 4.06595c0,-0.213984 0.174319,-0.388303 0.388299,-0.388303 0.213988,0 0.388303,0.174319 0.388303,0.388303 0,0.21398 -0.173984,0.388303 -0.388303,0.388303 -0.213984,0 -0.388299,-0.174323 -0.388299,-0.388303zm0.331972 0.721941l0.112992 0c0.00166535,-0.00233465 0.00466535,-0.008 0.00633071,-0.0166654l0.0213346 -0.116988c0.00566535,-0.0303346 0.0279961,-0.055 0.0579961,-0.0629961 0.0449961,-0.012 0.0886575,-0.0303307 0.129323,-0.0536654 0.0266654,-0.0153307 0.0599961,-0.0139961 0.0853268,0.00366929l0.0976575 0.0676614c0.00733465,0.00499606 0.0133346,0.007 0.0163346,0.00733071l0.0796614 -0.0796575c-0.000334646,-0.003 -0.00233465,-0.009 -0.00733465,-0.0163346l-0.0676614 -0.0979921c-0.0176654,-0.0253307 -0.019,-0.0586575 -0.00366535,-0.0853268 0.0233307,-0.0406614 0.0413268,-0.0839921 0.0536614,-0.129323 0.00799606,-0.03 0.0326614,-0.0523307 0.0629961,-0.0579961l0.116988 -0.0213346c0.00866535,-0.00166535 0.0143346,-0.00466535 0.0166654,-0.00633071l0 -0.112992c-0.00233071,-0.00166535 -0.008,-0.00466535 -0.0166654,-0.00633465l-0.116988 -0.0213307c-0.0303346,-0.00566535 -0.055,-0.028 -0.0629961,-0.0579961 -0.012,-0.0449961 -0.0303307,-0.0886575 -0.0536614,-0.129323 -0.0153346,-0.0266654 -0.014,-0.0599961 0.00366535,-0.0853307l0.0676614 -0.0976575c0.00499606,-0.00733465 0.007,-0.0133346 0.00733465,-0.0163307l-0.0796614 -0.0796614c-0.003,0.000334646 -0.009,0.00233465 -0.0163346,0.00733465l-0.0979882 0.0676614c-0.0253346,0.0176654 -0.0586614,0.019 -0.0853307,0.00366535 -0.0406614,-0.0233307 -0.0839921,-0.0413307 -0.129323,-0.0536614 -0.0299961,-0.008 -0.0523307,-0.0326654 -0.0579961,-0.0629961l-0.0213307 -0.116992c-0.00166535,-0.00866535 -0.00466535,-0.0143307 -0.00633465,-0.0166614l-0.112992 0c-0.00166535,0.00233071 -0.00466535,0.00799606 -0.00633071,0.0166614l-0.0213346 0.116992c-0.00566535,0.0303307 -0.0279961,0.0549961 -0.0579961,0.0629961 -0.0449961,0.012 -0.0886575,0.0303307 -0.129323,0.0536614 -0.0266654,0.0153346 -0.0599961,0.014 -0.0853268,-0.00366535l-0.0976614 -0.0676614c-0.00733071,-0.005 -0.0133307,-0.007 -0.0163307,-0.00733465l-0.0796614 0.0796614c0.000334646,0.00299606 0.00233465,0.00899606 0.00733465,0.0163307l0.0676614 0.0976575c0.0176654,0.0253346 0.019,0.0586614 0.00366535,0.0853307 -0.0233307,0.0406614 -0.0413268,0.0839921 -0.0536614,0.129323 -0.00799606,0.0299961 -0.0326654,0.0523307 -0.0629961,0.0579961l-0.116988 0.0213307c-0.00866929,0.00166535 -0.0143346,0.00466535 -0.0166654,0.00633465l0 0.112992c0.00233071,0.00166535 0.00799606,0.00466535 0.0166654,0.00633071l0.116988 0.0213346c0.0303307,0.00566535 0.055,0.0279961 0.0629961,0.0579961 0.012,0.0449961 0.0303307,0.0886575 0.0536614,0.129323 0.0153346,0.0266654 0.014,0.0599961 -0.00366535,0.0853268l-0.0676614 0.0976614c-0.00499606,0.00733071 -0.007,0.0133307 -0.00733465,0.0163307l0.0796614 0.0796614c0.003,-0.000334646 0.009,-0.00233465 0.0163307,-0.00733465l0.0979921 -0.0676614c0.0253346,-0.0176654 0.0586614,-0.019 0.0853307,-0.00366535 0.0406614,0.0233307 0.0839921,0.0413268 0.129323,0.0536614 0.0299961,0.008 0.0523307,0.0326654 0.0579961,0.0629961l0.0213307 0.116992c0.00166929,0.00933071 0.00466929,0.0146614 0.00633465,0.0169961z"/>
  <path class="fil6" d="M4.81189 3.18335c0.0803268,0 0.144988,0.0596614 0.160984,0.147992l0.0126693 0.0693268c0.0246654,0.00866535 0.0489961,0.0186654 0.0726614,0.0299961l0.0579961 -0.0399961c0.0739921,-0.0513307 0.161988,-0.0476614 0.21865,0.00933465l0.0836614 0.0836575c0.0566614,0.0566614 0.0603268,0.144657 0.00933071,0.21865l-0.0399961 0.0579961c0.0113307,0.0236654 0.0213307,0.0479961 0.0299961,0.0726614l0.0693307 0.0126693c0.0886575,0.016 0.147988,0.0806575 0.147988,0.160984l0 0.117992c0,0.0803268 -0.0596614,0.144992 -0.147988,0.160988l-0.0693307 0.0126654c-0.00866535,0.0246654 -0.0186654,0.049 -0.0299961,0.0726614l0.0399961 0.058c0.0513307,0.0739921 0.0476654,0.161984 -0.00933071,0.21865l-0.0836614 0.0836575c-0.0566614,0.0566614 -0.144657,0.0603307 -0.21865,0.00933465l-0.0579961 -0.04c-0.0236654,0.0113346 -0.0479961,0.0213346 -0.0726614,0.03l-0.0126693 0.0693268c-0.0159961,0.0886575 -0.0809882,0.147984 -0.160984,0.147984l-0.117988 0c-0.0803268,0 -0.144992,-0.0596614 -0.160988,-0.147988l-0.0126654 -0.0693307c-0.0246654,-0.00866535 -0.049,-0.0186654 -0.0726614,-0.0299961l-0.058 0.0399961c-0.0739921,0.0513307 -0.161984,0.0476654 -0.21865,-0.00933071l-0.0836575 -0.0836614c-0.0566614,-0.0566614 -0.0603307,-0.144657 -0.00933465,-0.21865l0.04 -0.0579961c-0.0113346,-0.0236654 -0.0213346,-0.0479961 -0.03,-0.0726614l-0.0693268 -0.0126654c-0.0886575,-0.016 -0.147992,-0.0806614 -0.147992,-0.160988l0 -0.117992c0,-0.0803268 0.0596654,-0.144992 0.147992,-0.160988l0.0693268 -0.0126654c0.00866535,-0.0246654 0.0186654,-0.0489961 0.03,-0.0726614l-0.04 -0.0579961c-0.0513307,-0.0739961 -0.0476614,-0.161988 0.00933465,-0.21865l0.0836575 -0.0836614c0.0566654,-0.0566614 0.144657,-0.0603307 0.21865,-0.00933465l0.058 0.04c0.0236614,-0.0113307 0.0479961,-0.0213307 0.0726614,-0.03l0.0126654 -0.0693268c0.016,-0.0886575 0.0806614,-0.147988 0.160988,-0.147988l0.117988 3.93701e-006zm-0.886657 1.54569c0.189374,0.235776 0.477331,0.389138 0.800642,0.397161l0.026685 0c0.0023937,0 0.00475984,0.000102362 0.00709843,0.000307087 0.58137,-0.00383071 1.05349,-0.477976 1.05349,-1.06056 0,-0.584957 -0.47563,-1.06025 -1.06059,-1.06025 -0.422319,0 -0.787933,0.248201 -0.95839,0.606516 -0.000740157,0.00172441 -0.00153937,0.00341339 -0.00239764,0.00507087 -0.0569882,0.121461 -0.0916102,0.255425 -0.0985157,0.396563 -2.3622e-005,0.00069685 -5.90551e-005,0.00138976 -9.84252e-005,0.00208268 -0.000783465,0.016689 -0.0011811,0.0334764 -0.0011811,0.0503543 0,0.119488 0.0198583,0.234398 0.0564488,0.341618 0.00201575,0.00442126 0.00364567,0.00905512 0.00483858,0.0138701 0.0392205,0.109878 0.0960827,0.211429 0.167161,0.301244 0.00169685,0.00192913 0.00329921,0.00394094 0.00480709,0.00602756z"/>
 </g>
</svg>
