<?xml version="1.0" encoding="UTF-8"?>
<!DOCTYPE svg PUBLIC "-//W3C//DTD SVG 1.1//EN" "http://www.w3.org/Graphics/SVG/1.1/DTD/svg11.dtd">
<!-- Creator: CorelDRAW -->
<svg xmlns="http://www.w3.org/2000/svg" xml:space="preserve" width="6.82666in" height="6.82666in" style="shape-rendering:geometricPrecision; text-rendering:geometricPrecision; image-rendering:optimizeQuality; fill-rule:evenodd; clip-rule:evenodd"
viewBox="0 0 6.82666 6.82666"
 xmlns:xlink="http://www.w3.org/1999/xlink">
 <defs>
  <style type="text/css">
   <![CDATA[
    .fil0 {fill:none}
    .fil1 {fill:#0065A3}
    .fil2 {fill:#333333}
    .fil4 {fill:#33DDFE}
    .fil3 {fill:#98EDFE}
   ]]>
  </style>
 </defs>
 <rect class="fil0" width="6.82666" height="6.82666"/>
 <g id="Layer_x0020_1">
  <metadata id="CorelCorpID_0Corel-Layer"/>
  <path class="fil1" d="M4.85688 2.55189c-0.0385591,0 -0.0706614,-0.0321378 -0.0706614,-0.0706575l0 -0.0703307 0.709618 0 0 0.0703307c0,0.038563 -0.0321378,0.0706575 -0.0706614,0.0706575l-0.568295 0zm0.982594 1.86719l0 0.221654c0,0.0971929 -0.0791063,0.176319 -0.176319,0.176319l-1.04459 -3.93701e-006c-0.0971929,0 -0.176319,-0.0791063 -0.176319,-0.176319l0 -0.22165 1.39722 0zm-0.654949 0.252311c0.0296102,0 0.0533268,-0.0237165 0.0533268,-0.0533268 0,-0.0296102 -0.0237165,-0.0533268 -0.0533268,-0.0533268l-0.0873268 0c-0.0296102,0 -0.0533268,0.0237165 -0.0533268,0.0533268 0,0.0296102 0.0237165,0.0533268 0.0533268,0.0533268l0.0873268 0zm-0.282646 0c0.0294409,0 0.0533268,-0.023874 0.0533268,-0.0533268 0,-0.0296102 -0.0237165,-0.0533268 -0.0533268,-0.0533268l-0.0873228 0c-0.0296102,0 -0.0533268,0.0237165 -0.0533268,0.0533268 0,0.0296102 0.0237165,0.0533268 0.0533268,0.0533268l0.0873228 0zm0.565626 0c0.0296102,0 0.0533268,-0.0237165 0.0533268,-0.0533268 0,-0.0296102 -0.0237165,-0.0533268 -0.0533268,-0.0533268l-0.0873268 0c-0.0296102,0 -0.0533268,0.0237165 -0.0533268,0.0533268 0,0.0296102 0.0237165,0.0533268 0.0533268,0.0533268l0.0873268 0zm-1.13158 -0.0303307c0,0.0478386 0.0119882,0.0945551 0.0351496,0.136417l0.0218898 0.0395748 -0.423016 0 0 -0.29065c0,-0.0296063 -0.0237165,-0.0533268 -0.0533268,-0.0533268l-1.66221 3.93701e-006c-0.0296102,0 -0.0533268,0.0237126 -0.0533268,0.0533268l3.93701e-006 0.290646 -0.716953 0c-0.274362,0 -0.497295,-0.222933 -0.497295,-0.497295 0,-0.0463819 0.0379488,-0.0843307 0.0843307,-0.0843307l3.26475 0 0 0.122965c0,0.00248031 -0.000330709,0.00495276 -0.000330709,0.0073622 0,0.00240945 0.000330709,0.00488189 0.000330709,0.0073622l0 0.267945z"/>
  <g id="_438202112">
   <g>
    <g id="_511970040">
     <path id="_438204128" class="fil2" d="M1.23117 4.2621c-0.0443307,0 -0.0799921,-0.0356614 -0.0799921,-0.0799921l0 -1.83886c0,-0.121323 0.0466614,-0.236646 0.131319,-0.324307 0.0846614,-0.0876614 0.197654,-0.138323 0.318311,-0.142988 0.001,0 0.002,0 0.003,0l2.96311 0c0.001,0 0.002,0 0.003,0 0.120657,0.00466535 0.23365,0.0553307 0.318307,0.142988 0.0849961,0.0876614 0.131657,0.202984 0.131657,0.324307l0 0.014c0,0.0443268 -0.0356614,0.0799921 -0.0799921,0.0799921 -0.0443307,0 -0.0799921,-0.0356654 -0.0799921,-0.0799921l-3.93701e-006 -0.014c0,-0.162988 -0.131992,-0.300646 -0.294646,-0.307642l-2.95977 0c-0.162654,0.007 -0.294646,0.144657 -0.294646,0.307642l0 1.83886c0.000334646,0.0443307 -0.0356614,0.0799921 -0.0796575,0.0799921z"/>
    </g>
    <g id="_511969656">
     <path id="_438204464" class="fil2" d="M4.61857 4.95071l-3.13443 0c-0.167988,0 -0.325972,-0.0656614 -0.44563,-0.185319 -0.119657,-0.119657 -0.184988,-0.277646 -0.184988,-0.44563 0,-0.119992 0.0976575,-0.21765 0.21765,-0.21765l3.31775 -3.93701e-006c0.0443268,0 0.0799921,0.0356654 0.0799921,0.0799921 0,0.0443307 -0.0356654,0.0799961 -0.0799921,0.0799961l-3.31775 0c-0.0316654,0 -0.0576654,0.026 -0.0576654,0.0576654 0,0.259646 0.210984,0.47063 0.47063,0.47063l3.13443 0c0.0443307,0 0.0799961,0.0356614 0.0799961,0.0799921 0,0.0443307 -0.0356654,0.0803268 -0.0799961,0.0803268z"/>
    </g>
    <g id="_511970232">
     <path id="_438204512" class="fil2" d="M3.91663 4.95071c-0.0443307,0 -0.0799921,-0.0356614 -0.0799921,-0.0799921l0 -0.264315 -1.50222 0 0 0.264315c0,0.0443307 -0.0356654,0.0799921 -0.0799921,0.0799921 -0.0443307,0 -0.0799921,-0.0356614 -0.0799921,-0.0799921l-3.93701e-006 -0.344307c0,-0.0443307 0.0356614,-0.0799921 0.0799921,-0.0799921l1.66221 -3.93701e-006c0.0443268,0 0.0799921,0.0356654 0.0799921,0.0799921l0 0.344307c0,0.044 -0.0359961,0.0799961 -0.0799921,0.0799961z"/>
    </g>
    <g id="_511969680">
     <path id="_438204608" class="fil2" d="M5.66349 4.95071l-1.04459 0c-0.170654,0 -0.309642,-0.138992 -0.309642,-0.309646l0 -2.05384c0,-0.170654 0.138988,-0.309646 0.309642,-0.309646l1.04459 0c0.170654,0 0.309642,0.138992 0.309642,0.309646l0 2.05351c0,0.17098 -0.138988,0.309972 -0.309642,0.309972zm-1.04492 -2.51314c-0.0826575,0 -0.149654,0.0673268 -0.149654,0.149654l0 2.05351c0,0.0826575 0.0673307,0.149654 0.149654,0.149654l1.04459 3.93701e-006c0.0826575,0 0.149654,-0.0673307 0.149654,-0.149654l0 -2.05351c0,-0.0826614 -0.0673268,-0.149657 -0.149654,-0.149657l-1.04459 0z"/>
    </g>
    <g id="_511970112">
     <path id="_438203240" class="fil2" d="M5.89314 4.44575l-1.50422 0c-0.0443307,0 -0.0799921,-0.0356614 -0.0799921,-0.0799921 0,-0.0443307 0.0356614,-0.0799921 0.0799921,-0.0799921l1.50422 -3.93701e-006c0.0443307,0 0.0799921,0.0356654 0.0799921,0.0799921 0,0.0443307 -0.0359961,0.0799961 -0.0799921,0.0799961z"/>
    </g>
    <g>
     <g id="_511969824">
      <path id="_438203168" class="fil2" d="M4.90188 4.69806l-0.0873228 0c-0.0443307,0 -0.0799921,-0.0356614 -0.0799921,-0.0799921 0,-0.0443268 0.0356614,-0.0799921 0.0799921,-0.0799921l0.0873228 0c0.0443307,0 0.0799921,0.0356654 0.0799921,0.0799921 0,0.0443307 -0.0359921,0.0799921 -0.0799921,0.0799921z"/>
     </g>
     <g id="_511969800">
      <path id="_438203552" class="fil2" d="M5.18453 4.69806l-0.0873268 0c-0.0443307,0 -0.0799921,-0.0356614 -0.0799921,-0.0799921 0,-0.0443268 0.0356614,-0.0799921 0.0799921,-0.0799921l0.0873268 0c0.0443307,0 0.0799921,0.0356654 0.0799921,0.0799921 0,0.0443307 -0.0356614,0.0799921 -0.0799921,0.0799921z"/>
     </g>
     <g id="_511971072">
      <path id="_438203744" class="fil2" d="M5.46751 4.69806l-0.0873268 0c-0.0443307,0 -0.0799921,-0.0356614 -0.0799921,-0.0799921 0,-0.0443268 0.0356614,-0.0799921 0.0799921,-0.0799921l0.0873268 0c0.0443307,0 0.0799921,0.0356654 0.0799921,0.0799921 0,0.0443307 -0.0356614,0.0799921 -0.0799921,0.0799921z"/>
     </g>
    </g>
    <g id="_511971000">
     <path id="_438203672" class="fil2" d="M5.42518 2.68522l-0.568291 0c-0.112327,0 -0.203984,-0.0913307 -0.203984,-0.203984l0 -0.123992c0,-0.0443307 0.0356614,-0.0799961 0.0799921,-0.0799961 0.0443307,0 0.0799921,0.0356654 0.0799921,0.0799961l0 0.123992c0,0.0236614 0.02,0.0439921 0.0439961,0.0439921l0.568295 0c0.0236654,0 0.0439961,-0.0199961 0.0439961,-0.0439921l0 -0.123992c0,-0.0443307 0.0356654,-0.0799961 0.0799921,-0.0799961 0.0443307,0 0.0799921,0.0356654 0.0799921,0.0799961l0 0.123992c3.93701e-006,0.112654 -0.0913228,0.203984 -0.20398,0.203984z"/>
    </g>
    <g>
     <g id="_511969776">
      <path id="_438203048" class="fil2" d="M2.22609 3.04352l-0.389969 0c-0.0686614,0 -0.124657,-0.0559961 -0.124657,-0.124657l0 -0.389969c0,-0.0686614 0.0559961,-0.124657 0.124657,-0.124657l0.389969 0c0.0686614,0 0.124657,0.0559961 0.124657,0.124657l0 0.389969c-0.000330709,0.0686614 -0.0559961,0.124657 -0.124657,0.124657zm-0.354638 -0.159984l0.319311 0 0 -0.319311 -0.319311 0 0 0.319311zm0.354638 -0.319311l0 0 0 0z"/>
     </g>
     <g id="_511970544">
      <path id="_438202544" class="fil2" d="M2.22609 3.8458l-0.389969 0c-0.0686614,0 -0.124657,-0.0559961 -0.124657,-0.124657l0 -0.389969c0,-0.0686614 0.0559961,-0.124657 0.124657,-0.124657l0.389969 -3.93701e-006c0.0686614,0 0.124657,0.0559961 0.124657,0.124657l0 0.389969c-0.000330709,0.0686614 -0.0559961,0.124661 -0.124657,0.124661zm-0.354638 -0.159988l0.319311 0 0 -0.319311 -0.319311 0 0 0.319311zm0.354638 -0.319311l0 0 0 0z"/>
     </g>
     <g>
      <g id="_511970664">
       <path id="_438202904" class="fil2" d="M3.65831 2.66456l-0.94426 0c-0.0443307,0 -0.0799961,-0.0356654 -0.0799961,-0.0799921 0,-0.0443307 0.0356654,-0.0799961 0.0799961,-0.0799961l0.94426 0c0.0443307,0 0.0799921,0.0356614 0.0799921,0.0799921 0,0.0443307 -0.0356614,0.0799961 -0.0799921,0.0799961z"/>
      </g>
      <g id="_511970568">
       <path id="_438202424" class="fil2" d="M3.65831 3.46683l-0.94426 0c-0.0443307,0 -0.0799961,-0.0356654 -0.0799961,-0.0799921 0,-0.0443307 0.0356654,-0.0799961 0.0799961,-0.0799961l0.94426 0c0.0443307,0 0.0799921,0.0356614 0.0799921,0.0799921 3.93701e-006,0.0443307 -0.0356614,0.0799961 -0.0799921,0.0799961z"/>
      </g>
      <g id="_511970592">
       <path id="_438202928" class="fil2" d="M3.82863 2.9432l-1.11858 0c-0.0443268,0 -0.0799921,-0.0356654 -0.0799921,-0.0799921 0,-0.0443307 0.0356654,-0.0799961 0.0799921,-0.0799961l1.11858 0c0.0443307,0 0.0799921,0.0356614 0.0799921,0.0799921 0,0.0443268 -0.0356575,0.0799961 -0.0799921,0.0799961z"/>
      </g>
      <g id="_511970904">
       <path id="_438202328" class="fil2" d="M3.82863 3.74547l-1.11858 0c-0.0443268,0 -0.0799921,-0.0356654 -0.0799921,-0.0799961 0,-0.0443268 0.0356654,-0.0799921 0.0799921,-0.0799921l1.11858 0c0.0443307,0 0.0799921,0.0356654 0.0799921,0.0799921 0,0.0443307 -0.0356575,0.0799961 -0.0799921,0.0799961z"/>
      </g>
     </g>
    </g>
   </g>
  </g>
  <path class="fil3" d="M4.46892 2.58722l0 1.59488 0 0.103665 1.34389 -3.93701e-006 0 -1.69854c0,-0.0826614 -0.0673268,-0.149657 -0.149654,-0.149657l-0.034 0 0 0.0436654c3.93701e-006,0.112654 -0.0913228,0.203984 -0.20398,0.203984l-0.568291 0c-0.112327,0 -0.203984,-0.0913307 -0.203984,-0.203984l0 -0.0436654 -0.0343307 0c-0.0826575,0 -0.149654,0.0673268 -0.149654,0.149654z"/>
  <polygon class="fil3" points="3.83663,4.79039 3.83663,4.60641 2.33441,4.60641 2.33441,4.79039 "/>
  <path class="fil3" d="M3.82863 3.58548c0.0443307,0 0.0799921,0.0356654 0.0799921,0.0799921 0,0.0443307 -0.0356575,0.0799961 -0.0799921,0.0799961l-1.11858 0c-0.0443268,0 -0.0799921,-0.0356654 -0.0799921,-0.0799961 0,-0.0443268 0.0356654,-0.0799921 0.0799921,-0.0799921l1.11858 0zm-2.51781 0.51663l2.99844 -3.93701e-006 0 -1.51488c0,-0.170654 0.138988,-0.309646 0.309642,-0.309646l0.106583 0c0.00243701,-0.000220472 0.00490945,-0.000334646 0.00740551,-0.000334646 0.00249606,0 0.0049685,0.000114173 0.00740551,0.000334646l0.112331 0c-0.0297047,-0.132783 -0.14715,-0.235949 -0.28739,-0.24198l-2.95977 0c-0.162654,0.007 -0.294646,0.144657 -0.294646,0.307642l0 1.75887zm1.39923 -1.3189l1.11858 0c0.0443307,0 0.0799921,0.0356614 0.0799921,0.0799921 0,0.0443268 -0.0356575,0.0799961 -0.0799921,0.0799961l-1.11858 0c-0.0443268,0 -0.0799921,-0.0356654 -0.0799921,-0.0799921 0,-0.0443307 0.0356654,-0.0799961 0.0799921,-0.0799961zm0.004 0.523626l0.94426 0c0.0443307,0 0.0799921,0.0356614 0.0799921,0.0799921 3.93701e-006,0.0443307 -0.0356614,0.0799961 -0.0799921,0.0799961l-0.94426 0c-0.0443307,0 -0.0799961,-0.0356654 -0.0799961,-0.0799921 0,-0.0443307 0.0356654,-0.0799961 0.0799961,-0.0799961zm0.94426 -0.642283l-0.94426 0c-0.0443307,0 -0.0799961,-0.0356654 -0.0799961,-0.0799921 0,-0.0443307 0.0356654,-0.0799961 0.0799961,-0.0799961l0.94426 0c0.0443307,0 0.0799921,0.0356614 0.0799921,0.0799921 0,0.0443307 -0.0356614,0.0799961 -0.0799921,0.0799961zm-1.30757 0.666614l0 0.389969c-0.000330709,0.0686614 -0.0559961,0.124661 -0.124657,0.124661l-0.389969 0c-0.0686614,0 -0.124657,-0.0559961 -0.124657,-0.124657l0 -0.389969c0,-0.0686614 0.0559961,-0.124657 0.124657,-0.124657l0.389969 -3.93701e-006c0.0686614,0 0.124657,0.0559961 0.124657,0.124657zm0 -0.412303c-0.000330709,0.0686614 -0.0559961,0.124657 -0.124657,0.124657l-0.389969 0c-0.0686614,0 -0.124657,-0.0559961 -0.124657,-0.124657l0 -0.389969c0,-0.0686614 0.0559961,-0.124657 0.124657,-0.124657l0.389969 0c0.0686614,0 0.124657,0.0559961 0.124657,0.124657l0 0.389969z"/>
  <polygon class="fil4" points="2.19076,2.88354 2.19076,2.56423 1.87145,2.56423 1.87145,2.88354 "/>
  <polygon class="fil4" points="2.19076,3.3665 1.87145,3.3665 1.87145,3.68581 2.19076,3.68581 "/>
 </g>
</svg>
