<?xml version="1.0" encoding="UTF-8"?>
<!DOCTYPE svg PUBLIC "-//W3C//DTD SVG 1.1//EN" "http://www.w3.org/Graphics/SVG/1.1/DTD/svg11.dtd">
<!-- Creator: CorelDRAW -->
<svg xmlns="http://www.w3.org/2000/svg" xml:space="preserve" width="6.82666in" height="6.82666in" style="shape-rendering:geometricPrecision; text-rendering:geometricPrecision; image-rendering:optimizeQuality; fill-rule:evenodd; clip-rule:evenodd"
viewBox="0 0 6.82666 6.82666"
 xmlns:xlink="http://www.w3.org/1999/xlink">
 <defs>
  <style type="text/css">
   <![CDATA[
    .fil0 {fill:none}
    .fil1 {fill:#0065A3}
    .fil2 {fill:#333333}
    .fil3 {fill:#98EDFE}
    .fil4 {fill:#CCCCCC}
   ]]>
  </style>
 </defs>
 <rect class="fil0" width="6.82666" height="6.82666"/>
 <g id="Layer_x0020_1">
  <metadata id="CorelCorpID_0Corel-Layer"/>
  <path class="fil1" d="M4.19327 5.0402l0 0.376638 -1.55988 3.93701e-006 0 -0.376642 1.55988 0zm-1.66654 0.376642l-0.958594 0c-0.320531,0 -0.581291,-0.26078 -0.581291,-0.581291 0,-0.0580472 0.0472795,-0.105327 0.105327,-0.105327l4.64231 -3.93701e-006c0.0580472,0 0.105327,0.0472795 0.105327,0.105327 0,0.320531 -0.260776,0.581291 -0.581287,0.581291l-0.958594 0 0 -0.429969c0,-0.0296102 -0.0237205,-0.0533268 -0.0533307,-0.0533268l-1.66654 -3.93701e-006c-0.0296142,0 -0.0533307,0.0237205 -0.0533307,0.0533307l0 0.429972z"/>
  <path class="fil2" d="M5.25852 5.55017l-3.69039 0c-0.190319,0 -0.369303,-0.0746614 -0.504626,-0.209984 -0.135323,-0.135323 -0.209984,-0.314642 -0.209984,-0.50463 0,-0.131654 0.106988,-0.238646 0.238646,-0.238646l0.184323 0 4.27367 0 0.184323 0c0.131657,0 0.238646,0.106992 0.238646,0.238646 0,0.190323 -0.0746614,0.369307 -0.209984,0.50463 -0.135323,0.135657 -0.314307,0.209984 -0.504626,0.209984zm-4.16635 -0.793272c-0.0433307,0 -0.0786614,0.0353307 -0.0786614,0.0786614 0,0.305642 0.24865,0.554626 0.554626,0.554626l3.69039 -3.93701e-006c0.305642,0 0.554622,-0.24865 0.554622,-0.554626 0,-0.0433307 -0.0353307,-0.0786614 -0.0786614,-0.0786614l-0.184319 0 -4.27367 3.93701e-006 -0.184323 0z"/>
  <path class="fil2" d="M5.55017 4.75689c-0.0443268,0 -0.0799921,-0.0356654 -0.0799921,-0.0799921l0 -2.11884c0,-0.194319 -0.157323,-0.358303 -0.351307,-0.366638l-0.422969 0c-0.0443268,0 -0.0799921,-0.0356614 -0.0799921,-0.0799921 0,-0.0443268 0.0356654,-0.0799921 0.0799921,-0.0799921l0.424634 -3.93701e-006c0.001,0 0.002,0 0.003,0 0.135992,0.00533465 0.263315,0.0626614 0.358638,0.160988 0.0953268,0.0989921 0.147992,0.22865 0.147992,0.365303l0 2.11884c0,0.0446654 -0.0356654,0.0803307 -0.0799961,0.0803307zm-4.27367 0c-0.0443307,0 -0.0799961,-0.0356654 -0.0799961,-0.0799921l0 -2.11884c0,-0.136654 0.0526614,-0.266646 0.147992,-0.365303 0.0953228,-0.0986614 0.22265,-0.155988 0.358638,-0.161323 0.001,0 0.002,0 0.003,0l0.424634 0c0.0443268,0 0.0799921,0.0356654 0.0799921,0.0799921 0,0.0443307 -0.0356654,0.0799961 -0.0799921,0.0799961l-0.422969 0c-0.193984,0.00833465 -0.351307,0.172323 -0.351307,0.366642l0 2.11884c0,0.0443268 -0.0359961,0.0799921 -0.0799921,0.0799921z"/>
  <path class="fil2" d="M3.41333 4.36959c-0.20865,0 -0.411303,-0.0409961 -0.601953,-0.121657 -0.184323,-0.0779921 -0.349642,-0.189319 -0.49163,-0.331311 -0.141988,-0.141988 -0.253646,-0.307307 -0.331307,-0.491626 -0.0806614,-0.190654 -0.121654,-0.393307 -0.121654,-0.601957 0,-0.20865 0.0409921,-0.411303 0.121654,-0.601953 0.0779961,-0.184319 0.189319,-0.349638 0.331307,-0.49163 0.141992,-0.141988 0.307307,-0.253646 0.49163,-0.331307 0.19065,-0.0806575 0.393303,-0.121654 0.601953,-0.121654 0.20865,0 0.411303,0.0409961 0.601953,0.121654 0.184323,0.0779961 0.349638,0.189319 0.49163,0.331307 0.141988,0.141992 0.253646,0.307311 0.331307,0.49163 0.0806614,0.19065 0.121654,0.393303 0.121654,0.601953 0,0.20865 -0.0409921,0.411303 -0.121654,0.601957 -0.0779961,0.184319 -0.189319,0.349638 -0.331307,0.491626 -0.141992,0.141992 -0.307307,0.25365 -0.49163,0.331307 -0.19065,0.0806654 -0.393303,0.121661 -0.601953,0.121661zm0 -2.93311c-0.76461,0 -1.38656,0.621953 -1.38656,1.38656 0,0.76461 0.621953,1.38656 1.38656,1.38656 0.76461,0 1.38656,-0.621957 1.38656,-1.38656 0,-0.764606 -0.621949,-1.38656 -1.38656,-1.38656z"/>
  <path class="fil2" d="M3.48933 3.93429l-0.151992 0c-0.0916575,0 -0.165988,-0.0689921 -0.18465,-0.171654l-0.0186654 -0.102327c-0.0396654,-0.0133307 -0.0779961,-0.0293307 -0.115327,-0.0479961l-0.0856614 0.0593307c-0.0856575,0.0593268 -0.186984,0.0556575 -0.25198,-0.00933465l-0.107323 -0.107323c-0.0649961,-0.0649961 -0.0686614,-0.165992 -0.00933465,-0.251984l0.0593307 -0.0853268c-0.0186654,-0.0373307 -0.0346654,-0.0759961 -0.0479961,-0.115657l-0.102327 -0.0186654c-0.102661,-0.0186654 -0.171654,-0.0926575 -0.171654,-0.18465l0 -0.151988c0,-0.0916575 0.0689921,-0.165988 0.171654,-0.184654l0.102327 -0.0186654c0.0133307,-0.0396654 0.0293307,-0.0779921 0.0479961,-0.115657l-0.0593307 -0.0856575c-0.0593268,-0.0856575 -0.0556614,-0.186988 0.00933465,-0.25198l0.107323 -0.107327c0.0649961,-0.0649921 0.165988,-0.0686614 0.25198,-0.00933071l0.0856614 0.0593268c0.0373307,-0.0186654 0.0759961,-0.0346614 0.115327,-0.0479961l0.0186654 -0.102327c0.0186654,-0.102657 0.0926575,-0.171654 0.18465,-0.171654l0.151992 0c0.0916575,0 0.165988,0.0689961 0.18465,0.171654l0.0186654 0.102327c0.0396654,0.0133346 0.0779961,0.0293307 0.115327,0.0479961l0.0856614 -0.0593268c0.0856575,-0.0593307 0.186984,-0.0556614 0.25198,0.00933071l0.107323 0.107327c0.0649961,0.0649921 0.0686614,0.165988 0.00933465,0.25198l-0.0593307 0.0853268c0.0186654,0.0373346 0.0346654,0.0759961 0.0479961,0.115657l0.102327 0.0186654c0.102661,0.0186654 0.171654,0.0926614 0.171654,0.184654l0 0.151988c0,0.0916575 -0.0689921,0.165988 -0.171654,0.18465l-0.102327 0.0186654c-0.0133307,0.0396654 -0.0293307,0.0779961 -0.0479961,0.115327l0.0593307 0.0856575c0.0593268,0.0856614 0.0556614,0.186988 -0.00933465,0.251984l-0.107323 0.107323c-0.0649961,0.0649921 -0.165988,0.0686614 -0.25198,0.00933465l-0.0853307 -0.0593307c-0.0373307,0.0186654 -0.0759961,0.0346654 -0.115657,0.0479961l-0.0186654 0.102327c-0.0186654,0.102992 -0.0929921,0.171984 -0.18465,0.171984zm-0.475969 -0.495626c0.0136654,0 0.0276654,0.00366535 0.04,0.0106654 0.0539961,0.0309961 0.111657,0.0549961 0.171654,0.0713268 0.03,0.008 0.0523307,0.0326654 0.0579961,0.0629961l0.0273307 0.150323c0.00266929,0.0139961 0.0113346,0.0403307 0.0273346,0.0403307l0.151988 0c0.0156654,0 0.0246654,-0.0263307 0.0273307,-0.0403307l0.0273307 -0.150323c0.00566535,-0.0303307 0.028,-0.0549961 0.0579961,-0.0629961 0.0599961,-0.016 0.117657,-0.04 0.171654,-0.0713268 0.0266654,-0.0153346 0.0599961,-0.014 0.0853307,0.00366535l0.125657 0.0869961c0.0116654,0.00799606 0.0366614,0.0203307 0.0476614,0.00933071l0.107323 -0.107323c0.011,-0.011 -0.001,-0.036 -0.00933071,-0.0476654l-0.0873307 -0.125992c-0.0176654,-0.0253307 -0.019,-0.0586614 -0.00366929,-0.0853268 0.031,-0.0539961 0.055,-0.111661 0.0713307,-0.171657 0.00799606,-0.0299961 0.0326614,-0.0523307 0.0629921,-0.0579961l0.150323 -0.0273307c0.014,-0.00266535 0.0403307,-0.0113307 0.0403307,-0.0273307l0 -0.151988c0,-0.0156654 -0.0263307,-0.0246654 -0.0403307,-0.0273307l-0.150323 -0.0273307c-0.0303307,-0.00566929 -0.0549961,-0.028 -0.0629921,-0.058 -0.016,-0.0599921 -0.04,-0.117657 -0.0713307,-0.171654 -0.0153307,-0.0266654 -0.0139961,-0.0599961 0.00366929,-0.0853268l0.0869921 -0.125657c0.008,-0.0116654 0.0203307,-0.0366654 0.00933465,-0.0476614l-0.107327 -0.106988c-0.0109961,-0.0109961 -0.0359961,0.00100394 -0.0476614,0.00933465l-0.125657 0.0869921c-0.0253307,0.0176654 -0.0586614,0.019 -0.0853268,0.00366929 -0.0539961,-0.031 -0.111661,-0.0549961 -0.171654,-0.0713268 -0.03,-0.008 -0.0523307,-0.0326654 -0.058,-0.0629961l-0.0273307 -0.150323c-0.00266535,-0.014 -0.0113307,-0.0403307 -0.0273307,-0.0403307l-0.151988 0c-0.0156654,0 -0.0246654,0.0263307 -0.0273307,0.0403307l-0.0273307 0.150323c-0.00566535,0.0303307 -0.028,0.0549961 -0.0579961,0.0629961 -0.0599961,0.016 -0.117661,0.0399961 -0.171657,0.0713268 -0.0266614,0.0153307 -0.0599921,0.0139961 -0.0853268,-0.00366929l-0.125657 -0.0869921c-0.0116654,-0.008 -0.0366654,-0.0203307 -0.0476614,-0.00933465l-0.107327 0.107327c-0.0109961,0.0109961 0.00100394,0.0359961 0.00933465,0.0476614l0.0869921 0.125657c0.0176654,0.0253346 0.019,0.0586614 0.00366929,0.0853268 -0.031,0.0539961 -0.0549961,0.111661 -0.0713268,0.171657 -0.008,0.0299961 -0.0326654,0.0523307 -0.0629961,0.0579961l-0.150323 0.0273307c-0.0139961,0.00266535 -0.0403307,0.0113307 -0.0403307,0.0273307l0 0.151988c0,0.0156654 0.0263307,0.0246654 0.0403307,0.0273307l0.150323 0.0273346c0.0303307,0.00566535 0.0549961,0.0279961 0.0629961,0.0579961 0.016,0.0599961 0.0399961,0.117657 0.0713268,0.171654 0.0153307,0.0266654 0.0139961,0.0599961 -0.00366929,0.0853268l-0.0869921 0.125657c-0.008,0.0116654 -0.0203307,0.0366654 -0.00933465,0.0476614l0.107327 0.107327c0.0109961,0.0109961 0.0359961,-0.001 0.0476614,-0.00933465l0.125657 -0.0869921c0.0140039,-0.00966929 0.0296693,-0.0143346 0.0456654,-0.0143346z"/>
  <path class="fil2" d="M3.41333 3.29934c-0.262646,0 -0.476295,-0.213654 -0.476295,-0.476299 0,-0.262646 0.21365,-0.476295 0.476295,-0.476295 0.262646,0 0.476295,0.21365 0.476295,0.476295 0,0.262646 -0.21365,0.476299 -0.476295,0.476299zm0 -0.79261c-0.174319,0 -0.316307,0.141992 -0.316307,0.316311 0,0.174319 0.141988,0.316307 0.316307,0.316307 0.174319,0 0.316307,-0.141992 0.316307,-0.316307 0,-0.174654 -0.141988,-0.316311 -0.316307,-0.316311z"/>
  <path class="fil2" d="M4.2466 5.55017c-0.0443268,0 -0.0799921,-0.0356614 -0.0799921,-0.0799921l0 -0.403303 -1.50655 0 0 0.403299c0,0.0443307 -0.0356654,0.0799921 -0.0799921,0.0799921 -0.0443307,0 -0.0799961,-0.0356614 -0.0799961,-0.0799921l0 -0.483295c0,-0.0443307 0.0356654,-0.0799961 0.0799961,-0.0799961l1.66654 3.93701e-006c0.0443307,0 0.0799961,0.0356654 0.0799961,0.0799921l0 0.483299c0,0.0443307 -0.0356654,0.0799921 -0.0799961,0.0799921z"/>
  <path class="fil3" d="M1.35649 4.59691l4.11369 0 0 -2.03885c0,-0.194319 -0.157323,-0.358303 -0.351307,-0.366638l-0.293512 0c0.00438583,0.00983071 0.00867717,0.0197205 0.0128661,0.0296654 0.0806614,0.19065 0.121654,0.393303 0.121654,0.601953 0,0.20865 -0.0409921,0.411303 -0.121654,0.601957 -0.0779961,0.184319 -0.189319,0.349638 -0.331307,0.491626 -0.141992,0.141992 -0.307307,0.25365 -0.49163,0.331307 -0.19065,0.0806654 -0.393303,0.121661 -0.601953,0.121661 -0.20865,0 -0.411303,-0.0409961 -0.601953,-0.121657 -0.184323,-0.0779921 -0.349642,-0.189319 -0.49163,-0.331311 -0.141988,-0.141988 -0.253646,-0.307307 -0.331307,-0.491626 -0.0806614,-0.190654 -0.121654,-0.393307 -0.121654,-0.601957 0,-0.20865 0.0409921,-0.411303 0.121654,-0.601953 0.00420866,-0.00994488 0.00851181,-0.0198307 0.0129134,-0.0296654l-0.293559 0c-0.193984,0.00833465 -0.351307,0.172323 -0.351307,0.366642l0 2.03884z"/>
  <path class="fil3" d="M3.41333 4.2096c0.76461,0 1.38656,-0.621957 1.38656,-1.38656 0,-0.764606 -0.621949,-1.38656 -1.38656,-1.38656 -0.76461,0 -1.38656,0.621953 -1.38656,1.38656 0,0.76461 0.621953,1.38656 1.38656,1.38656zm0.260646 -0.447299c-0.0186654,0.102992 -0.0929921,0.171984 -0.18465,0.171984l-0.151992 0c-0.0916575,0 -0.165988,-0.0689921 -0.18465,-0.171654l-0.0186654 -0.102327c-0.0396654,-0.0133307 -0.0779961,-0.0293307 -0.115327,-0.0479961l-0.0856614 0.0593307c-0.0856575,0.0593268 -0.186984,0.0556575 -0.25198,-0.00933465l-0.107323 -0.107323c-0.0649961,-0.0649961 -0.0686614,-0.165992 -0.00933465,-0.251984l0.0593307 -0.0853268c-0.0186654,-0.0373307 -0.0346654,-0.0759961 -0.0479961,-0.115657l-0.102327 -0.0186654c-0.102661,-0.0186654 -0.171654,-0.0926575 -0.171654,-0.18465l0 -0.151988c0,-0.0916575 0.0689921,-0.165988 0.171654,-0.184654l0.102327 -0.0186654c0.0133307,-0.0396654 0.0293307,-0.0779921 0.0479961,-0.115657l-0.0593307 -0.0856575c-0.0593268,-0.0856575 -0.0556614,-0.186988 0.00933465,-0.25198l0.107323 -0.107327c0.0649961,-0.0649921 0.165988,-0.0686614 0.25198,-0.00933071l0.0856614 0.0593268c0.0373307,-0.0186654 0.0759961,-0.0346614 0.115327,-0.0479961l0.0186654 -0.102327c0.0186654,-0.102657 0.0926575,-0.171654 0.18465,-0.171654l0.151992 0c0.0916575,0 0.165988,0.0689961 0.18465,0.171654l0.0186654 0.102327c0.0396654,0.0133346 0.0779961,0.0293307 0.115327,0.0479961l0.0856614 -0.0593268c0.0856575,-0.0593307 0.186984,-0.0556614 0.25198,0.00933071l0.107323 0.107327c0.0649961,0.0649921 0.0686614,0.165988 0.00933465,0.25198l-0.0593307 0.0853268c0.0186654,0.0373346 0.0346654,0.0759961 0.0479961,0.115657l0.102327 0.0186654c0.102661,0.0186654 0.171654,0.0926614 0.171654,0.184654l0 0.151988c0,0.0916575 -0.0689921,0.165988 -0.171654,0.18465l-0.102327 0.0186654c-0.0133307,0.0396654 -0.0293307,0.0779961 -0.0479961,0.115327l0.0593307 0.0856575c0.0593268,0.0856614 0.0556614,0.186988 -0.00933465,0.251984l-0.107323 0.107323c-0.0649961,0.0649921 -0.165988,0.0686614 -0.25198,0.00933465l-0.0853307 -0.0593307c-0.0373307,0.0186654 -0.0759961,0.0346654 -0.115657,0.0479961l-0.0186654 0.102327z"/>
  <path class="fil4" d="M3.77397 3.44933c0.0266654,-0.0153346 0.0599961,-0.014 0.0853307,0.00366535l0.125657 0.0869961c0.0116654,0.00799606 0.0366614,0.0203307 0.0476614,0.00933071l0.107323 -0.107323c0.011,-0.011 -0.001,-0.036 -0.00933071,-0.0476654l-0.0873307 -0.125992c-0.0176654,-0.0253307 -0.019,-0.0586614 -0.00366929,-0.0853268 0.031,-0.0539961 0.055,-0.111661 0.0713307,-0.171657 0.00799606,-0.0299961 0.0326614,-0.0523307 0.0629921,-0.0579961l0.150323 -0.0273307c0.014,-0.00266535 0.0403307,-0.0113307 0.0403307,-0.0273307l0 -0.151988c0,-0.0156654 -0.0263307,-0.0246654 -0.0403307,-0.0273307l-0.150323 -0.0273307c-0.0303307,-0.00566929 -0.0549961,-0.028 -0.0629921,-0.058 -0.016,-0.0599921 -0.04,-0.117657 -0.0713307,-0.171654 -0.0153307,-0.0266654 -0.0139961,-0.0599961 0.00366929,-0.0853268l0.0869921 -0.125657c0.008,-0.0116654 0.0203307,-0.0366654 0.00933465,-0.0476614l-0.107327 -0.106988c-0.0109961,-0.0109961 -0.0359961,0.00100394 -0.0476614,0.00933465l-0.125657 0.0869921c-0.0253307,0.0176654 -0.0586614,0.019 -0.0853268,0.00366929 -0.0539961,-0.031 -0.111661,-0.0549961 -0.171654,-0.0713268 -0.03,-0.008 -0.0523307,-0.0326654 -0.058,-0.0629961l-0.0273307 -0.150323c-0.00266535,-0.014 -0.0113307,-0.0403307 -0.0273307,-0.0403307l-0.151988 0c-0.0156654,0 -0.0246654,0.0263307 -0.0273307,0.0403307l-0.0273307 0.150323c-0.00566535,0.0303307 -0.028,0.0549961 -0.0579961,0.0629961 -0.0599961,0.016 -0.117661,0.0399961 -0.171657,0.0713268 -0.0266614,0.0153307 -0.0599921,0.0139961 -0.0853268,-0.00366929l-0.125657 -0.0869921c-0.0116654,-0.008 -0.0366654,-0.0203307 -0.0476614,-0.00933465l-0.107327 0.107327c-0.0109961,0.0109961 0.00100394,0.0359961 0.00933465,0.0476614l0.0869921 0.125657c0.0176654,0.0253346 0.019,0.0586614 0.00366929,0.0853268 -0.031,0.0539961 -0.0549961,0.111661 -0.0713268,0.171657 -0.008,0.0299961 -0.0326654,0.0523307 -0.0629961,0.0579961l-0.150323 0.0273307c-0.0139961,0.00266535 -0.0403307,0.0113307 -0.0403307,0.0273307l0 0.151988c0,0.0156654 0.0263307,0.0246654 0.0403307,0.0273307l0.150323 0.0273346c0.0303307,0.00566535 0.0549961,0.0279961 0.0629961,0.0579961 0.016,0.0599961 0.0399961,0.117657 0.0713268,0.171654 0.0153307,0.0266654 0.0139961,0.0599961 -0.00366929,0.0853268l-0.0869921 0.125657c-0.008,0.0116654 -0.0203307,0.0366654 -0.00933465,0.0476614l0.107327 0.107327c0.0109961,0.0109961 0.0359961,-0.001 0.0476614,-0.00933465l0.125657 -0.0869921c0.0140039,-0.00966929 0.0296693,-0.0143346 0.0456654,-0.0143346 0.0136654,0 0.0276654,0.00366535 0.04,0.0106654 0.0539961,0.0309961 0.111657,0.0549961 0.171654,0.0713268 0.03,0.008 0.0523307,0.0326654 0.0579961,0.0629961l0.0273307 0.150323c0.00266929,0.0139961 0.0113346,0.0403307 0.0273346,0.0403307l0.151988 0c0.0156654,0 0.0246654,-0.0263307 0.0273307,-0.0403307l0.0273307 -0.150323c0.00566535,-0.0303307 0.028,-0.0549961 0.0579961,-0.0629961 0.0599961,-0.016 0.117657,-0.04 0.171654,-0.0713268zm0.115654 -0.626287c0,0.262646 -0.21365,0.476299 -0.476295,0.476299 -0.262646,0 -0.476295,-0.213654 -0.476295,-0.476299 0,-0.262646 0.21365,-0.476295 0.476295,-0.476295 0.262646,0 0.476295,0.21365 0.476295,0.476295z"/>
  <path class="fil3" d="M3.41333 3.13935c0.174319,0 0.316307,-0.141992 0.316307,-0.316307 0,-0.174654 -0.141988,-0.316311 -0.316307,-0.316311 -0.174319,0 -0.316307,0.141992 -0.316307,0.316311 0,0.174319 0.141988,0.316307 0.316307,0.316307z"/>
 </g>
</svg>
