<?xml version="1.0" encoding="UTF-8"?>
<!DOCTYPE svg PUBLIC "-//W3C//DTD SVG 1.1//EN" "http://www.w3.org/Graphics/SVG/1.1/DTD/svg11.dtd">
<!-- Creator: CorelDRAW -->
<svg xmlns="http://www.w3.org/2000/svg" xml:space="preserve" width="6.82666in" height="6.82666in" style="shape-rendering:geometricPrecision; text-rendering:geometricPrecision; image-rendering:optimizeQuality; fill-rule:evenodd; clip-rule:evenodd"
viewBox="0 0 6.82666 6.82666"
 xmlns:xlink="http://www.w3.org/1999/xlink">
 <defs>
  <style type="text/css">
   <![CDATA[
    .fil0 {fill:none}
    .fil1 {fill:#333333}
    .fil6 {fill:#98EDFE}
    .fil5 {fill:#CCCCCC}
    .fil2 {fill:#CDE2FF}
    .fil4 {fill:#E40048}
    .fil3 {fill:#EDF6FF}
   ]]>
  </style>
 </defs>
 <rect class="fil0" width="6.82666" height="6.82666"/>
 <g id="Layer_x0020_1">
  <metadata id="CorelCorpID_0Corel-Layer"/>
  <g id="_438207704">
   <g>
    <g id="_511972368">
     <path id="_438209120" class="fil1" d="M5.4865 5.97314l-3.33141 0c-0.111327,0 -0.201984,-0.0906614 -0.201984,-0.201984l0 -2.73113c0,-0.0443268 0.0356614,-0.0799921 0.0799921,-0.0799921 0.0443268,0 0.0799921,0.0356654 0.0799921,0.0799921l0 2.73146c0,0.0226654 0.0193346,0.0419961 0.0419961,0.0419961l3.33141 0c0.0226654,0 0.0419961,-0.0193346 0.0419961,-0.042l0 -3.14576c0,-0.0443307 0.0356654,-0.0799961 0.0799961,-0.0799961 0.0443268,0 0.0799921,0.0356654 0.0799921,0.0799961l0 3.14543c0,0.111323 -0.0906575,0.201984 -0.201984,0.201984zm-0.991925 -4.38133l-1.25857 0c-0.0443307,0 -0.0799961,-0.0356654 -0.0799961,-0.0799961 0,-0.0443268 0.0356654,-0.0799921 0.0799961,-0.0799921l1.25857 -3.93701e-006c0.0443307,0 0.0799961,0.0356654 0.0799961,0.0799961 0,0.0443268 -0.0359961,0.0799961 -0.0799961,0.0799961z"/>
    </g>
    <g id="_511972392">
     <path id="_438208808" class="fil1" d="M5.6085 2.70572l-0.992256 0c-0.111327,0 -0.201988,-0.0906614 -0.201988,-0.201988l0 -0.991921c0,-0.0323307 0.0193346,-0.0616614 0.0493346,-0.0739961 0.0299961,-0.0123307 0.0643268,-0.00566535 0.0873268,0.0173307l1.11391 1.11392c0.0229961,0.0229961 0.0296614,0.0573268 0.0173307,0.0873268 -0.0123346,0.0299961 -0.0413307,0.0493307 -0.0736614,0.0493307zm-1.03392 -1.00093l0 0.798937c0,0.0226654 0.0193346,0.042 0.042,0.042l0.798937 0 -0.840937 -0.840937z"/>
    </g>
    <g id="_511972512">
     <path id="_438208136" class="fil1" d="M3.13935 4.12094l-0.527957 0c-0.0773268,0 -0.140323,-0.0629961 -0.140323,-0.140323l-3.93701e-006 -0.527961c0,-0.0773268 0.0629961,-0.140319 0.140323,-0.140319l0.52763 0c0.0773268,0 0.140323,0.0629921 0.140323,0.140319l0 0.52763c0.000334646,0.0776575 -0.0626614,0.140654 -0.139992,0.140654zm-0.507961 -0.159988l0.488295 0 0 -0.48863 -0.488295 0 0 0.48863zm0.507961 -0.48863l0 0 0 0z"/>
    </g>
    <g id="_511972032">
     <path id="_438207968" class="fil1" d="M3.13935 5.20653l-0.527957 0c-0.0773268,0 -0.140323,-0.0629961 -0.140323,-0.140323l0 -0.527626c0,-0.0773268 0.0629961,-0.140323 0.140323,-0.140323l0.527626 -3.93701e-006c0.0773268,0 0.140323,0.0629961 0.140323,0.140323l0 0.527626c0.000334646,0.0773307 -0.0626614,0.140327 -0.139992,0.140327zm-0.507961 -0.159992l0.488295 0 0 -0.488295 -0.488295 0 0 0.488295zm0.507961 -0.488295l0 0 0 0z"/>
    </g>
    <g id="_511972632">
     <path id="_438207944" class="fil1" d="M4.86556 3.60798l-1.24624 0c-0.0443307,0 -0.0799921,-0.0356654 -0.0799921,-0.0799921 0,-0.0443307 0.0356614,-0.0799921 0.0799921,-0.0799921l1.24624 -3.93701e-006c0.0443268,0 0.0799921,0.0356614 0.0799921,0.0799921 0,0.0443307 -0.0356654,0.0799961 -0.0799921,0.0799961z"/>
    </g>
    <g id="_511972008">
     <path id="_438207848" class="fil1" d="M4.86556 4.6939l-1.24624 0c-0.0443307,0 -0.0799921,-0.0356614 -0.0799921,-0.0799921 0,-0.0443307 0.0356614,-0.0799921 0.0799921,-0.0799921l1.24624 -3.93701e-006c0.0443268,0 0.0799921,0.0356654 0.0799921,0.0799921 0,0.0443307 -0.0356654,0.0799961 -0.0799921,0.0799961z"/>
    </g>
    <g id="_511972056">
     <path id="_438207992" class="fil1" d="M5.09054 3.98496l-1.47622 0c-0.0443307,0 -0.0799921,-0.0356654 -0.0799921,-0.0799961 0,-0.0443268 0.0356614,-0.0799921 0.0799921,-0.0799921l1.47622 0c0.0443268,0 0.0799921,0.0356654 0.0799921,0.0799921 0,0.0443307 -0.0356614,0.0799961 -0.0799921,0.0799961z"/>
    </g>
    <g id="_511972848">
     <path id="_438207344" class="fil1" d="M5.09054 5.07087l-1.47622 0c-0.0443307,0 -0.0799921,-0.0356654 -0.0799921,-0.0799921 0,-0.0443307 0.0356614,-0.0799961 0.0799921,-0.0799961l1.47622 0c0.0443268,0 0.0799921,0.0356614 0.0799921,0.0799921 0,0.0443268 -0.0356614,0.0799961 -0.0799921,0.0799961z"/>
    </g>
    <g id="_511972752">
     <path id="_438207008" class="fil1" d="M2.28642 3.15002c-0.154988,0 -0.305311,-0.0303307 -0.446965,-0.0903268 -0.136657,-0.0579961 -0.259646,-0.140657 -0.364972,-0.24598 -0.105327,-0.105327 -0.188319,-0.228319 -0.24598,-0.364972 -0.0599961,-0.141657 -0.0903268,-0.29198 -0.0903268,-0.446965 0,-0.154988 0.0303307,-0.305311 0.0903268,-0.446969 0.0579961,-0.136654 0.140654,-0.259646 0.24598,-0.364972 0.105327,-0.105323 0.228315,-0.188319 0.364972,-0.24598 0.141654,-0.0599961 0.291976,-0.0903268 0.446965,-0.0903268 0.154988,0 0.305311,0.0303307 0.446965,0.0903268 0.136657,0.0579961 0.259646,0.140657 0.364972,0.24598 0.105327,0.105327 0.188319,0.228319 0.24598,0.364972 0.0599961,0.141657 0.0903268,0.29198 0.0903268,0.446969 0,0.154984 -0.0303307,0.305307 -0.0903268,0.446965 -0.0579961,0.136654 -0.140654,0.259646 -0.24598,0.364972 -0.105327,0.105323 -0.228315,0.188319 -0.364972,0.24598 -0.141654,0.0599961 -0.291976,0.0903268 -0.446965,0.0903268zm0 -2.1365c-0.544957,0 -0.988256,0.443299 -0.988256,0.98826 0,0.544957 0.443299,0.988256 0.988256,0.988256 0.544957,0 0.988256,-0.443299 0.988256,-0.988256 0,-0.544961 -0.443299,-0.98826 -0.988256,-0.98826z"/>
    </g>
    <g id="_511972200">
     <path id="_438207680" class="fil1" d="M2.34175 2.83304l-0.110661 0c-0.0776614,0 -0.140323,-0.0573268 -0.155988,-0.142988l-0.0113307 -0.0619921c-0.0213346,-0.00766535 -0.0426654,-0.0163346 -0.0629961,-0.0263307l-0.0519961 0.0359961c-0.0713268,0.0493307 -0.156323,0.0456654 -0.211319,-0.00933071l-0.0783307 -0.0783307c-0.0549961,-0.0549961 -0.0586575,-0.139988 -0.00933071,-0.211319l0.0359961 -0.0516614c-0.00966535,-0.0206654 -0.0186654,-0.0416654 -0.0263307,-0.0629961l-0.0619921 -0.0113307c-0.0853307,-0.0156654 -0.142988,-0.0779961 -0.142988,-0.155988l0 -0.110657c0,-0.0776614 0.0573268,-0.140323 0.142988,-0.155988l0.0619921 -0.0113346c0.00766535,-0.0213307 0.0163346,-0.0426614 0.0263307,-0.0629961l-0.0359961 -0.0519961c-0.0493307,-0.0713268 -0.0456654,-0.156323 0.00933071,-0.211319l0.0783307 -0.0783268c0.0549961,-0.0549961 0.139988,-0.0586614 0.211319,-0.00933465l0.0519961 0.036c0.0206654,-0.00966929 0.0416614,-0.0186654 0.0629961,-0.0263307l0.0113307 -0.0619961c0.0156654,-0.0853268 0.0779921,-0.142988 0.155988,-0.142988l0.110661 0c0.0776614,0 0.140323,0.0573307 0.155988,0.142988l0.0113307 0.0619961c0.0213307,0.00766535 0.0426654,0.0163307 0.0629961,0.0263307l0.0519961 -0.036c0.0713268,-0.0493307 0.156323,-0.0456614 0.211319,0.00933465l0.0783268 0.0783268c0.055,0.0549961 0.0586614,0.139988 0.00933465,0.211319l-0.0363346 0.0523268c0.00966535,0.0206654 0.0186654,0.0416654 0.0263307,0.0629961l0.0619961 0.0113346c0.0853268,0.0156654 0.142988,0.0779921 0.142988,0.155988l0 0.110657c0,0.0776575 -0.0573307,0.140323 -0.142988,0.155988l-0.0619961 0.0113307c-0.00766535,0.0213307 -0.0163346,0.0426654 -0.0263307,0.0629961l0.0359961 0.0519961c0.0493307,0.0713268 0.0456654,0.156323 -0.00933071,0.211319l-0.0783268 0.0783268c-0.055,0.0549961 -0.139988,0.0586614 -0.211319,0.00933465l-0.0516654 -0.0359961c-0.0206654,0.00966535 -0.0416614,0.0186654 -0.0629961,0.0263307l-0.0113307 0.0619921c-0.0156614,0.0849961 -0.0783228,0.142323 -0.155984,0.142323zm-0.105327 -0.159988l0.0999921 0c0.00133465,-0.00233071 0.00266535,-0.006 0.00366535,-0.0113307l0.02 -0.109657c0.00566535,-0.0303307 0.0279961,-0.0549961 0.0579961,-0.0629961 0.0419961,-0.0113307 0.0823268,-0.028 0.119988,-0.0496614 0.0266654,-0.0153307 0.0599961,-0.0139961 0.0853307,0.00366929l0.0916575 0.0633268c0.00433465,0.003 0.00833071,0.00466535 0.0106654,0.00533465l0.0706575 -0.0706614c-0.000665354,-0.00266535 -0.00233071,-0.00633465 -0.00533071,-0.0106654l-0.0633307 -0.0916575c-0.0176614,-0.0253346 -0.0189961,-0.0586614 -0.00366535,-0.0853307 0.0216654,-0.0376614 0.0383307,-0.0779921 0.0496614,-0.119657 0.008,-0.0299961 0.0326654,-0.0523307 0.0629961,-0.0579961l0.109657 -0.0199961c0.00533071,-0.001 0.009,-0.00233071 0.0113307,-0.00366535l0 -0.0999961c-0.00233071,-0.00133465 -0.006,-0.00266535 -0.0113307,-0.00366535l-0.109657 -0.02c-0.0303307,-0.00566535 -0.0549961,-0.0279961 -0.0629961,-0.0579961 -0.0113307,-0.0419961 -0.028,-0.0823268 -0.0496614,-0.119988 -0.0153307,-0.0266654 -0.0139961,-0.0599961 0.00366535,-0.0853307l0.0633307 -0.0916575c0.003,-0.00433465 0.00466535,-0.00833071 0.00533071,-0.0106654l-0.0706575 -0.0706575c-0.00266535,0.000665354 -0.00633465,0.00233071 -0.0106654,0.00533071l-0.0916575 0.0633268c-0.0253346,0.0176654 -0.0586614,0.019 -0.0853307,0.00366929 -0.0376614,-0.0216654 -0.0779921,-0.0383307 -0.119657,-0.0496614 -0.0299961,-0.008 -0.0523307,-0.0326654 -0.0579961,-0.0629961l-0.0199961 -0.109657c-0.001,-0.00533071 -0.00233465,-0.009 -0.00366929,-0.0113307l-0.0999882 -7.87402e-006c-0.00133465,0.00233071 -0.00266535,0.00599606 -0.00366929,0.0113307l-0.0199961 0.109657c-0.00566535,0.0303307 -0.028,0.0549961 -0.0579961,0.0629961 -0.0416614,0.0113307 -0.0819961,0.0279961 -0.119657,0.0496614 -0.0266654,0.0153307 -0.0599961,0.0139961 -0.0853268,-0.00366929l-0.0916614 -0.0633268c-0.00433465,-0.003 -0.00833071,-0.00466535 -0.0106614,-0.00533465l-0.0706614 0.0706614c0.000665354,0.00266535 0.00233071,0.00633465 0.00533071,0.0106654l0.0633307 0.0916575c0.0176654,0.0253307 0.019,0.0586614 0.00366535,0.0853268 -0.0216654,0.0376654 -0.0383268,0.0779961 -0.0496614,0.119992 -0.00799606,0.0299961 -0.0326614,0.0523307 -0.0629921,0.0579961l-0.109657 0.02c-0.00533465,0.001 -0.009,0.00233071 -0.0113346,0.00366535l0 0.0999921c0.00233465,0.00133465 0.006,0.00266535 0.0113346,0.00366929l0.109657 0.0199961c0.0303307,0.00566535 0.0549961,0.028 0.0629921,0.0579961 0.0113346,0.0419961 0.028,0.0823307 0.0496614,0.119992 0.0153346,0.0266654 0.014,0.0599961 -0.00366535,0.0853268l-0.0633307 0.0916614c-0.003,0.00433071 -0.00466535,0.00833071 -0.00533071,0.0106614l0.0706614 0.0706614c0.00266535,-0.000665354 0.00633071,-0.00233071 0.0106614,-0.00533071l0.0916614 -0.0633307c0.0253307,-0.0176654 0.0586614,-0.019 0.0853268,-0.00366535 0.0376614,0.0216654 0.0779961,0.0383268 0.119657,0.0496614 0.0299961,0.00799606 0.0523307,0.0326614 0.0579961,0.0629921l0.0199961 0.109657c0.000669291,0.00467717 0.002,0.00867717 0.00333465,0.0110079z"/>
    </g>
    <g id="_511973232">
     <path id="_438207200" class="fil1" d="M2.28642 2.37041c-0.203319,0 -0.368638,-0.165323 -0.368638,-0.368638 0,-0.203319 0.165319,-0.368642 0.368638,-0.368642 0.203319,0 0.368638,0.165323 0.368638,0.368642 0,0.203315 -0.165319,0.368638 -0.368638,0.368638zm0 -0.577287c-0.114992,0 -0.20865,0.0936575 -0.20865,0.20865 0,0.114988 0.0936614,0.20865 0.20865,0.20865 0.114988,0 0.20865,-0.0936614 0.20865,-0.20865 0,-0.114992 -0.0936575,-0.20865 -0.20865,-0.20865z"/>
    </g>
   </g>
  </g>
  <path class="fil2" d="M4.57457 1.7048l0 0.798937c0,0.0226654 0.0193346,0.042 0.042,0.042l0.798937 0 -0.840937 -0.840937z"/>
  <path class="fil3" d="M4.61624 2.70572c-0.111327,0 -0.201988,-0.0906614 -0.201988,-0.201988l0 -0.911925 -1.055 0c0.0501024,0.130732 0.0754055,0.268406 0.0754055,0.409969 0,0.154984 -0.0303307,0.305307 -0.0903268,0.446965 -0.0579961,0.136654 -0.140654,0.259646 -0.24598,0.364972 -0.105327,0.105323 -0.228315,0.188319 -0.364972,0.24598 -0.141654,0.0599961 -0.291976,0.0903268 -0.446965,0.0903268 -0.0585118,0 -0.116358,-0.00432283 -0.173323,-0.0129331l0 2.6344c0,0.0226654 0.0193346,0.0419961 0.0419961,0.0419961l3.33141 0c0.0226654,0 0.0419961,-0.0193346 0.0419961,-0.042l0 -3.06576 -0.91226 0zm-0.996925 0.74228l1.24624 -3.93701e-006c0.0443268,0 0.0799921,0.0356614 0.0799921,0.0799921 0,0.0443307 -0.0356654,0.0799961 -0.0799921,0.0799961l-1.24624 0c-0.0443307,0 -0.0799921,-0.0356654 -0.0799921,-0.0799921 0,-0.0443307 0.0356614,-0.0799921 0.0799921,-0.0799921zm-0.005 0.376969l1.47622 0c0.0443268,0 0.0799921,0.0356654 0.0799921,0.0799921 0,0.0443307 -0.0356614,0.0799961 -0.0799921,0.0799961l-1.47622 0c-0.0443307,0 -0.0799921,-0.0356654 -0.0799921,-0.0799961 0,-0.0443268 0.0356614,-0.0799921 0.0799921,-0.0799921zm0.005 0.708949l1.24624 -3.93701e-006c0.0443268,0 0.0799921,0.0356654 0.0799921,0.0799921 0,0.0443307 -0.0356654,0.0799961 -0.0799921,0.0799961l-1.24624 0c-0.0443307,0 -0.0799921,-0.0356614 -0.0799921,-0.0799921 0,-0.0443307 0.0356614,-0.0799921 0.0799921,-0.0799921zm-0.005 0.376969l1.47622 0c0.0443268,0 0.0799921,0.0356614 0.0799921,0.0799921 0,0.0443268 -0.0356614,0.0799961 -0.0799921,0.0799961l-1.47622 0c-0.0443307,0 -0.0799921,-0.0356654 -0.0799921,-0.0799921 0,-0.0443307 0.0356614,-0.0799961 0.0799921,-0.0799961zm-0.334972 -0.372307l0 0.527626c0.000334646,0.0773307 -0.0626614,0.140327 -0.139992,0.140327l-0.527957 0c-0.0773268,0 -0.140323,-0.0629961 -0.140323,-0.140323l0 -0.527626c0,-0.0773268 0.0629961,-0.140323 0.140323,-0.140323l0.527626 -3.93701e-006c0.0773268,0 0.140323,0.0629961 0.140323,0.140323zm0 -1.08592l0 0.52763c0.000334646,0.0776575 -0.0626614,0.140654 -0.139992,0.140654l-0.527957 0c-0.0773268,0 -0.140323,-0.0629961 -0.140323,-0.140323l-3.93701e-006 -0.527961c0,-0.0773268 0.0629961,-0.140319 0.140323,-0.140319l0.52763 0c0.0773268,0 0.140323,0.0629921 0.140323,0.140319z"/>
  <polygon class="fil4" points="3.11969,3.96096 3.11969,3.47233 2.63139,3.47233 2.63139,3.96096 "/>
  <polygon class="fil4" points="3.11969,4.55824 2.63139,4.55824 2.63139,5.04654 3.11969,5.04654 "/>
  <path class="fil5" d="M2.62339 2.44308l0.0916575 0.0633268c0.00433465,0.003 0.00833071,0.00466535 0.0106654,0.00533465l0.0706575 -0.0706614c-0.000665354,-0.00266535 -0.00233071,-0.00633465 -0.00533071,-0.0106654l-0.0633307 -0.0916575c-0.0176614,-0.0253346 -0.0189961,-0.0586614 -0.00366535,-0.0853307 0.0216654,-0.0376614 0.0383307,-0.0779921 0.0496614,-0.119657 0.008,-0.0299961 0.0326654,-0.0523307 0.0629961,-0.0579961l0.109657 -0.0199961c0.00533071,-0.001 0.009,-0.00233071 0.0113307,-0.00366535l0 -0.0999961c-0.00233071,-0.00133465 -0.006,-0.00266535 -0.0113307,-0.00366535l-0.109657 -0.02c-0.0303307,-0.00566535 -0.0549961,-0.0279961 -0.0629961,-0.0579961 -0.0113307,-0.0419961 -0.028,-0.0823268 -0.0496614,-0.119988 -0.0153307,-0.0266654 -0.0139961,-0.0599961 0.00366535,-0.0853307l0.0633307 -0.0916575c0.003,-0.00433465 0.00466535,-0.00833071 0.00533071,-0.0106654l-0.0706575 -0.0706575c-0.00266535,0.000665354 -0.00633465,0.00233071 -0.0106654,0.00533071l-0.0916575 0.0633268c-0.0253346,0.0176654 -0.0586614,0.019 -0.0853307,0.00366929 -0.0376614,-0.0216654 -0.0779921,-0.0383307 -0.119657,-0.0496614 -0.0299961,-0.008 -0.0523307,-0.0326654 -0.0579961,-0.0629961l-0.0199961 -0.109657c-0.001,-0.00533071 -0.00233465,-0.009 -0.00366929,-0.0113307l-0.0999882 -7.87402e-006c-0.00133465,0.00233071 -0.00266535,0.00599606 -0.00366929,0.0113307l-0.0199961 0.109657c-0.00566535,0.0303307 -0.028,0.0549961 -0.0579961,0.0629961 -0.0416614,0.0113307 -0.0819961,0.0279961 -0.119657,0.0496614 -0.0266654,0.0153307 -0.0599961,0.0139961 -0.0853268,-0.00366929l-0.0916614 -0.0633268c-0.00433465,-0.003 -0.00833071,-0.00466535 -0.0106614,-0.00533465l-0.0706614 0.0706614c0.000665354,0.00266535 0.00233071,0.00633465 0.00533071,0.0106654l0.0633307 0.0916575c0.0176654,0.0253307 0.019,0.0586614 0.00366535,0.0853268 -0.0216654,0.0376654 -0.0383268,0.0779961 -0.0496614,0.119992 -0.00799606,0.0299961 -0.0326614,0.0523307 -0.0629921,0.0579961l-0.109657 0.02c-0.00533465,0.001 -0.009,0.00233071 -0.0113346,0.00366535l0 0.0999921c0.00233465,0.00133465 0.006,0.00266535 0.0113346,0.00366929l0.109657 0.0199961c0.0303307,0.00566535 0.0549961,0.028 0.0629921,0.0579961 0.0113346,0.0419961 0.028,0.0823307 0.0496614,0.119992 0.0153346,0.0266654 0.014,0.0599961 -0.00366535,0.0853268l-0.0633307 0.0916614c-0.003,0.00433071 -0.00466535,0.00833071 -0.00533071,0.0106614l0.0706614 0.0706614c0.00266535,-0.000665354 0.00633071,-0.00233071 0.0106614,-0.00533071l0.0916614 -0.0633307c0.0253307,-0.0176654 0.0586614,-0.019 0.0853268,-0.00366535 0.0376614,0.0216654 0.0779961,0.0383268 0.119657,0.0496614 0.0299961,0.00799606 0.0523307,0.0326614 0.0579961,0.0629921l0.0199961 0.109657c0.000669291,0.00467717 0.002,0.00867717 0.00333465,0.0110079l0.0999921 0c0.00133465,-0.00233071 0.00266535,-0.006 0.00366535,-0.0113307l0.02 -0.109657c0.00566535,-0.0303307 0.0279961,-0.0549961 0.0579961,-0.0629961 0.0419961,-0.0113307 0.0823268,-0.028 0.119988,-0.0496614 0.0266654,-0.0153307 0.0599961,-0.0139961 0.0853307,0.00366929zm0.0316614 -0.441303c0,0.203315 -0.165319,0.368638 -0.368638,0.368638 -0.203319,0 -0.368638,-0.165323 -0.368638,-0.368638 0,-0.203319 0.165319,-0.368642 0.368638,-0.368642 0.203319,0 0.368638,0.165323 0.368638,0.368642z"/>
  <path class="fil6" d="M2.23109 2.83304c-0.0776614,0 -0.140323,-0.0573268 -0.155988,-0.142988l-0.0113307 -0.0619921c-0.0213346,-0.00766535 -0.0426654,-0.0163346 -0.0629961,-0.0263307l-0.0519961 0.0359961c-0.0713268,0.0493307 -0.156323,0.0456654 -0.211319,-0.00933071l-0.0783307 -0.0783307c-0.0549961,-0.0549961 -0.0586575,-0.139988 -0.00933071,-0.211319l0.0359961 -0.0516614c-0.00966535,-0.0206654 -0.0186654,-0.0416654 -0.0263307,-0.0629961l-0.0619921 -0.0113307c-0.0853307,-0.0156654 -0.142988,-0.0779961 -0.142988,-0.155988l0 -0.110657c0,-0.0776614 0.0573268,-0.140323 0.142988,-0.155988l0.0619921 -0.0113346c0.00766535,-0.0213307 0.0163346,-0.0426614 0.0263307,-0.0629961l-0.0359961 -0.0519961c-0.0493307,-0.0713268 -0.0456654,-0.156323 0.00933071,-0.211319l0.0783307 -0.0783268c0.0549961,-0.0549961 0.139988,-0.0586614 0.211319,-0.00933465l0.0519961 0.036c0.0206654,-0.00966929 0.0416614,-0.0186654 0.0629961,-0.0263307l0.0113307 -0.0619961c0.0156654,-0.0853268 0.0779921,-0.142988 0.155988,-0.142988l0.110661 0c0.0776614,0 0.140323,0.0573307 0.155988,0.142988l0.0113307 0.0619961c0.0213307,0.00766535 0.0426654,0.0163307 0.0629961,0.0263307l0.0519961 -0.036c0.0713268,-0.0493307 0.156323,-0.0456614 0.211319,0.00933465l0.0783268 0.0783268c0.055,0.0549961 0.0586614,0.139988 0.00933465,0.211319l-0.0363346 0.0523268c0.00966535,0.0206654 0.0186654,0.0416654 0.0263307,0.0629961l0.0619961 0.0113346c0.0853268,0.0156654 0.142988,0.0779921 0.142988,0.155988l0 0.110657c0,0.0776575 -0.0573307,0.140323 -0.142988,0.155988l-0.0619961 0.0113307c-0.00766535,0.0213307 -0.0163346,0.0426654 -0.0263307,0.0629961l0.0359961 0.0519961c0.0493307,0.0713268 0.0456654,0.156323 -0.00933071,0.211319l-0.0783268 0.0783268c-0.055,0.0549961 -0.139988,0.0586614 -0.211319,0.00933465l-0.0516654 -0.0359961c-0.0206654,0.00966535 -0.0416614,0.0186654 -0.0629961,0.0263307l-0.0113307 0.0619921c-0.0156614,0.0849961 -0.0783228,0.142323 -0.155984,0.142323l-0.110661 0zm0.0553307 0.156988c0.544957,0 0.988256,-0.443299 0.988256,-0.988256 0,-0.544961 -0.443299,-0.98826 -0.988256,-0.98826 -0.544957,0 -0.988256,0.443299 -0.988256,0.98826 0,0.544957 0.443299,0.988256 0.988256,0.988256z"/>
  <path class="fil6" d="M2.07777 2.00178c0,0.114988 0.0936614,0.20865 0.20865,0.20865 0.114988,0 0.20865,-0.0936614 0.20865,-0.20865 0,-0.114992 -0.0936575,-0.20865 -0.20865,-0.20865 -0.114992,0 -0.20865,0.0936575 -0.20865,0.20865z"/>
 </g>
</svg>
