<?xml version="1.0" encoding="UTF-8"?>
<!DOCTYPE svg PUBLIC "-//W3C//DTD SVG 1.1//EN" "http://www.w3.org/Graphics/SVG/1.1/DTD/svg11.dtd">
<!-- Creator: CorelDRAW -->
<svg xmlns="http://www.w3.org/2000/svg" xml:space="preserve" width="6.82666in" height="6.82666in" style="shape-rendering:geometricPrecision; text-rendering:geometricPrecision; image-rendering:optimizeQuality; fill-rule:evenodd; clip-rule:evenodd"
viewBox="0 0 6.82666 6.82666"
 xmlns:xlink="http://www.w3.org/1999/xlink">
 <defs>
  <style type="text/css">
   <![CDATA[
    .fil0 {fill:none}
    .fil1 {fill:#333333}
    .fil3 {fill:#CDE2FF}
    .fil2 {fill:#EDF6FF}
    .fil4 {fill:#FEB045}
    .fil5 {fill:#FEC34D}
   ]]>
  </style>
 </defs>
 <rect class="fil0" width="6.82666" height="6.82666"/>
 <g id="Layer_x0020_1">
  <metadata id="CorelCorpID_0Corel-Layer"/>
  <path class="fil1" d="M5.0927 5.97319l-3.35908 0c-0.256311,0 -0.464965,-0.20865 -0.464965,-0.464965l0 -2.2045c0,-0.21765 0.177319,-0.394972 0.394969,-0.394972l1.09359 0c0.0853268,0 0.157654,0.0349961 0.21565,0.104323 0.0459961,0.0549961 0.0769921,0.124327 0.103657,0.190984l0.126992 0.316976 1.88952 3.93701e-006c0.256311,0 0.464965,0.20865 0.464965,0.464965l0 1.52222c-0.000334646,0.256315 -0.208988,0.464965 -0.465299,0.464965zm-3.42907 -2.90411c-0.129657,0 -0.234984,0.105323 -0.234984,0.23498l0 2.2045c0,0.167988 0.136657,0.304976 0.304976,0.304976l3.35908 0c0.167988,0 0.304976,-0.136657 0.304976,-0.304976l0 -1.52222c0,-0.167988 -0.136657,-0.304976 -0.304976,-0.304976l-1.94385 0c-0.0326614,0 -0.0619921,-0.02 -0.0743268,-0.0503307l-0.146988 -0.367303c-0.0583307,-0.145654 -0.101323,-0.194654 -0.170654,-0.194654l-1.09325 0z"/>
  <path class="fil1" d="M5.47767 4.06633c-0.0443307,0 -0.0799921,-0.0356654 -0.0799921,-0.0799921l0 -1.33857c0,-0.182654 -0.148654,-0.331307 -0.331307,-0.331307l-0.0719961 0c-0.0443307,0 -0.0799961,-0.0356654 -0.0799961,-0.0799921 0,-0.0443307 0.0356654,-0.0799961 0.0799961,-0.0799961l0.0719921 0c0.270646,0 0.491295,0.220315 0.491295,0.491295l0 1.33856c3.93701e-006,0.0439961 -0.0359921,0.0799961 -0.0799921,0.0799961zm-4.12902 -0.68228c-0.0443307,0 -0.0799921,-0.0356654 -0.0799921,-0.0799961l-3.93701e-006 -0.656283c0,-0.27065 0.220315,-0.491295 0.491295,-0.491295l0.708614 0c0.0443307,0 0.0799921,0.0356614 0.0799921,0.0799921 0,0.0443268 -0.0356614,0.0799921 -0.0799921,0.0799921l-0.70861 3.93701e-006c-0.182654,0 -0.331307,0.148654 -0.331307,0.331307l0 0.655949c-3.93701e-006,0.0443307 -0.0356654,0.0803307 -0.0799961,0.0803307z"/>
  <path class="fil1" d="M4.99437 3.68137c-0.0443307,0 -0.0799961,-0.0356654 -0.0799961,-0.0799961l0 -1.88086c0,-0.0443268 0.0356654,-0.0799921 0.0799961,-0.0799921 0.0443268,0 0.0799921,0.0356654 0.0799921,0.0799921l0 1.88086c3.93701e-006,0.0439961 -0.0359961,0.0799961 -0.0799921,0.0799961zm-2.52581 -0.612287c-0.0443307,0 -0.0799921,-0.0356654 -0.0799921,-0.0799961l0 -1.96952c0,-0.0913268 0.0746614,-0.165988 0.165984,-0.165988l1.65254 0c0.0443307,0 0.0799961,0.0356654 0.0799961,0.0799921 0,0.0443307 -0.0356654,0.0799921 -0.0799961,0.0799921l-1.65254 3.93701e-006c-0.00333465,0 -0.006,0.003 -0.006,0.006l0 1.96919c0,0.0443268 -0.0356614,0.0803268 -0.0799921,0.0803268z"/>
  <path class="fil1" d="M4.99437 1.80051l-0.700949 0c-0.0916575,0 -0.165988,-0.0746614 -0.165988,-0.165988l3.93701e-006 -0.700949c0,-0.0323307 0.0193346,-0.0616614 0.0493307,-0.0739921 0.0299961,-0.0123346 0.0643307,-0.00566535 0.0873268,0.0173307l0.786937 0.786937c0.023,0.023 0.0296654,0.0573307 0.0173346,0.0873307 -0.0123346,0.0299961 -0.0416654,0.0493307 -0.0739961,0.0493307zm-0.706949 -0.673949l0 0.507961c0,0.00333465 0.003,0.006 0.006,0.006l0.507965 -3.93701e-006 -0.513965 -0.513957z"/>
  <path class="fil1" d="M3.88779 1.42354l-1.09991 0c-0.0443307,0 -0.0799921,-0.0356614 -0.0799921,-0.0799921 0,-0.0443307 0.0356614,-0.0799921 0.0799921,-0.0799921l1.09991 -3.93701e-006c0.0443307,0 0.0799961,0.0356614 0.0799961,0.0799921 0,0.0443307 -0.0356654,0.0799961 -0.0799961,0.0799961z"/>
  <path class="fil1" d="M3.88779 1.78184l-1.09991 0c-0.0443307,0 -0.0799921,-0.0356614 -0.0799921,-0.0799921 0,-0.0443268 0.0356614,-0.0799921 0.0799921,-0.0799921l1.09991 0c0.0443307,0 0.0799961,0.0356654 0.0799961,0.0799921 0,0.0439961 -0.0356654,0.0799921 -0.0799961,0.0799921z"/>
  <path class="fil1" d="M4.54007 2.14015l-1.7522 0c-0.0443307,0 -0.0799921,-0.0356654 -0.0799921,-0.0799961 0,-0.0443268 0.0356614,-0.0799921 0.0799921,-0.0799921l1.7522 -3.93701e-006c0.0443307,0 0.0799921,0.0356654 0.0799921,0.0799961 0,0.0443268 -0.0359961,0.0799961 -0.0799921,0.0799961z"/>
  <path class="fil1" d="M4.54007 2.49845l-1.7522 0c-0.0443307,0 -0.0799921,-0.0356654 -0.0799921,-0.0799921 0,-0.0443307 0.0356614,-0.0799921 0.0799921,-0.0799921l1.7522 0c0.0443307,0 0.0799921,0.0356614 0.0799921,0.0799921 0,0.0443268 -0.0359961,0.0799921 -0.0799921,0.0799921z"/>
  <path class="fil1" d="M4.54007 2.85676l-1.7522 0c-0.0443307,0 -0.0799921,-0.0356614 -0.0799921,-0.0799921 0,-0.0443307 0.0356614,-0.0799921 0.0799921,-0.0799921l1.7522 -3.93701e-006c0.0443307,0 0.0799921,0.0356654 0.0799921,0.0799921 0,0.0443307 -0.0359961,0.0799961 -0.0799921,0.0799961z"/>
  <path class="fil1" d="M4.75906 5.27091l-2.6918 0c-0.119992,0 -0.217315,-0.0976575 -0.217315,-0.217315l0 -0.575291c0,-0.119992 0.0976575,-0.217315 0.217315,-0.217315l2.6918 -3.93701e-006c0.119992,0 0.217315,0.0976575 0.217315,0.217315l0 0.575291c0,0.119992 -0.0976575,0.217319 -0.217315,0.217319zm-2.6918 -0.849937c-0.0316614,0 -0.0573307,0.0256654 -0.0573307,0.0573307l0 0.575291c0,0.0316614 0.0256654,0.0573268 0.0573307,0.0573268l2.6918 0c0.0316614,0 0.0573307,-0.0256614 0.0573307,-0.0573268l0 -0.575291c0,-0.0316614 -0.0256654,-0.0573307 -0.0573307,-0.0573307l-2.6918 0z"/>
  <path class="fil2" d="M3.20351 3.52104l1.71087 3.93701e-006 0 -1.28457 0 -0.435969 -0.620953 0c-0.0916575,0 -0.165988,-0.0746614 -0.165988,-0.165988l3.93701e-006 -0.620957 -1.57288 3.93701e-006c-0.00333465,0 -0.006,0.003 -0.006,0.006l0 1.21691 0 0.672283 0.208654 0c0.0853268,0 0.157654,0.0349961 0.21565,0.104323 0.0459961,0.0549961 0.0769921,0.124327 0.103657,0.190984l0.126992 0.316976zm1.33656 -0.66428l-1.7522 0c-0.0443307,0 -0.0799921,-0.0356614 -0.0799921,-0.0799921 0,-0.0443307 0.0356614,-0.0799921 0.0799921,-0.0799921l1.7522 -3.93701e-006c0.0443307,0 0.0799921,0.0356654 0.0799921,0.0799921 0,0.0443307 -0.0359961,0.0799961 -0.0799921,0.0799961zm0 -0.358307l-1.7522 0c-0.0443307,0 -0.0799921,-0.0356654 -0.0799921,-0.0799921 0,-0.0443307 0.0356614,-0.0799921 0.0799921,-0.0799921l1.7522 0c0.0443307,0 0.0799921,0.0356614 0.0799921,0.0799921 0,0.0443268 -0.0359961,0.0799921 -0.0799921,0.0799921zm0 -0.358303l-1.7522 0c-0.0443307,0 -0.0799921,-0.0356654 -0.0799921,-0.0799961 0,-0.0443268 0.0356614,-0.0799921 0.0799921,-0.0799921l1.7522 -3.93701e-006c0.0443307,0 0.0799921,0.0356654 0.0799921,0.0799961 0,0.0443268 -0.0359961,0.0799961 -0.0799921,0.0799961zm-0.652283 -0.358311l-1.09991 0c-0.0443307,0 -0.0799921,-0.0356614 -0.0799921,-0.0799921 0,-0.0443268 0.0356614,-0.0799921 0.0799921,-0.0799921l1.09991 0c0.0443307,0 0.0799961,0.0356654 0.0799961,0.0799921 0,0.0439961 -0.0356654,0.0799921 -0.0799961,0.0799921zm0 -0.358303l-1.09991 0c-0.0443307,0 -0.0799921,-0.0356614 -0.0799921,-0.0799921 0,-0.0443307 0.0356614,-0.0799921 0.0799921,-0.0799921l1.09991 -3.93701e-006c0.0443307,0 0.0799961,0.0356614 0.0799961,0.0799921 0,0.0443307 -0.0356654,0.0799961 -0.0799961,0.0799961z"/>
  <path class="fil3" d="M4.29343 1.64052l0.507965 -3.93701e-006 -0.513965 -0.513957 0 0.507961c0,0.00333465 0.003,0.006 0.006,0.006z"/>
  <path class="fil4" d="M2.38857 2.31646l-0.628618 3.93701e-006c-0.182654,0 -0.331307,0.148654 -0.331307,0.331307l0 0.338748c0.0657244,-0.0488346 0.147059,-0.0777677 0.234976,-0.0777677l0.724949 0 0 -0.592291z"/>
  <path class="fil4" d="M5.07437 2.31656l0 1.20448 0.0186693 0c0.116402,0 0.222976,0.0430354 0.304642,0.114024l0 -0.987291c0,-0.17998 -0.144335,-0.326949 -0.323311,-0.331213z"/>
  <path class="fil4" d="M4.75906 4.42097l-2.6918 0c-0.0316614,0 -0.0573307,0.0256654 -0.0573307,0.0573307l0 0.575291c0,0.0316614 0.0256654,0.0573268 0.0573307,0.0573268l2.6918 0c0.0316614,0 0.0573307,-0.0256614 0.0573307,-0.0573268l0 -0.575291c0,-0.0316614 -0.0256654,-0.0573307 -0.0573307,-0.0573307z"/>
  <path class="fil5" d="M2.06743 4.26099l2.6918 -3.93701e-006c0.119992,0 0.217315,0.0976575 0.217315,0.217315l0 0.575291c0,0.119992 -0.0976575,0.217319 -0.217315,0.217319l-2.6918 0c-0.119992,0 -0.217315,-0.0976575 -0.217315,-0.217315l0 -0.575291c0,-0.119992 0.0976575,-0.217315 0.217315,-0.217315zm-0.333642 1.55255l3.35908 0c0.167988,0 0.304976,-0.136657 0.304976,-0.304976l0 -1.52222c0,-0.167988 -0.136657,-0.304976 -0.304976,-0.304976l-1.94385 0c-0.0326614,0 -0.0619921,-0.02 -0.0743268,-0.0503307l-0.146988 -0.367303c-0.0583307,-0.145654 -0.101323,-0.194654 -0.170654,-0.194654l-1.09325 0c-0.129657,0 -0.234984,0.105323 -0.234984,0.23498l0 2.2045c0,0.167988 0.136657,0.304976 0.304976,0.304976z"/>
 </g>
</svg>
