<?xml version="1.0" encoding="UTF-8"?>
<!DOCTYPE svg PUBLIC "-//W3C//DTD SVG 1.1//EN" "http://www.w3.org/Graphics/SVG/1.1/DTD/svg11.dtd">
<!-- Creator: CorelDRAW -->
<svg xmlns="http://www.w3.org/2000/svg" xml:space="preserve" width="6.82666in" height="6.82666in" style="shape-rendering:geometricPrecision; text-rendering:geometricPrecision; image-rendering:optimizeQuality; fill-rule:evenodd; clip-rule:evenodd"
viewBox="0 0 6.82666 6.82666"
 xmlns:xlink="http://www.w3.org/1999/xlink">
 <defs>
  <style type="text/css">
   <![CDATA[
    .fil0 {fill:none}
    .fil2 {fill:#0065A3}
    .fil3 {fill:#333333}
    .fil1 {fill:#5B5B6D}
    .fil5 {fill:#C8F5FE}
    .fil4 {fill:#FEC34D}
   ]]>
  </style>
 </defs>
 <rect class="fil0" width="6.82666" height="6.82666"/>
 <g id="Layer_x0020_1">
  <metadata id="CorelCorpID_0Corel-Layer"/>
  <path class="fil1" d="M3.339 3.41149c0,-0.0410472 0.0332795,-0.0743307 0.0743268,-0.0743307 0.0410512,0 0.0743268,0.0332835 0.0743268,0.0743346l0 0.983921c0,0.0410472 -0.0332795,0.0743268 -0.0743268,0.0743268 -0.0410472,0 -0.0743268,-0.0332795 -0.0743268,-0.0743268l0 -0.983925zm0.197319 1.50522c0,0.0678858 -0.055122,0.122992 -0.122992,0.122992 -0.0680472,0 -0.122992,-0.0549449 -0.122992,-0.122992 0,-0.0678858 0.055126,-0.122992 0.122992,-0.122992 0.0678661,0 0.122992,0.0551063 0.122992,0.122992z"/>
  <path class="fil2" d="M3.23073 2.13459l-0.478563 -0.583626 2.84533 0c0.133705,0 0.242315,0.10861 0.242315,0.242315l3.93701e-006 0.341311 -2.60909 0zm0.483913 -0.291976c0,0.0296102 0.0237205,0.0533268 0.0533307,0.0533268l1.47888 0c0.0296102,0 0.0533307,-0.0237126 0.0533307,-0.0533268 0,-0.0296102 -0.0237205,-0.0533307 -0.0533307,-0.0533307l-1.47888 0c-0.0296102,0 -0.0533307,0.0237205 -0.0533307,0.0533307zm-0.622031 0.291976l-2.10576 0 0 -0.326976c0,-0.141374 0.115272,-0.25665 0.256646,-0.25665l1.37085 0 0.47826 0.583626zm-0.69587 -0.23865c0.0294331,0 0.0533307,-0.023878 0.0533307,-0.0533268 0,-0.0296102 -0.0237205,-0.0533307 -0.0533307,-0.0533307l-0.116657 0c-0.0296102,0 -0.0533268,0.0237205 -0.0533268,0.0533307 0,0.0296063 0.0237205,0.0533268 0.0533268,0.0533268l0.116657 0zm-0.443965 0c0.029437,0 0.0533268,-0.023878 0.0533268,-0.0533268 0,-0.0296102 -0.0237165,-0.0533307 -0.0533268,-0.0533307l-0.116657 0c-0.0296142,0 -0.0533268,0.0237205 -0.0533268,0.0533307 0,0.0296102 0.0237165,0.0533268 0.0533268,0.0533268l0.116657 0zm-0.443969 0c0.029437,0 0.0533307,-0.023878 0.0533307,-0.0533268 0,-0.0296102 -0.0237205,-0.0533307 -0.0533307,-0.0533307l-0.116657 0c-0.0296102,0 -0.0533268,0.0237205 -0.0533268,0.0533307 0,0.0296063 0.0237205,0.0533268 0.0533268,0.0533268l0.116657 0z"/>
  <g id="_438211448">
   <g id="_511974216">
    <path id="_438212984" class="fil3" d="M1.81112 5.0577l-0.567626 0c-0.21498,0 -0.389969,-0.174988 -0.389969,-0.389972l0 -2.86011c0,-0.21498 0.174988,-0.389969 0.389969,-0.389969l1.39589 0c0.0239961,0 0.0466614,0.0106654 0.0619921,0.0293307l0.541965 0.660949 2.6498 0c0.0443307,0 0.0799921,0.0356614 0.0799921,0.0799921l0 2.47981c0,0.214984 -0.174988,0.389972 -0.389969,0.389972l-0.567626 0c-0.0443268,0 -0.0799921,-0.0356654 -0.0799921,-0.0799921 0,-0.0443307 0.0356654,-0.0799961 0.0799921,-0.0799961l0.567626 0c0.126657,0 0.22998,-0.103327 0.22998,-0.22998l0 -2.39981 -2.6078 -3.93701e-006c-0.024,0 -0.0466614,-0.0106654 -0.0619961,-0.0293307l-0.541622 -0.660953 -1.35823 0c-0.126657,0 -0.22998,0.103327 -0.22998,0.229984l0 2.86011c0,0.126657 0.103327,0.229984 0.22998,0.229984l0.567626 0c0.0443268,0 0.0799921,0.0356654 0.0799921,0.0799961 0,0.0443268 -0.0356654,0.0799921 -0.0799921,0.0799921z"/>
   </g>
   <g id="_511974648">
    <path id="_438212960" class="fil3" d="M3.20535 2.26791l-2.27183 0c-0.0443307,0 -0.0799921,-0.0356654 -0.0799921,-0.0799921 0,-0.0443307 0.0356614,-0.0799961 0.0799921,-0.0799961l2.27183 0c0.0443268,0 0.0799921,0.0356614 0.0799921,0.0799921 0,0.0443307 -0.0356614,0.0799961 -0.0799921,0.0799961z"/>
   </g>
   <g id="_511974888">
    <path id="_438211688" class="fil3" d="M5.89314 2.26791c-0.0443307,0 -0.0799921,-0.0356654 -0.0799921,-0.0799921l-3.93701e-006 -0.394642c0,-0.118988 -0.0966614,-0.21565 -0.21565,-0.21565l-2.95811 0c-0.0443307,0 -0.0799921,-0.0356614 -0.0799921,-0.0799921 0,-0.0443268 0.0356614,-0.0799921 0.0799921,-0.0799921l2.95777 0c0.207319,0 0.375642,0.168654 0.375642,0.375638l0 0.394638c0.000330709,0.0443268 -0.0356654,0.0799921 -0.0796614,0.0799921z"/>
   </g>
   <g id="_511974720">
    <path id="_438212144" class="fil3" d="M5.24685 1.92261l-1.47888 0c-0.0443307,0 -0.0799961,-0.0356654 -0.0799961,-0.0799921 0,-0.0443307 0.0356654,-0.0799961 0.0799961,-0.0799961l1.47888 0c0.0443307,0 0.0799961,0.0356654 0.0799961,0.0799961 0,0.0443268 -0.0356614,0.0799921 -0.0799961,0.0799921z"/>
   </g>
   <g id="_511974912">
    <path id="_438211592" class="fil3" d="M1.87112 5.40867c-0.125992,0 -0.228319,-0.110657 -0.228319,-0.24665 0,-0.0586614 0.0193346,-0.114992 0.0539961,-0.159654l1.52889 -2.21916c0.00133465,-0.00266929 0.003,-0.005 0.00466535,-0.00733465 0.0373307,-0.0539961 0.0943268,-0.0896614 0.156654,-0.0976575 0.0613307,-0.00766535 0.121657,0.0109961 0.169984,0.0529921 0.019,0.0163346 0.0353307,0.036 0.0483307,0.0576654l1.52855 2.21917c0.002,0.00233071 0.00366535,0.00433465 0.00533071,0.007 0.0353307,0.0509961 0.0506654,0.113992 0.0433307,0.177319 -0.00733071,0.0639961 -0.0369961,0.121657 -0.0833228,0.161988 -0.0403346,0.0349961 -0.0913307,0.0546654 -0.143323,0.0546654 0,0 0,0 0,0l-0.000669291 0 -3.08409 -3.93701e-006 0 -0.000334646zm1.49455 -2.54714c-0.00100394,0.00166535 -0.00233465,0.00366535 -0.00333465,0.00533071l-1.53488 2.2285c-0.001,0.00166535 -0.00233465,0.00333071 -0.00366929,0.00499606 -0.0133307,0.0166654 -0.0206654,0.0383307 -0.0206654,0.0616614 0,0.0469961 0.0313346,0.0866614 0.0683307,0.0866614l3.08443 3.93701e-006c0,0 0,0 0,0 0.0136654,0 0.0266654,-0.00533465 0.0383307,-0.0153346 0.0326614,-0.0286614 0.0396654,-0.0833268 0.0166654,-0.122657 -0.00133465,-0.00166535 -0.00266929,-0.00333071 -0.00366929,-0.00499606l-1.53488 -2.22717c-0.00133465,-0.00199606 -0.00266929,-0.004 -0.00400394,-0.00633071 -0.00466142,-0.008 -0.0103307,-0.0146654 -0.0166614,-0.0206654 -0.0133346,-0.0116654 -0.0289961,-0.0166654 -0.0446654,-0.0146654 -0.0156654,0.002 -0.0303307,0.0106654 -0.0413268,0.0246654z"/>
   </g>
   <g id="_511974384">
    <path id="_438212336" class="fil3" d="M3.41333 4.6034c-0.114657,0 -0.207654,-0.0933268 -0.207654,-0.20765l0 -0.984256c0,-0.114661 0.0933268,-0.207654 0.207654,-0.207654 0.114327,0 0.207654,0.0933268 0.207654,0.207654l0 0.983925c0,0.114654 -0.0929961,0.20798 -0.207654,0.20798zm0 -1.23957c-0.0263307,0 -0.0476614,0.0213346 -0.0476614,0.0476654l0 0.983925c0,0.0263307 0.0213307,0.0476614 0.0476614,0.0476614 0.0263307,0 0.0476614,-0.0213307 0.0476614,-0.0476614l0 -0.983921c0,-0.0263346 -0.0213307,-0.0476693 -0.0476614,-0.0476693z"/>
   </g>
   <g id="_511974312">
    <path id="_438212264" class="fil3" d="M3.41333 5.17269c-0.141323,0 -0.256311,-0.114992 -0.256311,-0.256315 0,-0.141319 0.114992,-0.256311 0.256311,-0.256311 0.141319,0 0.256311,0.114992 0.256311,0.256311 0,0.141323 -0.114988,0.256315 -0.256311,0.256315zm0 -0.352307c-0.0529961,0 -0.0963268,0.043 -0.0963268,0.0963268 0,0.0533307 0.043,0.0963268 0.0963268,0.0963268 0.0529961,0 0.0963268,-0.0429961 0.0963268,-0.0963268 0,-0.0533268 -0.0433307,-0.0963268 -0.0963268,-0.0963268z"/>
   </g>
   <g>
    <g id="_511974576">
     <path id="_438211280" class="fil3" d="M1.50881 1.92261l-0.116657 0c-0.0443268,0 -0.0799921,-0.0356654 -0.0799921,-0.0799921 0,-0.0443307 0.0356654,-0.0799961 0.0799921,-0.0799961l0.116657 0c0.0443307,0 0.0799961,0.0356654 0.0799961,0.0799961 0,0.0443268 -0.0359961,0.0799921 -0.0799961,0.0799921z"/>
    </g>
    <g id="_511975176">
     <path id="_438211424" class="fil3" d="M1.95278 1.92261l-0.116657 0c-0.0443307,0 -0.0799921,-0.0356654 -0.0799921,-0.0799921 0,-0.0443307 0.0356614,-0.0799961 0.0799921,-0.0799961l0.116657 0c0.0443268,0 0.0799921,0.0356654 0.0799921,0.0799961 0,0.0443268 -0.0359921,0.0799921 -0.0799921,0.0799921z"/>
    </g>
    <g id="_511975008">
     <path id="_438211088" class="fil3" d="M2.39674 1.92261l-0.116657 0c-0.0443268,0 -0.0799921,-0.0356654 -0.0799921,-0.0799921 0,-0.0443307 0.0356654,-0.0799961 0.0799921,-0.0799961l0.116657 0c0.0443307,0 0.0799961,0.0356654 0.0799961,0.0799961 0,0.0443268 -0.036,0.0799921 -0.0799961,0.0799921z"/>
    </g>
   </g>
  </g>
  <path class="fil4" d="M3.41333 4.66007c0.141319,0 0.256311,0.114992 0.256311,0.256311 0,0.141323 -0.114988,0.256315 -0.256311,0.256315 -0.141323,0 -0.256311,-0.114992 -0.256311,-0.256315 0,-0.141319 0.114992,-0.256311 0.256311,-0.256311zm-1.54188 0.588618l3.08443 3.93701e-006c0.0136654,0 0.0266654,-0.00533465 0.0383307,-0.0153346 0.0326614,-0.0286614 0.0396654,-0.0833268 0.0166654,-0.122657 -0.00133465,-0.00166535 -0.00266929,-0.00333071 -0.00366929,-0.00499606l-0.0516693 -0.0749764c-0.00422047,-0.00477559 -0.00787402,-0.0100591 -0.0108701,-0.0157677l-1.47234 -2.13643c-0.00133465,-0.00199606 -0.00266929,-0.004 -0.00400394,-0.00633071 -0.00466142,-0.008 -0.0103307,-0.0146654 -0.0166614,-0.0206654 -0.0133346,-0.0116654 -0.0289961,-0.0166654 -0.0446654,-0.0146654 -0.0156654,0.002 -0.0303307,0.0106654 -0.0413268,0.0246654l-0.00333465 0.00533071 -1.53488 2.2285c-0.001,0.00166535 -0.00233465,0.00333071 -0.00366929,0.00499606 -0.0133307,0.0166654 -0.0206654,0.0383307 -0.0206654,0.0616614 0,0.0469961 0.0313346,0.0866614 0.0683307,0.0866614zm1.74954 -1.83719l0 0.983925c0,0.114654 -0.0929961,0.20798 -0.207654,0.20798 -0.114657,0 -0.207654,-0.0933268 -0.207654,-0.20765l0 -0.984256c0,-0.114661 0.0933268,-0.207654 0.207654,-0.207654 0.114327,0 0.207654,0.0933268 0.207654,0.207654z"/>
  <path class="fil5" d="M3.60531 2.78887l1.45256 2.10884 0.525291 0c0.126657,0 0.22998,-0.103327 0.22998,-0.22998l0 -2.39981 -2.6078 -3.93701e-006 -2.19183 0 0 2.39981c0,0.126657 0.103327,0.229984 0.22998,0.229984l0.525402 0 1.45678 -2.1145c0.00133465,-0.00266929 0.003,-0.005 0.00466535,-0.00733465 0.0373307,-0.0539961 0.0943268,-0.0896614 0.156654,-0.0976575 0.0613307,-0.00766535 0.121657,0.0109961 0.169984,0.0529921 0.019,0.0163346 0.0353307,0.036 0.0483307,0.0576654z"/>
 </g>
</svg>
