<?xml version="1.0" encoding="UTF-8"?>
<!DOCTYPE svg PUBLIC "-//W3C//DTD SVG 1.1//EN" "http://www.w3.org/Graphics/SVG/1.1/DTD/svg11.dtd">
<!-- Creator: CorelDRAW -->
<svg xmlns="http://www.w3.org/2000/svg" xml:space="preserve" width="6.82666in" height="6.82666in" style="shape-rendering:geometricPrecision; text-rendering:geometricPrecision; image-rendering:optimizeQuality; fill-rule:evenodd; clip-rule:evenodd"
viewBox="0 0 6.82666 6.82666"
 xmlns:xlink="http://www.w3.org/1999/xlink">
 <defs>
  <style type="text/css">
   <![CDATA[
    .fil0 {fill:none}
    .fil1 {fill:#194D80}
    .fil4 {fill:#333333}
    .fil3 {fill:#75420F}
    .fil2 {fill:#83501D}
    .fil6 {fill:#98EDFE}
    .fil5 {fill:#E40048}
   ]]>
  </style>
 </defs>
 <rect class="fil0" width="6.82666" height="6.82666"/>
 <g id="Layer_x0020_1">
  <metadata id="CorelCorpID_0Corel-Layer"/>
  <path class="fil1" d="M2.38331 1.19669c0.000901575,-0.000594488 0.00163386,-0.000988189 0.0021378,-0.00123622 0.180075,-0.103949 0.378331,-0.170768 0.58472,-0.196236 0.198945,-0.0245472 0.401303,-0.0101339 0.594894,0.0417559 0.399264,0.107012 0.737382,0.365476 0.944146,0.723634 0.124559,0.215764 0.195858,0.45763 0.208862,0.706386 0.0125551,0.240087 -0.029626,0.482079 -0.124685,0.70302 -0.131287,0.305138 -0.356248,0.554957 -0.64924,0.712531 -0.00136614,0.00073622 -0.00280315,0.00143307 -0.0041378,0.00222047 -0.00111811,0.000653543 -0.00220866,0.00139764 -0.00331496,0.00208268 -0.285224,0.176236 -0.617051,0.24598 -0.949362,0.205386 -0.488961,-0.0597323 -0.925331,-0.349941 -1.17144,-0.776417 -0.103972,-0.180173 -0.170803,-0.378524 -0.196252,-0.585012 -0.0245197,-0.198957 -0.0100787,-0.401319 0.0418346,-0.594913 0.106744,-0.398071 0.364035,-0.735362 0.720535,-0.942358l0.000224409 -0.000224409 0.0010748 -0.00061811zm1.97605 0.654232c-0.0927165,-0.160713 -0.214929,-0.299543 -0.362945,-0.411346 -0.142724,-0.107807 -0.303346,-0.185882 -0.476126,-0.232173 -0.172768,-0.0462874 -0.350949,-0.0589803 -0.528441,-0.0369567 -0.184256,0.0228701 -0.359413,0.0821693 -0.520248,0.174961 -0.160713,0.0927165 -0.299543,0.214929 -0.411346,0.362945 -0.107807,0.142724 -0.185882,0.303346 -0.232173,0.476126 -0.0462874,0.172768 -0.0589803,0.350949 -0.0369567,0.528441 0.0228661,0.184252 0.0818189,0.359724 0.174626,0.520583 0.0927165,0.160713 0.214929,0.299543 0.362945,0.411346 0.142732,0.107815 0.303402,0.185764 0.476142,0.232177 0.116807,0.0313858 0.23711,0.0474173 0.358055,0.0474173 0.0570551,0 0.114059,-0.00369291 0.170665,-0.0107953 0.184224,-0.023122 0.359425,-0.0821535 0.520287,-0.174961 0.160713,-0.0927165 0.299547,-0.214929 0.411346,-0.362945 0.107807,-0.142724 0.185882,-0.30335 0.232173,-0.47613 0.0462874,-0.172764 0.0589803,-0.350949 0.0369567,-0.528437 -0.0228661,-0.18426 -0.0821693,-0.359417 -0.174961,-0.520252z"/>
  <path class="fil2" d="M5.03579 5.79663c-0.0799567,0.0443307 -0.173465,0.0551024 -0.261917,0.0314252 -0.091126,-0.0243937 -0.167681,-0.0827047 -0.214854,-0.164417l-0.108067 -0.187189 0.612575 -0.353472 0.107972 0.187024c0.0470157,0.0814409 0.0593071,0.177386 0.0349961,0.268205 -0.0243898,0.0911024 -0.0822913,0.167799 -0.164118,0.214874l-0.00617323 0.00355118 -0.000413386 0zm-0.807165 -0.705291l-0.27689 -0.479622c-0.0127165,-0.0220276 -0.015748,-0.0481457 -0.00938583,-0.0726811 0.00644882,-0.0248858 0.0222205,-0.0455433 0.0444685,-0.0583976l0.446634 -0.25798c0.0146142,-0.00844094 0.0307992,-0.0129094 0.0476693,-0.0129094 0.00871654,0 0.0174724,0.00162205 0.0257913,0.00416535 0.0241299,0.00737008 0.0445906,0.0221496 0.0572992,0.0441654l0.276988 0.479787 -0.612575 0.353472z"/>
  <polygon class="fil3" points="4.39758,5.384 4.28192,5.18365 4.89456,4.8303 5.01015,5.03052 "/>
  <g id="_438213224">
   <g>
    <g id="_511975080">
     <path id="_438216920" class="fil4" d="M3.16322 4.23108c-0.146992,0 -0.293646,-0.0193346 -0.437303,-0.0579961 -0.211646,-0.0566614 -0.407299,-0.152323 -0.581622,-0.28398 -0.180319,-0.136323 -0.329638,-0.305307 -0.44363,-0.502626 -0.113992,-0.197319 -0.185988,-0.411303 -0.213654,-0.635618 -0.0269961,-0.21665 -0.0116654,-0.433969 0.0449961,-0.645618 0.0566654,-0.21165 0.152323,-0.407303 0.28398,-0.581622 0.136323,-0.180323 0.305307,-0.329642 0.502626,-0.443634 0.000334646,-0.000334646 0.000669291,-0.000334646 0.001,-0.000669291 0.196988,-0.113319 0.410307,-0.184984 0.634287,-0.21298 0.21665,-0.0269961 0.433965,-0.0116654 0.645618,0.0449961 0.21165,0.0566654 0.407303,0.152323 0.581622,0.28398 0.180323,0.136323 0.329642,0.305307 0.443634,0.502626 0.113992,0.197319 0.185984,0.411303 0.21365,0.635618 0.027,0.216654 0.0116654,0.433969 -0.0449961,0.645618 -0.0566614,0.21165 -0.152319,0.407303 -0.283976,0.581622 -0.136323,0.180323 -0.305311,0.329642 -0.502626,0.443634 -0.197319,0.113992 -0.411303,0.185988 -0.635618,0.213654 -0.0693346,0.00866535 -0.138661,0.0129961 -0.207988,0.0129961zm-0.765606 -3.01177c-0.728945,0.421634 -0.979594,1.35756 -0.558626,2.08718 0.421299,0.729941 1.35789,0.980591 2.08784,0.559287 0.729941,-0.421299 0.980591,-1.35789 0.559287,-2.08784 -0.421295,-0.72961 -1.35789,-0.980591 -2.0875,-0.559291 -0.000330709,0.000330709 -0.000665354,0.000330709 -0.000996063,0.000665354z"/>
    </g>
    <g id="_511975344">
     <path id="_438216512" class="fil4" d="M3.16289 3.9511c-0.122657,0 -0.24498,-0.016 -0.364972,-0.0483307 -0.176654,-0.0473307 -0.339976,-0.126992 -0.485295,-0.23665 -0.150323,-0.113657 -0.27498,-0.254646 -0.369972,-0.419299 -0.0949961,-0.164654 -0.154657,-0.343311 -0.177988,-0.530626 -0.0223346,-0.180654 -0.00966929,-0.361972 0.0376614,-0.538626 0.0473307,-0.176654 0.126992,-0.339976 0.23665,-0.485295 0.113657,-0.150323 0.254646,-0.27498 0.419299,-0.369972l0 0 0 0c0.164654,-0.0949921 0.342976,-0.154988 0.530291,-0.178323 0.180654,-0.0223346 0.361972,-0.00966535 0.538626,0.0376614 0.176654,0.0473307 0.339976,0.126992 0.485295,0.23665 0.150323,0.113657 0.27498,0.254646 0.369972,0.419299 0.0949921,0.164657 0.154988,0.342976 0.178323,0.530295 0.0223307,0.180654 0.00966535,0.361972 -0.0376614,0.538622 -0.0473307,0.176654 -0.126992,0.339976 -0.23665,0.485299 -0.113657,0.150323 -0.254646,0.274976 -0.419299,0.369972 -0.164657,0.0949921 -0.342976,0.154988 -0.530295,0.178319 -0.0579961,0.00733465 -0.115992,0.0110039 -0.173984,0.0110039zm-0.624287 -2.49015c-0.596287,0.344307 -0.801276,1.10925 -0.456969,1.70554 0.166654,0.288646 0.435969,0.495295 0.757945,0.581622 0.107657,0.0286654 0.21665,0.043 0.324976,0.043 0.216315,0 0.429634,-0.0566654 0.622283,-0.167657 0.596287,-0.344303 0.801272,-1.10925 0.456965,-1.7052 -0.344307,-0.596287 -1.10925,-0.801276 -1.7052,-0.457299l0 0z"/>
    </g>
    <g id="_511975512">
     <path id="_438216584" class="fil4" d="M4.18348 4.3854c-0.0276654,0 -0.0543307,-0.0143307 -0.0693307,-0.0396654l-0.216315 -0.370638c-0.0223346,-0.0379961 -0.00933465,-0.0869921 0.0286614,-0.109327 0.0379961,-0.0223307 0.0869921,-0.00933071 0.109327,0.0286654l0.216319 0.370638c0.0223307,0.0379961 0.00933071,0.0869921 -0.0286654,0.109327 -0.0123307,0.00733071 -0.0263346,0.011 -0.0399961,0.011z"/>
    </g>
    <g id="_511975368">
     <path id="_438216800" class="fil4" d="M4.86709 5.97328c-0.0426654,0 -0.0853307,-0.00566535 -0.127657,-0.0169961 -0.125988,-0.0336654 -0.23098,-0.114327 -0.295976,-0.22665l-0.607283 -1.05192c-0.0306654,-0.0529921 -0.0386654,-0.114657 -0.0226654,-0.173984 0.016,-0.0593307 0.0536614,-0.108661 0.106657,-0.139327l0 0 0.446634 -0.25798c0.0529921,-0.0306654 0.114657,-0.0386614 0.173984,-0.0226614 0.0593307,0.016 0.108661,0.0536614 0.139327,0.106657l0.607283 1.05192c0.0649961,0.112327 0.0819961,0.24365 0.0483307,0.369642 -0.0336654,0.125988 -0.114327,0.23098 -0.22665,0.295976 0,0 -0.000330709,0 -0.000330709,0 -0.0746693,0.0436614 -0.157327,0.0653268 -0.241654,0.0653268zm-0.385972 -1.73687c-0.0119961,0 -0.0236614,0.003 -0.0343307,0.00933465l-0.446634 0.25798c0,0 0,0 0,0 -0.0159961,0.00933071 -0.0273307,0.0239961 -0.0319961,0.0419961 -0.00466535,0.018 -0.00233071,0.0366654 0.00666929,0.0526614l0.607283 1.05192c0.0433307,0.0753268 0.113992,0.129323 0.198654,0.151988 0.0846614,0.0226614 0.172984,0.0113307 0.24798,-0.0323307 0,0 0,0 0.000334646,0 0.0753268,-0.0433346 0.128988,-0.113992 0.151654,-0.198654 0.0226614,-0.0846614 0.0113307,-0.172984 -0.0323307,-0.24798l-0.607287 -1.05192c-0.00933071,-0.016 -0.0239961,-0.0273307 -0.0419961,-0.0319961 -0.00566535,-0.002 -0.012,-0.003 -0.018,-0.003zm-0.520957 0.197654l0 0 0 0z"/>
    </g>
    <g>
     <g id="_511975584">
      <path id="_438216656" class="fil4" d="M3.16256 3.34348c-0.140323,0 -0.271646,-0.0629961 -0.369642,-0.177657 -0.0949882,-0.110988 -0.146988,-0.257646 -0.146988,-0.412965 0,-0.155323 0.0523307,-0.301976 0.146988,-0.412969 0.0979921,-0.114327 0.228984,-0.177654 0.369642,-0.177654 0.140323,0 0.271646,0.0629921 0.369303,0.177654 0.0949921,0.110992 0.146992,0.257646 0.146992,0.412969 0,0.155319 -0.0523307,0.301976 -0.146992,0.412965 -0.0976575,0.114661 -0.22898,0.177657 -0.369303,0.177657zm0 -1.02092c-0.19665,0 -0.356642,0.192984 -0.356642,0.43063 0,0.23765 0.159992,0.430634 0.356642,0.430634 0.19665,0 0.356638,-0.192984 0.356638,-0.430634 0,-0.237646 -0.159988,-0.43063 -0.356638,-0.43063z"/>
     </g>
     <g id="_511975440">
      <path id="_438215672" class="fil4" d="M3.3682 2.38255c-0.0233307,0 -0.0466614,-0.0103307 -0.0623268,-0.0299961 -0.0276654,-0.0343307 -0.022,-0.0849961 0.0123307,-0.112327 0.0436614,-0.0349961 0.0679961,-0.0816614 0.0679961,-0.131657 0,-0.101323 -0.100331,-0.183654 -0.223315,-0.183654 -0.122992,0 -0.223315,0.0823307 -0.223315,0.183654 0,0.0496654 0.0239961,0.0963268 0.0679921,0.131657 0.0343307,0.0276654 0.04,0.0779961 0.0123346,0.112327 -0.0276654,0.0343307 -0.0779961,0.04 -0.112327,0.0123346 -0.0813268,-0.0649961 -0.127992,-0.158657 -0.127992,-0.256315 0,-0.189654 0.171988,-0.343638 0.383307,-0.343638 0.211319,0 0.383303,0.154323 0.383303,0.343638 0,0.0979921 -0.0466614,0.191319 -0.127992,0.256315 -0.015,0.0119961 -0.0326654,0.0176614 -0.0499961,0.0176614z"/>
     </g>
     <g>
      <g>
       <g id="_511975104">
        <path id="_438216080" class="fil4" d="M2.81191 2.52921c-0.0126654,0 -0.0256614,-0.003 -0.0376614,-0.00966535 -0.0786614,-0.0423307 -0.143988,-0.100657 -0.188654,-0.168988 -0.0639961,-0.0979921 -0.0869921,-0.214984 -0.0683268,-0.347307 0.006,-0.0436614 0.0466614,-0.0743268 0.0903268,-0.0679961 0.0436614,0.006 0.0743268,0.0466614 0.0679961,0.0903268 -0.028,0.19965 0.0793268,0.301976 0.174319,0.352972 0.0389961,0.021 0.0536614,0.0693307 0.0326654,0.108327 -0.0146693,0.0273307 -0.0423346,0.0423307 -0.0706654,0.0423307z"/>
       </g>
       <g id="_511976904">
        <path id="_438216032" class="fil4" d="M2.46728 3.15916c-0.0393307,0 -0.0736614,-0.0289961 -0.0789961,-0.0689961 -0.022,-0.155988 0.0156654,-0.294311 0.108657,-0.399969 0.0749961,-0.0853307 0.167988,-0.128992 0.216654,-0.147323 0.0413268,-0.0156693 0.0873268,0.00533071 0.102992,0.0466614 0.0156654,0.0413268 -0.00533071,0.0873268 -0.0466614,0.102992 -0.0979921,0.037 -0.257315,0.134988 -0.223315,0.375307 0.006,0.0436614 -0.0243307,0.0843268 -0.0679961,0.0903268 -0.00400394,0.000665354 -0.00767323,0.001 -0.0113346,0.001z"/>
       </g>
       <g id="_511977744">
        <path id="_438215888" class="fil4" d="M2.61126 3.48413c-0.0393307,0 -0.0736614,-0.0289961 -0.0789961,-0.0689961 -0.016,-0.114657 -0.000665354,-0.21798 0.0453307,-0.307642 0.0353307,-0.0686614 0.0879961,-0.127654 0.156657,-0.174988 0.0363307,-0.0249961 0.0863228,-0.0159961 0.111323,0.0203346 0.025,0.0363307 0.016,0.0863228 -0.0203307,0.111323 -0.109327,0.0756614 -0.154654,0.186319 -0.134657,0.328642 0.006,0.0436614 -0.0243307,0.0843268 -0.0679921,0.0903268 -0.00366929,0.001 -0.00766929,0.001 -0.0113346,0.001z"/>
       </g>
      </g>
      <g>
       <g id="_511977576">
        <path id="_438215024" class="fil4" d="M3.51353 2.52921c-0.0286614,0 -0.0559961,-0.0153346 -0.0706614,-0.0423307 -0.0209961,-0.0389961 -0.00633071,-0.0873268 0.0326654,-0.108327 0.0949921,-0.0509961 0.202319,-0.153323 0.174319,-0.352972 -0.00599606,-0.0436614 0.0243346,-0.0843268 0.0679961,-0.0903268 0.0436614,-0.006 0.0843268,0.0243346 0.0903268,0.0679961 0.0186654,0.132323 -0.00433465,0.249315 -0.0683268,0.347307 -0.0446654,0.0683268 -0.109657,0.126657 -0.188654,0.168988 -0.012,0.00666535 -0.025,0.00966535 -0.0376654,0.00966535z"/>
       </g>
       <g id="_511977816">
        <path id="_438215336" class="fil4" d="M3.85817 3.15916c-0.00366929,0 -0.00733465,-0.000334646 -0.0113346,-0.000669291 -0.0436614,-0.006 -0.0743268,-0.0466614 -0.0679921,-0.0903268 0.0336654,-0.24065 -0.125323,-0.338307 -0.223315,-0.375303 -0.0413307,-0.0156654 -0.0623268,-0.0616614 -0.0466614,-0.102992 0.0156654,-0.0413307 0.0616614,-0.0623307 0.102992,-0.0466654 0.0486654,0.0183346 0.141657,0.0619961 0.216654,0.147323 0.0929921,0.105661 0.130323,0.243984 0.108657,0.399972 -0.00567323,0.0396654 -0.0400039,0.0686614 -0.079,0.0686614z"/>
       </g>
       <g id="_511977672">
        <path id="_438214544" class="fil4" d="M3.71385 3.48413c-0.00366929,0 -0.00733465,-0.000334646 -0.0113346,-0.000665354 -0.0436614,-0.006 -0.0743268,-0.0466614 -0.0679921,-0.0903268 0.0199961,-0.142657 -0.0253346,-0.253315 -0.134657,-0.328642 -0.0363307,-0.025 -0.0453307,-0.0749961 -0.0203307,-0.111327 0.025,-0.0363307 0.0749961,-0.0453307 0.111327,-0.0203307 0.0683268,0.0473307 0.121323,0.106327 0.156654,0.174988 0.0463307,0.0896614 0.0616614,0.192988 0.0453307,0.307642 -0.00533858,0.04 -0.0396654,0.0686614 -0.0789961,0.0686614z"/>
       </g>
      </g>
     </g>
     <g>
      <g id="_511978752">
       <path id="_438214256" class="fil4" d="M2.93191 2.01758c-0.0169961,0 -0.034,-0.00533465 -0.0483307,-0.0163346 -0.0516614,-0.0393307 -0.137654,-0.133654 -0.134323,-0.322307 0.000669291,-0.0436614 0.0363307,-0.0786614 0.0799921,-0.0786614 0.000334646,0 0.00100394,0 0.00133465,0 0.0443307,0.000665354 0.0793307,0.0373307 0.0786614,0.0813268 -0.00199606,0.112327 0.0376654,0.166654 0.0713307,0.192319 0.0349961,0.0266654 0.0419961,0.0769921 0.0149961,0.111992 -0.0156654,0.0206614 -0.0396614,0.0316654 -0.0636614,0.0316654z"/>
      </g>
      <g id="_511978104">
       <path id="_438214112" class="fil4" d="M3.39354 2.01758c-0.0239961,0 -0.0479961,-0.011 -0.0636614,-0.0316654 -0.0266654,-0.0349961 -0.0199961,-0.0853268 0.015,-0.111992 0.0336654,-0.0256614 0.0733268,-0.0799921 0.0713268,-0.192319 -0.000669291,-0.0443307 0.0343307,-0.0806614 0.0786614,-0.0813268 0.000334646,0 0.001,0 0.00133465,0 0.0436614,0 0.0793268,0.0349961 0.0799921,0.0786614 0.00333465,0.188654 -0.0826575,0.28298 -0.134323,0.322307 -0.0143346,0.011 -0.0316654,0.0163346 -0.0483307,0.0163346z"/>
      </g>
     </g>
    </g>
    <g id="_511978080">
     <path id="_438214496" class="fil4" d="M4.37846 5.53665c-0.0276654,0 -0.0546654,-0.0143307 -0.0693268,-0.0399961 -0.022,-0.0383307 -0.009,-0.0873268 0.0293268,-0.109327l0.705283 -0.406969c0.0383268,-0.022 0.0873268,-0.009 0.109327,0.0293307 0.0219961,0.0383307 0.00899606,0.0873268 -0.0293307,0.109327l-0.705283 0.406969c-0.0126654,0.00733465 -0.0266614,0.0106654 -0.0399961,0.0106654z"/>
    </g>
    <g id="_511978560">
     <path id="_438214208" class="fil4" d="M4.20947 5.244c-0.0276654,0 -0.0546654,-0.0143307 -0.0693268,-0.0399961 -0.022,-0.0383307 -0.009,-0.0873268 0.0293268,-0.109327l0.705283 -0.406969c0.0383268,-0.022 0.0873268,-0.009 0.109327,0.0293307 0.0219961,0.0383307 0.00899606,0.0873268 -0.0293307,0.109327l-0.705614 0.406969c-0.0123346,0.00733465 -0.0263307,0.0106654 -0.0396654,0.0106654z"/>
    </g>
   </g>
  </g>
  <path class="fil5" d="M3.16256 2.16224c0.0666496,0 0.131272,0.0142126 0.191217,0.0414213 0.0210906,-0.028374 0.0324331,-0.0609528 0.0324331,-0.0950866 0,-0.0417165 -0.0170079,-0.0802126 -0.0455984,-0.111071 -0.00277165,-0.00244882 -0.00539764,-0.00511811 -0.00785039,-0.008 -0.0410197,-0.0395079 -0.101992,-0.0645827 -0.169866,-0.0645827 -0.069374,0 -0.131531,0.0261929 -0.172547,0.0672126 -0.00092126,0.000988189 -0.0018622,0.00195276 -0.00282677,0.00288583 -0.0300039,0.0312638 -0.0479409,0.0707126 -0.0479409,0.113555 0,0.0339134 0.011189,0.0664252 0.0322953,0.0948858 0.059752,-0.0270433 0.124138,-0.0412205 0.190685,-0.0412205z"/>
  <path class="fil5" d="M3.32474 2.36968c-0.0486811,-0.030122 -0.103815,-0.047122 -0.162181,-0.047122 -0.0565945,0 -0.110154,0.0159843 -0.157736,0.0444173 -0.00327953,0.00240157 -0.00670866,0.0045315 -0.0102559,0.00638189 -0.0431772,0.027937 -0.0810591,0.0662953 -0.111331,0.112283 -0.000216535,0.000413386 -0.000433071,0.000826772 -0.000653543,0.00123622 -0.00214173,0.00399213 -0.00456299,0.00772441 -0.00722441,0.0111811 -0.0239685,0.0392441 -0.0425591,0.0835591 -0.0544488,0.131362 -0.000645669,0.00433465 -0.00164961,0.00859449 -0.00299213,0.0127402 -0.00782677,0.0354291 -0.012,0.0726457 -0.012,0.111028 0,0.0741299 0.0155669,0.143913 0.0429567,0.20485 0.00242913,0.00416929 0.00443701,0.00848819 0.00603937,0.0128976 0.0620276,0.127331 0.176713,0.212886 0.307646,0.212886 0.131327,0 0.246303,-0.0860669 0.308197,-0.214031 0.00133071,-0.00344488 0.00291339,-0.00682677 0.00474803,-0.010126 0.0278465,-0.0613189 0.0436929,-0.131685 0.0436929,-0.206476 0,-0.0395945 -0.00444094,-0.0779488 -0.012752,-0.114374 -0.000480315,-0.00177953 -0.000901575,-0.0035748 -0.00125984,-0.00538976 -0.0121772,-0.050752 -0.0318898,-0.0976614 -0.0575748,-0.138839 -0.00126772,-0.00183071 -0.00247244,-0.00372835 -0.0036063,-0.00568898 -0.0314094,-0.0486614 -0.0712717,-0.0889882 -0.116898,-0.11774 -0.000795276,-0.000476378 -0.00158268,-0.000968504 -0.00236614,-0.00147638z"/>
  <path class="fil6" d="M3.80817 2.00325c0.0186654,0.132323 -0.00433465,0.249315 -0.0683268,0.347307 -0.031063,0.0475197 -0.0719606,0.0902047 -0.120559,0.126035 0.012374,0.0267283 0.0228937,0.0544803 0.0314921,0.0830472 0.0507244,0.023685 0.11963,0.0647835 0.177732,0.13089 0.0929921,0.105661 0.130323,0.243984 0.108657,0.399972 -0.00567323,0.0396654 -0.0400039,0.0686614 -0.079,0.0686614 -0.00366929,0 -0.00733465,-0.000334646 -0.0113346,-0.000669291 -0.0436614,-0.006 -0.0743268,-0.0466614 -0.0679921,-0.0903268 0.0209764,-0.149945 -0.0328425,-0.244378 -0.100098,-0.303209 -0.00126772,0.0722756 -0.013878,0.142508 -0.036815,0.207957 0.0441181,0.0392244 0.0796181,0.0844606 0.105583,0.134917 0.0463307,0.0896614 0.0616614,0.192988 0.0453307,0.307642 -0.00533858,0.04 -0.0396654,0.0686614 -0.0789961,0.0686614 -0.00366929,0 -0.00733465,-0.000334646 -0.0113346,-0.000665354 -0.0436614,-0.006 -0.0743268,-0.0466614 -0.0679921,-0.0903268 0.0153701,-0.109646 -0.00785433,-0.200386 -0.0690591,-0.270713 -0.0105236,0.0149882 -0.0217283,0.0294724 -0.0336024,0.0433937 -0.0976575,0.114661 -0.22898,0.177657 -0.369303,0.177657 -0.140323,0 -0.271646,-0.0629961 -0.369642,-0.177657 -0.0118661,-0.0138622 -0.0230591,-0.0282835 -0.033563,-0.0432047 -0.0609843,0.0704134 -0.0841024,0.16098 -0.0687598,0.270189 0.006,0.0436614 -0.0243307,0.0843268 -0.0679921,0.0903268 -0.00366929,0.001 -0.00766929,0.001 -0.0113346,0.001 -0.0393307,0 -0.0736614,-0.0289961 -0.0789961,-0.0689961 -0.016,-0.114657 -0.000665354,-0.21798 0.0453307,-0.307642 0.0258976,-0.0503307 0.0611102,-0.0954646 0.10511,-0.134622 -0.0228583,-0.0653583 -0.0353898,-0.135488 -0.0366732,-0.207654 -0.0670512,0.058937 -0.120555,0.153303 -0.0994291,0.302614 0.006,0.0436614 -0.0243307,0.0843268 -0.0679961,0.0903268 -0.00400394,0.000665354 -0.00767323,0.001 -0.0113346,0.001 -0.0393307,0 -0.0736614,-0.0289961 -0.0789961,-0.0689961 -0.022,-0.155988 0.0156654,-0.294311 0.108657,-0.399969 0.0578937,-0.065874 0.126516,-0.106913 0.177185,-0.130638 0.00865354,-0.0286693 0.0192402,-0.0565197 0.0316811,-0.0833386 -0.0483661,-0.035752 -0.089248,-0.0783071 -0.120205,-0.125665 -0.0639961,-0.0979921 -0.0869921,-0.214984 -0.0683268,-0.347307 0.006,-0.0436614 0.0466614,-0.0743268 0.0903268,-0.0679961 0.0436614,0.006 0.0743268,0.0466614 0.0679961,0.0903268 -0.0223386,0.159287 0.0414646,0.256626 0.116417,0.31537 0.000299213,-0.000354331 0.000598425,-0.000704724 0.000901575,-0.00105906 0.0146181,-0.0170551 0.0299685,-0.0329724 0.0459803,-0.0477165 -0.0383346,-0.0544449 -0.059311,-0.118126 -0.059311,-0.183598 0,-0.0596181 0.0169961,-0.115713 0.0468661,-0.164606 -0.0410709,-0.0534882 -0.0794409,-0.137811 -0.0771969,-0.265028 0.000669291,-0.0436614 0.0363307,-0.0786614 0.0799921,-0.0786614l0.00133465 0c0.0443307,0.000665354 0.0793307,0.0373307 0.0786614,0.0813268 -0.00120866,0.0681181 0.0128976,0.114909 0.0317008,0.146909 0.0626772,-0.0400276 0.139307,-0.0635787 0.221949,-0.0635787 0.0825197,0 0.159039,0.0235315 0.221665,0.0634921 0.0187756,-0.032 0.0328583,-0.0787677 0.0316457,-0.146823 -0.000669291,-0.0443307 0.0343307,-0.0806614 0.0786614,-0.0813268l0.00133465 0c0.0436614,0 0.0793268,0.0349961 0.0799921,0.0786614 0.00224803,0.127075 -0.0360394,0.211354 -0.0770591,0.26485 0.0299921,0.0489685 0.047063,0.105138 0.047063,0.164783 0,0.0658543 -0.0210748,0.129602 -0.0595827,0.184063 0.0157598,0.0146063 0.0308701,0.0303701 0.045248,0.047252 0.000393701,0.000456693 0.000783465,0.000917323 0.00117323,0.00137402 0.075126,-0.0587126 0.139197,-0.15611 0.116819,-0.315685 -0.00599606,-0.0436614 0.0243346,-0.0843268 0.0679961,-0.0903268 0.0436614,-0.006 0.0843268,0.0243346 0.0903268,0.0679961zm-0.968594 1.74487c0.107657,0.0286654 0.21665,0.043 0.324976,0.043 0.216315,0 0.429634,-0.0566654 0.622283,-0.167657 0.596287,-0.344303 0.801272,-1.10925 0.456965,-1.7052 -0.344307,-0.596287 -1.10925,-0.801276 -1.7052,-0.457299 -0.596287,0.344307 -0.801276,1.10925 -0.456969,1.70554 0.166654,0.288646 0.435969,0.495295 0.757945,0.581622z"/>
 </g>
</svg>
