<?xml version="1.0" encoding="UTF-8"?>
<!DOCTYPE svg PUBLIC "-//W3C//DTD SVG 1.1//EN" "http://www.w3.org/Graphics/SVG/1.1/DTD/svg11.dtd">
<!-- Creator: CorelDRAW -->
<svg xmlns="http://www.w3.org/2000/svg" xml:space="preserve" width="6.82666in" height="6.82666in" style="shape-rendering:geometricPrecision; text-rendering:geometricPrecision; image-rendering:optimizeQuality; fill-rule:evenodd; clip-rule:evenodd"
viewBox="0 0 6.82666 6.82666"
 xmlns:xlink="http://www.w3.org/1999/xlink">
 <defs>
  <style type="text/css">
   <![CDATA[
    .fil0 {fill:none}
    .fil1 {fill:#0065A3}
    .fil2 {fill:#333333}
    .fil5 {fill:#C331C8}
    .fil6 {fill:#C8F5FE}
    .fil4 {fill:#E40048}
    .fil3 {fill:#FF9933}
   ]]>
  </style>
 </defs>
 <rect class="fil0" width="6.82666" height="6.82666"/>
 <g id="Layer_x0020_1">
  <metadata id="CorelCorpID_0Corel-Layer"/>
  <path class="fil1" d="M0.98685 1.91044l0 -0.327311c0,-0.141374 0.115272,-0.25665 0.256646,-0.25665l1.37085 0 0.478531 0.583961 -2.10603 0zm1.46156 -0.23865c0.029437,0 0.0533268,-0.0238858 0.0533268,-0.0533307 0,-0.0296102 -0.0237165,-0.0533307 -0.0533268,-0.0533307l-0.128992 3.93701e-006c-0.0296063,0 -0.0533268,0.0237165 -0.0533268,0.0533268 0,0.0296102 0.0237165,0.0533307 0.0533268,0.0533307l0.128992 0zm-0.48963 0c0.029437,0 0.0533268,-0.0238858 0.0533268,-0.0533307 0,-0.0296102 -0.0237165,-0.0533307 -0.0533268,-0.0533307l-0.128657 3.93701e-006c-0.0296102,0 -0.0533268,0.0237165 -0.0533268,0.0533268 0,0.0296102 0.0237126,0.0533307 0.0533268,0.0533307l0.128657 0zm-0.48963 0c0.0296102,0 0.0533307,-0.0237205 0.0533307,-0.0533307 0,-0.0296102 -0.0237165,-0.0533307 -0.0533307,-0.0533307l-0.128988 3.93701e-006c-0.0296102,0 -0.0533268,0.0237165 -0.0533268,0.0533268 0,0.0296102 0.0237126,0.0533307 0.0533268,0.0533307l0.128988 0zm1.28326 -0.344976l2.84509 0c0.133705,0 0.242315,0.10861 0.242315,0.242315l3.93701e-006 0.341311 -2.60909 0 -0.478319 -0.583626zm2.49445 0.344976c0.0296142,0 0.0533307,-0.0237205 0.0533307,-0.0533307 0,-0.0296102 -0.0237165,-0.0533307 -0.0533307,-0.0533307l-1.47888 3.93701e-006c-0.0296102,0 -0.0533307,0.0237165 -0.0533307,0.0533268 0,0.0296102 0.0237205,0.0533307 0.0533307,0.0533307l1.47888 0z"/>
  <g id="_442234776">
   <g id="_511979520">
    <path id="_442237152" class="fil2" d="M5.58317 5.63349l-4.33967 0c-0.21498,0 -0.389969,-0.174988 -0.389969,-0.389972l0 -3.66038c0,-0.21465 0.174319,-0.389307 0.388969,-0.389972 0.000334646,0 0.000669291,0 0.001,0l1.39589 0c0.0239961,0 0.0466614,0.0106654 0.0619921,0.0293307l0.541965 0.661283 2.6498 0c0.0443307,0 0.0799921,0.0356614 0.0799921,0.0799921l0 3.27975c0,0.214988 -0.174988,0.389972 -0.389969,0.389972zm-4.33867 -4.28034c-0.000330709,0 -0.000665354,0 -0.001,0 -0.126657,0 -0.22998,0.103327 -0.22998,0.229984l0 3.66006c0,0.126657 0.103327,0.22998 0.22998,0.22998l4.33967 3.93701e-006c0.126657,0 0.22998,-0.103327 0.22998,-0.229984l0 -3.19976 -2.6078 0c-0.024,0 -0.0466614,-0.0106654 -0.0619961,-0.0293307l-0.541622 -0.660953 -1.35723 0z"/>
   </g>
   <g id="_511979376">
    <path id="_442236648" class="fil2" d="M3.20535 2.04377l-2.27183 0c-0.0443307,0 -0.0799921,-0.0356654 -0.0799921,-0.0799961 0,-0.0443268 0.0356614,-0.0799921 0.0799921,-0.0799921l2.27183 0c0.0443268,0 0.0799921,0.0356614 0.0799921,0.0799921 0,0.0443268 -0.0356614,0.0799961 -0.0799921,0.0799961z"/>
   </g>
   <g id="_511978824">
    <path id="_442236192" class="fil2" d="M5.89314 2.04377c-0.0443307,0 -0.0799921,-0.0356654 -0.0799921,-0.0799961l-3.93701e-006 -0.394638c0,-0.118988 -0.0966614,-0.21565 -0.21565,-0.21565l-2.95811 0c-0.0443307,0 -0.0799921,-0.0356614 -0.0799921,-0.0799921 0,-0.0443307 0.0356614,-0.0799921 0.0799921,-0.0799921l2.95777 0c0.207319,0 0.375642,0.168654 0.375642,0.375638l0 0.394634c0.000330709,0.0439961 -0.0356654,0.0799961 -0.0796614,0.0799961z"/>
   </g>
   <g id="_511979544">
    <path id="_442236312" class="fil2" d="M5.24685 1.69846l-1.47888 0c-0.0443307,0 -0.0799961,-0.0356654 -0.0799961,-0.0799961 0,-0.0443268 0.0356654,-0.0799921 0.0799961,-0.0799921l1.47888 -3.93701e-006c0.0443307,0 0.0799961,0.0356654 0.0799961,0.0799961 0,0.0443268 -0.0356614,0.0799961 -0.0799961,0.0799961z"/>
   </g>
   <g id="_511979088">
    <path id="_442236528" class="fil2" d="M4.1826 3.26267l-1.53854 0c-0.109327,0 -0.198319,-0.0889921 -0.198319,-0.198319l0 -0.397969c0,-0.109327 0.0889921,-0.198319 0.198319,-0.198319l1.53821 0c0.109327,0 0.198319,0.0889921 0.198319,0.198319l0 0.397969c0,0.109327 -0.0886614,0.198319 -0.197988,0.198319zm-1.53854 -0.634618c-0.0206654,0 -0.0383307,0.0176654 -0.0383307,0.0383307l0 0.397969c0,0.0206654 0.0176654,0.0383307 0.0383307,0.0383307l1.53821 0c0.0206654,0 0.0383268,-0.0176614 0.0383268,-0.0383268l3.93701e-006 -0.397972c0,-0.0206654 -0.0176654,-0.0383307 -0.0383307,-0.0383307l-1.53821 0z"/>
   </g>
   <g id="_511978896">
    <path id="_442236240" class="fil2" d="M4.1826 4.15594l-1.53854 0c-0.109327,0 -0.198319,-0.0889921 -0.198319,-0.198319l0 -0.397969c0,-0.109327 0.0889921,-0.198319 0.198319,-0.198319l1.53821 0c0.109327,0 0.198319,0.0889921 0.198319,0.198319l0 0.397969c0,0.109327 -0.0886614,0.198319 -0.197988,0.198319zm-1.53854 -0.634618c-0.0206654,0 -0.0383307,0.0176654 -0.0383307,0.0383307l0 0.397969c0,0.0206654 0.0176654,0.0383307 0.0383307,0.0383307l1.53821 3.93701e-006c0.0206654,0 0.0383268,-0.0176654 0.0383268,-0.0383307l3.93701e-006 -0.397972c0,-0.0206654 -0.0176654,-0.0383307 -0.0383307,-0.0383307l-1.53821 0z"/>
   </g>
   <g id="_511980216">
    <path id="_442236768" class="fil2" d="M4.1826 5.04887l-1.53854 0c-0.109327,0 -0.198319,-0.0889921 -0.198319,-0.198319l0 -0.397969c0,-0.109327 0.0889921,-0.198319 0.198319,-0.198319l1.53821 0c0.109327,0 0.198319,0.0889921 0.198319,0.198319l0 0.397969c0,0.109327 -0.0886614,0.198319 -0.197988,0.198319zm-1.53854 -0.634618c-0.0206654,0 -0.0383307,0.0176654 -0.0383307,0.0383307l0 0.397969c0,0.0206654 0.0176654,0.0383307 0.0383307,0.0383307l1.53821 3.93701e-006c0.0206654,0 0.0383268,-0.0176654 0.0383268,-0.0383307l0 -0.397969c0,-0.0206654 -0.0176614,-0.0383307 -0.0383268,-0.0383307l-1.53821 -3.93701e-006z"/>
   </g>
   <g id="_511979712">
    <path id="_442236144" class="fil2" d="M3.41333 3.52132c-0.0443307,0 -0.0799921,-0.0356614 -0.0799921,-0.0799921l0 -0.258646c0,-0.0443307 0.0356614,-0.0799961 0.0799921,-0.0799961 0.0443307,0 0.0799921,0.0356654 0.0799921,0.0799961l0 0.258646c0,0.0439961 -0.0356614,0.0799921 -0.0799921,0.0799921z"/>
   </g>
   <g id="_511979808">
    <path id="_442235472" class="fil2" d="M3.41333 4.41425c-0.0443307,0 -0.0799921,-0.0356614 -0.0799921,-0.0799921l0 -0.25865c0,-0.0443268 0.0356614,-0.0799921 0.0799921,-0.0799921 0.0443307,0 0.0799921,0.0356654 0.0799921,0.0799921l0 0.25865c0,0.0443307 -0.0356614,0.0799921 -0.0799921,0.0799921z"/>
   </g>
   <g id="_511980240">
    <path id="_442235664" class="fil2" d="M2.52607 3.8503l-0.74128 0c-0.133654,0 -0.24265,-0.108661 -0.24265,-0.24265l0 -0.579957c0,-0.133654 0.108661,-0.242646 0.24265,-0.242646l0.740945 0c0.0443268,0 0.0799921,0.0356654 0.0799921,0.0799921 0,0.0443307 -0.0356654,0.0799961 -0.0799921,0.0799961l-0.740945 0c-0.0453307,0 -0.0826575,0.0369961 -0.0826575,0.0826575l0 0.579957c0,0.0453307 0.0369961,0.0826614 0.0826575,0.0826614l0.740945 0c0.0443268,0 0.0799921,0.0356654 0.0799921,0.0799961 0,0.0443268 -0.0356654,0.0799921 -0.0796575,0.0799921z"/>
   </g>
   <g id="_511980312">
    <path id="_442236120" class="fil2" d="M5.04187 4.74323l-0.740945 0c-0.0443268,0 -0.0799921,-0.0356654 -0.0799921,-0.0799961 0,-0.0443268 0.0356654,-0.0799921 0.0799921,-0.0799921l0.740945 0c0.0453307,0 0.0823268,-0.0369961 0.0823268,-0.0826575l0 -0.579957c0,-0.0453307 -0.0369961,-0.0826614 -0.0823268,-0.0826614l-0.740945 -3.93701e-006c-0.0443268,0 -0.0799921,-0.0356614 -0.0799921,-0.0799921 0,-0.0443268 0.0356654,-0.0799921 0.0799921,-0.0799921l0.740945 0c0.133654,0 0.242315,0.108657 0.242315,0.24265l0 0.579957c0,0.133988 -0.108661,0.242646 -0.242315,0.242646z"/>
   </g>
   <g>
    <g id="_511980624">
     <path id="_442235736" class="fil2" d="M1.46915 1.69846l-0.128988 0c-0.0443307,0 -0.0799921,-0.0356654 -0.0799921,-0.0799961 0,-0.0443268 0.0356614,-0.0799921 0.0799921,-0.0799921l0.128988 -3.93701e-006c0.0443307,0 0.0799961,0.0356654 0.0799961,0.0799961 0,0.0443268 -0.0356654,0.0799961 -0.0799961,0.0799961z"/>
    </g>
    <g id="_511980456">
     <path id="_442235328" class="fil2" d="M1.95878 1.69846l-0.128657 0c-0.0443307,0 -0.0799921,-0.0356654 -0.0799921,-0.0799961 0,-0.0443268 0.0356614,-0.0799921 0.0799921,-0.0799921l0.128657 -3.93701e-006c0.0443268,0 0.0799921,0.0356654 0.0799921,0.0799961 0,0.0443268 -0.0359961,0.0799961 -0.0799921,0.0799961z"/>
    </g>
    <g id="_511980864">
     <path id="_442235136" class="fil2" d="M2.44841 1.69846l-0.128992 0c-0.0443268,0 -0.0799921,-0.0356654 -0.0799921,-0.0799961 0,-0.0443268 0.0356654,-0.0799921 0.0799921,-0.0799921l0.128992 -3.93701e-006c0.0443268,0 0.0799921,0.0356654 0.0799921,0.0799961 0,0.0443268 -0.0359961,0.0799961 -0.0799921,0.0799961z"/>
    </g>
   </g>
  </g>
  <path class="fil3" d="M4.18227 2.62806l-1.53821 0c-0.0206654,0 -0.0383307,0.0176654 -0.0383307,0.0383307l-3.93701e-006 0.19865 3.93701e-006 0.199319c0,0.0206654 0.0176654,0.0383307 0.0383307,0.0383307l0.769272 0 0.768941 0c0.0206654,0 0.0383268,-0.0176614 0.0383268,-0.0383268l3.93701e-006 -0.397972c0,-0.0206654 -0.0176654,-0.0383307 -0.0383307,-0.0383307z"/>
  <path class="fil4" d="M4.18227 3.52132l-0.768941 0 -0.769272 0c-0.0206654,0 -0.0383307,0.0176654 -0.0383307,0.0383307l-3.93701e-006 0.210654 3.93701e-006 0.187315c0,0.0206654 0.0176654,0.0383307 0.0383307,0.0383307l0.76189 0c0.00242913,-0.000216535 0.0048937,-0.000330709 0.00738189,-0.000330709 0.00248819,0 0.00495276,0.000114173 0.00738189,0.000334646l0.761559 0c0.0206654,0 0.0383268,-0.0176654 0.0383268,-0.0383307l3.93701e-006 -0.397972c0,-0.0206654 -0.0176654,-0.0383307 -0.0383307,-0.0383307z"/>
  <path class="fil5" d="M4.18227 4.41426l-0.768941 -3.93701e-006 -0.769272 0c-0.0206654,0 -0.0383307,0.0176654 -0.0383307,0.0383307l0 0.397969c0,0.0206654 0.0176654,0.0383307 0.0383307,0.0383307l1.53821 3.93701e-006c0.0206654,0 0.0383268,-0.0176654 0.0383268,-0.0383307l0 -0.397969c0,-0.0206654 -0.0176614,-0.0383307 -0.0383268,-0.0383307z"/>
  <path class="fil6" d="M4.18227 4.25426c0.109327,0 0.198319,0.0889921 0.198319,0.198319l0 0.130657 0.661283 0c0.0453307,0 0.0823268,-0.0369961 0.0823268,-0.0826575l0 -0.579957c0,-0.0453307 -0.0369961,-0.0826614 -0.0823268,-0.0826614l-0.661283 -3.93701e-006 0 0.119657c0,0.109327 -0.0886614,0.198319 -0.197988,0.198319l-0.68928 0 0 0.0983268 0.688949 0z"/>
  <path class="fil6" d="M2.44574 3.69031l0 -0.130657c0,-0.109327 0.0889921,-0.198319 0.198319,-0.198319l0.68928 0 0 -0.0986575 -0.68928 0c-0.109327,0 -0.198319,-0.0889921 -0.198319,-0.198319l0 -0.119323 -0.660953 0c-0.0453307,0 -0.0826575,0.0369961 -0.0826575,0.0826575l0 0.579957c0,0.0453307 0.0369961,0.0826614 0.0826575,0.0826614l0.660953 0z"/>
  <path class="fil6" d="M1.78479 2.78504l0.660953 0 0 -0.118657c0,-0.109327 0.0889921,-0.198319 0.198319,-0.198319l1.53821 0c0.109327,0 0.198319,0.0889921 0.198319,0.198319l0 0.397969c0,0.109327 -0.0886614,0.198319 -0.197988,0.198319l-0.68928 0 0 0.0986575 0.688949 0c0.109327,0 0.198319,0.0889921 0.198319,0.198319l0 0.118327 0.661283 0c0.133654,0 0.242315,0.108657 0.242315,0.24265l0 0.579957c0,0.133988 -0.108661,0.242646 -0.242315,0.242646l-0.661283 0 0 0.107323c0,0.109327 -0.0886614,0.198319 -0.197988,0.198319l-1.53854 0c-0.109327,0 -0.198319,-0.0889921 -0.198319,-0.198319l0 -0.397969c0,-0.109327 0.0889921,-0.198319 0.198319,-0.198319l0.68928 0 0 -0.0983268 -0.68928 0c-0.109327,0 -0.198319,-0.0889921 -0.198319,-0.198319l0 -0.107323 -0.660953 0c-0.133654,0 -0.24265,-0.108661 -0.24265,-0.24265l0 -0.579957c0,-0.133654 0.108661,-0.242646 0.24265,-0.242646zm-0.541291 2.68813l4.33967 3.93701e-006c0.126657,0 0.22998,-0.103327 0.22998,-0.229984l0 -3.19976 -2.6004 0c-0.00243701,0.000220472 -0.00490551,0.000334646 -0.00740157,0.000334646l-2.19183 0 0 3.19942c0,0.126657 0.103327,0.22998 0.22998,0.22998z"/>
 </g>
</svg>
