<?xml version="1.0" encoding="UTF-8"?>
<!DOCTYPE svg PUBLIC "-//W3C//DTD SVG 1.1//EN" "http://www.w3.org/Graphics/SVG/1.1/DTD/svg11.dtd">
<!-- Creator: CorelDRAW -->
<svg xmlns="http://www.w3.org/2000/svg" xml:space="preserve" width="6.82666in" height="6.82666in" style="shape-rendering:geometricPrecision; text-rendering:geometricPrecision; image-rendering:optimizeQuality; fill-rule:evenodd; clip-rule:evenodd"
viewBox="0 0 6.82666 6.82666"
 xmlns:xlink="http://www.w3.org/1999/xlink">
 <defs>
  <style type="text/css">
   <![CDATA[
    .fil0 {fill:none}
    .fil1 {fill:#333333}
    .fil5 {fill:#CCCCCC}
    .fil3 {fill:#CDE2FF}
    .fil2 {fill:#EDF6FF}
    .fil4 {fill:#FEB045}
    .fil6 {fill:#FEC34D}
   ]]>
  </style>
 </defs>
 <rect class="fil0" width="6.82666" height="6.82666"/>
 <g id="Layer_x0020_1">
  <metadata id="CorelCorpID_0Corel-Layer"/>
  <path class="fil1" d="M5.0927 5.97319l-3.35908 0c-0.256311,0 -0.464965,-0.20865 -0.464965,-0.464965l0 -2.2045c0,-0.21765 0.177319,-0.394972 0.394969,-0.394972l1.09359 0c0.0853268,0 0.157654,0.0349961 0.21565,0.104323 0.0459961,0.0549961 0.0769921,0.124327 0.103657,0.190984l0.126992 0.316976 1.88952 3.93701e-006c0.256311,0 0.464965,0.20865 0.464965,0.464965l0 1.52222c-0.000334646,0.256315 -0.208988,0.464965 -0.465299,0.464965zm-3.42907 -2.90411c-0.129657,0 -0.234984,0.105323 -0.234984,0.23498l0 2.2045c0,0.167988 0.136657,0.304976 0.304976,0.304976l3.35908 0c0.167988,0 0.304976,-0.136657 0.304976,-0.304976l0 -1.52222c0,-0.167988 -0.136657,-0.304976 -0.304976,-0.304976l-1.94385 0c-0.0326614,0 -0.0619921,-0.02 -0.0743268,-0.0503307l-0.146988 -0.367303c-0.0583307,-0.145654 -0.101323,-0.194654 -0.170654,-0.194654l-1.09325 0z"/>
  <path class="fil1" d="M5.47767 4.06633c-0.0443307,0 -0.0799921,-0.0356654 -0.0799921,-0.0799921l0 -1.33857c0,-0.182654 -0.148654,-0.331307 -0.331307,-0.331307l-0.0719961 0c-0.0443307,0 -0.0799961,-0.0356654 -0.0799961,-0.0799921 0,-0.0443307 0.0356654,-0.0799961 0.0799961,-0.0799961l0.0719921 0c0.270646,0 0.491295,0.220315 0.491295,0.491295l0 1.33856c3.93701e-006,0.0439961 -0.0359921,0.0799961 -0.0799921,0.0799961zm-4.12902 -0.68228c-0.0443307,0 -0.0799921,-0.0356654 -0.0799921,-0.0799961l-3.93701e-006 -0.656283c0,-0.27065 0.220315,-0.491295 0.491295,-0.491295l0.708614 0c0.0443307,0 0.0799921,0.0356614 0.0799921,0.0799921 0,0.0443268 -0.0356614,0.0799921 -0.0799921,0.0799921l-0.70861 3.93701e-006c-0.182654,0 -0.331307,0.148654 -0.331307,0.331307l0 0.655949c-3.93701e-006,0.0443307 -0.0356654,0.0803307 -0.0799961,0.0803307z"/>
  <path class="fil1" d="M4.99438 3.68136c-0.0443307,0 -0.0799961,-0.0356654 -0.0799961,-0.0799961l0 -1.84752 -0.740276 -0.74028 -1.61954 0c-0.00333465,0 -0.006,0.003 -0.006,0.006l0 1.96919c0,0.0443268 -0.0356614,0.0799921 -0.0799921,0.0799921 -0.0443307,0 -0.0799921,-0.0356654 -0.0799921,-0.0799921l0 -1.96919c0,-0.0913268 0.0746614,-0.165988 0.165984,-0.165988l1.65254 0c0.0213346,0 0.0416654,0.00833071 0.0566654,0.0233307l0.786937 0.786937c0.015,0.015 0.0233307,0.0353307 0.0233307,0.0566654l0 1.88086c0.000338583,0.0439961 -0.0356614,0.0799961 -0.0796575,0.0799961z"/>
  <path class="fil1" d="M4.99438 1.8005l-0.700949 0c-0.0916575,0 -0.165988,-0.0746614 -0.165988,-0.165988l3.93701e-006 -0.700949c0,-0.0323307 0.0193346,-0.0616614 0.0493307,-0.0739921 0.0299961,-0.0123346 0.0643307,-0.00566535 0.0873268,0.0173307l0.786937 0.786937c0.023,0.023 0.0296654,0.0573307 0.0173346,0.0873307 -0.0123346,0.0299961 -0.0416654,0.0493307 -0.0739961,0.0493307zm-0.706949 -0.673949l0 0.507961c0,0.00333465 0.003,0.006 0.006,0.006l0.507965 -3.93701e-006 -0.513965 -0.513957z"/>
  <path class="fil1" d="M3.8878 1.42353l-1.09991 0c-0.0443307,0 -0.0799921,-0.0356614 -0.0799921,-0.0799921 0,-0.0443307 0.0356614,-0.0799921 0.0799921,-0.0799921l1.09991 -3.93701e-006c0.0443307,0 0.0799961,0.0356614 0.0799961,0.0799921 0,0.0443307 -0.0356654,0.0799961 -0.0799961,0.0799961z"/>
  <path class="fil1" d="M3.8878 1.78183l-1.09991 0c-0.0443307,0 -0.0799921,-0.0356614 -0.0799921,-0.0799921 0,-0.0443268 0.0356614,-0.0799921 0.0799921,-0.0799921l1.09991 0c0.0443307,0 0.0799961,0.0356654 0.0799961,0.0799921 0,0.0439961 -0.0356654,0.0799921 -0.0799961,0.0799921z"/>
  <path class="fil1" d="M4.54008 2.14015l-1.7522 0c-0.0443307,0 -0.0799921,-0.0356654 -0.0799921,-0.0799961 0,-0.0443268 0.0356614,-0.0799921 0.0799921,-0.0799921l1.7522 -3.93701e-006c0.0443307,0 0.0799921,0.0356654 0.0799921,0.0799961 0,0.0443268 -0.0359961,0.0799961 -0.0799921,0.0799961z"/>
  <path class="fil1" d="M4.54008 2.49845l-1.7522 0c-0.0443307,0 -0.0799921,-0.0356654 -0.0799921,-0.0799921 0,-0.0443307 0.0356614,-0.0799921 0.0799921,-0.0799921l1.7522 0c0.0443307,0 0.0799921,0.0356614 0.0799921,0.0799921 0,0.0443268 -0.0359961,0.0799921 -0.0799921,0.0799921z"/>
  <path class="fil1" d="M4.54008 2.85676l-1.7522 0c-0.0443307,0 -0.0799921,-0.0356614 -0.0799921,-0.0799921 0,-0.0443307 0.0356614,-0.0799921 0.0799921,-0.0799921l1.7522 -3.93701e-006c0.0443307,0 0.0799921,0.0356654 0.0799921,0.0799921 0,0.0443307 -0.0359961,0.0799961 -0.0799921,0.0799961z"/>
  <path class="fil1" d="M2.57889 5.71054l-0.129988 0c-0.0843268,0 -0.152319,-0.0629961 -0.169319,-0.156323l-0.0146654 -0.0809921c-0.03,-0.0103346 -0.0593307,-0.0223346 -0.0879961,-0.0363307l-0.0676614 0.0469961c-0.0783268,0.0539961 -0.170654,0.0503268 -0.230315,-0.00933465l-0.0919921 -0.0919921c-0.0596614,-0.0596614 -0.0633268,-0.152323 -0.00933071,-0.230315l0.0469961 -0.0676614c-0.014,-0.0286614 -0.026,-0.0579961 -0.0363307,-0.0879921l-0.0809961 -0.0146654c-0.0936614,-0.017 -0.156323,-0.0849961 -0.156323,-0.169323l0 -0.129992c0,-0.0843268 0.0629961,-0.152319 0.156323,-0.169323l0.0809961 -0.0146654c0.0103307,-0.0299961 0.0223307,-0.0593268 0.0363307,-0.0879921l-0.0469961 -0.0676614c-0.0539961,-0.0783268 -0.0503307,-0.170654 0.00933071,-0.230315l0.0919921 -0.0919921c0.0596614,-0.0596614 0.152323,-0.0633268 0.230315,-0.00933071l0.0676614 0.0469921c0.0286614,-0.0139961 0.0579961,-0.0259961 0.0879961,-0.0363307l0.0146654 -0.0809921c0.0169961,-0.0936614 0.0849921,-0.156323 0.169319,-0.156323l0.129988 3.93701e-006c0.0843268,0 0.152323,0.0629961 0.169323,0.156323l0.0146654 0.0809921c0.0299961,0.0103346 0.0593268,0.0223346 0.0879961,0.0363307l0.0676575 -0.0469961c0.0783307,-0.0539961 0.170654,-0.0503268 0.230315,0.00933465l0.0919921 0.0919921c0.0596614,0.0596614 0.0633307,0.152319 0.00933465,0.230315l-0.0469961 0.0676614c0.014,0.0286614 0.0259961,0.0579961 0.0363307,0.0879921l0.0809961 0.0146654c0.0936575,0.017 0.156319,0.0849961 0.156319,0.169323l0 0.129992c0,0.0843268 -0.0629961,0.152319 -0.156319,0.169319l-0.0809961 0.0146654c-0.0103346,0.03 -0.0223307,0.0593307 -0.0363307,0.0879961l0.0469961 0.0676614c0.0539961,0.0783268 0.0503268,0.170654 -0.00933465,0.230315l-0.0919921 0.0919921c-0.0596614,0.0596614 -0.152319,0.0633268 -0.230315,0.00933071l-0.0676575 -0.0469921c-0.0286654,0.0139961 -0.058,0.0259961 -0.0879961,0.0363307l-0.0146654 0.0809921c-0.0169961,0.0933228 -0.0849961,0.156319 -0.169323,0.156319zm-0.130654 -0.159988c0,0 0.000334646,0 0.000665354,0l0.129988 0c0.000334646,0 0.000669291,0 0.000669291,0 0.00233071,-0.00133465 0.00866535,-0.00966535 0.0113307,-0.025l0.0233307 -0.128988c0.00566535,-0.0303346 0.028,-0.055 0.0579961,-0.0629961 0.0503307,-0.0136654 0.0989921,-0.0336654 0.144323,-0.0599961 0.0266654,-0.0153346 0.0599961,-0.014 0.0853307,0.00366535l0.107657 0.0746614c0.013,0.009 0.0229961,0.0103346 0.0256614,0.00966535 0,0 0.000334646,-0.000330709 0.000334646,-0.000330709l0.0919921 -0.0919921c0.000334646,-0.000334646 0.000334646,-0.000334646 0.000334646,-0.000334646 0.000665354,-0.00266535 -0.000669291,-0.0126654 -0.00966929,-0.0256654l-0.0746575 -0.107657c-0.0176654,-0.0253307 -0.019,-0.0586614 -0.00366929,-0.0853268 0.0259961,-0.0453307 0.0463307,-0.0939961 0.0599961,-0.144323 0.008,-0.0299961 0.0326654,-0.0523307 0.0629961,-0.0579961l0.128988 -0.0233307c0.0153346,-0.00266535 0.0236654,-0.009 0.025,-0.0113346 0,0 0,-0.000330709 0,-0.000665354l0 -0.129992c0,-0.000334646 0,-0.000665354 0,-0.000665354 -0.00133465,-0.00233465 -0.00966535,-0.00866535 -0.025,-0.0113346l-0.128988 -0.0233307c-0.0303307,-0.00566535 -0.0549961,-0.0279961 -0.0629961,-0.0579961 -0.0136654,-0.0503268 -0.0336654,-0.0989921 -0.0599961,-0.144323 -0.0153307,-0.0266614 -0.0139961,-0.0599961 0.00366929,-0.0853268l0.0746575 -0.107657c0.009,-0.013 0.0103346,-0.023 0.00966929,-0.0256654 0,0 -0.000334646,-0.000334646 -0.000334646,-0.000334646l-0.0916575 -0.0926535c-0.000334646,-0.000334646 -0.000334646,-0.000334646 -0.000334646,-0.000334646 -0.00266535,-0.000669291 -0.0126654,0.000665354 -0.0256614,0.00966535l-0.107661 0.0746614c-0.0253307,0.0176654 -0.0586614,0.019 -0.0853268,0.00366929 -0.0453307,-0.026 -0.0939921,-0.0463346 -0.144323,-0.0599961 -0.0299961,-0.008 -0.0523307,-0.0326654 -0.0579961,-0.0629961l-0.0233307 -0.128992c-0.00266535,-0.0153307 -0.009,-0.0236614 -0.0113307,-0.0249961 0,0 -0.000334646,0 -0.000669291,0l-0.129988 0c-0.000334646,0 -0.000665354,0 -0.000665354,0 -0.00233465,0.00133465 -0.00866929,0.00966535 -0.0113346,0.0249961l-0.0233307 0.128992c-0.00566535,0.0303307 -0.0279961,0.0549961 -0.0579961,0.0629961 -0.0503268,0.0136614 -0.0989921,0.0336654 -0.144323,0.0596614 -0.0266654,0.0153307 -0.0599961,0.0139961 -0.0853268,-0.00366929l-0.107657 -0.0746575c-0.013,-0.009 -0.023,-0.0103346 -0.0256654,-0.00966929 0,0 -0.000334646,0.000334646 -0.000334646,0.000334646l-0.0919921 0.0919921c-0.000330709,0.000334646 -0.000330709,0.000334646 -0.000330709,0.000334646 -0.000669291,0.00266535 0.000665354,0.0126654 0.00966535,0.0256614l0.0746614 0.107657c0.0176654,0.0253346 0.019,0.0586614 0.00366535,0.0853307 -0.0259961,0.0453307 -0.0463307,0.0939921 -0.0599961,0.144323 -0.00799606,0.0299961 -0.0326614,0.0523307 -0.0629921,0.0579961l-0.128992 0.0233307c-0.0153307,0.00266535 -0.0236654,0.009 -0.025,0.0113307 0,0 0,0.000334646 0,0.000669291l0 0.129988c0,0.000334646 0,0.000669291 0,0.000669291 0.00133465,0.00233071 0.00966929,0.00866535 0.025,0.0113307l0.128992 0.0233307c0.0303307,0.00566535 0.0549961,0.028 0.0629921,0.0579961 0.0136654,0.0503307 0.0336654,0.0989961 0.0599961,0.144323 0.0153346,0.0266654 0.014,0.0599961 -0.00366535,0.0853307l-0.0746614 0.107657c-0.009,0.013 -0.0103346,0.0229961 -0.00966535,0.0256654 0,0 0.000330709,0.000330709 0.000330709,0.000330709l0.0919921 0.0919921c0.000334646,0.000334646 0.000334646,0.000334646 0.000334646,0.000334646 0.00266535,0.000665354 0.0126654,-0.000669291 0.0256654,-0.00966535l0.107657 -0.0746614c0.0253307,-0.0176654 0.0586614,-0.019 0.0853268,-0.00366929 0.0453307,0.026 0.0939961,0.0463346 0.144323,0.0599961 0.03,0.008 0.0523307,0.0326654 0.0579961,0.0629961l0.0233307 0.128992c0.00233465,0.0163307 0.00866535,0.0243307 0.011,0.0259961zm0.131323 0l0 0 0 0zm-0.131657 0c0,0 0,0 0,0l0 0zm-0.455299 -0.188654l0 0 0 0zm1.32457 -0.548626l0 0 0 0zm-1.60654 0l0 0 0 0zm1.60654 -0.131988l0 0 0 0zm-0.28198 -0.548626l0 0 0 0zm-0.587287 -0.18865l0 0 0 0z"/>
  <path class="fil1" d="M2.5139 5.16691c-0.231315,0 -0.419634,-0.188319 -0.419634,-0.419634 0,-0.231319 0.188319,-0.419634 0.419634,-0.419634 0.231315,0 0.419634,0.188315 0.419634,0.419634 -0.000334646,0.231315 -0.188319,0.419634 -0.419634,0.419634zm0 -0.67928c-0.142988,0 -0.259646,0.116323 -0.259646,0.259646 0,0.143319 0.116323,0.259646 0.259646,0.259646 0.142988,0 0.259646,-0.116327 0.259646,-0.259646 0,-0.143323 -0.116657,-0.259646 -0.259646,-0.259646z"/>
  <path class="fil1" d="M4.88039 5.46056l-1.03326 0c-0.103988,0 -0.188315,-0.0843307 -0.188315,-0.188319l0 -1.04992c0,-0.103992 0.0843268,-0.188319 0.188315,-0.188319l1.03326 0c0.103988,0 0.188315,0.0843268 0.188315,0.188319l0 1.04992c0,0.103657 -0.0846575,0.188319 -0.188315,0.188319zm-1.03326 -1.26657c-0.0153307,0 -0.0283307,0.013 -0.0283307,0.0283346l0 1.04992c0,0.0153346 0.013,0.0283346 0.0283307,0.0283346l1.03326 -7.87402e-006c0.0153307,0 0.0283307,-0.013 0.0283307,-0.0283307l0 -1.04992c0,-0.0153307 -0.013,-0.0283307 -0.0283307,-0.0283307l-1.03326 3.93701e-006z"/>
  <path class="fil2" d="M3.20352 3.52104l1.71087 3.93701e-006 0 -1.28457 0 -0.435969 -0.620953 0c-0.0916575,0 -0.165988,-0.0746614 -0.165988,-0.165988l3.93701e-006 -0.620953 -1.57288 0c-0.00333465,0 -0.006,0.003 -0.006,0.006l0 1.21691 0 0.672283 0.208654 0c0.0853268,0 0.157654,0.0349961 0.21565,0.104323 0.0459961,0.0549961 0.0769921,0.124327 0.103657,0.190984l0.126992 0.316976zm1.33656 -0.66428l-1.7522 0c-0.0443307,0 -0.0799921,-0.0356614 -0.0799921,-0.0799921 0,-0.0443307 0.0356614,-0.0799921 0.0799921,-0.0799921l1.7522 -3.93701e-006c0.0443307,0 0.0799921,0.0356654 0.0799921,0.0799921 0,0.0443307 -0.0359961,0.0799961 -0.0799921,0.0799961zm0 -0.358307l-1.7522 0c-0.0443307,0 -0.0799921,-0.0356654 -0.0799921,-0.0799921 0,-0.0443307 0.0356614,-0.0799921 0.0799921,-0.0799921l1.7522 0c0.0443307,0 0.0799921,0.0356614 0.0799921,0.0799921 0,0.0443268 -0.0359961,0.0799921 -0.0799921,0.0799921zm0 -0.358303l-1.7522 0c-0.0443307,0 -0.0799921,-0.0356654 -0.0799921,-0.0799961 0,-0.0443268 0.0356614,-0.0799921 0.0799921,-0.0799921l1.7522 -3.93701e-006c0.0443307,0 0.0799921,0.0356654 0.0799921,0.0799961 0,0.0443268 -0.0359961,0.0799961 -0.0799921,0.0799961zm-0.652283 -0.358311l-1.09991 0c-0.0443307,0 -0.0799921,-0.0356614 -0.0799921,-0.0799921 0,-0.0443268 0.0356614,-0.0799921 0.0799921,-0.0799921l1.09991 0c0.0443307,0 0.0799961,0.0356654 0.0799961,0.0799921 0,0.0439961 -0.0356654,0.0799921 -0.0799961,0.0799921zm0 -0.358303l-1.09991 0c-0.0443307,0 -0.0799921,-0.0356614 -0.0799921,-0.0799921 0,-0.0443307 0.0356614,-0.0799921 0.0799921,-0.0799921l1.09991 -3.93701e-006c0.0443307,0 0.0799961,0.0356614 0.0799961,0.0799921 0,0.0443307 -0.0356654,0.0799961 -0.0799961,0.0799961z"/>
  <path class="fil3" d="M4.29343 1.64052l0.507622 -3.93701e-006 -0.513622 -0.513626 0 0.50763c0,0.00333465 0.003,0.006 0.006,0.006z"/>
  <path class="fil4" d="M5.07404 2.31655l0 1.20449 0.0190039 0c0.116402,0 0.222976,0.0430354 0.304642,0.114024l0 -0.987291c0,-0.180094 -0.144516,-0.327134 -0.323646,-0.33122z"/>
  <path class="fil4" d="M2.38858 2.90875l0 -0.592291 -0.628618 3.93701e-006c-0.182654,0 -0.331307,0.148654 -0.331307,0.331307l0 0.338748c0.0657244,-0.0488346 0.147059,-0.0777677 0.234976,-0.0777677l0.724949 0z"/>
  <path class="fil4" d="M3.8188 4.22232l0 1.04992c0,0.0153346 0.013,0.0283346 0.0283307,0.0283346l1.03326 -7.87402e-006c0.0153307,0 0.0283307,-0.013 0.0283307,-0.0283307l0 -1.04992c0,-0.0153307 -0.013,-0.0283307 -0.0283307,-0.0283307l-1.03326 3.93701e-006c-0.0153307,0 -0.0283307,0.013 -0.0283307,0.0283346z"/>
  <path class="fil5" d="M3.31684 4.81261l0 -0.129992 0 -0.000665354c-0.00133465,-0.00233465 -0.00966535,-0.00866535 -0.025,-0.0113346l-0.128988 -0.0233307c-0.0303307,-0.00566535 -0.0549961,-0.0279961 -0.0629961,-0.0579961 -0.0136654,-0.0503268 -0.0336654,-0.0989921 -0.0599961,-0.144323 -0.0153307,-0.0266614 -0.0139961,-0.0599961 0.00366929,-0.0853268l0.0746575 -0.107657c0.009,-0.013 0.0103346,-0.023 0.00966929,-0.0256654l-0.000334646 -0.000334646 -0.0916575 -0.0926535 -0.000334646 -0.000334646c-0.00266535,-0.000669291 -0.0126654,0.000665354 -0.0256614,0.00966535l-0.107661 0.0746614c-0.0253307,0.0176654 -0.0586614,0.019 -0.0853268,0.00366929 -0.0453307,-0.026 -0.0939921,-0.0463346 -0.144323,-0.0599961 -0.0299961,-0.008 -0.0523307,-0.0326654 -0.0579961,-0.0629961l-0.0233307 -0.128992c-0.00266535,-0.0153307 -0.009,-0.0236614 -0.0113307,-0.0249961l-0.000669291 0 -0.129988 0 -0.000665354 0c-0.00233465,0.00133465 -0.00866929,0.00966535 -0.0113346,0.0249961l-0.0233307 0.128992c-0.00566535,0.0303307 -0.0279961,0.0549961 -0.0579961,0.0629961 -0.0503268,0.0136614 -0.0989921,0.0336654 -0.144323,0.0596614 -0.0266654,0.0153307 -0.0599961,0.0139961 -0.0853268,-0.00366929l-0.107657 -0.0746575c-0.013,-0.009 -0.023,-0.0103346 -0.0256654,-0.00966929l-0.000334646 0.000334646 -0.0919921 0.0919921 -0.000330709 0.000334646c-0.000669291,0.00266535 0.000665354,0.0126654 0.00966535,0.0256614l0.0746614 0.107657c0.0176654,0.0253346 0.019,0.0586614 0.00366535,0.0853307 -0.0259961,0.0453307 -0.0463307,0.0939921 -0.0599961,0.144323 -0.00799606,0.0299961 -0.0326614,0.0523307 -0.0629921,0.0579961l-0.128992 0.0233307c-0.0153307,0.00266535 -0.0236654,0.009 -0.025,0.0113307l0 0.000669291 0 0.129988 0 0.000669291c0.00133465,0.00233071 0.00966929,0.00866535 0.025,0.0113307l0.128992 0.0233307c0.0303307,0.00566535 0.0549961,0.028 0.0629921,0.0579961 0.0136654,0.0503307 0.0336654,0.0989961 0.0599961,0.144323 0.0153346,0.0266654 0.014,0.0599961 -0.00366535,0.0853307l-0.0746614 0.107657c-0.009,0.013 -0.0103346,0.0229961 -0.00966535,0.0256654l0.000330709 0.000330709 0.0919921 0.0919921 0.000334646 0.000334646c0.00266535,0.000665354 0.0126654,-0.000669291 0.0256654,-0.00966535l0.107657 -0.0746614c0.0253307,-0.0176654 0.0586614,-0.019 0.0853268,-0.00366929 0.0453307,0.026 0.0939961,0.0463346 0.144323,0.0599961 0.03,0.008 0.0523307,0.0326654 0.0579961,0.0629961l0.0233307 0.128992c0.00233465,0.0163307 0.00866535,0.0243307 0.011,0.0259961l0.000665354 0 0.129988 0 0.000669291 0c0.00233071,-0.00133465 0.00866535,-0.00966535 0.0113307,-0.025l0.0233307 -0.128988c0.00566535,-0.0303346 0.028,-0.055 0.0579961,-0.0629961 0.0503307,-0.0136654 0.0989921,-0.0336654 0.144323,-0.0599961 0.0266654,-0.0153346 0.0599961,-0.014 0.0853307,0.00366535l0.107657 0.0746614c0.013,0.009 0.0229961,0.0103346 0.0256614,0.00966535l0.000334646 -0.000330709 0.0919921 -0.0919921 0.000334646 -0.000334646c0.000665354,-0.00266535 -0.000669291,-0.0126654 -0.00966929,-0.0256654l-0.0746575 -0.107657c-0.0176654,-0.0253307 -0.019,-0.0586614 -0.00366929,-0.0853268 0.0259961,-0.0453307 0.0463307,-0.0939961 0.0599961,-0.144323 0.008,-0.0299961 0.0326654,-0.0523307 0.0629961,-0.0579961l0.128988 -0.0233307c0.0153346,-0.00266535 0.0236654,-0.009 0.025,-0.0113346l0 -0.000665354zm-0.383303 -0.0653268c-0.000334646,0.231315 -0.188319,0.419634 -0.419634,0.419634 -0.231315,0 -0.419634,-0.188319 -0.419634,-0.419634 0,-0.231319 0.188319,-0.419634 0.419634,-0.419634 0.231315,0 0.419634,0.188315 0.419634,0.419634z"/>
  <path class="fil6" d="M2.77355 4.74728c0,-0.143323 -0.116657,-0.259646 -0.259646,-0.259646 -0.142988,0 -0.259646,0.116323 -0.259646,0.259646 0,0.143319 0.116323,0.259646 0.259646,0.259646 0.142988,0 0.259646,-0.116327 0.259646,-0.259646z"/>
  <path class="fil6" d="M2.9187 4.01133c0.0783307,-0.0539961 0.170654,-0.0503268 0.230315,0.00933465l0.0919921 0.0919921c0.0596614,0.0596614 0.0633307,0.152319 0.00933465,0.230315l-0.0469961 0.0676614c0.014,0.0286614 0.0259961,0.0579961 0.0363307,0.0879921l0.0809961 0.0146654c0.0936575,0.017 0.156319,0.0849961 0.156319,0.169323l0 0.129992c0,0.0843268 -0.0629961,0.152319 -0.156319,0.169319l-0.0809961 0.0146654c-0.0103346,0.03 -0.0223307,0.0593307 -0.0363307,0.0879961l0.0469961 0.0676614c0.0539961,0.0783268 0.0503268,0.170654 -0.00933465,0.230315l-0.0919921 0.0919921c-0.0596614,0.0596614 -0.152319,0.0633268 -0.230315,0.00933071l-0.0676575 -0.0469921c-0.0286654,0.0139961 -0.058,0.0259961 -0.0879961,0.0363307l-0.0146654 0.0809921c-0.0169961,0.0933228 -0.0849961,0.156319 -0.169323,0.156319l-0.129988 0c-0.0843268,0 -0.152319,-0.0629961 -0.169319,-0.156323l-0.0146654 -0.0809921c-0.03,-0.0103346 -0.0593307,-0.0223346 -0.0879961,-0.0363307l-0.0676614 0.0469961c-0.0783268,0.0539961 -0.170654,0.0503268 -0.230315,-0.00933465l-0.0919921 -0.0919921c-0.0596614,-0.0596614 -0.0633268,-0.152323 -0.00933071,-0.230315l0.0469961 -0.0676614c-0.014,-0.0286614 -0.026,-0.0579961 -0.0363307,-0.0879921l-0.0809961 -0.0146654c-0.0936614,-0.017 -0.156323,-0.0849961 -0.156323,-0.169323l0 -0.129992c0,-0.0843268 0.0629961,-0.152319 0.156323,-0.169323l0.0809961 -0.0146654c0.0103307,-0.0299961 0.0223307,-0.0593268 0.0363307,-0.0879921l-0.0469961 -0.0676614c-0.0539961,-0.0783268 -0.0503307,-0.170654 0.00933071,-0.230315l0.0919921 -0.0919921c0.0596614,-0.0596614 0.152323,-0.0633268 0.230315,-0.00933071l0.0676614 0.0469921c0.0286614,-0.0139961 0.0579961,-0.0259961 0.0879961,-0.0363307l0.0146654 -0.0809921c0.0169961,-0.0936614 0.0849921,-0.156323 0.169319,-0.156323l0.129988 3.93701e-006c0.0843268,0 0.152323,0.0629961 0.169323,0.156323l0.0146654 0.0809921c0.0299961,0.0103346 0.0593268,0.0223346 0.0879961,0.0363307l0.0676575 -0.0469961zm0.74028 1.26091l0 -1.04992c0,-0.103992 0.0843268,-0.188319 0.188315,-0.188319l1.03326 0c0.103988,0 0.188315,0.0843268 0.188315,0.188319l0 1.04992c0,0.103657 -0.0846575,0.188319 -0.188315,0.188319l-1.03326 0c-0.103988,0 -0.188315,-0.0843307 -0.188315,-0.188319zm-1.92519 0.541291l3.35908 0c0.167988,0 0.304976,-0.136657 0.304976,-0.304976l0 -1.52222c0,-0.167988 -0.136657,-0.304976 -0.304976,-0.304976l-1.94385 0c-0.0326614,0 -0.0619921,-0.02 -0.0743268,-0.0503307l-0.146988 -0.367303c-0.0583307,-0.145654 -0.101323,-0.194654 -0.170654,-0.194654l-1.09325 0c-0.129657,0 -0.234984,0.105323 -0.234984,0.23498l0 2.2045c0,0.167988 0.136657,0.304976 0.304976,0.304976z"/>
 </g>
</svg>
