<?xml version="1.0" encoding="UTF-8"?>
<!DOCTYPE svg PUBLIC "-//W3C//DTD SVG 1.1//EN" "http://www.w3.org/Graphics/SVG/1.1/DTD/svg11.dtd">
<!-- Creator: CorelDRAW -->
<svg xmlns="http://www.w3.org/2000/svg" xml:space="preserve" width="6.82666in" height="6.82666in" style="shape-rendering:geometricPrecision; text-rendering:geometricPrecision; image-rendering:optimizeQuality; fill-rule:evenodd; clip-rule:evenodd"
viewBox="0 0 6.82666 6.82666"
 xmlns:xlink="http://www.w3.org/1999/xlink"
 version="1.1">
 <defs>
  <style type="text/css">
   <![CDATA[
    .fil0 {fill:none}
    .fil1 {fill:#0065A3}
    .fil2 {fill:#333333}
    .fil3 {fill:#C8F5FE}
   ]]>
  </style>
 </defs>
 <rect class="fil0" width="6.82666" height="6.82666"/>
 <g id="Layer_x0020_1">
  <metadata id="CorelCorpID_0Corel-Layer"/>
  <path class="fil1" d="M2.75225 1.7277l2.84503 0c0.13376,0 0.242732,0.108693 0.242732,0.2425l0 0.340831 -2.60952 0 -0.478244 -0.583331zm1.01559 0.345l1.47907 0c0.0294449,0 0.0533346,-0.0238898 0.0533346,-0.0533346 0,-0.0294449 -0.0238898,-0.0533346 -0.0533346,-0.0533346l-1.47907 0c-0.0294449,0 -0.0533346,0.0238898 -0.0533346,0.0533346 0,0.0294449 0.0238898,0.0533346 0.0533346,0.0533346zm-0.675272 0.238331l-2.10592 0 0 -0.326665c0,-0.141626 0.115323,-0.256665 0.256898,-0.256665l1.37075 0 0.478276 0.583331zm-1.57502 -0.238331c0.0294646,0 0.0533346,-0.023874 0.0533346,-0.0533346 0,-0.0294449 -0.0238898,-0.0533346 -0.0533346,-0.0533346l-0.166535 0c-0.0294449,0 -0.0533346,0.0238898 -0.0533346,0.0533346 0,0.0294449 0.0238898,0.0533346 0.0533346,0.0533346l0.166535 0zm0.920031 0c0.0294646,0 0.0533346,-0.0238701 0.0533346,-0.0533346 0,-0.0294449 -0.0238898,-0.0533346 -0.0533346,-0.0533346l-0.166535 0c-0.0294449,0 -0.0533346,0.0238898 -0.0533346,0.0533346 0,0.0294449 0.0238898,0.0533346 0.0533346,0.0533346l0.166535 0zm-0.460201 0c0.0294488,0 0.0533346,-0.0238858 0.0533346,-0.0533346 0,-0.0294449 -0.0238898,-0.0533346 -0.0533346,-0.0533346l-0.166531 0c-0.0294449,0 -0.0533346,0.0238898 -0.0533346,0.0533346 0,0.0294449 0.0238898,0.0533346 0.0533346,0.0533346l0.166531 0z"/>
  <g id="_442240632">
   <g>
    <g>
     <path id="_442242984" class="fil2" d="M5.58311 5.2323l-4.33956 0c-0.215165,0 -0.390232,-0.174933 -0.390232,-0.39l-3.93701e-006 -2.85793c0,-0.215031 0.175067,-0.39 0.390232,-0.39l1.396 0c0.0239685,0 0.0466654,0.0107323 0.0618661,0.0292677l0.541701 0.660732 2.6502 0c0.0441654,0 0.08,0.0358346 0.08,0.08l0 2.47793c3.14961e-005,0.215031 -0.175035,0.389996 -0.390201,0.389996zm-4.33956 -3.47793c-0.126933,0 -0.230232,0.103165 -0.230232,0.23l0 2.85793c0,0.126799 0.103268,0.23 0.230232,0.23l4.33956 -3.93701e-006c0.126933,0 0.230232,-0.103165 0.230232,-0.23l0 -2.39793 -2.60806 0c-0.0239685,0 -0.0466654,-0.0107323 -0.0618661,-0.0292677l-0.541736 -0.660732 -1.35813 0z"/>
    </g>
    <g>
     <path id="_442242960" class="fil2" d="M3.48558 2.44437l-2.55223 0c-0.0441654,0 -0.08,-0.0358346 -0.08,-0.08 0,-0.0441654 0.0358346,-0.08 0.08,-0.08l2.55223 0c0.0441654,0 0.08,0.0358346 0.08,0.08 0,0.0441654 -0.0358346,0.08 -0.08,0.08z"/>
    </g>
    <g>
     <path id="_442242816" class="fil2" d="M5.89335 2.44437c-0.0441654,0 -0.08,-0.0358346 -0.08,-0.08l0 -0.394165c0,-0.119 -0.0969331,-0.215835 -0.216067,-0.215835l-2.95773 0c-0.0441654,0 -0.08,-0.0358346 -0.08,-0.08 0,-0.0441654 0.0358346,-0.08 0.08,-0.08l2.95773 0c0.207366,0 0.376067,0.168598 0.376067,0.375835l0 0.394165c0,0.0442008 -0.0358346,0.08 -0.08,0.08z"/>
    </g>
    <g>
     <path id="_442242648" class="fil2" d="M5.24691 2.09937l-1.47907 0c-0.0441654,0 -0.08,-0.0358346 -0.08,-0.08 0,-0.0441654 0.0358346,-0.08 0.08,-0.08l1.47907 0c0.0441654,0 0.08,0.0358346 0.08,0.08 0,0.0441654 -0.0358346,0.08 -0.08,0.08z"/>
    </g>
    <g>
     <path id="_442242720" class="fil2" d="M1.87698 3.68943c-0.0441654,0 -0.08,-0.0358346 -0.08,-0.08l0 -0.772602c0,-0.0441654 0.0358346,-0.08 0.08,-0.08 0.0441654,0 0.08,0.0358346 0.08,0.08l0 0.772598c0,0.0442008 -0.0358031,0.0800039 -0.08,0.0800039z"/>
    </g>
    <g>
     <path id="_442242768" class="fil2" d="M2.33642 3.68943c-0.0441654,0 -0.08,-0.0358346 -0.08,-0.08l0 -0.772602c0,-0.0441654 0.0358346,-0.08 0.08,-0.08 0.0441654,0 0.08,0.0358346 0.08,0.08l0 0.772598c0,0.0442008 -0.0358031,0.0800039 -0.08,0.0800039z"/>
    </g>
    <g>
     <path id="_442242360" class="fil2" d="M2.33642 3.30313l-0.459433 0c-0.0441654,0 -0.08,-0.0358346 -0.08,-0.08 0,-0.0441654 0.0358346,-0.08 0.08,-0.08l0.459433 0c0.0441654,0 0.08,0.0358346 0.08,0.08 0,0.0441654 -0.0358031,0.08 -0.08,0.08z"/>
    </g>
    <g>
     <path id="_442242456" class="fil2" d="M3.04072 2.91683l-0.417299 0c-0.0441654,0 -0.08,-0.0358346 -0.08,-0.08 0,-0.0441654 0.0358346,-0.08 0.08,-0.08l0.417299 0c0.0441654,0 0.08,0.0358346 0.08,0.08 0,0.0441654 -0.0358346,0.08 -0.08,0.08z"/>
    </g>
    <g>
     <path id="_442241688" class="fil2" d="M3.00095 3.30313l-0.377531 0c-0.0441654,0 -0.08,-0.0358346 -0.08,-0.08 0,-0.0441654 0.0358346,-0.08 0.08,-0.08l0.377531 0c0.0441654,0 0.08,0.0358346 0.08,0.08 0,0.0441654 -0.0357992,0.08 -0.08,0.08z"/>
    </g>
    <g>
     <path id="_442241784" class="fil2" d="M3.04072 3.68943l-0.417299 0c-0.0441654,0 -0.08,-0.0358346 -0.08,-0.08 0,-0.0441654 0.0358346,-0.08 0.08,-0.08l0.417299 0c0.0441654,0 0.08,0.0358346 0.08,0.08 0,0.0441654 -0.0358346,0.08 -0.08,0.08z"/>
    </g>
    <g>
     <path id="_442242240" class="fil2" d="M2.62342 3.68943c-0.0441654,0 -0.08,-0.0358346 -0.08,-0.08l0 -0.772602c0,-0.0441654 0.0358346,-0.08 0.08,-0.08 0.0441654,0 0.08,0.0358346 0.08,0.08l0 0.772598c0,0.0442008 -0.0358346,0.0800039 -0.08,0.0800039z"/>
    </g>
    <g>
     <path id="_442242120" class="fil2" d="M3.65288 3.68943l-0.417299 0c-0.0441654,0 -0.08,-0.0358346 -0.08,-0.08 0,-0.0441654 0.0358346,-0.08 0.08,-0.08l0.417299 0c0.0441654,0 0.08,0.0358346 0.08,0.08 0,0.0441654 -0.0357992,0.08 -0.08,0.08z"/>
    </g>
    <g>
     <path id="_442241544" class="fil2" d="M3.23558 3.68943c-0.0441654,0 -0.08,-0.0358346 -0.08,-0.08l0 -0.772602c0,-0.0441654 0.0358346,-0.08 0.08,-0.08 0.0441654,0 0.08,0.0358346 0.08,0.08l0 0.772598c0,0.0442008 -0.0357992,0.0800039 -0.08,0.0800039z"/>
    </g>
    <g>
     <path id="_442242192" class="fil2" d="M4.26505 3.68943l-0.416898 0c-0.0441654,0 -0.08,-0.0358346 -0.08,-0.08 0,-0.0441654 0.0358346,-0.08 0.08,-0.08l0.416898 0c0.0441654,0 0.08,0.0358346 0.08,0.08 0,0.0441654 -0.0357992,0.08 -0.08,0.08z"/>
    </g>
    <g>
     <path id="_442242144" class="fil2" d="M3.84815 3.68943c-0.0441654,0 -0.08,-0.0358346 -0.08,-0.08l0 -0.772602c0,-0.0441654 0.0358346,-0.08 0.08,-0.08 0.0441654,0 0.08,0.0358346 0.08,0.08l0 0.772598c0,0.0442008 -0.0358031,0.0800039 -0.08,0.0800039z"/>
    </g>
    <g>
     <path id="_442242048" class="fil2" d="M4.74891 3.68943c-0.257933,0 -0.467768,-0.209701 -0.467768,-0.4675 0,-0.257799 0.209835,-0.4675 0.467768,-0.4675 0.257933,0 0.467768,0.209701 0.467768,0.4675 0,0.257799 -0.209835,0.4675 -0.467768,0.4675zm0 -0.774969c-0.169701,0 -0.307768,0.137933 -0.307768,0.3075 0,0.169567 0.138067,0.3075 0.307768,0.3075 0.169701,0 0.307768,-0.137933 0.307768,-0.3075 0,-0.169567 -0.138067,-0.3075 -0.307768,-0.3075z"/>
    </g>
    <g>
     <path id="_442240992" class="fil2" d="M1.63922 4.8338c-0.0340315,0 -0.0643661,-0.0215315 -0.0755669,-0.0537323l-0.267701 -0.770268c-0.0145,-0.0417323 0.00756693,-0.0873346 0.0492992,-0.101835 0.0417323,-0.0145 0.0873346,0.00756693 0.101835,0.0492992l0.190598 0.548433 0.1335 -0.399965c0.014,-0.0419016 0.0592992,-0.0645315 0.101201,-0.0505669 0.0419016,0.014 0.0645315,0.0592992 0.0505669,0.101201l-0.207866 0.622732c-0.0108346,0.0324685 -0.0411654,0.0544685 -0.0754016,0.0546654 -0.000129921,3.54331e-005 -0.000299213,3.54331e-005 -0.000464567,3.54331e-005z"/>
    </g>
    <g>
     <path id="_442241064" class="fil2" d="M2.05495 4.8338c-0.000165354,0 -0.000334646,0 -0.0005,0 -0.0342323,-0.000200787 -0.0645315,-0.0222008 -0.0754016,-0.0546654l-0.207866 -0.622732c-0.014,-0.0419016 0.00863386,-0.0872323 0.0505669,-0.101201 0.0419016,-0.0139685 0.0872323,0.00863386 0.101201,0.0505669l0.1335 0.399965 0.190598 -0.548433c0.0145,-0.0417323 0.0600984,-0.0637992 0.101835,-0.0492992 0.0417323,0.0145 0.0637992,0.0600984 0.0492992,0.101835l-0.267701 0.770268c-0.0111654,0.0321299 -0.0414961,0.0536969 -0.0755315,0.0536969z"/>
    </g>
    <g>
     <path id="_442241496" class="fil2" d="M2.86198 4.8338c-0.257933,0 -0.467768,-0.209701 -0.467768,-0.4675 0,-0.257768 0.209835,-0.4675 0.467768,-0.4675 0.257933,0 0.467768,0.209701 0.467768,0.4675 0,0.257768 -0.209835,0.4675 -0.467768,0.4675zm0 -0.774965c-0.169701,0 -0.307768,0.137933 -0.307768,0.3075 0,0.169567 0.138067,0.3075 0.307768,0.3075 0.169701,0 0.307768,-0.137933 0.307768,-0.3075 0,-0.169567 -0.138067,-0.3075 -0.307768,-0.3075z"/>
    </g>
    <g>
     <path id="_442241112" class="fil2" d="M3.50645 4.83063c-0.0441654,0 -0.08,-0.0358346 -0.08,-0.08l0 -0.322567c0,-0.0441654 0.0358346,-0.08 0.08,-0.08 0.0441654,0 0.08,0.0358346 0.08,0.08l0 0.322567c0,0.0442008 -0.0358346,0.08 -0.08,0.08z"/>
    </g>
    <g>
     <path id="_442241424" class="fil2" d="M3.79305 4.50806l-0.286598 0c-0.0441654,0 -0.08,-0.0358346 -0.08,-0.08l0 -0.4465c0,-0.0441654 0.0358346,-0.08 0.08,-0.08l0.286598 0c0.167201,0 0.303232,0.136134 0.303232,0.303433 -3.14961e-005,0.167134 -0.136031,0.303067 -0.303232,0.303067zm-0.206598 -0.16l0.206598 0c0.0789685,0 0.143232,-0.0641654 0.143232,-0.143067 0,-0.0790984 -0.0642323,-0.143433 -0.143232,-0.143433l-0.206598 0 0 0.2865z"/>
    </g>
    <g>
     <path id="_442241256" class="fil2" d="M4.00561 4.83063c-0.0441654,0 -0.08,-0.0358346 -0.08,-0.08l0 -0.158134c0,-0.0465669 -0.0379331,-0.0844331 -0.0845669,-0.0844331 -0.0441654,0 -0.08,-0.0358346 -0.08,-0.08 0,-0.0441654 0.0358346,-0.08 0.08,-0.08 0.134866,0 0.244567,0.109665 0.244567,0.244433l0 0.158134c0,0.0442008 -0.0357992,0.08 -0.08,0.08z"/>
    </g>
    <g>
     <path id="_442241280" class="fil2" d="M4.74615 4.83063l-0.488165 0c-0.0441654,0 -0.08,-0.0358346 -0.08,-0.08 0,-0.0441654 0.0358346,-0.08 0.08,-0.08l0.488165 0c0.0441654,0 0.08,0.0358346 0.08,0.08 0,0.0441654 -0.0358307,0.08 -0.08,0.08z"/>
    </g>
    <g>
     <path id="_442241352" class="fil2" d="M4.25798 4.83063c-0.0441654,0 -0.08,-0.0358346 -0.08,-0.08l0 -0.769067c0,-0.0441654 0.0358346,-0.08 0.08,-0.08 0.0441654,0 0.08,0.0358346 0.08,0.08l0 0.769067c0,0.0442008 -0.0358346,0.08 -0.08,0.08z"/>
    </g>
    <g>
     <path id="_442240728" class="fil2" d="M5.20558 4.82986l-0.249197 0c-0.0441654,0 -0.08,-0.0358346 -0.08,-0.08l0 -0.768299c0,-0.0441654 0.0358346,-0.08 0.08,-0.08l0.249197 0c0.181732,0 0.329598,0.147768 0.329598,0.329402l0 0.269465c-3.14961e-005,0.181669 -0.147862,0.329433 -0.329598,0.329433zm-0.169197 -0.16l0.169197 0c0.0935,0 0.169598,-0.076 0.169598,-0.169402l0 -0.269465c0,-0.0934016 -0.0760669,-0.169402 -0.169598,-0.169402l-0.169197 3.93701e-006 0 0.608264z"/>
    </g>
    <g>
     <path id="_442240704" class="fil2" d="M1.97738 2.09937l-0.166531 0c-0.0441654,0 -0.08,-0.0358346 -0.08,-0.08 0,-0.0441654 0.0358346,-0.08 0.08,-0.08l0.166531 0c0.0441654,0 0.08,0.0358346 0.08,0.08 0,0.0441654 -0.0358307,0.08 -0.08,0.08z"/>
    </g>
    <g>
     <path id="_442240392" class="fil2" d="M2.43758 2.09937l-0.166535 0c-0.0441654,0 -0.08,-0.0358346 -0.08,-0.08 0,-0.0441654 0.0358346,-0.08 0.08,-0.08l0.166535 0c0.0441654,0 0.08,0.0358346 0.08,0.08 0,0.0441654 -0.0357992,0.08 -0.08,0.08z"/>
    </g>
    <g>
     <path id="_442240320" class="fil2" d="M1.51755 2.09937l-0.166535 0c-0.0441654,0 -0.08,-0.0358346 -0.08,-0.08 0,-0.0441654 0.0358346,-0.08 0.08,-0.08l0.166535 0c0.0441654,0 0.08,0.0358346 0.08,0.08 0,0.0441654 -0.0358031,0.08 -0.08,0.08z"/>
    </g>
   </g>
  </g>
  <path class="fil3" d="M1.79698 3.22313l0 -0.386299c0,-0.0441654 0.0358346,-0.08 0.08,-0.08 0.0441654,0 0.08,0.0358346 0.08,0.08l0 0.306299 0.299433 0 0 -0.306299c0,-0.0441654 0.0358346,-0.08 0.08,-0.08 0.0441654,0 0.08,0.0358346 0.08,0.08l0 0.386299 0 0.386299c0,0.0442008 -0.0358031,0.0800039 -0.08,0.0800039 -0.0441654,0 -0.08,-0.0358346 -0.08,-0.08l0 -0.306303 -0.299433 0 0 0.306299c0,0.0442008 -0.0358031,0.0800039 -0.08,0.0800039 -0.0441654,0 -0.08,-0.0358346 -0.08,-0.08l0 -0.386303zm1.4083 -0.778764l-2.19196 0 0 2.39793c0,0.126799 0.103268,0.23 0.230232,0.23l4.33956 -3.93701e-006c0.126933,0 0.230232,-0.103165 0.230232,-0.23l0 -2.39793 -2.32776 0 -0.280299 0zm-0.581866 1.24507c-0.0441654,0 -0.08,-0.0358346 -0.08,-0.08l0 -0.386303 0 -0.386299c0,-0.0441654 0.0358346,-0.08 0.08,-0.08l0.417299 0c0.0441654,0 0.08,0.0358346 0.08,0.08 0,0.0441654 -0.0358346,0.08 -0.08,0.08l-0.337299 0 0 0.226299 0.297531 0c0.0441654,0 0.08,0.0358346 0.08,0.08 0,0.0441654 -0.0357992,0.08 -0.08,0.08l-0.297531 0 0 0.226303 0.337299 0c0.0441654,0 0.08,0.0358346 0.08,0.08 0,0.0441654 -0.0358346,0.08 -0.08,0.08l-0.417299 0zm-0.229205 0.676862c0,-0.257768 0.209835,-0.4675 0.467768,-0.4675 0.257933,0 0.467768,0.209701 0.467768,0.4675 0,0.257768 -0.209835,0.4675 -0.467768,0.4675 -0.257933,0 -0.467768,-0.209701 -0.467768,-0.4675zm1.03224 0.0617677l0 -0.4465c0,-0.0441654 0.0358346,-0.08 0.08,-0.08l0.286598 0c0.167201,0 0.303232,0.136134 0.303232,0.303433 -1.5748e-005,0.0820591 -0.0328071,0.156598 -0.0859764,0.211217 0.0463937,0.0445157 0.075311,0.107091 0.075311,0.176283l0 0.158134c0,0.0442008 -0.0357992,0.08 -0.08,0.08 -0.0441654,0 -0.08,-0.0358346 -0.08,-0.08l0 -0.158134c0,-0.0465669 -0.0379331,-0.0844331 -0.0845669,-0.0844331 -0.00556299,0 -0.0109921,-0.000566929 -0.0162362,-0.00164961 -0.0104409,0.00109055 -0.0210394,0.00164961 -0.0317638,0.00164961l-0.206598 0 0 0.242567c0,0.0442008 -0.0358346,0.08 -0.08,0.08 -0.0441654,0 -0.08,-0.0358346 -0.08,-0.08l0 -0.322567zm0.751531 0.322567l0 -0.769067c0,-0.0441654 0.0358346,-0.08 0.08,-0.08 0.0441654,0 0.08,0.0358346 0.08,0.08l0 0.689067 0.408165 0c0.0441654,0 0.08,0.0358346 0.08,0.08 0,0.0441654 -0.0358307,0.08 -0.08,0.08l-0.488165 0c-0.0441654,0 -0.08,-0.0358346 -0.08,-0.08zm0.698402 -0.000767717l0 -0.768299c0,-0.0441654 0.0358346,-0.08 0.08,-0.08l0.249197 0c0.181732,0 0.329598,0.147768 0.329598,0.329402l0 0.269465c-3.14961e-005,0.181669 -0.147862,0.329433 -0.329598,0.329433l-0.249197 0c-0.0441654,0 -0.08,-0.0358346 -0.08,-0.08zm-3.2387 -0.244169l0.13313 -0.39885c0.00011811,-0.000374016 0.000240157,-0.000744094 0.000370079,-0.00111417 0.000688976,-0.00207874 0.0014685,-0.00412598 0.00233071,-0.0061378 0.00421654,-0.00988583 0.010248,-0.0185354 0.0175669,-0.025689 0.000318898,-0.000314961 0.000645669,-0.000629921 0.000972441,-0.000937008 0.00521654,-0.00493307 0.0110591,-0.00912205 0.0173425,-0.0124764 0.000153543,-8.26772e-005 0.000307087,-0.000161417 0.000464567,-0.000244094 0.00381496,-0.00200394 0.0077874,-0.00370079 0.0118819,-0.00507087 0.015874,-0.00531496 0.0335394,-0.0057126 0.0506417,-1.1811e-005 0.0124803,0.00419685 0.0238583,0.0114094 0.0329764,0.0210945 0.00702362,0.00745669 0.0127047,0.016378 0.0165236,0.0265039 0.000377953,0.000992126 0.000732283,0.00199606 0.00106693,0.00300394 8.66142e-005,0.000251969 0.000173228,0.000507874 0.000255906,0.000759843l5.90551e-005 0.000188976 0.133185 0.399016 0.190598 -0.548433c0.0145,-0.0417323 0.0600984,-0.0637992 0.101835,-0.0492992 0.0417323,0.0145 0.0637992,0.0600984 0.0492992,0.101835l-0.267701 0.770268c-0.0111654,0.0321299 -0.0414961,0.0536969 -0.0755315,0.0536969l-0.0005 0c-0.0342323,-0.000200787 -0.0645315,-0.0222008 -0.0754016,-0.0546654l-0.131988 -0.395413 -0.131976 0.395378c-0.0108346,0.0324685 -0.0411654,0.0544685 -0.0754016,0.0546654l-0.000464567 3.54331e-005c-0.0340315,0 -0.0643661,-0.0215315 -0.0755669,-0.0537323l-0.267701 -0.770268c-0.0145,-0.0417323 0.00756693,-0.0873346 0.0492992,-0.101835 0.0417323,-0.0145 0.0873346,0.00756693 0.101835,0.0492992l0.190598 0.548433zm1.5179 -0.89626l0 -0.772602c0,-0.0441654 0.0358346,-0.08 0.08,-0.08 0.0441654,0 0.08,0.0358346 0.08,0.08l0 0.692602 0.337299 0c0.0441654,0 0.08,0.0358346 0.08,0.08 0,0.0441654 -0.0357992,0.08 -0.08,0.08l-0.417299 0c-0.0441654,0 -0.08,-0.0358346 -0.08,-0.08zm0.612567 0l0 -0.772602c0,-0.0441654 0.0358346,-0.08 0.08,-0.08 0.0441654,0 0.08,0.0358346 0.08,0.08l0 0.692602 0.336898 0c0.0441654,0 0.08,0.0358346 0.08,0.08 0,0.0441654 -0.0357992,0.08 -0.08,0.08l-0.416898 0c-0.0441654,0 -0.08,-0.0358346 -0.08,-0.08zm0.512996 -0.3875c0,-0.257799 0.209835,-0.4675 0.467768,-0.4675 0.257933,0 0.467768,0.209701 0.467768,0.4675 0,0.257799 -0.209835,0.4675 -0.467768,0.4675 -0.257933,0 -0.467768,-0.209701 -0.467768,-0.4675z"/>
  <path class="fil3" d="M4.44115 3.22196c0,0.169567 0.138067,0.3075 0.307768,0.3075 0.169701,0 0.307768,-0.137933 0.307768,-0.3075 0,-0.169567 -0.138067,-0.3075 -0.307768,-0.3075 -0.169701,0 -0.307768,0.137933 -0.307768,0.3075z"/>
  <path class="fil3" d="M5.20558 4.06159l-0.169197 3.93701e-006 0 0.608264 0.169197 0c0.0935,0 0.169598,-0.076 0.169598,-0.169402l0 -0.269465c0,-0.0934016 -0.0760669,-0.169402 -0.169598,-0.169402z"/>
  <path class="fil3" d="M3.93628 4.205c0,-0.0790984 -0.0642323,-0.143433 -0.143232,-0.143433l-0.206598 0 0 0.2865 0.206598 0c0.0789685,0 0.143232,-0.0641654 0.143232,-0.143067z"/>
  <path class="fil3" d="M3.16975 4.36633c0,-0.169567 -0.138067,-0.3075 -0.307768,-0.3075 -0.169701,0 -0.307768,0.137933 -0.307768,0.3075 0,0.169567 0.138067,0.3075 0.307768,0.3075 0.169701,0 0.307768,-0.137933 0.307768,-0.3075z"/>
 </g>
</svg>
