<?xml version="1.0" encoding="UTF-8"?>
<!DOCTYPE svg PUBLIC "-//W3C//DTD SVG 1.1//EN" "http://www.w3.org/Graphics/SVG/1.1/DTD/svg11.dtd">
<!-- Creator: CorelDRAW -->
<svg xmlns="http://www.w3.org/2000/svg" xml:space="preserve" width="6.82666in" height="6.82666in" style="shape-rendering:geometricPrecision; text-rendering:geometricPrecision; image-rendering:optimizeQuality; fill-rule:evenodd; clip-rule:evenodd"
viewBox="0 0 6.82666 6.82666"
 xmlns:xlink="http://www.w3.org/1999/xlink">
 <defs>
  <style type="text/css">
   <![CDATA[
    .fil0 {fill:none}
    .fil1 {fill:#0065A3}
    .fil2 {fill:#333333}
    .fil3 {fill:#C8F5FE}
   ]]>
  </style>
 </defs>
 <rect class="fil0" width="6.82666" height="6.82666"/>
 <g id="Layer_x0020_1">
  <metadata id="CorelCorpID_0Corel-Layer"/>
  <path class="fil1" d="M2.75241 1.7268l2.84509 0c0.133709,0 0.242315,0.108606 0.242315,0.242315l3.93701e-006 0.341307 -2.60909 0 -0.478315 -0.583622zm1.01556 0.344972l1.47888 0c0.0296142,0 0.0533307,-0.0237165 0.0533307,-0.0533307 0,-0.0296102 -0.0237205,-0.0533268 -0.0533307,-0.0533268l-1.47888 3.93701e-006c-0.0296102,0 -0.0533307,0.0237126 -0.0533307,0.0533268 0,0.0296142 0.0237205,0.0533268 0.0533307,0.0533268zm-0.675091 0.23865l-2.10603 0 0 -0.327311c0,-0.141374 0.115272,-0.256646 0.256646,-0.256646l1.37085 0 0.478531 0.583957zm-0.644476 -0.23865c0.029437,0 0.0533268,-0.0238819 0.0533268,-0.0533307 0,-0.0296063 -0.0237165,-0.0533268 -0.0533268,-0.0533268l-0.128992 3.93701e-006c-0.0296102,0 -0.0533268,0.0237165 -0.0533268,0.0533268 0,0.0296102 0.0237165,0.0533268 0.0533268,0.0533268l0.128992 0zm-0.48963 0c0.029437,0 0.0533268,-0.0238819 0.0533268,-0.0533307 0,-0.0296063 -0.0237165,-0.0533268 -0.0533268,-0.0533268l-0.128657 3.93701e-006c-0.0296102,0 -0.0533268,0.0237126 -0.0533268,0.0533268 0,0.0296102 0.0237165,0.0533268 0.0533268,0.0533268l0.128657 0zm-0.618618 -0.106654c-0.0296102,0 -0.0533268,0.0237126 -0.0533268,0.0533268 0,0.0296102 0.0237165,0.0533268 0.0533268,0.0533268l0.128988 0c0.0296102,0 0.0533307,-0.0237205 0.0533307,-0.0533307 0,-0.0296102 -0.0237205,-0.0533268 -0.0533307,-0.0533268l-0.128988 3.93701e-006z"/>
  <path class="fil2" d="M5.58317 5.23353l-4.33967 0c-0.21498,0 -0.389969,-0.174988 -0.389969,-0.389969l0 -2.86045c0,-0.21465 0.174319,-0.389303 0.388969,-0.389969 0.000334646,0 0.000669291,0 0.001,0l1.39589 0c0.0239961,0 0.0466614,0.0106654 0.0619921,0.0293307l0.541965 0.661283 2.6498 0c0.0443307,0 0.0799921,0.0356654 0.0799921,0.0799921l0 2.47981c0,0.21498 -0.174988,0.389969 -0.389969,0.389969zm-4.33867 -3.4804c-0.000330709,0 -0.000665354,0 -0.001,0 -0.126657,0 -0.22998,0.103327 -0.22998,0.22998l0 2.86012c0,0.126657 0.103327,0.22998 0.22998,0.22998l4.33967 0c0.126657,0 0.22998,-0.103327 0.22998,-0.22998l0 -2.39981 -2.6078 0c-0.024,0 -0.0466614,-0.0106654 -0.0619961,-0.0293307l-0.541622 -0.660953 -1.35723 0z"/>
  <path class="fil2" d="M3.20535 2.44374l-2.27183 0c-0.0443307,0 -0.0799921,-0.0356654 -0.0799921,-0.0799961 0,-0.0443268 0.0356614,-0.0799921 0.0799921,-0.0799921l2.27183 0c0.0443268,0 0.0799921,0.0356654 0.0799921,0.0799921 0,0.0443307 -0.0356614,0.0799961 -0.0799921,0.0799961z"/>
  <path class="fil2" d="M5.89314 2.44374c-0.0443307,0 -0.0799921,-0.0356654 -0.0799921,-0.0799961l-3.93701e-006 -0.394634c0,-0.118992 -0.0966614,-0.21565 -0.21565,-0.21565l-2.95811 0c-0.0443307,0 -0.0799921,-0.0356654 -0.0799921,-0.0799921 0,-0.0443307 0.0356614,-0.0799961 0.0799921,-0.0799961l2.95777 0c0.207319,0 0.375642,0.168654 0.375642,0.375638l0 0.394634c0.000330709,0.0439961 -0.0353307,0.0799961 -0.0796614,0.0799961z"/>
  <path class="fil2" d="M5.24685 2.09843l-1.47888 0c-0.0443307,0 -0.0799961,-0.0356614 -0.0799961,-0.0799921 0,-0.0443307 0.0356654,-0.0799921 0.0799961,-0.0799921l1.47888 -3.93701e-006c0.0443307,0 0.0799961,0.0356654 0.0799961,0.0799921 0,0.0443307 -0.0356614,0.0799961 -0.0799961,0.0799961z"/>
  <path class="fil2" d="M3.24801 3.384l-0.25298 0 0 0.830933c3.93701e-006,0.044 -0.0356654,0.0799961 -0.0799921,0.0799961 -0.0443307,0 -0.0799921,-0.0356654 -0.0799921,-0.0799921l0 -0.830937 -0.25265 0c-0.0443307,0 -0.0799921,-0.0356654 -0.0799921,-0.0799961 0,-0.0443268 0.0356614,-0.0799921 0.0799921,-0.0799921l0.665614 -3.93701e-006c0.0443307,0 0.0799961,0.0356654 0.0799961,0.0799961 0,0.0443268 -0.036,0.0799961 -0.0799961,0.0799961zm1.3779 0.829268l-3.93701e-006 -0.911264c0,-0.0443307 0.0356654,-0.0799921 0.0799961,-0.0799921 0.0443268,0 0.0799921,0.0356614 0.0799921,0.0799921l3.93701e-006 0.831272 0.411299 0c0.0443307,0 0.0799961,0.0356614 0.0799961,0.0799921 0,0.0443307 -0.0356654,0.0799921 -0.0799961,0.0799921l-0.491295 0c-0.0443268,0 -0.0799921,-0.0356614 -0.0799921,-0.0799921zm-0.175988 0.0799921c-0.0389961,0 -0.0729961,-0.0283307 -0.0789961,-0.0679921l-0.101657 -0.672618 -0.22365 0.376972c-0.0309252,0.052315 -0.106394,0.052315 -0.137323,0l-0.223646 -0.376972 -0.101661 0.672618c-0.00666535,0.0436614 -0.0473268,0.0736575 -0.0909921,0.0669961 -0.0436614,-0.00666929 -0.0736614,-0.0473307 -0.0669961,-0.0909961l0.134988 -0.894594c0.011126,-0.0739567 0.109693,-0.0934252 0.147657,-0.029l0.26898 0.453965 0.268976 -0.453965c0.038189,-0.0641772 0.13648,-0.0456378 0.147657,0.029l0.134988 0.894598c0.00720079,0.047437 -0.0299213,0.0919882 -0.0783268,0.0919882zm-2.2035 -0.453965l-0.381307 0 0 0.375638c3.93701e-006,0.044 -0.0356654,0.0799961 -0.0799921,0.0799961 -0.0443307,0 -0.0799921,-0.0356654 -0.0799921,-0.0799921l0 -0.910933c0,-0.0443307 0.0356614,-0.0799961 0.0799921,-0.0799961 0.0443268,0 0.0799921,0.0356654 0.0799921,0.0799961l0 0.375307 0.381303 -3.93701e-006 0 -0.375303c0,-0.0443307 0.0356654,-0.0799961 0.0799961,-0.0799961 0.0443268,0 0.0799921,0.0356654 0.0799921,0.0799961l0 0.910929c3.93701e-006,0.044 -0.0359961,0.0799961 -0.0799921,0.0799961 -0.0443268,0 -0.0799921,-0.0356654 -0.0799921,-0.0799921l0 -0.375642z"/>
  <g id="_513324976">
   <path id="_442244280" class="fil2" d="M1.46915 2.09843l-0.128988 0c-0.0443307,0 -0.0799921,-0.0356614 -0.0799921,-0.0799921 0,-0.0443307 0.0356614,-0.0799921 0.0799921,-0.0799921l0.128988 -3.93701e-006c0.0443307,0 0.0799961,0.0356654 0.0799961,0.0799921 0,0.0443307 -0.0356654,0.0799961 -0.0799961,0.0799961z"/>
  </g>
  <g id="_513325120">
   <path id="_442244328" class="fil2" d="M1.95878 2.09843l-0.128657 0c-0.0443307,0 -0.0799921,-0.0356614 -0.0799921,-0.0799921 0,-0.0443307 0.0356614,-0.0799921 0.0799921,-0.0799921l0.128657 -3.93701e-006c0.0443268,0 0.0799921,0.0356654 0.0799921,0.0799921 0,0.0443307 -0.0359961,0.0799961 -0.0799921,0.0799961z"/>
  </g>
  <g id="_513326104">
   <path id="_442244352" class="fil2" d="M2.44841 2.09843l-0.128992 0c-0.0443268,0 -0.0799921,-0.0356614 -0.0799921,-0.0799921 0,-0.0443307 0.0356654,-0.0799921 0.0799921,-0.0799921l0.128992 -3.93701e-006c0.0443268,0 0.0799921,0.0356654 0.0799921,0.0799921 0,0.0443307 -0.0359961,0.0799961 -0.0799921,0.0799961z"/>
  </g>
  <path class="fil3" d="M3.20535 2.44374l-2.19183 0 0 2.39948c0,0.126657 0.103327,0.22998 0.22998,0.22998l4.33967 0c0.126657,0 0.22998,-0.103327 0.22998,-0.22998l0 -2.39981 -2.60044 0c-0.0024252,0.000220472 -0.00487795,0.000330709 -0.0073622,0.000330709zm-0.622953 0.780276l0.332492 0 0.000149606 -3.93701e-006 0.000149606 3.93701e-006 0.332823 -3.93701e-006c0.0443307,0 0.0799961,0.0356654 0.0799961,0.0799961 0,0.0443268 -0.036,0.0799961 -0.0799961,0.0799961l-0.25298 0 0 0.830933c3.93701e-006,0.044 -0.0356654,0.0799961 -0.0799921,0.0799961 -0.0443307,0 -0.0799921,-0.0356654 -0.0799921,-0.0799921l0 -0.830937 -0.25265 0c-0.0443307,0 -0.0799921,-0.0356654 -0.0799921,-0.0799961 0,-0.0443268 0.0356614,-0.0799921 0.0799921,-0.0799921zm0.842602 0.977256l0.134988 -0.894594c0.005,-0.0333346 0.0306654,-0.0599961 0.0636654,-0.0666654 0.0333307,-0.00633071 0.0669961,0.00866535 0.0839921,0.0376654l0.26898 0.453965 0.268976 -0.453965c0.0173307,-0.029 0.0509961,-0.0443307 0.0839961,-0.0376654 0.0333307,0.00633465 0.0586575,0.033 0.0636614,0.0666654l0.134988 0.894598c0.00666929,0.0436614 -0.0233307,0.0843268 -0.0669961,0.0909921 -0.00333071,0.000665354 -0.00733071,0.000996063 -0.0113307,0.000996063 -0.0389961,0 -0.0729961,-0.0283307 -0.0789961,-0.0679921l-0.101657 -0.672618 -0.22365 0.376972c-0.0143307,0.0243307 -0.0406614,0.0393307 -0.0686614,0.0393307 -0.0279961,0 -0.0543268,-0.015 -0.0686614,-0.0393307l-0.223646 -0.376972 -0.101661 0.672618c-0.00666535,0.0436614 -0.0473268,0.0736575 -0.0909921,0.0669961 -0.0436614,-0.00666929 -0.0736614,-0.0473307 -0.0669961,-0.0909961zm1.20091 0.012l-3.93701e-006 -0.911264c0,-0.0443307 0.0356654,-0.0799921 0.0799961,-0.0799921 0.0443268,0 0.0799921,0.0356614 0.0799921,0.0799921l3.93701e-006 0.831272 0.411299 0c0.0443307,0 0.0799961,0.0356614 0.0799961,0.0799921 0,0.0443307 -0.0356654,0.0799921 -0.0799961,0.0799921l-0.491295 0c-0.0443268,0 -0.0799921,-0.0356614 -0.0799921,-0.0799921zm-2.76079 -0.533957l0.381303 -3.93701e-006 0 -0.375303c0,-0.0443307 0.0356654,-0.0799961 0.0799961,-0.0799961 0.0443268,0 0.0799921,0.0356654 0.0799921,0.0799961l0 0.910929c3.93701e-006,0.044 -0.0359961,0.0799961 -0.0799921,0.0799961 -0.0443268,0 -0.0799921,-0.0356654 -0.0799921,-0.0799921l0 -0.375642 -0.381307 0 0 0.375638c3.93701e-006,0.044 -0.0356654,0.0799961 -0.0799921,0.0799961 -0.0443307,0 -0.0799921,-0.0356654 -0.0799921,-0.0799921l0 -0.455634 0 -0.455299c0,-0.0443307 0.0356614,-0.0799961 0.0799921,-0.0799961 0.0443268,0 0.0799921,0.0356654 0.0799921,0.0799961l0 0.375307z"/>
 </g>
</svg>
