<?xml version="1.0" encoding="UTF-8"?>
<!DOCTYPE svg PUBLIC "-//W3C//DTD SVG 1.1//EN" "http://www.w3.org/Graphics/SVG/1.1/DTD/svg11.dtd">
<!-- Creator: CorelDRAW -->
<svg xmlns="http://www.w3.org/2000/svg" xml:space="preserve" width="6.82666in" height="6.82666in" style="shape-rendering:geometricPrecision; text-rendering:geometricPrecision; image-rendering:optimizeQuality; fill-rule:evenodd; clip-rule:evenodd"
viewBox="0 0 6.82666 6.82666"
 xmlns:xlink="http://www.w3.org/1999/xlink"
 version="1.1">
 <defs>
  <style type="text/css">
   <![CDATA[
    .fil0 {fill:none}
    .fil1 {fill:#0065A3}
    .fil2 {fill:#333333}
    .fil5 {fill:#98EDFE}
    .fil3 {fill:#C8F5FE}
    .fil4 {fill:#E40048}
   ]]>
  </style>
 </defs>
 <rect class="fil0" width="6.82666" height="6.82666"/>
 <g id="Layer_x0020_1">
  <metadata id="CorelCorpID_0Corel-Layer"/>
  <path class="fil1" d="M0.986705 2.81575l0 -0.267665c0,-0.114917 0.0935906,-0.208264 0.208465,-0.208264l1.15305 -3.93701e-006 0.390437 0.475933 -1.75195 0zm1.22076 -0.181898c0.0294488,0 0.0533346,-0.0238858 0.0533346,-0.0533346 0,-0.0294449 -0.0238898,-0.0533346 -0.0533346,-0.0533346l-0.168799 0c-0.0294449,0 -0.0533346,0.0238898 -0.0533346,0.0533346 0,0.0294449 0.0238898,0.0533346 0.0533346,0.0533346l0.168799 0zm-0.801764 0c0.0294646,0 0.0533346,-0.0238701 0.0533346,-0.0533346 0,-0.0294449 -0.0238898,-0.0533346 -0.0533346,-0.0533346l-0.168799 0c-0.0294449,0 -0.0533346,0.0238898 -0.0533346,0.0533346 0,0.0294449 0.0238898,0.0533346 0.0533346,0.0533346l0.168799 0zm0.400866 -0.00529921c0.0294646,0 0.0533346,-0.0238701 0.0533346,-0.0533346 0,-0.0294449 -0.0238898,-0.0533346 -0.0533346,-0.0533346l-0.168799 0c-0.0294449,0 -0.0533346,0.0238898 -0.0533346,0.0533346 0,0.0294449 0.0238898,0.0533346 0.0533346,0.0533346l0.168799 0zm0.679646 -0.288732l1.74206 0 -0.00135827 0.0279606c-0.000685039,0.0140669 -0.00102362,0.0281496 -0.00102362,0.0422362 0,0.0283701 0.00136614,0.0567402 0.00412205,0.0849764l0.00285433 0.0292559 -0.906343 0c-0.0294449,0 -0.0533346,0.0238898 -0.0533346,0.0533346 0,0.0294449 0.0238898,0.0533346 0.0533346,0.0533346l0.927622 0 0.0055748 0.019252c0.0126535,0.0437126 0.028815,0.0863701 0.0483071,0.127492l0.0180551 0.0380866 -1.23698 3.93701e-006c-0.000251969,0 -0.0005,-3.93701e-006 -0.000748031,-3.93701e-006l-0.211717 3.93701e-006 -0.390433 -0.475933z"/>
  <path class="fil2" d="M3.02737 4.93644c-0.155098,0 -0.300094,-0.0695315 -0.408264,-0.195835 -0.105134,-0.122732 -0.163031,-0.285299 -0.163031,-0.457732 0,-0.172433 0.0579016,-0.335 0.163031,-0.457732 0.108165,-0.126299 0.253161,-0.195835 0.408264,-0.195835 0.154799,0 0.299598,0.0695315 0.407799,0.195835 0.105201,0.122799 0.163134,0.285366 0.163134,0.457732 0,0.172366 -0.0579331,0.334902 -0.163134,0.457732 -0.108201,0.126303 -0.253031,0.195835 -0.407799,0.195835zm0 -1.1471c-0.226799,0 -0.411295,0.221402 -0.411295,0.493567 0,0.272165 0.184496,0.493567 0.411295,0.493567 0.226567,0 0.410933,-0.221402 0.410933,-0.493567 0,-0.272165 -0.184366,-0.493567 -0.410933,-0.493567z"/>
  <path class="fil2" d="M2.79587 3.85661c-0.0177677,0 -0.0354685,-0.00590157 -0.05,-0.0175315 -0.0888661,-0.0711339 -0.139835,-0.173335 -0.139835,-0.280402 0,-0.102831 0.0452677,-0.198795 0.1275,-0.270228 0.0789646,-0.0685984 0.183331,-0.106402 0.293831,-0.106402 0.110335,0 0.214598,0.0377992 0.293531,0.106402 0.0821654,0.0714331 0.127402,0.167402 0.127402,0.270197 0,0.107665 -0.0512323,0.209965 -0.140598,0.280665 -0.0264685,0.0209685 -0.0632677,0.0230315 -0.0919016,0.00520079 -0.0588346,-0.0366339 -0.122232,-0.0552008 -0.188433,-0.0552008 -0.0663661,0 -0.130098,0.0185984 -0.189402,0.0552992 -0.0129646,0.0080315 -0.0275669,0.012 -0.0420945,0.012zm0.231496 -0.227268c0.0745315,0 0.148567,0.0168346 0.217232,0.0490315 0.0284331,-0.0349685 0.0437008,-0.0762008 0.0437008,-0.119701 0,-0.119429 -0.117067,-0.216594 -0.260933,-0.216594 -0.144098,0 -0.261331,0.0971654 -0.261331,0.216594 0,0.0425669 0.0155669,0.0843346 0.0437953,0.119598 0.0688701,-0.0321614 0.143,-0.0489291 0.217535,-0.0489291z"/>
  <path class="fil2" d="M2.63244 4.02144c-0.0127677,0 -0.0256654,-0.00306693 -0.0377008,-0.0095 -0.0872323,-0.0467323 -0.159335,-0.111232 -0.2085,-0.186567 -0.0705669,-0.108134 -0.0959685,-0.237201 -0.0754685,-0.38363 0.00613386,-0.0437677 0.0465669,-0.0742677 0.0903346,-0.0681339 0.0437677,0.00613386 0.0742677,0.0465669 0.0681339,0.0903346 -0.0322323,0.230094 0.0915669,0.348295 0.201067,0.406961 0.0389331,0.0208661 0.0535984,0.0693346 0.0327323,0.108299 -0.0144331,0.026937 -0.0420669,0.0422362 -0.0705984,0.0422362z"/>
  <path class="fil2" d="M2.245 4.72915c-0.0392677,0 -0.0735,-0.0289016 -0.0791339,-0.0689016 -0.0241654,-0.172299 0.0172677,-0.324933 0.119768,-0.441366 0.0827008,-0.0939331 0.185665,-0.142433 0.239665,-0.163 0.0412992,-0.0157008 0.0875,0.0050315 0.103232,0.0463346 0.0157008,0.0412992 -0.0050315,0.0875 -0.0463346,0.103232 -0.112933,0.0429685 -0.296598,0.156299 -0.257866,0.432598 0.00613386,0.0437677 -0.0243661,0.0842008 -0.0680984,0.0903346 -0.00376772,0.0005 -0.0075315,0.000767717 -0.0112323,0.000767717z"/>
  <path class="fil2" d="M2.4072 5.09461c-0.0392008,0 -0.0734331,-0.0288346 -0.0790984,-0.0687677 -0.0179685,-0.126701 -0.00116535,-0.241067 0.0499685,-0.339965 0.0390984,-0.0756339 0.0973346,-0.140567 0.173067,-0.193 0.0363346,-0.0251339 0.0861654,-0.0160669 0.111299,0.0202677 0.0251339,0.0363346 0.0160669,0.0861654 -0.0202677,0.111299 -0.126531,0.0875669 -0.178933,0.215067 -0.155665,0.378933 0.00620079,0.0437323 -0.0242323,0.0842323 -0.0679685,0.0904331 -0.00380315,0.000535433 -0.00760236,0.000799213 -0.0113346,0.000799213z"/>
  <path class="fil2" d="M3.4219 4.02144c-0.0285,0 -0.0560984,-0.0152677 -0.0705315,-0.0421339 -0.0209331,-0.0389331 -0.00633465,-0.0874331 0.0325984,-0.108335 0.109701,-0.0589685 0.233634,-0.177402 0.201165,-0.406929 -0.00620079,-0.0437323 0.0242677,-0.0842323 0.068,-0.0904016 0.0437677,-0.00616535 0.0842323,0.0242677 0.0904016,0.068 0.0207008,0.146429 -0.00470079,0.275563 -0.0755,0.383795 -0.0491339,0.0750984 -0.121165,0.139567 -0.208335,0.186433 -0.012063,0.00650394 -0.0250315,0.00957087 -0.0377992,0.00957087z"/>
  <path class="fil2" d="M3.8093 4.72915c-0.00370079,0 -0.00743307,-0.000267717 -0.0112008,-0.000799213 -0.0437677,-0.00613386 -0.0742677,-0.0465669 -0.0680984,-0.0903346 0.0387677,-0.276299 -0.144933,-0.389634 -0.257866,-0.432598 -0.0412992,-0.0157008 -0.0620315,-0.0619331 -0.0463346,-0.103232 0.0157008,-0.0412992 0.0619331,-0.0620315 0.103232,-0.0463346 0.054,0.0205669 0.156969,0.0690315 0.239665,0.163 0.1025,0.116469 0.143933,0.269067 0.119768,0.441366 -0.00563386,0.0400315 -0.0398976,0.0689331 -0.0791654,0.0689331z"/>
  <path class="fil2" d="M3.6471 5.09461c-0.00370079,0 -0.00743307,-0.000267717 -0.0112008,-0.000799213 -0.0437677,-0.00613386 -0.0742677,-0.0465669 -0.0681339,-0.0903346 0.0230669,-0.164402 -0.0292992,-0.291902 -0.155531,-0.378965 -0.0363661,-0.0250669 -0.0455315,-0.0749016 -0.0204331,-0.111268 0.0250669,-0.0363661 0.0749016,-0.0455315 0.111268,-0.0204331 0.0758346,0.0522677 0.134098,0.117268 0.173232,0.193134 0.0509016,0.0987323 0.0677008,0.213031 0.0499331,0.339768 -0.00559843,0.0399646 -0.0398661,0.0688976 -0.0791339,0.0688976z"/>
  <path class="fil2" d="M2.76747 3.44592c-0.0167677,0 -0.0336654,-0.00523228 -0.0480669,-0.0160984 -0.0565984,-0.0426339 -0.151,-0.145299 -0.147598,-0.353965 0.000732283,-0.0441654 0.0371339,-0.0795 0.0812992,-0.0786654 0.0441654,0.000732283 0.0794016,0.0371339 0.0786654,0.0812992 -0.00226772,0.137799 0.0515984,0.199201 0.0838976,0.223531 0.0352992,0.0265984 0.0423346,0.0767323 0.0157677,0.112031 -0.0157323,0.0208661 -0.0396969,0.0318661 -0.0639646,0.0318661z"/>
  <path class="fil2" d="M3.28646 3.44592c-0.0244685,0 -0.0486339,-0.0112008 -0.0643346,-0.0323346 -0.0263346,-0.0355 -0.0189016,-0.0855984 0.0165984,-0.111902 0.0324016,-0.0240315 0.0864016,-0.0849685 0.0837992,-0.223 -0.000834646,-0.0441654 0.0342992,-0.0806654 0.0785,-0.0815 0.0442677,-0.000834646 0.0806654,0.0342992 0.0815,0.0785 0.00393307,0.209732 -0.0913346,0.312134 -0.148469,0.3545 -0.0143268,0.0106339 -0.0310276,0.0157362 -0.0475945,0.0157362z"/>
  <path class="fil2" d="M3.02737 4.93644c-0.0441654,0 -0.08,-0.0358346 -0.08,-0.08l0 -0.462634c0,-0.0441654 0.0358346,-0.08 0.08,-0.08 0.0441654,0 0.08,0.0358346 0.08,0.08l0 0.462634c0,0.0442008 -0.0358346,0.08 -0.08,0.08z"/>
  <path class="fil2" d="M4.85917 5.30308l-3.664 0c-0.188465,0 -0.341799,-0.153433 -0.341799,-0.342l0 -2.413c0,-0.188366 0.153335,-0.341598 0.341799,-0.341598l1.1783 0c0.0239685,0 0.0466654,0.0107323 0.0618661,0.0292677l0.453929 0.553335 1.53374 -3.93701e-006c0.0262008,0 0.0507323,0.0128346 0.0657008,0.0343346 0.136268,0.196 0.359701,0.313031 0.597665,0.313031 0.0108346,0 0.0201654,0 0.0293346,-0.000598425 0.0221339,-0.0014685 0.0437992,0.00626772 0.0599685,0.0214016 0.0161654,0.0151339 0.0253346,0.0362677 0.0253346,0.0584016l0 1.74546c-3.93701e-005,0.188563 -0.153374,0.341965 -0.341839,0.341965zm-3.664 -2.93659c-0.100232,0 -0.181799,0.0814685 -0.181799,0.181598l0 2.41303c0,0.100366 0.0815669,0.182 0.181799,0.182l3.664 0c0.100232,0 0.181799,-0.0816339 0.181799,-0.182l0 -1.66583c-0.259098,-0.0132992 -0.500067,-0.139902 -0.658567,-0.346201l-1.531 0c-0.0239685,0 -0.0466654,-0.0107323 -0.0618622,-0.0292677l-0.453933 -0.553335 -1.14043 3.93701e-006z"/>
  <path class="fil2" d="M3.08837 2.94908l-2.155 0c-0.0441654,0 -0.08,-0.0358346 -0.08,-0.08 0,-0.0441654 0.0358346,-0.08 0.08,-0.08l2.155 0c0.0441654,0 0.08,0.0358346 0.08,0.08 0,0.0441654 -0.0357992,0.08 -0.08,0.08z"/>
  <path class="fil2" d="M4.2891 2.36648l-1.91566 0c-0.0441654,0 -0.08,-0.0358346 -0.08,-0.08 0,-0.0441654 0.0358346,-0.08 0.08,-0.08l1.91566 0c0.0441654,0 0.08,0.0358346 0.08,0.08 0,0.0441654 -0.0357992,0.08 -0.08,0.08z"/>
  <path class="fil2" d="M4.29696 2.65758l-0.970433 0c-0.0441654,0 -0.08,-0.0358346 -0.08,-0.08 0,-0.0441654 0.0358346,-0.08 0.08,-0.08l0.970433 0c0.0441654,0 0.08,0.0358346 0.08,0.08 0,0.0441654 -0.0357992,0.08 -0.08,0.08z"/>
  <path class="fil2" d="M4.9663 2.93769c-0.00686614,0 -0.0138346,-0.000901575 -0.0207677,-0.00276772 -0.0426654,-0.0114331 -0.068,-0.0553346 -0.0565315,-0.098l0.240134 -0.895331c0.0114331,-0.0426654 0.0552992,-0.068 0.098,-0.0565315 0.0426654,0.0114331 0.068,0.0553346 0.0565315,0.098l-0.240134 0.895331c-0.00960236,0.0357323 -0.0419331,0.0592992 -0.0772323,0.0592992z"/>
  <path class="fil2" d="M4.77883 2.75908c-0.0204331,0 -0.0409016,-0.00779921 -0.0565,-0.0233661l-0.283835 -0.283232c-0.0150315,-0.015 -0.0235,-0.0354016 -0.0235,-0.0566654 0,-0.0212638 0.0084685,-0.0416339 0.0235315,-0.0566339l0.283835 -0.282835c0.0312992,-0.0312008 0.0819331,-0.0310984 0.113134,0.000200787 0.0312008,0.0312992 0.0310984,0.0819331 -0.000200787,0.113134l-0.227 0.226201 0.227067 0.226567c0.0312677,0.0312008 0.0313346,0.0818661 0.000133858,0.113134 -0.0156654,0.0156654 -0.0361654,0.0234961 -0.0566654,0.0234961z"/>
  <path class="fil2" d="M5.39417 2.75908c-0.0205,0 -0.0409685,-0.00783465 -0.0565984,-0.0234685 -0.0312323,-0.0312677 -0.0312008,-0.0819016 3.14961e-005,-0.113134l0.226768 -0.226598 -0.226732 -0.226268c-0.0312677,-0.0312008 -0.0313346,-0.0818661 -0.000133858,-0.113134 0.0312008,-0.0312677 0.0818661,-0.0313346 0.113134,-0.000133858l0.283465 0.282835c0.0150315,0.015 0.0235,0.0353661 0.0235,0.0565984 0,0.0212323 -0.00843307,0.0415984 -0.0234685,0.0566339l-0.283465 0.283232c-0.0155669,0.0156063 -0.0360354,0.023437 -0.0565,0.023437z"/>
  <path class="fil2" d="M5.0863 3.29645c-0.236902,0 -0.459634,-0.0922008 -0.627201,-0.259634 -0.167567,-0.167433 -0.259866,-0.390031 -0.259866,-0.626799 0,-0.488799 0.397933,-0.886433 0.887031,-0.886433 0.489098,0 0.887031,0.397665 0.887031,0.886433 0,0.236768 -0.0922992,0.459366 -0.259866,0.626799 -0.1675,0.167402 -0.390232,0.259634 -0.62713,0.259634zm0 -1.6129c-0.400902,0 -0.727031,0.325866 -0.727031,0.726433 0,0.400567 0.326165,0.726433 0.727031,0.726433 0.400866,0 0.727031,-0.325866 0.727031,-0.726433 0,-0.400567 -0.326134,-0.726433 -0.727031,-0.726433z"/>
  <line class="fil0" x1="1.6378" y1="2.57522" x2="1.80657" y2= "2.57522" />
  <path class="fil2" d="M1.80657 2.65522l-0.168799 0c-0.0441654,0 -0.08,-0.0358346 -0.08,-0.08 0,-0.0441654 0.0358346,-0.08 0.08,-0.08l0.168799 0c0.0441654,0 0.08,0.0358346 0.08,0.08 0,0.0441654 -0.0357992,0.08 -0.08,0.08z"/>
  <g id="_442245456">
   <line id="_442245864" class="fil0" x1="1.23691" y1="2.58052" x2="1.4057" y2= "2.58052" />
   <path id="_442246080" class="fil2" d="M1.4057 2.66052l-0.168799 0c-0.0441654,0 -0.08,-0.0358346 -0.08,-0.08 0,-0.0441654 0.0358346,-0.08 0.08,-0.08l0.168799 0c0.0441654,0 0.08,0.0358346 0.08,0.08 0,0.0441654 -0.0357992,0.08 -0.08,0.08z"/>
  </g>
  <g id="_442245576">
   <line id="_442245408" class="fil0" x1="2.03867" y1="2.58052" x2="2.20747" y2= "2.58052" />
   <path id="_442246056" class="fil2" d="M2.20747 2.66052l-0.168799 0c-0.0441654,0 -0.08,-0.0358346 -0.08,-0.08 0,-0.0441654 0.0358346,-0.08 0.08,-0.08l0.168799 0c0.0441654,0 0.08,0.0358346 0.08,0.08 0,0.0441654 -0.0358307,0.08 -0.08,0.08z"/>
  </g>
  <path class="fil3" d="M3.74353 3.44165c0.0207008,0.146429 -0.00470079,0.275563 -0.0755,0.383795 -0.0355118,0.0542756 -0.0829803,0.103 -0.139484,0.143539 0.0158425,0.0330906 0.0291024,0.0676614 0.0396614,0.103362 0.0565472,0.026063 0.134894,0.0719685 0.200488,0.146504 0.1025,0.116469 0.143933,0.269067 0.119768,0.441366 -0.00563386,0.0400315 -0.0398976,0.0689331 -0.0791654,0.0689331 -0.00370079,0 -0.00743307,-0.000267717 -0.0112008,-0.000799213 -0.0437677,-0.00613386 -0.0742677,-0.0465669 -0.0680984,-0.0903346 0.0257992,-0.183862 -0.0469173,-0.295559 -0.131736,-0.362378 2.3622e-005,0.00241339 3.54331e-005,0.00482677 3.54331e-005,0.00724409 0,0.0872205 -0.0148346,0.171921 -0.0431181,0.250236 0.0508898,0.0441732 0.0914882,0.0953858 0.121118,0.152831 0.0509016,0.0987323 0.0677008,0.213031 0.0499331,0.339768 -0.00559843,0.0399646 -0.0398661,0.0688976 -0.0791339,0.0688976 -0.00370079,0 -0.00743307,-0.000267717 -0.0112008,-0.000799213 -0.0437677,-0.00613386 -0.0742677,-0.0465669 -0.0681339,-0.0903346 0.0184094,-0.131197 -0.0112244,-0.238894 -0.0880984,-0.321291 -0.0137244,0.020315 -0.0285709,0.0398268 -0.0445,0.0584252 -0.108201,0.126303 -0.253031,0.195835 -0.407799,0.195835 -0.155098,0 -0.300094,-0.0695315 -0.408264,-0.195835 -0.0159055,-0.0185669 -0.0307283,-0.0380472 -0.0444331,-0.0583346 -0.0770866,0.0826496 -0.106736,0.190287 -0.0881614,0.321102 0.00620079,0.0437323 -0.0242323,0.0842323 -0.0679685,0.0904331 -0.00380315,0.000535433 -0.00760236,0.000799213 -0.0113346,0.000799213 -0.0392008,0 -0.0734331,-0.0288346 -0.0790984,-0.0687677 -0.0179685,-0.126701 -0.00116535,-0.241067 0.0499685,-0.339965 0.0296181,-0.0572953 0.0702205,-0.108453 0.121094,-0.152685 -0.0282717,-0.0783228 -0.0430984,-0.163055 -0.0430984,-0.250315 0,-0.00241339 1.1811e-005,-0.00482283 3.54331e-005,-0.00723228 -0.0848228,0.066815 -0.157547,0.178516 -0.131772,0.362398 0.00613386,0.0437677 -0.0243661,0.0842008 -0.0680984,0.0903346 -0.00376772,0.0005 -0.0075315,0.000767717 -0.0112323,0.000767717 -0.0392677,0 -0.0735,-0.0289016 -0.0791339,-0.0689016 -0.0241654,-0.172299 0.0172677,-0.324933 0.119768,-0.441366 0.0655945,-0.0745 0.143933,-0.120421 0.20048,-0.146496 0.0105472,-0.0356969 0.0237874,-0.0702559 0.0396063,-0.103335 -0.0565,-0.0404961 -0.103976,-0.0892559 -0.139488,-0.143669 -0.0705669,-0.108134 -0.0959685,-0.237201 -0.0754685,-0.38363 0.00613386,-0.0437677 0.0465669,-0.0742677 0.0903346,-0.0681339 0.0437677,0.00613386 0.0742677,0.0465669 0.0681339,0.0903346 -0.0265276,0.18937 0.0526299,0.302949 0.142524,0.369925 0.00242126,-0.00293307 0.00487008,-0.00584252 0.00734252,-0.00872835 0.0180118,-0.0210276 0.0370394,-0.0404843 0.0569685,-0.0583071 -0.0452087,-0.0610787 -0.0700354,-0.133433 -0.0700354,-0.208157 0,-0.0665512 0.0189606,-0.130224 0.0546299,-0.186236 -0.0465079,-0.0580748 -0.0912205,-0.151823 -0.0888622,-0.296591 0.000732283,-0.0441654 0.0371339,-0.0795 0.0812992,-0.0786654 0.0441654,0.000732283 0.0794016,0.0371339 0.0786654,0.0812992 -0.00142126,0.0862913 0.0191732,0.142622 0.0426969,0.178654 0.0725236,-0.0486969 0.160571,-0.0750906 0.252902,-0.0750906 0.0922087,0 0.180177,0.0264016 0.252665,0.0751142 0.0235591,-0.0358425 0.044126,-0.0920472 0.0424961,-0.178484 -0.000834646,-0.0441654 0.0342992,-0.0806654 0.0785,-0.0815 0.0442677,-0.000834646 0.0806654,0.0342992 0.0815,0.0785 0.00272047,0.145079 -0.0420276,0.238799 -0.0887835,0.296819 0.035622,0.0559961 0.0545551,0.119642 0.0545551,0.18615 0,0.0749567 -0.0248307,0.147311 -0.0700748,0.208213 0.0199134,0.017815 0.0389331,0.0372638 0.0569409,0.0582835 0.00247244,0.00288583 0.00491732,0.00579134 0.00733858,0.00872047 0.0900748,-0.0671772 0.169358,-0.180846 0.142626,-0.369819 -0.00620079,-0.0437323 0.0242677,-0.0842323 0.068,-0.0904016 0.0437677,-0.00616535 0.0842323,0.0242677 0.0904016,0.068zm0.638437 -0.492563l-1.2936 0 -0.236969 0 -1.83803 0 0 2.01203c0,0.100366 0.0815669,0.182 0.181799,0.182l3.664 0c0.100232,0 0.181799,-0.0816339 0.181799,-0.182l0 -1.66579c-0.219874,-0.0109882 -0.425031,-0.101795 -0.581866,-0.258504 -0.027811,-0.0277874 -0.0535472,-0.0570945 -0.0771299,-0.0877323z"/>
  <path class="fil4" d="M3.35277 3.98182c-0.035811,-0.0557047 -0.0813031,-0.101996 -0.133413,-0.135213 -0.00120079,-0.000661417 -0.00238583,-0.00135827 -0.00355906,-0.00209055 -0.0206496,-0.0128583 -0.0418661,-0.0234921 -0.063563,-0.031878 -0.000240157,-9.05512e-005 -0.000476378,-0.000181102 -0.000716535,-0.000275591 -0.0399016,-0.0153189 -0.0814449,-0.0230472 -0.124154,-0.0230157 -0.186614,0 -0.344591,0.149894 -0.394709,0.35463 -0.000566929,0.00332677 -0.00133858,0.0066063 -0.00231496,0.0098189 -0.00930315,0.0411693 -0.0142717,0.0844606 -0.0142717,0.129118 0,0.0858858 0.018374,0.16672 0.0506496,0.237134 0.00170079,0.0030748 0.00317717,0.00622441 0.00443307,0.0094252 0.058374,0.120984 0.158315,0.209638 0.276213,0.237638l0 -0.373299c0,-0.0441654 0.0358346,-0.08 0.08,-0.08 0.0441654,0 0.08,0.0358346 0.08,0.08l0 0.37328c0.117394,-0.0279331 0.216969,-0.116122 0.275358,-0.236516 0.00147244,-0.0039252 0.00327559,-0.00777165 0.00540945,-0.0115079 0.0319764,-0.070185 0.0501654,-0.150665 0.0501654,-0.236154 0,-0.0444961 -0.00492913,-0.0876339 -0.0141614,-0.128669 -0.00109055,-0.00352362 -0.00194094,-0.00712992 -0.00253937,-0.0107874 -0.0140433,-0.0571732 -0.0364961,-0.110063 -0.065626,-0.156591 -0.00112205,-0.00162992 -0.00218898,-0.00331102 -0.00320079,-0.00504724z"/>
  <path class="fil4" d="M3.02737 3.62931c0.0759606,0 0.149512,0.0167441 0.217516,0.0487205 0.028252,-0.0348937 0.0434173,-0.076 0.0434173,-0.119354 0,-0.0501142 -0.0206142,-0.0963071 -0.0551693,-0.133047 -0.00255118,-0.00227953 -0.00497638,-0.00474016 -0.00726378,-0.00738583 -0.0478976,-0.0465787 -0.119118,-0.0761614 -0.1985,-0.0761614 -0.144098,0 -0.261331,0.0971654 -0.261331,0.216594 0,0.0424488 0.0154803,0.0841063 0.043563,0.119307 0.0680551,-0.0319449 0.141697,-0.0486732 0.217768,-0.0486732z"/>
  <path class="fil5" d="M4.62698 2.97269c0.115512,0.094122 0.258091,0.151441 0.408732,0.161988 0.000228346,1.5748e-005 0.000456693,3.14961e-005 0.000685039,4.72441e-005 0.0164882,0.00112205 0.0331299,0.00169291 0.0498976,0.00169291 2.3622e-005,0 4.33071e-005,0 6.69291e-005,3.14961e-005 0.00982283,-3.14961e-005 0.0196024,-0.000228346 0.0293346,-0.000598425 0.000326772,-3.14961e-005 0.000653543,-4.72441e-005 0.000980315,-5.90551e-005 0.00061811,-3.54331e-005 0.00124016,-5.90551e-005 0.00185827,-7.87402e-005 0.385969,-0.0169134 0.694791,-0.335957 0.694791,-0.725728 0,-0.400567 -0.326134,-0.726433 -0.727031,-0.726433 -0.360492,0 -0.660528,0.263484 -0.71735,0.607843 -0.00030315,0.0050315 -0.00107087,0.00993701 -0.00226378,0.0146732 -0.00488976,0.0339449 -0.00741732,0.0686417 -0.00741732,0.103917 0,0.0500315 0.00508661,0.0989016 0.0147756,0.14611 0.000877953,0.00315354 0.00156693,0.00638189 0.00205512,0.00967717 0.0357047,0.162634 0.126106,0.305043 0.250886,0.406917zm0.339315 -0.0350039c-0.00686614,0 -0.0138346,-0.000901575 -0.0207677,-0.00276772 -0.0426654,-0.0114331 -0.068,-0.0553346 -0.0565315,-0.098l0.240134 -0.895331c0.0114331,-0.0426654 0.0552992,-0.068 0.098,-0.0565315 0.0426654,0.0114331 0.068,0.0553346 0.0565315,0.098l-0.240134 0.895331c-0.00960236,0.0357323 -0.0419331,0.0592992 -0.0772323,0.0592992zm-0.187469 -0.178602c-0.0204331,0 -0.0409016,-0.00779921 -0.0565,-0.0233661l-0.283835 -0.283232c-0.0150315,-0.015 -0.0235,-0.0354016 -0.0235,-0.0566654 0,-0.0212638 0.0084685,-0.0416339 0.0235315,-0.0566339l0.283835 -0.282835c0.0312992,-0.0312008 0.0819331,-0.0310984 0.113134,0.000200787 0.0312008,0.0312992 0.0310984,0.0819331 -0.000200787,0.113134l-0.227 0.226201 0.227067 0.226567c0.0312677,0.0312008 0.0313346,0.0818661 0.000133858,0.113134 -0.0156654,0.0156654 -0.0361654,0.0234961 -0.0566654,0.0234961zm0.615335 0c-0.0205,0 -0.0409685,-0.00783465 -0.0565984,-0.0234685 -0.0312323,-0.0312677 -0.0312008,-0.0819016 3.14961e-005,-0.113134l0.226768 -0.226598 -0.226732 -0.226268c-0.0312677,-0.0312008 -0.0313346,-0.0818661 -0.000133858,-0.113134 0.0312008,-0.0312677 0.0818661,-0.0313346 0.113134,-0.000133858l0.283465 0.282835c0.0150315,0.015 0.0235,0.0353661 0.0235,0.0565984 0,0.0212323 -0.00843307,0.0415984 -0.0234685,0.0566339l-0.283465 0.283232c-0.0155669,0.0156063 -0.0360354,0.023437 -0.0565,0.023437z"/>
 </g>
</svg>
