<?xml version="1.0" encoding="UTF-8"?>
<!DOCTYPE svg PUBLIC "-//W3C//DTD SVG 1.1//EN" "http://www.w3.org/Graphics/SVG/1.1/DTD/svg11.dtd">
<!-- Creator: CorelDRAW -->
<svg xmlns="http://www.w3.org/2000/svg" xml:space="preserve" width="6.82666in" height="6.82666in" style="shape-rendering:geometricPrecision; text-rendering:geometricPrecision; image-rendering:optimizeQuality; fill-rule:evenodd; clip-rule:evenodd"
viewBox="0 0 6.82666 6.82666"
 xmlns:xlink="http://www.w3.org/1999/xlink">
 <defs>
  <style type="text/css">
   <![CDATA[
    .fil0 {fill:none}
    .fil2 {fill:aqua}
    .fil1 {fill:#333333}
   ]]>
  </style>
 </defs>
 <rect class="fil0" width="6.82666" height="6.82666"/>
 <g id="Layer_x0020_1">
  <metadata id="CorelCorpID_0Corel-Layer"/>
  <g id="_442248744">
   <g>
    <g id="_259979360">
     <path id="_442249920" class="fil1" d="M5.28652 5.93347l-3.74638 0c-0.182654,0 -0.354976,-0.0716614 -0.484965,-0.20165 -0.129988,-0.129992 -0.20165,-0.302311 -0.20165,-0.484965l0 -3.66705c0,-0.182654 0.0716614,-0.354976 0.20165,-0.484965 0.129992,-0.129988 0.302311,-0.20165 0.484965,-0.20165l3.74638 0c0.182654,0 0.354976,0.0716614 0.484965,0.20165 0.129988,0.129992 0.20165,0.302311 0.20165,0.484965l0 3.66706c0,0.182654 -0.0716614,0.354972 -0.20165,0.484961 -0.129988,0.129988 -0.302311,0.20165 -0.484965,0.20165zm-3.74638 -4.8803c-0.290311,0 -0.526626,0.236315 -0.526626,0.526626l0 3.66706c0,0.290311 0.236315,0.526626 0.526626,0.526626l3.74638 3.93701e-006c0.290311,0 0.526626,-0.236315 0.526626,-0.526626l0 -3.66706c0,-0.290311 -0.236315,-0.526626 -0.526626,-0.526626l-3.74638 -3.93701e-006z"/>
    </g>
    <g id="_259979480">
     <path id="_442248456" class="fil1" d="M5.89314 2.24042l-4.95962 0c-0.0443307,0 -0.0799921,-0.0356654 -0.0799921,-0.0799921 0,-0.0443307 0.0356614,-0.0799921 0.0799921,-0.0799921l4.95962 0c0.0443307,0 0.0799921,0.0356614 0.0799921,0.0799921 0,0.0443268 -0.0356614,0.0799921 -0.0799921,0.0799921z"/>
    </g>
    <g id="_259979648">
     <path id="_442249152" class="fil1" d="M2.35974 5.93347c-0.0443307,0 -0.0799921,-0.0356614 -0.0799921,-0.0799921l0 -3.69305c0,-0.0443307 0.0356614,-0.0799921 0.0799921,-0.0799921 0.0443268,0 0.0799921,0.0356614 0.0799921,0.0799921l0 3.69305c3.93701e-006,0.0443307 -0.0359961,0.0799921 -0.0799921,0.0799921z"/>
    </g>
    <g id="_259979672">
     <path id="_442248480" class="fil1" d="M5.89314 4.08694l-3.5334 0c-0.0443307,0 -0.0799921,-0.0356654 -0.0799921,-0.0799961 0,-0.0443268 0.0356614,-0.0799921 0.0799921,-0.0799921l3.5334 0c0.0443307,0 0.0799921,0.0356654 0.0799921,0.0799921 0,0.0443307 -0.0356614,0.0799961 -0.0799921,0.0799961z"/>
    </g>
    <g id="_259979552">
     <path id="_442248528" class="fil1" d="M4.68857 2.24042c-0.0443268,0 -0.0799921,-0.0356654 -0.0799921,-0.0799921l-3.93701e-006 -1.18724c0,-0.0443307 0.0356654,-0.0799921 0.0799921,-0.0799921 0.0443307,0 0.0799961,0.0356614 0.0799961,0.0799921l0 1.18724c0,0.0443268 -0.0359961,0.0799921 -0.0799921,0.0799921z"/>
    </g>
   </g>
  </g>
  <path class="fil2" d="M2.35974 2.08043l2.24883 0 -3.93701e-006 -1.02726 -3.06843 -3.93701e-006c-0.290311,0 -0.526626,0.236315 -0.526626,0.526626l0 0.500634 1.34623 0z"/>
  <path class="fil2" d="M4.76856 1.05318l0 1.02726 1.04459 0 0 -0.50063c0,-0.290311 -0.236315,-0.526626 -0.526626,-0.526626l-0.517961 0z"/>
  <polygon class="fil2" points="5.81315,2.24042 4.68857,2.24042 2.43974,2.24042 2.43974,3.92696 5.81315,3.92696 "/>
  <path class="fil2" d="M2.27975 4.00695l0 -1.76653 -1.26624 0 0 3.00644c0,0.290311 0.236315,0.526626 0.526626,0.526626l0.73961 0 0 -1.76653z"/>
  <path class="fil2" d="M5.81315 4.08694l-3.37341 0 0 1.68654 2.84678 3.93701e-006c0.290311,0 0.526626,-0.236315 0.526626,-0.526626l0 -1.15991z"/>
 </g>
</svg>
