<?xml version="1.0" encoding="UTF-8"?>
<!DOCTYPE svg PUBLIC "-//W3C//DTD SVG 1.1//EN" "http://www.w3.org/Graphics/SVG/1.1/DTD/svg11.dtd">
<!-- Creator: CorelDRAW -->
<svg xmlns="http://www.w3.org/2000/svg" xml:space="preserve" width="6.82666in" height="6.82666in" style="shape-rendering:geometricPrecision; text-rendering:geometricPrecision; image-rendering:optimizeQuality; fill-rule:evenodd; clip-rule:evenodd"
viewBox="0 0 6.82666 6.82666"
 xmlns:xlink="http://www.w3.org/1999/xlink">
 <defs>
  <style type="text/css">
   <![CDATA[
    .fil0 {fill:none}
    .fil1 {fill:#0065A3}
    .fil7 {fill:#00CB77}
    .fil3 {fill:#00DC7F}
    .fil2 {fill:#333333}
    .fil6 {fill:#98EDFE}
    .fil5 {fill:#FE9E3E}
    .fil4 {fill:#FEC34D}
   ]]>
  </style>
 </defs>
 <rect class="fil0" width="6.82666" height="6.82666"/>
 <g id="Layer_x0020_1">
  <metadata id="CorelCorpID_0Corel-Layer"/>
  <path class="fil1" d="M4.19327 5.22619l0 0.376634 -1.55988 3.93701e-006 0 -0.376642 1.55988 3.93701e-006zm0.106657 -0.0533307c0,-0.0296142 -0.0237205,-0.0533268 -0.0533307,-0.0533268l-1.66654 -3.93701e-006c-0.0296102,0 -0.0533307,0.0237126 -0.0533307,0.0533268l0 0.429972 -0.958594 0c-0.320531,0 -0.581291,-0.260776 -0.581291,-0.581291 0,-0.0580472 0.0472795,-0.105327 0.105327,-0.105327l4.64231 0c0.0580472,0 0.105327,0.0472795 0.105327,0.105327 0,0.320531 -0.260776,0.581287 -0.581287,0.581287l-0.958594 0 0 -0.429965z"/>
  <g id="_442234344">
   <g id="_259980224">
    <path id="_440878464" class="fil2" d="M5.25852 5.73615l-3.69039 0c-0.190319,0 -0.369303,-0.0746614 -0.504626,-0.209984 -0.135323,-0.135327 -0.209984,-0.314646 -0.209984,-0.50463 0,-0.131657 0.106988,-0.23865 0.238646,-0.23865l0.184323 0 4.27367 0 0.184323 0c0.131657,0 0.238646,0.106992 0.238646,0.23865 0,0.190319 -0.0746614,0.369303 -0.209984,0.50463 -0.135323,0.135323 -0.314307,0.209984 -0.504626,0.209984zm-4.16635 -0.793276c-0.0433307,0 -0.0786614,0.0353307 -0.0786614,0.0786614 0,0.305646 0.24865,0.554626 0.554626,0.554626l3.69039 -3.93701e-006c0.305642,0 0.554622,-0.248646 0.554622,-0.554622 0,-0.0433307 -0.0353307,-0.0786614 -0.0786614,-0.0786614l-0.184319 0 -4.27367 0 -0.184323 0z"/>
   </g>
   <g id="_259980560">
    <path id="_440878224" class="fil2" d="M5.55017 4.94288c-0.0443268,0 -0.0799921,-0.0356614 -0.0799921,-0.0799921l0 -2.11917c0,-0.194319 -0.157323,-0.358307 -0.351307,-0.366642l-0.367638 3.93701e-006c-0.0443268,0 -0.0799921,-0.0356614 -0.0799921,-0.0799921 0,-0.0443307 0.0356654,-0.0799921 0.0799921,-0.0799921l0.369303 -3.93701e-006c0.001,0 0.002,0 0.003,0 0.135992,0.00533071 0.263315,0.0626614 0.358638,0.160988 0.0953268,0.0989921 0.147992,0.22865 0.147992,0.365303l0 2.11884c0,0.0446654 -0.0356654,0.0806614 -0.0799961,0.0806614zm-4.27367 0c-0.0443307,0 -0.0799961,-0.0356614 -0.0799961,-0.0799921l0 -2.11917c0,-0.136657 0.0526614,-0.266646 0.147992,-0.365307 0.0953228,-0.0986575 0.22265,-0.155988 0.358638,-0.161319 0.001,0 0.002,0 0.003,0l0.369303 0c0.0443268,0 0.0799921,0.0356614 0.0799921,0.0799921 0,0.0443307 -0.0356654,0.0799921 -0.0799921,0.0799921l-0.367638 3.93701e-006c-0.193984,0.00833071 -0.351307,0.172323 -0.351307,0.366642l0 2.11884c0,0.0443268 -0.0359961,0.0803228 -0.0799921,0.0803228z"/>
   </g>
   <g id="_259980152">
    <path id="_440878392" class="fil2" d="M4.2466 5.73615c-0.0443268,0 -0.0799921,-0.0356654 -0.0799921,-0.0799961l0 -0.403299 -1.50655 -3.93701e-006 0 0.403303c0,0.0443268 -0.0356654,0.0799921 -0.0799921,0.0799921 -0.0443307,0 -0.0799961,-0.0356654 -0.0799961,-0.0799921l0 -0.483299c0,-0.0443307 0.0356654,-0.0799921 0.0799961,-0.0799921l1.66654 3.93701e-006c0.0443307,0 0.0799961,0.0356614 0.0799961,0.0799921l0 0.483295c0,0.0439961 -0.0356654,0.0799961 -0.0799961,0.0799961z"/>
   </g>
   <g id="_259980344">
    <path id="_440878008" class="fil2" d="M3.41333 4.62924c-0.0146654,0 -0.0289961,-0.004 -0.0419961,-0.012 -0.414303,-0.254646 -0.75961,-0.602287 -0.998591,-1.00559 -0.121657,-0.205319 -0.21565,-0.424299 -0.279315,-0.650953 -0.0653268,-0.233315 -0.0986575,-0.475295 -0.0986575,-0.718945 0,-0.147323 0.0123346,-0.295307 0.0366654,-0.440299 0.00533071,-0.0319961 0.0296654,-0.0576614 0.0613307,-0.0646614 0.47063,-0.106323 0.909594,-0.323307 1.2689,-0.627283 0.0296654,-0.0253307 0.0736614,-0.0253307 0.103331,0 0.359638,0.303976 0.798268,0.520961 1.2689,0.627618 0.0316654,0.00733465 0.0559961,0.0326654 0.0613307,0.0646614 0.0243307,0.144988 0.0366654,0.292976 0.0366654,0.440299 0,0.24365 -0.0333307,0.485295 -0.0986575,0.718945 -0.0636654,0.226315 -0.157323,0.44563 -0.279315,0.650949 -0.23898,0.403303 -0.584287,0.750945 -0.998591,1.00559 -0.013,0.008 -0.0273307,0.0116654 -0.0419961,0.0116654zm-1.23224 -2.74846c-0.0173307,0.119323 -0.0259961,0.240646 -0.0259961,0.361638 0,0.886264 0.469295,1.70987 1.25857,2.21283 0.788941,-0.502961 1.25824,-1.32656 1.25824,-2.21283 0,-0.120661 -0.00866535,-0.24198 -0.0263307,-0.361638 -0.453299,-0.110661 -0.876933,-0.319311 -1.23224,-0.606291 -0.354972,0.28698 -0.778606,0.495299 -1.23224,0.606291z"/>
   </g>
   <g id="_259980056">
    <path id="_440877744" class="fil2" d="M3.41333 4.31059c-0.016,0 -0.0319961,-0.005 -0.0459961,-0.0146654 -0.167323,-0.117323 -0.320642,-0.252315 -0.455634,-0.401303 -0.135657,-0.149657 -0.25298,-0.313642 -0.348642,-0.486965 -0.0973268,-0.176988 -0.172319,-0.363976 -0.222984,-0.556626 -0.0519961,-0.198319 -0.0783268,-0.402969 -0.0783268,-0.608618 0,-0.0736614 0.00333465,-0.147992 0.01,-0.220984 0.003,-0.0329961 0.0259961,-0.0606614 0.0576654,-0.0696614 0.377303,-0.107657 0.725945,-0.277976 1.03659,-0.506295 0.0283307,-0.0206654 0.0666614,-0.0206654 0.0946575,0 0.310642,0.228319 0.659283,0.398638 1.03625,0.506295 0.0316654,0.009 0.0546654,0.0366654 0.0576654,0.0696614 0.00666535,0.0729961 0.0103307,0.147323 0.0103307,0.220984 0,0.20565 -0.0263307,0.410634 -0.0783268,0.608618 -0.0506614,0.192319 -0.125657,0.379638 -0.222984,0.556626 -0.0956575,0.173319 -0.212984,0.337303 -0.348642,0.486965 -0.134988,0.148654 -0.288311,0.283642 -0.45563,0.401299 -0.0136614,0.00966929 -0.0299921,0.0146693 -0.0459921,0.0146693zm-0.986591 -2.2205c-0.00333465,0.0506614 -0.00533465,0.101657 -0.00533465,0.152323 0,0.741276 0.360642,1.42722 0.991925,1.88985 0.630953,-0.46263 0.991925,-1.14824 0.991925,-1.88985 0,-0.0506654 -0.00166535,-0.101661 -0.00533465,-0.152323 -0.356303,-0.107657 -0.687614,-0.269311 -0.986591,-0.481295 -0.298976,0.211984 -0.630287,0.373638 -0.986591,0.481295z"/>
   </g>
   <g id="_259980536">
    <path id="_442239360" class="fil2" d="M3.7823 3.43699l-0.737945 0c-0.127988,0 -0.231984,-0.103988 -0.231984,-0.231984l0 -0.629614c0,-0.127988 0.103992,-0.231984 0.231984,-0.231984l0.73828 0c0.127988,0 0.23198,0.103992 0.23198,0.231984l0 0.629618c-0.000330709,0.127657 -0.104327,0.23198 -0.232315,0.23198zm-0.737945 -0.933594c-0.0396654,0 -0.0719961,0.0323307 -0.0719961,0.0719961l0 0.629618c0,0.0396654 0.0323307,0.0719961 0.0719961,0.0719961l0.73828 -3.93701e-006c0.0396614,0 0.0719921,-0.0323307 0.0719921,-0.0719961l0 -0.629614c0,-0.0396654 -0.0323307,-0.0719961 -0.0719921,-0.0719961l-0.73828 0z"/>
   </g>
   <g id="_259980584">
    <path id="_442234128" class="fil2" d="M3.74164 2.5034c-0.0443307,0 -0.0799921,-0.0356614 -0.0799921,-0.0799921l0 -0.260646c0,-0.0576614 -0.0469961,-0.104657 -0.104661,-0.104657l-0.287642 -3.93701e-006c-0.0576654,0 -0.104657,0.0469961 -0.104657,0.104657l0 0.260646c0,0.0443307 -0.0356654,0.0799961 -0.0799961,0.0799961 -0.0443268,0 -0.0799921,-0.0356654 -0.0799921,-0.0799961l0 -0.260646c0,-0.145988 0.118657,-0.264646 0.26465,-0.264646l0.287638 0c0.145988,0 0.26465,0.118657 0.26465,0.26465l0 0.260642c0,0.044 -0.0356654,0.0799961 -0.0799961,0.0799961z"/>
   </g>
   <g>
    <g id="_259980944">
     <path id="_442234560" class="fil2" d="M3.41333 3.06902c-0.127988,0 -0.231984,-0.103992 -0.231984,-0.231984 0,-0.127992 0.103992,-0.231984 0.231984,-0.231984 0.127988,0 0.231984,0.103992 0.231984,0.231984 0,0.127992 -0.103996,0.231984 -0.231984,0.231984zm0 -0.30398c-0.0396654,0 -0.0719961,0.0323307 -0.0719961,0.0719961 0,0.0396654 0.0323307,0.0719921 0.0719961,0.0719921 0.0396654,0 0.0719961,-0.0323268 0.0719961,-0.0719921 0,-0.0396654 -0.0323307,-0.0719961 -0.0719961,-0.0719961z"/>
    </g>
    <g id="_259980992">
     <path id="_442234032" class="fil2" d="M3.41333 3.17502c-0.0443307,0 -0.0799921,-0.0356654 -0.0799921,-0.0799921l0 -0.105996c0,-0.0443268 0.0356614,-0.0799921 0.0799921,-0.0799921 0.0443307,0 0.0799921,0.0356654 0.0799921,0.0799921l0 0.105996c0,0.0443228 -0.0356614,0.0799921 -0.0799921,0.0799921z"/>
    </g>
   </g>
  </g>
  <path class="fil3" d="M3.7823 3.43699l-0.737945 0c-0.127988,0 -0.231984,-0.103988 -0.231984,-0.231984l0 -0.629614c0,-0.114469 0.083185,-0.209748 0.192323,-0.228598l0 -0.184039c0,-0.145988 0.118657,-0.264646 0.26465,-0.264646l0.287638 0c0.145988,0 0.26465,0.118657 0.26465,0.26465l0 0.183921c0.109465,0.0185787 0.192984,0.114008 0.192984,0.228713l0 0.629618c-0.000330709,0.127657 -0.104327,0.23198 -0.232315,0.23198zm-1.3609 -1.19457c0,0.741276 0.360642,1.42722 0.991925,1.88985 0.630953,-0.46263 0.991925,-1.14824 0.991925,-1.88985 0,-0.0506654 -0.00166535,-0.101661 -0.00533465,-0.152323 -0.356303,-0.107657 -0.687614,-0.269311 -0.986591,-0.481295 -0.298976,0.211984 -0.630287,0.373638 -0.986591,0.481295 -0.00333465,0.0506614 -0.00533465,0.101657 -0.00533465,0.152323z"/>
  <path class="fil4" d="M3.04436 3.27701l0.73828 -3.93701e-006c0.0396614,0 0.0719921,-0.0323307 0.0719921,-0.0719961l0 -0.629614c0,-0.0396654 -0.0323307,-0.0719961 -0.0719921,-0.0719961l-0.041 0 -0.656949 0 -0.0403307 0c-0.0396654,0 -0.0719961,0.0323307 -0.0719961,0.0719961l0 0.629618c0,0.0396654 0.0323307,0.0719961 0.0719961,0.0719961zm0.368972 -0.671953c0.127988,0 0.231984,0.103992 0.231984,0.231984 0,0.0998898 -0.0633386,0.185157 -0.151992,0.217791l0 0.0401929c0,0.0443228 -0.0356614,0.0799921 -0.0799921,0.0799921 -0.0443307,0 -0.0799921,-0.0356654 -0.0799921,-0.0799921l0 -0.0401929c-0.0886535,-0.0326339 -0.151992,-0.117902 -0.151992,-0.217791 0,-0.127992 0.103992,-0.231984 0.231984,-0.231984z"/>
  <path class="fil3" d="M3.16469 2.34341l0.496961 0 0 -0.18065c0,-0.0576614 -0.0469961,-0.104657 -0.104661,-0.104657l-0.287642 -3.93701e-006c-0.0576654,0 -0.104657,0.0469961 -0.104657,0.104657l0 0.180654z"/>
  <path class="fil5" d="M3.41333 2.76504c-0.0396654,0 -0.0719961,0.0323307 -0.0719961,0.0719961 0,0.0396654 0.0323307,0.0719921 0.0719961,0.0719921 0.0396654,0 0.0719961,-0.0323268 0.0719961,-0.0719921 0,-0.0396654 -0.0323307,-0.0719961 -0.0719961,-0.0719961z"/>
  <path class="fil6" d="M3.37133 4.61724c-0.414303,-0.254646 -0.75961,-0.602287 -0.998591,-1.00559 -0.121657,-0.205319 -0.21565,-0.424299 -0.279315,-0.650953 -0.0532126,-0.190051 -0.0851969,-0.38585 -0.0952283,-0.583622l-0.290406 3.93701e-006c-0.193984,0.00833071 -0.351307,0.172323 -0.351307,0.366642l0 2.03917 4.11369 0 0 -2.03918c0,-0.194319 -0.157323,-0.358307 -0.351307,-0.366642l-0.29039 3.93701e-006c-0.0100157,0.197799 -0.0420039,0.393531 -0.0952441,0.583953 -0.0636654,0.226315 -0.157323,0.44563 -0.279315,0.650949 -0.23898,0.403303 -0.584287,0.750945 -0.998591,1.00559 -0.013,0.008 -0.0273307,0.0116654 -0.0419961,0.0116654 -0.0146654,0 -0.0289961,-0.004 -0.0419961,-0.012z"/>
  <path class="fil7" d="M2.15509 2.24242c0,0.886264 0.469295,1.70987 1.25857,2.21283 0.772094,-0.49222 1.23805,-1.29154 1.25759,-2.15614 -1.5748e-005,-0.000673228 -2.3622e-005,-0.00134646 -2.3622e-005,-0.00202362 0,-0.00184646 6.29921e-005,-0.00367323 0.000185039,-0.00548819 0.000318898,-0.0163701 0.000480315,-0.0327638 0.000480315,-0.0491772 0,-0.120661 -0.00866535,-0.24198 -0.0263307,-0.361638 -0.453299,-0.110661 -0.876933,-0.319311 -1.23224,-0.606291 -0.354972,0.28698 -0.778606,0.495299 -1.23224,0.606291 -0.0173307,0.119323 -0.0259961,0.240646 -0.0259961,0.361638zm1.21224 2.05351c-0.167323,-0.117323 -0.320642,-0.252315 -0.455634,-0.401303 -0.135657,-0.149657 -0.25298,-0.313642 -0.348642,-0.486965 -0.0973268,-0.176988 -0.172319,-0.363976 -0.222984,-0.556626 -0.0519961,-0.198319 -0.0783268,-0.402969 -0.0783268,-0.608618 0,-0.0736614 0.00333465,-0.147992 0.01,-0.220984 0.003,-0.0329961 0.0259961,-0.0606614 0.0576654,-0.0696614 0.377303,-0.107657 0.725945,-0.277976 1.03659,-0.506295 0.0283307,-0.0206654 0.0666614,-0.0206654 0.0946575,0 0.310642,0.228319 0.659283,0.398638 1.03625,0.506295 0.0316654,0.009 0.0546654,0.0366654 0.0576654,0.0696614 0.00666535,0.0729961 0.0103307,0.147323 0.0103307,0.220984 0,0.20565 -0.0263307,0.410634 -0.0783268,0.608618 -0.0506614,0.192319 -0.125657,0.379638 -0.222984,0.556626 -0.0956575,0.173319 -0.212984,0.337303 -0.348642,0.486965 -0.134988,0.148654 -0.288311,0.283642 -0.45563,0.401299 -0.0136614,0.00966929 -0.0299921,0.0146693 -0.0459921,0.0146693 -0.016,0 -0.0319961,-0.005 -0.0459961,-0.0146654z"/>
 </g>
</svg>
