<?xml version="1.0" encoding="UTF-8"?>
<!DOCTYPE svg PUBLIC "-//W3C//DTD SVG 1.1//EN" "http://www.w3.org/Graphics/SVG/1.1/DTD/svg11.dtd">
<!-- Creator: CorelDRAW -->
<svg xmlns="http://www.w3.org/2000/svg" xml:space="preserve" width="6.82666in" height="6.82666in" style="shape-rendering:geometricPrecision; text-rendering:geometricPrecision; image-rendering:optimizeQuality; fill-rule:evenodd; clip-rule:evenodd"
viewBox="0 0 6.82666 6.82666"
 xmlns:xlink="http://www.w3.org/1999/xlink">
 <defs>
  <style type="text/css">
   <![CDATA[
    .fil0 {fill:none}
    .fil2 {fill:#333333}
    .fil1 {fill:#CCCCCC}
    .fil3 {fill:#FEC34D}
   ]]>
  </style>
 </defs>
 <rect class="fil0" width="6.82666" height="6.82666"/>
 <g id="Layer_x0020_1">
  <metadata id="CorelCorpID_0Corel-Layer"/>
  <path class="fil1" d="M2.83172 4.73623l-0.000122047 0c3.93701e-005,0 8.26772e-005,0 0.000122047,0zm1.17657 0.454965c0.000299213,0 0.000594488,0 0.000893701,0 -0.000299213,-3.93701e-006 -0.000594488,-3.93701e-006 -0.000893701,0zm-0.106559 -0.615287l-0.990791 3.93701e-006 -0.105894 0c-0.0184213,0 -0.0364646,0.00162598 -0.0540039,0.00474409 -0.143984,0.0255906 -0.253638,0.151665 -0.253638,0.302898 0,0.0901378 0.0389528,0.171335 0.100909,0.22765 0.0546535,0.0496772 0.127217,0.0799921 0.206732,0.0799921 -0.0813268,0 -0.147654,0.0663307 -0.147654,0.147657 0,0.0813268 0.0663268,0.147657 0.147654,0.147657l0.274646 0 0.653283 0 0.275315 -3.93701e-006c0.0813268,0 0.147654,-0.0663307 0.147654,-0.147657 0,-0.0809843 -0.0657677,-0.147098 -0.146626,-0.147654 -4.33071e-005,0 -9.05512e-005,0 -0.000133858,0 0.0790709,-0.000228346 0.15126,-0.0305472 0.205717,-0.0801063 0.061874,-0.056311 0.100854,-0.137461 0.101031,-0.227539 0,-0.151689 -0.110319,-0.278071 -0.254953,-0.30313 -0.017126,-0.00296457 -0.0347283,-0.00451181 -0.052689,-0.00451181l-0.106559 0zm0.0991535 0.455634c0.00243701,-0.000220472 0.00490945,-0.000334646 0.00740551,-0.000334646 0.00266929,0 0.00533465,3.54331e-005 0.00798819,0.000102362 -0.00275591,0.000153543 -0.0055315,0.000232283 -0.00832283,0.000232283l-0.00707087 0zm-1.20428 -0.000216535c0.00280315,-7.48031e-005 0.00561811,-0.000114173 0.00844094,-0.000114173 0.00249606,0 0.0049685,0.000114173 0.00740551,0.000334646l-0.00774016 0c-0.00272047,0 -0.00542126,-7.48031e-005 -0.0081063,-0.000220472z"/>
  <g id="_440880000">
   <g>
    <g>
     <g id="_259979888">
      <path id="_440881152" class="fil2" d="M3.46966 3.75964l-0.126323 0c-0.0829921,0 -0.149988,-0.0616614 -0.166654,-0.153654l-0.0139961 -0.0769961c-0.0283346,-0.00966535 -0.0559961,-0.0213307 -0.0826614,-0.0343307l-0.0643268 0.0446614c-0.0766614,0.0533307 -0.167654,0.0493307 -0.226315,-0.00933071l-0.0893307 -0.0893228c-0.0586614,-0.0586614 -0.0623268,-0.149657 -0.00933071,-0.226315l0.0446614 -0.0643307c-0.013,-0.0269961 -0.0246654,-0.0546614 -0.0343307,-0.0829921l-0.0769961 -0.014c-0.0919921,-0.0166614 -0.153654,-0.0836575 -0.153654,-0.16665l0 -0.125992c0,-0.0829921 0.0616614,-0.149988 0.153654,-0.166654l0.0769961 -0.0139961c0.00966535,-0.0283346 0.0213307,-0.0559961 0.0343307,-0.0826614l-0.0446614 -0.0643268c-0.0533307,-0.0766614 -0.0493307,-0.167657 0.00933071,-0.226315l0.0889921 -0.0889921c0.0586614,-0.0586614 0.149657,-0.0623307 0.226315,-0.00933465l0.0643307 0.0446614c0.0269961,-0.013 0.0546614,-0.0246654 0.0826575,-0.0343307l0.014 -0.0769921c0.0166614,-0.0919921 0.0836575,-0.153657 0.166654,-0.153657l0.125992 -3.93701e-006c0.0829921,0 0.149988,0.0616614 0.166654,0.153654l0.0139961 0.0769961c0.0283346,0.00966535 0.0559961,0.0213307 0.0826614,0.0343307l0.0643268 -0.0446654c0.0766614,-0.0533268 0.167654,-0.0493307 0.226315,0.00933465l0.0893268 0.0889921c0.0586614,0.0586614 0.0623268,0.149654 0.00933465,0.226315l-0.0439961 0.0639961c0.013,0.027 0.0246654,0.0546614 0.0343346,0.0829921l0.0769921 0.014c0.0919921,0.0166614 0.153657,0.0836575 0.153657,0.16665l0 0.125992c0,0.0829921 -0.0616614,0.149988 -0.153657,0.166654l-0.0769921 0.0139961c-0.00966929,0.0283346 -0.0213346,0.0559961 -0.0343346,0.0826614l0.0446654 0.0643307c0.0533268,0.0766575 0.0493307,0.167654 -0.00933465,0.226311l-0.0889921 0.0896693c-0.0586614,0.0586575 -0.149654,0.0623268 -0.226315,0.00933071l-0.0643268 -0.0446614c-0.027,0.013 -0.0546654,0.0246654 -0.0829961,0.0343307l-0.0139961 0.0769921c-0.0166654,0.0916614 -0.0836614,0.153654 -0.166657,0.153654zm-0.125988 -0.159984l0.125657 0c0.00233071,-0.00233465 0.00733465,-0.00966929 0.00966535,-0.0223346l0.0226654 -0.124988c0.00566535,-0.0303307 0.0279961,-0.0549961 0.0579961,-0.0629961 0.0486614,-0.013 0.0956575,-0.0326654 0.139323,-0.0576614 0.0266654,-0.0153346 0.0599961,-0.014 0.0853268,0.00366535l0.104327 0.0723268c0.0103346,0.00733465 0.0193307,0.009 0.0223307,0.009l0.0886614 -0.0886575c0,-0.00333465 -0.00166535,-0.012 -0.009,-0.0223346l-0.0723268 -0.104323c-0.0176654,-0.0253346 -0.019,-0.0586614 -0.00366929,-0.0853307 0.0253346,-0.0439921 0.0446614,-0.0906575 0.0576614,-0.139323 0.008,-0.0299961 0.0326654,-0.0523307 0.0629961,-0.0579961l0.124992 -0.0226654c0.0126654,-0.00233071 0.0199961,-0.007 0.0223307,-0.00933071l0 -0.125657c-0.00233071,-0.00233071 -0.00966535,-0.00733465 -0.0223307,-0.00933465l-0.124992 -0.0226614c-0.0303307,-0.00566535 -0.0549961,-0.028 -0.0629961,-0.0579961 -0.013,-0.0486654 -0.0326614,-0.0956614 -0.0576614,-0.139327 -0.0153307,-0.0266614 -0.0139961,-0.0599921 0.00366929,-0.0853268l0.0723268 -0.104327c0.00733465,-0.0103307 0.009,-0.0193307 0.009,-0.0223307l-0.0886614 -0.0896535c-0.003,0 -0.012,0.00166535 -0.0223346,0.009l-0.104323 0.0723268c-0.0253346,0.0176654 -0.0586614,0.019 -0.0853307,0.00366929 -0.0439961,-0.0253346 -0.0906614,-0.0446654 -0.139323,-0.0576654 -0.0299961,-0.00799606 -0.0523307,-0.0326654 -0.0579961,-0.0629961l-0.0226654 -0.124988c-0.00233071,-0.0126654 -0.007,-0.0199961 -0.00933071,-0.0223346l-0.125654 0c-0.00233465,0.00233465 -0.00733465,0.00966929 -0.00933465,0.0223346l-0.0226654 0.124988c-0.00566535,0.0303307 -0.0279961,0.055 -0.0579961,0.0629961 -0.0486614,0.013 -0.0953228,0.0326654 -0.139323,0.0576654 -0.0266654,0.0153307 -0.0599961,0.0139961 -0.0853268,-0.00366929l-0.104327 -0.0723268c-0.0103346,-0.00733465 -0.0193307,-0.009 -0.0223307,-0.009l-0.0893228 0.0886575c0,0.00333465 0.00166535,0.012 0.00899606,0.0223346l0.0723307 0.104323c0.0176654,0.0253346 0.019,0.0586614 0.00366535,0.0853307 -0.0253307,0.0436614 -0.0446614,0.0906575 -0.0576614,0.139323 -0.008,0.0299961 -0.0326654,0.0523307 -0.0629961,0.0579961l-0.124988 0.0226654c-0.0126693,0.00233071 -0.02,0.007 -0.0223346,0.00933071l0 0.125657c0.00233465,0.00233465 0.00966535,0.00733465 0.0223346,0.00933465l0.124988 0.0226614c0.0303307,0.00566535 0.0549961,0.028 0.0629961,0.0579961 0.013,0.0486654 0.0326614,0.0956614 0.0576614,0.139327 0.0153346,0.0266614 0.014,0.0599961 -0.00366535,0.0853268l-0.0723307 0.104327c-0.00733071,0.0103307 -0.00899606,0.0193307 -0.00899606,0.0223307l0.0886575 0.0886575c0.00333465,0 0.012,-0.00166535 0.0223307,-0.00899606l0.104327 -0.0723307c0.0253307,-0.0176654 0.0586614,-0.019 0.0853268,-0.00366535 0.0439961,0.0253307 0.0906614,0.0446614 0.139327,0.0576614 0.0299961,0.008 0.0523307,0.0326654 0.0579961,0.0629961l0.0226614 0.124988c0.00233465,0.0136614 0.00733071,0.0209961 0.00966535,0.0233307zm0.126323 0l0 0c0,0 0,0 0,0zm-0.126992 0c0,0 0,0 0,0l0 0zm0.567291 -0.182654l0 0c0,0 0,0 0,0zm-1.2799 -0.656949c0,0 0,0 0,0l0 0zm1.55221 0l0 0c0,0 0,0 0,0zm-1.28023 -0.530295c0,0 0,0 0,0 0,0 0,0 0,0zm1.00792 0l0 0c0,0 0,0 0,0zm-0.440299 -0.182654l0 0 0 0zm-0.126992 0l0 0c0,0 0,0 0,0z"/>
     </g>
     <g id="_259979336">
      <path id="_440880864" class="fil2" d="M3.40633 3.23235c-0.22565,0 -0.408969,-0.183654 -0.408969,-0.408972 0,-0.22565 0.18365,-0.408969 0.408969,-0.408969 0.225315,0 0.409303,0.183323 0.409303,0.408972 0,0.22565 -0.183654,0.408969 -0.409303,0.408969zm0 -0.657949c-0.137323,0 -0.24898,0.111657 -0.24898,0.24898 0,0.137323 0.111657,0.24898 0.24898,0.24898 0.137323,0 0.24898,-0.111657 0.24898,-0.24898 0.000334646,-0.137323 -0.111327,-0.24898 -0.24898,-0.24898z"/>
     </g>
    </g>
    <g id="_259979432">
     <path id="_440880168" class="fil2" d="M3.98096 4.73623c-0.0443307,0 -0.0799961,-0.0356614 -0.0799961,-0.0799921 0,-0.329976 0.0373346,-0.587287 0.114661,-0.786276 0.0693268,-0.178984 0.161654,-0.288976 0.24298,-0.385969 0.129657,-0.154654 0.231984,-0.27698 0.231984,-0.640618 0,-0.597957 -0.486299,-1.08425 -1.08425,-1.08425 -0.597953,0 -1.08425,0.486295 -1.08425,1.08425 0,0.363642 0.102327,0.485965 0.231984,0.640618 0.0813268,0.0969921 0.173319,0.206984 0.24298,0.385969 0.0769921,0.198988 0.114657,0.455969 0.114657,0.786276 0,0.0443307 -0.0356614,0.0799921 -0.0799921,0.0799921 -0.0443268,0 -0.0799921,-0.0356614 -0.0799921,-0.0799921 0,-0.687283 -0.162654,-0.881598 -0.319976,-1.06925 -0.0666614,-0.0796575 -0.135657,-0.161988 -0.186654,-0.276311 -0.0566614,-0.127657 -0.0829921,-0.27598 -0.0829921,-0.466965 0,-0.167988 0.033,-0.330976 0.0976575,-0.484295 0.0626614,-0.148323 0.152323,-0.281311 0.26665,-0.395303 0.114323,-0.114327 0.247311,-0.203984 0.395299,-0.266646 0.153323,-0.0649961 0.316311,-0.0976575 0.484295,-0.0976575 0.167988,0 0.330976,0.0329961 0.484295,0.0976575 0.148323,0.0626614 0.281311,0.152319 0.395303,0.266646 0.114327,0.114327 0.203984,0.247315 0.266646,0.395303 0.0649961,0.153323 0.0976575,0.316307 0.0976575,0.484295 0,0.190984 -0.0263307,0.339307 -0.0829921,0.466965 -0.0509961,0.114657 -0.119657,0.196984 -0.186654,0.276311 -0.157323,0.187654 -0.319972,0.381972 -0.319972,1.06925 0.000661417,0.0439961 -0.0350039,0.0799921 -0.0793307,0.0799921z"/>
    </g>
    <g id="_259980416">
     <path id="_440880336" class="fil2" d="M4.00829 5.6465l-1.20324 0c-0.169654,0 -0.307642,-0.137988 -0.307642,-0.307642 0,-0.169654 0.137988,-0.307642 0.307642,-0.307642 0.0443307,0 0.0799921,0.0356614 0.0799921,0.0799921 0,0.0443307 -0.0356614,0.0799921 -0.0799921,0.0799921 -0.0813268,0 -0.147654,0.0663307 -0.147654,0.147657 0,0.0813268 0.0663268,0.147657 0.147654,0.147657l1.20324 -3.93701e-006c0.0813268,0 0.147654,-0.0663307 0.147654,-0.147657 0,-0.0813268 -0.0663268,-0.147657 -0.147654,-0.147657 -0.0443307,0 -0.0799921,-0.0356614 -0.0799921,-0.0799921 0,-0.0443268 0.0356614,-0.0799921 0.0799921,-0.0799921 0.169654,0 0.307642,0.137988 0.307642,0.307642 -0.000334646,0.169657 -0.138323,0.307646 -0.307642,0.307646z"/>
    </g>
    <g id="_259979864">
     <path id="_440880624" class="fil2" d="M3.40633 5.97314c-0.224315,0 -0.406634,-0.182319 -0.406634,-0.406634 0,-0.0443307 0.0356614,-0.0799921 0.0799921,-0.0799921 0.0443307,0 0.0799921,0.0356614 0.0799921,0.0799921 0,0.135988 0.110657,0.24665 0.24665,0.24665 0.135992,0 0.24665,-0.110661 0.24665,-0.24665 0,-0.0443307 0.0356614,-0.0799921 0.0799921,-0.0799921 0.0443268,0 0.0799921,0.0356614 0.0799921,0.0799921 0.000338583,0.224315 -0.182319,0.406634 -0.406634,0.406634z"/>
    </g>
    <g id="_259981232">
     <path id="_440880552" class="fil2" d="M4.00829 5.1912l-1.20324 0c-0.169654,0 -0.307642,-0.137988 -0.307642,-0.307642 0,-0.169654 0.137988,-0.307642 0.307642,-0.307642l1.20324 -3.93701e-006c0.169654,0 0.307642,0.137992 0.307642,0.307642 -0.000334646,0.169657 -0.138323,0.307646 -0.307642,0.307646zm-1.20358 -0.454965c-0.0813268,0 -0.147654,0.0663307 -0.147654,0.147657 0,0.0813268 0.0663268,0.147657 0.147654,0.147657l1.20324 -3.93701e-006c0.0813268,0 0.147657,-0.0663307 0.147657,-0.147657 0,-0.0813268 -0.0663307,-0.147657 -0.147657,-0.147657l-1.20324 3.93701e-006z"/>
    </g>
    <g id="_259980800">
     <path id="_440880648" class="fil2" d="M3.40633 1.34249c-0.0443307,0 -0.0799921,-0.0356654 -0.0799921,-0.0799961l0 -0.328976c0,-0.0443268 0.0356614,-0.0799921 0.0799921,-0.0799921 0.0443307,0 0.0799921,0.0356654 0.0799921,0.0799921l0 0.328976c3.93701e-006,0.0439961 -0.0356614,0.0799961 -0.0799921,0.0799961z"/>
    </g>
    <g id="_513326584">
     <path id="_440879304" class="fil2" d="M4.11861 1.52615c-0.0136654,0 -0.0273307,-0.00333465 -0.0399961,-0.0106654 -0.0383307,-0.022 -0.0513307,-0.0709961 -0.0293307,-0.109327l0.164319 -0.28498c0.022,-0.0383268 0.0709921,-0.0513268 0.109327,-0.0293307 0.0383307,0.022 0.0513307,0.0709961 0.0293307,0.109327l-0.164319 0.28498c-0.0146693,0.0253268 -0.0416693,0.0399961 -0.0693307,0.0399961z"/>
    </g>
    <g id="_511980336">
     <path id="_440879904" class="fil2" d="M4.6439 2.04111c-0.0276654,0 -0.0546614,-0.0143346 -0.0693268,-0.04 -0.022,-0.0383307 -0.009,-0.0873268 0.0293307,-0.109327l0.284976 -0.164319c0.0383307,-0.022 0.0873268,-0.009 0.109327,0.0293307 0.022,0.0383268 0.009,0.0873268 -0.0293307,0.109327l-0.284976 0.164319c-0.0126693,0.007 -0.0263307,0.0106693 -0.04,0.0106693z"/>
    </g>
    <g id="_261585400">
     <path id="_440879736" class="fil2" d="M2.69806 1.53981c-0.0276654,0 -0.0546654,-0.0143307 -0.0693307,-0.0399961l-0.164319 -0.28498c-0.022,-0.0383268 -0.009,-0.0873268 0.0293307,-0.109327 0.0383268,-0.0219961 0.0873268,-0.00899606 0.109327,0.0293307l0.164319 0.28498c0.022,0.0383307 0.009,0.0873268 -0.0293307,0.109327 -0.0126654,0.007 -0.0266654,0.0106654 -0.0399961,0.0106654z"/>
    </g>
    <g id="_512996776">
     <path id="_440879688" class="fil2" d="M2.18276 2.06477c-0.0136654,0 -0.0273307,-0.00333071 -0.04,-0.0106614l-0.284976 -0.164323c-0.0383307,-0.022 -0.0513307,-0.0709921 -0.0293307,-0.109327 0.022,-0.0383307 0.0709921,-0.0513307 0.109327,-0.0293307l0.284976 0.164323c0.0383307,0.0219961 0.0513307,0.0709921 0.0293307,0.109327 -0.0146654,0.0256614 -0.0416654,0.0399921 -0.0693268,0.0399921z"/>
    </g>
   </g>
  </g>
  <path class="fil1" d="M3.81563 2.82338c0,0.22565 -0.183654,0.408969 -0.409303,0.408969 -0.22565,0 -0.408969,-0.183654 -0.408969,-0.408972 0,-0.22565 0.18365,-0.408969 0.408969,-0.408969 0.225315,0 0.409303,0.183323 0.409303,0.408972zm-0.917264 -0.292642c-0.0253307,0.0436614 -0.0446614,0.0906575 -0.0576614,0.139323 -0.008,0.0299961 -0.0326654,0.0523307 -0.0629961,0.0579961l-0.124988 0.0226654c-0.0126693,0.00233071 -0.02,0.007 -0.0223346,0.00933071l0 0.125657c0.00233465,0.00233465 0.00966535,0.00733465 0.0223346,0.00933465l0.124988 0.0226614c0.0303307,0.00566535 0.0549961,0.028 0.0629961,0.0579961 0.013,0.0486654 0.0326614,0.0956614 0.0576614,0.139327 0.0153346,0.0266614 0.014,0.0599961 -0.00366535,0.0853268l-0.0723307 0.104327c-0.00733071,0.0103307 -0.00899606,0.0193307 -0.00899606,0.0223307l0.0886575 0.0886575c0.00333465,0 0.012,-0.00166535 0.0223307,-0.00899606l0.104327 -0.0723307c0.0253307,-0.0176654 0.0586614,-0.019 0.0853268,-0.00366535 0.0439961,0.0253307 0.0906614,0.0446614 0.139327,0.0576614 0.0299961,0.008 0.0523307,0.0326654 0.0579961,0.0629961l0.0226614 0.124988c0.00233465,0.0136614 0.00733071,0.0209961 0.00966535,0.0233307l0.125657 0c0.00233071,-0.00233465 0.00733465,-0.00966929 0.00966535,-0.0223346l0.0226654 -0.124988c0.00566535,-0.0303307 0.0279961,-0.0549961 0.0579961,-0.0629961 0.0486614,-0.013 0.0956575,-0.0326654 0.139323,-0.0576614 0.0266654,-0.0153346 0.0599961,-0.014 0.0853268,0.00366535l0.104327 0.0723268c0.0103346,0.00733465 0.0193307,0.009 0.0223307,0.009l0.0886614 -0.0886575c0,-0.00333465 -0.00166535,-0.012 -0.009,-0.0223346l-0.0723268 -0.104323c-0.0176654,-0.0253346 -0.019,-0.0586614 -0.00366929,-0.0853307 0.0253346,-0.0439921 0.0446614,-0.0906575 0.0576614,-0.139323 0.008,-0.0299961 0.0326654,-0.0523307 0.0629961,-0.0579961l0.124992 -0.0226654c0.0126654,-0.00233071 0.0199961,-0.007 0.0223307,-0.00933071l0 -0.125657c-0.00233071,-0.00233071 -0.00966535,-0.00733465 -0.0223307,-0.00933465l-0.124992 -0.0226614c-0.0303307,-0.00566535 -0.0549961,-0.028 -0.0629961,-0.0579961 -0.013,-0.0486654 -0.0326614,-0.0956614 -0.0576614,-0.139327 -0.0153307,-0.0266614 -0.0139961,-0.0599921 0.00366929,-0.0853268l0.0723268 -0.104327c0.00733465,-0.0103307 0.009,-0.0193307 0.009,-0.0223307l-0.0886614 -0.0896535c-0.003,0 -0.012,0.00166535 -0.0223346,0.009l-0.104323 0.0723268c-0.0253346,0.0176654 -0.0586614,0.019 -0.0853307,0.00366929 -0.0439961,-0.0253346 -0.0906614,-0.0446654 -0.139323,-0.0576654 -0.0299961,-0.00799606 -0.0523307,-0.0326654 -0.0579961,-0.0629961l-0.0226654 -0.124988c-0.00233071,-0.0126654 -0.007,-0.0199961 -0.00933071,-0.0223346l-0.125654 0c-0.00233465,0.00233465 -0.00733465,0.00966929 -0.00933465,0.0223346l-0.0226654 0.124988c-0.00566535,0.0303307 -0.0279961,0.055 -0.0579961,0.0629961 -0.0486614,0.013 -0.0953228,0.0326654 -0.139323,0.0576654 -0.0266654,0.0153307 -0.0599961,0.0139961 -0.0853268,-0.00366929l-0.104327 -0.0723268c-0.0103346,-0.00733465 -0.0193307,-0.009 -0.0223307,-0.009l-0.0893228 0.0886575c0,0.00333465 0.00166535,0.012 0.00899606,0.0223346l0.0723307 0.104323c0.0176654,0.0253346 0.019,0.0586614 0.00366535,0.0853307z"/>
  <path class="fil3" d="M3.40633 3.07236c0.137323,0 0.24898,-0.111657 0.24898,-0.24898 0.000334646,-0.137323 -0.111327,-0.24898 -0.24898,-0.24898 -0.137323,0 -0.24898,0.111657 -0.24898,0.24898 0,0.137323 0.111657,0.24898 0.24898,0.24898z"/>
  <path class="fil3" d="M3.46966 3.75964l-0.126323 0c-0.0829921,0 -0.149988,-0.0616614 -0.166654,-0.153654l-0.0139961 -0.0769961c-0.0283346,-0.00966535 -0.0559961,-0.0213307 -0.0826614,-0.0343307l-0.0643268 0.0446614c-0.0766614,0.0533307 -0.167654,0.0493307 -0.226315,-0.00933071l-0.0893307 -0.0893228c-0.0586614,-0.0586614 -0.0623268,-0.149657 -0.00933071,-0.226315l0.0446614 -0.0643307c-0.013,-0.0269961 -0.0246654,-0.0546614 -0.0343307,-0.0829921l-0.0769961 -0.014c-0.0919921,-0.0166614 -0.153654,-0.0836575 -0.153654,-0.16665l0 -0.125992c0,-0.0829921 0.0616614,-0.149988 0.153654,-0.166654l0.0769961 -0.0139961c0.00966535,-0.0283346 0.0213307,-0.0559961 0.0343307,-0.0826614l-0.0446614 -0.0643268c-0.0533307,-0.0766614 -0.0493307,-0.167657 0.00933071,-0.226315l0.0889921 -0.0889921c0.0586614,-0.0586614 0.149657,-0.0623307 0.226315,-0.00933465l0.0643307 0.0446614c0.0269961,-0.013 0.0546614,-0.0246654 0.0826575,-0.0343307l0.014 -0.0769921c0.0166614,-0.0919921 0.0836575,-0.153657 0.166654,-0.153657l0.125992 -3.93701e-006c0.0829921,0 0.149988,0.0616614 0.166654,0.153654l0.0139961 0.0769961c0.0283346,0.00966535 0.0559961,0.0213307 0.0826614,0.0343307l0.0643268 -0.0446654c0.0766614,-0.0533268 0.167654,-0.0493307 0.226315,0.00933465l0.0893268 0.0889921c0.0586614,0.0586614 0.0623268,0.149654 0.00933465,0.226315l-0.0439961 0.0639961c0.013,0.027 0.0246654,0.0546614 0.0343346,0.0829921l0.0769921 0.014c0.0919921,0.0166614 0.153657,0.0836575 0.153657,0.16665l0 0.125992c0,0.0829921 -0.0616614,0.149988 -0.153657,0.166654l-0.0769921 0.0139961c-0.00966929,0.0283346 -0.0213346,0.0559961 -0.0343346,0.0826614l0.0446654 0.0643307c0.0533268,0.0766575 0.0493307,0.167654 -0.00933465,0.226311l-0.0889921 0.0896693c-0.0586614,0.0586575 -0.149654,0.0623268 -0.226315,0.00933071l-0.0643268 -0.0446614c-0.027,0.013 -0.0546654,0.0246654 -0.0829961,0.0343307l-0.0139961 0.0769921c-0.0166654,0.0916614 -0.0836614,0.153654 -0.166657,0.153654zm-0.55872 0.816276l0.990791 -3.93701e-006c0.00567717,-0.29178 0.0429567,-0.523402 0.113894,-0.705945 0.0693268,-0.178984 0.161654,-0.288976 0.24298,-0.385969 0.129657,-0.154654 0.231984,-0.27698 0.231984,-0.640618 0,-0.597957 -0.486299,-1.08425 -1.08425,-1.08425 -0.597953,0 -1.08425,0.486295 -1.08425,1.08425 0,0.363642 0.102327,0.485965 0.231984,0.640618 0.0813268,0.0969921 0.173319,0.206984 0.24298,0.385969 0.0706339,0.182559 0.108169,0.413929 0.113886,0.705949z"/>
  <path class="fil1" d="M3.63967 5.6465l-0.466669 0c0.0333031,0.0968543 0.125327,0.166657 0.233335,0.166657 0.108008,0 0.200031,-0.0698031 0.233335,-0.166657z"/>
 </g>
</svg>
