<?xml version="1.0" encoding="UTF-8"?>
<!DOCTYPE svg PUBLIC "-//W3C//DTD SVG 1.1//EN" "http://www.w3.org/Graphics/SVG/1.1/DTD/svg11.dtd">
<!-- Creator: CorelDRAW -->
<svg xmlns="http://www.w3.org/2000/svg" xml:space="preserve" width="6.82666in" height="6.82666in" style="shape-rendering:geometricPrecision; text-rendering:geometricPrecision; image-rendering:optimizeQuality; fill-rule:evenodd; clip-rule:evenodd"
viewBox="0 0 6.82666 6.82666"
 xmlns:xlink="http://www.w3.org/1999/xlink">
 <defs>
  <style type="text/css">
   <![CDATA[
    .fil0 {fill:none}
    .fil2 {fill:#333333}
    .fil1 {fill:#CCCCCC}
    .fil3 {fill:#FEC34D}
   ]]>
  </style>
 </defs>
 <rect class="fil0" width="6.82666" height="6.82666"/>
 <g id="Layer_x0020_1">
  <metadata id="CorelCorpID_0Corel-Layer"/>
  <path class="fil1" d="M3.8163 5.16452c-0.000295276,0 -0.000590551,0 -0.00088189,3.93701e-006 0.000295276,0 0.000586614,0 0.00088189,-3.93701e-006zm0.277984 0.287976l0.628539 7.87402e-006c0.00243701,-0.000220472 0.00490551,-0.000334646 0.00740157,-0.000334646 0.00249213,0 0.00495276,0.000114173 0.00738583,0.000334646l0.262929 0c0.0793307,0 0.143992,-0.0646614 0.143992,-0.143988 0,-0.0793307 -0.0646614,-0.143992 -0.143992,-0.143992 0.0790906,0 0.151213,-0.0303386 0.205335,-0.0799921 0.0606063,-0.0555984 0.0986457,-0.135417 0.0986457,-0.22398 0,-0.148752 -0.107323,-0.272846 -0.248626,-0.298933 -0.0179528,-0.00331496 -0.0364528,-0.00504724 -0.0553543,-0.00504724l-0.105878 0 -0.972154 0 -0.106209 0c-0.018315,0 -0.0362559,0.00162598 -0.053689,0.00474409 -0.142122,0.0254134 -0.250287,0.149894 -0.250287,0.299232 0,0.088563 0.0380394,0.168382 0.0986417,0.223984 0.0539213,0.0494685 0.125709,0.0797677 0.204453,0.0799921 -0.0789252,0.000476378 -0.143106,0.0649528 -0.143106,0.143984 0,0.0793307 0.0646614,0.143988 0.143988,0.143988l0.263311 0c0.00241339,-0.000216535 0.0048622,-0.000326772 0.00733465,-0.000326772 0.0024685,0 0.00490945,0.000110236 0.00733858,0.000326772zm0.906256 -0.447961l-1.18424 0c-0.0793268,0 -0.143988,-0.0646575 -0.143988,-0.143988 0,-0.0793268 0.0646614,-0.143988 0.143988,-0.143988l0.0195945 0 0.014811 0 1.12317 0 0.0266614 0c0.0793307,0 0.143992,0.0646614 0.143992,0.143988 0,0.0793307 -0.0646614,0.143988 -0.143992,0.143988z"/>
  <path class="fil1" d="M1.82612 5.16452c-0.000295276,0 -0.000590551,0 -0.00088189,3.93701e-006 0.000295276,0 0.000586614,0 0.00088189,-3.93701e-006zm1.18424 -0.159984l-1.18424 0c-0.0793307,0 -0.143992,-0.0646575 -0.143992,-0.143988 0,-0.0793268 0.0646614,-0.143988 0.143992,-0.143988l0.0266614 0 1.13091 0 0.0266654 0c0.0793268,0 0.143988,0.0646614 0.143988,0.143988 0,0.0793307 -0.0646614,0.143988 -0.143988,0.143988zm-0.105882 -0.447965l-0.971827 0 -0.106531 0c-0.0184331,0 -0.0364843,0.00164567 -0.0540197,0.00480315 -0.141961,0.0255512 -0.249961,0.149953 -0.249961,0.299173 0,0.088563 0.0380394,0.168382 0.0986457,0.223984 0.0539213,0.0494685 0.125709,0.0797677 0.204453,0.0799921 -0.0789291,0.000476378 -0.14311,0.0649528 -0.14311,0.143984 0,0.0793307 0.0646614,0.143988 0.143992,0.143988l0.262972 0c0.00241339,-0.000216535 0.0048622,-0.000326772 0.00733465,-0.000326772 0.0024685,0 0.00490945,0.000110236 0.00733858,0.000326772l0.628539 7.87402e-006c0.00243701,-0.000220472 0.00490551,-0.000334646 0.00740157,-0.000334646 0.00249213,0 0.00495276,0.000114173 0.00738583,0.000334646l0.263268 0c0.0793268,0 0.143988,-0.0646614 0.143988,-0.143988 0,-0.0793307 -0.0646614,-0.143992 -0.143988,-0.143992 0.0790906,0 0.151209,-0.0303386 0.205331,-0.0799921 0.0606063,-0.0555984 0.0986457,-0.135421 0.0986457,-0.22398 0,-0.149228 -0.108004,-0.273638 -0.249972,-0.299181 -0.0175315,-0.00315354 -0.0355787,-0.00479921 -0.0540039,-0.00479921l-0.105882 0z"/>
  <g id="_440881776">
   <g>
    <g id="_512996368">
     <path id="_440884320" class="fil2" d="M2.9837 4.71656c-0.0443307,0 -0.0799921,-0.0356654 -0.0799921,-0.0799921 0,-0.324976 0.0369961,-0.578291 0.112988,-0.774276 0.0683268,-0.176319 0.159323,-0.284646 0.239315,-0.380307 0.0329961,-0.0393307 0.0639961,-0.0763268 0.0919921,-0.116323 0.0253346,-0.0359961 0.0753268,-0.0446614 0.111327,-0.0193307 0.0359961,0.0253307 0.0446614,0.0753268 0.0193307,0.111323 -0.0319961,0.0453307 -0.0666614,0.0866614 -0.100327,0.126657 -0.154654,0.184654 -0.314642,0.375642 -0.314642,1.05159 3.93701e-006,0.0446614 -0.0356614,0.0806614 -0.0799921,0.0806614zm-1.13091 0c-0.0443268,0 -0.0799921,-0.0356654 -0.0799921,-0.0799921 0,-0.675949 -0.159988,-0.866937 -0.314642,-1.05159 -0.0656614,-0.0783307 -0.133657,-0.159323 -0.183654,-0.272315 -0.0556614,-0.125988 -0.0816614,-0.271976 -0.0816614,-0.460295 0,-0.165323 0.0323307,-0.325976 0.0963268,-0.477299 0.0616614,-0.145988 0.149988,-0.27698 0.262646,-0.389634 0.112657,-0.112657 0.24365,-0.200988 0.389638,-0.262646 0.151323,-0.0639961 0.311642,-0.0963268 0.477295,-0.0963268 0.219984,0 0.435634,0.0589921 0.623953,0.170654 0.182654,0.108323 0.334972,0.262976 0.440634,0.447299 0.022,0.0383307 0.00866535,0.0873268 -0.0296654,0.109327 -0.0383307,0.022 -0.0873268,0.00866535 -0.109327,-0.0296654 -0.189654,-0.331307 -0.544287,-0.537291 -0.925594,-0.537291 -0.587622,0 -1.06592,0.477965 -1.06592,1.06592 0,0.357638 0.100657,0.47763 0.228315,0.629953 0.0799961,0.0956575 0.170988,0.203984 0.239315,0.380303 0.0759961,0.195984 0.112992,0.449299 0.112992,0.774276 -0.000669291,0.0433228 -0.0363307,0.0793228 -0.0806614,0.0793228z"/>
    </g>
    <g id="_512996824">
     <path id="_440884416" class="fil2" d="M3.01036 5.61249l-1.18424 0c-0.167654,0 -0.30398,-0.136323 -0.30398,-0.303976 0,-0.167654 0.136327,-0.303976 0.30398,-0.303976 0.0443268,0 0.0799921,0.0356614 0.0799921,0.0799921 0,0.0443268 -0.0356654,0.0799921 -0.0799921,0.0799921 -0.0793307,0 -0.143992,0.0646614 -0.143992,0.143988 0,0.0793307 0.0646614,0.143988 0.143992,0.143988l1.18424 7.87402e-006c0.0793268,0 0.143988,-0.0646614 0.143988,-0.143988 0,-0.0793307 -0.0646614,-0.143992 -0.143988,-0.143992 -0.0443307,0 -0.0799961,-0.0356614 -0.0799961,-0.0799921 0,-0.0443268 0.0356654,-0.0799921 0.0799961,-0.0799921 0.167654,0 0.303976,0.136323 0.303976,0.303976 0,0.167657 -0.136323,0.303972 -0.303976,0.303972z"/>
    </g>
    <g id="_512996872">
     <path id="_440884200" class="fil2" d="M2.41807 5.9338c-0.221319,0 -0.401638,-0.179988 -0.401638,-0.401638 0,-0.0443268 0.0356654,-0.0799921 0.0799921,-0.0799921 0.0443307,0 0.0799961,0.0356654 0.0799961,0.0799921 0,0.133327 0.108323,0.24165 0.241646,0.24165 0.133323,0 0.241646,-0.108327 0.241646,-0.24165 0,-0.0443268 0.0356654,-0.0799921 0.0799921,-0.0799921 0.0443307,0 0.0799961,0.0356654 0.0799961,0.0799921 3.93701e-006,0.22165 -0.17998,0.401638 -0.40163,0.401638z"/>
    </g>
    <g id="_512996296">
     <path id="_440883624" class="fil2" d="M3.01036 5.16453l-1.18424 0c-0.167654,0 -0.30398,-0.136323 -0.30398,-0.303976 0,-0.167654 0.136327,-0.303976 0.30398,-0.303976l1.18424 0c0.167654,0 0.303976,0.136327 0.303976,0.30398 0,0.16765 -0.136323,0.303972 -0.303976,0.303972zm-1.18424 -0.447965c-0.0793307,0 -0.143992,0.0646614 -0.143992,0.143988 0,0.0793307 0.0646614,0.143988 0.143992,0.143988l1.18424 0c0.0793268,0 0.143988,-0.0646575 0.143988,-0.143988 0,-0.0793268 -0.0646614,-0.143988 -0.143988,-0.143988l-1.18424 0z"/>
    </g>
    <g id="_512996464">
     <path id="_440883312" class="fil2" d="M2.41807 1.37648c-0.0443307,0 -0.0799961,-0.0356614 -0.0799961,-0.0799921l0 -0.323646c0,-0.0443268 0.0356654,-0.0799921 0.0799961,-0.0799921 0.0443268,0 0.0799921,0.0356654 0.0799921,0.0799921l0 0.323642c0,0.044 -0.0356654,0.0799961 -0.0799921,0.0799961z"/>
    </g>
    <g id="_512997256">
     <path id="_440883168" class="fil2" d="M1.7208 1.57047c-0.0276654,0 -0.0546654,-0.0143307 -0.0693307,-0.0399961l-0.161654 -0.280311c-0.022,-0.0383307 -0.009,-0.0873268 0.0293307,-0.109327 0.0383307,-0.022 0.0873268,-0.009 0.109327,0.0293307l0.161988 0.280311c0.022,0.0383307 0.009,0.0873268 -0.0293307,0.109327 -0.013,0.00733465 -0.0266654,0.0106654 -0.0403307,0.0106654z"/>
    </g>
    <g id="_512997160">
     <path id="_440883144" class="fil2" d="M1.21383 2.08743c-0.0136654,0 -0.0273346,-0.00333465 -0.04,-0.0106654l-0.280311 -0.161988c-0.0383307,-0.022 -0.0513307,-0.0709921 -0.0293307,-0.109327 0.022,-0.0383268 0.0709961,-0.0513268 0.109327,-0.0293307l0.280311 0.161988c0.0383307,0.022 0.0513307,0.0709961 0.0293307,0.109327 -0.0146654,0.0256654 -0.0416614,0.0399961 -0.0693268,0.0399961z"/>
    </g>
    <g id="_512997376">
     <path id="_440883456" class="fil2" d="M4.97388 4.71656c-0.0443307,0 -0.0799921,-0.0356654 -0.0799921,-0.0799921 0,-0.324976 0.0369961,-0.578291 0.112988,-0.774276 0.0683268,-0.176319 0.159323,-0.284646 0.239315,-0.380307 0.127327,-0.151984 0.228315,-0.272311 0.228315,-0.629953 0,-0.587622 -0.477965,-1.06592 -1.06592,-1.06592 -0.587953,0 -1.06592,0.47863 -1.06592,1.06625 0,0.357642 0.100657,0.477634 0.228319,0.629953 0.0799921,0.0956614 0.170984,0.203984 0.239315,0.380303 0.0759921,0.195988 0.112988,0.449299 0.112988,0.774276 0,0.0443307 -0.0356614,0.0799961 -0.0799921,0.0799961 -0.0443307,0 -0.0799921,-0.0356654 -0.0799921,-0.0799961 0,-0.675945 -0.159988,-0.866933 -0.314642,-1.05159 -0.0656614,-0.0783268 -0.133657,-0.159319 -0.183654,-0.272311 -0.0556614,-0.125988 -0.0816614,-0.271976 -0.0816614,-0.460295 0,-0.165323 0.0323307,-0.325976 0.0963268,-0.477299 0.0616575,-0.145988 0.149988,-0.27698 0.262646,-0.389638 0.112654,-0.112657 0.243646,-0.200984 0.389634,-0.262646 0.151323,-0.0639961 0.311646,-0.0963268 0.477299,-0.0963268 0.165654,0 0.325972,0.0323307 0.477295,0.0963268 0.145988,0.0616614 0.27698,0.149988 0.389638,0.262646 0.112657,0.112657 0.200984,0.24365 0.262646,0.389638 0.0639961,0.151323 0.0963268,0.311642 0.0963268,0.477299 0,0.187984 -0.0259961,0.334307 -0.0816614,0.460295 -0.0499961,0.112992 -0.117992,0.193984 -0.183654,0.272311 -0.154654,0.184654 -0.314642,0.375642 -0.314642,1.05159 -0.00133071,0.0436614 -0.0369961,0.0796614 -0.0813268,0.0796614z"/>
    </g>
    <g id="_512997472">
     <path id="_440882592" class="fil2" d="M5.00054 5.61249l-1.18424 0c-0.167654,0 -0.303976,-0.136323 -0.303976,-0.303976 0,-0.167654 0.136323,-0.303976 0.303976,-0.303976 0.0443307,0 0.0799961,0.0356614 0.0799961,0.0799921 0,0.0443268 -0.0356654,0.0799921 -0.0799961,0.0799921 -0.0793268,0 -0.143988,0.0646614 -0.143988,0.143988 0,0.0793307 0.0646614,0.143988 0.143988,0.143988l1.18424 7.87402e-006c0.0793307,0 0.143992,-0.0646614 0.143992,-0.143988 0,-0.0793307 -0.0646614,-0.143992 -0.143992,-0.143992 -0.0443268,0 -0.0799921,-0.0356614 -0.0799921,-0.0799921 0,-0.0443268 0.0356654,-0.0799921 0.0799921,-0.0799921 0.167654,0 0.30398,0.136323 0.30398,0.303976 0,0.167657 -0.136323,0.303972 -0.30398,0.303972z"/>
    </g>
    <g id="_512996440">
     <path id="_440882688" class="fil2" d="M4.40859 5.9338c-0.221315,0 -0.401634,-0.179988 -0.401634,-0.401638 0,-0.0443268 0.0356614,-0.0799921 0.0799921,-0.0799921 0.0443307,0 0.0799921,0.0356654 0.0799921,0.0799921 0,0.133327 0.108327,0.24165 0.24165,0.24165 0.133319,0 0.241646,-0.108327 0.241646,-0.24165 0,-0.0443268 0.0356654,-0.0799921 0.0799921,-0.0799921 0.0443307,0 0.0799921,0.0356654 0.0799921,0.0799921 -0.000326772,0.22165 -0.180311,0.401638 -0.40163,0.401638z"/>
    </g>
    <g id="_512996080">
     <path id="_440882664" class="fil2" d="M5.00054 5.16453l-1.18424 0c-0.167654,0 -0.303976,-0.136323 -0.303976,-0.303976 0,-0.167654 0.136323,-0.303976 0.303976,-0.303976l1.18424 0c0.167654,0 0.30398,0.136327 0.30398,0.30398 0,0.16765 -0.136323,0.303972 -0.30398,0.303972zm-1.18424 -0.447965c-0.0793268,0 -0.143988,0.0646614 -0.143988,0.143988 0,0.0793307 0.0646614,0.143988 0.143988,0.143988l1.18424 0c0.0793307,0 0.143992,-0.0646575 0.143992,-0.143988 0,-0.0793268 -0.0646614,-0.143988 -0.143992,-0.143988l-1.18424 0z"/>
    </g>
    <g id="_512995768">
     <path id="_440882760" class="fil2" d="M4.40859 1.37648c-0.0443268,0 -0.0799921,-0.0356614 -0.0799921,-0.0799921l0 -0.323646c0,-0.0443268 0.0356654,-0.0799921 0.0799921,-0.0799921 0.0443307,0 0.0799961,0.0356654 0.0799961,0.0799921l0 0.323642c0,0.044 -0.036,0.0799961 -0.0799961,0.0799961z"/>
    </g>
    <g id="_512996128">
     <path id="_440882976" class="fil2" d="M5.10587 1.57047c-0.0136654,0 -0.0273307,-0.00333071 -0.0399961,-0.0106654 -0.0383307,-0.0219961 -0.0513307,-0.0709921 -0.0293307,-0.109323l0.161988 -0.280311c0.0219961,-0.0383307 0.0709921,-0.0513307 0.109327,-0.0293307 0.0383268,0.022 0.0513268,0.0709921 0.0293268,0.109327l-0.161984 0.280311c-0.015,0.0256614 -0.0416654,0.0399921 -0.0693307,0.0399921z"/>
    </g>
    <g id="_512995720">
     <path id="_440882808" class="fil2" d="M5.61283 2.08743c-0.0276654,0 -0.0546614,-0.0143307 -0.0693268,-0.04 -0.022,-0.0383268 -0.009,-0.0873268 0.0293307,-0.109327l0.280311 -0.161984c0.0383307,-0.022 0.0873268,-0.009 0.109327,0.0293307 0.022,0.0383268 0.009,0.0873268 -0.0293307,0.109323l-0.280311 0.161988c-0.0126654,0.00700394 -0.0263307,0.0106693 -0.04,0.0106693z"/>
    </g>
   </g>
  </g>
  <path class="fil3" d="M3.26501 3.313c-0.0556614,-0.125988 -0.0816614,-0.271976 -0.0816614,-0.460295 0,-0.165323 0.0323307,-0.325976 0.0963268,-0.477299 0.0128307,-0.0303819 0.0268189,-0.0601142 0.0419409,-0.0891693 -0.194386,-0.309075 -0.536307,-0.499449 -0.902878,-0.499449 -0.587622,0 -1.06592,0.477965 -1.06592,1.06592 0,0.357638 0.100657,0.47763 0.228315,0.629953 0.0799961,0.0956575 0.170988,0.203984 0.239315,0.380303 0.0695906,0.179465 0.106476,0.407 0.112201,0.69361l0.971827 0c0.0056811,-0.286925 0.0425709,-0.514677 0.112213,-0.69428 0.0683268,-0.176319 0.159323,-0.284646 0.239315,-0.380307 0.0207795,-0.0247677 0.0407677,-0.0486102 0.0597087,-0.0728583 -0.0182126,-0.0295787 -0.035311,-0.0613346 -0.0507047,-0.096126z"/>
  <path class="fil1" d="M2.9837 4.71656l-1.13091 0 -0.0266614 0c-0.0793307,0 -0.143992,0.0646614 -0.143992,0.143988 0,0.0793307 0.0646614,0.143988 0.143992,0.143988l1.18424 0c0.0793268,0 0.143988,-0.0646575 0.143988,-0.143988 0,-0.0793268 -0.0646614,-0.143988 -0.143988,-0.143988l-0.0266654 0z"/>
  <path class="fil1" d="M2.64601 5.61249l-0.455882 0c0.0331535,0.0939134 0.122768,0.161323 0.227941,0.161323 0.105169,0 0.194787,-0.0674094 0.227941,-0.161323z"/>
  <path class="fil1" d="M4.18064 5.61249c0.0331575,0.0939134 0.122772,0.161323 0.227945,0.161323 0.105169,0 0.194783,-0.0674094 0.227941,-0.161323l-0.455886 0z"/>
  <path class="fil1" d="M3.8163 5.00454l1.18424 0c0.0793307,0 0.143992,-0.0646575 0.143992,-0.143988 0,-0.0793268 -0.0646614,-0.143988 -0.143992,-0.143988l-0.0266614 0 -1.12317 0c-0.00243701,0.000220472 -0.00490945,0.000334646 -0.00740551,0.000334646 -0.00249606,0 -0.0049685,-0.000114173 -0.00740551,-0.000334646l-0.0195945 0c-0.0793268,0 -0.143988,0.0646614 -0.143988,0.143988 0,0.0793307 0.0646614,0.143988 0.143988,0.143988z"/>
  <path class="fil3" d="M3.92251 4.55657l0.972154 0c0.0056811,-0.286925 0.0425709,-0.514677 0.112213,-0.69428 0.0683268,-0.176319 0.159323,-0.284646 0.239315,-0.380307 0.127327,-0.151984 0.228315,-0.272311 0.228315,-0.629953 0,-0.587622 -0.477965,-1.06592 -1.06592,-1.06592 -0.393382,0 -0.737524,0.21426 -0.92222,0.532071 -0.00188189,0.0040315 -0.00410236,0.00791732 -0.00664961,0.0116102 -0.0872402,0.154543 -0.137047,0.332878 -0.137047,0.522571 0,0.2615 0.053815,0.395949 0.13265,0.508878 0.00223228,0.00274803 0.00425984,0.00562205 0.00608268,0.00860236 0.0274055,0.0382874 0.0576496,0.0743661 0.0895866,0.112472 0.0799921,0.0956614 0.170984,0.203984 0.239315,0.380303 0.0696142,0.179539 0.106504,0.407177 0.112205,0.693949z"/>
 </g>
</svg>
