<?xml version="1.0" encoding="UTF-8"?>
<!DOCTYPE svg PUBLIC "-//W3C//DTD SVG 1.1//EN" "http://www.w3.org/Graphics/SVG/1.1/DTD/svg11.dtd">
<!-- Creator: CorelDRAW -->
<svg xmlns="http://www.w3.org/2000/svg" xml:space="preserve" width="6.82666in" height="6.82666in" style="shape-rendering:geometricPrecision; text-rendering:geometricPrecision; image-rendering:optimizeQuality; fill-rule:evenodd; clip-rule:evenodd"
viewBox="0 0 6.82666 6.82666"
 xmlns:xlink="http://www.w3.org/1999/xlink">
 <defs>
  <style type="text/css">
   <![CDATA[
    .fil0 {fill:none}
    .fil1 {fill:#00CB77}
    .fil3 {fill:#00DC7F}
    .fil2 {fill:#333333}
    .fil4 {fill:#33DDFE}
   ]]>
  </style>
 </defs>
 <rect class="fil0" width="6.82666" height="6.82666"/>
 <g id="Layer_x0020_1">
  <metadata id="CorelCorpID_0Corel-Layer"/>
  <path class="fil1" d="M3.51928 4.16783c0.000251969,0.00215748 0.000417323,0.00434646 0.000496063,0.00655512 0,1.5748e-005 0,3.14961e-005 3.93701e-006,4.72441e-005 -0.000173228,-0.00220079 -0.000338583,-0.00440157 -0.0005,-0.00660236zm1.98873 -0.429516c-0.174941,-0.0434173 -0.344378,-0.104748 -0.504976,-0.18224 -0.00437008,-0.00166929 -0.00855512,-0.00370866 -0.0125157,-0.00608268 -0.167642,-0.0820039 -0.325508,-0.181669 -0.469768,-0.296976 -0.285646,0.228315 -0.624618,0.394972 -0.98726,0.485299 -0.013,0.0929921 -0.0196614,0.187319 -0.0196614,0.281311 0,0.0496654 0.00183071,0.0990906 0.00544882,0.148205 -0.00464567,-0.0398425 -0.038315,-0.0705472 -0.0794449,-0.0705472l-0.084622 0 -0.337138 0c0.0066063,0.0255748 0.010122,0.0523819 0.010122,0.0799961 0,0.0276142 -0.00351575,0.0544213 -0.010122,0.0799921l0.348685 0 0.0730748 0c0.0439961,0 0.0799921,-0.0356654 0.0799921,-0.0799921 0,-0.000952756 -1.5748e-005,-0.00190157 -4.72441e-005,-0.00284646 0.0501772,0.651654 0.415437,1.2477 1.00097,1.62406 0.631618,-0.405972 1.00693,-1.06759 1.00693,-1.77887 0,-0.0939961 -0.00666929,-0.188319 -0.0196654,-0.281311zm-0.940268 -0.264984c0.224315,0.164984 0.475965,0.287976 0.74861,0.365638 0.0316614,0.009 0.0546614,0.0366654 0.0576614,0.0696614 0.005,0.0539961 0.00766535,0.108657 0.00766535,0.162988 0,0.151988 -0.0193307,0.302976 -0.0579961,0.449299 -0.0373307,0.141992 -0.0926575,0.280311 -0.164654,0.410634 -0.140323,0.25465 -0.345307,0.480965 -0.592622,0.654618 -0.0133268,0.01 -0.0296614,0.0146654 -0.0456614,0.0146654 -0.016,0 -0.0319961,-0.00499606 -0.0459961,-0.0146654 -0.247311,-0.173654 -0.452299,-0.399969 -0.592622,-0.654618 -0.0719921,-0.130323 -0.127323,-0.268642 -0.164654,-0.410634 -0.0383268,-0.146323 -0.0579961,-0.297311 -0.0579961,-0.449299 0,-0.0543307 0.00266535,-0.108992 0.00733465,-0.162988 0.003,-0.0329961 0.0259961,-0.0606614 0.0576654,-0.0696614 0.272646,-0.0776614 0.524291,-0.200654 0.748606,-0.365638 0.0283346,-0.0206654 0.0666614,-0.0206654 0.0946575,0z"/>
  <g id="_440885424">
   <g id="_512996200">
    <path id="_440253168" class="fil2" d="M4.52074 5.97314c-0.0146654,0 -0.0289961,-0.004 -0.0419961,-0.012 -0.338307,-0.207984 -0.620618,-0.491961 -0.815937,-0.821602 -0.0996614,-0.167988 -0.176319,-0.346972 -0.228315,-0.532291 -0.0536654,-0.190984 -0.0806614,-0.388638 -0.0806614,-0.587622 0,-0.120327 0.01,-0.24165 0.0299961,-0.359972 0.00533465,-0.032 0.0296654,-0.0576654 0.0613307,-0.0646614 0.379972,-0.0859921 0.73428,-0.261315 1.02426,-0.50663 0.0296614,-0.0253307 0.0736575,-0.0253307 0.103327,0 0.289976,0.245315 0.644283,0.420638 1.02392,0.50663 0.0316654,0.00733465 0.0559961,0.0326614 0.0613307,0.0646614 0.02,0.118654 0.03,0.239646 0.03,0.359972 0,0.198984 -0.027,0.396969 -0.0806614,0.587622 -0.0519961,0.185319 -0.128657,0.364303 -0.228315,0.532291 -0.195319,0.329642 -0.477634,0.613618 -0.815941,0.821602 -0.0133307,0.008 -0.0276614,0.012 -0.0423307,0.012zm-0.987256 -2.23483c-0.013,0.0929921 -0.0196614,0.187319 -0.0196614,0.281311 0,0.71128 0.375303,1.37289 1.00692,1.77887 0.631618,-0.405972 1.00693,-1.06759 1.00693,-1.77887 0,-0.0939961 -0.00666929,-0.188319 -0.0196654,-0.281311 -0.362638,-0.0899961 -0.701614,-0.25698 -0.98726,-0.485299 -0.285646,0.228315 -0.624618,0.394972 -0.98726,0.485299z"/>
   </g>
   <g id="_512996224">
    <path id="_440252880" class="fil2" d="M4.52074 5.60083c-0.016,0 -0.0319961,-0.00499606 -0.0459961,-0.0146654 -0.247311,-0.173654 -0.452299,-0.399969 -0.592622,-0.654618 -0.0719921,-0.130323 -0.127323,-0.268642 -0.164654,-0.410634 -0.0383268,-0.146323 -0.0579961,-0.297311 -0.0579961,-0.449299 0,-0.0543307 0.00266535,-0.108992 0.00733465,-0.162988 0.003,-0.0329961 0.0259961,-0.0606614 0.0576654,-0.0696614 0.272646,-0.0776614 0.524291,-0.200654 0.748606,-0.365638 0.0283346,-0.0206654 0.0666614,-0.0206654 0.0946575,0 0.224315,0.164984 0.475965,0.287976 0.74861,0.365638 0.0316614,0.009 0.0546614,0.0366654 0.0576614,0.0696614 0.005,0.0539961 0.00766535,0.108657 0.00766535,0.162988 0,0.151988 -0.0193307,0.302976 -0.0579961,0.449299 -0.0373307,0.141992 -0.0926575,0.280311 -0.164654,0.410634 -0.140323,0.25465 -0.345307,0.480965 -0.592622,0.654618 -0.0133268,0.01 -0.0296614,0.0146654 -0.0456614,0.0146654zm-0.69828 -1.62354c-0.00199606,0.0316614 -0.00266535,0.0633268 -0.00266535,0.0946575 0,0.528295 0.25465,1.01726 0.70128,1.35023 0.446299,-0.332976 0.70128,-0.821937 0.70128,-1.35023 0,-0.0313346 -0.001,-0.0629961 -0.00266535,-0.0946575 -0.251315,-0.0776614 -0.485965,-0.191988 -0.69828,-0.340642 -0.212984,0.148654 -0.44763,0.26298 -0.698949,0.340642z"/>
   </g>
   <g id="_512995648">
    <path id="_440253096" class="fil2" d="M3.3805 2.52873l-1.83886 0c-0.222319,0 -0.402972,-0.180654 -0.402972,-0.402969 0,-0.181988 0.122323,-0.339642 0.292976,-0.387972 0.024,-0.0976575 0.0736614,-0.185988 0.145657,-0.258315 0.0703268,-0.0706614 0.155654,-0.120323 0.250311,-0.145323 0.0166654,-0.121657 0.0729961,-0.233984 0.161988,-0.321311 0.104665,-0.102654 0.242988,-0.159315 0.389642,-0.159315l0 0c0.126657,0 0.250646,0.0436614 0.349307,0.122992 0.0803268,0.0646575 0.141323,0.150988 0.17565,0.247311 0.193323,0.0136654 0.365642,0.126992 0.454634,0.298976 0.125654,-0.00533071 0.249311,0.0363307 0.346303,0.118657 0.113323,0.0956575 0.177988,0.235646 0.177988,0.383972 0.000334646,0.277646 -0.225315,0.503295 -0.502626,0.503295zm-1.00126 -1.51522c-0.214315,0 -0.392303,0.174323 -0.396638,0.388303 -0.000665354,0.0389961 -0.0296614,0.0716614 -0.0683268,0.0773268 -0.172984,0.0253346 -0.310642,0.163988 -0.334972,0.336976 -0.005,0.0356614 -0.0333307,0.0636614 -0.0689961,0.0683268 -0.120657,0.0153307 -0.21165,0.118988 -0.21165,0.240984 0,0.133988 0.108992,0.24298 0.242984,0.24298l1.83885 0c0.188988,0 0.342976,-0.153988 0.342976,-0.342976 0,-0.100992 -0.0443307,-0.19665 -0.121327,-0.261646 -0.0773268,-0.0653268 -0.178984,-0.0933268 -0.278976,-0.0763307 -0.0376654,0.00633465 -0.0743268,-0.0146654 -0.0879961,-0.0503268 -0.0613307,-0.159323 -0.216984,-0.261315 -0.387638,-0.254315 -0.0383307,0.00166535 -0.0726614,-0.0243307 -0.0813268,-0.0619921 -0.0416614,-0.180988 -0.20065,-0.307311 -0.386969,-0.307311l0 0z"/>
   </g>
   <g id="_512996920">
    <path id="_283128936" class="fil2" d="M3.3805 2.29075c-0.0443268,0 -0.0799921,-0.0356614 -0.0799921,-0.0799921 0,-0.0443307 0.0356654,-0.0799921 0.0799921,-0.0799921 0.058,0 0.105327,-0.0473307 0.105327,-0.105327 0,-0.0579961 -0.0473268,-0.105327 -0.105327,-0.105327 -0.0443268,0 -0.0799921,-0.0356614 -0.0799921,-0.0799921 0,-0.0443307 0.0356654,-0.0799921 0.0799921,-0.0799921 0.146323,0 0.265315,0.118988 0.265315,0.265311 0,0.146319 -0.118992,0.265311 -0.265315,0.265311zm-1.64487 -0.372638c-0.00366929,0 -0.00733465,-0.000334646 -0.0113346,-0.000669291 -0.0436614,-0.006 -0.0743268,-0.0466614 -0.0679921,-0.0903268 0.0193307,-0.138988 0.129992,-0.250646 0.268976,-0.27098 0.0436654,-0.00633071 0.0843307,0.024 0.0906614,0.0676614 0.00633465,0.0436614 -0.0236654,0.0843268 -0.0676614,0.0906614 -0.0689921,0.01 -0.124323,0.0656614 -0.133988,0.134654 -0.00500394,0.0400039 -0.0393307,0.069 -0.0786614,0.069z"/>
   </g>
   <g id="_512996584">
    <path id="_438201464" class="fil2" d="M3.43983 4.25727l-0.49163 0c-0.0443307,0 -0.0799921,-0.0356654 -0.0799921,-0.0799921 0,-0.0443307 0.0356614,-0.0799961 0.0799921,-0.0799961l0.49163 0c0.0443268,0 0.0799921,0.0356654 0.0799921,0.0799961 0,0.0443268 -0.0359961,0.0799921 -0.0799921,0.0799921zm-0.970925 0l-0.380638 0c-0.0443307,0 -0.0799921,-0.0356654 -0.0799921,-0.0799921l0 -0.624618c0,-0.0443307 0.0356614,-0.0799921 0.0799921,-0.0799921 0.0443268,0 0.0799921,0.0356614 0.0799921,0.0799921l0 0.544622 0.300976 0c0.0443307,0 0.0799961,0.0356654 0.0799961,0.0799961 0,0.0443268 -0.036,0.0799921 -0.0803268,0.0799921zm-0.380638 -1.10391c-0.0443307,0 -0.0799921,-0.0356654 -0.0799921,-0.0799921l0 -0.624622c0,-0.0443307 0.0356614,-0.0799921 0.0799921,-0.0799921 0.0443268,0 0.0799921,0.0356614 0.0799921,0.0799921l0 0.624618c0,0.0439961 -0.0359961,0.0799961 -0.0799921,0.0799961z"/>
   </g>
   <g id="_512996752">
    <path id="_283128744" class="fil2" d="M5.03171 3.56132c-0.0443307,0 -0.0799921,-0.0356654 -0.0799921,-0.0799921l0 -0.685618c0,-0.0443307 0.0356614,-0.0799921 0.0799921,-0.0799921 0.0443307,0 0.0799921,0.0356614 0.0799921,0.0799921l0 0.685614c0,0.044 -0.0356614,0.0799961 -0.0799921,0.0799961zm0 -1.21624c-0.0443307,0 -0.0799921,-0.0356614 -0.0799921,-0.0799921l0 -0.499626 -0.25798 0c-0.0443307,0 -0.0799961,-0.0356654 -0.0799961,-0.0799961 0,-0.0443268 0.0356654,-0.0799921 0.0799961,-0.0799921l0.337972 -3.93701e-006c0.0443307,0 0.0799921,0.0356654 0.0799921,0.0799961l0 0.579622c0,0.0443307 -0.0356614,0.0799921 -0.0799921,0.0799921zm-0.868598 -0.579618l-0.531295 0c-0.0443307,0 -0.0799921,-0.0356654 -0.0799921,-0.0799961 0,-0.0443268 0.0356614,-0.0799921 0.0799921,-0.0799921l0.531295 -3.93701e-006c0.0443268,0 0.0799921,0.0356654 0.0799921,0.0799961 0,0.0439961 -0.0356654,0.0799961 -0.0799921,0.0799961z"/>
   </g>
   <g id="_512997040">
    <path id="_283128792" class="fil2" d="M2.70855 4.49692c-0.176319,0 -0.319642,-0.143323 -0.319642,-0.319642 0,-0.176319 0.143323,-0.319642 0.319642,-0.319642 0.176319,0 0.319642,0.143323 0.319642,0.319642 0,0.176319 -0.143323,0.319642 -0.319642,0.319642zm0 -0.479299c-0.0879921,0 -0.159654,0.0716614 -0.159654,0.159657 0,0.0879921 0.0716614,0.159654 0.159654,0.159654 0.0879961,0 0.159657,-0.0716614 0.159657,-0.159654 0,-0.0879961 -0.0716614,-0.159657 -0.159657,-0.159657z"/>
   </g>
   <g id="_259979624">
    <path id="_283128960" class="fil2" d="M2.08827 3.63265c-0.176319,0 -0.319642,-0.143323 -0.319642,-0.319642 0,-0.176319 0.143323,-0.319642 0.319642,-0.319642 0.176319,0 0.319642,0.143323 0.319642,0.319642 0,0.176319 -0.143657,0.319642 -0.319642,0.319642zm0 -0.479295c-0.0879961,0 -0.159657,0.0716614 -0.159657,0.159654 0,0.0879961 0.0716614,0.159657 0.159657,0.159657 0.0879921,0 0.159654,-0.0716614 0.159654,-0.159657 -0.000334646,-0.0879921 -0.0716614,-0.159654 -0.159654,-0.159654z"/>
   </g>
   <g id="_259980248">
    <path id="_440885616" class="fil2" d="M4.42842 2.03077c-0.190323,0 -0.345307,-0.154988 -0.345307,-0.345307 0,-0.190323 0.154988,-0.345307 0.345307,-0.345307 0.190319,0 0.345307,0.154988 0.345307,0.345307 0,0.190323 -0.154654,0.345307 -0.345307,0.345307zm0 -0.530626c-0.102327,0 -0.185319,0.0829921 -0.185319,0.185319 0,0.102323 0.0829921,0.185319 0.185319,0.185319 0.102323,0 0.185319,-0.0829961 0.185319,-0.185319 0,-0.102327 -0.0829961,-0.185319 -0.185319,-0.185319z"/>
   </g>
   <g id="_512997112">
    <path id="_440885496" class="fil2" d="M5.03171 2.8757c-0.190319,0 -0.345307,-0.154984 -0.345307,-0.345307 0,-0.190319 0.154988,-0.345307 0.345307,-0.345307 0.190319,0 0.345307,0.154988 0.345307,0.345307 0,0.190323 -0.154657,0.345307 -0.345307,0.345307zm0 -0.530626c-0.102327,0 -0.185319,0.0829921 -0.185319,0.185319 0,0.102327 0.0829921,0.185319 0.185319,0.185319 0.102327,0 0.185319,-0.0829921 0.185319,-0.185319 0,-0.101988 -0.0829921,-0.185319 -0.185319,-0.185319z"/>
   </g>
  </g>
  <path class="fil3" d="M5.21969 3.97729c-0.251315,-0.0776614 -0.485965,-0.191988 -0.69828,-0.340642 -0.212984,0.148654 -0.44763,0.26298 -0.698949,0.340642 -0.00199606,0.0316614 -0.00266535,0.0633268 -0.00266535,0.0946575 0,0.528295 0.25465,1.01726 0.70128,1.35023 0.446299,-0.332976 0.70128,-0.821937 0.70128,-1.35023 0,-0.0313346 -0.001,-0.0629961 -0.00266535,-0.0946575z"/>
  <path class="fil3" d="M2.70855 4.33693c0.0879961,0 0.159657,-0.0716614 0.159657,-0.159654 0,-0.0879961 -0.0716614,-0.159657 -0.159657,-0.159657 -0.0859724,0 -0.156354,0.0684094 -0.159539,0.153622 0.000145669,0.00199213 0.000220472,0.00400394 0.000220472,0.00603543 0,0.00202362 -7.48031e-005,0.0040315 -0.000224409,0.00601575 0.00317717,0.0852205 0.0735669,0.153638 0.159543,0.153638z"/>
  <path class="fil3" d="M2.08827 3.47267c0.0879921,0 0.159654,-0.0716614 0.159654,-0.159657 -0.000334646,-0.0879921 -0.0716614,-0.159654 -0.159654,-0.159654 -0.0879961,0 -0.159657,0.0716614 -0.159657,0.159654 0,0.0879961 0.0716614,0.159657 0.159657,0.159657z"/>
  <path class="fil4" d="M1.54165 2.36841l1.83885 0c0.188988,0 0.342976,-0.153988 0.342976,-0.342976 0,-0.100992 -0.0443307,-0.19665 -0.121327,-0.261646 -0.00454724,-0.00384252 -0.00917717,-0.00755118 -0.0138858,-0.0111339 -0.00274409,-0.00177559 -0.00537402,-0.00372047 -0.00787008,-0.00581102 -0.0741102,-0.0531181 -0.166354,-0.0748307 -0.25722,-0.0593858 -0.0376654,0.00633465 -0.0743268,-0.0146654 -0.0879961,-0.0503268 -0.0613307,-0.159323 -0.216984,-0.261315 -0.387638,-0.254315 -0.0383307,0.00166535 -0.0726614,-0.0243307 -0.0813268,-0.0619921 -0.0416614,-0.180988 -0.20065,-0.307311 -0.386969,-0.307311 -0.214315,0 -0.392303,0.174323 -0.396638,0.388303 -0.000665354,0.0389961 -0.0296614,0.0716614 -0.0683268,0.0773268 -0.172984,0.0253346 -0.310642,0.163988 -0.334972,0.336976 -0.005,0.0356614 -0.0333307,0.0636614 -0.0689961,0.0683268 -0.120657,0.0153307 -0.21165,0.118988 -0.21165,0.240984 0,0.133988 0.108992,0.24298 0.242984,0.24298zm1.83885 -0.448299c-0.0443268,0 -0.0799921,-0.0356614 -0.0799921,-0.0799921 0,-0.0443307 0.0356654,-0.0799921 0.0799921,-0.0799921 0.146323,0 0.265315,0.118988 0.265315,0.265311 0,0.146319 -0.118992,0.265311 -0.265315,0.265311 -0.0443268,0 -0.0799921,-0.0356614 -0.0799921,-0.0799921 0,-0.0443307 0.0356654,-0.0799921 0.0799921,-0.0799921 0.058,0 0.105327,-0.0473307 0.105327,-0.105327 0,-0.0579961 -0.0473268,-0.105327 -0.105327,-0.105327zm-1.64487 -0.002c-0.00366929,0 -0.00733465,-0.000334646 -0.0113346,-0.000669291 -0.0436614,-0.006 -0.0743268,-0.0466614 -0.0679921,-0.0903268 0.0193307,-0.138988 0.129992,-0.250646 0.268976,-0.27098 0.0436654,-0.00633071 0.0843307,0.024 0.0906614,0.0676614 0.00633465,0.0436614 -0.0236654,0.0843268 -0.0676614,0.0906614 -0.0689921,0.01 -0.124323,0.0656614 -0.133988,0.134654 -0.00500394,0.0400039 -0.0393307,0.069 -0.0786614,0.069z"/>
  <path class="fil3" d="M4.2431 1.68546c0,0.102323 0.0829921,0.185319 0.185319,0.185319 0.102323,0 0.185319,-0.0829961 0.185319,-0.185319 0,-0.102327 -0.0829961,-0.185319 -0.185319,-0.185319 -0.102327,0 -0.185319,0.0829921 -0.185319,0.185319z"/>
  <path class="fil3" d="M5.03171 2.34508c-0.102327,0 -0.185319,0.0829921 -0.185319,0.185319 0,0.102327 0.0829921,0.185319 0.185319,0.185319 0.102327,0 0.185319,-0.0829921 0.185319,-0.185319 0,-0.101988 -0.0829921,-0.185319 -0.185319,-0.185319z"/>
 </g>
</svg>
