<?xml version="1.0" encoding="UTF-8"?>
<!DOCTYPE svg PUBLIC "-//W3C//DTD SVG 1.1//EN" "http://www.w3.org/Graphics/SVG/1.1/DTD/svg11.dtd">
<!-- Creator: CorelDRAW -->
<svg xmlns="http://www.w3.org/2000/svg" xml:space="preserve" width="6.82666in" height="6.82666in" style="shape-rendering:geometricPrecision; text-rendering:geometricPrecision; image-rendering:optimizeQuality; fill-rule:evenodd; clip-rule:evenodd"
viewBox="0 0 6.82666 6.82666"
 xmlns:xlink="http://www.w3.org/1999/xlink">
 <defs>
  <style type="text/css">
   <![CDATA[
    .fil0 {fill:none}
    .fil1 {fill:#333333}
    .fil2 {fill:#CD0041}
    .fil3 {fill:#E40048}
    .fil4 {fill:white}
   ]]>
  </style>
 </defs>
 <rect class="fil0" width="6.82666" height="6.82666"/>
 <g id="Layer_x0020_1">
  <metadata id="CorelCorpID_0Corel-Layer"/>
  <g id="_440253840">
   <g id="_511903560">
    <path id="_440254392" class="fil1" d="M3.41333 5.5715c-0.291311,0 -0.573957,-0.0569921 -0.839937,-0.16965 -0.25698,-0.108661 -0.487626,-0.264315 -0.685945,-0.462634 -0.198319,-0.198319 -0.353642,-0.428969 -0.462634,-0.685949 -0.112657,-0.265976 -0.169654,-0.548622 -0.169654,-0.839937 0,-0.291311 0.0569961,-0.573957 0.169654,-0.839933 0.108657,-0.25698 0.264315,-0.48763 0.462634,-0.685949 0.198319,-0.198319 0.428965,-0.353972 0.685945,-0.462634 0.26598,-0.112657 0.548626,-0.16965 0.839937,-0.16965 0.291311,0 0.573957,0.0569921 0.839937,0.16965 0.25698,0.108661 0.487626,0.264315 0.685945,0.462634 0.198319,0.198319 0.353976,0.428969 0.462634,0.685949 0.112657,0.265976 0.169654,0.548622 0.169654,0.839933 0,0.291315 -0.0569961,0.573961 -0.169654,0.839937 -0.108657,0.25698 -0.264315,0.48763 -0.462634,0.685949 -0.198319,0.198319 -0.428965,0.353642 -0.685945,0.462634 -0.26598,0.112657 -0.548626,0.16965 -0.839937,0.16965zm0 -4.15635c-1.10191,0 -1.99818,0.896264 -1.99818,1.99818 0,1.10192 0.896268,1.99818 1.99818,1.99818 1.10191,0 1.99818,-0.896264 1.99818,-1.99818 0,-1.10191 -0.896268,-1.99818 -1.99818,-1.99818z"/>
   </g>
   <g>
    <g id="_511903440">
     <path id="_440254344" class="fil1" d="M3.41333 5.06654c-0.21965,0 -0.432634,-0.043 -0.633287,-0.127988 -0.19365,-0.0819961 -0.367634,-0.199323 -0.516961,-0.348642 -0.149319,-0.149323 -0.266646,-0.323311 -0.348642,-0.516965 -0.0849921,-0.20065 -0.127988,-0.413634 -0.127988,-0.633283 0,-0.141657 0.0186654,-0.28298 0.0556614,-0.420969 0.0366654,-0.136992 0.0913268,-0.26898 0.162654,-0.392638 0.0663307,-0.114657 0.213654,-0.153988 0.328307,-0.0876614 0.114661,0.0663268 0.153992,0.21365 0.0873268,0.328307 -0.0496614,0.0859921 -0.0879921,0.178984 -0.113988,0.27598 -0.0256654,0.0963268 -0.039,0.195984 -0.039,0.296642 0,0.305976 0.118992,0.593622 0.335642,0.809941 0.216319,0.216315 0.503961,0.335642 0.809941,0.335642 0.305976,0 0.593618,-0.118992 0.809937,-0.335642 0.216319,-0.216319 0.335642,-0.503965 0.335642,-0.809941 0,-0.100657 -0.013,-0.200315 -0.039,-0.296642 -0.0259961,-0.0969961 -0.0643268,-0.189988 -0.114323,-0.27598 -0.0319961,-0.0553307 -0.0406614,-0.119992 -0.0243307,-0.182319 0.0166614,-0.0619961 0.0563268,-0.113992 0.111657,-0.145988 0.0556614,-0.0319961 0.120323,-0.0406614 0.182319,-0.0243307 0.0619961,0.0166614 0.113992,0.0563268 0.145988,0.111657 0,0 0,0 0,0 0.0713268,0.123657 0.125988,0.25565 0.162654,0.392638 0.037,0.137654 0.0556614,0.279311 0.0556614,0.420969 0,0.21965 -0.0429961,0.432634 -0.127988,0.633287 -0.0819961,0.19365 -0.199319,0.367638 -0.348642,0.516961 -0.149319,0.149323 -0.323307,0.266646 -0.516961,0.348642 -0.199646,0.0853268 -0.41263,0.128323 -0.63228,0.128323zm-1.20024 -2.40015c-0.0276654,0 -0.0546614,0.0143307 -0.0696614,0.0399961 -0.0643307,0.111327 -0.113657,0.230315 -0.146654,0.353976 -0.0333307,0.124323 -0.0499961,0.25198 -0.0499961,0.379299 0,0.391638 0.152654,0.759941 0.429634,1.03726 0.27698,0.27698 0.645287,0.429634 1.03692,0.429634 0.391634,0 0.759941,-0.152654 1.03726,-0.429634 0.276976,-0.27698 0.429634,-0.645283 0.429634,-1.03726 0,-0.127654 -0.017,-0.255311 -0.0499961,-0.379634 -0.0329961,-0.123327 -0.0823268,-0.242315 -0.146654,-0.353972l0 0c-0.0106654,-0.0186693 -0.028,-0.0316654 -0.0486654,-0.0373346 -0.0206654,-0.00566535 -0.0423307,-0.00266535 -0.0609961,0.008 -0.0186654,0.0106654 -0.0316614,0.028 -0.0373307,0.0486614 -0.00566929,0.0206654 -0.00266929,0.0423307 0.00799606,0.0609961 0.0566614,0.0983268 0.100657,0.204319 0.130327,0.314976 0.0293307,0.109657 0.0443268,0.223315 0.0443268,0.337976 0,0.176319 -0.0346614,0.347307 -0.102657,0.508291 -0.0656614,0.155323 -0.159988,0.29498 -0.279646,0.414972 -0.119992,0.119988 -0.259315,0.213984 -0.414972,0.279646 -0.160984,0.0679921 -0.331972,0.102657 -0.508291,0.102657 -0.176319,0 -0.347307,-0.0346614 -0.508291,-0.102657 -0.155323,-0.0656614 -0.29498,-0.159988 -0.414972,-0.279646 -0.119988,-0.119992 -0.213984,-0.259315 -0.279646,-0.414972 -0.0679921,-0.160984 -0.102657,-0.331972 -0.102657,-0.508291 0,-0.114661 0.0149961,-0.228319 0.0443268,-0.337976 0.0296654,-0.110657 0.0733307,-0.216315 0.130327,-0.314642 0.0223307,-0.0383307 0.009,-0.0876614 -0.0289961,-0.109657 -0.0133307,-0.007 -0.0269961,-0.0106654 -0.0406654,-0.0106654z"/>
    </g>
    <g id="_511903368">
     <path id="_440255064" class="fil1" d="M3.41333 3.95195c-0.150323,0 -0.272646,-0.122323 -0.272646,-0.272646l0 -1.29323c0,-0.150323 0.122323,-0.272646 0.272646,-0.272646l0 0c0.150323,0 0.272646,0.122323 0.272646,0.272646l0 1.2929c0,0.150319 -0.122323,0.272976 -0.272646,0.272976zm0 -1.67854c-0.0619961,0 -0.112657,0.0506654 -0.112657,0.112657l0 1.2929c0,0.0623307 0.0506614,0.112657 0.112657,0.112657 0.0623268,0 0.112657,-0.0506614 0.112657,-0.112657l0 -1.2929c0,-0.0619961 -0.0503307,-0.112661 -0.112657,-0.112661l0 0z"/>
    </g>
   </g>
   <g id="_511903488">
    <path id="_440254272" class="fil1" d="M3.41333 5.97313c-0.345642,0 -0.680614,-0.0676614 -0.99626,-0.201319 -0.304972,-0.128988 -0.578622,-0.313642 -0.813602,-0.548626 -0.234984,-0.23498 -0.419638,-0.508961 -0.548626,-0.813606 -0.133657,-0.315307 -0.201315,-0.650614 -0.201315,-0.996256 0,-0.345638 0.0676575,-0.680614 0.201319,-0.996256 0.128988,-0.304976 0.313642,-0.578622 0.548622,-0.813606 0.234984,-0.234984 0.508961,-0.419634 0.813606,-0.548626 0.315642,-0.133654 0.650614,-0.201315 0.996256,-0.201315 0.345642,0 0.680614,0.0676614 0.99626,0.201319 0.304972,0.128988 0.578622,0.313642 0.813602,0.548626 0.234984,0.23498 0.419638,0.508961 0.548626,0.813606 0.133657,0.315642 0.201319,0.650949 0.201319,0.996256 0,0.345642 -0.0676614,0.680614 -0.201319,0.99626 -0.128988,0.304976 -0.313642,0.578622 -0.548626,0.813606 -0.23498,0.234984 -0.508961,0.419634 -0.813602,0.548626 -0.315646,0.13365 -0.650618,0.201311 -0.99626,0.201311zm0 -4.95962c-1.32323,0 -2.39981,1.07658 -2.39981,2.39981 0,1.32324 1.07658,2.39982 2.39981,2.39982 1.32323,0 2.39981,-1.07659 2.39981,-2.39982 0,-1.32323 -1.07658,-2.39981 -2.39981,-2.39981z"/>
   </g>
  </g>
  <path class="fil2" d="M1.88744 1.88744c0.198319,-0.198319 0.428965,-0.353972 0.685945,-0.462634 0.26598,-0.112657 0.548626,-0.16965 0.839937,-0.16965 0.291311,0 0.573957,0.0569921 0.839937,0.16965 0.25698,0.108661 0.487626,0.264315 0.685945,0.462634 0.198319,0.198319 0.353976,0.428969 0.462634,0.685949 0.112657,0.265976 0.169654,0.548622 0.169654,0.839933 0,0.291315 -0.0569961,0.573961 -0.169654,0.839937 -0.108657,0.25698 -0.264315,0.48763 -0.462634,0.685949 -0.198319,0.198319 -0.428965,0.353642 -0.685945,0.462634 -0.26598,0.112657 -0.548626,0.16965 -0.839937,0.16965 -0.291311,0 -0.573957,-0.0569921 -0.839937,-0.16965 -0.25698,-0.108661 -0.487626,-0.264315 -0.685945,-0.462634 -0.198319,-0.198319 -0.353642,-0.428969 -0.462634,-0.685949 -0.112657,-0.265976 -0.169654,-0.548622 -0.169654,-0.839937 0,-0.291311 0.0569961,-0.573957 0.169654,-0.839933 0.108657,-0.25698 0.264315,-0.48763 0.462634,-0.685949zm-0.873933 1.52588c0,1.32324 1.07658,2.39982 2.39981,2.39982 1.32323,0 2.39981,-1.07659 2.39981,-2.39982 0,-1.32323 -1.07658,-2.39981 -2.39981,-2.39981 -1.32323,0 -2.39981,1.07658 -2.39981,2.39981z"/>
  <path class="fil3" d="M3.41333 1.41515c-1.10191,0 -1.99818,0.896264 -1.99818,1.99818 0,1.10192 0.896268,1.99818 1.99818,1.99818 1.10191,0 1.99818,-0.896264 1.99818,-1.99818 0,-1.10191 -0.896268,-1.99818 -1.99818,-1.99818zm-0.272646 2.26416l0 -1.29323c0,-0.150323 0.122323,-0.272646 0.272646,-0.272646 0.150323,0 0.272646,0.122323 0.272646,0.272646l0 1.2929c0,0.150319 -0.122323,0.272976 -0.272646,0.272976 -0.150323,0 -0.272646,-0.122323 -0.272646,-0.272646zm-0.53763 0.569953c0.216319,0.216315 0.503961,0.335642 0.809941,0.335642 0.305976,0 0.593618,-0.118992 0.809937,-0.335642 0.216319,-0.216319 0.335642,-0.503965 0.335642,-0.809941 0,-0.100657 -0.013,-0.200315 -0.039,-0.296642 -0.0259961,-0.0969961 -0.0643268,-0.189988 -0.114323,-0.27598 -0.0319961,-0.0553307 -0.0406614,-0.119992 -0.0243307,-0.182319 0.0166614,-0.0619961 0.0563268,-0.113992 0.111657,-0.145988 0.0556614,-0.0319961 0.120323,-0.0406614 0.182319,-0.0243307 0.0619961,0.0166614 0.113992,0.0563268 0.145988,0.111657 0.0713268,0.123657 0.125988,0.25565 0.162654,0.392638 0.037,0.137654 0.0556614,0.279311 0.0556614,0.420969 0,0.21965 -0.0429961,0.432634 -0.127988,0.633287 -0.0819961,0.19365 -0.199319,0.367638 -0.348642,0.516961 -0.149319,0.149323 -0.323307,0.266646 -0.516961,0.348642 -0.199646,0.0853268 -0.41263,0.128323 -0.63228,0.128323 -0.21965,0 -0.432634,-0.043 -0.633287,-0.127988 -0.19365,-0.0819961 -0.367634,-0.199323 -0.516961,-0.348642 -0.149319,-0.149323 -0.266646,-0.323311 -0.348642,-0.516965 -0.0849921,-0.20065 -0.127988,-0.413634 -0.127988,-0.633283 0,-0.141657 0.0186654,-0.28298 0.0556614,-0.420969 0.0366654,-0.136992 0.0913268,-0.26898 0.162654,-0.392638 0.0663307,-0.114657 0.213654,-0.153988 0.328307,-0.0876614 0.114661,0.0663268 0.153992,0.21365 0.0873268,0.328307 -0.0496614,0.0859921 -0.0879921,0.178984 -0.113988,0.27598 -0.0256654,0.0963268 -0.039,0.195984 -0.039,0.296642 0,0.305976 0.118992,0.593622 0.335642,0.809941z"/>
  <path class="fil4" d="M3.30067 2.38607l0 1.2929c0,0.0623307 0.0506614,0.112657 0.112657,0.112657 0.0623268,0 0.112657,-0.0506614 0.112657,-0.112657l0 -1.2929c0,-0.0619961 -0.0503307,-0.112661 -0.112657,-0.112661 -0.0619961,0 -0.112657,0.0506654 -0.112657,0.112657z"/>
  <path class="fil4" d="M2.15242 3.10135c0.0296654,-0.110657 0.0733307,-0.216315 0.130327,-0.314642 0.0223307,-0.0383307 0.009,-0.0876614 -0.0289961,-0.109657 -0.0133307,-0.007 -0.0269961,-0.0106654 -0.0406654,-0.0106654 -0.0276654,0 -0.0546614,0.0143307 -0.0696614,0.0399961 -0.0643307,0.111327 -0.113657,0.230315 -0.146654,0.353976 -0.0333307,0.124323 -0.0499961,0.25198 -0.0499961,0.379299 0,0.391638 0.152654,0.759941 0.429634,1.03726 0.27698,0.27698 0.645287,0.429634 1.03692,0.429634 0.391634,0 0.759941,-0.152654 1.03726,-0.429634 0.276976,-0.27698 0.429634,-0.645283 0.429634,-1.03726 0,-0.127654 -0.017,-0.255311 -0.0499961,-0.379634 -0.0329961,-0.123327 -0.0823268,-0.242315 -0.146654,-0.353972 -0.0106654,-0.0186693 -0.028,-0.0316654 -0.0486654,-0.0373346 -0.0206654,-0.00566535 -0.0423307,-0.00266535 -0.0609961,0.008 -0.0186654,0.0106654 -0.0316614,0.028 -0.0373307,0.0486614 -0.00566929,0.0206654 -0.00266929,0.0423307 0.00799606,0.0609961 0.0566614,0.0983268 0.100657,0.204319 0.130327,0.314976 0.0293307,0.109657 0.0443268,0.223315 0.0443268,0.337976 0,0.176319 -0.0346614,0.347307 -0.102657,0.508291 -0.0656614,0.155323 -0.159988,0.29498 -0.279646,0.414972 -0.119992,0.119988 -0.259315,0.213984 -0.414972,0.279646 -0.160984,0.0679921 -0.331972,0.102657 -0.508291,0.102657 -0.176319,0 -0.347307,-0.0346614 -0.508291,-0.102657 -0.155323,-0.0656614 -0.29498,-0.159988 -0.414972,-0.279646 -0.119988,-0.119992 -0.213984,-0.259315 -0.279646,-0.414972 -0.0679921,-0.160984 -0.102657,-0.331972 -0.102657,-0.508291 0,-0.114661 0.0149961,-0.228319 0.0443268,-0.337976z"/>
 </g>
</svg>
