<?xml version="1.0" encoding="UTF-8"?>
<!DOCTYPE svg PUBLIC "-//W3C//DTD SVG 1.1//EN" "http://www.w3.org/Graphics/SVG/1.1/DTD/svg11.dtd">
<!-- Creator: CorelDRAW -->
<svg xmlns="http://www.w3.org/2000/svg" xml:space="preserve" width="6.82666in" height="6.82666in" style="shape-rendering:geometricPrecision; text-rendering:geometricPrecision; image-rendering:optimizeQuality; fill-rule:evenodd; clip-rule:evenodd"
viewBox="0 0 6.82666 6.82666"
 xmlns:xlink="http://www.w3.org/1999/xlink">
 <defs>
  <style type="text/css">
   <![CDATA[
    .fil0 {fill:none}
    .fil1 {fill:#0065A3}
    .fil2 {fill:#333333}
    .fil5 {fill:#98EDFE}
    .fil4 {fill:#CD0041}
    .fil3 {fill:#E40048}
   ]]>
  </style>
 </defs>
 <rect class="fil0" width="6.82666" height="6.82666"/>
 <g id="Layer_x0020_1">
  <metadata id="CorelCorpID_0Corel-Layer"/>
  <path class="fil1" d="M5.55002 4.84422l0.184469 0c0.0580472,0 0.105327,0.0472795 0.105327,0.105327 0,0.320531 -0.260776,0.581291 -0.581287,0.581291l-0.958594 0 0 -0.429969c0,-0.0296102 -0.0237205,-0.0533268 -0.0533307,-0.0533268l-1.66654 0c-0.0296102,0 -0.0533307,0.0237165 -0.0533307,0.0533268l0 0.429969 -0.958594 0c-0.320531,0 -0.581291,-0.260776 -0.581291,-0.581287 0,-0.0580472 0.0472795,-0.105327 0.105327,-0.105327l4.45716 -3.93701e-006c0.000173228,0 0.000314961,0 0.000685039,0zm-1.35674 0.309976l0 0.376642 -1.55988 0 0 -0.376642 1.55988 0z"/>
  <g id="_440259096">
   <g id="_511905168">
    <path id="_440261088" class="fil2" d="M5.25852 5.66416l-3.69039 0c-0.190319,0 -0.369303,-0.0746614 -0.504626,-0.209984 -0.135323,-0.135323 -0.209984,-0.314642 -0.209984,-0.50463 0,-0.131657 0.106988,-0.238646 0.238646,-0.238646l0.184323 0 4.27367 0 0.184323 0c0.131657,0 0.238646,0.106988 0.238646,0.238646 0,0.190319 -0.0746614,0.369307 -0.209984,0.50463 -0.135323,0.135323 -0.314307,0.209984 -0.504626,0.209984zm-4.16635 -0.793272c-0.0433307,0 -0.0786614,0.0353307 -0.0786614,0.0786614 0,0.305642 0.24865,0.554622 0.554626,0.554622l3.69039 0c0.305642,0 0.554622,-0.24865 0.554622,-0.554626 0,-0.0433307 -0.0353307,-0.0786614 -0.0786614,-0.0786614l-0.184319 0 -4.27367 3.93701e-006 -0.184323 0z"/>
   </g>
   <g id="_511905504">
    <path id="_440259792" class="fil2" d="M5.55017 4.87089c-0.0443268,0 -0.0799921,-0.0356654 -0.0799921,-0.0799921l0 -2.11884c0,-0.194319 -0.157323,-0.358303 -0.351307,-0.366642l-0.297311 3.93701e-006c-0.0443268,0 -0.0799921,-0.0356614 -0.0799921,-0.0799921 0,-0.0443307 0.0356654,-0.0799921 0.0799921,-0.0799921l0.298976 -3.93701e-006c0.001,0 0.002,0 0.003,0 0.135992,0.00533071 0.263315,0.0626614 0.358638,0.160988 0.0953268,0.0989921 0.147992,0.22865 0.147992,0.365303l0 2.11884c0,0.0446654 -0.0356654,0.0803307 -0.0799961,0.0803307zm-4.27367 0c-0.0443307,0 -0.0799961,-0.0356654 -0.0799961,-0.0799921l0 -2.11884c0,-0.136654 0.0526614,-0.266646 0.147992,-0.365307 0.0953228,-0.0986575 0.22265,-0.155988 0.358638,-0.161319 0.001,0 0.002,0 0.003,0l0.298976 0c0.0443268,0 0.0799921,0.0356654 0.0799921,0.0799921 0,0.0443307 -0.0356654,0.0799921 -0.0799921,0.0799921l-0.297311 3.93701e-006c-0.193984,0.00833465 -0.351307,0.172323 -0.351307,0.366642l0 2.11884c0,0.0443268 -0.0359961,0.0799921 -0.0799921,0.0799921z"/>
   </g>
   <g id="_511905816">
    <path id="_440260392" class="fil2" d="M4.2466 5.66416l-1.66654 0c-0.0443307,0 -0.0799961,-0.0356654 -0.0799961,-0.0799921l0 -0.483299c0,-0.0443268 0.0356654,-0.0799921 0.0799961,-0.0799921l1.66654 0c0.0443307,0 0.0799961,0.0356654 0.0799961,0.0799921l0 0.483299c0,0.0443268 -0.0356654,0.0799921 -0.0799961,0.0799921zm-1.58654 -0.159988l1.50655 0 0 -0.323311 -1.50655 0 0 0.323311z"/>
   </g>
   <g id="_511905240">
    <path id="_440259960" class="fil2" d="M3.41333 4.32226c-0.213319,0 -0.420303,-0.0416614 -0.614953,-0.124327 -0.187984,-0.0796575 -0.356972,-0.193319 -0.502295,-0.338638 -0.145319,-0.145323 -0.25898,-0.313976 -0.338638,-0.502295 -0.0823307,-0.194319 -0.123992,-0.401303 -0.123992,-0.614618 0,-0.213319 0.0416614,-0.420303 0.124323,-0.614957 0.0796614,-0.187984 0.193323,-0.356972 0.338642,-0.502291 0.145319,-0.145323 0.313642,-0.258984 0.501961,-0.338311 0.19465,-0.0826575 0.401634,-0.124323 0.614953,-0.124323 0.213319,0 0.420303,0.0416654 0.614953,0.124327 0.187984,0.0796575 0.356972,0.193319 0.502295,0.338638 0.145319,0.145323 0.25898,0.313976 0.338638,0.502295 0.0823307,0.194984 0.124327,0.401638 0.124327,0.614953 0,0.213319 -0.0416614,0.420303 -0.124327,0.614957 -0.0796575,0.187984 -0.193319,0.356972 -0.338638,0.502291 -0.145323,0.145323 -0.313976,0.25898 -0.502295,0.338642 -0.19465,0.0819961 -0.401634,0.123657 -0.614953,0.123657zm0 -2.99977c-0.782941,0 -1.41989,0.636953 -1.41989,1.41989 0,0.782937 0.636953,1.41989 1.41989,1.41989 0.782941,0 1.41989,-0.636953 1.41989,-1.41989 0,-0.782941 -0.636949,-1.41989 -1.41989,-1.41989z"/>
   </g>
   <g id="_511905192">
    <path id="_440259936" class="fil2" d="M3.41333 4.05561c-0.177319,0 -0.349307,-0.0346614 -0.511291,-0.103327 -0.156323,-0.0659961 -0.29698,-0.160988 -0.417303,-0.281311 -0.120657,-0.120657 -0.215315,-0.26098 -0.281311,-0.417303 -0.0686614,-0.161988 -0.103327,-0.333976 -0.103327,-0.511291 0,-0.177319 0.0346614,-0.349307 0.103327,-0.511295 0.0659961,-0.156323 0.160984,-0.296976 0.281311,-0.417303 0.120657,-0.120657 0.26098,-0.215315 0.417303,-0.281311 0.161984,-0.0686614 0.333972,-0.103327 0.511291,-0.103327 0.177319,0 0.349307,0.0346654 0.511291,0.103327 0.156323,0.0659961 0.29698,0.160988 0.417303,0.281311 0.120327,0.120327 0.215315,0.26098 0.281311,0.417303 0.0686614,0.161988 0.103327,0.333976 0.103327,0.511295 0,0.177315 -0.0346614,0.349303 -0.103327,0.511291 -0.0659961,0.156323 -0.160984,0.296976 -0.281311,0.417303 -0.120657,0.120657 -0.26098,0.215315 -0.417303,0.281311 -0.161984,0.0686614 -0.333972,0.103327 -0.511291,0.103327zm0 -2.46648c-0.635953,0 -1.15324,0.517295 -1.15324,1.15325 0,0.635949 0.517291,1.15324 1.15324,1.15324 0.635953,0 1.15324,-0.517295 1.15324,-1.15324 0,-0.635953 -0.517291,-1.15325 -1.15324,-1.15325z"/>
   </g>
   <g>
    <g id="_511905672">
     <path id="_440259720" class="fil2" d="M3.23268 3.49732c-0.007,0 -0.0136654,-0.001 -0.0206654,-0.00266535 -0.0426654,-0.0113346 -0.0679921,-0.0553307 -0.0566614,-0.0979921l0.361638 -1.3499c0.0113307,-0.0426654 0.0553307,-0.0679961 0.0979921,-0.0566654 0.0426654,0.0113346 0.0679921,0.0553307 0.0566614,0.0979921l-0.361638 1.3499c-0.00966535,0.0356614 -0.0419961,0.0593268 -0.0773268,0.0593268z"/>
    </g>
    <g>
     <g id="_511905480">
      <path id="_440259600" class="fil2" d="M2.9497 3.22801c-0.0203307,0 -0.0409961,-0.00766535 -0.0566614,-0.0233346l-0.426969 -0.426969c-0.0313346,-0.0313307 -0.0313346,-0.0819921 0,-0.112988l0.427299 -0.427303c0.0313307,-0.0313307 0.0819921,-0.0313307 0.112988,0 0.0313346,0.0313307 0.0313346,0.0819961 0,0.112992l-0.370303 0.370638 0.370303 0.370303c0.0313346,0.0313346 0.0313346,0.0819961 0,0.112992 -0.0156614,0.016 -0.0359921,0.0236693 -0.0566575,0.0236693z"/>
     </g>
     <g id="_511905984">
      <path id="_440259216" class="fil2" d="M3.87696 3.22801c-0.0203307,0 -0.0409961,-0.00766535 -0.0566614,-0.0233346 -0.0313307,-0.0313307 -0.0313307,-0.0819921 0,-0.112988l0.370303 -0.370303 -0.370303 -0.370646c-0.0313307,-0.0313307 -0.0313307,-0.0819921 0,-0.112988 0.0313307,-0.0313346 0.0819961,-0.0313346 0.112988,0l0.426972 0.426969c0.0149961,0.015 0.0233307,0.0353307 0.0233307,0.0566614 0,0.0213307 -0.00833465,0.0416614 -0.0233307,0.0566614l-0.426969 0.426634c-0.0153307,0.0156654 -0.0359961,0.0233346 -0.0563307,0.0233346z"/>
     </g>
    </g>
   </g>
  </g>
  <path class="fil3" d="M3.87696 3.22801c-0.0203307,0 -0.0409961,-0.00766535 -0.0566614,-0.0233346 -0.0313307,-0.0313307 -0.0313307,-0.0819921 0,-0.112988l0.370303 -0.370303 -0.370303 -0.370646c-0.0313307,-0.0313307 -0.0313307,-0.0819921 0,-0.112988 0.0313307,-0.0313346 0.0819961,-0.0313346 0.112988,0l0.426972 0.426969c0.0149961,0.015 0.0233307,0.0353307 0.0233307,0.0566614 0,0.0213307 -0.00833465,0.0416614 -0.0233307,0.0566614l-0.426969 0.426634c-0.0153307,0.0156654 -0.0359961,0.0233346 -0.0563307,0.0233346zm-0.644283 0.269311c-0.007,0 -0.0136654,-0.001 -0.0206654,-0.00266535 -0.0426654,-0.0113346 -0.0679921,-0.0553307 -0.0566614,-0.0979921l0.361638 -1.3499c0.0113307,-0.0426654 0.0553307,-0.0679961 0.0979921,-0.0566654 0.0426654,0.0113346 0.0679921,0.0553307 0.0566614,0.0979921l-0.361638 1.3499c-0.00966535,0.0356614 -0.0419961,0.0593268 -0.0773268,0.0593268zm-0.972591 -0.754941c0,0.635949 0.517291,1.15324 1.15324,1.15324 0.635953,0 1.15324,-0.517295 1.15324,-1.15324 0,-0.635953 -0.517291,-1.15325 -1.15324,-1.15325 -0.635953,0 -1.15324,0.517295 -1.15324,1.15325zm0.689614 0.48563c-0.0203307,0 -0.0409961,-0.00766535 -0.0566614,-0.0233346l-0.426969 -0.426969c-0.0313346,-0.0313307 -0.0313346,-0.0819921 0,-0.112988l0.427299 -0.427303c0.0313307,-0.0313307 0.0819921,-0.0313307 0.112988,0 0.0313346,0.0313307 0.0313346,0.0819961 0,0.112992l-0.370303 0.370638 0.370303 0.370303c0.0313346,0.0313346 0.0313346,0.0819961 0,0.112992 -0.0156614,0.016 -0.0359921,0.0236693 -0.0566575,0.0236693z"/>
  <path class="fil4" d="M2.90204 3.95229c-0.156323,-0.0659961 -0.29698,-0.160988 -0.417303,-0.281311 -0.120657,-0.120657 -0.215315,-0.26098 -0.281311,-0.417303 -0.0686614,-0.161988 -0.103327,-0.333976 -0.103327,-0.511291 0,-0.177319 0.0346614,-0.349307 0.103327,-0.511295 0.0659961,-0.156323 0.160984,-0.296976 0.281311,-0.417303 0.120657,-0.120657 0.26098,-0.215315 0.417303,-0.281311 0.161984,-0.0686614 0.333972,-0.103327 0.511291,-0.103327 0.177319,0 0.349307,0.0346654 0.511291,0.103327 0.156323,0.0659961 0.29698,0.160988 0.417303,0.281311 0.120327,0.120327 0.215315,0.26098 0.281311,0.417303 0.0686614,0.161988 0.103327,0.333976 0.103327,0.511295 0,0.177315 -0.0346614,0.349303 -0.103327,0.511291 -0.0659961,0.156323 -0.160984,0.296976 -0.281311,0.417303 -0.120657,0.120657 -0.26098,0.215315 -0.417303,0.281311 -0.161984,0.0686614 -0.333972,0.103327 -0.511291,0.103327 -0.177319,0 -0.349307,-0.0346614 -0.511291,-0.103327zm-0.908598 -1.20991c0,0.782937 0.636953,1.41989 1.41989,1.41989 0.782941,0 1.41989,-0.636953 1.41989,-1.41989 0,-0.782941 -0.636949,-1.41989 -1.41989,-1.41989 -0.782941,0 -1.41989,0.636953 -1.41989,1.41989z"/>
  <path class="fil5" d="M2.79838 4.19793c-0.187984,-0.0796575 -0.356972,-0.193319 -0.502295,-0.338638 -0.145319,-0.145323 -0.25898,-0.313976 -0.338638,-0.502295 -0.0823307,-0.194319 -0.123992,-0.401303 -0.123992,-0.614618 0,-0.149453 0.0204488,-0.295799 0.061122,-0.436972l-0.18678 3.93701e-006c-0.193984,0.00833465 -0.351307,0.172323 -0.351307,0.366642l0 2.03884 4.11369 0 0 -2.03885c0,-0.194319 -0.157323,-0.358303 -0.351307,-0.366642l-0.186732 3.93701e-006c0.040748,0.141339 0.0614094,0.287681 0.0614094,0.437299 0,0.213319 -0.0416614,0.420303 -0.124327,0.614957 -0.0796575,0.187984 -0.193319,0.356972 -0.338638,0.502291 -0.145323,0.145323 -0.313976,0.25898 -0.502295,0.338642 -0.19465,0.0819961 -0.401634,0.123657 -0.614953,0.123657 -0.213319,0 -0.420303,-0.0416614 -0.614953,-0.124327z"/>
 </g>
</svg>
