<?xml version="1.0" encoding="UTF-8"?>
<!DOCTYPE svg PUBLIC "-//W3C//DTD SVG 1.1//EN" "http://www.w3.org/Graphics/SVG/1.1/DTD/svg11.dtd">
<!-- Creator: CorelDRAW -->
<svg xmlns="http://www.w3.org/2000/svg" xml:space="preserve" width="6.82666in" height="6.82666in" style="shape-rendering:geometricPrecision; text-rendering:geometricPrecision; image-rendering:optimizeQuality; fill-rule:evenodd; clip-rule:evenodd"
viewBox="0 0 6.82666 6.82666"
 xmlns:xlink="http://www.w3.org/1999/xlink">
 <defs>
  <style type="text/css">
   <![CDATA[
    .fil0 {fill:none}
    .fil1 {fill:#0065A3}
    .fil2 {fill:#333333}
    .fil4 {fill:#C8F5FE}
    .fil3 {fill:#CCCCCC}
   ]]>
  </style>
 </defs>
 <rect class="fil0" width="6.82666" height="6.82666"/>
 <g id="Layer_x0020_1">
  <metadata id="CorelCorpID_0Corel-Layer"/>
  <path class="fil1" d="M0.98685 1.91044l0 -0.327311c0,-0.141374 0.115272,-0.25665 0.256646,-0.25665l1.37085 0 0.478531 0.583961 -2.10603 0zm0.453295 -0.23865c0.029437,0 0.0533307,-0.0238819 0.0533307,-0.0533307 0,-0.0296102 -0.0237165,-0.0533307 -0.0533307,-0.0533307l-0.128988 3.93701e-006c-0.0296102,0 -0.0533268,0.0237165 -0.0533268,0.0533268 0,0.0296102 0.0237126,0.0533307 0.0533268,0.0533307l0.128988 0zm0.489634 0c0.0294331,0 0.0533268,-0.0238858 0.0533268,-0.0533307 0,-0.0296102 -0.0237165,-0.0533307 -0.0533268,-0.0533307l-0.128657 3.93701e-006c-0.0296102,0 -0.0533268,0.0237165 -0.0533268,0.0533268 0,0.0296102 0.0237126,0.0533307 0.0533268,0.0533307l0.128657 0zm0.48963 0c0.029437,0 0.0533268,-0.0238858 0.0533268,-0.0533307 0,-0.0296102 -0.0237165,-0.0533307 -0.0533268,-0.0533307l-0.128992 3.93701e-006c-0.0296102,0 -0.0533268,0.0237165 -0.0533268,0.0533268 0,0.0296102 0.0237126,0.0533307 0.0533268,0.0533307l0.128992 0zm0.332996 -0.344976l2.84509 0c0.133705,0 0.242315,0.10861 0.242315,0.242315l3.93701e-006 0.341311 -2.60909 0 -0.478319 -0.583626zm2.49445 0.344976c0.0296142,0 0.0533307,-0.0237205 0.0533307,-0.0533307 0,-0.0296102 -0.0237165,-0.0533307 -0.0533307,-0.0533307l-1.47888 3.93701e-006c-0.0296102,0 -0.0533307,0.0237165 -0.0533307,0.0533268 0,0.0296102 0.0237205,0.0533307 0.0533307,0.0533307l1.47888 0z"/>
  <g id="_440261760">
   <g id="_511906608">
    <path id="_440263392" class="fil2" d="M5.58317 5.63349l-4.33967 0c-0.21498,0 -0.389969,-0.174988 -0.389969,-0.389972l0 -3.66038c0,-0.21465 0.174319,-0.389307 0.388969,-0.389972 0.000334646,0 0.000669291,0 0.001,0l1.39589 0c0.0239961,0 0.0466614,0.0106654 0.0619921,0.0293307l0.541965 0.661283 2.6498 0c0.0443307,0 0.0799921,0.0356614 0.0799921,0.0799921l0 3.27975c0,0.214988 -0.174988,0.389972 -0.389969,0.389972zm-4.33867 -4.28034c-0.000330709,0 -0.000665354,0 -0.001,0 -0.126657,0 -0.22998,0.103327 -0.22998,0.229984l0 3.66006c0,0.126657 0.103327,0.22998 0.22998,0.22998l4.33967 3.93701e-006c0.126657,0 0.22998,-0.103327 0.22998,-0.229984l0 -3.19976 -2.6078 0c-0.024,0 -0.0466614,-0.0106654 -0.0619961,-0.0293307l-0.541622 -0.660953 -1.35723 0z"/>
   </g>
   <g id="_511906176">
    <path id="_440262912" class="fil2" d="M3.20535 2.04377l-2.27183 0c-0.0443307,0 -0.0799921,-0.0356654 -0.0799921,-0.0799961 0,-0.0443268 0.0356614,-0.0799921 0.0799921,-0.0799921l2.27183 0c0.0443268,0 0.0799921,0.0356614 0.0799921,0.0799921 0,0.0443268 -0.0356614,0.0799961 -0.0799921,0.0799961z"/>
   </g>
   <g id="_511906200">
    <path id="_440262024" class="fil2" d="M5.89314 2.04377c-0.0443307,0 -0.0799921,-0.0356654 -0.0799921,-0.0799961l-3.93701e-006 -0.394638c0,-0.118988 -0.0966614,-0.21565 -0.21565,-0.21565l-2.95811 0c-0.0443307,0 -0.0799921,-0.0356614 -0.0799921,-0.0799921 0,-0.0443307 0.0356614,-0.0799921 0.0799921,-0.0799921l2.95777 0c0.207319,0 0.375642,0.168654 0.375642,0.375638l0 0.394634c0.000330709,0.0439961 -0.0356654,0.0799961 -0.0796614,0.0799961z"/>
   </g>
   <g id="_511906680">
    <path id="_440262552" class="fil2" d="M5.24685 1.69846l-1.47888 0c-0.0443307,0 -0.0799961,-0.0356654 -0.0799961,-0.0799961 0,-0.0443268 0.0356654,-0.0799921 0.0799961,-0.0799921l1.47888 -3.93701e-006c0.0443307,0 0.0799961,0.0356654 0.0799961,0.0799961 0,0.0443268 -0.0356614,0.0799961 -0.0799961,0.0799961z"/>
   </g>
   <g>
    <g id="_511906512">
     <path id="_440262288" class="fil2" d="M3.51899 5.27219l-0.210984 0c-0.111992,0 -0.202984,-0.0856614 -0.225984,-0.212984l-0.0289961 -0.160654c-0.0653268,-0.0206654 -0.129323,-0.0469961 -0.190319,-0.0789961l-0.134323 0.0929921c-0.0509961,0.0353307 -0.105992,0.0529961 -0.158323,0.0529961 -0.0569921,0 -0.110657,-0.0206654 -0.151984,-0.0619961l-0.149323 -0.149319c-0.0793268,-0.0793307 -0.0829921,-0.203984 -0.00933465,-0.310307l0.0929961 -0.134323c-0.0316654,-0.0609961 -0.0583307,-0.124992 -0.0789961,-0.190323l-0.160654 -0.0289961c-0.127327,-0.0229961 -0.212984,-0.113992 -0.212984,-0.225984l0 -0.210984c0,-0.111992 0.0856575,-0.20265 0.212984,-0.225984l0.160654 -0.0289961c0.0206654,-0.0656614 0.0469961,-0.129323 0.0789961,-0.190323l-0.0929961 -0.134654c-0.0736575,-0.106327 -0.0699921,-0.230984 0.00933465,-0.310311l0.149323 -0.149319c0.0793268,-0.0793307 0.203984,-0.0829921 0.310307,-0.00933465l0.134323 0.0929921c0.0609961,-0.0316614 0.124988,-0.0583268 0.190319,-0.0789921l0.0289961 -0.160654c0.023,-0.127327 0.113992,-0.212984 0.225984,-0.212984l0.210984 0c0.111996,0 0.202984,0.0856575 0.225984,0.212984l0.029 0.160654c0.0656614,0.0206654 0.129323,0.0469961 0.190319,0.0789921l0.134323 -0.0929921c0.106327,-0.0736575 0.23098,-0.0699961 0.310307,0.00933465l0.149323 0.149319c0.0793268,0.0793307 0.0829921,0.203988 0.00933071,0.310311l-0.0929921 0.134323c0.0316614,0.0609961 0.0583307,0.124988 0.0789961,0.190319l0.160654 0.0289961c0.127323,0.023 0.212984,0.113992 0.212984,0.225984l0 0.210984c0,0.111992 -0.0856614,0.20265 -0.212984,0.225984l-0.160654 0.0289961c-0.0206654,0.0653307 -0.0469961,0.129327 -0.0789961,0.190323l0.0929921 0.134323c0.0736614,0.106327 0.0699961,0.23098 -0.00933071,0.310307l-0.149323 0.149323c-0.0793268,0.0793268 -0.203984,0.0829921 -0.310307,0.00933071l-0.134323 -0.0929921c-0.0609961,0.0316614 -0.124988,0.0583307 -0.190319,0.0789961l-0.029 0.160654c-0.0233307,0.127323 -0.113992,0.212984 -0.225984,0.212984zm-0.661618 -0.626622c0.0136654,0 0.0276654,0.00366929 0.04,0.0106654 0.0773268,0.0446654 0.160323,0.0789961 0.24598,0.101992 0.03,0.008 0.0523307,0.0326654 0.0579961,0.0629961l0.0379961 0.209319c0.00233465,0.0136614 0.0173346,0.0816575 0.0686614,0.0816575l0.210984 0c0.0509961,0 0.0659961,-0.0679921 0.0686614,-0.0816575l0.0379961 -0.208984c0.00566929,-0.0303307 0.028,-0.0549961 0.058,-0.0629961 0.0859921,-0.0229961 0.168654,-0.0576614 0.24598,-0.101992 0.0266654,-0.0153346 0.0599961,-0.014 0.0853268,0.00366535l0.174654 0.120992c0.0113346,0.008 0.0699961,0.0453307 0.105996,0.00933465l0.149319 -0.149323c0.0359961,-0.0359961 -0.00133465,-0.0946575 -0.00933071,-0.105992l-0.120992 -0.174988c-0.0176654,-0.0253307 -0.019,-0.0586614 -0.00366929,-0.0853268 0.0446654,-0.0773268 0.0789961,-0.160323 0.101992,-0.245984 0.008,-0.0299961 0.0326654,-0.0523307 0.0629961,-0.0579961l0.209319 -0.0379961c0.0136614,-0.00233071 0.0816575,-0.0173307 0.0816575,-0.0686614l0 -0.210984c0,-0.0509961 -0.0679921,-0.0659961 -0.0816575,-0.0686614l-0.208984 -0.0379961c-0.0303307,-0.00566535 -0.0549961,-0.028 -0.0629961,-0.0579961 -0.0229961,-0.0859921 -0.0573307,-0.168654 -0.101992,-0.24598 -0.0153307,-0.0266654 -0.014,-0.0599961 0.00366535,-0.0853307l0.120992 -0.174654c0.008,-0.0113307 0.0453307,-0.0699961 0.00933465,-0.105992l-0.149323 -0.149323c-0.0359961,-0.0359961 -0.0946575,0.00133465 -0.105992,0.00933465l-0.174988 0.120992c-0.0253307,0.0176654 -0.0586614,0.019 -0.0853268,0.00366535 -0.0773268,-0.0446614 -0.160323,-0.0789921 -0.24598,-0.101992 -0.03,-0.00799606 -0.0523307,-0.0326614 -0.058,-0.0629961l-0.0379961 -0.209315c-0.00233071,-0.0136654 -0.0173307,-0.0816614 -0.0686614,-0.0816614l-0.210984 3.93701e-006c-0.0509961,0 -0.0659921,0.0679921 -0.0686614,0.0816614l-0.0379961 0.209315c-0.00566535,0.0303307 -0.0279961,0.0549961 -0.0579961,0.0629961 -0.0859921,0.0229961 -0.168654,0.0573307 -0.24598,0.101992 -0.0266654,0.0153346 -0.0599961,0.014 -0.0853268,-0.00366535l-0.174988 -0.120992c-0.0113346,-0.008 -0.0699961,-0.0453307 -0.105996,-0.00933465l-0.149319 0.149323c-0.0359961,0.0359961 0.00133465,0.0946575 0.00933071,0.105992l0.120992 0.174988c0.0176654,0.0253307 0.019,0.0586614 0.00366929,0.0853268 -0.0446654,0.0773268 -0.0789961,0.160323 -0.101992,0.245984 -0.008,0.0299961 -0.0326654,0.0523307 -0.0629961,0.0579961l-0.208984 0.0379961c-0.0136654,0.00233071 -0.0816614,0.0173307 -0.0816614,0.0686614l0 0.210984c0,0.0509961 0.0679961,0.0659961 0.0816614,0.0686614l0.208984 0.0379961c0.0303307,0.00566535 0.0549961,0.028 0.0629961,0.0579961 0.0229961,0.0859921 0.0573268,0.168654 0.101992,0.24598 0.0153307,0.0266654 0.0139961,0.0599961 -0.00366929,0.0853307l-0.120992 0.174654c-0.00799606,0.0113307 -0.0453268,0.0699961 -0.00933071,0.105992l0.149319 0.149323c0.036,0.0359961 0.0946614,-0.00133465 0.105996,-0.00933465l0.174988 -0.120992c0.0133307,-0.00966929 0.0293307,-0.0146693 0.0453268,-0.0146693z"/>
    </g>
    <g>
     <g id="_511906272">
      <path id="_440262744" class="fil2" d="M3.23268 4.51358c-0.007,0 -0.0136654,-0.001 -0.0206654,-0.00266535 -0.0426654,-0.0113346 -0.0679921,-0.0553307 -0.0566614,-0.0979921l0.361638 -1.3499c0.0113307,-0.0426654 0.0553307,-0.0679961 0.0979921,-0.0566614 0.0426654,0.0113307 0.0679921,0.0553268 0.0566614,0.0979882l-0.361638 1.3499c-0.00999606,0.0356614 -0.0419961,0.0593268 -0.0773268,0.0593268z"/>
     </g>
     <g>
      <g id="_511906392">
       <path id="_440262120" class="fil2" d="M2.9497 4.24427c-0.0203307,0 -0.0409961,-0.00766535 -0.0566614,-0.0233307l-0.426969 -0.427303c-0.015,-0.015 -0.0233307,-0.0353307 -0.0233307,-0.0566614 0,-0.0213346 0.00833071,-0.0416654 0.0233307,-0.0566654l0.427299 -0.426634c0.0313307,-0.0313307 0.0819921,-0.0313307 0.112988,0 0.0313346,0.0313307 0.0313346,0.0819961 0,0.112992l-0.370303 0.370638 0.370303 0.370303c0.0313346,0.0313346 0.0313346,0.0819961 0,0.112992 -0.0156614,0.016 -0.0359921,0.0236693 -0.0566575,0.0236693z"/>
      </g>
      <g id="_511906824">
       <path id="_440261832" class="fil2" d="M3.87696 4.24427c-0.0203307,0 -0.0409961,-0.00766535 -0.0566614,-0.0233307 -0.0313307,-0.0313346 -0.0313307,-0.0819961 0,-0.112992l0.370303 -0.370303 -0.370303 -0.370976c-0.0313307,-0.0313307 -0.0313307,-0.0819921 0,-0.112988 0.0313307,-0.0313346 0.0819961,-0.0313346 0.112988,0l0.426972 0.426969c0.0313307,0.0313307 0.0313307,0.0819961 0,0.112988l-0.426969 0.427303c-0.0153307,0.0156614 -0.0359961,0.0233307 -0.0563307,0.0233307z"/>
      </g>
     </g>
    </g>
   </g>
   <g>
    <g id="_511903512">
     <path id="_440262000" class="fil2" d="M1.44015 1.69846l-0.128988 0c-0.0443307,0 -0.0799921,-0.0356654 -0.0799921,-0.0799961 0,-0.0443268 0.0356614,-0.0799921 0.0799921,-0.0799921l0.128988 -3.93701e-006c0.0443307,0 0.0799961,0.0356654 0.0799961,0.0799961 0,0.0443268 -0.0359961,0.0799961 -0.0799961,0.0799961z"/>
    </g>
    <g id="_511903008">
     <path id="_440261952" class="fil2" d="M1.92978 1.69846l-0.128657 0c-0.0443307,0 -0.0799921,-0.0356654 -0.0799921,-0.0799961 0,-0.0443268 0.0356614,-0.0799921 0.0799921,-0.0799921l0.128657 -3.93701e-006c0.0443268,0 0.0799921,0.0356654 0.0799921,0.0799961 0,0.0443268 -0.036,0.0799961 -0.0799921,0.0799961z"/>
    </g>
    <g id="_511903176">
     <path id="_440261568" class="fil2" d="M2.41941 1.69846l-0.128992 0c-0.0443307,0 -0.0799921,-0.0356654 -0.0799921,-0.0799961 0,-0.0443268 0.0356614,-0.0799921 0.0799921,-0.0799921l0.128992 -3.93701e-006c0.0443268,0 0.0799921,0.0356654 0.0799921,0.0799961 0,0.0443268 -0.0359961,0.0799961 -0.0799921,0.0799961z"/>
    </g>
   </g>
  </g>
  <path class="fil3" d="M3.308 2.40541c-0.0509961,0 -0.0659921,0.0679921 -0.0686614,0.0816614l-0.0379961 0.209315c-0.00566535,0.0303307 -0.0279961,0.0549961 -0.0579961,0.0629961 -0.0859921,0.0229961 -0.168654,0.0573307 -0.24598,0.101992 -0.0266654,0.0153346 -0.0599961,0.014 -0.0853268,-0.00366535l-0.174988 -0.120992c-0.0113346,-0.008 -0.0699961,-0.0453307 -0.105996,-0.00933465l-0.149319 0.149323c-0.0359961,0.0359961 0.00133465,0.0946575 0.00933071,0.105992l0.120992 0.174988c0.0176654,0.0253307 0.019,0.0586614 0.00366929,0.0853268 -0.0446654,0.0773268 -0.0789961,0.160323 -0.101992,0.245984 -0.008,0.0299961 -0.0326654,0.0523307 -0.0629961,0.0579961l-0.208984 0.0379961c-0.0136654,0.00233071 -0.0816614,0.0173307 -0.0816614,0.0686614l0 0.210984c0,0.0509961 0.0679961,0.0659961 0.0816614,0.0686614l0.208984 0.0379961c0.0303307,0.00566535 0.0549961,0.028 0.0629961,0.0579961 0.0229961,0.0859921 0.0573268,0.168654 0.101992,0.24598 0.0153307,0.0266654 0.0139961,0.0599961 -0.00366929,0.0853307l-0.120992 0.174654c-0.00799606,0.0113307 -0.0453268,0.0699961 -0.00933071,0.105992l0.149319 0.149323c0.036,0.0359961 0.0946614,-0.00133465 0.105996,-0.00933465l0.174988 -0.120992c0.0133307,-0.00966929 0.0293307,-0.0146693 0.0453268,-0.0146693 0.0136654,0 0.0276654,0.00366929 0.04,0.0106654 0.0773268,0.0446654 0.160323,0.0789961 0.24598,0.101992 0.03,0.008 0.0523307,0.0326654 0.0579961,0.0629961l0.0379961 0.209319c0.00233465,0.0136614 0.0173346,0.0816575 0.0686614,0.0816575l0.210984 0c0.0509961,0 0.0659961,-0.0679921 0.0686614,-0.0816575l0.0379961 -0.208984c0.00566929,-0.0303307 0.028,-0.0549961 0.058,-0.0629961 0.0859921,-0.0229961 0.168654,-0.0576614 0.24598,-0.101992 0.0266654,-0.0153346 0.0599961,-0.014 0.0853268,0.00366535l0.174654 0.120992c0.0113346,0.008 0.0699961,0.0453307 0.105996,0.00933465l0.149319 -0.149323c0.0359961,-0.0359961 -0.00133465,-0.0946575 -0.00933071,-0.105992l-0.120992 -0.174988c-0.0176654,-0.0253307 -0.019,-0.0586614 -0.00366929,-0.0853268 0.0446654,-0.0773268 0.0789961,-0.160323 0.101992,-0.245984 0.008,-0.0299961 0.0326654,-0.0523307 0.0629961,-0.0579961l0.209319 -0.0379961c0.0136614,-0.00233071 0.0816575,-0.0173307 0.0816575,-0.0686614l0 -0.210984c0,-0.0509961 -0.0679921,-0.0659961 -0.0816575,-0.0686614l-0.208984 -0.0379961c-0.0303307,-0.00566535 -0.0549961,-0.028 -0.0629961,-0.0579961 -0.0229961,-0.0859921 -0.0573307,-0.168654 -0.101992,-0.24598 -0.0153307,-0.0266654 -0.014,-0.0599961 0.00366535,-0.0853307l0.120992 -0.174654c0.008,-0.0113307 0.0453307,-0.0699961 0.00933465,-0.105992l-0.149323 -0.149323c-0.0359961,-0.0359961 -0.0946575,0.00133465 -0.105992,0.00933465l-0.174988 0.120992c-0.0253307,0.0176654 -0.0586614,0.019 -0.0853268,0.00366535 -0.0773268,-0.0446614 -0.160323,-0.0789921 -0.24598,-0.101992 -0.03,-0.00799606 -0.0523307,-0.0326614 -0.058,-0.0629961l-0.0379961 -0.209315c-0.00233071,-0.0136654 -0.0173307,-0.0816614 -0.0686614,-0.0816614l-0.210984 3.93701e-006zm-0.671949 1.3319l0.370303 0.370303c0.0313346,0.0313346 0.0313346,0.0819961 0,0.112992 -0.0156614,0.016 -0.0359921,0.0236693 -0.0566575,0.0236693 -0.0203307,0 -0.0409961,-0.00766535 -0.0566614,-0.0233307l-0.426969 -0.427303c-0.015,-0.015 -0.0233307,-0.0353307 -0.0233307,-0.0566614 0,-0.0213346 0.00833071,-0.0416654 0.0233307,-0.0566654l0.427299 -0.426634c0.0313307,-0.0313307 0.0819921,-0.0313307 0.112988,0 0.0313346,0.0313307 0.0313346,0.0819961 0,0.112992l-0.370303 0.370638zm0.519295 0.675618l0.361638 -1.3499c0.0113307,-0.0426654 0.0553307,-0.0679961 0.0979921,-0.0566614 0.0426654,0.0113307 0.0679921,0.0553268 0.0566614,0.0979882l-0.361638 1.3499c-0.00999606,0.0356614 -0.0419961,0.0593268 -0.0773268,0.0593268 -0.007,0 -0.0136654,-0.001 -0.0206654,-0.00266535 -0.0426654,-0.0113346 -0.0679921,-0.0553307 -0.0566614,-0.0979921zm0.664949 -0.191984c-0.0313307,-0.0313346 -0.0313307,-0.0819961 0,-0.112992l0.370303 -0.370303 -0.370303 -0.370976c-0.0313307,-0.0313307 -0.0313307,-0.0819921 0,-0.112988 0.0313307,-0.0313346 0.0819961,-0.0313346 0.112988,0l0.426972 0.426969c0.0313307,0.0313307 0.0313307,0.0819961 0,0.112988l-0.426969 0.427303c-0.0153307,0.0156614 -0.0359961,0.0233307 -0.0563307,0.0233307 -0.0203307,0 -0.0409961,-0.00766535 -0.0566614,-0.0233307z"/>
  <path class="fil4" d="M3.08202 2.45774c0.023,-0.127327 0.113992,-0.212984 0.225984,-0.212984l0.210984 0c0.111996,0 0.202984,0.0856575 0.225984,0.212984l0.029 0.160654c0.0656614,0.0206654 0.129323,0.0469961 0.190319,0.0789921l0.134323 -0.0929921c0.106327,-0.0736575 0.23098,-0.0699961 0.310307,0.00933465l0.149323 0.149319c0.0793268,0.0793307 0.0829921,0.203988 0.00933071,0.310311l-0.0929921 0.134323c0.0316614,0.0609961 0.0583307,0.124988 0.0789961,0.190319l0.160654 0.0289961c0.127323,0.023 0.212984,0.113992 0.212984,0.225984l0 0.210984c0,0.111992 -0.0856614,0.20265 -0.212984,0.225984l-0.160654 0.0289961c-0.0206654,0.0653307 -0.0469961,0.129327 -0.0789961,0.190323l0.0929921 0.134323c0.0736614,0.106327 0.0699961,0.23098 -0.00933071,0.310307l-0.149323 0.149323c-0.0793268,0.0793268 -0.203984,0.0829921 -0.310307,0.00933071l-0.134323 -0.0929921c-0.0609961,0.0316614 -0.124988,0.0583307 -0.190319,0.0789961l-0.029 0.160654c-0.0233307,0.127323 -0.113992,0.212984 -0.225984,0.212984l-0.210984 0c-0.111992,0 -0.202984,-0.0856614 -0.225984,-0.212984l-0.0289961 -0.160654c-0.0653268,-0.0206654 -0.129323,-0.0469961 -0.190319,-0.0789961l-0.134323 0.0929921c-0.0509961,0.0353307 -0.105992,0.0529961 -0.158323,0.0529961 -0.0569921,0 -0.110657,-0.0206654 -0.151984,-0.0619961l-0.149323 -0.149319c-0.0793268,-0.0793307 -0.0829921,-0.203984 -0.00933465,-0.310307l0.0929961 -0.134323c-0.0316654,-0.0609961 -0.0583307,-0.124992 -0.0789961,-0.190323l-0.160654 -0.0289961c-0.127327,-0.0229961 -0.212984,-0.113992 -0.212984,-0.225984l0 -0.210984c0,-0.111992 0.0856575,-0.20265 0.212984,-0.225984l0.160654 -0.0289961c0.0206654,-0.0656614 0.0469961,-0.129323 0.0789961,-0.190323l-0.0929961 -0.134654c-0.0736575,-0.106327 -0.0699921,-0.230984 0.00933465,-0.310311l0.149323 -0.149319c0.0793268,-0.0793307 0.203984,-0.0829921 0.310307,-0.00933465l0.134323 0.0929921c0.0609961,-0.0316614 0.124988,-0.0583268 0.190319,-0.0789921l0.0289961 -0.160654zm-1.83852 3.01543l4.33967 3.93701e-006c0.126657,0 0.22998,-0.103327 0.22998,-0.229984l0 -3.19976 -2.6004 0c-0.00243701,0.000220472 -0.00490551,0.000334646 -0.00740157,0.000334646l-2.19183 0 0 3.19942c0,0.126657 0.103327,0.22998 0.22998,0.22998z"/>
 </g>
</svg>
