<?xml version="1.0" encoding="UTF-8"?>
<!DOCTYPE svg PUBLIC "-//W3C//DTD SVG 1.1//EN" "http://www.w3.org/Graphics/SVG/1.1/DTD/svg11.dtd">
<!-- Creator: CorelDRAW -->
<svg xmlns="http://www.w3.org/2000/svg" xml:space="preserve" width="6.82666in" height="6.82666in" style="shape-rendering:geometricPrecision; text-rendering:geometricPrecision; image-rendering:optimizeQuality; fill-rule:evenodd; clip-rule:evenodd"
viewBox="0 0 6.82666 6.82666"
 xmlns:xlink="http://www.w3.org/1999/xlink">
 <defs>
  <style type="text/css">
   <![CDATA[
    .fil0 {fill:none}
    .fil1 {fill:#0065A3}
    .fil2 {fill:#333333}
    .fil3 {fill:#C8F5FE}
   ]]>
  </style>
 </defs>
 <rect class="fil0" width="6.82666" height="6.82666"/>
 <g id="Layer_x0020_1">
  <metadata id="CorelCorpID_0Corel-Layer"/>
  <path class="fil1" d="M4.54058 2.52506c0.0967087,0 0.175319,0.0786102 0.175319,0.175319l0 0.251984 -1.99981 0 -0.350256 -0.427307 2.17474 3.93701e-006zm-1.4149 0.266976l1.14358 0c0.029563,0 0.0536614,-0.0236732 0.0536614,-0.0533268 0,-0.0296063 -0.0237205,-0.0533268 -0.0533268,-0.0533268l-1.14391 0c-0.0296063,0 -0.0533268,0.0237205 -0.0533268,0.0533268 0,0.0296102 0.0237165,0.0533268 0.0533268,0.0533268zm-0.547996 0.160327l-1.59084 0 0 -0.240984c0,-0.102488 0.0833937,-0.186323 0.185984,-0.186323l1.05489 0 0.349969 0.427307zm-0.441594 -0.160327c0.0296102,0 0.0533268,-0.0237165 0.0533268,-0.0533268 0,-0.0296102 -0.0237165,-0.0533268 -0.0533268,-0.0533268l-0.106992 0c-0.0296063,0 -0.0533268,0.0237205 -0.0533268,0.0533268 0,0.0296102 0.0237165,0.0533268 0.0533268,0.0533268l0.106992 0zm-0.812272 0c0.029437,0 0.0533268,-0.023878 0.0533268,-0.0533268 0,-0.0296102 -0.0237165,-0.0533268 -0.0533268,-0.0533268l-0.106988 0c-0.0296102,0 -0.0533307,0.0237165 -0.0533307,0.0533268 0,0.0296142 0.0237205,0.0533268 0.0533307,0.0533268l0.106988 0zm0.406303 0c0.029437,0 0.0533307,-0.023878 0.0533307,-0.0533268 0,-0.0296102 -0.0237205,-0.0533268 -0.0533307,-0.0533268l-0.106992 0c-0.0296102,0 -0.0533268,0.0237165 -0.0533268,0.0533268 0,0.0296102 0.0237165,0.0533268 0.0533268,0.0533268l0.106992 0zm0.380969 -0.647945l0 -0.240984c0,-0.102709 0.0836102,-0.186319 0.186319,-0.186319l1.05421 0 0.350248 0.427299 -1.59078 3.93701e-006zm1.14925 -0.160323c0.029437,0 0.0533268,-0.0238858 0.0533268,-0.0533307 0,-0.0296102 -0.0237126,-0.0533307 -0.0533268,-0.0533307l-0.106992 3.93701e-006c-0.0296063,0 -0.0533268,0.0237165 -0.0533268,0.0533268 0,0.0296102 0.0237165,0.0533307 0.0533268,0.0533307l0.106992 0zm-0.812606 0c0.0296102,0 0.0533307,-0.0237205 0.0533307,-0.0533307 0,-0.0296102 -0.0237165,-0.0533307 -0.0533307,-0.0533307l-0.106988 3.93701e-006c-0.0296102,0 -0.0533307,0.0237165 -0.0533307,0.0533268 0,0.0296102 0.0237205,0.0533307 0.0533307,0.0533307l0.106988 0zm0.406307 0c0.0294331,0 0.0533268,-0.0238858 0.0533268,-0.0533307 0,-0.0296102 -0.0237165,-0.0533307 -0.0533268,-0.0533307l-0.106996 3.93701e-006c-0.0296102,0 -0.0533268,0.0237165 -0.0533268,0.0533268 0,0.0296102 0.0237126,0.0533307 0.0533268,0.0533307l0.106996 0zm0.635717 -0.26698l2.17474 0c0.0967126,0 0.175319,0.0786102 0.175319,0.175323l0 0.251976 -1.99981 0 -0.350248 -0.427299zm0.706512 0.21365c0,0.0296102 0.0237165,0.0533307 0.0533268,0.0533307l1.14391 0c0.029437,0 0.0533268,-0.0238819 0.0533268,-0.0533307 0,-0.0296102 -0.0237126,-0.0533307 -0.0533268,-0.0533307l-1.14391 3.93701e-006c-0.0296063,0 -0.0533268,0.0237165 -0.0533268,0.0533268z"/>
  <g id="_440266368">
   <g id="_507255872">
    <path id="_440252280" class="fil2" d="M4.52925 5.24319l-3.35608 0c-0.176323,0 -0.319642,-0.143323 -0.319642,-0.319642l0 -2.21217c0,-0.176319 0.143319,-0.319642 0.319642,-0.319642 0.000330709,0 0.000330709,0 0.000665354,0l1.07925 0c0.0239961,0 0.0466614,0.0106654 0.0619921,0.0293307l0.413638 0.50463 2.04085 0c0.0443268,0 0.0799921,0.0356614 0.0799921,0.0799921l0 1.91785c-0.000334646,0.176319 -0.143988,0.319642 -0.320307,0.319642zm-3.35641 -2.69146c-0.0879921,0.000334646 -0.159319,0.0719961 -0.159319,0.159657l0 2.21183c0,0.0879961 0.0716614,0.159657 0.159654,0.159657l3.35608 0c0.0879921,0 0.159654,-0.0716614 0.159654,-0.159657l-3.93701e-006 -1.83753 -1.99851 0c-0.024,0 -0.0466614,-0.0106654 -0.0619961,-0.0293307l-0.413299 -0.50463 -1.04192 0c0,0 -0.000334646,0 -0.000334646,0z"/>
   </g>
   <g id="_507255656">
    <path id="_440252544" class="fil2" d="M2.69039 3.08569l-1.75687 0c-0.0443307,0 -0.0799921,-0.0356614 -0.0799921,-0.0799921 0,-0.0443307 0.0356614,-0.0799921 0.0799921,-0.0799921l1.75687 0c0.0443307,0 0.0799921,0.0356614 0.0799921,0.0799921 0,0.0443307 -0.0356614,0.0799921 -0.0799921,0.0799921z"/>
   </g>
   <g id="_507256208">
    <path id="_440251368" class="fil2" d="M4.76923 3.08569c-0.0443307,0 -0.0799921,-0.0356614 -0.0799921,-0.0799921l0 -0.305311c0,-0.0819921 -0.0666654,-0.148654 -0.148654,-0.148654l-2.28783 -3.93701e-006c-0.0443307,0 -0.0799921,-0.0356614 -0.0799921,-0.0799921 0,-0.0443268 0.0356614,-0.0799921 0.0799921,-0.0799921l2.28749 0c0.170319,0 0.308642,0.138323 0.308642,0.308642l0 0.305311c0.000334646,0.0443307 -0.0356614,0.0799921 -0.0796575,0.0799921z"/>
   </g>
   <g id="_507255920">
    <path id="_440251632" class="fil2" d="M4.26926 2.8187l-1.14358 0c-0.0443268,0 -0.0799921,-0.0356614 -0.0799921,-0.0799921 0,-0.0443268 0.0356654,-0.0799921 0.0799921,-0.0799921l1.14391 0c0.0443268,0 0.0799921,0.0356654 0.0799921,0.0799921 0,0.0443307 -0.0359961,0.0799921 -0.0803268,0.0799921z"/>
   </g>
   <g id="_507256352">
    <path id="_440251584" class="fil2" d="M5.65349 4.43492l-0.884264 0c-0.0443307,0 -0.0799921,-0.0356654 -0.0799921,-0.0799921 0,-0.0443307 0.0356614,-0.0799921 0.0799921,-0.0799921l0.884264 0c0.0879961,0 0.159657,-0.0716614 0.159657,-0.159657l-3.93701e-006 -1.83786 -1.99851 0c-0.024,0 -0.0466614,-0.0106614 -0.0619961,-0.0293268l-0.413634 -0.50463 -1.04159 0c-0.0879921,0 -0.159654,0.0716614 -0.159654,0.159654l0 0.568622c0,0.0443307 -0.0356654,0.0799921 -0.0799921,0.0799921 -0.0443307,0 -0.0799921,-0.0356614 -0.0799921,-0.0799921l0 -0.568622c0,-0.176319 0.143319,-0.319642 0.319638,-0.319642l1.07959 0c0.0239961,0 0.0466614,0.0106614 0.0619961,0.0293268l0.413634 0.50463 2.04051 0c0.0443307,0 0.0799921,0.0356654 0.0799921,0.0799961l0 1.91785c0,0.175988 -0.143319,0.319646 -0.319642,0.319646z"/>
   </g>
   <g id="_507256256">
    <path id="_440251800" class="fil2" d="M3.81463 2.27741l-1.7572 0c-0.0443307,0 -0.0799921,-0.0356614 -0.0799921,-0.0799921 0,-0.0443268 0.0356614,-0.0799921 0.0799921,-0.0799921l1.75687 -3.93701e-006c0.0443307,0 0.0799921,0.0356654 0.0799921,0.0799961 0,0.0443268 -0.0356614,0.0799921 -0.0796575,0.0799921z"/>
   </g>
   <g id="_507255992">
    <path id="_440251848" class="fil2" d="M5.89314 2.27741c-0.0443307,0 -0.0799921,-0.0356614 -0.0799921,-0.0799921l0 -0.305307c0,-0.0819961 -0.0666614,-0.148657 -0.148654,-0.148657l-2.2875 0c-0.0443307,0 -0.0799921,-0.0356654 -0.0799921,-0.0799961 0,-0.0443268 0.0356614,-0.0799921 0.0799921,-0.0799921l2.28749 0c0.170319,0 0.308642,0.138323 0.308642,0.308642l0 0.305311c0,0.0439961 -0.0356614,0.0799921 -0.0799921,0.0799921z"/>
   </g>
   <g id="_507256496">
    <path id="_440250792" class="fil2" d="M5.39351 2.01044l-1.14391 0c-0.0443268,0 -0.0799921,-0.0356654 -0.0799921,-0.0799961 0,-0.0443268 0.0356654,-0.0799921 0.0799921,-0.0799921l1.14391 -3.93701e-006c0.0443307,0 0.0799921,0.0356654 0.0799921,0.0799961 0,0.0443268 -0.0359921,0.0799961 -0.0799921,0.0799961z"/>
   </g>
   <g>
    <g id="_507256520">
     <path id="_440251248" class="fil2" d="M2.64606 4.93021c-0.007,0 -0.0136614,-0.001 -0.0206654,-0.00266535 -0.0426614,-0.0113307 -0.0679921,-0.0553307 -0.0566614,-0.0979921l0.410303 -1.53155c0.0113307,-0.0426614 0.0553307,-0.0679921 0.0979921,-0.0566614 0.0426614,0.0113346 0.0679921,0.0553307 0.0566614,0.0979921l-0.410303 1.53155c-0.00966535,0.0356614 -0.0419961,0.0593268 -0.0773268,0.0593268z"/>
    </g>
    <g>
     <g id="_507256544">
      <path id="_440251176" class="fil2" d="M2.32541 4.62491c-0.0203307,0 -0.0409961,-0.00766535 -0.0566614,-0.0233307l-0.484299 -0.484634c-0.0149961,-0.015 -0.0233307,-0.0353307 -0.0233307,-0.0566614 0,-0.0213307 0.00833465,-0.0416654 0.0233307,-0.0566614l0.48463 -0.48463c0.0313307,-0.0313307 0.0819961,-0.0313307 0.112992,0 0.0313307,0.0313307 0.0313307,0.0819961 0,0.112992l-0.427965 0.428299 0.427965 0.427965c0.0313346,0.0313346 0.0313346,0.0819961 0,0.112992 -0.0156654,0.0156654 -0.0363307,0.0236693 -0.0566614,0.0236693z"/>
     </g>
     <g id="_507256616">
      <path id="_440251128" class="fil2" d="M3.37733 4.62491c-0.0203307,0 -0.0409961,-0.00766535 -0.0566614,-0.0233307 -0.0313346,-0.0313346 -0.0313346,-0.0819961 0,-0.112992l0.427965 -0.427969 -0.427965 -0.428303c-0.0313346,-0.0313307 -0.0313346,-0.0819921 0,-0.112988 0.0313307,-0.0313346 0.0819921,-0.0313346 0.112988,0l0.48463 0.484626c0.0149961,0.015 0.0233307,0.0353307 0.0233307,0.0566654 0,0.0213307 -0.00833465,0.0416614 -0.0233307,0.0566614l-0.48463 0.48463c-0.0153307,0.0149961 -0.0359961,0.023 -0.0563268,0.023z"/>
     </g>
    </g>
   </g>
   <g>
    <g id="_507256712">
     <path id="_440250768" class="fil2" d="M1.32382 2.8187l-0.106988 0c-0.0443307,0 -0.0799961,-0.0356614 -0.0799961,-0.0799921 0,-0.0443268 0.0356654,-0.0799921 0.0799961,-0.0799921l0.106988 0c0.0443307,0 0.0799921,0.0356654 0.0799921,0.0799921 0,0.0443307 -0.0359961,0.0799921 -0.0799921,0.0799921z"/>
    </g>
    <g id="_507256688">
     <path id="_440266656" class="fil2" d="M1.73013 2.8187l-0.106992 0c-0.0443307,0 -0.0799921,-0.0356614 -0.0799921,-0.0799921 0,-0.0443268 0.0356614,-0.0799921 0.0799921,-0.0799921l0.106992 0c0.0443307,0 0.0799961,0.0356654 0.0799961,0.0799921 0,0.0443307 -0.036,0.0799921 -0.0799961,0.0799921z"/>
    </g>
    <g id="_507256976">
     <path id="_440266344" class="fil2" d="M2.13609 2.8187l-0.106992 0c-0.0443268,0 -0.0799921,-0.0356614 -0.0799921,-0.0799921 0,-0.0443268 0.0356654,-0.0799921 0.0799921,-0.0799921l0.106992 0c0.0443307,0 0.0799921,0.0356654 0.0799921,0.0799921 0,0.0443307 -0.0356614,0.0799921 -0.0799921,0.0799921z"/>
    </g>
   </g>
   <g>
    <g id="_507257144">
     <path id="_440266056" class="fil2" d="M2.44774 2.01044l-0.106988 0c-0.0443307,0 -0.0799961,-0.0356654 -0.0799961,-0.0799961 0,-0.0443268 0.0356654,-0.0799921 0.0799961,-0.0799921l0.106988 -3.93701e-006c0.0443307,0 0.0799961,0.0356654 0.0799961,0.0799961 0,0.0443268 -0.0356654,0.0799961 -0.0799961,0.0799961z"/>
    </g>
    <g id="_507257600">
     <path id="_440266488" class="fil2" d="M2.85404 2.01044l-0.106996 0c-0.0443307,0 -0.0799921,-0.0356654 -0.0799921,-0.0799961 0,-0.0443268 0.0356614,-0.0799921 0.0799921,-0.0799921l0.106996 -3.93701e-006c0.0443268,0 0.0799921,0.0356654 0.0799921,0.0799961 0,0.0443268 -0.036,0.0799961 -0.0799921,0.0799961z"/>
    </g>
    <g id="_507257312">
     <path id="_440265864" class="fil2" d="M3.26034 2.01044l-0.106992 0c-0.0443268,0 -0.0799921,-0.0356654 -0.0799921,-0.0799961 0,-0.0443268 0.0356654,-0.0799921 0.0799921,-0.0799921l0.106992 -3.93701e-006c0.0443307,0 0.0799921,0.0356654 0.0799921,0.0799961 0,0.0443268 -0.0359961,0.0799961 -0.0799921,0.0799961z"/>
    </g>
   </g>
  </g>
  <path class="fil3" d="M2.69039 3.08569l-1.67687 0 0 1.83753c0,0.0879961 0.0716614,0.159657 0.159654,0.159657l3.35608 0c0.0879921,0 0.159654,-0.0716614 0.159654,-0.159657l-3.93701e-006 -1.83753 -1.99851 0zm-0.421303 0.433303c0.0313307,-0.0313307 0.0819961,-0.0313307 0.112992,0 0.0313307,0.0313307 0.0313307,0.0819961 0,0.112992l-0.427965 0.428299 0.427965 0.427965c0.0313346,0.0313346 0.0313346,0.0819961 0,0.112992 -0.0156654,0.0156654 -0.0363307,0.0236693 -0.0566614,0.0236693 -0.0203307,0 -0.0409961,-0.00766535 -0.0566614,-0.0233307l-0.484299 -0.484634c-0.0149961,-0.015 -0.0233307,-0.0353307 -0.0233307,-0.0566614 0,-0.0213307 0.00833465,-0.0416654 0.0233307,-0.0566614l0.48463 -0.48463zm0.299646 1.31057l0.410303 -1.53155c0.0113307,-0.0426614 0.0553307,-0.0679921 0.0979921,-0.0566614 0.0426614,0.0113346 0.0679921,0.0553307 0.0566614,0.0979921l-0.410303 1.53155c-0.00966535,0.0356614 -0.0419961,0.0593268 -0.0773268,0.0593268 -0.007,0 -0.0136614,-0.001 -0.0206654,-0.00266535 -0.0426614,-0.0113307 -0.0679921,-0.0553307 -0.0566614,-0.0979921zm0.751945 -0.22798c-0.0313346,-0.0313346 -0.0313346,-0.0819961 0,-0.112992l0.427965 -0.427969 -0.427965 -0.428303c-0.0313346,-0.0313307 -0.0313346,-0.0819921 0,-0.112988 0.0313307,-0.0313346 0.0819921,-0.0313346 0.112988,0l0.48463 0.484626c0.0149961,0.015 0.0233307,0.0353307 0.0233307,0.0566654 0,0.0213307 -0.00833465,0.0416614 -0.0233307,0.0566614l-0.48463 0.48463c-0.0153307,0.0149961 -0.0359961,0.023 -0.0563268,0.023 -0.0203307,0 -0.0409961,-0.00766535 -0.0566614,-0.0233307z"/>
  <path class="fil3" d="M3.81463 2.27741l-1.67687 0 0 0.114327 0.114992 0 0.000334646 0 2.28716 0c0.170319,0 0.308642,0.138323 0.308642,0.308642l0 0.294866c0.000440945,0.00341732 0.000669291,0.00690157 0.000669291,0.0104449l0 1.26924 0.803937 0c0.0879961,0 0.159657,-0.0716614 0.159657,-0.159657l-3.93701e-006 -1.83786 -1.99851 0z"/>
 </g>
</svg>
