<?xml version="1.0" encoding="UTF-8"?>
<!DOCTYPE svg PUBLIC "-//W3C//DTD SVG 1.1//EN" "http://www.w3.org/Graphics/SVG/1.1/DTD/svg11.dtd">
<!-- Creator: CorelDRAW -->
<svg xmlns="http://www.w3.org/2000/svg" xml:space="preserve" width="6.82666in" height="6.82666in" style="shape-rendering:geometricPrecision; text-rendering:geometricPrecision; image-rendering:optimizeQuality; fill-rule:evenodd; clip-rule:evenodd"
viewBox="0 0 6.82666 6.82666"
 xmlns:xlink="http://www.w3.org/1999/xlink">
 <defs>
  <style type="text/css">
   <![CDATA[
    .fil0 {fill:none}
    .fil1 {fill:#00DC7F}
    .fil2 {fill:#333333}
    .fil3 {fill:#33DDFE}
    .fil5 {fill:#E40048}
    .fil4 {fill:#FEF274}
   ]]>
  </style>
 </defs>
 <rect class="fil0" width="6.82666" height="6.82666"/>
 <g id="Layer_x0020_1">
  <metadata id="CorelCorpID_0Corel-Layer"/>
  <path class="fil1" d="M2.88504 3.07369c0.000527559,-0.000354331 0.00105906,-0.000704724 0.00159449,-0.00104724 -0.00053937,0.000338583 -0.00107087,0.000685039 -0.00159449,0.00104724zm-0.0356614 -0.354634l0 -0.544295 -1.56488 0c-0.0893268,0 -0.161988,0.0726614 -0.161988,0.161988l0 1.57722 0.347961 -3.93701e-006c-0.0415236,-0.0698622 -0.064311,-0.150535 -0.064311,-0.234311 0,-0.252984 0.20565,-0.458634 0.458634,-0.458634 0.25298,0 0.45863,0.20565 0.45863,0.458634 0,0.0837756 -0.0227874,0.164453 -0.064315,0.234315l0.590272 -3.93701e-006 0 -0.773606c7.08661e-005,0.0152717 0.00449606,0.0306969 0.0136654,0.0443268 0.0385276,0.0574882 0.0887441,0.104516 0.146319,0.138807 0.069937,0.0416496 0.15074,0.0645118 0.23465,0.0645118 0.25265,0 0.458303,-0.20565 0.458634,-0.458626 0,-0.25298 -0.205984,-0.45863 -0.458634,-0.45863 -0.0839094,0 -0.164713,0.0228583 -0.23465,0.0645118 -0.0575748,0.0342874 -0.107791,0.081315 -0.146319,0.138803 -0.0243346,0.0366654 -0.0146654,0.0863268 0.0219961,0.110992 0.0366654,0.0243307 0.0863268,0.0146654 0.110992,-0.022 0.000629921,-0.000937008 0.00126772,-0.00187008 0.00190551,-0.00279528 -0.0139724,0.0232008 -0.0393937,0.0387913 -0.0685669,0.0387913 -0.0443307,0 -0.0799921,-0.0356654 -0.0799921,-0.0799921z"/>
  <g id="_285536696">
   <g>
    <g id="_507257528">
     <path id="_285538544" class="fil2" d="M4.57457 5.97313l-3.29008 0c-0.177654,0 -0.321976,-0.144323 -0.321976,-0.321976l3.93701e-006 -3.31441c0,-0.177654 0.144323,-0.321976 0.321976,-0.321976l1.64487 3.93701e-006c0.0443307,0 0.0799921,0.0356614 0.0799921,0.0799921 0,0.0443268 -0.0356614,0.0799921 -0.0799921,0.0799921l-1.64487 0c-0.0893268,0 -0.161988,0.0726614 -0.161988,0.161988l0 3.31408c0,0.0893268 0.0726614,0.161988 0.161988,0.161988l3.29008 0c0.0893268,0 0.161988,-0.0726614 0.161988,-0.161988l0 -1.65687c0,-0.0443268 0.0356654,-0.0799921 0.0799961,-0.0799921 0.0443268,0 0.0799921,0.0356654 0.0799921,0.0799921l0 1.65721c0,0.177319 -0.144657,0.321976 -0.321976,0.321976z"/>
    </g>
    <g>
     <g id="_507257672">
      <path id="_285538688" class="fil2" d="M2.92937 4.07394c-0.0443307,0 -0.0799921,-0.0356614 -0.0799921,-0.0799921l0 -0.853602c0,-0.0443307 0.0356614,-0.0799921 0.0799921,-0.0799921 0.0443307,0 0.0799921,0.0356614 0.0799921,0.0799921l0 0.853598c3.93701e-006,0.0443346 -0.0356614,0.0799961 -0.0799921,0.0799961zm0 -1.2749c-0.0443307,0 -0.0799921,-0.0356654 -0.0799921,-0.0799921l0 -0.624287c0,-0.0443307 0.0356614,-0.0799921 0.0799921,-0.0799921 0.0443307,0 0.0799921,0.0356614 0.0799921,0.0799921l0 0.624287c3.93701e-006,0.0439921 -0.0356614,0.0799921 -0.0799921,0.0799921z"/>
     </g>
     <g id="_507257552">
      <path id="_285537848" class="fil2" d="M3.24401 3.388c-0.152988,0 -0.295642,-0.0759961 -0.380969,-0.203319 -0.0246654,-0.0366614 -0.015,-0.0863228 0.0219961,-0.110992 0.0366654,-0.0246654 0.0863268,-0.0149961 0.110992,0.022 0.0556614,0.0829921 0.148323,0.132327 0.24798,0.132327 0.164654,0 0.298646,-0.133992 0.298646,-0.298646 0,-0.164654 -0.133992,-0.298642 -0.298646,-0.298642 -0.0996575,0 -0.192319,0.0496614 -0.24798,0.132323 -0.0246654,0.0366654 -0.0743268,0.0463307 -0.110992,0.022 -0.0366614,-0.0246654 -0.0463307,-0.0743268 -0.0219961,-0.110992 0.0853268,-0.127323 0.22798,-0.203315 0.380969,-0.203315 0.25265,0 0.458634,0.20565 0.458634,0.45863 -0.000330709,0.252976 -0.205984,0.458626 -0.458634,0.458626z"/>
     </g>
    </g>
    <g>
     <g id="_507257624">
      <path id="_285537272" class="fil2" d="M4.81656 4.07394l-0.611957 0c-0.0443268,0 -0.0799921,-0.0356614 -0.0799921,-0.0799921 0,-0.0443307 0.0356654,-0.0799921 0.0799921,-0.0799921l0.611957 -3.93701e-006c0.0443268,0 0.0799921,0.0356654 0.0799921,0.0799921 0,0.0443307 -0.036,0.0799961 -0.0799921,0.0799961zm-1.03326 0l-0.853937 0c-0.0443307,0 -0.0799921,-0.0356614 -0.0799921,-0.0799921 0,-0.0443307 0.0356614,-0.0799921 0.0799921,-0.0799921l0.853937 -3.93701e-006c0.0443307,0 0.0799921,0.0356654 0.0799921,0.0799921 0,0.0443307 -0.0359961,0.0799961 -0.0799921,0.0799961z"/>
     </g>
     <g id="_507257720">
      <path id="_285537488" class="fil2" d="M3.99395 4.76689c-0.252984,0 -0.458634,-0.20565 -0.458634,-0.45863 0,-0.152988 0.0759961,-0.295642 0.203319,-0.380972 0.0366654,-0.0246654 0.0863268,-0.015 0.110992,0.022 0.0246654,0.0366654 0.015,0.0863268 -0.022,0.110992 -0.0829921,0.0556614 -0.132323,0.148323 -0.132323,0.24798 0,0.164654 0.133988,0.298642 0.298642,0.298642 0.164654,0 0.298642,-0.133988 0.298642,-0.298642 0,-0.0996614 -0.0496614,-0.192319 -0.132323,-0.24798 -0.0366654,-0.0246654 -0.0463307,-0.0743268 -0.022,-0.110992 0.0246654,-0.0366654 0.0743268,-0.0463307 0.110992,-0.022 0.127327,0.0853307 0.203319,0.227984 0.203319,0.380972 -0.000326772,0.25298 -0.20598,0.45863 -0.458626,0.45863z"/>
     </g>
    </g>
    <g>
     <g id="_507257696">
      <path id="_285537608" class="fil2" d="M2.92937 5.97313c-0.0443307,0 -0.0799921,-0.0356654 -0.0799921,-0.0799921l0 -0.624287c0,-0.0443307 0.0356614,-0.0799921 0.0799921,-0.0799921 0.0443307,0 0.0799921,0.0356614 0.0799921,0.0799921l3.93701e-006 0.624287c0,0.0443268 -0.0356654,0.0799921 -0.0799961,0.0799921zm0 -1.04559c-0.0443307,0 -0.0799921,-0.0356654 -0.0799921,-0.0799921l0 -0.853606c0,-0.0443268 0.0356614,-0.0799921 0.0799921,-0.0799921 0.0443307,0 0.0799921,0.0356654 0.0799921,0.0799921l0 0.853602c3.93701e-006,0.0443307 -0.0356614,0.0799961 -0.0799921,0.0799961z"/>
     </g>
     <g id="_507258320">
      <path id="_285537440" class="fil2" d="M2.61506 5.51683c-0.252984,0 -0.458634,-0.20565 -0.458634,-0.45863 0,-0.25265 0.20565,-0.458634 0.458634,-0.458634 0.152988,0 0.295642,0.0759961 0.380969,0.203319 0.0246654,0.0366614 0.015,0.0863268 -0.022,0.110992 -0.0366614,0.0246654 -0.0863228,0.0149961 -0.110988,-0.022 -0.0556614,-0.0829921 -0.148327,-0.132327 -0.24798,-0.132327 -0.164654,0 -0.298646,0.133992 -0.298646,0.298646 0,0.164654 0.133992,0.298642 0.298646,0.298642 0.0996575,0 0.192319,-0.0496614 0.24798,-0.132323 0.0246654,-0.0366654 0.0743268,-0.0463307 0.110988,-0.022 0.0366654,0.0246654 0.0463346,0.0743268 0.022,0.110992 -0.0856575,0.127331 -0.22798,0.203323 -0.380969,0.203323z"/>
     </g>
    </g>
    <g>
     <g id="_507258248">
      <path id="_285536600" class="fil2" d="M2.92937 4.07394l-0.853602 0c-0.0443268,0 -0.0799921,-0.0356614 -0.0799921,-0.0799921 0,-0.0443307 0.0356654,-0.0799921 0.0799921,-0.0799921l0.853602 -3.93701e-006c0.0443307,0 0.0799921,0.0356654 0.0799921,0.0799921 0,0.0443307 -0.0356614,0.0799961 -0.0799921,0.0799961zm-1.2749 0l-0.611953 0c-0.0443307,0 -0.0799921,-0.0356614 -0.0799921,-0.0799921 0,-0.0443307 0.0356614,-0.0799921 0.0799921,-0.0799921l0.611953 -3.93701e-006c0.0443307,0 0.0799961,0.0356654 0.0799961,0.0799921 0,0.0443307 -0.036,0.0799961 -0.0799961,0.0799961z"/>
     </g>
     <g id="_507258056">
      <path id="_285536528" class="fil2" d="M2.07576 4.07394c-0.0256614,0 -0.0509961,-0.0123307 -0.0666614,-0.0353268 -0.0246654,-0.0366654 -0.0149961,-0.0863268 0.022,-0.110992 0.0829921,-0.0556614 0.132323,-0.148327 0.132323,-0.24798 0,-0.164654 -0.133988,-0.298646 -0.298642,-0.298646 -0.164654,0 -0.298642,0.133992 -0.298642,0.298646 0,0.0996575 0.0496614,0.192319 0.132323,0.24798 0.0366654,0.0246654 0.0463307,0.0743268 0.022,0.110992 -0.0246654,0.0366614 -0.0743268,0.0463307 -0.110992,0.0219961 -0.127327,-0.0853268 -0.203319,-0.22798 -0.203319,-0.380969 0,-0.252984 0.20565,-0.458634 0.458634,-0.458634 0.25298,0 0.45863,0.20565 0.45863,0.458634 0,0.152988 -0.0759961,0.295642 -0.203315,0.380969 -0.0133386,0.00899606 -0.0290039,0.0133307 -0.0443386,0.0133307z"/>
     </g>
    </g>
    <g id="_507258128">
     <path id="_285537032" class="fil2" d="M4.96154 3.60565c-0.25298,0 -0.45863,-0.20565 -0.45863,-0.458634 0,-0.0839921 0.0229961,-0.164654 0.0643307,-0.23465l-0.669949 0c-0.0443307,0 -0.0799921,-0.0356614 -0.0799921,-0.0799921l-3.93701e-006 -0.853272c0,-0.0353307 0.0229961,-0.0663268 0.0566614,-0.0766575 0.0336654,-0.0103346 0.0699961,0.00266535 0.0896614,0.0319961 0.0556614,0.0829921 0.148323,0.132323 0.24798,0.132323 0.164654,0 0.298642,-0.133988 0.298642,-0.298642 0,-0.164654 -0.133988,-0.298646 -0.298642,-0.298646 -0.0996614,0 -0.192319,0.0496614 -0.24798,0.132327 -0.0196654,0.0293307 -0.0559961,0.0423307 -0.0896614,0.0319961 -0.0336654,-0.0103346 -0.0566614,-0.0413307 -0.0566614,-0.0766614l0 -0.623622c0,-0.0443268 0.0356654,-0.0799921 0.0799921,-0.0799921l1.64488 0c0.177654,0 0.321976,0.144323 0.321976,0.321976l0 1.65721c0,0.0213307 -0.00833071,0.0416614 -0.0233307,0.0566614 -0.015,0.0149961 -0.0353307,0.0233307 -0.0566614,0.0233307l-0.428634 0c0.0416614,0.0699961 0.0643268,0.150654 0.0643268,0.23465 0.000330709,0.252646 -0.205319,0.458299 -0.458303,0.458299zm-0.984256 -0.852937l0.77361 0c0.0353268,0 0.0663268,0.0229961 0.0766575,0.0566614 0.0103346,0.0336654 -0.00266535,0.0699961 -0.0319961,0.0896575 -0.0829921,0.0556614 -0.132323,0.148327 -0.132323,0.24798 0,0.164654 0.133988,0.298646 0.298642,0.298646 0.164654,0 0.298642,-0.133992 0.298642,-0.298646 0,-0.0996575 -0.0496614,-0.192319 -0.132323,-0.24798 -0.0293307,-0.0196614 -0.0423307,-0.0559921 -0.0319961,-0.0896575 0.0103346,-0.0336654 0.0413307,-0.0566614 0.0766575,-0.0566614l0.531965 0 0 -1.57721c0,-0.0893268 -0.0726614,-0.161988 -0.161988,-0.161988l-1.56555 0 0 0.360642c0.0699961,-0.0416654 0.150657,-0.0643307 0.23465,-0.0643307 0.252984,0 0.458634,0.20565 0.458634,0.45863 0,0.252984 -0.20565,0.458634 -0.458634,0.458634 -0.0839921,0 -0.164654,-0.0229961 -0.23465,-0.0643307l0 0.589957z"/>
    </g>
   </g>
  </g>
  <path class="fil3" d="M3.97729 2.75271l0.77361 0c0.0353268,0 0.0663268,0.0229961 0.0766575,0.0566614 0.0103346,0.0336654 -0.00266535,0.0699961 -0.0319961,0.0896575 -0.0829921,0.0556614 -0.132323,0.148327 -0.132323,0.24798 0,0.164654 0.133988,0.298646 0.298642,0.298646 0.164654,0 0.298642,-0.133992 0.298642,-0.298646 0,-0.0996575 -0.0496614,-0.192319 -0.132323,-0.24798 -0.0293307,-0.0196614 -0.0423307,-0.0559921 -0.0319961,-0.0896575 0.0103346,-0.0336654 0.0413307,-0.0566614 0.0766575,-0.0566614l0.531965 0 0 -1.57721c0,-0.0893268 -0.0726614,-0.161988 -0.161988,-0.161988l-1.56555 0 0 0.360642c0.0699961,-0.0416654 0.150657,-0.0643307 0.23465,-0.0643307 0.252984,0 0.458634,0.20565 0.458634,0.45863 0,0.252984 -0.20565,0.458634 -0.458634,0.458634 -0.0839921,0 -0.164654,-0.0229961 -0.23465,-0.0643307l0 0.589957z"/>
  <path class="fil4" d="M2.84937 4.07394l-0.77361 0c-0.0137323,0 -0.0273701,-0.0035315 -0.0394803,-0.0103346 -0.0105236,-0.00591339 -0.0198976,-0.0142992 -0.0271811,-0.0249921 -0.0213465,-0.0317323 -0.0169764,-0.0732008 0.00856693,-0.0997717 3.54331e-005,-3.93701e-005 7.48031e-005,-7.48031e-005 0.000110236,-0.000114173 0.00485827,-0.00510236 0.0103937,-0.00956299 0.0164567,-0.0132362 0.0810984,-0.055878 0.129189,-0.147457 0.129189,-0.24585 0,-0.164654 -0.133988,-0.298646 -0.298642,-0.298646 -0.164654,0 -0.298642,0.133992 -0.298642,0.298646 0,0.0972087 0.047252,0.187764 0.126291,0.243811 0.0250669,0.0134764 0.0420276,0.0399252 0.0420276,0.0704921 0,0.0413701 -0.0313504,0.0751929 -0.0712953,0.0795276 -3.54331e-005,3.93701e-006 -7.08661e-005,7.87402e-006 -0.000110236,1.1811e-005 -0.00416929,0.000480315 -0.00837795,0.000633858 -0.0125906,0.000456693l-0.527961 0 0 1.57688c0,0.0893268 0.0726614,0.161988 0.161988,0.161988l1.56488 0 0 -0.36037c-0.0698583,0.0415787 -0.150484,0.0643937 -0.234315,0.0643937 -0.252984,0 -0.458634,-0.20565 -0.458634,-0.45863 0,-0.25265 0.20565,-0.458634 0.458634,-0.458634 0.0837756,0 0.164453,0.0227874 0.234315,0.064315l0 -0.589941z"/>
  <path class="fil5" d="M3.00936 4.07394l0 0.766528c0.00197244,0.0225315 -0.0057126,0.0453543 -0.0219016,0.0621929 -0.0145551,0.0153425 -0.0351654,0.0248819 -0.0580906,0.0248819 -0.0299843,0 -0.056,-0.016315 -0.0697008,-0.0405906 -0.0559882,-0.0800157 -0.146941,-0.127402 -0.244606,-0.127402 -0.164654,0 -0.298646,0.133992 -0.298646,0.298646 0,0.164654 0.133992,0.298642 0.298646,0.298642 0.0977126,0 0.188701,-0.0477441 0.244681,-0.127524 0.0137205,-0.0242008 0.0396969,-0.0404567 0.069626,-0.0404567 0.0391142,0 0.0714764,0.0277598 0.0785551,0.0647441 1.1811e-005,6.69291e-005 2.75591e-005,0.000137795 3.93701e-005,0.000204724 0.00118504,0.00614173 0.00166142,0.0124213 0.00139764,0.0187047l3.93701e-006 0.540295 1.56521 0c0.0893268,0 0.161988,-0.0726614 0.161988,-0.161988l0 -1.57688 -0.348295 0c0.0415236,0.0698622 0.064311,0.150539 0.064311,0.234315 -0.000326772,0.25298 -0.20598,0.45863 -0.458626,0.45863 -0.252984,0 -0.458634,-0.20565 -0.458634,-0.45863 0,-0.0837756 0.0227874,-0.164453 0.064315,-0.234315l-0.590276 0z"/>
 </g>
</svg>
