<?xml version="1.0" encoding="UTF-8"?>
<!DOCTYPE svg PUBLIC "-//W3C//DTD SVG 1.1//EN" "http://www.w3.org/Graphics/SVG/1.1/DTD/svg11.dtd">
<!-- Creator: CorelDRAW -->
<svg xmlns="http://www.w3.org/2000/svg" xml:space="preserve" width="6.82666in" height="6.82666in" style="shape-rendering:geometricPrecision; text-rendering:geometricPrecision; image-rendering:optimizeQuality; fill-rule:evenodd; clip-rule:evenodd"
viewBox="0 0 6.82666 6.82666"
 xmlns:xlink="http://www.w3.org/1999/xlink">
 <defs>
  <style type="text/css">
   <![CDATA[
    .fil0 {fill:none}
    .fil2 {fill:#333333}
    .fil4 {fill:#E40048}
    .fil3 {fill:#FEB045}
    .fil1 {fill:#FEC34D}
   ]]>
  </style>
 </defs>
 <rect class="fil0" width="6.82666" height="6.82666"/>
 <g id="Layer_x0020_1">
  <metadata id="CorelCorpID_0Corel-Layer"/>
  <path class="fil1" d="M3.02654 3.842c0.00648819,-0.00173228 0.013311,-0.00266929 0.0203504,-0.0027126 -0.00414961,2.3622e-005 -0.00799213,0.000370079 -0.0115276,0.00133465l-0.00882283 0.00137795zm0.748492 -0.00251181c-4.33071e-005,-3.93701e-006 -8.26772e-005,-7.87402e-006 -0.000125984,-1.1811e-005 -0.00185039,-0.000125984 -0.00371654,-0.000188976 -0.00559843,-0.000188976 -0.0443307,0 -0.0799921,0.0356654 -0.0799921,0.0799961l0 0.1675 0 0.743433c0,0.0443268 0.0356614,0.0799921 0.0799921,0.0799921 0.044,0 0.0799961,-0.0356654 0.0799921,-0.0796614l0 -0.817622 0 -0.0936417c0,-0.0389173 -0.0274803,-0.0711535 -0.064185,-0.0784488l-0.00347638 -0.000543307c-0.00220079,-0.000362205 -0.00440551,-0.000629921 -0.0066063,-0.00080315zm-0.680547 0.0150551c-0.0137638,-0.00981496 -0.0304409,-0.0152559 -0.047122,-0.0152559 0.0176496,0 0.0339252,0.00565354 0.047122,0.0152559zm0.31385 0.253055l0.310642 -0.250646c0.0159252,-0.0129173 0.0359134,-0.0190669 0.0560551,-0.0174646 0.0034252,0.000240157 0.00679134,0.000692913 0.0100827,0.00134646l0.391157 0.0611142 0.143657 -0.372638c0.00799606,-0.021 0.0246654,-0.0376614 0.0459961,-0.0459961l0.372638 -0.143657 -0.0616614 -0.394634c-0.00333071,-0.0223346 0.00266929,-0.0449961 0.0166654,-0.0626614l0.250646 -0.310642 -0.250646 -0.310642c-0.0143307,-0.0176654 -0.0203307,-0.0403346 -0.0166654,-0.0626654l0.0616614 -0.394634 -0.372638 -0.143654c-0.021,-0.008 -0.0376614,-0.0246654 -0.0459961,-0.046l-0.143657 -0.372638 -0.394634 0.0616614c-0.0223346,0.00333071 -0.0449961,-0.00266929 -0.0626614,-0.0166654l-0.310642 -0.250646 -0.310642 0.250646c-0.0176654,0.0143307 -0.0403346,0.0203307 -0.0626614,0.0166654l-0.394638 -0.0616614 -0.143654 0.372969c-0.008,0.021 -0.0246654,0.0376614 -0.046,0.046l-0.372638 0.143654 0.0619961 0.394634c0.00333465,0.0223346 -0.00266535,0.045 -0.0166614,0.0626654l-0.25065 0.310642 0.25065 0.310642c0.0143307,0.0176654 0.0203307,0.0403307 0.0166614,0.0626614l-0.0616614 0.394638 0.372638 0.143654c0.021,0.008 0.0376614,0.0246654 0.0459961,0.046l0.143657 0.372638 0.385811 -0.0602835c-0.0341614,0.00911417 -0.0591693,0.0401614 -0.0591693,0.0772835l0 0.0936417 0 0.817291c0,0.0443268 0.0356614,0.0799921 0.0799921,0.0799921 0.0439961,0 0.0799921,-0.0356654 0.0799921,-0.0796614l0 -0.743764 0 -0.1675c0,-0.0266811 -0.0129173,-0.0502244 -0.0328701,-0.0647402 0.00108661,0.000775591 0.00215748,0.00157874 0.00320866,0.00240945l0.310642 0.250646zm0 -0.434965c-0.148654,0 -0.292642,-0.0289961 -0.428299,-0.0866614 -0.130988,-0.0553307 -0.248646,-0.134654 -0.349638,-0.23598 -0.100992,-0.100992 -0.180319,-0.21865 -0.23598,-0.349638 -0.0573307,-0.135657 -0.0866614,-0.27998 -0.0866614,-0.428303 0,-0.148319 0.0289961,-0.292642 0.0866614,-0.428299 0.0553307,-0.130988 0.134654,-0.248646 0.23598,-0.349638 0.100992,-0.100992 0.21865,-0.180323 0.349638,-0.23598 0.135657,-0.0573307 0.27998,-0.0866614 0.428299,-0.0866614 0.148654,0 0.292646,0.0289961 0.428303,0.0866614 0.130988,0.0553268 0.248646,0.134654 0.349638,0.23598 0.100992,0.100992 0.180319,0.21865 0.23598,0.349638 0.0573307,0.135657 0.0866614,0.27998 0.0866614,0.428299 0,0.148323 -0.029,0.292646 -0.0866614,0.428303 -0.0553307,0.130988 -0.134657,0.248646 -0.23598,0.349638 -0.100992,0.100992 -0.21865,0.180319 -0.349638,0.23598 -0.135657,0.0573307 -0.27998,0.0866614 -0.428303,0.0866614z"/>
  <g id="_285539312">
   <g>
    <g id="_507258704">
     <path id="_285541040" class="fil2" d="M3.40833 4.29059c-0.0176654,0 -0.0356614,-0.006 -0.0503268,-0.0176654l-0.333311 -0.26898 -0.423299 0.0663307c-0.0373307,0.00566535 -0.0733307,-0.015 -0.0869921,-0.0503307l-0.154323 -0.399969 -0.399638 -0.154323c-0.0349961,-0.0136654 -0.0559961,-0.0496614 -0.0503307,-0.0869961l0.0663307 -0.423299 -0.26898 -0.333311c-0.0236654,-0.0293307 -0.0236654,-0.0713268 0,-0.100327l0.26898 -0.333307 -0.0663307 -0.423303c-0.006,-0.0373307 0.015,-0.0733268 0.0503307,-0.0869921l0.399638 -0.154319 0.154323 -0.399634c0.0136614,-0.035 0.0496614,-0.0559961 0.0869921,-0.0503307l0.423299 0.0663307 0.333311 -0.26898c0.0293307,-0.0236654 0.0713268,-0.0236654 0.100327,0l0.333307 0.26898 0.423303 -0.0663307c0.0373307,-0.006 0.0733268,0.015 0.0869921,0.0503307l0.154323 0.399634 0.399638 0.154323c0.0349961,0.0136654 0.0559961,0.0496654 0.0503307,0.0869961l-0.0663307 0.423299 0.26898 0.333311c0.0236614,0.0293307 0.0236614,0.0713268 0,0.100327l-0.26898 0.333307 0.0663307 0.423303c0.00566535,0.0373307 -0.015,0.0733307 -0.0503307,0.0869921l-0.399642 0.154319 -0.153992 0.399969c-0.0136614,0.0349961 -0.0496614,0.0559961 -0.0869921,0.0503307l-0.423303 -0.0663307 -0.333307 0.26898c-0.0149961,0.0116654 -0.0326614,0.0176654 -0.0503268,0.0176654zm-0.360972 -0.451299c0.018,0 0.0359961,0.00633465 0.0503307,0.0176654l0.310642 0.250646 0.310642 -0.250646c0.0176654,-0.0143307 0.0403307,-0.0203307 0.0626614,-0.0166614l0.394634 0.0616575 0.143657 -0.372638c0.00799606,-0.021 0.0246654,-0.0376614 0.0459961,-0.0459961l0.372638 -0.143657 -0.0616614 -0.394634c-0.00333071,-0.0223346 0.00266929,-0.0449961 0.0166654,-0.0626614l0.250646 -0.310642 -0.250646 -0.310642c-0.0143307,-0.0176654 -0.0203307,-0.0403346 -0.0166654,-0.0626654l0.0616614 -0.394634 -0.372638 -0.143654c-0.021,-0.008 -0.0376614,-0.0246654 -0.0459961,-0.046l-0.143657 -0.372638 -0.394634 0.0616614c-0.0223346,0.00333071 -0.0449961,-0.00266929 -0.0626614,-0.0166654l-0.310642 -0.250646 -0.310642 0.250646c-0.0176654,0.0143307 -0.0403346,0.0203307 -0.0626614,0.0166654l-0.394638 -0.0616614 -0.143654 0.372969c-0.008,0.021 -0.0246654,0.0376614 -0.046,0.046l-0.372638 0.143654 0.0619961 0.394634c0.00333465,0.0223346 -0.00266535,0.045 -0.0166614,0.0626654l-0.25065 0.310642 0.25065 0.310642c0.0143307,0.0176654 0.0203307,0.0403307 0.0166614,0.0626614l-0.0616614 0.394638 0.372638 0.143654c0.021,0.008 0.0376614,0.0246654 0.0459961,0.046l0.143657 0.372638 0.394634 -0.0616614c0.00366929,-0.001 0.00766929,-0.00133465 0.012,-0.00133465z"/>
    </g>
    <g id="_507255320">
     <path id="_285540752" class="fil2" d="M3.40833 3.67263c-0.148654,0 -0.292642,-0.0289961 -0.428299,-0.0866614 -0.130988,-0.0553307 -0.248646,-0.134654 -0.349638,-0.23598 -0.100992,-0.100992 -0.180319,-0.21865 -0.23598,-0.349638 -0.0573307,-0.135657 -0.0866614,-0.27998 -0.0866614,-0.428303 0,-0.148319 0.0289961,-0.292642 0.0866614,-0.428299 0.0553307,-0.130988 0.134654,-0.248646 0.23598,-0.349638 0.100992,-0.100992 0.21865,-0.180323 0.349638,-0.23598 0.135657,-0.0573307 0.27998,-0.0866614 0.428299,-0.0866614 0.148654,0 0.292646,0.0289961 0.428303,0.0866614 0.130988,0.0553268 0.248646,0.134654 0.349638,0.23598 0.100992,0.100992 0.180319,0.21865 0.23598,0.349638 0.0573307,0.135657 0.0866614,0.27998 0.0866614,0.428299 0,0.148323 -0.029,0.292646 -0.0866614,0.428303 -0.0553307,0.130988 -0.134657,0.248646 -0.23598,0.349638 -0.100992,0.100992 -0.21865,0.180319 -0.349638,0.23598 -0.135657,0.0573307 -0.27998,0.0866614 -0.428303,0.0866614zm0 -2.04118c-0.518626,0 -0.940594,0.421965 -0.940594,0.940594 0,0.518626 0.421969,0.940594 0.940594,0.940594 0.51863,0 0.940594,-0.421969 0.940594,-0.940594 0,-0.51863 -0.421965,-0.940594 -0.940594,-0.940594z"/>
    </g>
    <g id="_507254984">
     <path id="_285540440" class="fil2" d="M3.01469 3.258c-0.0166614,0 -0.0329961,-0.005 -0.0469921,-0.0153307 -0.024,-0.0173346 -0.0363307,-0.0463346 -0.0323307,-0.0756654l0.0549961 -0.394969 -0.276646 -0.287311c-0.0203307,-0.0213307 -0.0276654,-0.0519961 -0.0183346,-0.0803268 0.009,-0.0279961 0.033,-0.0489961 0.0619961,-0.0539961l0.392638 -0.0699961 0.18765 -0.351972c0.0139961,-0.0259961 0.0409961,-0.0423307 0.0706614,-0.0423307 0.0296614,0 0.0566614,0.0163346 0.0706575,0.0423307l0.187654 0.351972 0.392638 0.0696654c0.0289961,0.00533071 0.0529961,0.0259961 0.0619961,0.0539961 0.00899606,0.0279961 0.00199606,0.0589921 -0.0183346,0.0803268l-0.276646 0.287311 0.055 0.394969c0.004,0.0293307 -0.00833071,0.0583307 -0.0323307,0.0756614 -0.0239961,0.0173307 -0.0553307,0.0199961 -0.0819961,0.00733465l-0.358638 -0.174323 -0.358638 0.174323c-0.0113346,0.00566535 -0.0233346,0.00833071 -0.035,0.00833071zm-0.0819921 -0.776606l0.19965 0.207315c0.0169961,0.0176654 0.025,0.0423307 0.0216654,0.0666654l-0.0396654 0.284976 0.258984 -0.125657c0.0219961,-0.0106654 0.0479961,-0.0106654 0.0699921,0l0.258984 0.125657 -0.0396654 -0.284976c-0.00333465,-0.0243346 0.00466535,-0.0486654 0.0216654,-0.0666654l0.19965 -0.207315 -0.283311 -0.0503307c-0.0243307,-0.00433465 -0.0449961,-0.0193346 -0.0566614,-0.0409961l-0.135323 -0.25398 -0.135992 0.253976c-0.0116654,0.0216654 -0.0323268,0.0366654 -0.0566614,0.0409961l-0.283311 0.0503346z"/>
    </g>
    <g>
     <g id="_507255200">
      <path id="_285540680" class="fil2" d="M1.68213 3.62731c-0.0443268,0 -0.0799921,-0.0356654 -0.0799921,-0.0799961l0 -0.101323c0,-0.0443307 0.0356654,-0.0799921 0.0799921,-0.0799921 0.0443307,0 0.0799961,0.0356614 0.0799961,0.0799921l0 0.101323c0,0.0443307 -0.0356654,0.0799961 -0.0799961,0.0799961z"/>
     </g>
     <g id="_507255464">
      <path id="_285540800" class="fil2" d="M1.68213 4.01228c-0.0443268,0 -0.0799921,-0.0356654 -0.0799921,-0.0799921l0 -0.101327c0,-0.0443307 0.0356654,-0.0799921 0.0799921,-0.0799921 0.0443307,0 0.0799961,0.0356614 0.0799961,0.0799921l0 0.101327c0,0.0439921 -0.0356654,0.0799921 -0.0799961,0.0799921z"/>
     </g>
    </g>
    <g>
     <g id="_507254864">
      <path id="_285540944" class="fil2" d="M1.92544 3.76896l-0.101327 0c-0.0443307,0 -0.0799921,-0.0356654 -0.0799921,-0.0799961 0,-0.0443268 0.0356614,-0.0799921 0.0799921,-0.0799921l0.101327 0c0.0443268,0 0.0799921,0.0356654 0.0799921,0.0799921 0,0.0443307 -0.0359961,0.0799961 -0.0799921,0.0799961z"/>
     </g>
     <g id="_507255104">
      <path id="_285539792" class="fil2" d="M1.54048 3.76896l-0.101327 0c-0.0443307,0 -0.0799921,-0.0356654 -0.0799921,-0.0799961 0,-0.0443268 0.0356614,-0.0799921 0.0799921,-0.0799921l0.101327 0c0.0443268,0 0.0799921,0.0356654 0.0799921,0.0799921 0,0.0443307 -0.036,0.0799961 -0.0799921,0.0799961z"/>
     </g>
    </g>
    <g>
     <g id="_507255272">
      <path id="_285539744" class="fil2" d="M5.14453 1.42914c-0.0443307,0 -0.0799961,-0.0356614 -0.0799961,-0.0799921l0 -0.101327c0,-0.0443268 0.0356654,-0.0799921 0.0799961,-0.0799921 0.0443268,0 0.0799921,0.0356654 0.0799921,0.0799921l0 0.101327c3.93701e-006,0.0443307 -0.0359961,0.0799921 -0.0799921,0.0799921z"/>
     </g>
     <g id="_507255536">
      <path id="_285539648" class="fil2" d="M5.14453 1.81411c-0.0443307,0 -0.0799961,-0.0356614 -0.0799961,-0.0799921l0 -0.101327c0,-0.0443268 0.0356654,-0.0799921 0.0799961,-0.0799921 0.0443268,0 0.0799921,0.0356654 0.0799921,0.0799921l0 0.101327c3.93701e-006,0.0443268 -0.0359961,0.0799921 -0.0799921,0.0799921z"/>
     </g>
    </g>
    <g>
     <g id="_507255752">
      <path id="_285540032" class="fil2" d="M5.38751 1.57113l-0.101327 0c-0.0443268,0 -0.0799921,-0.0356654 -0.0799921,-0.0799921 0,-0.0443307 0.0356654,-0.0799961 0.0799921,-0.0799961l0.101327 0c0.0443307,0 0.0799921,0.0356614 0.0799921,0.0799921 0,0.0443268 -0.0356614,0.0799961 -0.0799921,0.0799961z"/>
     </g>
     <g id="_507256064">
      <path id="_285539912" class="fil2" d="M5.00254 1.57113l-0.101327 0c-0.0443268,0 -0.0799921,-0.0356654 -0.0799921,-0.0799921 0,-0.0443307 0.0356654,-0.0799961 0.0799921,-0.0799961l0.101327 0c0.0443307,0 0.0799921,0.0356614 0.0799921,0.0799921 0,0.0443268 -0.0356614,0.0799961 -0.0799921,0.0799961z"/>
     </g>
    </g>
    <g id="_507255176">
     <path id="_285538928" class="fil2" d="M4.2246 5.97313c-0.0196654,0 -0.039,-0.00733465 -0.0539961,-0.021l-0.760941 -0.693614 -0.763941 0.693945c-0.0233346,0.0213346 -0.0573307,0.0266654 -0.0863268,0.014 -0.029,-0.0126654 -0.0476654,-0.0413307 -0.0476654,-0.0729961l0 -1.90285c0,-0.0443307 0.0356654,-0.0799961 0.0799961,-0.0799961 0.0443268,0 0.0799921,0.0356654 0.0799921,0.0799961l0 1.72187 0.683949 -0.621287c0.0306654,-0.0276654 0.0773268,-0.0276654 0.107657,0l0.680949 0.620618 0 -1.7212c0,-0.0443307 0.0356614,-0.0799961 0.0799921,-0.0799961 0.0443307,0 0.0799921,0.0356654 0.0799921,0.0799961l3.93701e-006 1.90252c0,0.0316614 -0.0186654,0.0603268 -0.0476614,0.0733268 -0.0100039,0.00433465 -0.021,0.00666535 -0.032,0.00666535z"/>
    </g>
    <g id="_507257192">
     <path id="_285539264" class="fil2" d="M3.04736 4.91021c-0.0443307,0 -0.0799921,-0.0356654 -0.0799921,-0.0799921l0 -0.910933c0,-0.0443307 0.0356614,-0.0799961 0.0799921,-0.0799961 0.0443307,0 0.0799921,0.0356654 0.0799921,0.0799961l0 0.911264c0,0.0439961 -0.0359961,0.0796614 -0.0799921,0.0796614z"/>
    </g>
    <g id="_507258104">
     <path id="_285539432" class="fil2" d="M3.7693 4.91021c-0.0443307,0 -0.0799921,-0.0356654 -0.0799921,-0.0799921l0 -0.910933c0,-0.0443307 0.0356614,-0.0799961 0.0799921,-0.0799961 0.0443307,0 0.0799921,0.0356654 0.0799921,0.0799961l0 0.911264c3.93701e-006,0.0439961 -0.0359921,0.0796614 -0.0799921,0.0796614z"/>
    </g>
   </g>
  </g>
  <path class="fil3" d="M3.40833 3.51265c0.51863,0 0.940594,-0.421969 0.940594,-0.940594 0,-0.51863 -0.421965,-0.940594 -0.940594,-0.940594 -0.518626,0 -0.940594,0.421965 -0.940594,0.940594 0,0.518626 0.421969,0.940594 0.940594,0.940594zm-0.393638 -0.254646c-0.0166614,0 -0.0329961,-0.005 -0.0469921,-0.0153307 -0.024,-0.0173346 -0.0363307,-0.0463346 -0.0323307,-0.0756654l0.0549961 -0.394969 -0.276646 -0.287311c-0.0203307,-0.0213307 -0.0276654,-0.0519961 -0.0183346,-0.0803268 0.009,-0.0279961 0.033,-0.0489961 0.0619961,-0.0539961l0.392638 -0.0699961 0.18765 -0.351972c0.0139961,-0.0259961 0.0409961,-0.0423307 0.0706614,-0.0423307 0.0296614,0 0.0566614,0.0163346 0.0706575,0.0423307l0.187654 0.351972 0.392638 0.0696654c0.0289961,0.00533071 0.0529961,0.0259961 0.0619961,0.0539961 0.00899606,0.0279961 0.00199606,0.0589921 -0.0183346,0.0803268l-0.276646 0.287311 0.055 0.394969c0.004,0.0293307 -0.00833071,0.0583307 -0.0323307,0.0756614 -0.0239961,0.0173307 -0.0553307,0.0199961 -0.0819961,0.00733465l-0.358638 -0.174323 -0.358638 0.174323c-0.0113346,0.00566535 -0.0233346,0.00833071 -0.035,0.00833071z"/>
  <path class="fil4" d="M3.70231 3.04035l-0.0396654 -0.284976c-0.00333465,-0.0243346 0.00466535,-0.0486654 0.0216654,-0.0666654l0.19965 -0.207315 -0.283311 -0.0503307c-0.0243307,-0.00433465 -0.0449961,-0.0193346 -0.0566614,-0.0409961l-0.135323 -0.25398 -0.135992 0.253976c-0.0116654,0.0216654 -0.0323268,0.0366654 -0.0566614,0.0409961l-0.283311 0.0503346 0.19965 0.207315c0.0169961,0.0176654 0.025,0.0423307 0.0216654,0.0666654l-0.0396654 0.284976 0.258984 -0.125657c0.0219961,-0.0106654 0.0479961,-0.0106654 0.0699921,0l0.258984 0.125657z"/>
  <path class="fil4" d="M3.68931 4.08678l-0.230654 0.186138c-0.0149961,0.0116654 -0.0326614,0.0176654 -0.0503268,0.0176654 -0.0176654,0 -0.0356614,-0.006 -0.0503268,-0.0176654l-0.230654 -0.186138 0 0.743764c0,0.0439961 -0.0359961,0.0796614 -0.0799921,0.0796614 -0.0443307,0 -0.0799921,-0.0356654 -0.0799921,-0.0799921l0 -0.817291 -0.295646 0.0463268 0 1.65323 0.683949 -0.621287c0.0306654,-0.0276654 0.0773268,-0.0276654 0.107657,0l0.680949 0.620618 0 -1.65267 -0.29498 -0.0462205 0 0.817622c3.93701e-006,0.0439961 -0.0359921,0.0796614 -0.0799921,0.0796614 -0.0443307,0 -0.0799921,-0.0356654 -0.0799921,-0.0799921l0 -0.743433z"/>
 </g>
</svg>
