<?xml version="1.0" encoding="UTF-8"?>
<!DOCTYPE svg PUBLIC "-//W3C//DTD SVG 1.1//EN" "http://www.w3.org/Graphics/SVG/1.1/DTD/svg11.dtd">
<!-- Creator: CorelDRAW -->
<svg xmlns="http://www.w3.org/2000/svg" xml:space="preserve" width="6.82666in" height="6.82666in" style="shape-rendering:geometricPrecision; text-rendering:geometricPrecision; image-rendering:optimizeQuality; fill-rule:evenodd; clip-rule:evenodd"
viewBox="0 0 6.82666 6.82666"
 xmlns:xlink="http://www.w3.org/1999/xlink">
 <defs>
  <style type="text/css">
   <![CDATA[
    .fil0 {fill:none}
    .fil1 {fill:#005BAC}
    .fil2 {fill:#333333}
    .fil5 {fill:#89D5FE}
    .fil3 {fill:#98EDFE}
    .fil4 {fill:#E40048}
   ]]>
  </style>
 </defs>
 <rect class="fil0" width="6.82666" height="6.82666"/>
 <g id="Layer_x0020_1">
  <metadata id="CorelCorpID_0Corel-Layer"/>
  <path class="fil1" d="M3.01636 1.55464c-0.0660472,0 -0.119661,-0.0536142 -0.119661,-0.119661l0 -0.119992 1.03326 0 0 0.119992c0,0.0660472 -0.0536102,0.119661 -0.119657,0.119661l-0.793945 0zm1.39423 2.75779l0 0.138657c0,0.140906 -0.110736,0.267315 -0.254854,0.267315l-1.48481 0c-0.144118,0 -0.254854,-0.126409 -0.254854,-0.267315l0 -0.138657 1.99452 0zm-1.45322 0.256315l0.121657 0c0.0296142,0 0.0533268,-0.0237205 0.0533268,-0.0533307 0,-0.0296102 -0.0237165,-0.0533268 -0.0533268,-0.0533268l-0.121657 0c-0.0296142,0 -0.0533268,0.0237205 -0.0533268,0.0533307 0,0.0296102 0.0237165,0.0533268 0.0533268,0.0533268zm0.395303 0l0.121657 0c0.029437,0 0.0533268,-0.0238819 0.0533268,-0.0533307 0,-0.0296102 -0.0237165,-0.0533268 -0.0533268,-0.0533268l-0.121657 0c-0.0296102,0 -0.0533307,0.0237205 -0.0533307,0.0533307 0,0.0296102 0.0237205,0.0533268 0.0533307,0.0533268zm0.394969 0l0.121657 0c0.0296142,0 0.0533268,-0.0237205 0.0533268,-0.0533307 0,-0.0296102 -0.0237165,-0.0533268 -0.0533268,-0.0533268l-0.121657 0c-0.0296142,0 -0.0533268,0.0237205 -0.0533268,0.0533307 0,0.0296102 0.0237165,0.0533268 0.0533268,0.0533268zm-2.65546 0.256646l4.64231 0c0.0580472,0 0.105327,0.0472795 0.105327,0.105327 0,0.320531 -0.260776,0.581291 -0.581287,0.581291l-0.958594 0 0 -0.430303c0,-0.0296102 -0.0237205,-0.0533307 -0.0533307,-0.0533307l-1.66654 0c-0.0296102,0 -0.0533307,0.0237205 -0.0533307,0.0533307l0 0.430303 -0.958594 0c-0.320531,0 -0.581291,-0.26078 -0.581291,-0.581291 0,-0.0580472 0.0472795,-0.105327 0.105327,-0.105327zm3.1011 0.686618l-1.55988 0 0 -0.376972 1.55988 0 0 0.376972z"/>
  <g id="_285542048">
   <g>
    <g id="_507258224">
     <path id="_285544520" class="fil2" d="M3.08602 2.86654l-0.354638 0c-0.0663307,0 -0.120661,-0.0539961 -0.120661,-0.120657l0 -0.354638c0,-0.0663307 0.0539961,-0.120661 0.120661,-0.120661l0.354638 0c0.0663268,0 0.120657,0.0539961 0.120657,0.120661l0 0.354638c0,0.0666614 -0.0539961,0.120657 -0.120657,0.120657zm-0.315311 -0.159988l0.27598 0 0 -0.275976 -0.27598 0 0 0.275976zm0.315311 -0.275646l0 0 0 0z"/>
    </g>
    <g id="_507258848">
     <path id="_285544328" class="fil2" d="M3.08602 3.59648l-0.354638 0c-0.0663307,0 -0.120661,-0.0539961 -0.120661,-0.120657l0 -0.354638c0,-0.0663307 0.0539961,-0.120657 0.120661,-0.120657l0.354638 0c0.0663268,0 0.120657,0.0539961 0.120657,0.120657l0 0.354642c0,0.0663228 -0.0539961,0.120654 -0.120657,0.120654zm-0.315311 -0.159988l0.27598 0 0 -0.27598 -0.27598 0 0 0.27598zm0.315311 -0.27598l0 0 0 0z"/>
    </g>
    <g id="_507256136">
     <path id="_285543824" class="fil2" d="M4.13594 2.5219l-0.72461 0c-0.0443268,0 -0.0799921,-0.0356654 -0.0799921,-0.0799921 0,-0.0443307 0.0356654,-0.0799921 0.0799921,-0.0799921l0.72461 0c0.0443307,0 0.0799961,0.0356614 0.0799961,0.0799921 0,0.0443268 -0.036,0.0799921 -0.0799961,0.0799921z"/>
    </g>
    <g id="_507256304">
     <path id="_285543608" class="fil2" d="M4.13594 3.25184l-0.72461 0c-0.0443268,0 -0.0799921,-0.0356614 -0.0799921,-0.0799921 0,-0.0443307 0.0356654,-0.0799921 0.0799921,-0.0799921l0.72461 -3.93701e-006c0.0443307,0 0.0799961,0.0356654 0.0799961,0.0799921 0,0.0443307 -0.036,0.0799961 -0.0799961,0.0799961z"/>
    </g>
    <g id="_512996176">
     <path id="_285543416" class="fil2" d="M4.13594 2.77555l-0.73061 0c-0.0443268,0 -0.0799921,-0.0356654 -0.0799921,-0.0799921 0,-0.0443307 0.0356654,-0.0799921 0.0799921,-0.0799921l0.73061 -3.93701e-006c0.0443307,0 0.0799961,0.0356614 0.0799961,0.0799921 0,0.0443307 -0.036,0.0799961 -0.0799961,0.0799961z"/>
    </g>
    <g id="_513326200">
     <path id="_285543992" class="fil2" d="M4.13594 3.50516l-0.73061 0c-0.0443268,0 -0.0799921,-0.0356654 -0.0799921,-0.0799921 0,-0.0443307 0.0356654,-0.0799961 0.0799921,-0.0799961l0.73061 0c0.0443307,0 0.0799961,0.0356654 0.0799961,0.0799961 0,0.0443268 -0.036,0.0799921 -0.0799961,0.0799921z"/>
    </g>
   </g>
   <g id="_513325552">
    <path id="_285543680" class="fil2" d="M5.25852 5.645l-3.69039 0c-0.190323,0 -0.369307,-0.0746614 -0.50463,-0.209984 -0.135323,-0.135323 -0.209984,-0.314642 -0.209984,-0.50463 0,-0.131657 0.106992,-0.238646 0.238646,-0.238646l0.184323 0 4.27367 0 0.184323 0c0.131657,0 0.238646,0.106988 0.238646,0.238646 0,0.190323 -0.0746614,0.369307 -0.209984,0.50463 -0.135323,0.135654 -0.314307,0.209984 -0.504626,0.209984zm-4.16635 -0.792941c-0.0433307,0 -0.0786614,0.0353307 -0.0786614,0.0786614 0,0.305642 0.24865,0.554626 0.554626,0.554626l3.69039 0c0.305642,0 0.554622,-0.24865 0.554622,-0.554626 0,-0.0433307 -0.0353307,-0.0786614 -0.0786614,-0.0786614l-0.184319 0 -4.27367 0 -0.184323 0z"/>
   </g>
   <g id="_506763544">
    <path id="_285543200" class="fil2" d="M5.55017 4.85206c-0.0443268,0 -0.0799921,-0.0356654 -0.0799921,-0.0799921l0 -2.11917c0,-0.194319 -0.157323,-0.358303 -0.351307,-0.366638l-0.654949 0c-0.0443268,0 -0.0799921,-0.0356654 -0.0799921,-0.0799961 0,-0.0443268 0.0356654,-0.0799921 0.0799921,-0.0799921l0.656614 -3.93701e-006c0.001,0 0.002,0 0.003,0 0.135992,0.00533465 0.263315,0.0626614 0.358638,0.160988 0.0953268,0.0989921 0.147992,0.22865 0.147992,0.365307l0 2.11884c0,0.0446654 -0.0356654,0.0806614 -0.0799961,0.0806614zm-4.27367 0c-0.0443307,0 -0.0799961,-0.0356654 -0.0799961,-0.0799921l0 -2.11917c0,-0.136654 0.0526614,-0.266646 0.147992,-0.365303 0.0953228,-0.0986614 0.22265,-0.155988 0.358638,-0.161323 0.001,0 0.002,0 0.003,0l0.656614 -3.93701e-006c0.0443268,0 0.0799921,0.0356654 0.0799921,0.0799961 0,0.0443268 -0.0356654,0.0799921 -0.0799921,0.0799921l-0.654949 3.93701e-006c-0.193984,0.00833071 -0.351307,0.172319 -0.351307,0.366638l0 2.11884c0,0.0443307 -0.0359961,0.0803268 -0.0799921,0.0803268z"/>
   </g>
   <g id="_506763568">
    <path id="_285542984" class="fil2" d="M4.2466 5.645c-0.0443268,0 -0.0799921,-0.0356654 -0.0799921,-0.0799921l0 -0.403303 -1.50655 0 0 0.403299c0,0.0443307 -0.0356654,0.0799921 -0.0799921,0.0799921 -0.0443307,0 -0.0799961,-0.0356614 -0.0799961,-0.0799921l0 -0.483295c0,-0.0443307 0.0356654,-0.0799961 0.0799961,-0.0799961l1.66654 0c0.0443307,0 0.0799961,0.0356654 0.0799961,0.0799961l0 0.483295c0,0.0443307 -0.0356654,0.0799961 -0.0799961,0.0799961z"/>
   </g>
   <g>
    <g id="_506763592">
     <path id="_285543152" class="fil2" d="M4.14294 4.85206c-0.0443268,0 -0.0799921,-0.0356654 -0.0799921,-0.0799921 0,-0.0443307 0.0356654,-0.0799921 0.0799921,-0.0799921 0.132992,0 0.240984,-0.107992 0.240984,-0.240984l-3.93701e-006 -2.86845c0,-0.132992 -0.107992,-0.240984 -0.24098,-0.240984l-1.45922 0c-0.132992,0 -0.240984,0.107992 -0.240984,0.240984l0 2.86845c0,0.132992 0.107992,0.240984 0.240984,0.240984 0.0443268,0 0.0799921,0.0356614 0.0799921,0.0799921 0,0.0443268 -0.0356654,0.0799921 -0.0799921,0.0799921 -0.220984,0 -0.400969,-0.179988 -0.400969,-0.400969l0 -2.86845c0,-0.22098 0.179984,-0.400969 0.400969,-0.400969l1.45922 0c0.220984,0 0.400969,0.179988 0.400969,0.400969l0 2.86845c0,0.22098 -0.179984,0.400969 -0.400969,0.400969z"/>
    </g>
    <g id="_506763328">
     <path id="_285543104" class="fil2" d="M4.46392 4.33909l-2.10117 0c-0.0443307,0 -0.0799921,-0.0356654 -0.0799921,-0.0799921 0,-0.0443307 0.0356614,-0.0799961 0.0799921,-0.0799961l2.10084 0c0.0443268,0 0.0799921,0.0356654 0.0799921,0.0799961 0,0.0443268 -0.0356654,0.0799921 -0.0796614,0.0799921z"/>
    </g>
    <g id="_506763640">
     <path id="_285542672" class="fil2" d="M3.07902 4.59541l-0.121657 0c-0.0443307,0 -0.0799921,-0.0356654 -0.0799921,-0.0799921 0,-0.0443307 0.0356614,-0.0799961 0.0799921,-0.0799961l0.121657 0c0.0443307,0 0.0799921,0.0356614 0.0799921,0.0799921 0,0.0443307 -0.0356614,0.0799961 -0.0799921,0.0799961z"/>
    </g>
    <g id="_506763664">
     <path id="_285543248" class="fil2" d="M3.47433 4.59541l-0.121657 0c-0.0443307,0 -0.0799961,-0.0356654 -0.0799961,-0.0799921 0,-0.0443307 0.0356654,-0.0799961 0.0799961,-0.0799961l0.121657 0c0.0443307,0 0.0799921,0.0356614 0.0799921,0.0799921 0,0.0443307 -0.0359961,0.0799961 -0.0799921,0.0799961z"/>
    </g>
    <g id="_506763376">
     <path id="_285541976" class="fil2" d="M3.8693 4.59541l-0.121657 0c-0.0443307,0 -0.0799921,-0.0356654 -0.0799921,-0.0799921 0,-0.0443307 0.0356614,-0.0799961 0.0799921,-0.0799961l0.121657 0c0.0443307,0 0.0799921,0.0356614 0.0799921,0.0799921 0,0.0443307 -0.0356614,0.0799961 -0.0799921,0.0799961z"/>
    </g>
    <g id="_506762944">
     <path id="_285542096" class="fil2" d="M3.8103 1.68796l-0.793945 0c-0.139654,0 -0.25298,-0.113657 -0.25298,-0.252984l0 -0.172984c0,-0.0443307 0.0356654,-0.0799921 0.0799921,-0.0799921 0.0443307,0 0.0799921,0.0356614 0.0799921,0.0799921l0 0.172984c0,0.0513307 0.0416654,0.0929961 0.0929961,0.0929961l0.793945 0c0.0513268,0 0.0929921,-0.0416654 0.0929921,-0.0929961l0 -0.172984c0,-0.0443307 0.0356614,-0.0799921 0.0799921,-0.0799921 0.0443307,0 0.0799921,0.0356614 0.0799921,0.0799921l0 0.172984c0,0.139657 -0.113323,0.252984 -0.252976,0.252984z"/>
    </g>
   </g>
  </g>
  <path class="fil3" d="M4.13594 3.50516l-0.73061 0c-0.0443268,0 -0.0799921,-0.0356654 -0.0799921,-0.0799921 0,-0.0443307 0.0356654,-0.0799961 0.0799921,-0.0799961l0.73061 0c0.0443307,0 0.0799961,0.0356654 0.0799961,0.0799961 0,0.0443268 -0.036,0.0799921 -0.0799961,0.0799921zm0 -0.253315l-0.72461 0c-0.0443268,0 -0.0799921,-0.0356614 -0.0799921,-0.0799921 0,-0.0443307 0.0356654,-0.0799921 0.0799921,-0.0799921l0.72461 -3.93701e-006c0.0443307,0 0.0799961,0.0356654 0.0799961,0.0799921 0,0.0443307 -0.036,0.0799961 -0.0799961,0.0799961zm0 -0.476295l-0.73061 0c-0.0443268,0 -0.0799921,-0.0356654 -0.0799921,-0.0799921 0,-0.0443307 0.0356654,-0.0799921 0.0799921,-0.0799921l0.73061 -3.93701e-006c0.0443307,0 0.0799961,0.0356614 0.0799961,0.0799921 0,0.0443307 -0.036,0.0799961 -0.0799961,0.0799961zm0 -0.25365l-0.72461 0c-0.0443268,0 -0.0799921,-0.0356654 -0.0799921,-0.0799921 0,-0.0443307 0.0356654,-0.0799921 0.0799921,-0.0799921l0.72461 0c0.0443307,0 0.0799961,0.0356614 0.0799961,0.0799921 0,0.0443268 -0.036,0.0799921 -0.0799961,0.0799921zm-0.325638 -0.833933l-0.793945 0c-0.139654,0 -0.25298,-0.113657 -0.25298,-0.252984l0 -0.0933268 -0.0796575 0c-0.132992,0 -0.240984,0.107992 -0.240984,0.240984l0 0.623618 0 1.97285 1.94119 0 0 -1.97285 -3.93701e-006 -0.623618c0,-0.132992 -0.107992,-0.240984 -0.24098,-0.240984l-0.0796614 0 0 0.0933268c0,0.139657 -0.113323,0.252984 -0.252976,0.252984zm-0.72428 1.90852l-0.354638 0c-0.0663307,0 -0.120661,-0.0539961 -0.120661,-0.120657l0 -0.354638c0,-0.0663307 0.0539961,-0.120657 0.120661,-0.120657l0.354638 0c0.0663268,0 0.120657,0.0539961 0.120657,0.120657l0 0.354642c0,0.0663228 -0.0539961,0.120654 -0.120657,0.120654zm0 -0.729945l-0.354638 0c-0.0663307,0 -0.120661,-0.0539961 -0.120661,-0.120657l0 -0.354638c0,-0.0663307 0.0539961,-0.120661 0.120661,-0.120661l0.354638 0c0.0663268,0 0.120657,0.0539961 0.120657,0.120661l0 0.354638c0,0.0666614 -0.0539961,0.120657 -0.120657,0.120657z"/>
  <polygon class="fil4" points="3.04669,3.4365 3.04669,3.16052 2.77071,3.16052 2.77071,3.4365 "/>
  <polygon class="fil4" points="2.77071,2.70655 3.04669,2.70655 3.04669,2.43057 2.77071,2.43057 "/>
  <path class="fil5" d="M2.28275 4.2591l0 -1.97285 -0.574957 3.93701e-006c-0.193984,0.00833071 -0.351307,0.172319 -0.351307,0.366638l0 2.03885 1.00677 0c-0.0505197,-0.0670866 -0.0805039,-0.150453 -0.0805039,-0.24065l0 -0.191984z"/>
  <path class="fil5" d="M4.54391 2.28625l0 2.16483c0,0.0901969 -0.0299843,0.173563 -0.0805039,0.24065l1.00677 0 0 -2.03885c0,-0.194319 -0.157323,-0.358303 -0.351307,-0.366638l-0.574957 0z"/>
 </g>
</svg>
