<?xml version="1.0" encoding="UTF-8"?>
<!DOCTYPE svg PUBLIC "-//W3C//DTD SVG 1.1//EN" "http://www.w3.org/Graphics/SVG/1.1/DTD/svg11.dtd">
<!-- Creator: CorelDRAW -->
<svg xmlns="http://www.w3.org/2000/svg" xml:space="preserve" width="6.82666in" height="6.82666in" style="shape-rendering:geometricPrecision; text-rendering:geometricPrecision; image-rendering:optimizeQuality; fill-rule:evenodd; clip-rule:evenodd"
viewBox="0 0 6.82666 6.82666"
 xmlns:xlink="http://www.w3.org/1999/xlink">
 <defs>
  <style type="text/css">
   <![CDATA[
    .fil0 {fill:none}
    .fil1 {fill:#135693}
    .fil2 {fill:#333333}
    .fil5 {fill:#6BC1DD}
    .fil4 {fill:#9EA7AF}
    .fil3 {fill:#C5CCD3}
   ]]>
  </style>
 </defs>
 <rect class="fil0" width="6.82666" height="6.82666"/>
 <g id="Layer_x0020_1">
  <metadata id="CorelCorpID_0Corel-Layer"/>
  <path class="fil1" d="M4.79839 2.29842l0 1.07792 -2.76946 0 0 -1.07792 2.76946 0zm-0.651953 0.862933c0.178598,0 0.323976,-0.14537 0.323976,-0.323972 0,-0.178602 -0.145374,-0.323976 -0.323976,-0.323976 -0.178598,0 -0.323972,0.145378 -0.323972,0.323976 0,0.178598 0.145374,0.323972 0.323972,0.323972zm-1.14191 -0.323972c0,-0.178598 -0.14537,-0.323976 -0.323972,-0.323976 -0.178602,0 -0.323976,0.145374 -0.323976,0.323976 0,0.178602 0.145378,0.323972 0.323976,0.323972 0.178594,0 0.323972,-0.145378 0.323972,-0.323972zm1.19024 1.94752l0 1.05492 -0.159988 0 0 -0.841602c0,-0.0296102 -0.0237165,-0.0533307 -0.0533307,-0.0533307l-0.139323 3.93701e-006c-0.0296102,0 -0.0533268,0.0237165 -0.0533268,0.0533268 0,0.0296102 0.0237126,0.0533307 0.0533268,0.0533307l0.0859961 0 0 0.788272 -1.02926 0 0 -0.788272 0.509626 -3.93701e-006c0.0296102,0 0.0533307,-0.0237165 0.0533307,-0.0533268 0,-0.0296102 -0.0237165,-0.0533307 -0.0533307,-0.0533307l-0.562957 3.93701e-006c-0.0296102,0 -0.0533307,0.0237165 -0.0533307,0.0533268l0 0.841602 -0.159984 0 0 -1.05492 1.56255 0z"/>
  <g id="_285545648">
   <g id="_506764024">
    <path id="_285549128" class="fil2" d="M5.35302 5.97314l-3.87904 0c-0.0443268,0 -0.0799921,-0.0356654 -0.0799921,-0.0799921l0 -1.01492c0,-0.195319 0.0766614,-0.379303 0.21565,-0.51863 0.138992,-0.138988 0.322976,-0.21565 0.518626,-0.21565l2.57114 0c0.195319,0 0.379303,0.0766575 0.518626,0.21565 0.139327,0.138988 0.21565,0.322972 0.21565,0.518626l0 1.01493c-0.000665354,0.0443268 -0.0366614,0.0799921 -0.0806575,0.0799921zm-3.79904 -0.159988l3.71905 0 0 -0.934929c0,-0.316642 -0.257646,-0.573957 -0.573957,-0.573957l-2.57113 0c-0.316642,0 -0.573957,0.25765 -0.573957,0.573961l0 0.934925z"/>
   </g>
   <g id="_506764096">
    <path id="_285548096" class="fil2" d="M4.2481 5.97314c-0.0443268,0 -0.0799921,-0.0356654 -0.0799921,-0.0799921l0 -1.08159 -1.50922 0 0 1.08159c0,0.0443268 -0.0356654,0.0799921 -0.0799961,0.0799921 -0.0443268,0 -0.0799921,-0.0356654 -0.0799921,-0.0799921l0 -1.16158c0,-0.0443268 0.0356654,-0.0799921 0.0799921,-0.0799921l1.6692 -3.93701e-006c0.0443307,0 0.0799961,0.0356654 0.0799961,0.0799961l0 1.16158c0,0.0443268 -0.036,0.0799921 -0.0799961,0.0799921z"/>
   </g>
   <g id="_506764048">
    <path id="_285548312" class="fil2" d="M3.98146 5.97314c-0.0443268,0 -0.0799921,-0.0356654 -0.0799921,-0.0799921l0 -0.814937 -0.0593307 0c-0.0443307,0 -0.0799921,-0.0356654 -0.0799921,-0.0799961 0,-0.0443268 0.0356614,-0.0799921 0.0799921,-0.0799921l0.139323 -3.93701e-006c0.0443307,0 0.0799961,0.0356654 0.0799961,0.0799961l0 0.894933c0,0.0443268 -0.036,0.0799921 -0.0799961,0.0799921zm-1.13591 0c-0.0443307,0 -0.0799961,-0.0356654 -0.0799961,-0.0799921l0 -0.894933c0,-0.0443268 0.0356654,-0.0799921 0.0799961,-0.0799921l0.562957 -3.93701e-006c0.0443307,0 0.0799961,0.0356654 0.0799961,0.0799961 0,0.0443268 -0.0356654,0.0799921 -0.0799961,0.0799921l-0.482961 3.93701e-006 0 0.814937c0,0.0443268 -0.0356654,0.0799921 -0.0799961,0.0799921z"/>
   </g>
   <g id="_506763688">
    <path id="_285547928" class="fil2" d="M2.0716 5.97314c-0.0443268,0 -0.0799921,-0.0356654 -0.0799921,-0.0799921l0 -0.834606c0,-0.0443268 0.0356654,-0.0799921 0.0799921,-0.0799921 0.0443307,0 0.0799961,0.0356654 0.0799961,0.0799921l0 0.834606c0,0.0443268 -0.0356654,0.0799921 -0.0799961,0.0799921z"/>
   </g>
   <g id="_506763736">
    <path id="_285548144" class="fil2" d="M4.7554 5.97314c-0.0443307,0 -0.0799961,-0.0356654 -0.0799961,-0.0799921l0 -0.834606c0,-0.0443268 0.0356654,-0.0799921 0.0799961,-0.0799921 0.0443268,0 0.0799921,0.0356654 0.0799921,0.0799921l3.93701e-006 0.834606c0,0.0443268 -0.036,0.0799921 -0.0799961,0.0799921z"/>
   </g>
   <g id="_506764072">
    <path id="_285548456" class="fil2" d="M4.2761 4.30426c-0.0443268,0 -0.0799921,-0.0356614 -0.0799921,-0.0799921l0 -0.529957c0,-0.0443307 0.0356654,-0.0799961 0.0799921,-0.0799961 0.0443307,0 0.0799961,0.0356654 0.0799961,0.0799961l0 0.529957c0,0.0439961 -0.0359961,0.0799921 -0.0799961,0.0799921zm-1.7252 0c-0.0443307,0 -0.0799961,-0.0356614 -0.0799961,-0.0799921l0 -0.529957c0,-0.0443307 0.0356654,-0.0799961 0.0799961,-0.0799961 0.0443268,0 0.0799921,0.0356654 0.0799921,0.0799961l0 0.529957c0,0.0439961 -0.0356654,0.0799921 -0.0799921,0.0799921z"/>
   </g>
   <g id="_506763832">
    <path id="_285547232" class="fil2" d="M4.81139 3.77431l-2.79579 0c-0.211984,0 -0.384638,-0.172654 -0.384638,-0.384638l3.93701e-006 -1.10459c0,-0.21198 0.17265,-0.384638 0.384638,-0.384638l2.79612 3.93701e-006c0.211984,0 0.384638,0.172654 0.384638,0.384638l0 1.10458c-3.93701e-006,0.21198 -0.172654,0.384638 -0.384972,0.384638zm-2.79579 -1.71387c-0.123992,0 -0.22465,0.100657 -0.22465,0.22465l0 1.10458c0,0.123992 0.100657,0.22465 0.22465,0.22465l2.79612 3.93701e-006c0.123992,0 0.22465,-0.100657 0.22465,-0.22465l0 -1.10459c0,-0.123992 -0.100657,-0.22465 -0.22465,-0.22465l-2.79612 0z"/>
   </g>
   <g id="_506765176">
    <path id="_285547400" class="fil2" d="M4.81139 3.50966l-2.79579 0c-0.0659961,0 -0.119992,-0.0536614 -0.119992,-0.119988l0 -1.10459c0,-0.0659921 0.0536614,-0.119988 0.119992,-0.119988l2.79612 0c0.0659961,0 0.119992,0.0536614 0.119992,0.119988l0 1.10458c-0.000330709,0.0659961 -0.0539921,0.119992 -0.120323,0.119992zm-2.75579 -0.159988l2.71613 0 0 -1.02459 -2.71613 0 0 1.02459zm-0.0399961 -1.02459l0 0c0,0 0.000334646,0 0.000334646,0l-0.000334646 0z"/>
   </g>
   <g id="_506764576">
    <path id="_285547784" class="fil2" d="M2.68056 3.18802c-0.193323,0 -0.350642,-0.157323 -0.350642,-0.350638 0,-0.193319 0.157319,-0.350642 0.350642,-0.350642 0.193319,0 0.350638,0.157323 0.350638,0.350642 0,0.193315 -0.157323,0.350638 -0.350638,0.350638zm0 -0.541291c-0.104992,0 -0.190654,0.0856614 -0.190654,0.190654 0,0.104992 0.0856614,0.19065 0.190654,0.19065 0.104992,0 0.19065,-0.0856575 0.19065,-0.19065 0,-0.104992 -0.0856614,-0.190654 -0.19065,-0.190654z"/>
   </g>
   <g id="_506764960">
    <path id="_285547592" class="fil2" d="M4.14644 3.18802c-0.193319,0 -0.350638,-0.157323 -0.350638,-0.350638 0,-0.193319 0.157323,-0.350642 0.350638,-0.350642 0.193323,0 0.350642,0.157323 0.350642,0.350642 0,0.193315 -0.157319,0.350638 -0.350642,0.350638zm0 -0.541291c-0.104992,0 -0.19065,0.0856614 -0.19065,0.190654 0,0.104992 0.0856575,0.19065 0.19065,0.19065 0.104992,0 0.190654,-0.0856575 0.190654,-0.19065 0,-0.104992 -0.0856614,-0.190654 -0.190654,-0.190654z"/>
   </g>
   <g id="_506764720">
    <path id="_285547568" class="fil2" d="M2.0716 5.28486l-0.597622 0c-0.0443268,0 -0.0799921,-0.0356654 -0.0799921,-0.0799921 0,-0.0443307 0.0356654,-0.0799961 0.0799921,-0.0799961l0.597622 0c0.0443307,0 0.0799961,0.0356614 0.0799961,0.0799921 0,0.0443307 -0.0356654,0.0799961 -0.0799961,0.0799961z"/>
   </g>
   <g id="_506764696">
    <path id="_285547664" class="fil2" d="M2.0716 5.60083l-0.597622 0c-0.0443268,0 -0.0799921,-0.0356614 -0.0799921,-0.0799921 0,-0.0443268 0.0356654,-0.0799921 0.0799921,-0.0799921l0.597622 0c0.0443307,0 0.0799961,0.0356654 0.0799961,0.0799921 0,0.0443307 -0.0356654,0.0799921 -0.0799961,0.0799921z"/>
   </g>
   <g id="_506764840">
    <path id="_285546392" class="fil2" d="M5.35302 5.28486l-0.597622 0c-0.0443307,0 -0.0799961,-0.0356654 -0.0799961,-0.0799921 0,-0.0443307 0.0356654,-0.0799961 0.0799961,-0.0799961l0.597622 0c0.0443268,0 0.0799921,0.0356614 0.0799921,0.0799921 0,0.0443307 -0.0356654,0.0799961 -0.0799921,0.0799961z"/>
   </g>
   <g id="_506764888">
    <path id="_285546656" class="fil2" d="M5.35302 5.60083l-0.597622 0c-0.0443307,0 -0.0799961,-0.0356614 -0.0799961,-0.0799921 0,-0.0443268 0.0356654,-0.0799921 0.0799961,-0.0799921l0.597622 0c0.0443268,0 0.0799921,0.0356654 0.0799921,0.0799921 0,0.0443307 -0.0356654,0.0799921 -0.0799921,0.0799921z"/>
   </g>
   <g id="_506764984">
    <path id="_285546920" class="fil2" d="M1.71063 3.21535l-0.261315 0c-0.188319,0 -0.341307,-0.152988 -0.341307,-0.341307l0 -0.0733268c0,-0.188319 0.152988,-0.341307 0.341307,-0.341307l0.261315 0c0.0443307,0 0.0799921,0.0356614 0.0799921,0.0799921 0,0.0443307 -0.0356614,0.0799921 -0.0799921,0.0799921l-0.261315 3.93701e-006c-0.0999921,0 -0.181319,0.0813268 -0.181319,0.181319l0 0.0733307c0,0.0999921 0.0813268,0.181323 0.181319,0.181323l0.261315 -7.87402e-006c0.0443307,0 0.0799921,0.0356654 0.0799921,0.0799921 0,0.0443307 -0.0356614,0.0799961 -0.0799921,0.0799961z"/>
   </g>
   <g id="_506765152">
    <path id="_285546848" class="fil2" d="M5.37735 3.21535l-0.261315 0c-0.0443268,0 -0.0799921,-0.0356614 -0.0799921,-0.0799921 0,-0.0443307 0.0356654,-0.0799921 0.0799921,-0.0799921l0.261315 -3.93701e-006c0.0999921,0 0.181319,-0.0813268 0.181319,-0.181319l0 -0.0733307c0,-0.0999921 -0.0813268,-0.181323 -0.181319,-0.181323l-0.261315 7.87402e-006c-0.0443268,0 -0.0799921,-0.0356654 -0.0799921,-0.0799921 0,-0.0443307 0.0356654,-0.0799921 0.0799921,-0.0799921l0.261315 -3.93701e-006c0.188319,0 0.341307,0.152988 0.341307,0.341307l0 0.0733268c0,0.187984 -0.152988,0.341307 -0.341307,0.341307z"/>
   </g>
   <g id="_506765560">
    <path id="_285546968" class="fil2" d="M3.4135 2.06043c-0.0443307,0 -0.0799921,-0.0356614 -0.0799921,-0.0799921l0 -0.500961c0,-0.0443307 0.0356614,-0.0799921 0.0799921,-0.0799921 0.0443307,0 0.0799921,0.0356614 0.0799921,0.0799921l0 0.500626c0,0.0443307 -0.0356614,0.0803268 -0.0799921,0.0803268z"/>
   </g>
   <g id="_506765872">
    <path id="_285546152" class="fil2" d="M3.4135 1.55947c-0.194654,0 -0.352972,-0.158319 -0.352972,-0.352972 0,-0.194654 0.158319,-0.352972 0.352972,-0.352972 0.194654,0 0.352972,0.158319 0.352972,0.352972 0,0.194654 -0.158319,0.352972 -0.352972,0.352972zm0 -0.545957c-0.106327,0 -0.192988,0.0866614 -0.192988,0.192988 0,0.106327 0.0866614,0.192984 0.192988,0.192984 0.106327,0 0.192988,-0.0866575 0.192988,-0.192984 0,-0.106327 -0.0866614,-0.192988 -0.192988,-0.192988z"/>
   </g>
  </g>
  <path class="fil3" d="M2.01561 3.50966c-0.0659961,0 -0.119992,-0.0536614 -0.119992,-0.119988l0 -1.10459c0,-0.0659921 0.0536614,-0.119988 0.119992,-0.119988l2.79612 0c0.0659961,0 0.119992,0.0536614 0.119992,0.119988l0 1.10458c-0.000330709,0.0659961 -0.0539921,0.119992 -0.120323,0.119992l-2.79579 0zm0.535295 0.104661l1.7252 0 0.53563 0c0.123992,0 0.22465,-0.100657 0.22465,-0.22465l0 -0.246909c-0.000220472,-0.00243701 -0.000334646,-0.00490945 -0.000334646,-0.00740551 0,-0.00249606 0.000114173,-0.0049685 0.000334646,-0.00740551l0 -0.581146c-0.000220472,-0.00243701 -0.000334646,-0.00490551 -0.000334646,-0.00740157 0,-0.00249606 0.000114173,-0.0049685 0.000334646,-0.00740551l0 -0.246913c0,-0.123992 -0.100657,-0.22465 -0.22465,-0.22465l-1.39823 0 -1.39789 0c-0.123992,0 -0.22465,0.100657 -0.22465,0.22465l0 1.10458c0,0.123992 0.100657,0.22465 0.22465,0.22465l0.535295 3.93701e-006z"/>
  <path class="fil4" d="M1.44931 3.05537l0.181654 -3.93701e-006 3.93701e-006 -0.435972 -0.181657 3.93701e-006c-0.0999921,0 -0.181319,0.0813268 -0.181319,0.181319l0 0.0733307c0,0.0999921 0.0813268,0.181323 0.181319,0.181323z"/>
  <path class="fil5" d="M3.22051 1.2065c0,0.106327 0.0866614,0.192984 0.192988,0.192984 0.106327,0 0.192988,-0.0866575 0.192988,-0.192984 0,-0.106327 -0.0866614,-0.192988 -0.192988,-0.192988 -0.106327,0 -0.192988,0.0866614 -0.192988,0.192988z"/>
  <path class="fil4" d="M5.19637 2.61939l0 0.435972 0.180984 -3.93701e-006c0.0999921,0 0.181319,-0.0813268 0.181319,-0.181319l0 -0.0733307c0,-0.0999921 -0.0813268,-0.181323 -0.181319,-0.181323l-0.180984 3.93701e-006z"/>
  <path class="fil5" d="M4.33709 2.83738c0,-0.104992 -0.0856614,-0.190654 -0.190654,-0.190654 -0.104992,0 -0.19065,0.0856614 -0.19065,0.190654 0,0.104992 0.0856575,0.19065 0.19065,0.19065 0.104992,0 0.190654,-0.0856575 0.190654,-0.19065z"/>
  <path class="fil5" d="M2.87121 2.83738c0,-0.104992 -0.0856614,-0.190654 -0.19065,-0.190654 -0.104992,0 -0.190654,0.0856614 -0.190654,0.190654 0,0.104992 0.0856614,0.19065 0.190654,0.19065 0.104992,0 0.19065,-0.0856575 0.19065,-0.19065z"/>
  <polygon class="fil4" points="4.19611,3.77431 2.63089,3.77431 2.63089,4.14394 4.19611,4.14394 "/>
  <path class="fil3" d="M4.2761 4.30426l-1.7252 0 -0.422969 0c-0.316642,0 -0.573957,0.25765 -0.573957,0.573961l0 0.246646 0.437634 0 0 -0.0663307c0,-0.0443268 0.0356654,-0.0799921 0.0799921,-0.0799921 0.0443307,0 0.0799961,0.0356654 0.0799961,0.0799921l0 0.146323 0 0.315976 0 0.292311 0.347307 0 0 -1.08158c0,-0.0443268 0.0356654,-0.0799921 0.0799921,-0.0799921l1.6692 -3.93701e-006c0.0443307,0 0.0799961,0.0356654 0.0799961,0.0799961l0 1.08158 0.347303 0 0 -0.292311 0 -0.315972 0 -0.146327c0,-0.0443268 0.0356654,-0.0799921 0.0799961,-0.0799921 0.0443268,0 0.0799921,0.0356654 0.0799921,0.0799921l0 0.0663307 0.437634 0 0 -0.24665c0,-0.316642 -0.257646,-0.573957 -0.573957,-0.573957l-0.422969 0z"/>
  <polygon class="fil4" points="4.83539,5.28486 4.83539,5.44085 5.27302,5.44085 5.27302,5.28486 "/>
  <polygon class="fil4" points="5.27302,5.60083 4.83539,5.60083 4.83539,5.81315 5.27302,5.81315 "/>
  <polygon class="fil4" points="1.99161,5.81315 1.99161,5.60083 1.55398,5.60083 1.55398,5.81315 "/>
  <polygon class="fil4" points="1.55398,5.44085 1.99161,5.44085 1.99161,5.28486 1.55398,5.28486 "/>
 </g>
</svg>
