<?xml version="1.0" encoding="UTF-8"?>
<!DOCTYPE svg PUBLIC "-//W3C//DTD SVG 1.1//EN" "http://www.w3.org/Graphics/SVG/1.1/DTD/svg11.dtd">
<!-- Creator: CorelDRAW -->
<svg xmlns="http://www.w3.org/2000/svg" xml:space="preserve" width="6.82666in" height="6.82666in" style="shape-rendering:geometricPrecision; text-rendering:geometricPrecision; image-rendering:optimizeQuality; fill-rule:evenodd; clip-rule:evenodd"
viewBox="0 0 6.82666 6.82666"
 xmlns:xlink="http://www.w3.org/1999/xlink">
 <defs>
  <style type="text/css">
   <![CDATA[
    .fil0 {fill:none}
    .fil2 {fill:#194D80}
    .fil1 {fill:#265C76}
    .fil3 {fill:#333333}
    .fil7 {fill:#8DB9C4}
    .fil4 {fill:#98EDFE}
    .fil5 {fill:#C5E1E6}
    .fil6 {fill:#E7F0EF}
   ]]>
  </style>
 </defs>
 <rect class="fil0" width="6.82666" height="6.82666"/>
 <g id="Layer_x0020_1">
  <metadata id="CorelCorpID_0Corel-Layer"/>
  <path class="fil1" d="M2.58939 4.50992l-0.25998 0 0 -2.19317 0.217984 0 0 0.313311c0,0.116602 0.0950472,0.21165 0.21165,0.21165l0.849937 0c0.11678,0 0.211646,-0.0948898 0.211646,-0.21165l0 -0.313311 0.1655 0 0.511453 0.542366 0 1.6508 -0.259984 0 0 -1.11325c0,-0.0296102 -0.0237126,-0.0533268 -0.0533268,-0.0533268l-1.54155 3.93701e-006c-0.0296102,0 -0.0533307,0.0237126 -0.0533307,0.0533268l0 1.11325z"/>
  <path class="fil2" d="M0.986846 3.41333c0,-1.33795 1.08853,-2.42648 2.42648,-2.42648 1.33795,0 2.42648,1.08853 2.42648,2.42648 0,1.33795 -1.08853,2.42648 -2.42648,2.42648 -1.33795,0 -2.42648,-1.08853 -2.42648,-2.42648zm4.55798 0c0,-0.286248 -0.0560039,-0.565969 -0.167543,-0.829539 -0.107575,-0.254193 -0.26174,-0.482291 -0.456933,-0.677488 -0.195197,-0.195193 -0.423291,-0.349358 -0.677484,-0.456933 -0.263571,-0.111543 -0.543295,-0.167539 -0.829543,-0.167539 -0.286248,0 -0.565972,0.0559961 -0.829543,0.167539 -0.254193,0.107575 -0.482287,0.26174 -0.677484,0.456933 -0.195193,0.195197 -0.349358,0.423295 -0.456933,0.677488 -0.111539,0.263571 -0.167543,0.543291 -0.167543,0.829539 0,0.286232 0.0558504,0.566016 0.167539,0.829531 0.107736,0.254185 0.261693,0.482252 0.456937,0.6775 0.195197,0.195193 0.423291,0.349358 0.677484,0.456933 0.263571,0.111543 0.543295,0.167539 0.829543,0.167539 0.286232,0 0.566016,-0.0558465 0.829531,-0.167535 0.254185,-0.107732 0.482248,-0.261693 0.677496,-0.456937 0.195193,-0.195197 0.349358,-0.423295 0.456933,-0.677488 0.111539,-0.263571 0.167543,-0.543295 0.167543,-0.829543z"/>
  <g id="_285550184">
   <g>
    <g>
     <g id="_506765920">
      <path id="_285551096" class="fil3" d="M3.41333 5.5715c-0.291311,0 -0.573957,-0.0569921 -0.839937,-0.16965 -0.25698,-0.108661 -0.487626,-0.264315 -0.685945,-0.462634 -0.198319,-0.198319 -0.353642,-0.428969 -0.462634,-0.685949 -0.112657,-0.265976 -0.169654,-0.548622 -0.169654,-0.839937 0,-0.291311 0.0569961,-0.573957 0.169654,-0.839933 0.108657,-0.25698 0.264315,-0.48763 0.462634,-0.685949 0.198319,-0.198319 0.428965,-0.353972 0.685945,-0.462634 0.26598,-0.112657 0.548626,-0.16965 0.839937,-0.16965 0.291311,0 0.573957,0.0569921 0.839937,0.16965 0.25698,0.108661 0.487626,0.264315 0.685945,0.462634 0.198319,0.198319 0.353976,0.428969 0.462634,0.685949 0.112657,0.265976 0.169654,0.548622 0.169654,0.839933 0,0.291315 -0.0569961,0.573961 -0.169654,0.839937 -0.108657,0.25698 -0.264315,0.48763 -0.462634,0.685949 -0.198319,0.198319 -0.428965,0.353642 -0.685945,0.462634 -0.26598,0.112657 -0.548626,0.16965 -0.839937,0.16965zm0 -4.15635c-1.10191,0 -1.99818,0.896264 -1.99818,1.99818 0,1.10192 0.896268,1.99818 1.99818,1.99818 1.10191,0 1.99818,-0.896264 1.99818,-1.99818 0,-1.10191 -0.896268,-1.99818 -1.99818,-1.99818z"/>
     </g>
     <g id="_506765272">
      <path id="_285550496" class="fil3" d="M3.41333 5.97314c-0.345642,0 -0.680614,-0.0676614 -0.99626,-0.201319 -0.304972,-0.128988 -0.578622,-0.313642 -0.813602,-0.548626 -0.234984,-0.23498 -0.419638,-0.508961 -0.548626,-0.813606 -0.133657,-0.315307 -0.201315,-0.650614 -0.201315,-0.996256 0,-0.345638 0.0676575,-0.680614 0.201319,-0.996256 0.128988,-0.304976 0.313642,-0.578622 0.548622,-0.813606 0.234984,-0.234984 0.508961,-0.419634 0.813606,-0.548626 0.315642,-0.133654 0.650614,-0.201315 0.996256,-0.201315 0.345642,0 0.680614,0.0676614 0.99626,0.201319 0.304972,0.128988 0.578622,0.313642 0.813602,0.548626 0.234984,0.23498 0.419638,0.508961 0.548626,0.813606 0.133657,0.315642 0.201319,0.650949 0.201319,0.996256 0,0.345642 -0.0676614,0.680614 -0.201319,0.99626 -0.128988,0.304976 -0.313642,0.578622 -0.548626,0.813606 -0.23498,0.234984 -0.508961,0.419634 -0.813602,0.548626 -0.315646,0.13365 -0.650618,0.201311 -0.99626,0.201311zm0 -4.95962c-1.32323,0 -2.39981,1.07658 -2.39981,2.39981 0,1.32324 1.07658,2.39982 2.39981,2.39982 1.32323,0 2.39981,-1.07659 2.39981,-2.39982 0,-1.32323 -1.07658,-2.39981 -2.39981,-2.39981z"/>
     </g>
    </g>
    <g>
     <g id="_506765512">
      <path id="_285550520" class="fil3" d="M4.55057 4.64324l-2.2745 0c-0.0443307,0 -0.0799921,-0.0356654 -0.0799921,-0.0799921l0 -2.29983c0,-0.0443307 0.0356614,-0.0799921 0.0799921,-0.0799921l1.7332 -3.93701e-006c0.022,0 0.043,0.009 0.0583307,0.025l0.541291 0.574957c0.0139961,0.0149961 0.0216654,0.0343307 0.0216654,0.0549961l0 1.72487c0,0.0443307 -0.0356614,0.0799961 -0.0799921,0.0799961zm-2.1945 -0.159988l2.11484 0 0 -1.61355 -0.496295 -0.526291 -1.61854 0 0 2.13984z"/>
     </g>
     <g id="_506765776">
      <path id="_285550232" class="fil3" d="M3.60898 2.86837l-0.849937 0c-0.131323,0 -0.238315,-0.106992 -0.238315,-0.238315l0 -0.366638c0,-0.0443307 0.0356654,-0.0799921 0.0799921,-0.0799921 0.0443307,0 0.0799961,0.0356614 0.0799961,0.0799921l0 0.366638c0,0.0433346 0.0349961,0.0783307 0.0783268,0.0783307l0.849937 -3.93701e-006c0.0433307,0 0.0783268,-0.0349961 0.0783268,-0.0783268l0 -0.366638c0,-0.0443307 0.0356654,-0.0799921 0.0799921,-0.0799921 0.0443307,0 0.0799921,0.0356614 0.0799921,0.0799921l0 0.366638c0,0.131323 -0.106657,0.238315 -0.238311,0.238315z"/>
     </g>
     <g id="_506765824">
      <path id="_285550784" class="fil3" d="M4.18393 4.64324c-0.0443268,0 -0.0799921,-0.0356654 -0.0799921,-0.0799921l0 -1.08659 -1.38123 0 0 1.08658c0,0.0443307 -0.0356654,0.0799921 -0.0799921,0.0799921 -0.0443307,0 -0.0799961,-0.0356614 -0.0799961,-0.0799921l0 -1.16657c0,-0.0443307 0.0356654,-0.0799921 0.0799961,-0.0799921l1.54155 -3.93701e-006c0.0443307,0 0.0799921,0.0356614 0.0799921,0.0799921l0 1.16658c-0.000330709,0.0443307 -0.0359961,0.0799961 -0.0803268,0.0799961z"/>
     </g>
     <g id="_506765440">
      <path id="_285550688" class="fil3" d="M3.34667 2.86837c-0.0443307,0 -0.0799921,-0.0356614 -0.0799921,-0.0799921l0 -0.524961c0,-0.0443307 0.0356614,-0.0799921 0.0799921,-0.0799921 0.0443268,0 0.0799921,0.0356614 0.0799921,0.0799921l0 0.524961c3.93701e-006,0.0443307 -0.0356654,0.0799921 -0.0799921,0.0799921z"/>
     </g>
     <g id="_506765416">
      <path id="_285549512" class="fil3" d="M3.92162 4.25994l-1.01658 0c-0.0443307,0 -0.0799961,-0.0356654 -0.0799961,-0.0799921l0 -0.399972c0,-0.0443307 0.0356614,-0.0799921 0.0799921,-0.0799921l1.01659 -3.93701e-006c0.0443307,0 0.0799961,0.0356654 0.0799961,0.0799921l0 0.399972c0,0.0443268 -0.0356614,0.0799961 -0.0799961,0.0799961zm-0.936591 -0.159988l0.856598 0 0 -0.239984 -0.856598 0 0 0.239984z"/>
     </g>
    </g>
   </g>
  </g>
  <path class="fil4" d="M4.18393 4.64324l-1.54121 -3.93701e-006 -0.366642 3.93701e-006c-0.0443307,0 -0.0799921,-0.0356654 -0.0799921,-0.0799921l0 -2.29983c0,-0.0443307 0.0356614,-0.0799921 0.0799921,-0.0799921l0.324642 0 0.745945 0 0.420634 0 0.24198 -3.93701e-006c0.022,0 0.043,0.009 0.0583307,0.025l0.541291 0.574957c0.0139961,0.0149961 0.0216654,0.0343307 0.0216654,0.0549961l0 1.72487c0,0.0443307 -0.0356614,0.0799961 -0.0799921,0.0799961l-0.366642 0zm-2.76879 -1.22991c0,1.10192 0.896268,1.99818 1.99818,1.99818 1.10191,0 1.99818,-0.896264 1.99818,-1.99818 0,-1.10191 -0.896268,-1.99818 -1.99818,-1.99818 -1.10191,0 -1.99818,0.896264 -1.99818,1.99818z"/>
  <polygon class="fil5" points="2.98503,4.09995 3.84163,4.09995 3.84163,3.85996 2.98503,3.85996 "/>
  <path class="fil6" d="M3.92162 4.25994l-1.01658 0c-0.0443307,0 -0.0799961,-0.0356654 -0.0799961,-0.0799921l0 -0.399972c0,-0.0443307 0.0356614,-0.0799921 0.0799921,-0.0799921l1.01659 -3.93701e-006c0.0443307,0 0.0799961,0.0356654 0.0799961,0.0799921l0 0.399972c0,0.0443268 -0.0356614,0.0799961 -0.0799961,0.0799961zm-1.19891 0.223315l1.38123 0 0 -1.00659 -1.38123 0 0 1.00659z"/>
  <path class="fil7" d="M2.75904 2.70839l0.50763 -3.93701e-006 0 -0.364972 -0.585957 0 0 0.286646c0,0.0433346 0.0349961,0.0783307 0.0783268,0.0783307z"/>
  <path class="fil7" d="M3.42666 2.34341l0 0.364972 0.182323 0c0.0433307,0 0.0783268,-0.0349961 0.0783268,-0.0783268l0 -0.286646 -0.26065 0z"/>
 </g>
</svg>
