<?xml version="1.0" encoding="UTF-8"?>
<!DOCTYPE svg PUBLIC "-//W3C//DTD SVG 1.1//EN" "http://www.w3.org/Graphics/SVG/1.1/DTD/svg11.dtd">
<!-- Creator: CorelDRAW -->
<svg xmlns="http://www.w3.org/2000/svg" xml:space="preserve" width="6.82666in" height="6.82666in" style="shape-rendering:geometricPrecision; text-rendering:geometricPrecision; image-rendering:optimizeQuality; fill-rule:evenodd; clip-rule:evenodd"
viewBox="0 0 6.82666 6.82666"
 xmlns:xlink="http://www.w3.org/1999/xlink">
 <defs>
  <style type="text/css">
   <![CDATA[
    .fil0 {fill:none}
    .fil1 {fill:#194D80}
    .fil3 {fill:#333333}
    .fil2 {fill:#83501D}
    .fil4 {fill:#98EDFE}
   ]]>
  </style>
 </defs>
 <rect class="fil0" width="6.82666" height="6.82666"/>
 <g id="Layer_x0020_1">
  <metadata id="CorelCorpID_0Corel-Layer"/>
  <path class="fil1" d="M2.38331 1.19668c0.000901575,-0.000594488 0.00163386,-0.000988189 0.0021378,-0.00123622 0.180075,-0.103949 0.378331,-0.170768 0.58472,-0.196236 0.198945,-0.0245472 0.401303,-0.0101339 0.594894,0.0417559 0.399264,0.107012 0.737382,0.365476 0.944146,0.723634 0.124559,0.215764 0.195858,0.45763 0.208862,0.706386 0.0125551,0.240087 -0.029626,0.482079 -0.124685,0.70302 -0.131287,0.305138 -0.356248,0.554957 -0.64924,0.712531 -0.00136614,0.00073622 -0.00280315,0.00143307 -0.0041378,0.00222047 -0.00111811,0.000653543 -0.00220866,0.00139764 -0.00331496,0.00208268 -0.285224,0.176236 -0.617051,0.24598 -0.949362,0.205386 -0.488961,-0.0597323 -0.925331,-0.349941 -1.17144,-0.776417 -0.103972,-0.180173 -0.170803,-0.378524 -0.196252,-0.585012 -0.0245197,-0.198957 -0.0100787,-0.401319 0.0418346,-0.594913 0.106744,-0.398071 0.364035,-0.735362 0.720535,-0.942358l0.000224409 -0.000224409 0.0010748 -0.00061811zm1.47053 2.542c0.160713,-0.0927165 0.299547,-0.214929 0.411346,-0.362945 0.107807,-0.142724 0.185882,-0.30335 0.232173,-0.47613 0.0462874,-0.172764 0.0589803,-0.350949 0.0369567,-0.528437 -0.0228661,-0.18426 -0.0821693,-0.359417 -0.174961,-0.520252 -0.0927165,-0.160713 -0.214929,-0.299543 -0.362945,-0.411346 -0.142724,-0.107807 -0.303346,-0.185882 -0.476126,-0.232173 -0.172768,-0.0462874 -0.350949,-0.0589803 -0.528441,-0.0369567 -0.184256,0.0228701 -0.359413,0.0821693 -0.520248,0.174961 -0.160713,0.0927165 -0.299543,0.214929 -0.411346,0.362945 -0.107807,0.142724 -0.185882,0.303346 -0.232173,0.476126 -0.0462874,0.172768 -0.0589803,0.350949 -0.0369567,0.528441 0.0228661,0.184252 0.0818189,0.359724 0.174626,0.520583 0.0927165,0.160713 0.214929,0.299543 0.362945,0.411346 0.142732,0.107815 0.303402,0.185764 0.476142,0.232177 0.116807,0.0313858 0.23711,0.0474173 0.358055,0.0474173 0.0570551,0 0.114059,-0.00369291 0.170665,-0.0107953 0.184224,-0.023122 0.359425,-0.0821535 0.520287,-0.174961z"/>
  <path class="fil2" d="M4.43344 4.22265c0.0146142,-0.00844094 0.0307992,-0.0129094 0.0476693,-0.0129094 0.00871654,0 0.0174724,0.00162205 0.0257913,0.00416535 0.0241299,0.00737008 0.0445906,0.0221496 0.0572992,0.0441654l0.276988 0.479787 -0.612575 0.353472 -0.27689 -0.479622c-0.0127165,-0.0220276 -0.015748,-0.0481457 -0.00938583,-0.0726811 0.00644882,-0.0248858 0.0222205,-0.0455433 0.0444685,-0.0583976l0.446634 -0.25798zm0.461114 0.607646l0.115591 0.200224 -0.612575 0.353472 -0.115661 -0.20035 0.612646 -0.353346zm0.141224 0.966327c-0.0799567,0.0443307 -0.173465,0.0551024 -0.261917,0.0314252 -0.091126,-0.0243937 -0.167681,-0.0827047 -0.214854,-0.164417l-0.108067 -0.187189 0.612575 -0.353472 0.107972 0.187024c0.0470157,0.0814409 0.0593071,0.177386 0.0349961,0.268205 -0.0243898,0.0911024 -0.0822913,0.167799 -0.164118,0.214874l-0.00617323 0.00355118 -0.000413386 0z"/>
  <g id="_285536384">
   <g id="_506766568">
    <path id="_283959624" class="fil3" d="M3.16322 4.23107c-0.146992,0 -0.293646,-0.0193346 -0.437303,-0.0579961 -0.211646,-0.0566614 -0.407299,-0.152323 -0.581622,-0.28398 -0.180319,-0.136323 -0.329638,-0.305307 -0.44363,-0.502626 -0.113992,-0.197319 -0.185988,-0.411303 -0.213654,-0.635618 -0.0269961,-0.21665 -0.0116654,-0.433969 0.0449961,-0.645618 0.0566654,-0.21165 0.152323,-0.407303 0.28398,-0.581622 0.136323,-0.180323 0.305307,-0.329642 0.502626,-0.443634 0.000334646,-0.000334646 0.000669291,-0.000334646 0.001,-0.000669291 0.196988,-0.113319 0.410307,-0.184984 0.634287,-0.21298 0.21665,-0.0269961 0.433965,-0.0116654 0.645618,0.0449961 0.21165,0.0566654 0.407303,0.152323 0.581622,0.28398 0.180323,0.136323 0.329642,0.305307 0.443634,0.502626 0.113992,0.197319 0.185984,0.411303 0.21365,0.635618 0.027,0.216654 0.0116654,0.433969 -0.0449961,0.645618 -0.0566614,0.21165 -0.152319,0.407303 -0.283976,0.581622 -0.136323,0.180323 -0.305311,0.329642 -0.502626,0.443634 -0.197319,0.113992 -0.411303,0.185988 -0.635618,0.213654 -0.0693346,0.00866535 -0.138661,0.0129961 -0.207988,0.0129961zm-0.765606 -3.01177c-0.728945,0.421634 -0.979594,1.35756 -0.558626,2.08718 0.421299,0.729941 1.35789,0.980591 2.08784,0.559287 0.729941,-0.421299 0.980591,-1.35789 0.559287,-2.08784 -0.421295,-0.72961 -1.35789,-0.980591 -2.0875,-0.559291 -0.000330709,0.000330709 -0.000665354,0.000330709 -0.000996063,0.000665354z"/>
   </g>
   <g id="_506766280">
    <path id="_283959480" class="fil3" d="M3.16289 3.9511c-0.122657,0 -0.24498,-0.016 -0.364972,-0.0483307 -0.176654,-0.0473307 -0.339976,-0.126992 -0.485295,-0.23665 -0.150323,-0.113657 -0.27498,-0.254646 -0.369972,-0.419299 -0.0949961,-0.164654 -0.154657,-0.343311 -0.177988,-0.530626 -0.0223346,-0.180654 -0.00966929,-0.361972 0.0376614,-0.538626 0.0473307,-0.176654 0.126992,-0.339976 0.23665,-0.485295 0.113657,-0.150323 0.254646,-0.27498 0.419299,-0.369972l0 0 0 0c0.164654,-0.0949921 0.342976,-0.154988 0.530291,-0.178323 0.180654,-0.0223346 0.361972,-0.00966535 0.538626,0.0376614 0.176654,0.0473307 0.339976,0.126992 0.485295,0.23665 0.150323,0.113657 0.27498,0.254646 0.369972,0.419299 0.0949921,0.164657 0.154988,0.342976 0.178323,0.530295 0.0223307,0.180654 0.00966535,0.361972 -0.0376614,0.538622 -0.0473307,0.176654 -0.126992,0.339976 -0.23665,0.485299 -0.113657,0.150323 -0.254646,0.274976 -0.419299,0.369972 -0.164657,0.0949921 -0.342976,0.154988 -0.530295,0.178319 -0.0579961,0.00733465 -0.115992,0.0110039 -0.173984,0.0110039zm-0.624287 -2.49015c-0.596287,0.344307 -0.801276,1.10925 -0.456969,1.70554 0.166654,0.288646 0.435969,0.495295 0.757945,0.581622 0.107657,0.0286654 0.21665,0.043 0.324976,0.043 0.216315,0 0.429634,-0.0566654 0.622283,-0.167657 0.596287,-0.344303 0.801272,-1.10925 0.456965,-1.7052 -0.344307,-0.596287 -1.10925,-0.801276 -1.7052,-0.457299l0 0z"/>
   </g>
   <g id="_506766064">
    <path id="_283959504" class="fil3" d="M4.18347 4.3854c-0.0276654,0 -0.0543307,-0.0143307 -0.0693307,-0.0396654l-0.216315 -0.370638c-0.0223346,-0.0379961 -0.00933465,-0.0869921 0.0286614,-0.109327 0.0379961,-0.0223307 0.0869921,-0.00933071 0.109327,0.0286654l0.216319 0.370638c0.0223307,0.0379961 0.00933071,0.0869921 -0.0286654,0.109327 -0.0123307,0.00733071 -0.0263346,0.011 -0.0399961,0.011z"/>
   </g>
   <g id="_506766736">
    <path id="_285551312" class="fil3" d="M4.86709 5.97328c-0.0426654,0 -0.0853307,-0.00566535 -0.127657,-0.0169961 -0.125988,-0.0336654 -0.23098,-0.114327 -0.295976,-0.22665l-0.607283 -1.05192c-0.0306654,-0.0529921 -0.0386654,-0.114657 -0.0226654,-0.173984 0.016,-0.0593307 0.0536614,-0.108661 0.106657,-0.139327l0 0 0.446634 -0.25798c0.0529921,-0.0306654 0.114657,-0.0386614 0.173984,-0.0226614 0.0593307,0.016 0.108661,0.0536614 0.139327,0.106657l0.607283 1.05192c0.0649961,0.112327 0.0819961,0.24365 0.0483307,0.369642 -0.0336654,0.125988 -0.114327,0.23098 -0.22665,0.295976 0,0 -0.000330709,0 -0.000330709,0 -0.0746693,0.0436614 -0.157327,0.0653268 -0.241654,0.0653268zm-0.385972 -1.73687c-0.0119961,0 -0.0236614,0.003 -0.0343307,0.00933465l-0.446634 0.25798c0,0 0,0 0,0 -0.0159961,0.00933071 -0.0273307,0.0239961 -0.0319961,0.0419961 -0.00466535,0.018 -0.00233071,0.0366654 0.00666929,0.0526614l0.607283 1.05192c0.0433307,0.0753268 0.113992,0.129323 0.198654,0.151988 0.0846614,0.0226614 0.172984,0.0113307 0.24798,-0.0323307 0,0 0,0 0.000334646,0 0.0753268,-0.0433346 0.128988,-0.113992 0.151654,-0.198654 0.0226614,-0.0846614 0.0113307,-0.172984 -0.0323307,-0.24798l-0.607287 -1.05192c-0.00933071,-0.016 -0.0239961,-0.0273307 -0.0419961,-0.0319961 -0.00566535,-0.002 -0.012,-0.003 -0.018,-0.003zm-0.520957 0.197654l0 0 0 0z"/>
   </g>
   <g id="_506766688">
    <path id="_285543224" class="fil3" d="M4.37846 5.53664c-0.0276654,0 -0.0546654,-0.0143307 -0.0693268,-0.0399961 -0.022,-0.0383307 -0.009,-0.0873268 0.0293268,-0.109327l0.705283 -0.406969c0.0383268,-0.022 0.0873268,-0.009 0.109327,0.0293307 0.0219961,0.0383307 0.00899606,0.0873268 -0.0293307,0.109327l-0.705283 0.406969c-0.0126654,0.00733465 -0.0266614,0.0106654 -0.0399961,0.0106654z"/>
   </g>
   <g id="_506766184">
    <path id="_285536216" class="fil3" d="M4.20947 5.244c-0.0276654,0 -0.0546654,-0.0143307 -0.0693268,-0.0399961 -0.022,-0.0383307 -0.009,-0.0873268 0.0293268,-0.109327l0.705283 -0.406969c0.0383268,-0.022 0.0873268,-0.009 0.109327,0.0293307 0.0219961,0.0383307 0.00899606,0.0873268 -0.0293307,0.109327l-0.705614 0.406969c-0.0123346,0.00733465 -0.0263307,0.0106654 -0.0396654,0.0106654z"/>
   </g>
   <g>
    <g id="_506766376">
     <path id="_285536120" class="fil3" d="M2.9819 3.29715c-0.007,0 -0.0136654,-0.001 -0.0206654,-0.00266535 -0.0426654,-0.0113307 -0.0679921,-0.0553307 -0.0566614,-0.0979921l0.361638 -1.3499c0.0113307,-0.0426654 0.0553307,-0.0679921 0.0979921,-0.0566614 0.0426614,0.0113307 0.0679921,0.0553307 0.0566614,0.0979921l-0.361638 1.3499c-0.00966929,0.0356614 -0.0419961,0.0593268 -0.0773268,0.0593268z"/>
    </g>
    <g>
     <g id="_506766328">
      <path id="_285536024" class="fil3" d="M2.69925 3.02783c-0.0203307,0 -0.0409961,-0.00766535 -0.0566614,-0.0233307l-0.426969 -0.426969c-0.0313307,-0.0313346 -0.0313307,-0.0819961 0,-0.112992l0.426969 -0.426969c0.0313346,-0.0313307 0.0819961,-0.0313307 0.112992,0 0.0313307,0.0313307 0.0313307,0.0819961 0,0.112992l-0.370307 0.370307 0.370303 0.370303c0.0313346,0.0313307 0.0313346,0.0819921 0,0.112988 -0.0156614,0.016 -0.0359961,0.0236693 -0.0563268,0.0236693z"/>
     </g>
     <g id="_506766952">
      <path id="_285535976" class="fil3" d="M3.62618 3.02783c-0.0203307,0 -0.0409961,-0.00766535 -0.0566614,-0.0233307 -0.0313346,-0.0313346 -0.0313346,-0.0819961 0,-0.112992l0.370303 -0.370303 -0.370303 -0.370642c-0.0313346,-0.0313346 -0.0313346,-0.0819961 0,-0.112992 0.0313307,-0.0313307 0.0819921,-0.0313307 0.112988,0l0.427303 0.426969c0.0313307,0.0313346 0.0313307,0.0819961 0,0.112992l-0.426969 0.426965c-0.0156654,0.0156654 -0.0359961,0.0233346 -0.0566614,0.0233346z"/>
     </g>
    </g>
   </g>
  </g>
  <path class="fil4" d="M3.62618 3.02783c-0.0203307,0 -0.0409961,-0.00766535 -0.0566614,-0.0233307 -0.0313346,-0.0313346 -0.0313346,-0.0819961 0,-0.112992l0.370303 -0.370303 -0.370303 -0.370642c-0.0313346,-0.0313346 -0.0313346,-0.0819961 0,-0.112992 0.0313307,-0.0313307 0.0819921,-0.0313307 0.112988,0l0.427303 0.426969c0.0313307,0.0313346 0.0313307,0.0819961 0,0.112992l-0.426969 0.426965c-0.0156654,0.0156654 -0.0359961,0.0233346 -0.0566614,0.0233346zm-0.786606 0.720276c0.107657,0.0286654 0.21665,0.043 0.324976,0.043 0.216315,0 0.429634,-0.0566654 0.622283,-0.167657 0.596287,-0.344303 0.801272,-1.10925 0.456965,-1.7052 -0.344307,-0.596287 -1.10925,-0.801276 -1.7052,-0.457299 -0.596287,0.344307 -0.801276,1.10925 -0.456969,1.70554 0.166654,0.288646 0.435969,0.495295 0.757945,0.581622zm0.142323 -0.450965c-0.007,0 -0.0136654,-0.001 -0.0206654,-0.00266535 -0.0426654,-0.0113307 -0.0679921,-0.0553307 -0.0566614,-0.0979921l0.361638 -1.3499c0.0113307,-0.0426654 0.0553307,-0.0679921 0.0979921,-0.0566614 0.0426614,0.0113307 0.0679921,0.0553307 0.0566614,0.0979921l-0.361638 1.3499c-0.00966929,0.0356614 -0.0419961,0.0593268 -0.0773268,0.0593268zm-0.282646 -0.269311c-0.0203307,0 -0.0409961,-0.00766535 -0.0566614,-0.0233307l-0.426969 -0.426969c-0.0313307,-0.0313346 -0.0313307,-0.0819961 0,-0.112992l0.426969 -0.426969c0.0313346,-0.0313307 0.0819961,-0.0313307 0.112992,0 0.0313307,0.0313307 0.0313307,0.0819961 0,0.112992l-0.370307 0.370307 0.370303 0.370303c0.0313346,0.0313307 0.0313346,0.0819921 0,0.112988 -0.0156614,0.016 -0.0359961,0.0236693 -0.0563268,0.0236693z"/>
 </g>
</svg>
