<?xml version="1.0" encoding="UTF-8"?>
<!DOCTYPE svg PUBLIC "-//W3C//DTD SVG 1.1//EN" "http://www.w3.org/Graphics/SVG/1.1/DTD/svg11.dtd">
<!-- Creator: CorelDRAW -->
<svg xmlns="http://www.w3.org/2000/svg" xml:space="preserve" width="6.82666in" height="6.82666in" style="shape-rendering:geometricPrecision; text-rendering:geometricPrecision; image-rendering:optimizeQuality; fill-rule:evenodd; clip-rule:evenodd"
viewBox="0 0 6.82666 6.82666"
 xmlns:xlink="http://www.w3.org/1999/xlink">
 <defs>
  <style type="text/css">
   <![CDATA[
    .fil0 {fill:none}
    .fil1 {fill:#0065A3}
    .fil3 {fill:#333333}
    .fil2 {fill:#83501D}
    .fil4 {fill:#98EDFE}
    .fil5 {fill:#C8F5FE}
    .fil6 {fill:#E40048}
   ]]>
  </style>
 </defs>
 <rect class="fil0" width="6.82666" height="6.82666"/>
 <g id="Layer_x0020_1">
  <metadata id="CorelCorpID_0Corel-Layer"/>
  <path class="fil1" d="M3.08869 3.74339c-0.0266772,-0.0827717 -0.0372244,-0.170827 -0.0333031,-0.257606 9.05512e-005,-0.00201575 0.00030315,-0.0041063 0.00030315,-0.00611811 0,-0.0018189 -0.000173228,-0.00369685 -0.000232283,-0.00552362 -0.00288583,-0.0881772 0.00837402,-0.176354 0.032563,-0.261173 0.0238976,-0.0838031 0.0602795,-0.163925 0.10739,-0.23722 0.00154331,-0.00239764 0.00301575,-0.00484252 0.00441732,-0.00732283 0.0393898,-0.0698031 0.0914921,-0.131705 0.147984,-0.188224 0.0273346,-0.0273465 0.055937,-0.0535354 0.0866142,-0.0771063 0.00105118,-0.000807087 0.00209055,-0.00162992 0.00311811,-0.00246457 0.155736,-0.126169 0.345925,-0.199181 0.545713,-0.21239 0.288315,-0.019063 0.571764,0.0877441 0.776154,0.291949 0.0759606,0.0758858 0.143945,0.161878 0.188138,0.260343 0.00144488,0.00321654 0.00300394,0.00638583 0.00467717,0.00949213 0.0718386,0.133386 0.0996496,0.285543 0.0996496,0.435976 0,0.26674 -0.10385,0.517193 -0.292457,0.705799 -0.389079,0.389083 -1.02241,0.388835 -1.41159,7.87402e-006 -0.120457,-0.120346 -0.218079,-0.267579 -0.255602,-0.435429 -0.000980315,-0.00438189 -0.00215748,-0.00871654 -0.0035315,-0.0129882zm1.83386 -0.255059c0,-0.231327 -0.0902756,-0.448862 -0.253839,-0.612429 -0.163563,-0.163563 -0.381102,-0.253839 -0.612429,-0.253839 -0.231327,0 -0.448862,0.0902756 -0.612429,0.253839 -0.0216614,0.0216614 -0.041315,0.0452559 -0.0615315,0.0682441 -0.00244882,0.00278346 -0.00476378,0.00567717 -0.00694488,0.00867717 -0.112756,0.155165 -0.181311,0.334614 -0.185323,0.527492 -1.5748e-005,0.000669291 -3.54331e-005,0.00134252 -3.54331e-005,0.00201575 0,0.000409449 7.87402e-006,0.000818898 1.1811e-005,0.00122441 7.87402e-006,0.00159449 -1.1811e-005,0.00318504 -1.1811e-005,0.00477559 0,0.231358 0.0897913,0.448878 0.253496,0.612417 0.163646,0.163488 0.381075,0.25385 0.612437,0.25385 0.231622,0 0.448925,-0.0901654 0.612768,-0.25385 0.16365,-0.163488 0.253831,-0.38111 0.253831,-0.612417z"/>
  <path class="fil2" d="M5.15367 4.34541c0.00832677,-0.00832677 0.019437,-0.012811 0.031189,-0.012811 0.0117717,0 0.023126,0.00408268 0.0315197,0.0124764l0.243173 0.243173 -0.30102 0.30102 -0.243173 -0.243173c-0.00825984,-0.00825984 -0.012811,-0.0195354 -0.012811,-0.031185 0,-0.0116535 0.00454724,-0.0229291 0.012811,-0.031189l0.238311 -0.238311zm0.381165 0.318122l0.0810394 0.0810394 -0.30102 0.30102 -0.0810472 -0.0810394 0.301028 -0.30102zm0.156319 0.156319l0.0868504 0.0868504c0.0830709,0.0830669 0.0830709,0.217953 0,0.30102 -0.0401732,0.0401772 -0.0937008,0.0621417 -0.150512,0.0621417 -0.056811,0 -0.110339,-0.0219646 -0.150512,-0.0621417l-0.0868465 -0.0868504 0.30102 -0.30102z"/>
  <path class="fil1" d="M0.98685 2.01578l0 -0.258319c0,-0.110713 0.0899409,-0.20065 0.200654,-0.20065l1.11854 0 0.37624 0.458965 -1.69543 3.93701e-006zm0.244315 -0.282646c-0.0296102,0 -0.0533268,0.0237126 -0.0533268,0.0533268 0,0.0296102 0.0237165,0.0533268 0.0533268,0.0533268l0.113992 0c0.029437,0 0.0533268,-0.0238819 0.0533268,-0.0533307 0,-0.0296063 -0.0237165,-0.0533268 -0.0533268,-0.0533268l-0.113992 3.93701e-006zm0.978921 0.106654c0.0296142,0 0.0533307,-0.0237165 0.0533307,-0.0533307 0,-0.0296102 -0.0237205,-0.0533268 -0.0533307,-0.0533268l-0.113988 3.93701e-006c-0.0296102,0 -0.0533307,0.0237126 -0.0533307,0.0533268 0,0.0296142 0.0237205,0.0533268 0.0533307,0.0533268l0.113988 0zm-0.546287 -0.106654c-0.0296102,0 -0.0533268,0.0237126 -0.0533268,0.0533268 0,0.0296102 0.0237165,0.0533268 0.0533268,0.0533268l0.113992 0c0.029437,0 0.0533268,-0.0238819 0.0533268,-0.0533307 0,-0.0296063 -0.0237165,-0.0533268 -0.0533268,-0.0533268l-0.113992 3.93701e-006zm0.780378 -0.176323l2.31072 0c0.104378,0 0.188984,0.0846102 0.188984,0.188988l0 0.269976 -2.12346 0 -0.37624 -0.458965zm2.02374 0.282976c0.029437,0 0.0533268,-0.0238819 0.0533268,-0.0533307 0,-0.0296063 -0.0237165,-0.0533268 -0.0533268,-0.0533268l-1.21191 3.93701e-006c-0.0296102,0 -0.0533268,0.0237126 -0.0533268,0.0533268 0,0.0296102 0.0237165,0.0533268 0.0533268,0.0533268l1.21191 0z"/>
  <g id="_283961160">
   <g id="_506767288">
    <path id="_283964352" class="fil3" d="M3.46099 4.43492l-2.27349 0c-0.183988,0 -0.333976,-0.149654 -0.333976,-0.333972l0 -2.34349c0,-0.184319 0.149988,-0.333972 0.333976,-0.333972l1.14391 0c0.024,0 0.0466614,0.0106654 0.0619961,0.0293307l0.43963 0.536291 2.1645 0c0.0443268,0 0.0799921,0.0356654 0.0799921,0.0799921l0 0.952594c0,0.0443307 -0.0356654,0.0799921 -0.0799921,0.0799921 -0.0443307,0 -0.0799961,-0.0356614 -0.0799961,-0.0799921l0 -0.872598 -2.1225 0c-0.0239961,0 -0.0466614,-0.0106614 -0.0619921,-0.0293268l-0.439634 -0.536295 -1.10591 0c-0.0959961,0 -0.173988,0.0779921 -0.173988,0.173984l0 2.34349c0,0.0959921 0.0779921,0.173988 0.173988,0.173988l2.27349 3.93701e-006c0.0443307,0 0.0799961,0.0356614 0.0799961,0.0799921 0,0.0443268 -0.0356654,0.0799921 -0.0799961,0.0799921z"/>
   </g>
   <g id="_506766760">
    <path id="_283963512" class="fil3" d="M2.79504 2.14909l-1.86152 0c-0.0443307,0 -0.0799921,-0.0356614 -0.0799921,-0.0799921 0,-0.0443268 0.0356614,-0.0799921 0.0799921,-0.0799921l1.86152 -3.93701e-006c0.0443307,0 0.0799921,0.0356654 0.0799921,0.0799921 0,0.0443307 -0.0356614,0.0799961 -0.0799921,0.0799961z"/>
   </g>
   <g id="_506767000">
    <path id="_283963152" class="fil3" d="M4.99721 2.14909c-0.0443307,0 -0.0799961,-0.0356614 -0.0799961,-0.0799921l0 -0.323307c0,-0.0896614 -0.0726614,-0.162323 -0.162319,-0.162323l-2.42348 0c-0.0443307,0 -0.0799921,-0.0356654 -0.0799921,-0.0799961 0,-0.0443268 0.0356614,-0.0799921 0.0799921,-0.0799921l2.42381 0c0.177654,0 0.322307,0.144657 0.322307,0.322307l0 0.323307c-0.000330709,0.0443346 -0.0359961,0.0799961 -0.0803228,0.0799961z"/>
   </g>
   <g id="_506767360">
    <path id="_283963296" class="fil3" d="M4.46792 1.86645l-1.21191 0c-0.0443307,0 -0.0799921,-0.0356614 -0.0799921,-0.0799921 0,-0.0443307 0.0356614,-0.0799921 0.0799921,-0.0799921l1.21191 -3.93701e-006c0.0443268,0 0.0799921,0.0356654 0.0799921,0.0799921 0,0.0443307 -0.0359961,0.0799961 -0.0799921,0.0799961z"/>
   </g>
   <g id="_506767456">
    <path id="_283963680" class="fil3" d="M2.05577 3.12702l-0.398303 0c-0.0693268,0 -0.125657,-0.0563307 -0.125657,-0.125657l0 -0.397972c0,-0.0693268 0.0563307,-0.125657 0.125657,-0.125657l0.398303 0c0.0693307,0 0.125657,0.0563307 0.125657,0.125657l0 0.398303c0,0.0689961 -0.0563268,0.125327 -0.125657,0.125327zm-0.363638 -0.159988l0.329307 0 0 -0.329311 -0.329307 0 0 0.329311zm0.363638 -0.329311l0 0 0 0z"/>
   </g>
   <g id="_506766784">
    <path id="_283963752" class="fil3" d="M2.05577 3.94629l-0.398303 0c-0.0693268,0 -0.125657,-0.0563268 -0.125657,-0.125657l0 -0.397969c0,-0.0693268 0.0563307,-0.125657 0.125657,-0.125657l0.398303 0c0.0693307,0 0.125657,0.0563307 0.125657,0.125657l0 0.398303c0,0.0689961 -0.0563268,0.125323 -0.125657,0.125323zm-0.363638 -0.159984l0.329307 0 0 -0.329311 -0.329307 0 0 0.329311zm0.363638 -0.329311l0 0 0 0z"/>
   </g>
   <g id="_506767624">
    <path id="_283963176" class="fil3" d="M3.40267 2.74005l-0.981591 0c-0.0443307,0 -0.0799961,-0.0356614 -0.0799961,-0.0799921 0,-0.0443307 0.0356654,-0.0799921 0.0799961,-0.0799921l0.981921 -3.93701e-006c0.0443307,0 0.0799921,0.0356654 0.0799921,0.0799921 0,0.0443307 -0.0359921,0.0799961 -0.0803228,0.0799961z"/>
   </g>
   <g id="_506767960">
    <path id="_283962984" class="fil3" d="M4.03261 3.56232l-0.789268 0c-0.0443307,0 -0.0799961,-0.0356614 -0.0799961,-0.0799921 0,-0.0443268 0.0356654,-0.0799921 0.0799961,-0.0799921l0.789268 0c0.0443307,0 0.0799961,0.0356654 0.0799961,0.0799921 0,0.0443307 -0.0356614,0.0799921 -0.0799961,0.0799921z"/>
   </g>
   <g id="_506767672">
    <path id="_283962768" class="fil3" d="M3.00203 3.55965l-0.580953 0c-0.0443307,0 -0.0799961,-0.0356614 -0.0799961,-0.0799921 0,-0.0443307 0.0356654,-0.0799921 0.0799961,-0.0799921l0.581287 0c0.0443307,0 0.0799921,0.0356614 0.0799921,0.0799921 0,0.0443307 -0.0359961,0.0799921 -0.0803268,0.0799921z"/>
   </g>
   <g id="_506768272">
    <path id="_283962624" class="fil3" d="M4.30426 3.06169l-0.883933 0c-0.0443307,0 -0.0799921,-0.0356654 -0.0799921,-0.0799921 0,-0.0443307 0.0356614,-0.0799961 0.0799921,-0.0799961l0.883598 0c0.0443307,0 0.0799921,0.0356654 0.0799921,0.0799961 0,0.0443268 -0.0356614,0.0799921 -0.0796575,0.0799921z"/>
   </g>
   <g id="_506768032">
    <path id="_283962576" class="fil3" d="M3.15202 3.0247l-0.73761 0c-0.0443268,0 -0.0799921,-0.0356654 -0.0799921,-0.0799921 0,-0.0443307 0.0356654,-0.0799961 0.0799921,-0.0799961l0.73761 0c0.0443307,0 0.0799921,0.0356614 0.0799921,0.0799921 0,0.0443307 -0.0359921,0.0799961 -0.0799921,0.0799961z"/>
   </g>
   <g id="_506767528">
    <path id="_283962672" class="fil3" d="M4.30426 3.82863l-1.01859 0c-0.0443268,0 -0.0799921,-0.0356654 -0.0799921,-0.0799921 0,-0.0443307 0.0356654,-0.0799961 0.0799921,-0.0799961l1.01826 0c0.0443307,0 0.0799921,0.0356654 0.0799921,0.0799961 0,0.0443268 -0.0356614,0.0799921 -0.0796575,0.0799921z"/>
   </g>
   <g id="_506767816">
    <path id="_283962216" class="fil3" d="M3.03936 3.84396l-0.624953 0c-0.0443268,0 -0.0799921,-0.0356614 -0.0799921,-0.0799921 0,-0.0443307 0.0356654,-0.0799921 0.0799921,-0.0799921l0.624953 0c0.0443307,0 0.0799961,0.0356614 0.0799961,0.0799921 0,0.0443307 -0.036,0.0799921 -0.0799961,0.0799921z"/>
   </g>
   <g id="_506767840">
    <path id="_283961856" class="fil3" d="M4.05361 4.61757c-0.146988,0 -0.290311,-0.028 -0.425634,-0.0829921 -0.140323,-0.0569961 -0.266315,-0.140657 -0.374303,-0.24865 -0.107992,-0.107992 -0.191654,-0.23398 -0.24865,-0.374303 -0.0549961,-0.135657 -0.0829921,-0.27898 -0.0829921,-0.425634 0,-0.146992 0.028,-0.290311 0.0829921,-0.425634 0.0569961,-0.140323 0.140657,-0.266315 0.24865,-0.374307l0.0566614 0.0566614 -0.0566614 -0.0566614c0.107988,-0.107992 0.23398,-0.19165 0.374303,-0.248646 0.135657,-0.055 0.27898,-0.0829921 0.425634,-0.0829921 0.146988,0 0.290311,0.0279961 0.425634,0.0829921 0.140323,0.0569961 0.266311,0.140654 0.374303,0.248646 0.107992,0.107992 0.191654,0.233984 0.24865,0.374307 0.0549961,0.135654 0.0829921,0.278976 0.0829921,0.425634 0,0.146654 -0.028,0.290311 -0.0829921,0.425634 -0.0569961,0.140323 -0.140657,0.266311 -0.24865,0.374303 -0.107992,0.107992 -0.23398,0.191654 -0.374303,0.24865 -0.135319,0.0553268 -0.278646,0.0829921 -0.425634,0.0829921zm-0.686945 -1.81853c-0.183319,0.183654 -0.284646,0.427634 -0.284646,0.686949 0,0.259646 0.100992,0.503626 0.284646,0.686945 0.378638,0.378642 0.995256,0.378642 1.37389,0 0.183654,-0.183654 0.284646,-0.427299 0.284646,-0.686945 0,-0.259646 -0.100992,-0.50363 -0.284646,-0.686949 -0.378638,-0.378638 -0.994925,-0.378638 -1.37389,0 0,0 0,0 0,0z"/>
   </g>
   <g id="_506768512">
    <path id="_283962096" class="fil3" d="M4.05595 4.38126c-0.238315,0 -0.46263,-0.0929921 -0.631283,-0.26165 -0.168657,-0.168319 -0.261315,-0.392638 -0.261315,-0.631283 0,-0.238315 0.0929921,-0.462634 0.261646,-0.631283 0,0 0,0 0,0 0.168654,-0.168654 0.392969,-0.26165 0.631283,-0.26165 0.238315,0 0.462634,0.0929961 0.631283,0.26165 0.168654,0.168654 0.26165,0.392969 0.26165,0.631283 0,0.238315 -0.0929961,0.462634 -0.26165,0.631283 -0.168984,0.168657 -0.392965,0.26165 -0.631614,0.26165zm-0.517961 -1.41089c-0.285646,0.285646 -0.285646,0.75061 0,1.03626 0.138323,0.138323 0.322307,0.21465 0.518291,0.21465 0.195654,0 0.379638,-0.0763307 0.518295,-0.21465 0.285646,-0.285646 0.285646,-0.75061 0,-1.03626 -0.138323,-0.138323 -0.322307,-0.21465 -0.518295,-0.21465 -0.195984,0 -0.379969,0.0763268 -0.518291,0.21465l0 0z"/>
   </g>
   <g id="_506768368">
    <path id="_283961808" class="fil3" d="M4.99688 4.50692c-0.0203307,0 -0.0406614,-0.00766535 -0.0563307,-0.0233307l-0.199319 -0.197319c-0.0313307,-0.031 -0.0316614,-0.0816614 -0.000665354,-0.112992 0.0309961,-0.0313307 0.0816614,-0.0316614 0.112988,-0.000665354l0.199319 0.197315c0.0313346,0.031 0.0316654,0.0816614 0.000669291,0.112992 -0.0156654,0.016 -0.0363307,0.024 -0.0566614,0.024z"/>
   </g>
   <g id="_506767792">
    <path id="_283961544" class="fil3" d="M5.62716 5.40318c-0.0926614,0 -0.179654,-0.0359961 -0.24465,-0.100992l-0.561622 -0.561626c-0.0333307,-0.0333307 -0.052,-0.0779921 -0.052,-0.125654 0,-0.0476654 0.0183346,-0.0919921 0.052,-0.125657l0.238311 -0.238315c0.0693307,-0.0693268 0.181988,-0.0693268 0.251315,0l0.561626 0.561626c0.0653268,0.0653268 0.100992,0.151988 0.100992,0.244646 0,0.0926614 -0.036,0.179654 -0.100992,0.244646 -0.0649961,0.0649961 -0.152319,0.101327 -0.24498,0.101327zm-0.442299 -1.04392c-0.00466535,0 -0.009,0.00166535 -0.0123346,0.005l-0.238311 0.238311c0,0 0,0 0,0 -0.004,0.004 -0.005,0.009 -0.005,0.0123346 0,0.00333071 0.001,0.00833071 0.005,0.0123307l0.561622 0.561626c0.035,0.0349961 0.0816614,0.0543307 0.131657,0.0543307 0.0499961,0 0.0966614,-0.0193346 0.131657,-0.0543307 0.0726614,-0.0726614 0.0726614,-0.19065 0,-0.263311l-0.561626 -0.561626c-0.00366535,-0.00299606 -0.008,-0.00466535 -0.0126654,-0.00466535zm-0.307307 0.186654l0 0 0 0z"/>
   </g>
   <g id="_506769016">
    <path id="_283960944" class="fil3" d="M5.31452 5.2012c-0.0203307,0 -0.0409961,-0.00766535 -0.0566614,-0.0233307 -0.0313346,-0.0313307 -0.0313346,-0.0819921 0,-0.112988l0.376303 -0.376303c0.0313307,-0.0313346 0.0819921,-0.0313346 0.112988,0 0.0313346,0.0313307 0.0313346,0.0819921 0,0.112988l-0.376303 0.376303c-0.0153307,0.0153307 -0.0359961,0.0233307 -0.0563268,0.0233307z"/>
   </g>
   <g id="_506768464">
    <path id="_283960800" class="fil3" d="M5.1582 5.04488c-0.0203307,0 -0.0409961,-0.00766535 -0.0566614,-0.0233346 -0.0313307,-0.0313307 -0.0313307,-0.0819921 0,-0.112988l0.376303 -0.376303c0.0313307,-0.0313346 0.0819961,-0.0313346 0.112992,0 0.0313307,0.0313307 0.0313307,0.0819961 0,0.112988l-0.376303 0.376303c-0.0153346,0.0153307 -0.0356654,0.0233346 -0.0563307,0.0233346z"/>
   </g>
   <g>
    <g id="_506768920">
     <path id="_283961472" class="fil3" d="M1.34516 1.86645l-0.113992 0c-0.0443307,0 -0.0799921,-0.0356614 -0.0799921,-0.0799921 0,-0.0443307 0.0356614,-0.0799921 0.0799921,-0.0799921l0.113992 -3.93701e-006c0.0443268,0 0.0799921,0.0356654 0.0799921,0.0799921 0,0.0443307 -0.036,0.0799961 -0.0799921,0.0799961z"/>
    </g>
    <g id="_506768416">
     <path id="_283960992" class="fil3" d="M1.77779 1.86645l-0.113992 0c-0.0443307,0 -0.0799921,-0.0356614 -0.0799921,-0.0799921 0,-0.0443307 0.0356614,-0.0799921 0.0799921,-0.0799921l0.113992 -3.93701e-006c0.0443268,0 0.0799921,0.0356654 0.0799921,0.0799921 0,0.0443307 -0.0359961,0.0799961 -0.0799921,0.0799961z"/>
    </g>
    <g id="_506768680">
     <path id="_283961328" class="fil3" d="M2.21009 1.86645l-0.113988 0c-0.0443307,0 -0.0799961,-0.0356614 -0.0799961,-0.0799921 0,-0.0443307 0.0356654,-0.0799921 0.0799961,-0.0799921l0.113988 -3.93701e-006c0.0443307,0 0.0799961,0.0356654 0.0799961,0.0799921 0,0.0443307 -0.0356614,0.0799961 -0.0799961,0.0799961z"/>
    </g>
   </g>
  </g>
  <path class="fil4" d="M4.30426 3.06169l-0.843839 0c-0.073622,0.10265 -0.1175,0.220213 -0.131634,0.340642l0.703823 0c0.0443307,0 0.0799961,0.0356654 0.0799961,0.0799921 0,0.0443307 -0.0356614,0.0799921 -0.0799961,0.0799921l-0.705165 0c0.00358661,0.0357638 0.00979134,0.071311 0.0186142,0.106327l0.957866 0c0.0443307,0 0.0799921,0.0356654 0.0799921,0.0799961 0,0.0443268 -0.0356614,0.0799921 -0.0796575,0.0799921l-0.897224 0c0.0335276,0.0640906 0.0771772,0.124217 0.130949,0.177988 0.138323,0.138323 0.322307,0.21465 0.518291,0.21465 0.195654,0 0.379638,-0.0763307 0.518295,-0.21465 0.285646,-0.285646 0.285646,-0.75061 0,-1.03626 -0.138323,-0.138323 -0.322307,-0.21465 -0.518295,-0.21465 -0.160665,0 -0.313264,0.0512953 -0.439252,0.145988l0.686902 0c0.0443307,0 0.0799921,0.0356654 0.0799921,0.0799961 0,0.0443268 -0.0356614,0.0799921 -0.0796575,0.0799921z"/>
  <path class="fil5" d="M2.42107 2.58007l0.95463 -3.93701e-006c0.0774961,-0.0581929 0.161913,-0.105953 0.252276,-0.142654 0.135657,-0.055 0.27898,-0.0829921 0.425634,-0.0829921 0.146988,0 0.290311,0.0279961 0.425634,0.0829921 0.140323,0.0569961 0.266311,0.140654 0.374303,0.248646 0.0223858,0.0223858 0.0437244,0.0455433 0.0639961,0.0694409l0 -0.606402 -2.1225 0 -1.78153 0 0 1.95185c0,0.0959921 0.0779921,0.173988 0.173988,0.173988l2.05532 3.93701e-006c-0.10276,-0.105516 -0.182728,-0.22772 -0.237799,-0.363307 -0.00906299,-0.0223543 -0.0173898,-0.0449134 -0.0249843,-0.0676654l-0.565638 0c-0.0443268,0 -0.0799921,-0.0356614 -0.0799921,-0.0799921 0,-0.0443307 0.0356654,-0.0799921 0.0799921,-0.0799921l0.524972 0c-0.00727559,-0.0410394 -0.0122756,-0.0825157 -0.0149724,-0.124327l-0.503331 0c-0.0443307,0 -0.0799961,-0.0356614 -0.0799961,-0.0799921 0,-0.0443307 0.0356654,-0.0799921 0.0799961,-0.0799921l0.504205 0c0.00882283,-0.116768 0.0355787,-0.230618 0.079748,-0.339307 0.00487008,-0.0119921 0.00993701,-0.0238819 0.0151969,-0.0356654l-0.605819 0c-0.0443268,0 -0.0799921,-0.0356654 -0.0799921,-0.0799921 0,-0.0443307 0.0356654,-0.0799961 0.0799921,-0.0799961l0.693425 0c0.028685,-0.0435512 0.0604488,-0.0851535 0.095189,-0.124657l-0.781945 0c-0.0443307,0 -0.0799961,-0.0356614 -0.0799961,-0.0799921 0,-0.0443307 0.0356654,-0.0799921 0.0799961,-0.0799921zm-0.23965 0.0233268l0 0.398303c0,0.0689961 -0.0563268,0.125327 -0.125657,0.125327l-0.398303 0c-0.0693268,0 -0.125657,-0.0563307 -0.125657,-0.125657l0 -0.397972c0,-0.0693268 0.0563307,-0.125657 0.125657,-0.125657l0.398303 0c0.0693307,0 0.125657,0.0563307 0.125657,0.125657zm-0.125657 0.693614c0.0693307,0 0.125657,0.0563307 0.125657,0.125657l0 0.398303c0,0.0689961 -0.0563268,0.125323 -0.125657,0.125323l-0.398303 0c-0.0693268,0 -0.125657,-0.0563268 -0.125657,-0.125657l0 -0.397969c0,-0.0693268 0.0563307,-0.125657 0.125657,-0.125657l0.398303 0z"/>
  <polygon class="fil6" points="2.02144,2.96704 2.02144,2.63772 1.69213,2.63772 1.69213,2.96704 "/>
  <polygon class="fil6" points="2.02144,3.457 1.69213,3.457 1.69213,3.78631 2.02144,3.78631 "/>
 </g>
</svg>
