<?xml version="1.0" encoding="UTF-8"?>
<!DOCTYPE svg PUBLIC "-//W3C//DTD SVG 1.1//EN" "http://www.w3.org/Graphics/SVG/1.1/DTD/svg11.dtd">
<!-- Creator: CorelDRAW -->
<svg xmlns="http://www.w3.org/2000/svg" xml:space="preserve" width="6.82666in" height="6.82666in" style="shape-rendering:geometricPrecision; text-rendering:geometricPrecision; image-rendering:optimizeQuality; fill-rule:evenodd; clip-rule:evenodd"
viewBox="0 0 6.82666 6.82666"
 xmlns:xlink="http://www.w3.org/1999/xlink">
 <defs>
  <style type="text/css">
   <![CDATA[
    .fil0 {fill:none}
    .fil2 {fill:#00CB77}
    .fil3 {fill:#00DC7F}
    .fil1 {fill:#333333}
    .fil4 {fill:#98EDFE}
   ]]>
  </style>
 </defs>
 <rect class="fil0" width="6.82666" height="6.82666"/>
 <g id="Layer_x0020_1">
  <metadata id="CorelCorpID_0Corel-Layer"/>
  <g id="_283965504">
   <g>
    <g id="_506769400">
     <path id="_283968024" class="fil1" d="M3.4135 5.97313c-0.0146654,0 -0.0289961,-0.004 -0.0419961,-0.012 -0.24798,-0.152319 -0.480299,-0.328307 -0.69128,-0.523291 -0.210984,-0.194984 -0.401303,-0.410634 -0.566291,-0.640283 -0.0256614,-0.0359961 -0.0176654,-0.0859921 0.0183346,-0.111657 0.0359961,-0.0256654 0.0859921,-0.0176654 0.111657,0.0183307 0.311311,0.433965 0.704614,0.801937 1.16924,1.09458 0.46463,-0.292642 0.857937,-0.660618 1.16924,-1.09458 0.0256654,-0.0359961 0.0756614,-0.0439961 0.111657,-0.0183307 0.036,0.0256614 0.0439961,0.0756614 0.0183346,0.111657 -0.164654,0.22965 -0.355307,0.444969 -0.566291,0.640283 -0.21065,0.194984 -0.443299,0.371303 -0.69128,0.523291 -0.0123386,0.008 -0.0266693,0.012 -0.0413346,0.012zm-1.81553 -2.33349c-0.0346614,0 -0.0666614,-0.0226614 -0.0766575,-0.0576614 -0.100992,-0.348976 -0.152323,-0.710945 -0.152323,-1.07525 0,-0.214315 0.018,-0.429634 0.0529961,-0.639953 0.00533071,-0.0319961 0.0296614,-0.0576614 0.0613307,-0.0646575 0.696941,-0.158323 1.34656,-0.47963 1.87852,-0.929594 0.0296654,-0.0253346 0.0736614,-0.0253346 0.103331,0 0.532291,0.450299 1.18157,0.77161 1.87852,0.929264 0.0316654,0.00733071 0.0559961,0.0326614 0.0613307,0.0646575 0.0353307,0.210654 0.0533268,0.425969 0.0533268,0.639953 0,0.364307 -0.0513268,0.725945 -0.152319,1.07525 -0.0123346,0.0423307 -0.0566614,0.0669961 -0.0989921,0.0546614 -0.0423307,-0.0123307 -0.0669961,-0.0566614 -0.0546654,-0.0989921 0.0966614,-0.334638 0.145988,-0.681614 0.145988,-1.03059 0,-0.187319 -0.0143307,-0.375972 -0.0426614,-0.561291 -0.344976,-0.0823268 -0.678949,-0.203319 -0.99326,-0.359638 -0.304307,-0.151323 -0.589622,-0.335642 -0.848933,-0.548291 -0.259311,0.21265 -0.544626,0.396969 -0.848937,0.548291 -0.314307,0.156319 -0.648283,0.277311 -0.993256,0.359638 -0.0283346,0.184984 -0.0426654,0.373638 -0.0426654,0.561291 0,0.349307 0.0489961,0.695949 0.145988,1.03059 0.0123307,0.0423307 -0.0123346,0.0866614 -0.0546614,0.0989921 -0.00733071,0.00233465 -0.0146654,0.00333071 -0.0219961,0.00333071z"/>
    </g>
    <g id="_506769208">
     <path id="_283967976" class="fil1" d="M3.4135 5.50483c-0.016,0 -0.0319961,-0.00499606 -0.0459961,-0.0146654 -0.282315,-0.197984 -0.535961,-0.429634 -0.75361,-0.687945 -0.0283346,-0.0336654 -0.0243346,-0.0843268 0.00966535,-0.112657 0.0336654,-0.0283307 0.0843268,-0.0243307 0.112657,0.00966535 0.196984,0.23365 0.424634,0.444634 0.67728,0.627287 0.25265,-0.182654 0.480299,-0.393638 0.677283,-0.627287 0.0283307,-0.0336614 0.0789921,-0.0379961 0.112657,-0.00966535 0.0336614,0.0283346 0.0379961,0.0789961 0.00966535,0.112657 -0.21765,0.258315 -0.471299,0.48963 -0.75361,0.687945 -0.0139961,0.01 -0.0299921,0.0146654 -0.0459921,0.0146654zm-1.40622 -1.86519c-0.0336654,0 -0.0649961,-0.0213307 -0.0759961,-0.0553307 -0.113327,-0.348303 -0.170984,-0.710941 -0.170984,-1.07758 0,-0.106657 0.00499606,-0.21465 0.0146654,-0.320976 0.003,-0.0329961 0.0259961,-0.0606614 0.0576614,-0.0696614 0.558287,-0.158984 1.07425,-0.410965 1.53355,-0.748606 0.0283346,-0.0206614 0.0666654,-0.0206614 0.0946614,0 0.459299,0.337976 0.97526,0.589622 1.53321,0.748945 0.0316614,0.009 0.0546654,0.0366654 0.0576614,0.0696614 0.00966929,0.106327 0.0146654,0.214315 0.0146654,0.320976 0,0.366638 -0.0576614,0.72928 -0.170984,1.07758 -0.0136654,0.0419961 -0.0586614,0.0649921 -0.100992,0.0513307 -0.0419961,-0.0136654 -0.0649961,-0.0586614 -0.0513307,-0.100992 0.108327,-0.332307 0.162988,-0.678283 0.162988,-1.02826 0,-0.0836614 -0.00333071,-0.168319 -0.00966535,-0.25198 -0.536291,-0.159657 -1.03459,-0.402638 -1.48289,-0.723945 -0.447969,0.321307 -0.946594,0.564622 -1.48389,0.723941 -0.00633465,0.0836614 -0.00966929,0.168323 -0.00966929,0.25198 0,0.349972 0.055,0.695614 0.162992,1.02826 0.0136614,0.0419961 -0.00933465,0.0869961 -0.0513307,0.100992 -0.00766535,0.00233465 -0.016,0.00366535 -0.0243307,0.00366535z"/>
    </g>
    <g>
     <g id="_506769136">
      <path id="_283968288" class="fil1" d="M3.24785 3.262c-0.007,0 -0.0136654,-0.001 -0.0206654,-0.00266535 -0.0426654,-0.0113307 -0.0679961,-0.0553307 -0.0566614,-0.0979921l0.331307 -1.23624c0.0113307,-0.0426614 0.0553268,-0.0679921 0.0979882,-0.0566614 0.0426654,0.0113307 0.0679961,0.0553307 0.0566654,0.0979921l-0.331307 1.23624c-0.00966535,0.0356654 -0.0419961,0.0593268 -0.0773268,0.0593268z"/>
     </g>
     <g>
      <g id="_506769232">
       <path id="_283967856" class="fil1" d="M2.98887 3.01536c-0.0203307,0 -0.0409961,-0.00766142 -0.0566614,-0.0233307l-0.390972 -0.390969c-0.0313307,-0.0313346 -0.0313307,-0.0819961 0,-0.112992l0.391303 -0.391307c0.0313307,-0.0313307 0.0819961,-0.0313307 0.112992,0 0.0313307,0.0313346 0.0313307,0.0819961 0,0.112992l-0.334642 0.334642 0.334642 0.334642c0.0313307,0.0313307 0.0313307,0.0819961 0,0.112992 -0.0156654,0.0156654 -0.0359961,0.0233307 -0.0566614,0.0233307z"/>
      </g>
      <g id="_506761384">
       <path id="_283967136" class="fil1" d="M3.83813 3.01536c-0.0203307,0 -0.0409961,-0.00766142 -0.0566614,-0.0233307 -0.0313346,-0.0313307 -0.0313346,-0.0819921 0,-0.112988l0.334638 -0.334642 -0.334638 -0.334642c-0.0313346,-0.0313346 -0.0313346,-0.0819961 0,-0.112992 0.0313307,-0.0313307 0.0819921,-0.0313307 0.112988,0l0.390972 0.390972c0.0313307,0.0313307 0.0313307,0.0819961 0,0.112992l-0.390969 0.391299c-0.0156654,0.0156654 -0.0359961,0.0233307 -0.0563307,0.0233307z"/>
      </g>
     </g>
    </g>
    <g id="_506761768">
     <path id="_283967184" class="fil1" d="M5.34535 4.83089l-3.8637 0c-0.202984,0 -0.367972,-0.164984 -0.367972,-0.367969l-3.93701e-006 -0.615622c0,-0.202984 0.164988,-0.367972 0.367972,-0.367972l3.86337 0c0.202984,0 0.367972,0.164988 0.367972,0.367972l0 0.615953c0,0.202654 -0.164988,0.367638 -0.367642,0.367638zm-3.8637 -1.19124c-0.114657,0 -0.207984,0.0933268 -0.207984,0.207988l0 0.615618c0,0.114661 0.0933268,0.207988 0.207984,0.207988l3.86337 -3.93701e-006c0.114657,0 0.207984,-0.0933268 0.207984,-0.207984l0 -0.615953c0,-0.114657 -0.0933268,-0.207984 -0.207988,-0.207984l-3.86337 0 0 0.000330709z"/>
    </g>
    <g>
     <g>
      <g id="_506761456">
       <path id="_283967160" class="fil1" d="M2.18093 4.60191c-0.0443268,0 -0.0799921,-0.0356654 -0.0799921,-0.0799961l0 -0.733276c0,-0.0443307 0.0356654,-0.0799921 0.0799921,-0.0799921 0.0443307,0 0.0799961,0.0356614 0.0799961,0.0799921l0 0.733276c0,0.0443307 -0.0356654,0.0799961 -0.0799961,0.0799961z"/>
      </g>
      <g id="_506761720">
       <path id="_283967328" class="fil1" d="M1.92161 4.49458c-0.0203307,0 -0.0409961,-0.00766535 -0.0566614,-0.0233307 -0.0313307,-0.0313307 -0.0313307,-0.0819961 0,-0.112992l0.518626 -0.518961c0.0313346,-0.0313307 0.0819961,-0.0313307 0.112992,0 0.0313307,0.0313346 0.0313307,0.0819961 0,0.112992l-0.518626 0.518626c-0.0153346,0.0156654 -0.0356654,0.0236654 -0.0563307,0.0236654z"/>
      </g>
      <g id="_506761480">
       <path id="_283966896" class="fil1" d="M2.54757 4.23527l-0.733276 0c-0.0443307,0 -0.0799921,-0.0356654 -0.0799921,-0.0799921 0,-0.0443307 0.0356614,-0.0799961 0.0799921,-0.0799961l0.733276 0c0.0443307,0 0.0799921,0.0356614 0.0799921,0.0799921 0,0.0443268 -0.0356614,0.0799961 -0.0799921,0.0799961z"/>
      </g>
      <g id="_506761504">
       <path id="_283966872" class="fil1" d="M2.44024 4.49458c-0.0203307,0 -0.0409921,-0.00766535 -0.0566614,-0.0233307l-0.518291 -0.518626c-0.0313346,-0.0313346 -0.0313346,-0.0819961 0,-0.112992 0.0313307,-0.0313307 0.0819921,-0.0313307 0.112988,0l0.51863 0.518295c0.0313307,0.0313307 0.0313307,0.0819921 0,0.112988 -0.0156693,0.0156654 -0.0363307,0.0236654 -0.0566654,0.0236654z"/>
      </g>
     </g>
     <g>
      <g id="_506761888">
       <path id="_283966680" class="fil1" d="M3.4135 4.60191c-0.0443307,0 -0.0799921,-0.0356654 -0.0799921,-0.0799961l0 -0.733276c0,-0.0443307 0.0356614,-0.0799921 0.0799921,-0.0799921 0.0443307,0 0.0799921,0.0356614 0.0799921,0.0799921l0 0.733276c0,0.0443307 -0.0356614,0.0799961 -0.0799921,0.0799961z"/>
      </g>
      <g id="_506761936">
       <path id="_283966176" class="fil1" d="M3.15419 4.49458c-0.0203307,0 -0.0409961,-0.00766535 -0.0566614,-0.0233307 -0.0313346,-0.0313307 -0.0313346,-0.0819961 0,-0.112992l0.518626 -0.518626c0.0313307,-0.0313307 0.0819961,-0.0313307 0.112988,0 0.0313346,0.0313307 0.0313346,0.0819961 0,0.112992l-0.518626 0.518626c-0.0153307,0.0153307 -0.0356614,0.0233307 -0.0563268,0.0233307z"/>
      </g>
      <g id="_506762272">
       <path id="_283966392" class="fil1" d="M3.78014 4.23527l-0.733276 0c-0.0443307,0 -0.0799961,-0.0356654 -0.0799961,-0.0799921 0,-0.0443307 0.0356654,-0.0799961 0.0799961,-0.0799961l0.733276 0c0.0443307,0 0.0799961,0.0356614 0.0799961,0.0799921 0,0.0443268 -0.0356654,0.0799961 -0.0799961,0.0799961z"/>
      </g>
      <g id="_506762776">
       <path id="_283966440" class="fil1" d="M3.67281 4.49458c-0.0203307,0 -0.0409961,-0.00766535 -0.0566614,-0.0233307l-0.518626 -0.518626c-0.0313346,-0.0313346 -0.0313346,-0.0819961 0,-0.112992 0.0313307,-0.0313307 0.0819961,-0.0313307 0.112988,0l0.51863 0.518626c0.0313307,0.0313346 0.0313307,0.0819961 0,0.112992 -0.0153307,0.0153307 -0.0359961,0.0233307 -0.0563307,0.0233307z"/>
      </g>
     </g>
     <g>
      <g id="_506762392">
       <path id="_283965576" class="fil1" d="M4.64607 4.60191c-0.0443307,0 -0.0799961,-0.0356654 -0.0799961,-0.0799961l0 -0.733276c0,-0.0443307 0.0356654,-0.0799921 0.0799961,-0.0799921 0.0443268,0 0.0799921,0.0356614 0.0799921,0.0799921l0 0.733276c0,0.0443307 -0.036,0.0799961 -0.0799921,0.0799961z"/>
      </g>
      <g id="_506762320">
       <path id="_283965696" class="fil1" d="M4.38676 4.49458c-0.0203346,0 -0.0409961,-0.00766535 -0.0566654,-0.0233307 -0.0313307,-0.0313307 -0.0313307,-0.0819961 0,-0.112992l0.51863 -0.518626c0.0313307,-0.0313307 0.0819921,-0.0313307 0.112988,0 0.0313346,0.0313307 0.0313346,0.0819961 0,0.112992l-0.518291 0.518626c-0.0156654,0.0153307 -0.0363307,0.0233307 -0.0566614,0.0233307z"/>
      </g>
      <g id="_506762152">
       <path id="_283965936" class="fil1" d="M5.01271 4.23527l-0.733276 0c-0.0443307,0 -0.0799921,-0.0356654 -0.0799921,-0.0799921 0,-0.0443307 0.0356614,-0.0799961 0.0799921,-0.0799961l0.733276 0c0.0443307,0 0.0799921,0.0356614 0.0799921,0.0799921 0,0.0443268 -0.0359921,0.0799961 -0.0799921,0.0799961z"/>
      </g>
      <g id="_506762176">
       <path id="_283965528" class="fil1" d="M4.90539 4.49458c-0.0203307,0 -0.0409961,-0.00766535 -0.0566614,-0.0233307l-0.51863 -0.518626c-0.0313307,-0.0313346 -0.0313307,-0.0819961 0,-0.112992 0.0313346,-0.0313307 0.0819961,-0.0313307 0.112992,0l0.518626 0.518626c0.0313346,0.0313346 0.0313346,0.0819961 0,0.112992 -0.0156614,0.0153307 -0.0359961,0.0233307 -0.0563268,0.0233307z"/>
      </g>
     </g>
    </g>
   </g>
  </g>
  <path class="fil2" d="M1.83262 2.11609c0.558287,-0.158984 1.07425,-0.410965 1.53355,-0.748606 0.0283346,-0.0206614 0.0666654,-0.0206614 0.0946614,0 0.459299,0.337976 0.97526,0.589622 1.53321,0.748945 0.0316614,0.009 0.0546654,0.0366654 0.0576614,0.0696614 0.00966929,0.106327 0.0146654,0.214315 0.0146654,0.320976 0,0.329831 -0.0466654,0.656425 -0.138539,0.972256l0.24078 0c0.0859409,-0.316654 0.129744,-0.643736 0.129744,-0.972591 0,-0.187319 -0.0143307,-0.375972 -0.0426614,-0.561291 -0.344976,-0.0823268 -0.678949,-0.203319 -0.99326,-0.359638 -0.304307,-0.151323 -0.589622,-0.335642 -0.848933,-0.548291 -0.259311,0.21265 -0.544626,0.396969 -0.848937,0.548291 -0.314307,0.156319 -0.648283,0.277311 -0.993256,0.359638 -0.0283346,0.184984 -0.0426654,0.373638 -0.0426654,0.561291 0,0.329169 0.0435079,0.655972 0.129693,0.972591l0.240594 0c-0.0919409,-0.315937 -0.138634,-0.642646 -0.138634,-0.972594 0,-0.106657 0.00499606,-0.21465 0.0146654,-0.320976 0.003,-0.0329961 0.0259961,-0.0606614 0.0576614,-0.0696614z"/>
  <path class="fil3" d="M3.4135 1.53081c-0.447969,0.321307 -0.946594,0.564622 -1.48389,0.723941 -0.00633465,0.0836614 -0.00966929,0.168323 -0.00966929,0.25198 0,0.330492 0.0490472,0.657126 0.145453,0.972594l2.69527 0c0.0966417,-0.315205 0.145382,-0.642114 0.145382,-0.972591 0,-0.0836614 -0.00333071,-0.168319 -0.00966535,-0.25198 -0.536291,-0.159657 -1.03459,-0.402638 -1.48289,-0.723945zm-0.481295 1.46122l-0.390972 -0.390969c-0.0313307,-0.0313346 -0.0313307,-0.0819961 0,-0.112992l0.391303 -0.391307c0.0313307,-0.0313307 0.0819961,-0.0313307 0.112992,0 0.0313307,0.0313346 0.0313307,0.0819961 0,0.112992l-0.334642 0.334642 0.334642 0.334642c0.0313307,0.0313307 0.0313307,0.0819961 0,0.112992 -0.0156654,0.0156654 -0.0359961,0.0233307 -0.0566614,0.0233307 -0.0203307,0 -0.0409961,-0.00766142 -0.0566614,-0.0233307zm0.294976 0.267311c-0.0426654,-0.0113307 -0.0679961,-0.0553307 -0.0566614,-0.0979921l0.331307 -1.23624c0.0113307,-0.0426614 0.0553268,-0.0679921 0.0979882,-0.0566614 0.0426654,0.0113307 0.0679961,0.0553307 0.0566654,0.0979921l-0.331307 1.23624c-0.00966535,0.0356654 -0.0419961,0.0593268 -0.0773268,0.0593268 -0.007,0 -0.0136654,-0.001 -0.0206654,-0.00266535zm0.610953 -0.24398c-0.0203307,0 -0.0409961,-0.00766142 -0.0566614,-0.0233307 -0.0313346,-0.0313307 -0.0313346,-0.0819921 0,-0.112988l0.334638 -0.334642 -0.334638 -0.334642c-0.0313346,-0.0313346 -0.0313346,-0.0819961 0,-0.112992 0.0313307,-0.0313307 0.0819921,-0.0313307 0.112988,0l0.390972 0.390972c0.0313307,0.0313307 0.0313307,0.0819961 0,0.112992l-0.390969 0.391299c-0.0156654,0.0156654 -0.0359961,0.0233307 -0.0563307,0.0233307z"/>
  <path class="fil4" d="M4.80941 3.63931l-2.79487 0c-0.00240945,0.000216535 -0.00483858,0.000330709 -0.00726378,0.000330709 -0.00243307,0 -0.00485039,-0.000110236 -0.00725197,-0.000330709l-0.394866 0c-0.0023937,0.000224409 -0.00479134,0.000330709 -0.00718504,0.000330709 -0.00242913,0 -0.00484646,-0.000110236 -0.00724409,-0.000330709l-0.109079 0 0 0.000330709c-0.114657,0 -0.207984,0.0933268 -0.207984,0.207988l0 0.615618c0,0.114661 0.0933268,0.207988 0.207984,0.207988l0.689996 0c0.0049252,-0.000452756 0.00986614,-0.000452756 0.0147598,0l0.479906 0c0.00589764,-0.000653543 0.0118425,-0.000649606 0.0177165,0l1.46019 -3.93701e-006c0.00517323,-0.0005 0.0103937,-0.000503937 0.0155945,0l0.480146 0c0.00487402,-0.000444882 0.00979921,-0.000448819 0.0147047,0l0.690354 0c0.114657,0 0.207984,-0.0933268 0.207984,-0.207984l0 -0.615953c0,-0.114657 -0.0933268,-0.207984 -0.207988,-0.207984l-0.110484 0c-0.00351575,0.00023622 -0.00706693,0.000240157 -0.0106378,0l-0.394756 0c-0.00645669,0.00080315 -0.0130748,0.000826772 -0.0197283,0zm-1.84254 0.515965c0,-0.0443307 0.0356654,-0.0799961 0.0799961,-0.0799961l0.173319 0 -0.122657 -0.122657c-0.0313346,-0.0313346 -0.0313346,-0.0819961 0,-0.112992 0.0313307,-0.0313307 0.0819961,-0.0313307 0.112988,0l0.122996 0.122996 0 -0.173992c0,-0.0443307 0.0356614,-0.0799921 0.0799921,-0.0799921 0.0443307,0 0.0799921,0.0356614 0.0799921,0.0799921l0 0.173657 0.122661 -0.122661c0.0313307,-0.0313307 0.0819961,-0.0313307 0.112988,0 0.0313346,0.0313307 0.0313346,0.0819961 0,0.112992l-0.122657 0.122657 0.173654 0c0.0443307,0 0.0799961,0.0356614 0.0799961,0.0799921 0,0.0443268 -0.0356654,0.0799961 -0.0799961,0.0799961l-0.173984 0 0.122988 0.122988c0.0313307,0.0313346 0.0313307,0.0819961 0,0.112992 -0.0153307,0.0153307 -0.0359961,0.0233307 -0.0563307,0.0233307 -0.0203307,0 -0.0409961,-0.00766535 -0.0566614,-0.0233307l-0.122657 -0.122657 0 0.173319c0,0.0443307 -0.0356614,0.0799961 -0.0799921,0.0799961 -0.0443307,0 -0.0799921,-0.0356654 -0.0799921,-0.0799961l0 -0.173654 -0.122992 0.122992c-0.0153307,0.0153307 -0.0356614,0.0233307 -0.0563268,0.0233307 -0.0203307,0 -0.0409961,-0.00766535 -0.0566614,-0.0233307 -0.0313346,-0.0313307 -0.0313346,-0.0819961 0,-0.112992l0.122988 -0.122988 -0.173654 0c-0.0443307,0 -0.0799961,-0.0356654 -0.0799961,-0.0799921zm1.36323 0.315972c-0.0313307,-0.0313307 -0.0313307,-0.0819961 0,-0.112992l0.122988 -0.122988 -0.17365 0c-0.0443307,0 -0.0799921,-0.0356654 -0.0799921,-0.0799921 0,-0.0443307 0.0356614,-0.0799961 0.0799921,-0.0799961l0.173319 0 -0.122657 -0.122657c-0.0313307,-0.0313346 -0.0313307,-0.0819961 0,-0.112992 0.0313346,-0.0313307 0.0819961,-0.0313307 0.112992,0l0.122992 0.122992 0 -0.173988c0,-0.0443307 0.0356654,-0.0799921 0.0799961,-0.0799921 0.0443268,0 0.0799921,0.0356614 0.0799921,0.0799921l0 0.173654 0.122657 -0.122657c0.0313307,-0.0313307 0.0819921,-0.0313307 0.112988,0 0.0313346,0.0313307 0.0313346,0.0819961 0,0.112992l-0.122579 0.122657 0.173575 0c0.0443307,0 0.0799921,0.0356614 0.0799921,0.0799921 0,0.0443268 -0.0359921,0.0799961 -0.0799921,0.0799961l-0.173984 0 0.122988 0.122988c0.0313346,0.0313346 0.0313346,0.0819961 0,0.112992 -0.0156614,0.0153307 -0.0359961,0.0233307 -0.0563268,0.0233307 -0.0203307,0 -0.0409961,-0.00766535 -0.0566614,-0.0233307l-0.122657 -0.122657 0 0.173319c0,0.0443307 -0.036,0.0799961 -0.0799921,0.0799961 -0.0443307,0 -0.0799961,-0.0356654 -0.0799961,-0.0799961l0 -0.173398 -0.122657 0.122736c-0.0156654,0.0153307 -0.0363307,0.0233307 -0.0566614,0.0233307 -0.0203346,0 -0.0409961,-0.00766535 -0.0566654,-0.0233307zm-1.83319 -0.113323c0.0313307,0.0313307 0.0313307,0.0819921 0,0.112988 -0.0156693,0.0156654 -0.0363307,0.0236654 -0.0566654,0.0236654 -0.0203307,0 -0.0409921,-0.00766535 -0.0566614,-0.0233307l-0.122657 -0.122736 0 0.173398c0,0.0443307 -0.0356654,0.0799961 -0.0799961,0.0799961 -0.0443268,0 -0.0799921,-0.0356654 -0.0799921,-0.0799961l0 -0.173984 -0.122988 0.122988c-0.0153346,0.0156654 -0.0356654,0.0236654 -0.0563307,0.0236654 -0.0203307,0 -0.0409961,-0.00766535 -0.0566614,-0.0233307 -0.0313307,-0.0313307 -0.0313307,-0.0819961 0,-0.112992l0.122909 -0.122988 -0.173571 0c-0.0443307,0 -0.0799921,-0.0356654 -0.0799921,-0.0799921 0,-0.0443307 0.0356614,-0.0799961 0.0799921,-0.0799961l0.173575 0 -0.122579 -0.122657c-0.0313346,-0.0313346 -0.0313346,-0.0819961 0,-0.112992 0.0313307,-0.0313307 0.0819921,-0.0313307 0.112988,0l0.122657 0.122579 0 -0.173575c0,-0.0443307 0.0356654,-0.0799921 0.0799921,-0.0799921 0.0443307,0 0.0799961,0.0356614 0.0799961,0.0799921l0 0.173398 0.122657 -0.122736c0.0313346,-0.0313307 0.0819961,-0.0313307 0.112992,0 0.0313307,0.0313346 0.0313307,0.0819961 0,0.112992l-0.122992 0.122992 0.173988 0c0.0443307,0 0.0799921,0.0356614 0.0799921,0.0799921 0,0.0443268 -0.0356614,0.0799961 -0.0799921,0.0799961l-0.173398 0 0.122736 0.122657z"/>
  <path class="fil3" d="M3.97432 4.83089l-1.12164 0c0.168598,0.181736 0.356539,0.347945 0.560819,0.495634 0.204283,-0.147689 0.392224,-0.313898 0.560823,-0.495634z"/>
  <path class="fil2" d="M3.3675 5.49017c-0.271835,-0.190634 -0.517087,-0.41248 -0.72922,-0.659283l-0.29972 0c0.295067,0.379268 0.65587,0.704189 1.07461,0.967929 0.418736,-0.263736 0.779543,-0.588661 1.07461,-0.967929l-0.299067 0c-0.21213,0.246787 -0.45739,0.468331 -0.729217,0.659283 -0.0139961,0.01 -0.0299921,0.0146654 -0.0459921,0.0146654 -0.016,0 -0.0319961,-0.00499606 -0.0459961,-0.0146654z"/>
 </g>
</svg>
