<?xml version="1.0" encoding="UTF-8"?>
<!DOCTYPE svg PUBLIC "-//W3C//DTD SVG 1.1//EN" "http://www.w3.org/Graphics/SVG/1.1/DTD/svg11.dtd">
<!-- Creator: CorelDRAW -->
<svg xmlns="http://www.w3.org/2000/svg" xml:space="preserve" width="6.82666in" height="6.82666in" style="shape-rendering:geometricPrecision; text-rendering:geometricPrecision; image-rendering:optimizeQuality; fill-rule:evenodd; clip-rule:evenodd"
viewBox="0 0 6.82666 6.82666"
 xmlns:xlink="http://www.w3.org/1999/xlink">
 <defs>
  <style type="text/css">
   <![CDATA[
    .fil0 {fill:none}
    .fil1 {fill:#0065A3}
    .fil3 {fill:#00DC7F}
    .fil2 {fill:#333333}
    .fil7 {fill:#98EDFE}
    .fil6 {fill:#C8F5FE}
    .fil5 {fill:#FD3277}
    .fil4 {fill:#FEC34D}
   ]]>
  </style>
 </defs>
 <rect class="fil0" width="6.82666" height="6.82666"/>
 <g id="Layer_x0020_1">
  <metadata id="CorelCorpID_0Corel-Layer"/>
  <path class="fil1" d="M0.98685 2.31041l0 -0.327311c0,-0.141374 0.115272,-0.256646 0.256646,-0.256646l1.37085 0 0.478531 0.583957 -0.883457 3.93701e-006 -1.22257 -3.93701e-006zm1.35423 -0.25365c0.029437,0 0.0533307,-0.0238819 0.0533307,-0.0533307 0,-0.0296102 -0.0237205,-0.0533268 -0.0533307,-0.0533268l-0.113988 3.93701e-006c-0.0296102,0 -0.0533307,0.0237165 -0.0533307,0.0533268 0,0.0296142 0.0237205,0.0533268 0.0533307,0.0533268l0.113988 0zm-0.432634 0c0.029437,0 0.0533268,-0.0238819 0.0533268,-0.0533307 0,-0.0296102 -0.0237165,-0.0533268 -0.0533268,-0.0533268l-0.113992 3.93701e-006c-0.0296063,0 -0.0533268,0.0237165 -0.0533268,0.0533268 0,0.0296102 0.0237165,0.0533268 0.0533268,0.0533268l0.113992 0zm-0.432634 0c0.0294409,0 0.0533268,-0.0238819 0.0533268,-0.0533307 0,-0.0296102 -0.0237165,-0.0533268 -0.0533268,-0.0533268l-0.113992 3.93701e-006c-0.0296063,0 -0.0533268,0.0237165 -0.0533268,0.0533268 0,0.0296102 0.0237165,0.0533268 0.0533268,0.0533268l0.113992 0zm1.2766 -0.329972l2.84509 0c0.133709,0 0.242315,0.108606 0.242315,0.242315l3.93701e-006 0.341307 -2.60909 0 -0.478315 -0.583622zm1.01556 0.344972l1.47888 0c0.0296142,0 0.0533307,-0.0237165 0.0533307,-0.0533307 0,-0.0296102 -0.0237205,-0.0533268 -0.0533307,-0.0533268l-1.47888 3.93701e-006c-0.0296102,0 -0.0533307,0.0237126 -0.0533307,0.0533268 0,0.0296142 0.0237205,0.0533268 0.0533307,0.0533268z"/>
  <g id="_283969728">
   <g id="_506764120">
    <path id="_283971984" class="fil2" d="M5.58317 5.23352l-4.33967 0c-0.21498,0 -0.389969,-0.174988 -0.389969,-0.389969l0 -2.86045c0,-0.21465 0.174319,-0.389303 0.388969,-0.389969 0.000334646,0 0.000669291,0 0.001,0l1.39589 0c0.0239961,0 0.0466614,0.0106654 0.0619921,0.0293307l0.541965 0.661283 2.6498 0c0.0443307,0 0.0799921,0.0356654 0.0799921,0.0799921l0 2.47981c0,0.21498 -0.174988,0.389969 -0.389969,0.389969zm-4.33867 -3.4804c-0.000330709,0 -0.000665354,0 -0.001,0 -0.126657,0 -0.22998,0.103327 -0.22998,0.22998l0 2.86012c0,0.126657 0.103327,0.22998 0.22998,0.22998l4.33967 0c0.126657,0 0.22998,-0.103327 0.22998,-0.22998l0 -2.39981 -2.6078 0c-0.024,0 -0.0466614,-0.0106654 -0.0619961,-0.0293307l-0.541622 -0.660953 -1.35723 0z"/>
   </g>
   <g id="_506763976">
    <path id="_283972128" class="fil2" d="M3.20535 2.44374l-2.27183 0c-0.0443307,0 -0.0799921,-0.0356654 -0.0799921,-0.0799961 0,-0.0443268 0.0356614,-0.0799921 0.0799921,-0.0799921l2.27183 0c0.0443268,0 0.0799921,0.0356654 0.0799921,0.0799921 0,0.0443307 -0.0356614,0.0799961 -0.0799921,0.0799961z"/>
   </g>
   <g id="_506763424">
    <path id="_283970760" class="fil2" d="M5.89314 2.44374c-0.0443307,0 -0.0799921,-0.0356654 -0.0799921,-0.0799961l-3.93701e-006 -0.394634c0,-0.118992 -0.0966614,-0.21565 -0.21565,-0.21565l-2.95811 0c-0.0443307,0 -0.0799921,-0.0356654 -0.0799921,-0.0799921 0,-0.0443307 0.0356614,-0.0799961 0.0799921,-0.0799961l2.95777 0c0.207319,0 0.375642,0.168654 0.375642,0.375638l0 0.394634c0.000330709,0.0439961 -0.0353307,0.0799961 -0.0796614,0.0799961z"/>
   </g>
   <g id="_506764504">
    <path id="_283971264" class="fil2" d="M5.24685 2.09843l-1.47888 0c-0.0443307,0 -0.0799961,-0.0356614 -0.0799961,-0.0799921 0,-0.0443307 0.0356654,-0.0799921 0.0799961,-0.0799921l1.47888 -3.93701e-006c0.0443307,0 0.0799961,0.0356654 0.0799961,0.0799921 0,0.0443307 -0.0356614,0.0799961 -0.0799961,0.0799961z"/>
   </g>
   <g id="_506765392">
    <path id="_283971072" class="fil2" d="M2.20943 5.23352c-0.0443307,0 -0.0799961,-0.0356614 -0.0799961,-0.0799921l0 -2.78979c0,-0.0443307 0.0356654,-0.0799921 0.0799961,-0.0799921 0.0443268,0 0.0799921,0.0356614 0.0799921,0.0799921l0 2.78979c0,0.0439961 -0.0356654,0.0799921 -0.0799921,0.0799921z"/>
   </g>
   <g>
    <g id="_506766160">
     <path id="_283971216" class="fil2" d="M1.84245 2.99203l-0.541622 0c-0.0443307,0 -0.0799921,-0.0356614 -0.0799921,-0.0799921 0,-0.0443307 0.0356614,-0.0799921 0.0799921,-0.0799921l0.541622 -3.93701e-006c0.0443307,0 0.0799961,0.0356654 0.0799961,0.0799921 0,0.0443307 -0.036,0.0799961 -0.0799961,0.0799961z"/>
    </g>
    <g id="_506766352">
     <path id="_283971360" class="fil2" d="M1.84245 3.35867l-0.541622 0c-0.0443307,0 -0.0799921,-0.0356654 -0.0799921,-0.0799921 0,-0.0443307 0.0356614,-0.0799921 0.0799921,-0.0799921l0.541622 0c0.0443307,0 0.0799961,0.0356614 0.0799961,0.0799921 0,0.0443268 -0.036,0.0799921 -0.0799961,0.0799921z"/>
    </g>
    <g id="_506767096">
     <path id="_283971024" class="fil2" d="M1.84245 3.72531l-0.541622 0c-0.0443307,0 -0.0799921,-0.0356654 -0.0799921,-0.0799961 0,-0.0443268 0.0356614,-0.0799921 0.0799921,-0.0799921l0.541622 -3.93701e-006c0.0443307,0 0.0799961,0.0356654 0.0799961,0.0799961 0,0.0443268 -0.036,0.0799961 -0.0799961,0.0799961z"/>
    </g>
   </g>
   <g>
    <g id="_506765104">
     <path id="_283970112" class="fil2" d="M4.32626 3.419l-0.549957 0c-0.0443307,0 -0.0799921,-0.0356654 -0.0799921,-0.0799961l0 -0.549957c0,-0.0443307 0.0356614,-0.0799961 0.0799921,-0.0799961l0.549957 0c0.0443307,0 0.0799921,0.0356654 0.0799921,0.0799961l0 0.549957c3.93701e-006,0.0439961 -0.0356614,0.0799961 -0.0799921,0.0799961zm-0.469965 -0.159992l0.389972 0 0 -0.389969 -0.389972 3.93701e-006 0 0.389965z"/>
    </g>
    <g id="_506769184">
     <path id="_283970520" class="fil2" d="M4.32626 4.80822l-0.549957 0c-0.0443307,0 -0.0799921,-0.0356654 -0.0799921,-0.0799921l0 -0.549961c0,-0.0443307 0.0356614,-0.0799921 0.0799921,-0.0799921l0.549957 -3.93701e-006c0.0443307,0 0.0799921,0.0356614 0.0799921,0.0799921l0 0.549961c3.93701e-006,0.0439961 -0.0356614,0.0799961 -0.0799921,0.0799961zm-0.469965 -0.159988l0.389972 0 0 -0.389972 -0.389972 0 0 0.389972z"/>
    </g>
    <g>
     <g id="_506761984">
      <path id="_283969992" class="fil2" d="M5.45951 4.80822l-0.549957 0c-0.0443307,0 -0.0799921,-0.0356654 -0.0799921,-0.0799921l0 -0.549961c0,-0.0443307 0.0356614,-0.0799921 0.0799921,-0.0799921l0.549957 -3.93701e-006c0.0443268,0 0.0799921,0.0356614 0.0799921,0.0799921l0 0.549961c3.93701e-006,0.0439961 -0.0356614,0.0799961 -0.0799921,0.0799961zm-0.469965 -0.159988l0.389969 0 0 -0.389972 -0.389969 0 0 0.389972z"/>
     </g>
     <g id="_506762416">
      <path id="_283970448" class="fil2" d="M3.19302 4.80822l-0.549961 0c-0.0443268,0 -0.0799921,-0.0356654 -0.0799921,-0.0799921l0 -0.549961c0,-0.0443307 0.0356654,-0.0799921 0.0799921,-0.0799921l0.549961 -3.93701e-006c0.0443307,0 0.0799921,0.0356614 0.0799921,0.0799921l0 0.549961c0,0.0439961 -0.0356614,0.0799961 -0.0799921,0.0799961zm-0.469965 -0.159988l0.389969 0 0 -0.389972 -0.389969 0 0 0.389972z"/>
     </g>
    </g>
    <g id="_506762584">
     <path id="_283970568" class="fil2" d="M4.05128 4.25826c-0.0443268,0 -0.0799921,-0.0356614 -0.0799921,-0.0799921l0 -0.839272c0,-0.0443268 0.0356654,-0.0799921 0.0799921,-0.0799921 0.0443307,0 0.0799961,0.0356654 0.0799961,0.0799921l0 0.839272c0,0.0439961 -0.0356654,0.0799921 -0.0799961,0.0799921z"/>
    </g>
    <g id="_506762512">
     <path id="_283969632" class="fil2" d="M5.20553 4.25826c-0.0443307,0 -0.0799921,-0.0356614 -0.0799921,-0.0799921l0 -0.411638 -2.14817 0 0 0.411638c0,0.0443307 -0.0356614,0.0799921 -0.0799921,0.0799921 -0.0443307,0 -0.0799921,-0.0356614 -0.0799921,-0.0799921l0 -0.49163c0,-0.0443307 0.0356614,-0.0799921 0.0799921,-0.0799921l2.30816 0c0.0443268,0 0.0799921,0.0356614 0.0799921,0.0799921l0 0.49163c0,0.0439961 -0.0359961,0.0799921 -0.0799921,0.0799921z"/>
    </g>
   </g>
   <g>
    <g id="_507258464">
     <path id="_283969656" class="fil2" d="M1.47581 2.08343l-0.113992 0c-0.0443268,0 -0.0799921,-0.0356614 -0.0799921,-0.0799921 0,-0.0443268 0.0356654,-0.0799921 0.0799921,-0.0799921l0.113992 -3.93701e-006c0.0443307,0 0.0799921,0.0356654 0.0799921,0.0799921 0,0.0443307 -0.0359921,0.0799961 -0.0799921,0.0799961z"/>
    </g>
    <g id="_507254912">
     <path id="_283969512" class="fil2" d="M1.90844 2.08343l-0.113992 0c-0.0443268,0 -0.0799921,-0.0356614 -0.0799921,-0.0799921 0,-0.0443268 0.0356654,-0.0799921 0.0799921,-0.0799921l0.113992 -3.93701e-006c0.0443307,0 0.0799921,0.0356654 0.0799921,0.0799921 0,0.0443307 -0.0359961,0.0799961 -0.0799921,0.0799961z"/>
    </g>
    <g id="_513326128">
     <path id="_283969488" class="fil2" d="M2.34108 2.08343l-0.113988 0c-0.0443307,0 -0.0799961,-0.0356614 -0.0799961,-0.0799921 0,-0.0443268 0.0356654,-0.0799921 0.0799961,-0.0799921l0.113988 -3.93701e-006c0.0443307,0 0.0799961,0.0356654 0.0799961,0.0799921 0,0.0443307 -0.036,0.0799961 -0.0799961,0.0799961z"/>
    </g>
   </g>
  </g>
  <polygon class="fil3" points="2.89737,4.25826 2.72305,4.25826 2.72305,4.64824 3.11302,4.64824 3.11302,4.25826 "/>
  <polygon class="fil4" points="3.8563,4.25826 3.8563,4.64824 4.24627,4.64824 4.24627,4.25826 4.05128,4.25826 "/>
  <polygon class="fil3" points="4.98954,4.25826 4.98954,4.64824 5.37951,4.64824 5.37951,4.25826 5.20553,4.25826 "/>
  <polygon class="fil5" points="4.05128,3.25901 4.24627,3.259 4.24627,2.86904 3.8563,2.86904 3.8563,3.259 "/>
  <path class="fil6" d="M4.40625 2.78904l0 0.549957c3.93701e-006,0.0439961 -0.0356614,0.0799961 -0.0799921,0.0799961l-0.194984 0 0 0.187654 1.07425 0c0.0443268,0 0.0799921,0.0356614 0.0799921,0.0799921l0 0.411634 0.173988 0c0.0443268,0 0.0799921,0.0356614 0.0799921,0.0799921l0 0.549961c3.93701e-006,0.0439961 -0.0356614,0.0799961 -0.0799921,0.0799961l-0.549957 0c-0.0443307,0 -0.0799921,-0.0356654 -0.0799921,-0.0799921l0 -0.549961c0,-0.0443307 0.0356614,-0.0799921 0.0799921,-0.0799921l0.215984 0 0 -0.331646 -0.99426 0 0 0.331642 0.194984 0c0.0443307,0 0.0799921,0.0356614 0.0799921,0.0799921l0 0.549961c3.93701e-006,0.0439961 -0.0356614,0.0799961 -0.0799921,0.0799961l-0.549957 0c-0.0443307,0 -0.0799921,-0.0356654 -0.0799921,-0.0799921l0 -0.549961c0,-0.0443307 0.0356614,-0.0799921 0.0799921,-0.0799921l0.194984 0 0 -0.331646 -0.993925 0 0 0.331642 0.215654 0c0.0443307,0 0.0799921,0.0356614 0.0799921,0.0799921l0 0.549961c0,0.0439961 -0.0356614,0.0799961 -0.0799921,0.0799961l-0.549961 0c-0.0443268,0 -0.0799921,-0.0356654 -0.0799921,-0.0799921l0 -0.549961c0,-0.0443307 0.0356654,-0.0799921 0.0799921,-0.0799921l0.174323 0 0 -0.411638c0,-0.0443307 0.0356614,-0.0799921 0.0799921,-0.0799921l1.07392 0 0 -0.187654 -0.194984 0c-0.0443307,0 -0.0799921,-0.0356654 -0.0799921,-0.0799961l0 -0.549957c0,-0.0443307 0.0356614,-0.0799961 0.0799921,-0.0799961l0.549957 0c0.0443307,0 0.0799921,0.0356654 0.0799921,0.0799961zm-2.11683 2.28416l3.29375 0c0.126657,0 0.22998,-0.103327 0.22998,-0.22998l0 -2.39981 -2.60044 0c-0.0024252,0.000220472 -0.00487795,0.000330709 -0.0073622,0.000330709l-0.915929 0 0 2.62946z"/>
  <path class="fil7" d="M2.12943 5.0732l0 -2.62946 -1.11591 0 0 2.39948c0,0.126657 0.103327,0.22998 0.22998,0.22998l0.885933 0zm-0.828602 -2.24116l0.541622 -3.93701e-006c0.0443307,0 0.0799961,0.0356654 0.0799961,0.0799921 0,0.0443307 -0.036,0.0799961 -0.0799961,0.0799961l-0.541622 0c-0.0443307,0 -0.0799921,-0.0356614 -0.0799921,-0.0799921 0,-0.0443307 0.0356614,-0.0799921 0.0799921,-0.0799921zm0 0.366638l0.541622 0c0.0443307,0 0.0799961,0.0356614 0.0799961,0.0799921 0,0.0443268 -0.036,0.0799921 -0.0799961,0.0799921l-0.541622 0c-0.0443307,0 -0.0799921,-0.0356654 -0.0799921,-0.0799921 0,-0.0443307 0.0356614,-0.0799921 0.0799921,-0.0799921zm0 0.366638l0.541622 -3.93701e-006c0.0443307,0 0.0799961,0.0356654 0.0799961,0.0799961 0,0.0443268 -0.036,0.0799961 -0.0799961,0.0799961l-0.541622 0c-0.0443307,0 -0.0799921,-0.0356654 -0.0799921,-0.0799961 0,-0.0443268 0.0356614,-0.0799921 0.0799921,-0.0799921z"/>
 </g>
</svg>
