<?xml version="1.0" encoding="UTF-8"?>
<!DOCTYPE svg PUBLIC "-//W3C//DTD SVG 1.1//EN" "http://www.w3.org/Graphics/SVG/1.1/DTD/svg11.dtd">
<!-- Creator: CorelDRAW -->
<svg xmlns="http://www.w3.org/2000/svg" xml:space="preserve" width="6.82666in" height="6.82666in" style="shape-rendering:geometricPrecision; text-rendering:geometricPrecision; image-rendering:optimizeQuality; fill-rule:evenodd; clip-rule:evenodd"
viewBox="0 0 6.82666 6.82666"
 xmlns:xlink="http://www.w3.org/1999/xlink">
 <defs>
  <style type="text/css">
   <![CDATA[
    .fil0 {fill:none}
    .fil1 {fill:#0065A3}
    .fil8 {fill:#00DC7F}
    .fil2 {fill:#333333}
    .fil3 {fill:#98EDFE}
    .fil5 {fill:#C8F5FE}
    .fil4 {fill:#CCCCCC}
    .fil6 {fill:#FD3277}
    .fil7 {fill:#FEC34D}
   ]]>
  </style>
 </defs>
 <rect class="fil0" width="6.82666" height="6.82666"/>
 <g id="Layer_x0020_1">
  <metadata id="CorelCorpID_0Corel-Layer"/>
  <path class="fil1" d="M3.57119 2.44341l-0.406882 -0.49663 2.47069 0c0.113043,0 0.204984,0.0919449 0.204984,0.204988l3.93701e-006 0.291642 -2.26879 0zm0.465925 -0.301638c-0.0296102,0 -0.0533268,0.0237165 -0.0533268,0.0533268 0,0.0296063 0.0237205,0.0533268 0.0533268,0.0533268l1.2919 0c0.029437,0 0.0533268,-0.0238819 0.0533268,-0.0533307 0,-0.0296102 -0.0237126,-0.0533268 -0.0533268,-0.0533268l-1.2919 3.93701e-006zm-0.604244 0.301307l-1.81757 0 0 -0.278984c0,-0.119858 0.097437,-0.217315 0.217315,-0.217315l1.19387 0 0.406382 0.496299zm-1.4076 -0.194654c0.029437,0 0.0533268,-0.0238819 0.0533268,-0.0533307 0,-0.0296102 -0.0237126,-0.0533268 -0.0533268,-0.0533268l-0.113992 3.93701e-006c-0.0296102,0 -0.0533268,0.0237165 -0.0533268,0.0533268 0,0.0296063 0.0237205,0.0533268 0.0533268,0.0533268l0.113992 0zm0.864937 0c0.0296102,0 0.0533268,-0.0237205 0.0533268,-0.0533307 0,-0.0296102 -0.0237165,-0.0533268 -0.0533268,-0.0533268l-0.113992 3.93701e-006c-0.0296102,0 -0.0533268,0.0237126 -0.0533268,0.0533268 0,0.0296102 0.0237165,0.0533268 0.0533268,0.0533268l0.113992 0zm-0.432303 0c0.029437,0 0.0533307,-0.0238819 0.0533307,-0.0533307 0,-0.0296102 -0.0237165,-0.0533268 -0.0533307,-0.0533268l-0.113988 3.93701e-006c-0.0296102,0 -0.0533307,0.0237126 -0.0533307,0.0533268 0,0.0296102 0.0237205,0.0533268 0.0533307,0.0533268l0.113988 0z"/>
  <g id="_283973784">
   <g id="_260625744">
    <path id="_283963920" class="fil2" d="M5.62267 5.01321l-3.79005 0c-0.193319,0 -0.350638,-0.157323 -0.350638,-0.350638l0 -0.0216654c0,-0.0443307 0.0356614,-0.0799921 0.0799921,-0.0799921 0.0443307,0 0.0799921,0.0356614 0.0799921,0.0799921l0 0.0216654c0,0.105327 0.0856614,0.19065 0.190654,0.19065l3.79005 3.93701e-006c0.105323,0 0.19065,-0.0856575 0.19065,-0.19065l0 -2.08585 -2.26749 0c-0.0239961,0 -0.0466614,-0.0106654 -0.0619921,-0.0293307l-0.469969 -0.573957 -1.18124 0c-0.105323,0 -0.19065,0.0856575 -0.19065,0.19065l0 0.624622c0,0.0443307 -0.0356614,0.0799921 -0.0799921,0.0799921 -0.0443307,0 -0.0799921,-0.0356614 -0.0799921,-0.0799921l-3.93701e-006 -0.624283c0,-0.193319 0.157323,-0.350642 0.350638,-0.350642l1.21924 0c0.0239961,0 0.0466614,0.0106654 0.0619961,0.0293307l0.469961 0.573622 2.30949 0c0.0443307,0 0.0799921,0.0356654 0.0799921,0.0799921l0 2.16583c0,0.193323 -0.157323,0.350642 -0.350638,0.350642z"/>
   </g>
   <g id="_260625576">
    <path id="_283975416" class="fil2" d="M3.54582 2.5764l-1.98418 0c-0.0443307,0 -0.0799921,-0.0356654 -0.0799921,-0.0799961 0,-0.0443268 0.0356614,-0.0799921 0.0799921,-0.0799921l1.98418 0c0.0443307,0 0.0799921,0.0356654 0.0799921,0.0799921 0,0.0443307 -0.0356614,0.0799961 -0.0799921,0.0799961z"/>
   </g>
   <g id="_260625264">
    <path id="_283974600" class="fil2" d="M5.89331 2.5764c-0.0443307,0 -0.0799921,-0.0356654 -0.0799921,-0.0799961l-3.93701e-006 -0.344638c0,-0.0983268 -0.0799921,-0.178323 -0.178319,-0.178323l-2.58347 0c-0.0443268,0 -0.0799921,-0.0356654 -0.0799921,-0.0799921 0,-0.0443307 0.0356654,-0.0799921 0.0799921,-0.0799921l2.58347 0c0.186654,0 0.338307,0.151654 0.338307,0.338307l0 0.344638c0,0.0443307 -0.0356614,0.0799961 -0.0799921,0.0799961z"/>
   </g>
   <g id="_260625912">
    <path id="_283975128" class="fil2" d="M5.32902 2.27509l-1.2919 0c-0.0443268,0 -0.0799921,-0.0356654 -0.0799921,-0.0799921 0,-0.0443307 0.0356654,-0.0799921 0.0799921,-0.0799921l1.2919 -3.93701e-006c0.0443307,0 0.0799921,0.0356614 0.0799921,0.0799921 0,0.0443307 -0.0359961,0.0799961 -0.0799921,0.0799961z"/>
   </g>
   <g id="_260625888">
    <path id="_283974768" class="fil2" d="M4.52475 3.42833l-0.480295 0c-0.0443307,0 -0.0799921,-0.0356614 -0.0799921,-0.0799921l-3.93701e-006 -0.480299c0,-0.0443268 0.0356654,-0.0799921 0.0799921,-0.0799921l0.480299 0c0.0443307,0 0.0799921,0.0356654 0.0799921,0.0799921l0 0.480299c3.93701e-006,0.0439961 -0.0356614,0.0799921 -0.0799921,0.0799921zm-0.400303 -0.159988l0.320311 0 0 -0.320307 -0.320311 0 0 0.320307z"/>
   </g>
   <g id="_260625336">
    <path id="_283974888" class="fil2" d="M4.52475 4.64157l-0.480295 0c-0.0443307,0 -0.0799921,-0.0356614 -0.0799921,-0.0799921l-3.93701e-006 -0.480299c0,-0.0443268 0.0356654,-0.0799921 0.0799921,-0.0799921l0.480299 0c0.0443307,0 0.0799921,0.0356654 0.0799921,0.0799921l0 0.480299c3.93701e-006,0.0443307 -0.0356614,0.0799921 -0.0799921,0.0799921zm-0.400303 -0.159984l0.320311 0 0 -0.320311 -0.320311 0 0 0.320311z"/>
   </g>
   <g id="_260626704">
    <path id="_283974984" class="fil2" d="M5.51467 4.64157l-0.480299 0c-0.0443268,0 -0.0799921,-0.0356614 -0.0799921,-0.0799921l0 -0.480299c0,-0.0443268 0.0356654,-0.0799921 0.0799921,-0.0799921l0.480299 0c0.0443268,0 0.0799921,0.0356654 0.0799921,0.0799921l0 0.480299c0,0.0443307 -0.0359961,0.0799921 -0.0799921,0.0799921zm-0.400303 -0.159984l0.320311 0 0 -0.320311 -0.320311 0 0 0.320311z"/>
   </g>
   <g id="_260626056">
    <path id="_283974048" class="fil2" d="M3.53516 4.64157l-0.480295 0c-0.0443307,0 -0.0799921,-0.0356614 -0.0799921,-0.0799921l-3.93701e-006 -0.480299c0,-0.0443268 0.0356654,-0.0799921 0.0799921,-0.0799921l0.480299 0c0.0443268,0 0.0799921,0.0356654 0.0799921,0.0799921l0 0.480299c3.93701e-006,0.0443307 -0.0359961,0.0799921 -0.0799921,0.0799921zm-0.400303 -0.159984l0.320307 0 0 -0.320311 -0.320307 0 0 0.320311z"/>
   </g>
   <g id="_260626608">
    <path id="_283974408" class="fil2" d="M4.28476 4.16128c-0.0443268,0 -0.0799921,-0.0356654 -0.0799921,-0.0799961l0 -0.732941c0,-0.0443307 0.0356654,-0.0799921 0.0799921,-0.0799921 0.0443307,0 0.0799961,0.0356614 0.0799961,0.0799921l0 0.732941c0,0.0443307 -0.0359961,0.0799961 -0.0799961,0.0799961z"/>
   </g>
   <g id="_260626368">
    <path id="_283974144" class="fil2" d="M5.29269 4.16128c-0.0443307,0 -0.0799921,-0.0356654 -0.0799921,-0.0799961l0 -0.349303 -1.85586 0 0 0.349303c0,0.0443307 -0.0356654,0.0799961 -0.0799921,0.0799961 -0.0443307,0 -0.0799961,-0.0356654 -0.0799961,-0.0799961l0 -0.429299c0,-0.0443307 0.0356614,-0.0799921 0.0799921,-0.0799921l2.01585 0c0.0443307,0 0.0799921,0.0356614 0.0799921,0.0799921l0 0.429299c0,0.0443307 -0.0359961,0.0799961 -0.0799921,0.0799961z"/>
   </g>
   <g id="_260626632">
    <path id="_283974072" class="fil2" d="M1.92961 4.79089c-0.287311,0 -0.557626,-0.111992 -0.760941,-0.315311 -0.203319,-0.203315 -0.315311,-0.473295 -0.315311,-0.760941 0,-0.287646 0.111992,-0.557626 0.315311,-0.760941 0.203315,-0.203319 0.473295,-0.315311 0.760941,-0.315311 0.287646,0 0.557622,0.111992 0.760941,0.315311 0.203315,0.203315 0.315311,0.473295 0.315311,0.760941 0,0.287646 -0.111996,0.557626 -0.315311,0.760941 -0.203319,0.203323 -0.473295,0.315311 -0.760941,0.315311zm0 -1.99218c-0.504961,0 -0.915929,0.410969 -0.915929,0.916264 0,0.505291 0.410969,0.915929 0.915929,0.915929 0.504961,0 0.915929,-0.410969 0.915929,-0.915929 0,-0.504961 -0.410638,-0.916264 -0.915929,-0.916264z"/>
   </g>
   <g id="_260626104">
    <path id="_283974120" class="fil2" d="M1.98128 4.49525l-0.102992 0c-0.0749961,0 -0.135657,-0.0553307 -0.150657,-0.137657l-0.01 -0.0546654c-0.0183307,-0.00666535 -0.0359961,-0.0139961 -0.0536614,-0.0223307l-0.0456614 0.0316614c-0.0686614,0.0476654 -0.150657,0.0439961 -0.203988,-0.00933071l-0.0729921 -0.0729961c-0.0529961,-0.0529961 -0.0569961,-0.134992 -0.00933465,-0.203984l0.0316614 -0.0456654c-0.00833071,-0.0176654 -0.0156654,-0.0353307 -0.0223307,-0.0536614l-0.0546654 -0.01c-0.0823268,-0.015 -0.137654,-0.0753268 -0.137654,-0.150657l3.93701e-006 -0.10265c0,-0.0749961 0.0553307,-0.135657 0.137657,-0.150657l0.0546614 -0.01c0.00666929,-0.0183307 0.014,-0.0359961 0.0223346,-0.0536614l-0.0316614 -0.0456654c-0.0476654,-0.0686575 -0.0439961,-0.150654 0.00933071,-0.203984l0.0729961 -0.0729961c0.0529961,-0.0529921 0.134988,-0.0569921 0.203984,-0.00933071l0.0456654 0.0316614c0.0176654,-0.00833071 0.0353268,-0.0156654 0.0536614,-0.0223307l0.01 -0.0546654c0.015,-0.0823268 0.0753268,-0.137654 0.150657,-0.137654l0.102984 3.93701e-006c0.0749961,0 0.135657,0.0553307 0.150657,0.137657l0.01 0.0546614c0.0183307,0.00666929 0.0359961,0.014 0.0536614,0.0223346l0.0456654 -0.0316654c0.0686614,-0.0476614 0.150654,-0.0439921 0.203984,0.00933465l0.0729961 0.0729961c0.0529921,0.0529961 0.0569961,0.134988 0.00933071,0.203984l-0.0316614 0.0456654c0.00833071,0.0176614 0.0156654,0.0353268 0.0223307,0.0536614l0.0546654 0.01c0.0823268,0.015 0.137657,0.0753268 0.137657,0.150654l0 0.102996c0,0.0749921 -0.0553307,0.135657 -0.137657,0.150654l-0.0546654 0.01c-0.00666535,0.0183346 -0.0139961,0.036 -0.0223307,0.0536654l0.0316614 0.0456614c0.0476654,0.0686614 0.0439961,0.150657 -0.00933071,0.203984l-0.0729961 0.0729961c-0.0529961,0.0529961 -0.134992,0.0569961 -0.203984,0.00933465l-0.0456654 -0.0316654c-0.0176654,0.00833465 -0.0353307,0.0156693 -0.0536614,0.0223346l-0.01 0.0546614c-0.015,0.0819803 -0.0753268,0.137311 -0.150657,0.137311zm-0.0946614 -0.159992l0.0863307 0c0.000665354,-0.00166535 0.00133465,-0.00366535 0.00166535,-0.00633071l0.0186654 -0.102327c0.00566535,-0.0303307 0.028,-0.0549961 0.0579961,-0.0629961 0.0386654,-0.0103346 0.0756614,-0.0256614 0.110327,-0.0456614 0.0266614,-0.0153346 0.0599921,-0.014 0.0853268,0.00366535l0.0853268 0.0589961c0.002,0.00133465 0.004,0.00233071 0.00566535,0.00333071l0.061 -0.0609961c-0.000669291,-0.00166535 -0.00166535,-0.00333465 -0.00333465,-0.00566535l-0.0593307 -0.0853268c-0.0176614,-0.0253346 -0.0189961,-0.0586614 -0.00366535,-0.0853307 0.0199961,-0.0346614 0.0353307,-0.0719921 0.0456654,-0.110323 0.00799606,-0.03 0.0326614,-0.0523307 0.0629921,-0.0579961l0.102327 -0.0186654c0.00266535,-0.000334646 0.00466535,-0.00100394 0.00633465,-0.00166535l0 -0.0863268c-0.00166535,-0.000669291 -0.00366929,-0.00133465 -0.00633465,-0.00166535l-0.101992 -0.0186654c-0.0303307,-0.00566535 -0.0549961,-0.028 -0.0629961,-0.0579961 -0.0103307,-0.0386654 -0.0256614,-0.0756614 -0.0456614,-0.110327 -0.0153346,-0.0266654 -0.014,-0.0599961 0.00366535,-0.0853268l0.0589961 -0.0853307c0.00133465,-0.00199606 0.00233071,-0.004 0.00333465,-0.00566535l-0.061 -0.0609961c-0.00166535,0.000669291 -0.00333071,0.00166535 -0.00566535,0.00333465l-0.0853307 0.0590039c-0.0253307,0.0176654 -0.0586614,0.019 -0.0853268,0.00366535 -0.0346614,-0.0199961 -0.0719961,-0.0353307 -0.110327,-0.0456614 -0.0299961,-0.008 -0.0523307,-0.0326654 -0.0579961,-0.0629961l-0.0186654 -0.102327c-0.000334646,-0.00266535 -0.001,-0.00466535 -0.00166535,-0.00633465l-0.0863268 0c-0.000665354,0.00166535 -0.00133465,0.00366929 -0.00166535,0.00633465l-0.0186654 0.102327c-0.00566535,0.0303307 -0.0279961,0.0549961 -0.0579961,0.0629961 -0.0386614,0.0103307 -0.0756614,0.0256614 -0.110323,0.0456614 -0.0266654,0.0153346 -0.0599961,0.014 -0.0853307,-0.00366535l-0.0856575 -0.0589961c-0.002,-0.00133465 -0.004,-0.00233071 -0.00566535,-0.00333465l-0.0606614 0.061c0.000669291,0.00166535 0.00166535,0.00333071 0.00333465,0.00566535l0.0593268 0.0853268c0.0176654,0.0253346 0.019,0.0586614 0.00366929,0.0853268 -0.02,0.0346654 -0.0353307,0.0719961 -0.0456654,0.110327 -0.00799606,0.0299961 -0.0326614,0.0523307 -0.0629961,0.0579961l-0.102323 0.0186654c-0.00266929,0.000334646 -0.00466535,0.001 -0.00633465,0.00166535l0 0.0863268c0.00166535,0.000665354 0.00366535,0.00133465 0.00633465,0.00166535l0.102323 0.0186654c0.0303346,0.00566535 0.055,0.028 0.0629961,0.0579961 0.0103346,0.0386654 0.0256654,0.0756614 0.0456654,0.110327 0.0153307,0.0266614 0.0139961,0.0599921 -0.00366929,0.0853268l-0.0596614 0.0853228c-0.00133465,0.00199606 -0.00233071,0.004 -0.00333071,0.00566535l0.0609961 0.0609961c0.00166535,-0.000665354 0.00333071,-0.00166535 0.00566535,-0.00333465l0.0853268 -0.0593268c0.0253346,-0.0176654 0.0586614,-0.019 0.0853307,-0.00366535 0.0346614,0.0199961 0.0719921,0.0353268 0.110323,0.0456614 0.0299961,0.008 0.0523307,0.0326654 0.0579961,0.0629961l0.0186654 0.102327c0.000661417,0.003 0.00133071,0.00499606 0.00199213,0.00666142z"/>
   </g>
   <g id="_260626248">
    <path id="_283973136" class="fil2" d="M1.92961 4.06395c-0.192654,0 -0.349307,-0.156654 -0.349307,-0.349303 0,-0.19265 0.156657,-0.349307 0.349307,-0.349307 0.192654,0 0.349303,0.156657 0.349303,0.349307 0,0.19265 -0.15665,0.349303 -0.349303,0.349303zm0 -0.538291c-0.104327,0 -0.189319,0.0849961 -0.189319,0.189319 0,0.104327 0.0849921,0.189323 0.189319,0.189323 0.104323,0 0.189319,-0.0849961 0.189319,-0.189323 0,-0.104323 -0.0849961,-0.189319 -0.189319,-0.189319z"/>
   </g>
   <g>
    <g id="_260626152">
     <path id="_283973664" class="fil2" d="M2.02527 2.27509l-0.113992 0c-0.0443268,0 -0.0799921,-0.0356654 -0.0799921,-0.0799921 0,-0.0443307 0.0356654,-0.0799921 0.0799921,-0.0799921l0.113992 -3.93701e-006c0.0443307,0 0.0799921,0.0356614 0.0799921,0.0799921 0,0.0443307 -0.0359961,0.0799961 -0.0799921,0.0799961z"/>
    </g>
    <g id="_260626416">
     <path id="_283973256" class="fil2" d="M2.45791 2.27509l-0.113988 0c-0.0443307,0 -0.0799961,-0.0356654 -0.0799961,-0.0799921 0,-0.0443307 0.0356654,-0.0799921 0.0799961,-0.0799921l0.113988 -3.93701e-006c0.0443307,0 0.0799961,0.0356614 0.0799961,0.0799921 0,0.0443307 -0.036,0.0799961 -0.0799961,0.0799961z"/>
    </g>
    <g id="_260626440">
     <path id="_283973232" class="fil2" d="M2.89021 2.27509l-0.113992 0c-0.0443307,0 -0.0799921,-0.0356654 -0.0799921,-0.0799921 0,-0.0443307 0.0356614,-0.0799921 0.0799921,-0.0799921l0.113992 -3.93701e-006c0.0443268,0 0.0799921,0.0356614 0.0799921,0.0799921 0,0.0443307 -0.0356654,0.0799961 -0.0799921,0.0799961z"/>
    </g>
   </g>
  </g>
  <path class="fil3" d="M2.84554 3.71498c0,-0.504961 -0.410638,-0.916264 -0.915929,-0.916264 -0.504961,0 -0.915929,0.410969 -0.915929,0.916264 0,0.505291 0.410969,0.915929 0.915929,0.915929 0.504961,0 0.915929,-0.410969 0.915929,-0.915929zm-0.864268 -0.780941c0.0749961,0 0.135657,0.0553307 0.150657,0.137657l0.01 0.0546614c0.0183307,0.00666929 0.0359961,0.014 0.0536614,0.0223346l0.0456654 -0.0316654c0.0686614,-0.0476614 0.150654,-0.0439921 0.203984,0.00933465l0.0729961 0.0729961c0.0529921,0.0529961 0.0569961,0.134988 0.00933071,0.203984l-0.0316614 0.0456654c0.00833071,0.0176614 0.0156654,0.0353268 0.0223307,0.0536614l0.0546654 0.01c0.0823268,0.015 0.137657,0.0753268 0.137657,0.150654l0 0.102996c0,0.0749921 -0.0553307,0.135657 -0.137657,0.150654l-0.0546654 0.01c-0.00666535,0.0183346 -0.0139961,0.036 -0.0223307,0.0536654l0.0316614 0.0456614c0.0476654,0.0686614 0.0439961,0.150657 -0.00933071,0.203984l-0.0729961 0.0729961c-0.0529961,0.0529961 -0.134992,0.0569961 -0.203984,0.00933465l-0.0456654 -0.0316654c-0.0176654,0.00833465 -0.0353307,0.0156693 -0.0536614,0.0223346l-0.01 0.0546614c-0.015,0.0819803 -0.0753268,0.137311 -0.150657,0.137311l-0.102992 0c-0.0749961,0 -0.135657,-0.0553307 -0.150657,-0.137657l-0.01 -0.0546654c-0.0183307,-0.00666535 -0.0359961,-0.0139961 -0.0536614,-0.0223307l-0.0456614 0.0316614c-0.0686614,0.0476654 -0.150657,0.0439961 -0.203988,-0.00933071l-0.0729921 -0.0729961c-0.0529961,-0.0529961 -0.0569961,-0.134992 -0.00933465,-0.203984l0.0316614 -0.0456654c-0.00833071,-0.0176654 -0.0156654,-0.0353307 -0.0223307,-0.0536614l-0.0546654 -0.01c-0.0823268,-0.015 -0.137654,-0.0753268 -0.137654,-0.150657l3.93701e-006 -0.10265c0,-0.0749961 0.0553307,-0.135657 0.137657,-0.150657l0.0546614 -0.01c0.00666929,-0.0183307 0.014,-0.0359961 0.0223346,-0.0536614l-0.0316614 -0.0456654c-0.0476654,-0.0686575 -0.0439961,-0.150654 0.00933071,-0.203984l0.0729961 -0.0729961c0.0529961,-0.0529921 0.134988,-0.0569921 0.203984,-0.00933071l0.0456654 0.0316614c0.0176654,-0.00833071 0.0353268,-0.0156654 0.0536614,-0.0223307l0.01 -0.0546654c0.015,-0.0823268 0.0753268,-0.137654 0.150657,-0.137654l0.102984 3.93701e-006z"/>
  <path class="fil4" d="M2.05127 3.26601c-0.0299961,-0.008 -0.0523307,-0.0326654 -0.0579961,-0.0629961l-0.0186654 -0.102327c-0.000334646,-0.00266535 -0.001,-0.00466535 -0.00166535,-0.00633465l-0.0863268 0c-0.000665354,0.00166535 -0.00133465,0.00366929 -0.00166535,0.00633465l-0.0186654 0.102327c-0.00566535,0.0303307 -0.0279961,0.0549961 -0.0579961,0.0629961 -0.0386614,0.0103307 -0.0756614,0.0256614 -0.110323,0.0456614 -0.0266654,0.0153346 -0.0599961,0.014 -0.0853307,-0.00366535l-0.0856575 -0.0589961c-0.002,-0.00133465 -0.004,-0.00233071 -0.00566535,-0.00333465l-0.0606614 0.061c0.000669291,0.00166535 0.00166535,0.00333071 0.00333465,0.00566535l0.0593268 0.0853268c0.0176654,0.0253346 0.019,0.0586614 0.00366929,0.0853268 -0.02,0.0346654 -0.0353307,0.0719961 -0.0456654,0.110327 -0.00799606,0.0299961 -0.0326614,0.0523307 -0.0629961,0.0579961l-0.102323 0.0186654c-0.00266929,0.000334646 -0.00466535,0.001 -0.00633465,0.00166535l0 0.0863268c0.00166535,0.000665354 0.00366535,0.00133465 0.00633465,0.00166535l0.102323 0.0186654c0.0303346,0.00566535 0.055,0.028 0.0629961,0.0579961 0.0103346,0.0386654 0.0256654,0.0756614 0.0456654,0.110327 0.0153307,0.0266614 0.0139961,0.0599921 -0.00366929,0.0853268l-0.0596614 0.0853228c-0.00133465,0.00199606 -0.00233071,0.004 -0.00333071,0.00566535l0.0609961 0.0609961c0.00166535,-0.000665354 0.00333071,-0.00166535 0.00566535,-0.00333465l0.0853268 -0.0593268c0.0253346,-0.0176654 0.0586614,-0.019 0.0853307,-0.00366535 0.0346614,0.0199961 0.0719921,0.0353268 0.110323,0.0456614 0.0299961,0.008 0.0523307,0.0326654 0.0579961,0.0629961l0.0186654 0.102327c0.000661417,0.003 0.00133071,0.00499606 0.00199213,0.00666142l0.0863307 0c0.000665354,-0.00166535 0.00133465,-0.00366535 0.00166535,-0.00633071l0.0186654 -0.102327c0.00566535,-0.0303307 0.028,-0.0549961 0.0579961,-0.0629961 0.0386654,-0.0103346 0.0756614,-0.0256614 0.110327,-0.0456614 0.0266614,-0.0153346 0.0599921,-0.014 0.0853268,0.00366535l0.0853268 0.0589961c0.002,0.00133465 0.004,0.00233071 0.00566535,0.00333071l0.061 -0.0609961c-0.000669291,-0.00166535 -0.00166535,-0.00333465 -0.00333465,-0.00566535l-0.0593307 -0.0853268c-0.0176614,-0.0253346 -0.0189961,-0.0586614 -0.00366535,-0.0853307 0.0199961,-0.0346614 0.0353307,-0.0719921 0.0456654,-0.110323 0.00799606,-0.03 0.0326614,-0.0523307 0.0629921,-0.0579961l0.102327 -0.0186654c0.00266535,-0.000334646 0.00466535,-0.00100394 0.00633465,-0.00166535l0 -0.0863268c-0.00166535,-0.000669291 -0.00366929,-0.00133465 -0.00633465,-0.00166535l-0.101992 -0.0186654c-0.0303307,-0.00566535 -0.0549961,-0.028 -0.0629961,-0.0579961 -0.0103307,-0.0386654 -0.0256614,-0.0756614 -0.0456614,-0.110327 -0.0153346,-0.0266654 -0.014,-0.0599961 0.00366535,-0.0853268l0.0589961 -0.0853307c0.00133465,-0.00199606 0.00233071,-0.004 0.00333465,-0.00566535l-0.061 -0.0609961c-0.00166535,0.000669291 -0.00333071,0.00166535 -0.00566535,0.00333465l-0.0853307 0.0590039c-0.0253307,0.0176654 -0.0586614,0.019 -0.0853268,0.00366535 -0.0346614,-0.0199961 -0.0719961,-0.0353307 -0.110327,-0.0456614zm-0.470961 0.448634c0,-0.19265 0.156657,-0.349307 0.349307,-0.349307 0.192654,0 0.349303,0.156657 0.349303,0.349307 0,0.19265 -0.15665,0.349303 -0.349303,0.349303 -0.192654,0 -0.349307,-0.156654 -0.349307,-0.349303z"/>
  <path class="fil3" d="M2.11893 3.71498c0,-0.104323 -0.0849961,-0.189319 -0.189319,-0.189319 -0.104327,0 -0.189319,0.0849961 -0.189319,0.189319 0,0.104327 0.0849921,0.189323 0.189319,0.189323 0.104323,0 0.189319,-0.0849961 0.189319,-0.189323z"/>
  <path class="fil5" d="M2.69056 2.9537c0.203315,0.203315 0.315311,0.473295 0.315311,0.760941 0,0.287646 -0.111996,0.557626 -0.315311,0.760941 -0.203319,0.203323 -0.473295,0.315311 -0.760941,0.315311 -0.0892717,0 -0.176906,-0.010811 -0.261398,-0.0318189 0.0331969,0.0563425 0.0945157,0.0941457 0.164402,0.0941457l3.79005 3.93701e-006c0.105323,0 0.19065,-0.0856575 0.19065,-0.19065l0 -2.08585 -2.26749 0c-0.00244882,0 -0.00488583,-0.000110236 -0.00730315,-0.000330709l-1.89655 0 0 0.10065c0.0924882,-0.0254921 0.189028,-0.0386575 0.287646,-0.0386575 0.287646,0 0.557622,0.111992 0.760941,0.315311zm0.586287 0.618287l0.927929 0 0 -0.143657 -0.160319 0c-0.0443307,0 -0.0799921,-0.0356614 -0.0799921,-0.0799921l-3.93701e-006 -0.480299c0,-0.0443268 0.0356654,-0.0799921 0.0799921,-0.0799921l0.480299 0c0.0443307,0 0.0799921,0.0356654 0.0799921,0.0799921l0 0.480299c3.93701e-006,0.0439961 -0.0356614,0.0799921 -0.0799921,0.0799921l-0.159988 0 0 0.143657 0.927929 0c0.0443307,0 0.0799921,0.0356614 0.0799921,0.0799921l0 0.349307 0.141992 0c0.0443268,0 0.0799921,0.0356654 0.0799921,0.0799921l0 0.480299c0,0.0443307 -0.0359961,0.0799921 -0.0799921,0.0799921l-0.480299 0c-0.0443268,0 -0.0799921,-0.0356614 -0.0799921,-0.0799921l0 -0.480299c0,-0.0443268 0.0356654,-0.0799921 0.0799921,-0.0799921l0.178323 0 0 -0.269311 -0.847937 0 0 0.269311 0.159988 0c0.0443307,0 0.0799921,0.0356654 0.0799921,0.0799921l0 0.480299c3.93701e-006,0.0443307 -0.0356614,0.0799921 -0.0799921,0.0799921l-0.480295 0c-0.0443307,0 -0.0799921,-0.0356614 -0.0799921,-0.0799921l-3.93701e-006 -0.480299c0,-0.0443268 0.0356654,-0.0799921 0.0799921,-0.0799921l0.160323 0 0 -0.269311 -0.847933 0 0 0.269311 0.178319 0c0.0443268,0 0.0799921,0.0356654 0.0799921,0.0799921l0 0.480299c3.93701e-006,0.0443307 -0.0359961,0.0799921 -0.0799921,0.0799921l-0.480295 0c-0.0443307,0 -0.0799921,-0.0356614 -0.0799921,-0.0799921l-3.93701e-006 -0.480299c0,-0.0443268 0.0356654,-0.0799921 0.0799921,-0.0799921l0.141992 0 0 -0.349307c0,-0.0443307 0.0356614,-0.0799921 0.0799921,-0.0799921z"/>
  <polygon class="fil6" points="4.12444,2.94804 4.12444,3.26834 4.28476,3.26835 4.44476,3.26834 4.44476,2.94804 "/>
  <polygon class="fil7" points="4.28476,4.16128 4.12444,4.16128 4.12444,4.48159 4.44476,4.48159 4.44476,4.16128 "/>
  <polygon class="fil8" points="3.45516,4.48159 3.45516,4.16128 3.27685,4.16128 3.13485,4.16128 3.13485,4.48159 "/>
  <polygon class="fil8" points="5.11437,4.16128 5.11437,4.48159 5.43468,4.48159 5.43468,4.16128 5.29269,4.16128 "/>
 </g>
</svg>
