<?xml version="1.0" encoding="UTF-8"?>
<!DOCTYPE svg PUBLIC "-//W3C//DTD SVG 1.1//EN" "http://www.w3.org/Graphics/SVG/1.1/DTD/svg11.dtd">
<!-- Creator: CorelDRAW -->
<svg xmlns="http://www.w3.org/2000/svg" xml:space="preserve" width="6.82666in" height="6.82666in" style="shape-rendering:geometricPrecision; text-rendering:geometricPrecision; image-rendering:optimizeQuality; fill-rule:evenodd; clip-rule:evenodd"
viewBox="0 0 6.82666 6.82666"
 xmlns:xlink="http://www.w3.org/1999/xlink">
 <defs>
  <style type="text/css">
   <![CDATA[
    .fil0 {fill:none}
    .fil2 {fill:#194D80}
    .fil5 {fill:#333333}
    .fil1 {fill:#515262}
    .fil3 {fill:#694B4B}
    .fil8 {fill:#CCCCCC}
    .fil4 {fill:#DFE5EF}
    .fil7 {fill:#EFF2FA}
    .fil6 {fill:#FFDDCE}
   ]]>
  </style>
 </defs>
 <rect class="fil0" width="6.82666" height="6.82666"/>
 <g id="Layer_x0020_1">
  <metadata id="CorelCorpID_0Corel-Layer"/>
  <path class="fil1" d="M2.96492 4.38843c0.000299213,0.00023622 0.000653543,0.000527559 0.00100394,0.000830709l0.0216417 0.0187559 -0.167614 0.16761 -0.168539 -0.168539 0.0233268 -0.0186024c0.000314961,-0.000251969 0.000629921,-0.0005 0.000940945,-0.000751969 0.042185,-0.0335984 0.0850157,-0.0664331 0.128209,-0.0987244l0.0159685 -0.0119409 0.0159685 0.0119409c0.0435315,0.0325472 0.0867874,0.0654094 0.129094,0.0994213zm0.0353386 1.23141l-0.359949 0 0.179976 -0.74248 0.179972 0.74248z"/>
  <path class="fil2" d="M3.62101 4.30111c0.00944488,-0.100689 0.0810118,-0.193496 0.18887,-0.193496l0.667425 0c0.00353543,0 0.0070748,0 0.0106102,0l1.16249 3.93701e-006c0.0550236,0 0.109508,0.0240709 0.146661,0.0646535 0.0299685,0.0327362 0.0464016,0.0740669 0.0422047,0.118819l-0.124587 1.32874 -2.2174 0 0.123728 -1.31872zm0.858909 1.05031c-0.00750787,0.0280276 0.00897638,0.0580709 0.0374134,0.0652323 0.00469291,0.0011811 0.0093189,0.00185827 0.0141575,0.00185827 0.0240748,0 0.0453386,-0.0163071 0.0515709,-0.0395669l0.268646 -1.00259c0.0075748,-0.0282677 -0.00944882,-0.0577992 -0.037752,-0.0653189 -0.0283228,-0.00752362 -0.0577992,0.00946457 -0.0653898,0.0377913l-0.268646 1.00259zm0.530201 -0.132894c0.0136457,0 0.027748,-0.00512992 0.0374724,-0.0148543l0.317311 -0.317307c0.0100433,-0.0100472 0.0155197,-0.0236181 0.0155197,-0.0378071 0,-0.014189 -0.00547638,-0.0277598 -0.0155197,-0.0378071l-0.317311 -0.317311c-0.020878,-0.020874 -0.0544331,-0.0207323 -0.0753307,5.11811e-005 -0.0208937,0.0207835 -0.020752,0.0544291 5.11811e-005,0.0752323l0.2795 0.2795 -0.2795 0.2795c-0.0208386,0.0208386 -0.0208425,0.054437 0,0.0752835 0.0100394,0.0100394 0.0236339,0.0155197 0.0378071,0.0155197zm-0.688614 0c0.0142638,0 0.0273386,-0.00589764 0.0373228,-0.0160394 0.0206654,-0.021 0.0211102,-0.0544685 0.000149606,-0.0754291l-0.2795 -0.2795 0.2795 -0.279504c0.020878,-0.020878 0.0207323,-0.0544291 -5.11811e-005,-0.0753307 -0.0207795,-0.0208937 -0.0544252,-0.020748 -0.0752283,5.11811e-005l-0.317311 0.317307c-0.0100433,0.0100472 -0.0155197,0.0236181 -0.0155197,0.0378071 0,0.014189 0.00547638,0.0277598 0.0155197,0.0378071l0.317311 0.317311c0.0100394,0.0100394 0.0236339,0.0155197 0.0378071,0.0155197z"/>
  <path class="fil3" d="M2.36833 2.16159c-0.140386,0.0159134 -0.286752,0.0166024 -0.427685,0.00575984l-0.0246181 -0.0018937 0 -0.0550276c0,-0.498524 0.40576,-0.904268 0.904264,-0.904268 0.498681,0 0.904264,0.405587 0.904264,0.904268l0 0.0568465 -0.0256457 0.000980315c-0.150398,0.00574803 -0.28985,-0.0586772 -0.406638,-0.149067 -0.0522126,-0.0404094 -0.100815,-0.0865787 -0.144618,-0.135976 -0.0179252,-0.0202126 -0.0389055,-0.0443465 -0.054126,-0.0667992 -0.0106969,-0.0157835 -0.0291969,-0.0241693 -0.0481142,-0.0224094 -0.0191102,0.00177953 -0.035874,0.0135118 -0.0439213,0.0309528 -0.106461,0.230705 -0.401925,0.310421 -0.633161,0.336634z"/>
  <path class="fil4" d="M3.2248 3.76854l-0.294736 0.424811c0.0321811,0.0242559 0.0737323,0.0560472 0.117205,0.0905748 0.0262323,0.0208465 0.049563,0.0398819 0.0703307,0.057248 0.000527559,0.000429134 0.00104724,0.000866142 0.00156299,0.00131102 4.72441e-005,3.93701e-005 9.44882e-005,7.87402e-005 0.000141732,0.00011811 0.00158661,0.00137008 0.00312992,0.00281102 0.00462598,0.00432283 0.0313307,0.0313307 0.0313307,0.0819961 0,0.112988l-0.0522598 0.0522598c0.0568465,0.0507874 0.073185,0.072685 0.0775906,0.0797323 0.0146654,0.0236654 0.0406614,0.0376614 0.0679961,0.0376614 0.00433071,0 0.00866535,-0.000334646 0.0133346,-0.000334646 0.0319961,-0.00533465 0.0576614,-0.0296654 0.0646614,-0.0613268 0.00166535,-0.00766929 0.0439961,-0.196323 0.0709921,-0.413969 0.0267756,-0.216535 0.0285039,-0.380047 0.00507087,-0.494626 -0.0101102,-0.0494488 -0.0249094,-0.0897795 -0.0444016,-0.121331 -0.00484252,-0.00792913 -0.0108504,-0.0147047 -0.0176693,-0.0202441 -0.0255787,-0.0207795 -0.0625866,-0.0241732 -0.0923189,-0.00575197 -0.0376654,0.0229961 -0.0493307,0.0723268 -0.026,0.109988 0.00102362,0.00165354 0.00210236,0.00351969 0.00322047,0.00562598 0.0105354,0.0197953 0.0247323,0.0605472 0.0306535,0.140941z"/>
  <g id="_438148168">
   <g>
    <g id="_260626920">
     <path id="_438150544" class="fil5" d="M3.43857 5.75315l-2.50515 0c-0.0443307,0 -0.0799921,-0.0356654 -0.0799921,-0.0799961l0 -1.04692c0,-0.151657 0.0299961,-0.298976 0.0889921,-0.437969 0.0569961,-0.133988 0.138323,-0.254646 0.24198,-0.358303 0.103657,-0.103657 0.224315,-0.184988 0.358303,-0.241984 0.138992,-0.0589921 0.286311,-0.0889921 0.437969,-0.0889921l0.401638 0c0.0263307,0 0.0506614,0.013 0.0656614,0.0343307l0.372638 0.537291 0.372638 -0.536957c0.015,-0.0216654 0.0396654,-0.0343346 0.0656614,-0.0343346l0.347972 0c0.189654,0 0.377638,0.0486654 0.543295,0.140657 0.160319,0.0889921 0.298307,0.216984 0.399303,0.370638 0.0243307,0.0369961 0.0139961,0.0866575 -0.023,0.110657 -0.0369961,0.0243307 -0.0866575,0.0139961 -0.110657,-0.0229961 -0.180654,-0.27498 -0.482961,-0.438969 -0.808937,-0.438969l-0.306311 3.93701e-006 -0.414634 0.597622c-0.015,0.0216654 -0.0396654,0.0343307 -0.0656614,0.0343307 -0.026,0 -0.0506654,-0.013 -0.0656614,-0.0343307l-0.414638 -0.597622 -0.359638 0c-0.532961,0 -0.966925,0.43363 -0.966925,0.966925l0 0.966925 2.42515 0c0.0443268,0 0.0799921,0.0356654 0.0799921,0.0799921 0,0.0443307 -0.0356654,0.0799961 -0.0799921,0.0799961z"/>
    </g>
    <g id="_260627472">
     <path id="_438150184" class="fil5" d="M2.82029 3.354c-0.139657,0 -0.27498,-0.0276654 -0.402972,-0.0819961 -0.123323,-0.0523307 -0.234315,-0.127323 -0.329642,-0.22265 -0.0953228,-0.0953268 -0.170319,-0.206319 -0.22265,-0.329642 -0.0543307,-0.127988 -0.0819961,-0.263646 -0.0819961,-0.402972l0 -0.20598c0,-0.139657 0.0276654,-0.27498 0.0819961,-0.402972 0.0523307,-0.123323 0.127327,-0.234315 0.22265,-0.329642 0.0953268,-0.0953228 0.206319,-0.170319 0.329642,-0.22265 0.127988,-0.0543307 0.263646,-0.0819961 0.402972,-0.0819961l0 3.93701e-006c0.139654,0 0.274976,0.0276654 0.402969,0.0819961 0.123327,0.0523307 0.234315,0.127323 0.329642,0.22265 0.0953268,0.0953268 0.170319,0.206315 0.22265,0.329642 0.0543307,0.127988 0.0819961,0.263646 0.0819961,0.402969l-3.93701e-006 0.20565c0,0.139657 -0.0276654,0.27498 -0.0819921,0.402972 -0.0523307,0.123323 -0.127327,0.234315 -0.222654,0.329642 -0.0953228,0.0953268 -0.206315,0.170319 -0.329642,0.22265 -0.127654,0.0546614 -0.263311,0.0823268 -0.402965,0.0823268zm0 -2.12117c-0.483634,0 -0.877598,0.393638 -0.877598,0.877602l0 0.20598c0,0.483965 0.393634,0.877602 0.877598,0.877602 0.483965,0 0.877598,-0.393638 0.877598,-0.877602l0 -0.20598c0,-0.483965 -0.393638,-0.877602 -0.877598,-0.877602l0 0z"/>
    </g>
    <g id="_260627064">
     <path id="_438150376" class="fil5" d="M2.43265 3.64098l-0.101327 -0.123657c0,0 -0.000665354,0.000665354 -0.002,0.002 0.000669291,-0.000669291 0.0729961,-0.0713268 0.109992,-0.306646 0.007,-0.0436614 0.0476614,-0.0733307 0.0913268,-0.0666614 0.0436614,0.007 0.0733307,0.0476614 0.0666614,0.0913268 -0.0463307,0.293646 -0.145323,0.387972 -0.164654,0.403638z"/>
    </g>
    <g id="_260626944">
     <path id="_438150304" class="fil5" d="M3.20826 3.64098c-0.0193346,-0.016 -0.118327,-0.109992 -0.164654,-0.403634 -0.00700394,-0.0436614 0.0229961,-0.0846614 0.0666614,-0.0913268 0.0436614,-0.00700394 0.0846614,0.0229961 0.0913268,0.0666614 0.037,0.235315 0.109327,0.305976 0.109992,0.306642 -0.00133465,-0.00133465 -0.002,-0.00199606 -0.002,-0.00199606l-0.101327 0.123654z"/>
    </g>
    <g id="_260626872">
     <path id="_438150448" class="fil5" d="M1.66671 5.75315c-0.0443307,0 -0.0799921,-0.0356654 -0.0799921,-0.0799961l0 -0.675614c0,-0.0443307 0.0356614,-0.0799921 0.0799921,-0.0799921 0.0443268,0 0.0799921,0.0356614 0.0799921,0.0799921l0 0.675614c0,0.0443307 -0.0356654,0.0799961 -0.0799921,0.0799961z"/>
    </g>
    <g id="_260627496">
     <path id="_438149920" class="fil5" d="M2.12734 2.30808c-0.155988,0 -0.26798,-0.0143307 -0.274646,-0.0153307 -0.0436614,-0.00566535 -0.0746614,-0.046 -0.0689921,-0.0896614 0.00566535,-0.0436614 0.0459961,-0.0746614 0.0896575,-0.0689961l0 0c0.00233465,0.000334646 0.23598,0.03 0.491965,0.00100394 0.223315,-0.0253346 0.510626,-0.101661 0.611953,-0.321311 0.012,-0.0259961 0.0369961,-0.0436614 0.0656614,-0.0463307 0.0286614,-0.00266535 0.0563268,0.0103346 0.0726614,0.034 0.000665354,0.001 0.0736614,0.104323 0.192988,0.19665 0.151984,0.117657 0.305307,0.163323 0.455295,0.136323 0.0433307,-0.00766535 0.0849961,0.021 0.0929921,0.0646614 0.00766535,0.0433307 -0.0209961,0.0849961 -0.0646575,0.0929921 -0.0366654,0.00666929 -0.0736614,0.01 -0.110657,0.01 -0.159992,0 -0.322307,-0.0613307 -0.474634,-0.180319 -0.0603268,-0.0473307 -0.110323,-0.0963268 -0.147323,-0.136654 -0.0619921,0.0813268 -0.148323,0.148323 -0.25698,0.19965 -0.115988,0.0546614 -0.25798,0.0916575 -0.422634,0.109988 -0.0899961,0.00966929 -0.176654,0.0133346 -0.25265,0.0133346z"/>
    </g>
    <g id="_260626824">
     <path id="_438149632" class="fil5" d="M3.21726 4.62957c-0.0273346,0 -0.0533307,-0.0139961 -0.0679961,-0.0376614 -0.00666535,-0.0106654 -0.0406614,-0.0553307 -0.200984,-0.182654 -0.0896614,-0.0713268 -0.173988,-0.132657 -0.174654,-0.132992 -0.0356654,-0.0259961 -0.0436614,-0.0759921 -0.0176654,-0.111657 0.0259961,-0.0356614 0.0759961,-0.0436614 0.111657,-0.0176654 0.00366929,0.00266535 0.0873268,0.0636614 0.179654,0.136988 0.0503307,0.04 0.0899921,0.0733307 0.121327,0.100992 0.0126654,-0.0699961 0.0273307,-0.158988 0.0389961,-0.25198 0.0446614,-0.364303 0.00333465,-0.47863 -0.0166654,-0.510965 -0.0233307,-0.0376614 -0.0116654,-0.0869921 0.026,-0.109988 0.0376614,-0.0233307 0.0869921,-0.0116654 0.109988,0.0259961 0.0646614,0.104657 0.0776614,0.305976 0.0393307,0.615957 -0.0269961,0.217646 -0.0693268,0.406299 -0.0709921,0.413969 -0.007,0.0316614 -0.0326654,0.0559921 -0.0646614,0.0613268 -0.00466929,0 -0.00900394,0.000334646 -0.0133346,0.000334646z"/>
    </g>
    <g id="_260627664">
     <path id="_438149512" class="fil5" d="M2.42365 4.62957c-0.00433465,0 -0.009,-0.000334646 -0.0133346,-0.001 -0.0319961,-0.00533071 -0.0576614,-0.0296654 -0.0646614,-0.0613307 -0.00166535,-0.00799606 -0.0439961,-0.196319 -0.0709921,-0.413969 -0.0383307,-0.309976 -0.0253346,-0.511291 0.0393307,-0.615953 0.0233307,-0.0376654 0.0726614,-0.0493307 0.109992,-0.026 0.0376614,0.0233307 0.0493307,0.0726614 0.0259961,0.109992 -0.02,0.0323307 -0.0616614,0.146988 -0.0166654,0.512295 0.0113307,0.0926575 0.0259961,0.180984 0.0386654,0.250646 0.0313307,-0.0276654 0.0709921,-0.0606614 0.121323,-0.100992 0.0923268,-0.0733307 0.176319,-0.134323 0.179654,-0.136988 0.0356654,-0.0259961 0.0856575,-0.018 0.111657,0.0176654 0.026,0.0356614 0.018,0.0856575 -0.0176614,0.111657 -0.00100394,0.000669291 -0.0849961,0.0616614 -0.174657,0.132992 -0.160323,0.127657 -0.194315,0.171988 -0.200984,0.182654 -0.0143346,0.0243346 -0.0403307,0.0383307 -0.0676614,0.0383307z"/>
    </g>
    <g id="_260627568">
     <path id="_438149704" class="fil5" d="M2.82029 4.7309c-0.0213346,0 -0.0416654,-0.00833465 -0.0566654,-0.0233307l-0.247646 -0.24765c-0.0313307,-0.0313307 -0.0313307,-0.0819921 0,-0.112988 0.0313346,-0.0309961 0.0819961,-0.0313346 0.112992,0l0.190984 0.190984 0.190984 -0.190984c0.0313307,-0.0313346 0.0819961,-0.0313346 0.112992,0 0.0313307,0.0313307 0.0313307,0.0819961 0,0.112988l-0.24765 0.24765c-0.0143307,0.0149961 -0.0346614,0.0233307 -0.0559921,0.0233307z"/>
    </g>
    <g id="_260628168">
     <path id="_438150016" class="fil5" d="M3.06793 5.75315c-0.0359961,0 -0.0686614,-0.0246654 -0.0776614,-0.0613307l-0.169984 -0.70128 -0.169988 0.70128c-0.0103346,0.0429961 -0.0536614,0.0693268 -0.0966575,0.0589961 -0.043,-0.0103346 -0.0693307,-0.0536654 -0.0589961,-0.0966614l0.247646 -1.02226c0.00866535,-0.0359961 0.0406614,-0.0613307 0.0776614,-0.0613307 0,0 0,0 0,0 0.0369961,0 0.0689961,0.0253346 0.0776614,0.0613307l0.247646 1.02226c0.0103346,0.0429961 -0.016,0.0863268 -0.0589961,0.0966614 -0.00566535,0.00166929 -0.0119961,0.00233465 -0.0183307,0.00233465z"/>
    </g>
    <g id="_260627952">
     <path id="_438149464" class="fil5" d="M1.66671 5.36852l-0.73328 0c-0.0443307,0 -0.0799921,-0.0356614 -0.0799921,-0.0799921 0,-0.0443307 0.0356614,-0.0799921 0.0799921,-0.0799921l0.73328 -3.93701e-006c0.0443268,0 0.0799921,0.0356654 0.0799921,0.0799921 0,0.0443307 -0.0356654,0.0799961 -0.0799921,0.0799961z"/>
    </g>
    <g id="_260627640">
     <path id="_438149104" class="fil5" d="M5.76306 5.75315l-2.32448 0c-0.0226654,0 -0.0439961,-0.00933465 -0.0589961,-0.026 -0.015,-0.0166614 -0.0226654,-0.0389961 -0.0203307,-0.0613268l0.128988 -1.3769c0.008,-0.0836614 0.0426654,-0.161319 0.0976575,-0.21865 0.0593307,-0.0616614 0.138992,-0.0956575 0.223984,-0.0956575l1.84052 0c0.0933268,0 0.182654,0.0396654 0.245315,0.108327 0.0566614,0.0623268 0.0836614,0.140654 0.0763307,0.22098l-0.128992 1.3769c-0.00433465,0.0409961 -0.0386654,0.0723268 -0.0799961,0.0723268zm-2.2365 -0.159988l2.16383 0 0.122323 -1.30457c0.00433465,-0.0446614 -0.0169961,-0.0783268 -0.0353268,-0.0983268 -0.032,-0.0349961 -0.0793307,-0.0559921 -0.126992,-0.0559921l-1.84052 -3.93701e-006c-0.0959921,0 -0.154323,0.0853268 -0.162323,0.169323l-0.120992 1.28957z"/>
    </g>
    <g>
     <g id="_260627976">
      <path id="_438148792" class="fil5" d="M4.53149 5.44518c-0.007,0 -0.0136654,-0.001 -0.0206654,-0.00266535 -0.0426654,-0.0113346 -0.0679921,-0.0553307 -0.0566614,-0.0979921l0.268646 -1.00259c0.0113307,-0.0426614 0.0553307,-0.0679921 0.0979921,-0.0566614 0.0426614,0.0113346 0.0679921,0.0553307 0.0566614,0.0979921l-0.268646 1.00259c-0.00966535,0.0356654 -0.0419961,0.0593307 -0.0773268,0.0593307z"/>
     </g>
     <g>
      <g id="_260627808">
       <path id="_438148648" class="fil5" d="M4.3215 5.24519c-0.0203307,0 -0.0409961,-0.00766535 -0.0566614,-0.0233307l-0.317311 -0.317311c-0.0149961,-0.0149961 -0.0233307,-0.0353268 -0.0233307,-0.0566614 0,-0.0213307 0.00833465,-0.0416614 0.0233307,-0.0566614l0.317311 -0.317307c0.0313307,-0.0313346 0.0819961,-0.0313346 0.112988,0 0.0313346,0.0313307 0.0313346,0.0819921 0,0.112988l-0.260646 0.26065 0.260646 0.260646c0.0313346,0.0313307 0.0313346,0.0819921 0,0.112988 -0.0153307,0.016 -0.0356614,0.024 -0.0563268,0.024z"/>
      </g>
      <g id="_260628288">
       <path id="_438148576" class="fil5" d="M5.01012 5.24519c-0.0203307,0 -0.0409961,-0.00766535 -0.0566614,-0.0233307 -0.0313346,-0.0313346 -0.0313346,-0.0819961 0,-0.112992l0.260646 -0.260646 -0.260646 -0.260646c-0.0313346,-0.0313346 -0.0313346,-0.0819961 0,-0.112992 0.0313307,-0.0313307 0.0819921,-0.0313307 0.112988,0l0.317311 0.317311c0.0149961,0.0149961 0.0233307,0.0353268 0.0233307,0.0566614 0,0.0213307 -0.00833465,0.0416614 -0.0233307,0.0566614l-0.317311 0.317307c-0.0153307,0.0146654 -0.0359961,0.0226654 -0.0563268,0.0226654z"/>
      </g>
     </g>
    </g>
    <g>
     <g id="_260627736">
      <path id="_438148816" class="fil5" d="M5.02378 3.60865l-0.123657 0c-0.0819961,0 -0.148323,-0.0609961 -0.164988,-0.151988l-0.0136614 -0.0746575c-0.027,-0.00933465 -0.0536654,-0.0203346 -0.0796614,-0.033l-0.0623268 0.0433307c-0.0759961,0.0526614 -0.165988,0.049 -0.223984,-0.00933071l-0.0873268 -0.0873268c-0.0579961,-0.0579961 -0.0616614,-0.147992 -0.00933071,-0.223984l0.0433307 -0.0623268c-0.0126654,-0.0259961 -0.0236654,-0.0526614 -0.0329961,-0.0796614l-0.0746614 -0.0136614c-0.0909961,-0.0163346 -0.151988,-0.0826614 -0.151988,-0.164988l0 -0.123657c0,-0.0819961 0.0609961,-0.148323 0.151988,-0.164988l0.0746614 -0.0136654c0.00933071,-0.0269961 0.0203307,-0.0536614 0.0329961,-0.0796575l-0.0433307 -0.0623307c-0.0526614,-0.0759921 -0.049,-0.165988 0.00933071,-0.22398l0.0873268 -0.0873268c0.058,-0.0579961 0.147992,-0.0616614 0.223984,-0.00933465l0.0623268 0.0433307c0.0259961,-0.0126654 0.0526614,-0.0236614 0.0796614,-0.0329961l0.0136614 -0.0746614c0.0163346,-0.0909921 0.0826614,-0.151988 0.164988,-0.151988l0.123657 -1.1811e-005c0.0819961,0 0.148323,0.061 0.164988,0.151988l0.0136654 0.0746614c0.0269961,0.00933465 0.0536614,0.0203307 0.0796575,0.0329961l0.0623307 -0.0433307c0.0759921,-0.0526614 0.165988,-0.0489961 0.22398,0.00933465l0.0873268 0.0873268c0.0579961,0.0579961 0.0616614,0.147988 0.00933465,0.22398l-0.0433307 0.0623307c0.0126654,0.0259961 0.0236614,0.0526614 0.0329961,0.0796575l0.0746614 0.0136654c0.0909921,0.0163346 0.151988,0.0826575 0.151988,0.164988l0 0.123657c0,0.0819961 -0.061,0.148323 -0.151988,0.164988l-0.0746614 0.0136614c-0.00933465,0.027 -0.0203307,0.0536654 -0.0329961,0.0796614l0.0433307 0.0623268c0.0526614,0.0759961 0.0489961,0.165988 -0.00933465,0.223984l-0.0873268 0.0873268c-0.0579961,0.0579961 -0.147988,0.0616614 -0.22398,0.00933071l-0.0623307 -0.0433307c-0.0259961,0.0126654 -0.0526614,0.0236654 -0.0796575,0.033l-0.0136654 0.0746575c-0.0166654,0.0910039 -0.0829961,0.152 -0.164988,0.152zm-0.122657 -0.159988l0.121657 0c0.00233071,-0.00233071 0.00633465,-0.00933465 0.00833071,-0.0206654l0.0223346 -0.122323c0.00566535,-0.0303307 0.028,-0.0549961 0.0579961,-0.0629961 0.0476614,-0.0126654 0.0933268,-0.0316614 0.136323,-0.0563268 0.0266654,-0.0153346 0.0599961,-0.014 0.0853307,0.00366535l0.102327 0.0709961c0.00933071,0.00633071 0.0169961,0.00833071 0.0203307,0.00866535l0.0859921 -0.0859921c0,-0.00333465 -0.002,-0.0113346 -0.00866535,-0.0203307l-0.0709961 -0.102327c-0.0176654,-0.0253346 -0.019,-0.0586614 -0.00366535,-0.0853307 0.0246654,-0.0429961 0.0436614,-0.0886575 0.0563268,-0.135988 0.008,-0.03 0.0326654,-0.0523307 0.0629961,-0.0579961l0.122323 -0.0223346c0.011,-0.002 0.018,-0.006 0.0203307,-0.00833071l0 -0.121657c-0.00233071,-0.00233071 -0.00933071,-0.00633465 -0.0206614,-0.00833071l-0.122327 -0.0223346c-0.0303307,-0.00566535 -0.0549961,-0.028 -0.0629921,-0.0579961 -0.0126693,-0.0476614 -0.0316654,-0.0933268 -0.0563307,-0.136323 -0.0153307,-0.0266654 -0.0139961,-0.0599961 0.00366929,-0.0853307l0.0709921 -0.102327c0.00633465,-0.00933071 0.00833071,-0.0169961 0.00866535,-0.0203307l-0.0859921 -0.0859921c-0.00333465,0 -0.0113307,0.002 -0.0203307,0.00866535l-0.102327 0.0709961c-0.0253307,0.0176654 -0.0586614,0.019 -0.0853268,0.00366535 -0.043,-0.0246654 -0.0886614,-0.0436614 -0.135992,-0.0563268 -0.0299961,-0.008 -0.0523307,-0.0326654 -0.0579961,-0.0629961l-0.0223346 -0.122323c-0.00199606,-0.011 -0.006,-0.018 -0.00833071,-0.0206654l-0.121657 0c-0.00233071,0.00233071 -0.00633071,0.00933071 -0.00833071,0.0206654l-0.0223346 0.122323c-0.00566535,0.0303307 -0.0279961,0.0549961 -0.0579961,0.0629961 -0.0476614,0.0126654 -0.0933268,0.0316614 -0.135988,0.0563268 -0.0266654,0.0153346 -0.0599961,0.014 -0.0853307,-0.00366535l-0.102323 -0.0709961c-0.00933465,-0.00633071 -0.017,-0.00833071 -0.0203346,-0.00866535l-0.0859921 0.0859921c0,0.00333465 0.002,0.0113346 0.00866535,0.0203307l0.0709961 0.102327c0.0176654,0.0253346 0.019,0.0586614 0.00366535,0.0853307 -0.0246654,0.0429961 -0.0436614,0.0886575 -0.0563268,0.135988 -0.008,0.03 -0.0326654,0.0523307 -0.0629961,0.0579961l-0.122323 0.0223346c-0.011,0.002 -0.018,0.006 -0.0203307,0.00833071l0 0.121657c0.00233071,0.00233071 0.00933071,0.00633465 0.0206654,0.00833071l0.122323 0.0223346c0.0303307,0.00566535 0.0549961,0.028 0.0629961,0.0579961 0.0126654,0.0476614 0.0316614,0.0933268 0.0563268,0.136323 0.0153307,0.0266654 0.0139961,0.0599961 -0.00366535,0.0853307l-0.0709961 0.102327c-0.00633071,0.00933071 -0.00833071,0.0169961 -0.00866535,0.0203307l0.0859921 0.0859921c0.00333465,0 0.0113307,-0.002 0.0203307,-0.00866535l0.102327 -0.0709961c0.0253346,-0.0176654 0.0586614,-0.019 0.0853268,-0.00366535 0.043,0.0246654 0.0886614,0.0436614 0.135992,0.0563268 0.0299961,0.008 0.0523307,0.0326654 0.0579961,0.0629961l0.0223346 0.122323c0.00166535,0.0113307 0.00566142,0.0183346 0.00799606,0.0206654z"/>
     </g>
     <g id="_260628120">
      <path id="_438147832" class="fil5" d="M4.96212 3.09202c-0.221984,0 -0.402638,-0.180654 -0.402638,-0.402638 0,-0.221984 0.180654,-0.402638 0.402638,-0.402638 0.22198,0 0.402634,0.180654 0.402634,0.402638 0,0.221984 -0.180654,0.402638 -0.402634,0.402638zm0 -0.645287c-0.133657,0 -0.24265,0.108992 -0.24265,0.24265 0,0.133654 0.108992,0.242646 0.24265,0.242646 0.133654,0 0.242646,-0.108992 0.242646,-0.242646 0,-0.133657 -0.108988,-0.24265 -0.242646,-0.24265z"/>
     </g>
    </g>
   </g>
  </g>
  <path class="fil6" d="M3.101 3.148c0.346693,-0.117319 0.596886,-0.445744 0.596886,-0.831583l0 -0.0145472c-0.00544094,0.000145669 -0.0108858,0.000216535 -0.0163268,0.000216535 -0.159992,0 -0.322307,-0.0613307 -0.474634,-0.180319 -0.0603268,-0.0473307 -0.110323,-0.0963268 -0.147323,-0.136654 -0.0619921,0.0813268 -0.148323,0.148323 -0.25698,0.19965 -0.115988,0.0546614 -0.25798,0.0916575 -0.422634,0.109988 -0.0899961,0.00966929 -0.176654,0.0133346 -0.25265,0.0133346 -0.0734331,0 -0.137114,-0.00317717 -0.18465,-0.00664173l0 0.0149724c0,0.38565 0.249949,0.713945 0.596382,0.831413 0.003,0.000811024 0.00591732,0.0017874 0.00874803,0.00291339 0.0858031,0.0280827 0.177394,0.0432756 0.272469,0.0432756 0.0952126,0 0.186929,-0.0152362 0.272843,-0.0433976 0.00255512,-0.00100394 0.0051811,-0.00187795 0.00787008,-0.00262205z"/>
  <path class="fil6" d="M2.82029 3.354c-0.0815866,0 -0.161689,-0.00944094 -0.23972,-0.028126 -0.0287362,0.128831 -0.0674961,0.208941 -0.0985827,0.256472l0.338634 0.488264 0.338614 -0.487929c-0.0311457,-0.0474685 -0.0700827,-0.127622 -0.0989173,-0.256913 -0.0781102,0.0187756 -0.158386,0.0282323 -0.240028,0.0282323z"/>
  <path class="fil4" d="M2.71024 4.19297l-0.294311 -0.424193c-0.00574409,0.0784134 -0.00362205,0.194315 0.0173819,0.364831 0.0113307,0.0926575 0.0259961,0.180984 0.0386654,0.250646 0.0313307,-0.0276654 0.0709921,-0.0606614 0.121323,-0.100992 0.0432992,-0.0343937 0.0847677,-0.0660709 0.116941,-0.0902913z"/>
  <path class="fil7" d="M3.37131 3.65931c0.0234331,0.114579 0.0217047,0.278091 -0.00507087,0.494626 -0.0269961,0.217646 -0.0693268,0.406299 -0.0709921,0.413969 -0.007,0.0316614 -0.0326654,0.0559921 -0.0646614,0.0613268 -0.00466929,0 -0.00900394,0.000334646 -0.0133346,0.000334646 -0.0273346,0 -0.0533307,-0.0139961 -0.0679961,-0.0376614 -0.00440551,-0.00704724 -0.0207441,-0.0289449 -0.0775906,-0.0797323l-0.163461 0.163461 0.222276 0.917528 0.235571 0 0.122181 -1.30424c0.008,-0.0836614 0.0426654,-0.161319 0.0976575,-0.21865 0.0593307,-0.0616614 0.138992,-0.0956575 0.223984,-0.0956575l0.509925 0c-0.182319,-0.19976 -0.439276,-0.315311 -0.712909,-0.315311l-0.235579 3.93701e-006z"/>
  <path class="fil7" d="M2.50942 5.59317l0.222276 -0.917524 -0.163421 -0.163425c-0.0563386,0.0503858 -0.0725748,0.072 -0.0769646,0.0790236 -0.0143346,0.0243346 -0.0403307,0.0383307 -0.0676614,0.0383307 -0.00433465,0 -0.009,-0.000334646 -0.0133346,-0.001 -0.0319961,-0.00533071 -0.0576614,-0.0296654 -0.0646614,-0.0613307 -0.00166535,-0.00799606 -0.0439961,-0.196319 -0.0709921,-0.413969 -0.0267244,-0.216114 -0.0285,-0.379409 -0.00520866,-0.493957l-0.289102 0c-0.532961,0 -0.966925,0.43363 -0.966925,0.966925l0 0.582291 0.573291 -3.93701e-006 0 -0.210984c0,-0.0443307 0.0356614,-0.0799921 0.0799921,-0.0799921 0.0443268,0 0.0799921,0.0356614 0.0799921,0.0799921l0 0.290976 0 0.304646 0.76272 0z"/>
  <polygon class="fil6" points="1.58672,5.59317 1.58672,5.36852 1.01343,5.36852 1.01343,5.59317 "/>
  <path class="fil8" d="M4.67681 3.18635c0.043,0.0246654 0.0886614,0.0436614 0.135992,0.0563268 0.0299961,0.008 0.0523307,0.0326654 0.0579961,0.0629961l0.0223346 0.122323c0.00166535,0.0113307 0.00566142,0.0183346 0.00799606,0.0206654l0.121657 0c0.00233071,-0.00233071 0.00633465,-0.00933465 0.00833071,-0.0206654l0.0223346 -0.122323c0.00566535,-0.0303307 0.028,-0.0549961 0.0579961,-0.0629961 0.0476614,-0.0126654 0.0933268,-0.0316614 0.136323,-0.0563268 0.0266654,-0.0153346 0.0599961,-0.014 0.0853307,0.00366535l0.102327 0.0709961c0.00933071,0.00633071 0.0169961,0.00833071 0.0203307,0.00866535l0.0859921 -0.0859921c0,-0.00333465 -0.002,-0.0113346 -0.00866535,-0.0203307l-0.0709961 -0.102327c-0.0176654,-0.0253346 -0.019,-0.0586614 -0.00366535,-0.0853307 0.0246654,-0.0429961 0.0436614,-0.0886575 0.0563268,-0.135988 0.008,-0.03 0.0326654,-0.0523307 0.0629961,-0.0579961l0.122323 -0.0223346c0.011,-0.002 0.018,-0.006 0.0203307,-0.00833071l0 -0.121657c-0.00233071,-0.00233071 -0.00933071,-0.00633465 -0.0206614,-0.00833071l-0.122327 -0.0223346c-0.0303307,-0.00566535 -0.0549961,-0.028 -0.0629921,-0.0579961 -0.0126693,-0.0476614 -0.0316654,-0.0933268 -0.0563307,-0.136323 -0.0153307,-0.0266654 -0.0139961,-0.0599961 0.00366929,-0.0853307l0.0709921 -0.102327c0.00633465,-0.00933071 0.00833071,-0.0169961 0.00866535,-0.0203307l-0.0859921 -0.0859921c-0.00333465,0 -0.0113307,0.002 -0.0203307,0.00866535l-0.102327 0.0709961c-0.0253307,0.0176654 -0.0586614,0.019 -0.0853268,0.00366535 -0.043,-0.0246654 -0.0886614,-0.0436614 -0.135992,-0.0563268 -0.0299961,-0.008 -0.0523307,-0.0326654 -0.0579961,-0.0629961l-0.0223346 -0.122323c-0.00199606,-0.011 -0.006,-0.018 -0.00833071,-0.0206654l-0.121657 0c-0.00233071,0.00233071 -0.00633071,0.00933071 -0.00833071,0.0206654l-0.0223346 0.122323c-0.00566535,0.0303307 -0.0279961,0.0549961 -0.0579961,0.0629961 -0.0476614,0.0126654 -0.0933268,0.0316614 -0.135988,0.0563268 -0.0266654,0.0153346 -0.0599961,0.014 -0.0853307,-0.00366535l-0.102323 -0.0709961c-0.00933465,-0.00633071 -0.017,-0.00833071 -0.0203346,-0.00866535l-0.0859921 0.0859921c0,0.00333465 0.002,0.0113346 0.00866535,0.0203307l0.0709961 0.102327c0.0176654,0.0253346 0.019,0.0586614 0.00366535,0.0853307 -0.0246654,0.0429961 -0.0436614,0.0886575 -0.0563268,0.135988 -0.008,0.03 -0.0326654,0.0523307 -0.0629961,0.0579961l-0.122323 0.0223346c-0.011,0.002 -0.018,0.006 -0.0203307,0.00833071l0 0.121657c0.00233071,0.00233071 0.00933071,0.00633465 0.0206654,0.00833071l0.122323 0.0223346c0.0303307,0.00566535 0.0549961,0.028 0.0629961,0.0579961 0.0126654,0.0476614 0.0316614,0.0933268 0.0563268,0.136323 0.0153307,0.0266654 0.0139961,0.0599961 -0.00366535,0.0853307l-0.0709961 0.102327c-0.00633071,0.00933071 -0.00833071,0.0169961 -0.00866535,0.0203307l0.0859921 0.0859921c0.00333465,0 0.0113307,-0.002 0.0203307,-0.00866535l0.102327 -0.0709961c0.0253346,-0.0176654 0.0586614,-0.019 0.0853268,-0.00366535zm0.285315 -0.0943268c-0.221984,0 -0.402638,-0.180654 -0.402638,-0.402638 0,-0.221984 0.180654,-0.402638 0.402638,-0.402638 0.22198,0 0.402634,0.180654 0.402634,0.402638 0,0.221984 -0.180654,0.402638 -0.402634,0.402638z"/>
 </g>
</svg>
