<?xml version="1.0" encoding="UTF-8"?>
<!DOCTYPE svg PUBLIC "-//W3C//DTD SVG 1.1//EN" "http://www.w3.org/Graphics/SVG/1.1/DTD/svg11.dtd">
<!-- Creator: CorelDRAW -->
<svg xmlns="http://www.w3.org/2000/svg" xml:space="preserve" width="6.82666in" height="6.82666in" style="shape-rendering:geometricPrecision; text-rendering:geometricPrecision; image-rendering:optimizeQuality; fill-rule:evenodd; clip-rule:evenodd"
viewBox="0 0 6.82666 6.82666"
 xmlns:xlink="http://www.w3.org/1999/xlink">
 <defs>
  <style type="text/css">
   <![CDATA[
    .fil0 {fill:none}
    .fil1 {fill:#333333}
    .fil3 {fill:#91919E}
    .fil2 {fill:white}
   ]]>
  </style>
 </defs>
 <rect class="fil0" width="6.82666" height="6.82666"/>
 <g id="Layer_x0020_1">
  <metadata id="CorelCorpID_0Corel-Layer"/>
  <g id="_438152056">
   <g>
    <g id="_260628576">
     <path id="_438154576" class="fil1" d="M4.22127 5.29802l-0.265646 0c-0.0706614,0 -0.133988,-0.028 -0.182654,-0.0806614 -0.0409961,-0.0443268 -0.0689921,-0.102992 -0.0813268,-0.170319l-0.0389961 -0.214315c-0.0893268,-0.0273307 -0.176319,-0.0633268 -0.259311,-0.107657l-0.179319 0.124327c-0.0563307,0.0389961 -0.117661,0.0606614 -0.177988,0.0629921 -0.0719961,0.00266929 -0.136327,-0.0223307 -0.186319,-0.0723268l-0.187988 -0.187984c-0.0499921,-0.0499961 -0.0749921,-0.114327 -0.0723268,-0.186319 0.00233465,-0.0603307 0.024,-0.121657 0.0629961,-0.177988l0.123992 -0.179319c-0.0439961,-0.0829921 -0.0799921,-0.169654 -0.107657,-0.259315l-0.214319 -0.0389961c-0.0673268,-0.0123307 -0.125988,-0.0403307 -0.170319,-0.0813268 -0.0526614,-0.0489961 -0.0806575,-0.111992 -0.0806575,-0.182654l0 -0.265646c0,-0.0706575 0.0279961,-0.133988 0.0806575,-0.18265 0.0443307,-0.0409961 0.102992,-0.0689961 0.170319,-0.0813307l0.214319 -0.0389961c0.0273307,-0.0896575 0.0633268,-0.176319 0.107657,-0.259311l-0.124327 -0.179319c-0.0389961,-0.0559961 -0.0606614,-0.117661 -0.0629961,-0.177988 -0.00266535,-0.0719961 0.0223346,-0.136323 0.0723307,-0.186319l0.187984 -0.187984c0.0499961,-0.0499961 0.114323,-0.0749961 0.186319,-0.0723307 0.0603307,0.00233465 0.121657,0.024 0.177988,0.0629961l0.179319 0.124327c0.0829921,-0.0439961 0.169654,-0.0799961 0.259311,-0.107661l0.0389961 -0.214315c0.0123346,-0.0673268 0.0403346,-0.125988 0.0813307,-0.170319 0.0489961,-0.0526614 0.111992,-0.0806614 0.18265,-0.0806614l0.26565 -7.87402e-006c0.0706614,0 0.133988,0.028 0.182654,0.0806614 0.0409961,0.0443268 0.0689921,0.102992 0.0813268,0.170319l0.0389961 0.214315c0.0893268,0.0273307 0.176319,0.0633307 0.259311,0.107657l0.179319 -0.124323c0.0559961,-0.039 0.117661,-0.0606654 0.177988,-0.0629961 0.0719961,-0.00266535 0.136327,0.0223346 0.186319,0.0723268l0.187988 0.187984c0.0499921,0.0499961 0.0749921,0.114327 0.0723268,0.186323 -0.00233465,0.0603268 -0.024,0.121654 -0.0629961,0.177984l-0.123992 0.179323c0.0439961,0.0829921 0.0799921,0.16965 0.107657,0.259311l0.214319 0.0389961c0.0673268,0.0123346 0.125988,0.0403307 0.170319,0.0813268 0.0526614,0.049 0.0806614,0.111992 0.0806614,0.182654l0 0.265646c0,0.0706614 -0.028,0.133988 -0.0806614,0.182654 -0.0443307,0.0409961 -0.102992,0.0689921 -0.170319,0.0813268l-0.214319 0.0389961c-0.0273307,0.0893268 -0.0633268,0.176319 -0.107657,0.259311l0.124327 0.179323c0.0389961,0.0563268 0.0606614,0.117657 0.0629961,0.177984 0.00266535,0.0719961 -0.0223346,0.136327 -0.0723307,0.186323l-0.187984 0.187984c-0.0499961,0.0499921 -0.114323,0.0749921 -0.186319,0.0723268 -0.0603307,-0.00233071 -0.121657,-0.0239961 -0.177988,-0.0629961l-0.179319 -0.123992c-0.0829921,0.0439961 -0.169654,0.0799961 -0.259311,0.107661l-0.0389961 0.214315c-0.0123346,0.0673268 -0.0403346,0.125988 -0.0813307,0.170319 -0.0486614,0.0526732 -0.111992,0.0803346 -0.182654,0.0803346zm-0.832602 -0.746945c0.0136654,0 0.0276654,0.00366929 0.0399961,0.0106654 0.0989961,0.0569961 0.204988,0.100992 0.314646,0.130657 0.0299961,0.00799606 0.0523307,0.0326614 0.0579961,0.0629961l0.0476614 0.263311c0.00366929,0.0199961 0.0256654,0.119657 0.106657,0.119657l0.265646 3.93701e-006c0.0806614,0 0.102992,-0.0996575 0.106657,-0.119654l0.0476614 -0.263315c0.00566535,-0.0303307 0.028,-0.0549961 0.0579961,-0.0629961 0.109992,-0.0296614 0.215984,-0.0736575 0.314646,-0.130654 0.0266614,-0.0153346 0.0599921,-0.014 0.0853268,0.00366535l0.219984 0.152323c0.0166654,0.0116654 0.102992,0.0663268 0.159988,0.00933071l0.187984 -0.187984c0.0569961,-0.0569961 0.00233465,-0.143323 -0.00933071,-0.159988l-0.152657 -0.219984c-0.0176654,-0.0253346 -0.019,-0.0586614 -0.00366535,-0.0853268 0.0569961,-0.0989921 0.100992,-0.204988 0.130654,-0.314646 0.008,-0.0299961 0.0326654,-0.0523307 0.0629961,-0.0579961l0.263315 -0.0476614c0.0199961,-0.00366929 0.119657,-0.0256654 0.119657,-0.106657l0 -0.265646c0,-0.0806614 -0.0996614,-0.102992 -0.119657,-0.106657l-0.263315 -0.0476614c-0.0303307,-0.00566535 -0.0549961,-0.028 -0.0629961,-0.0579961 -0.0296614,-0.109992 -0.0736575,-0.215984 -0.130654,-0.314646 -0.0153346,-0.0266614 -0.014,-0.0599921 0.00366535,-0.0853268l0.152323 -0.219984c0.0116654,-0.0166654 0.0663268,-0.102992 0.00933465,-0.159988l-0.187988 -0.187984c-0.0569961,-0.0569961 -0.143319,-0.00233465 -0.159988,0.00933071l-0.219984 0.152657c-0.0253307,0.0176614 -0.0586614,0.0189961 -0.0853268,0.00366535 -0.0989921,-0.0569961 -0.204984,-0.100992 -0.314642,-0.130657 -0.03,-0.00799606 -0.0523307,-0.0326614 -0.058,-0.0629921l-0.0476614 -0.263315c-0.00366535,-0.0199961 -0.0256614,-0.119657 -0.106657,-0.119657l-0.265646 -3.93701e-006c-0.0806575,0 -0.102992,0.0996614 -0.106657,0.119657l-0.0476614 0.263315c-0.00566535,0.0303307 -0.028,0.0549961 -0.0579961,0.0629961 -0.109992,0.0296614 -0.21565,0.0733268 -0.314642,0.130323 -0.0266654,0.0153346 -0.0599961,0.014 -0.0853307,-0.00366535l-0.219984 -0.152323c-0.0166614,-0.0116654 -0.102992,-0.0663268 -0.159988,-0.00933071l-0.187984 0.187984c-0.0569961,0.0569961 -0.00233071,0.143323 0.00933465,0.159988l0.152319 0.219984c0.0176654,0.0253346 0.019,0.0586614 0.00366929,0.0853268 -0.0569961,0.0989921 -0.100992,0.204988 -0.130657,0.314646 -0.00799606,0.0299961 -0.0326654,0.0523307 -0.0629961,0.0579961l-0.263311 0.0476614c-0.0199961,0.00366929 -0.119657,0.0256654 -0.119657,0.106657l0 0.265646c0,0.0806614 0.0996614,0.102992 0.119657,0.106657l0.263311 0.0476614c0.0303307,0.00566535 0.055,0.028 0.0629961,0.0579961 0.0296654,0.109992 0.0736614,0.215984 0.130657,0.314646 0.0153307,0.0266614 0.0139961,0.0599921 -0.00366929,0.0853268l-0.152319 0.219984c-0.0116654,0.0166654 -0.0663307,0.102992 -0.00933465,0.159988l0.187984 0.187984c0.0569961,0.0569961 0.143323,0.00233465 0.159988,-0.00933071l0.219984 -0.152657c0.0136693,-0.00933465 0.0296693,-0.0140039 0.0456654,-0.0140039z"/>
    </g>
    <g id="_260628960">
     <path id="_438154624" class="fil1" d="M4.08861 4.53408c-0.151323,0 -0.29798,-0.0296654 -0.436299,-0.0879961 -0.133327,-0.0563268 -0.253311,-0.137319 -0.356307,-0.240315 -0.102992,-0.102992 -0.183654,-0.22265 -0.240315,-0.356303 -0.0583307,-0.138323 -0.0879921,-0.28498 -0.0879921,-0.436299 0,-0.151323 0.0296614,-0.29798 0.0879921,-0.436299 0.0563307,-0.133327 0.137323,-0.253315 0.240315,-0.356307 0.102996,-0.102992 0.22265,-0.183654 0.356307,-0.23998 0.138323,-0.0583307 0.284976,-0.0879961 0.436299,-0.0879961 0.151319,0 0.297976,0.0296654 0.436299,0.0879961 0.133323,0.0563268 0.253311,0.137323 0.356303,0.240315 0.102996,0.102992 0.183654,0.22265 0.240315,0.356307 0.0583307,0.138323 0.0879961,0.284976 0.0879961,0.436295 0,0.151327 -0.0296654,0.29798 -0.0879961,0.436299 -0.0563268,0.133327 -0.137319,0.253315 -0.240315,0.356307 -0.102992,0.102992 -0.22265,0.183654 -0.356303,0.240315 -0.138323,0.0583307 -0.28498,0.0876614 -0.436299,0.0876614zm0 -2.08118c-0.529626,0 -0.960594,0.430969 -0.960594,0.960594 0,0.52963 0.430965,0.960598 0.960594,0.960598 0.529626,0 0.960594,-0.430969 0.960594,-0.960598 0,-0.529626 -0.430969,-0.960594 -0.960594,-0.960594z"/>
    </g>
    <g id="_260629008">
     <path id="_438154408" class="fil1" d="M4.08861 2.73588c-0.0443307,0 -0.0799921,-0.0356614 -0.0799921,-0.0799921l0 -0.28298c0,-0.0443268 0.0356614,-0.0799921 0.0799921,-0.0799921 0.0443268,0 0.0799921,0.0356654 0.0799921,0.0799921l0 0.28298c0,0.0443307 -0.0359961,0.0799921 -0.0799921,0.0799921z"/>
    </g>
    <g id="_260628336">
     <path id="_438153304" class="fil1" d="M4.62424 2.95787c-0.0203307,0 -0.0409961,-0.00766535 -0.0566614,-0.0233307 -0.0313307,-0.0313307 -0.0313307,-0.0819961 0,-0.112992l0.200319 -0.200315c0.0313307,-0.0313346 0.0819961,-0.0313346 0.112992,0 0.0313307,0.0313307 0.0313307,0.0819921 0,0.112988l-0.200319 0.200319c-0.0153346,0.0153307 -0.0359961,0.0233307 -0.0563307,0.0233307z"/>
    </g>
    <g id="_260628384">
     <path id="_438153496" class="fil1" d="M5.1292 3.49349l-0.283315 0c-0.0443268,0 -0.0799921,-0.0356654 -0.0799921,-0.0799961 0,-0.0443268 0.0356654,-0.0799921 0.0799921,-0.0799921l0.283315 0c0.0443307,0 0.0799921,0.0356654 0.0799921,0.0799921 0,0.0443307 -0.0356614,0.0799961 -0.0799921,0.0799961z"/>
    </g>
    <g id="_260628888">
     <path id="_438153808" class="fil1" d="M4.82456 4.22944c-0.0203307,0 -0.0409961,-0.00766535 -0.0566614,-0.0233307l-0.200319 -0.200319c-0.0313307,-0.0313307 -0.0313307,-0.0819961 0,-0.112988 0.0313346,-0.0313346 0.0819961,-0.0313346 0.112992,0l0.200319 0.200315c0.0313307,0.0313346 0.0313307,0.0819961 0,0.112992 -0.0153307,0.0156614 -0.036,0.0233307 -0.0563307,0.0233307z"/>
    </g>
    <g id="_260629056">
     <path id="_438153856" class="fil1" d="M4.08861 4.53441c-0.0443307,0 -0.0799921,-0.0356654 -0.0799921,-0.0799921l0 -0.283311c0,-0.0443307 0.0356614,-0.0799921 0.0799921,-0.0799921 0.0443268,0 0.0799921,0.0356614 0.0799921,0.0799921l0 0.283311c0,0.0439921 -0.0359961,0.0799921 -0.0799921,0.0799921z"/>
    </g>
    <g id="_260629608">
     <path id="_438153352" class="fil1" d="M3.35267 4.22944c-0.0203307,0 -0.0409961,-0.00766535 -0.0566614,-0.0233307 -0.0313346,-0.0313346 -0.0313346,-0.0819961 0,-0.112992l0.200315 -0.200315c0.0313346,-0.0313346 0.0819961,-0.0313346 0.112992,0 0.0313307,0.0313307 0.0313307,0.0819921 0,0.112988l-0.200319 0.200319c-0.0153307,0.0156614 -0.0359961,0.0233307 -0.0563268,0.0233307z"/>
    </g>
    <g id="_260629704">
     <path id="_438152512" class="fil1" d="M3.331 3.49349l-0.282976 0c-0.0443307,0 -0.0799961,-0.0356654 -0.0799961,-0.0799961 0,-0.0443268 0.0356654,-0.0799921 0.0799961,-0.0799921l0.282976 0c0.0443268,0 0.0799921,0.0356654 0.0799921,0.0799921 0,0.0443307 -0.0359961,0.0799961 -0.0799921,0.0799961z"/>
    </g>
    <g id="_260629440">
     <path id="_438152848" class="fil1" d="M3.55265 2.95787c-0.0203307,0 -0.0409961,-0.00766535 -0.0566614,-0.0233307l-0.200315 -0.200319c-0.0313346,-0.0313307 -0.0313346,-0.0819921 0,-0.112988 0.0313307,-0.0313346 0.0819921,-0.0313346 0.112988,0l0.200319 0.200315c0.0313307,0.0313346 0.0313307,0.0819961 0,0.112992 -0.0153346,0.0153307 -0.0356654,0.0233307 -0.0563307,0.0233307z"/>
    </g>
    <g id="_260628816">
     <path id="_438153136" class="fil1" d="M4.32126 3.72648c-0.0203307,0 -0.0409961,-0.00766535 -0.0566614,-0.0233307l-0.232646 -0.232984c-0.015,-0.015 -0.0233307,-0.0353307 -0.0233307,-0.0566654l-3.93701e-006 -0.353972c0,-0.0443268 0.0356614,-0.0799921 0.0799921,-0.0799921 0.0443307,0 0.0799921,0.0356654 0.0799921,0.0799921l0 0.320976 0.209319 0.209319c0.0313307,0.0313307 0.0313307,0.0819921 0,0.112988 -0.0156654,0.0156654 -0.0359961,0.0236693 -0.0566614,0.0236693z"/>
    </g>
    <g id="_260629776">
     <path id="_438153088" class="fil1" d="M2.18776 2.39157l-0.648618 0c-0.0443307,0 -0.0799961,-0.0356614 -0.0799961,-0.0799921 0,-0.0443307 0.0356654,-0.0799921 0.0799961,-0.0799921l0.648949 -3.93701e-006c0.0443307,0 0.0799961,0.0356654 0.0799961,0.0799921 0,0.0443307 -0.036,0.0799961 -0.0803268,0.0799961z"/>
    </g>
    <g id="_260629536">
     <path id="_438152968" class="fil1" d="M1.95011 3.13152l-0.821941 0c-0.0443268,0 -0.0799921,-0.0356654 -0.0799921,-0.0799921 0,-0.0443307 0.0356654,-0.0799961 0.0799921,-0.0799961l0.821941 0c0.0443268,0 0.0799921,0.0356614 0.0799921,0.0799921 0,0.0443307 -0.0359961,0.0799961 -0.0799921,0.0799961z"/>
    </g>
    <g id="_260629392">
     <path id="_438152104" class="fil1" d="M2.13009 3.8718l-0.908264 0c-0.0443268,0 -0.0799921,-0.0356614 -0.0799921,-0.0799921 0,-0.0443307 0.0356654,-0.0799921 0.0799921,-0.0799921l0.908264 -3.93701e-006c0.0443307,0 0.0799921,0.0356654 0.0799921,0.0799921 0,0.0443307 -0.0356614,0.0799961 -0.0799921,0.0799961z"/>
    </g>
    <g id="_260629560">
     <path id="_438151720" class="fil1" d="M2.32475 4.61174l-1.39123 0c-0.0443307,0 -0.0799921,-0.0356654 -0.0799921,-0.0799921 0,-0.0443307 0.0356614,-0.0799961 0.0799921,-0.0799961l1.39123 0c0.0443268,0 0.0799921,0.0356654 0.0799921,0.0799961 0,0.0443268 -0.0356654,0.0799921 -0.0799921,0.0799921z"/>
    </g>
   </g>
  </g>
  <path class="fil2" d="M3.331 3.3335c0.0443268,0 0.0799921,0.0356654 0.0799921,0.0799921 0,0.0443307 -0.0359961,0.0799961 -0.0799921,0.0799961l-0.199685 0c0.0169764,0.204882 0.0985394,0.391736 0.224224,0.540087l0.14078 -0.14078c0.0313346,-0.0313346 0.0819961,-0.0313346 0.112992,0 0.0313307,0.0313307 0.0313307,0.0819921 0,0.112988l-0.140783 0.140783c0.148354,0.125685 0.335209,0.207252 0.540091,0.224224l0 -0.199685c0,-0.0443307 0.0356614,-0.0799921 0.0799921,-0.0799921 0.0443268,0 0.0799921,0.0356614 0.0799921,0.0799921l0 0.199685c0.204795,-0.0169685 0.391583,-0.0984724 0.539906,-0.224071l-0.140937 -0.140937c-0.0313307,-0.0313307 -0.0313307,-0.0819961 0,-0.112988 0.0313346,-0.0313346 0.0819961,-0.0313346 0.112992,0l0.140965 0.140961c0.125772,-0.148382 0.207398,-0.335303 0.224378,-0.540268l-0.200024 0c-0.0443268,0 -0.0799921,-0.0356654 -0.0799921,-0.0799961 0,-0.0443268 0.0356654,-0.0799921 0.0799921,-0.0799921l0.200024 0c-0.0169724,-0.204882 -0.0985394,-0.391732 -0.224224,-0.540087l-0.141118 0.141118c-0.0153346,0.0153307 -0.0359961,0.0233307 -0.0563307,0.0233307 -0.0203307,0 -0.0409961,-0.00766535 -0.0566614,-0.0233307 -0.0313307,-0.0313307 -0.0313307,-0.0819961 0,-0.112992l0.141118 -0.141118c-0.14835,-0.125685 -0.335205,-0.207252 -0.540087,-0.224224l0 0.199689c0,0.0443307 -0.0359961,0.0799921 -0.0799921,0.0799921 -0.0443307,0 -0.0799921,-0.0356614 -0.0799921,-0.0799921l0 -0.199689c-0.205047,0.0169882 -0.392039,0.0986732 -0.540449,0.224531l0.140811 0.140811c0.0313307,0.0313346 0.0313307,0.0819961 0,0.112992 -0.0153346,0.0153307 -0.0356654,0.0233307 -0.0563307,0.0233307 -0.0203307,0 -0.0409961,-0.00766535 -0.0566614,-0.0233307l-0.140756 -0.140756c-0.125508,0.148295 -0.206957,0.335012 -0.223917,0.539724l0.199685 0zm0.677618 0.0799921l-3.93701e-006 -0.353972c0,-0.0443268 0.0356614,-0.0799921 0.0799921,-0.0799921 0.0443307,0 0.0799921,0.0356654 0.0799921,0.0799921l0 0.320976 0.209319 0.209319c0.0313307,0.0313307 0.0313307,0.0819921 0,0.112988 -0.0156654,0.0156654 -0.0359961,0.0236693 -0.0566614,0.0236693 -0.0203307,0 -0.0409961,-0.00766535 -0.0566614,-0.0233307l-0.232646 -0.232984c-0.015,-0.015 -0.0233307,-0.0353307 -0.0233307,-0.0566654z"/>
  <path class="fil3" d="M3.05569 2.97687c0.0563307,-0.133327 0.137323,-0.253315 0.240315,-0.356307 0.102996,-0.102992 0.22265,-0.183654 0.356307,-0.23998 0.138323,-0.0583307 0.284976,-0.0879961 0.436299,-0.0879961 0.151319,0 0.297976,0.0296654 0.436299,0.0879961 0.133323,0.0563268 0.253311,0.137323 0.356303,0.240315 0.102996,0.102992 0.183654,0.22265 0.240315,0.356307 0.0583307,0.138323 0.0879961,0.284976 0.0879961,0.436295 0,0.151327 -0.0296654,0.29798 -0.0879961,0.436299 -0.0563268,0.133327 -0.137319,0.253315 -0.240315,0.356307 -0.102992,0.102992 -0.22265,0.183654 -0.356303,0.240315 -0.136012,0.0573543 -0.280079,0.0866732 -0.428717,0.0876378 -0.00249606,0.00023622 -0.00502756,0.000358268 -0.00758268,0.000358268 -0.00259055,0 -0.00515354,-0.000122047 -0.00767717,-0.000358268 -0.148606,-0.000988189 -0.292642,-0.0306299 -0.428622,-0.0879724 -0.131295,-0.0554685 -0.24965,-0.134854 -0.351587,-0.235622 -0.00161811,-0.00137402 -0.00319291,-0.00282677 -0.00472047,-0.00435433 -0.00153937,-0.00153937 -0.00300394,-0.00312598 -0.0043937,-0.00475591 -0.100894,-0.101992 -0.180067,-0.220138 -0.235921,-0.351886 -0.0583307,-0.138323 -0.0879921,-0.28498 -0.0879921,-0.436299 0,-0.151323 0.0296614,-0.29798 0.0879921,-0.436299zm0.899929 2.1615l0.265646 3.93701e-006c0.0806614,0 0.102992,-0.0996575 0.106657,-0.119654l0.0476614 -0.263315c0.00566535,-0.0303307 0.028,-0.0549961 0.0579961,-0.0629961 0.109992,-0.0296614 0.215984,-0.0736575 0.314646,-0.130654 0.0266614,-0.0153346 0.0599921,-0.014 0.0853268,0.00366535l0.219984 0.152323c0.0166654,0.0116654 0.102992,0.0663268 0.159988,0.00933071l0.187984 -0.187984c0.0569961,-0.0569961 0.00233465,-0.143323 -0.00933071,-0.159988l-0.152657 -0.219984c-0.0176654,-0.0253346 -0.019,-0.0586614 -0.00366535,-0.0853268 0.0569961,-0.0989921 0.100992,-0.204988 0.130654,-0.314646 0.008,-0.0299961 0.0326654,-0.0523307 0.0629961,-0.0579961l0.263315 -0.0476614c0.0199961,-0.00366929 0.119657,-0.0256654 0.119657,-0.106657l0 -0.265646c0,-0.0806614 -0.0996614,-0.102992 -0.119657,-0.106657l-0.263315 -0.0476614c-0.0303307,-0.00566535 -0.0549961,-0.028 -0.0629961,-0.0579961 -0.0296614,-0.109992 -0.0736575,-0.215984 -0.130654,-0.314646 -0.0153346,-0.0266614 -0.014,-0.0599921 0.00366535,-0.0853268l0.152323 -0.219984c0.0116654,-0.0166654 0.0663268,-0.102992 0.00933465,-0.159988l-0.187988 -0.187984c-0.0569961,-0.0569961 -0.143319,-0.00233465 -0.159988,0.00933071l-0.219984 0.152657c-0.0253307,0.0176614 -0.0586614,0.0189961 -0.0853268,0.00366535 -0.0989921,-0.0569961 -0.204984,-0.100992 -0.314642,-0.130657 -0.03,-0.00799606 -0.0523307,-0.0326614 -0.058,-0.0629921l-0.0476614 -0.263315c-0.00366535,-0.0199961 -0.0256614,-0.119657 -0.106657,-0.119657l-0.265646 -3.93701e-006c-0.0806575,0 -0.102992,0.0996614 -0.106657,0.119657l-0.0476614 0.263315c-0.00566535,0.0303307 -0.028,0.0549961 -0.0579961,0.0629961 -0.109992,0.0296614 -0.21565,0.0733268 -0.314642,0.130323 -0.0266654,0.0153346 -0.0599961,0.014 -0.0853307,-0.00366535l-0.219984 -0.152323c-0.0166614,-0.0116654 -0.102992,-0.0663268 -0.159988,-0.00933071l-0.187984 0.187984c-0.0569961,0.0569961 -0.00233071,0.143323 0.00933465,0.159988l0.152319 0.219984c0.0176654,0.0253346 0.019,0.0586614 0.00366929,0.0853268 -0.0569961,0.0989921 -0.100992,0.204988 -0.130657,0.314646 -0.00799606,0.0299961 -0.0326654,0.0523307 -0.0629961,0.0579961l-0.263311 0.0476614c-0.0199961,0.00366929 -0.119657,0.0256654 -0.119657,0.106657l0 0.265646c0,0.0806614 0.0996614,0.102992 0.119657,0.106657l0.263311 0.0476614c0.0303307,0.00566535 0.055,0.028 0.0629961,0.0579961 0.0296654,0.109992 0.0736614,0.215984 0.130657,0.314646 0.0153307,0.0266614 0.0139961,0.0599921 -0.00366929,0.0853268l-0.152319 0.219984c-0.0116654,0.0166654 -0.0663307,0.102992 -0.00933465,0.159988l0.187984 0.187984c0.0569961,0.0569961 0.143323,0.00233465 0.159988,-0.00933071l0.219984 -0.152657c0.0136693,-0.00933465 0.0296693,-0.0140039 0.0456654,-0.0140039 0.0136654,0 0.0276654,0.00366929 0.0399961,0.0106654 0.0989961,0.0569961 0.204988,0.100992 0.314646,0.130657 0.0299961,0.00799606 0.0523307,0.0326614 0.0579961,0.0629961l0.0476614 0.263311c0.00366929,0.0199961 0.0256654,0.119657 0.106657,0.119657z"/>
 </g>
</svg>
