<?xml version="1.0" encoding="UTF-8"?>
<!DOCTYPE svg PUBLIC "-//W3C//DTD SVG 1.1//EN" "http://www.w3.org/Graphics/SVG/1.1/DTD/svg11.dtd">
<!-- Creator: CorelDRAW -->
<svg xmlns="http://www.w3.org/2000/svg" xml:space="preserve" width="6.82666in" height="6.82666in" style="shape-rendering:geometricPrecision; text-rendering:geometricPrecision; image-rendering:optimizeQuality; fill-rule:evenodd; clip-rule:evenodd"
viewBox="0 0 6.82666 6.82666"
 xmlns:xlink="http://www.w3.org/1999/xlink">
 <defs>
  <style type="text/css">
   <![CDATA[
    .fil0 {fill:none}
    .fil1 {fill:#0065A3}
    .fil2 {fill:#333333}
    .fil3 {fill:#98EDFE}
    .fil5 {fill:#FE9E3E}
    .fil4 {fill:#FEC34D}
   ]]>
  </style>
 </defs>
 <rect class="fil0" width="6.82666" height="6.82666"/>
 <g id="Layer_x0020_1">
  <metadata id="CorelCorpID_0Corel-Layer"/>
  <path class="fil1" d="M1.07734 4.74373l4.20101 0c0.0497165,0 0.0903268,0.0406102 0.0903268,0.0903268 0,0.287362 -0.233598,0.520961 -0.520961,0.520961l-0.862272 0 0 -0.384307c0,-0.0296102 -0.0237165,-0.0533268 -0.0533268,-0.0533268l-1.50822 3.93701e-006c-0.0296102,0 -0.0533268,0.0237165 -0.0533268,0.0533268l0 0.384303 -0.862602 0c-0.287362,0 -0.520961,-0.233598 -0.520961,-0.520961 0,-0.0497165 0.0406102,-0.0903268 0.0903268,-0.0903268zm2.80145 0.280311l0 0.330976 -1.40156 0 0 -0.330976 1.40156 0z"/>
  <g id="_438155104">
   <g id="_260630112">
    <path id="_438156856" class="fil2" d="M4.84772 5.48834l-3.33974 0c-0.173988,0 -0.338307,-0.0683268 -0.461965,-0.191984 -0.123992,-0.123992 -0.192319,-0.288311 -0.192319,-0.462299 0,-0.123323 0.100327,-0.22365 0.223646,-0.22365l0.166654 0 3.8677 0 0.166654 0c0.123323,0 0.22365,0.100327 0.22365,0.22365 0,0.173988 -0.0683268,0.338307 -0.191984,0.461965 -0.123988,0.123988 -0.288311,0.192319 -0.462295,0.192319zm-1.66987 -0.159988l1.66987 0c0.272646,0 0.494295,-0.22165 0.494295,-0.494295 0,-0.0349961 -0.0286614,-0.0636614 -0.0636614,-0.0636614l-0.166654 0 -3.8677 0 -0.166654 0c-0.0349961,0 -0.0636614,0.0286614 -0.0636614,0.0636614 0,0.272646 0.22165,0.494295 0.494295,0.494295l1.66987 0 0 0z"/>
   </g>
   <g id="_260630544">
    <path id="_438156544" class="fil2" d="M5.1117 4.77039c-0.0443268,0 -0.0799921,-0.0356654 -0.0799921,-0.0799921l0 -1.23891c0,-0.0443268 0.0356654,-0.0799921 0.0799921,-0.0799921 0.0443307,0 0.0799961,0.0356654 0.0799961,0.0799921l0 1.23891c0,0.0443268 -0.0359961,0.0799921 -0.0799961,0.0799921zm-3.8677 0c-0.0443307,0 -0.0799921,-0.0356654 -0.0799921,-0.0799921l-3.93701e-006 -1.91752c0,-0.125657 0.0483307,-0.244984 0.135992,-0.335976 0.0876575,-0.0906614 0.20465,-0.143323 0.329642,-0.148323 0.001,0 0.00199606,0 0.003,0l2.1995 0c0.0443307,0 0.0799921,0.0356614 0.0799921,0.0799921 0,0.0443307 -0.0356614,0.0799921 -0.0799921,0.0799921l-2.1975 3.93701e-006c-0.171319,0.00733465 -0.310307,0.152654 -0.310307,0.324311l0 1.91752c-0.000334646,0.0443268 -0.0359961,0.0799921 -0.0803268,0.0799921z"/>
   </g>
   <g id="_260630376">
    <path id="_438156280" class="fil2" d="M3.93179 5.48834l-1.50789 0c-0.0443307,0 -0.0799921,-0.0356614 -0.0799921,-0.0799921l0 -0.437634c0,-0.0443268 0.0356614,-0.0799921 0.0799921,-0.0799921l1.50822 -3.93701e-006c0.0443307,0 0.0799921,0.0356654 0.0799921,0.0799921l0 0.437634c-0.000330709,0.044 -0.0359961,0.0799961 -0.0803228,0.0799961zm-1.42789 -0.159988l1.34823 0 0 -0.277646 -1.34823 0 0 0.277646z"/>
   </g>
   <g id="_260630208">
    <path id="_438156376" class="fil2" d="M4.86105 3.56215c-0.149988,0 -0.295642,-0.0293307 -0.432969,-0.0873268 -0.132323,-0.0559921 -0.251311,-0.136323 -0.353303,-0.238311 -0.101996,-0.101992 -0.182319,-0.220984 -0.238315,-0.353307 -0.0579961,-0.136988 -0.0873268,-0.282646 -0.0873268,-0.432969 0,-0.150323 0.0293307,-0.295642 0.0873268,-0.432969 0.0559961,-0.132323 0.136323,-0.251315 0.238315,-0.353307 0.101988,-0.101992 0.22098,-0.182319 0.353303,-0.238311 0.136988,-0.058 0.282646,-0.0873307 0.432969,-0.0873307 0.150323,0 0.295642,0.0293307 0.432969,0.0873307 0.132323,0.0559921 0.251315,0.136323 0.353307,0.238311 0.101992,0.101992 0.182319,0.220984 0.238311,0.353307 0.058,0.136988 0.0873307,0.282646 0.0873307,0.432969 0,0.150323 -0.0293307,0.295642 -0.0873307,0.432969 -0.0559921,0.132323 -0.136323,0.251315 -0.238311,0.353307 -0.101992,0.101992 -0.220984,0.182319 -0.353307,0.238311 -0.136992,0.0579961 -0.282646,0.0873268 -0.432969,0.0873268zm0 -2.06417c-0.524961,0 -0.951925,0.426969 -0.951925,0.951925 0,0.524961 0.426969,0.951925 0.951925,0.951925 0.524957,0 0.95226,-0.42663 0.95226,-0.951591 0,-0.524961 -0.426965,-0.95226 -0.95226,-0.95226z"/>
   </g>
   <g>
    <g id="_260630328">
     <path id="_438155992" class="fil2" d="M2.64789 4.39209c-0.007,0 -0.0136654,-0.001 -0.0206654,-0.00266535 -0.0426614,-0.0113307 -0.0679921,-0.0553307 -0.0566614,-0.0979921l0.419303 -1.56521c0.0113307,-0.0426654 0.0553307,-0.0679961 0.0979921,-0.0566654 0.0426614,0.0113346 0.0679921,0.0553307 0.0566614,0.0979921l-0.419303 1.56522c-0.00966142,0.0356614 -0.0419921,0.0593268 -0.0773268,0.0593268z"/>
    </g>
    <g>
     <g id="_260630496">
      <path id="_438155728" class="fil2" d="M2.32025 4.08011c-0.0203307,0 -0.0409961,-0.00766535 -0.0566614,-0.0233307l-0.495299 -0.495291c-0.0149961,-0.015 -0.0233307,-0.0353307 -0.0233307,-0.0566654 0,-0.0213307 0.00833465,-0.0416614 0.0233307,-0.0566614l0.495299 -0.494965c0.0313307,-0.0313307 0.0819921,-0.0313307 0.112988,0 0.0313346,0.0313307 0.0313346,0.0819961 0,0.112992l-0.438634 0.438634 0.438634 0.438634c0.0313346,0.0313307 0.0313346,0.0819961 0,0.112988 -0.0156654,0.0156693 -0.0359961,0.0236654 -0.0563268,0.0236654z"/>
     </g>
     <g id="_260630592">
      <path id="_438155920" class="fil2" d="M3.39517 4.08011c-0.0203346,0 -0.0409961,-0.00766535 -0.0566654,-0.0233307 -0.0313307,-0.0313307 -0.0313307,-0.0819921 0,-0.112988l0.438638 -0.438638 -0.438638 -0.438965c-0.0313307,-0.0313307 -0.0313307,-0.0819921 0,-0.112988 0.0313346,-0.0309961 0.0819961,-0.0313346 0.112992,0l0.495295 0.494961c0.0313346,0.0313307 0.0313346,0.0819921 0,0.112988l-0.495295 0.495295c-0.0156614,0.0156693 -0.0359961,0.0236654 -0.0563268,0.0236654z"/>
     </g>
    </g>
   </g>
   <g>
    <g id="_260630088">
     <path id="_438155800" class="fil2" d="M5.19536 3.15385l-0.667953 0c-0.119992,0 -0.21765,-0.0976575 -0.21765,-0.21765l0 -0.569626c0,-0.119988 0.0976575,-0.21765 0.21765,-0.21765l0.667953 0c0.119988,0 0.21765,0.0976614 0.21765,0.21765l0 0.569957c-0.000334646,0.119992 -0.0979921,0.217319 -0.21765,0.217319zm-0.668287 -0.844602c-0.0316614,0 -0.0576614,0.0256614 -0.0576614,0.0576614l0 0.569957c0,0.0316654 0.0256614,0.0576654 0.0576614,0.0576654l0.667953 0c0.0316614,0 0.0576614,-0.0256654 0.0576614,-0.0576654l0 -0.570291c0,-0.0316614 -0.0256654,-0.0576614 -0.0576654,-0.0576614l-0.667949 0 0 0.000334646z"/>
    </g>
    <g id="_260630688">
     <path id="_438156064" class="fil2" d="M5.15836 2.30925c-0.0443268,0 -0.0799921,-0.0356654 -0.0799921,-0.0799961l0 -0.23598c0,-0.0479961 -0.0389961,-0.0869921 -0.0869921,-0.0869921l-0.260319 0c-0.0479961,0 -0.0869921,0.0389961 -0.0869921,0.0869921 0,0.0443307 -0.0356614,0.0799921 -0.0799921,0.0799921 -0.0443307,0 -0.0799921,-0.0356614 -0.0799921,-0.0799921 0,-0.136323 0.110657,-0.24698 0.24698,-0.24698l0.260315 0c0.136323,0 0.24698,0.110657 0.24698,0.24698l0 0.23565c-3.93701e-006,0.0443268 -0.0356654,0.0803268 -0.0799961,0.0803268z"/>
    </g>
    <g>
     <g id="_260631216">
      <path id="_438154888" class="fil2" d="M4.86105 2.82121c-0.119992,0 -0.21765,-0.0976614 -0.21765,-0.21765 0,-0.119992 0.0976575,-0.21765 0.21765,-0.21765 0.119992,0 0.21765,0.0976575 0.21765,0.21765 0,0.119988 -0.0976575,0.21765 -0.21765,0.21765zm0 -0.27498c-0.0316614,0 -0.0576614,0.0256654 -0.0576614,0.0576614 0,0.0316654 0.0256614,0.0576654 0.0576614,0.0576654 0.032,0 0.0576654,-0.0256654 0.0576654,-0.0576654 0,-0.0319961 -0.0256693,-0.0576614 -0.0576654,-0.0576614z"/>
     </g>
     <g id="_260630736">
      <path id="_438154744" class="fil2" d="M4.86105 2.91687c-0.0443268,0 -0.0799921,-0.0356654 -0.0799921,-0.0799921l0 -0.0956614c0,-0.0443307 0.0356654,-0.0799921 0.0799921,-0.0799921 0.0443307,0 0.0799921,0.0356614 0.0799921,0.0799921l0 0.0956614c0,0.0443228 -0.0356614,0.0799921 -0.0799921,0.0799921z"/>
     </g>
    </g>
   </g>
  </g>
  <path class="fil3" d="M3.77714 3.50515l-0.438638 -0.438965c-0.0313307,-0.0313307 -0.0313307,-0.0819921 0,-0.112988 0.0313346,-0.0309961 0.0819961,-0.0313346 0.112992,0l0.495295 0.494961c0.0313346,0.0313307 0.0313346,0.0819921 0,0.112988l-0.495295 0.495295c-0.0156614,0.0156693 -0.0359961,0.0236654 -0.0563268,0.0236654 -0.0203346,0 -0.0409961,-0.00766535 -0.0566654,-0.0233307 -0.0313307,-0.0313307 -0.0313307,-0.0819921 0,-0.112988l0.438638 -0.438638zm0.297642 -0.268642c-0.101996,-0.101992 -0.182319,-0.220984 -0.238315,-0.353307 -0.0579961,-0.136988 -0.0873268,-0.282646 -0.0873268,-0.432969 0,-0.000555118 0,-0.00111417 0,-0.00166929l-2.11451 3.93701e-006c-0.171319,0.00733465 -0.310307,0.152654 -0.310307,0.324311l0 1.83752 3.70738 0 0 -1.06116c-0.0560472,0.00858661 -0.113008,0.0129016 -0.170654,0.0129016 -0.149988,0 -0.295642,-0.0293307 -0.432969,-0.0873268 -0.132323,-0.0559921 -0.251311,-0.136323 -0.353303,-0.238311zm-0.930264 -0.468969l-0.419303 1.56522c-0.00966142,0.0356614 -0.0419921,0.0593268 -0.0773268,0.0593268 -0.007,0 -0.0136654,-0.001 -0.0206654,-0.00266535 -0.0426614,-0.0113307 -0.0679921,-0.0553307 -0.0566614,-0.0979921l0.419303 -1.56521c0.0113307,-0.0426654 0.0553307,-0.0679961 0.0979921,-0.0566654 0.0426614,0.0113346 0.0679921,0.0553307 0.0566614,0.0979921zm-0.767941 1.17591c0.0313346,0.0313307 0.0313346,0.0819961 0,0.112988 -0.0156654,0.0156693 -0.0359961,0.0236654 -0.0563268,0.0236654 -0.0203307,0 -0.0409961,-0.00766535 -0.0566614,-0.0233307l-0.495299 -0.495291c-0.0149961,-0.015 -0.0233307,-0.0353307 -0.0233307,-0.0566654 0,-0.0213307 0.00833465,-0.0416614 0.0233307,-0.0566614l0.495299 -0.494965c0.0313307,-0.0313307 0.0819921,-0.0313307 0.112988,0 0.0313346,0.0313307 0.0313346,0.0819961 0,0.112992l-0.438634 0.438634 0.438634 0.438634z"/>
  <path class="fil4" d="M4.46941 2.36691l0 0.569957c0,0.0316654 0.0256614,0.0576654 0.0576614,0.0576654l0.667953 0c0.0316614,0 0.0576614,-0.0256654 0.0576614,-0.0576654l0 -0.570291c0,-0.0316614 -0.0256654,-0.0576614 -0.0576654,-0.0576614l-0.0292913 0c-0.0024252,0.000220472 -0.00488583,0.000334646 -0.00737008,0.000334646 -0.00249606,0 -0.00496457,-0.000114173 -0.00740157,-0.000334646l-0.623886 0 0 0.000334646c-0.0316614,0 -0.0576614,0.0256614 -0.0576614,0.0576614zm0.311646 0.439067c-0.0805433,-0.0319488 -0.137657,-0.110654 -0.137657,-0.202417 0,-0.119992 0.0976575,-0.21765 0.21765,-0.21765 0.119992,0 0.21765,0.0976575 0.21765,0.21765 0,0.0917638 -0.0571142,0.170469 -0.137657,0.202417l0 0.0309016c0,0.0443228 -0.0356614,0.0799921 -0.0799921,0.0799921 -0.0443268,0 -0.0799921,-0.0356654 -0.0799921,-0.0799921l0 -0.0309016z"/>
  <path class="fil5" d="M4.86105 2.54623c-0.0316614,0 -0.0576614,0.0256654 -0.0576614,0.0576614 0,0.0300787 0.0231575,0.0550472 0.0529055,0.0574724 0.0015748,-9.05512e-005 0.00315748,-0.000137795 0.00475591,-0.000137795 0.00160236,0 0.00319685,4.72441e-005 0.00477559,0.000137795 0.0297402,-0.00240551 0.0528898,-0.0270827 0.0528898,-0.0574724 0,-0.0319961 -0.0256693,-0.0576614 -0.0576654,-0.0576614z"/>
  <path class="fil3" d="M5.23836 2.15319c0.0994764,0.0200197 0.174654,0.108106 0.174654,0.213382l0 0.569957c-0.000334646,0.119992 -0.0979921,0.217319 -0.21765,0.217319l-0.667953 0c-0.119992,0 -0.21765,-0.0976575 -0.21765,-0.21765l0 -0.569626c0,-0.119988 0.0976575,-0.21765 0.21765,-0.21765l0.550961 0 0 -0.155654c0,-0.0479961 -0.0389961,-0.0869921 -0.0869921,-0.0869921l-0.260319 0c-0.0479961,0 -0.0869921,0.0389961 -0.0869921,0.0869921 0,0.0443307 -0.0356614,0.0799921 -0.0799921,0.0799921 -0.0443307,0 -0.0799921,-0.0356614 -0.0799921,-0.0799921 0,-0.136323 0.110657,-0.24698 0.24698,-0.24698l0.260315 0c0.136323,0 0.24698,0.110657 0.24698,0.24698l0 0.159921zm-1.32923 0.296709c0,0.524961 0.426969,0.951925 0.951925,0.951925 0.524957,0 0.95226,-0.42663 0.95226,-0.951591 0,-0.524961 -0.426965,-0.95226 -0.95226,-0.95226 -0.524961,0 -0.951925,0.426969 -0.951925,0.951925z"/>
 </g>
</svg>
