<?xml version="1.0" encoding="UTF-8"?>
<!DOCTYPE svg PUBLIC "-//W3C//DTD SVG 1.1//EN" "http://www.w3.org/Graphics/SVG/1.1/DTD/svg11.dtd">
<!-- Creator: CorelDRAW -->
<svg xmlns="http://www.w3.org/2000/svg" xml:space="preserve" width="6.82666in" height="6.82666in" style="shape-rendering:geometricPrecision; text-rendering:geometricPrecision; image-rendering:optimizeQuality; fill-rule:evenodd; clip-rule:evenodd"
viewBox="0 0 6.82666 6.82666"
 xmlns:xlink="http://www.w3.org/1999/xlink">
 <defs>
  <style type="text/css">
   <![CDATA[
    .fil0 {fill:none}
    .fil6 {fill:#00DC7F}
    .fil1 {fill:#194D80}
    .fil5 {fill:#333333}
    .fil2 {fill:#E40048}
    .fil3 {fill:#FEDD46}
    .fil4 {fill:white}
   ]]>
  </style>
 </defs>
 <rect class="fil0" width="6.82666" height="6.82666"/>
 <g id="Layer_x0020_1">
  <metadata id="CorelCorpID_0Corel-Layer"/>
  <g id="_438163144">
   <path id="_438163984" class="fil1" d="M2.94803 2.99969l1.8062 3.93701e-006c0.092378,0 0.167323,0.0749409 0.167323,0.167319l0 0.540961c0,0.092378 -0.0749449,0.167323 -0.167323,0.167323l-2.68179 -3.93701e-006c-0.000318898,0 -0.000637795,0 -0.00096063,0 -0.0920512,-0.000279528 -0.166366,-0.075378 -0.166366,-0.167319l0 -0.540961c0,-0.092378 0.0749449,-0.167319 0.167323,-0.167319l0.875598 -3.93701e-006zm0.612957 0.628622l0.999587 0c0.105118,0 0.19065,-0.0855551 0.19065,-0.190654 0,-0.105094 -0.0855315,-0.19065 -0.19065,-0.19065l-0.999587 3.93701e-006c-0.104937,0 -0.19065,0.0857087 -0.19065,0.19065 0,0.105098 0.0855354,0.19065 0.19065,0.19065zm-0.55463 -0.19065c0,-0.104937 -0.0857087,-0.19065 -0.19065,-0.19065 -0.105098,0 -0.19065,0.0855354 -0.19065,0.19065 0,0.105098 0.0855354,0.19065 0.19065,0.19065 0.104937,0 0.19065,-0.0857087 0.19065,-0.19065zm-0.549622 0c0,-0.104937 -0.0857126,-0.19065 -0.19065,-0.19065 -0.105098,0 -0.19065,0.0855354 -0.19065,0.19065 0,0.105098 0.0855354,0.19065 0.19065,0.19065 0.105114,0 0.19065,-0.0855512 0.19065,-0.19065zm0.491295 0.544283l1.8062 3.93701e-006c0.092378,0 0.167323,0.0749409 0.167323,0.167319l0 0.540961c0,0.092378 -0.0749449,0.167323 -0.167323,0.167323l-2.68179 -3.93701e-006c-0.000318898,0 -0.000637795,0 -0.00096063,0 -0.0920512,-0.000279528 -0.166366,-0.075378 -0.166366,-0.167319l0 -0.540961c0,-0.092378 0.0749449,-0.167319 0.167323,-0.167319l0.875598 -3.93701e-006zm0.612957 0.628622l0.999587 0c0.105118,0 0.19065,-0.0855551 0.19065,-0.190654 0,-0.105094 -0.0855315,-0.19065 -0.19065,-0.19065l-0.999587 3.93701e-006c-0.104937,0 -0.19065,0.0857087 -0.19065,0.19065 0,0.105098 0.0855354,0.19065 0.19065,0.19065zm-0.55463 -0.19065c0,-0.104937 -0.0857087,-0.19065 -0.19065,-0.19065 -0.105098,0 -0.19065,0.0855354 -0.19065,0.19065 0,0.105098 0.0855354,0.19065 0.19065,0.19065 0.104937,0 0.19065,-0.0857087 0.19065,-0.19065zm-0.549622 0c0,-0.104937 -0.0857126,-0.19065 -0.19065,-0.19065 -0.105098,0 -0.19065,0.0855354 -0.19065,0.19065 0,0.105098 0.0855354,0.19065 0.19065,0.19065 0.105114,0 0.19065,-0.0855512 0.19065,-0.19065zm0.491295 0.544283l1.8062 3.93701e-006c0.092378,0 0.167323,0.0749409 0.167323,0.167319l0 0.540961c0,0.092378 -0.0749449,0.167323 -0.167323,0.167323l-2.68179 -3.93701e-006c-0.000318898,0 -0.000637795,0 -0.00096063,0 -0.0920512,-0.000279528 -0.166366,-0.075378 -0.166366,-0.167319l0 -0.540961c0,-0.092378 0.0749449,-0.167319 0.167323,-0.167319l0.875598 -3.93701e-006zm0.612957 0.628622l0.999587 0c0.105118,0 0.19065,-0.0855551 0.19065,-0.190654 0,-0.105094 -0.0855315,-0.19065 -0.19065,-0.19065l-0.999587 3.93701e-006c-0.104937,0 -0.19065,0.0857087 -0.19065,0.19065 0,0.105098 0.0855354,0.19065 0.19065,0.19065zm-0.55463 -0.19065c0,-0.104937 -0.0857087,-0.19065 -0.19065,-0.19065 -0.105098,0 -0.19065,0.0855354 -0.19065,0.19065 0,0.105098 0.0855354,0.19065 0.19065,0.19065 0.104937,0 0.19065,-0.0857087 0.19065,-0.19065zm-0.549622 0c0,-0.104937 -0.0857126,-0.19065 -0.19065,-0.19065 -0.105098,0 -0.19065,0.0855354 -0.19065,0.19065 0,0.105098 0.0855354,0.19065 0.19065,0.19065 0.105114,0 0.19065,-0.0855512 0.19065,-0.19065z"/>
   <path id="_438164056" class="fil2" d="M2.87304 3.43733c0,-0.0316654 -0.0256654,-0.0573307 -0.0573307,-0.0573307 -0.0316614,0 -0.0573307,0.0256654 -0.0573307,0.0573307 0,0.0316654 0.0256654,0.0573307 0.0573307,0.0573307 0.0316654,0 0.0573307,-0.0256654 0.0573307,-0.0573307z"/>
   <path id="_438164128" class="fil3" d="M2.32341 3.43733c0,-0.0316654 -0.0256654,-0.0573307 -0.0573268,-0.0573307 -0.0316654,0 -0.0573307,0.0256654 -0.0573307,0.0573307 0,0.0316654 0.0256654,0.0573307 0.0573307,0.0573307 0.0316654,0 0.0573268,-0.0256654 0.0573268,-0.0573307z"/>
   <path id="_438163936" class="fil4" d="M3.56099 3.38c-0.0316654,0 -0.0573307,0.0256654 -0.0573307,0.0573307 0,0.0316654 0.0256654,0.0573307 0.0573307,0.0573307l0.999587 0c0.0316654,0 0.0573307,-0.0256654 0.0573307,-0.0573307 0,-0.0316614 -0.0256654,-0.0573307 -0.0573307,-0.0573307l-0.999587 0z"/>
   <path id="_438164560" class="fil3" d="M2.26609 4.47691c0.0316654,0 0.0573268,-0.0256614 0.0573268,-0.0573307 0,-0.0313268 -0.0256654,-0.0573268 -0.0573268,-0.0573268 -0.0316654,0 -0.0573307,0.0256614 -0.0573307,0.0573268 0,0.0316654 0.0256654,0.0573307 0.0573307,0.0573307z"/>
   <path id="_438164152" class="fil2" d="M2.75838 4.41958c0,0.0316654 0.0256654,0.0573307 0.0573307,0.0573307 0.0316654,0 0.0573307,-0.0256614 0.0573307,-0.0573307 0,-0.0313268 -0.0256654,-0.0573268 -0.0573307,-0.0573268 -0.0316614,0 -0.0573307,0.0256614 -0.0573307,0.0573268z"/>
   <path id="_438163840" class="fil4" d="M3.50366 4.41958c0,0.0316654 0.0256654,0.0573307 0.0573307,0.0573307l0.999587 0c0.0316654,0 0.0573307,-0.0256614 0.0573307,-0.0573307 0,-0.0316654 -0.0256654,-0.0573268 -0.0573307,-0.0573268l-0.999587 0c-0.0316654,0 -0.0573307,0.0256614 -0.0573307,0.0573268z"/>
   <path id="_438163552" class="fil4" d="M4.56057 5.34451l-0.999587 3.93701e-006c-0.0316654,0 -0.0573307,0.0256654 -0.0573307,0.0573307 0,0.0316654 0.0256654,0.0573268 0.0573307,0.0573268l0.999587 0c0.0316654,0 0.0573307,-0.0256654 0.0573307,-0.0573307 0,-0.0316654 -0.0256654,-0.0573307 -0.0573307,-0.0573307z"/>
   <path id="_438163216" class="fil2" d="M2.87304 5.40185c0,-0.0316654 -0.0256654,-0.0573307 -0.0573307,-0.0573307 -0.0316614,0 -0.0573307,0.0256654 -0.0573307,0.0573307 0,0.0316614 0.0256654,0.0573268 0.0573307,0.0573268 0.0316654,0 0.0573307,-0.0256614 0.0573307,-0.0573268z"/>
   <path id="_438163168" class="fil3" d="M2.26609 5.45917c0.0316654,0 0.0573268,-0.0256614 0.0573268,-0.0573268 0,-0.0316654 -0.0256654,-0.0573307 -0.0573268,-0.0573307 -0.0316654,0 -0.0573307,0.0256654 -0.0573307,0.0573307 0,0.0316614 0.0256654,0.0573268 0.0573307,0.0573268z"/>
  </g>
  <g id="_438161320">
   <g>
    <g>
     <g>
      <g id="_260625216">
       <path id="_438163456" class="fil5" d="M4.75423 4.00861c-0.0443268,0 -0.0799921,-0.0356614 -0.0799921,-0.0799921 0,-0.0443307 0.0356654,-0.0799921 0.0799921,-0.0799921 0.0776614,0 0.140657,-0.0629961 0.140657,-0.140657l0 -0.540961c0,-0.0776575 -0.0629961,-0.140654 -0.140657,-0.140654l-2.6818 0c-0.0776614,0 -0.140657,0.0629961 -0.140657,0.140654l0 0.540961c0,0.0776614 0.0629961,0.140657 0.140657,0.140657 0.0443268,0 0.0799921,0.0356614 0.0799921,0.0799921 0,0.0443307 -0.0356654,0.0799921 -0.0799921,0.0799921 -0.165657,0 -0.300646,-0.134988 -0.300646,-0.300642l3.93701e-006 -0.540961c0,-0.165654 0.134988,-0.300642 0.300646,-0.300642l2.68179 0c0.165657,0 0.300646,0.134988 0.300646,0.300642l0 0.540961c-3.93701e-006,0.165988 -0.134992,0.300642 -0.300646,0.300642z"/>
      </g>
      <g id="_260624472">
       <path id="_438163384" class="fil5" d="M2.26609 3.65498c-0.119992,0 -0.217315,-0.0976575 -0.217315,-0.217315 0,-0.119992 0.0976575,-0.217315 0.217315,-0.217315 0.119657,0 0.217315,0.0976575 0.217315,0.217315 0,0.119657 -0.0973228,0.217315 -0.217315,0.217315zm0 -0.27498c-0.0316654,0 -0.0573307,0.0256654 -0.0573307,0.0573307 0,0.0316654 0.0256654,0.0573307 0.0573307,0.0573307 0.0316654,0 0.0573268,-0.0256654 0.0573268,-0.0573307 0,-0.0316654 -0.0256654,-0.0573307 -0.0573268,-0.0573307z"/>
      </g>
      <g id="_260624904">
       <path id="_438163648" class="fil5" d="M2.81571 3.65498c-0.119992,0 -0.217315,-0.0976575 -0.217315,-0.217315 0,-0.119992 0.0976575,-0.217315 0.217315,-0.217315 0.119657,0 0.217315,0.0976575 0.217315,0.217315 3.93701e-006,0.119657 -0.0976575,0.217315 -0.217315,0.217315zm0 -0.27498c-0.0316614,0 -0.0573307,0.0256654 -0.0573307,0.0573307 0,0.0316654 0.0256654,0.0573307 0.0573307,0.0573307 0.0316654,0 0.0573307,-0.0256654 0.0573307,-0.0573307 0,-0.0316654 -0.0256654,-0.0573307 -0.0573307,-0.0573307z"/>
      </g>
      <g id="_260625144">
       <path id="_438162592" class="fil5" d="M4.56057 3.65498l-0.999587 0c-0.119992,0 -0.217315,-0.0976575 -0.217315,-0.217315 0,-0.119657 0.0976575,-0.217315 0.217315,-0.217315l0.999587 -3.93701e-006c0.119992,0 0.217315,0.0976575 0.217315,0.217315 3.93701e-006,0.119661 -0.0973228,0.217319 -0.217315,0.217319zm-0.999587 -0.27498c-0.0316654,0 -0.0573307,0.0256654 -0.0573307,0.0573307 0,0.0316654 0.0256654,0.0573307 0.0573307,0.0573307l0.999587 0c0.0316654,0 0.0573307,-0.0256654 0.0573307,-0.0573307 0,-0.0316614 -0.0256654,-0.0573307 -0.0573307,-0.0573307l-0.999587 0z"/>
      </g>
     </g>
     <g>
      <g id="_260624640">
       <path id="_438162664" class="fil5" d="M4.75423 4.99088c-0.0443268,0 -0.0799921,-0.0356654 -0.0799921,-0.0799961 0,-0.0443268 0.0356654,-0.0799921 0.0799921,-0.0799921 0.0776614,0 0.140657,-0.0629961 0.140657,-0.140654l0 -0.540965c0,-0.0776614 -0.0629961,-0.140657 -0.140657,-0.140657l-2.6818 0c-0.0776614,0 -0.140657,0.0629961 -0.140657,0.140657l0 0.540961c0,0.0776614 0.0629961,0.140654 0.140657,0.140654 0.0443268,0 0.0799921,0.0356654 0.0799921,0.0799961 0,0.0443268 -0.0356654,0.0799921 -0.0799921,0.0799921 -0.165657,0 -0.300646,-0.134992 -0.300646,-0.300646l3.93701e-006 -0.540957c0,-0.165654 0.134988,-0.300646 0.300646,-0.300646l2.68179 3.93701e-006c0.165657,0 0.300646,0.134988 0.300646,0.300646l0 0.540961c-3.93701e-006,0.16565 -0.134992,0.300642 -0.300646,0.300642z"/>
      </g>
      <g id="_260624808">
       <path id="_438162472" class="fil5" d="M2.26609 4.63724c-0.119992,0 -0.217315,-0.0976575 -0.217315,-0.217315 0,-0.119992 0.0976575,-0.217315 0.217315,-0.217315 0.119657,0 0.217315,0.0973228 0.217315,0.217311 0,0.119657 -0.0973228,0.217319 -0.217315,0.217319zm0 -0.27498c-0.0316654,0 -0.0573307,0.0256614 -0.0573307,0.0573268 0,0.0316654 0.0256654,0.0573307 0.0573307,0.0573307 0.0316654,0 0.0573268,-0.0256614 0.0573268,-0.0573307 0,-0.0313268 -0.0256654,-0.0573268 -0.0573268,-0.0573268z"/>
      </g>
      <g id="_260624952">
       <path id="_438162832" class="fil5" d="M2.81571 4.63724c-0.119992,0 -0.217315,-0.0976575 -0.217315,-0.217315 0,-0.119992 0.0976575,-0.217315 0.217315,-0.217315 0.119657,0 0.217315,0.0976575 0.217315,0.217315 3.93701e-006,0.119654 -0.0976575,0.217315 -0.217315,0.217315zm0 -0.27498c-0.0316614,0 -0.0573307,0.0256614 -0.0573307,0.0573268 0,0.0316654 0.0256654,0.0573307 0.0573307,0.0573307 0.0316654,0 0.0573307,-0.0256614 0.0573307,-0.0573307 0,-0.0313268 -0.0256654,-0.0573268 -0.0573307,-0.0573268z"/>
      </g>
      <g id="_260624832">
       <path id="_438162376" class="fil5" d="M4.56057 4.63724l-0.999587 0c-0.119992,0 -0.217315,-0.0976575 -0.217315,-0.217315 0,-0.119992 0.0976575,-0.217315 0.217315,-0.217315l0.999587 -3.93701e-006c0.119992,0 0.217315,0.0976575 0.217315,0.217315 0,0.119657 -0.0973228,0.217319 -0.217315,0.217319zm-0.999587 -0.27498c-0.0316654,0 -0.0573307,0.0256614 -0.0573307,0.0573268 0,0.0316654 0.0256654,0.0573307 0.0573307,0.0573307l0.999587 0c0.0316654,0 0.0573307,-0.0256614 0.0573307,-0.0573307 0,-0.0316654 -0.0256654,-0.0573268 -0.0573307,-0.0573268l-0.999587 0z"/>
      </g>
     </g>
     <g>
      <g id="_260625384">
       <path id="_438162016" class="fil5" d="M4.75423 5.97313c-0.0443268,0 -0.0799921,-0.0356654 -0.0799921,-0.0799921 0,-0.0443307 0.0356654,-0.0799921 0.0799921,-0.0799921 0.0776614,0 0.140657,-0.0629961 0.140657,-0.140657l0 -0.540961c0,-0.0776614 -0.0629961,-0.140654 -0.140657,-0.140654l-2.6818 0c-0.0776614,0 -0.140657,0.0629921 -0.140657,0.140654l0 0.540961c0,0.0776614 0.0629961,0.140657 0.140657,0.140657 0.0443268,0 0.0799921,0.0356614 0.0799921,0.0799921 0,0.0443268 -0.0356654,0.0799921 -0.0799921,0.0799921 -0.165657,0 -0.300646,-0.134988 -0.300646,-0.300646l0 -0.540961c0,-0.165654 0.134988,-0.300642 0.300646,-0.300642l2.6818 0c0.165657,0 0.300646,0.134992 0.300646,0.300646l0 0.540961c-3.93701e-006,0.165654 -0.134992,0.300642 -0.300646,0.300642z"/>
      </g>
      <g id="_260625504">
       <path id="_438161800" class="fil5" d="M2.26609 5.6195c-0.119992,0 -0.217315,-0.0976614 -0.217315,-0.217319 0,-0.119988 0.0976575,-0.217315 0.217315,-0.217315 0.119657,0 0.217315,0.0976575 0.217315,0.217315 0,0.119657 -0.0973228,0.217319 -0.217315,0.217319zm0 -0.27498c-0.0316654,0 -0.0573307,0.0256654 -0.0573307,0.0573307 0,0.0316614 0.0256654,0.0573268 0.0573307,0.0573268 0.0316654,0 0.0573268,-0.0256614 0.0573268,-0.0573268 0,-0.0316654 -0.0256654,-0.0573307 -0.0573268,-0.0573307z"/>
      </g>
      <g id="_260625720">
       <path id="_438162256" class="fil5" d="M2.81571 5.6195c-0.119992,0 -0.217315,-0.0976614 -0.217315,-0.217319 0,-0.119988 0.0976575,-0.217315 0.217315,-0.217315 0.119657,0 0.217315,0.0976575 0.217315,0.217315 3.93701e-006,0.119657 -0.0976575,0.217319 -0.217315,0.217319zm0 -0.27498c-0.0316614,0 -0.0573307,0.0256654 -0.0573307,0.0573307 0,0.0316614 0.0256654,0.0573268 0.0573307,0.0573268 0.0316654,0 0.0573307,-0.0256614 0.0573307,-0.0573268 0,-0.0316654 -0.0256654,-0.0573307 -0.0573307,-0.0573307z"/>
      </g>
      <g id="_260625600">
       <path id="_438161896" class="fil5" d="M4.56057 5.6195l-0.999587 0c-0.119992,0 -0.217315,-0.0976614 -0.217315,-0.217319 0,-0.119657 0.0976575,-0.217315 0.217315,-0.217315l0.999587 0c0.119992,0 0.217315,0.0976575 0.217315,0.217315 0,0.119657 -0.0973228,0.217319 -0.217315,0.217319zm-0.999587 -0.27498c-0.0316654,0 -0.0573307,0.0256654 -0.0573307,0.0573307 0,0.0316654 0.0256654,0.0573268 0.0573307,0.0573268l0.999587 0c0.0316654,0 0.0573307,-0.0256654 0.0573307,-0.0573307 0,-0.0316654 -0.0256654,-0.0573307 -0.0573307,-0.0573307l-0.999587 3.93701e-006z"/>
      </g>
     </g>
     <g id="_260627256">
      <path id="_438161104" class="fil5" d="M4.75423 5.97313l-2.6818 0c-0.0443307,0 -0.0799921,-0.0356654 -0.0799921,-0.0799921 0,-0.0443307 0.0356614,-0.0799921 0.0799921,-0.0799921l2.6818 -3.93701e-006c0.0443307,0 0.0799921,0.0356614 0.0799921,0.0799921 0,0.0443307 -0.0356614,0.0799961 -0.0799921,0.0799961z"/>
     </g>
    </g>
    <g id="_260627280">
     <path id="_438161416" class="fil5" d="M3.41333 3.02636c-0.0203307,0 -0.0409961,-0.00766535 -0.0566614,-0.0233307l-1.03392 -1.03392c-0.0229961,-0.0229961 -0.0296654,-0.0573307 -0.0173307,-0.0873268 0.0123307,-0.03 0.0416614,-0.0493307 0.0739921,-0.0493307l0.488295 0 0 -0.898933c0,-0.0443268 0.0356654,-0.0799921 0.0799921,-0.0799921l0.931268 0c0.0443268,0 0.0799921,0.0356654 0.0799921,0.0799921l0 0.898933 0.488295 0c0.0323307,0 0.0616614,0.0193307 0.0739921,0.0493307 0.0123346,0.0299961 0.00566535,0.0643307 -0.0173307,0.0873268l-1.03392 1.03392c-0.0156654,0.0156654 -0.0363307,0.0233307 -0.0566614,0.0233307zm-0.840602 -1.03392l0.840602 0.840933 0.840602 -0.840602 -0.374969 3.93701e-006c-0.0443307,0 -0.0799961,-0.0356654 -0.0799961,-0.0799961l0 -0.899264 -0.771276 0 0 0.898933c0,0.0443268 -0.0356614,0.0799921 -0.0799921,0.0799921l-0.374972 0z"/>
    </g>
   </g>
  </g>
  <path class="fil6" d="M3.41333 2.83337l0.840602 -0.840602 -0.374969 3.93701e-006c-0.0443307,0 -0.0799961,-0.0356654 -0.0799961,-0.0799961l0 -0.899264 -0.771276 0 0 0.898933c0,0.0443268 -0.0356614,0.0799921 -0.0799921,0.0799921l-0.374972 0 0.840602 0.840933z"/>
 </g>
</svg>
